<svg width="24" height="24" viewBox="0 0 24 24" fill="none" xmlns="http://www.w3.org/2000/svg">
<path fill-rule="evenodd" clip-rule="evenodd" d="M6.49997 6C6.87875 6 7.22501 6.214 7.3944 6.55279L10.3854 12.5348C10.3919 12.5471 10.3981 12.5596 10.4041 12.5722L11.8944 15.5528C12.1414 16.0468 11.9412 16.6474 11.4472 16.8944C10.9532 17.1414 10.3525 16.9412 10.1055 16.4472L8.88194 14H4.11801L2.8944 16.4472C2.64741 16.9412 2.04674 17.1414 1.55276 16.8944C1.05878 16.6474 0.858558 16.0468 1.10555 15.5528L2.59586 12.5722C2.60183 12.5596 2.60807 12.5471 2.61455 12.5348L5.60555 6.55279C5.77494 6.214 6.1212 6 6.49997 6ZM5.11801 12H7.88194L6.49997 9.23607L5.11801 12ZM18 6C18.5523 6 19 6.44772 19 7V13.5858L21.2929 11.2929C21.6834 10.9024 22.3166 10.9024 22.7071 11.2929C23.0976 11.6834 23.0976 12.3166 22.7071 12.7071L18.7071 16.7071C18.3166 17.0976 17.6834 17.0976 17.2929 16.7071L13.2929 12.7071C12.9023 12.3166 12.9023 11.6834 13.2929 11.2929C13.6834 10.9024 14.3166 10.9024 14.7071 11.2929L17 13.5858V7C17 6.44772 17.4477 6 18 6Z" fill="black" style="fill:black;fill-opacity:1;"/>
</svg>
