<svg width="24" height="24" viewBox="0 0 24 24" fill="none" xmlns="http://www.w3.org/2000/svg">
<path fill-rule="evenodd" clip-rule="evenodd" d="M4 4C3.73478 4 3.48043 4.10536 3.29289 4.29289C3.10536 4.48043 3 4.73478 3 5V10C3 10.2652 3.10536 10.5196 3.29289 10.7071C3.48043 10.8946 3.73478 11 4 11H6C6.55228 11 7 11.4477 7 12C7 12.5523 6.55228 13 6 13H4C3.20435 13 2.44129 12.6839 1.87868 12.1213C1.31607 11.5587 1 10.7956 1 10V5C1 4.20435 1.31607 3.44129 1.87868 2.87868C2.44129 2.31607 3.20435 2 4 2H20C20.7957 2 21.5587 2.31607 22.1213 2.87868C22.6839 3.44129 23 4.20435 23 5V10C23 10.7957 22.6839 11.5587 22.1213 12.1213C21.5587 12.6839 20.7957 13 20 13H18C17.4477 13 17 12.5523 17 12C17 11.4477 17.4477 11 18 11H20C20.2652 11 20.5196 10.8946 20.7071 10.7071C20.8946 10.5196 21 10.2652 21 10V5C21 4.73478 20.8946 4.48043 20.7071 4.29289C20.5196 4.10536 20.2652 4 20 4H4ZM5 8C5 7.44772 5.44772 7 6 7H18C18.5523 7 19 7.44772 19 8C19 8.55228 18.5523 9 18 9H6C5.44772 9 5 8.55228 5 8ZM10 11C10.5523 11 11 11.4477 11 12V16.9936C11.0057 17.4874 10.8894 17.9749 10.6615 18.4129C10.4323 18.8533 10.0975 19.2299 9.68703 19.509C9.27654 19.7881 8.80321 19.961 8.30946 20.0121C7.81572 20.0633 7.31699 19.9911 6.858 19.8021C6.39899 19.6131 5.99407 19.3132 5.67951 18.9292C5.36495 18.5452 5.15059 18.0891 5.05564 17.6019C4.96069 17.1147 4.98812 16.6115 5.13548 16.1375C5.28283 15.6635 5.5455 15.2335 5.89995 14.886C6.2943 14.4993 6.92744 14.5055 7.31409 14.8999C7.70075 15.2943 7.6945 15.9274 7.30015 16.314C7.182 16.4299 7.09444 16.5732 7.04532 16.7312C6.9962 16.8892 6.98706 17.057 7.01871 17.2194C7.05036 17.3818 7.12181 17.5338 7.22667 17.6618C7.33152 17.7898 7.4665 17.8898 7.61949 17.9528C7.77249 18.0158 7.93874 18.0398 8.10332 18.0228C8.26789 18.0057 8.42567 17.9481 8.56251 17.8551C8.69934 17.762 8.81094 17.6365 8.88732 17.4897C8.9637 17.3429 9.00247 17.1795 9.00014 17.014L8.99995 17H9.00005V12C9.00005 11.4477 9.44776 11 10 11ZM14 11C14.5523 11 15 11.4477 15 12V19.5043C15.0138 19.739 15.0816 19.9675 15.1981 20.172C15.3173 20.381 15.484 20.5589 15.6847 20.6914C15.9929 20.8886 16.3625 20.9664 16.7241 20.9101C17.087 20.8536 17.4166 20.6659 17.6503 20.3826C17.8841 20.0993 18.0058 19.74 17.9923 19.373C17.9788 19.006 17.8312 18.6566 17.5773 18.3912C17.1956 17.9921 17.2097 17.3591 17.6088 16.9773C18.0079 16.5956 18.6409 16.6097 19.0227 17.0088C19.615 17.6282 19.9596 18.4433 19.991 19.2997C20.0224 20.1562 19.7384 20.9944 19.193 21.6554C18.6476 22.3165 17.8786 22.7544 17.0318 22.8863C16.185 23.0181 15.3193 22.8347 14.5987 22.3708L14.5916 22.3663L14.5916 22.3662C14.1247 22.0601 13.7371 21.6475 13.4606 21.1624C13.1841 20.6773 13.0266 20.1335 13.001 19.5757C13.0003 19.5605 13 19.5452 13 19.53V12C13 11.4477 13.4477 11 14 11Z" fill="black" style="fill:black;fill-opacity:1;"/>
</svg>
