<svg width="24" height="24" viewBox="0 0 24 24" fill="none" xmlns="http://www.w3.org/2000/svg">
<path fill-rule="evenodd" clip-rule="evenodd" d="M1.29289 1.29289C1.68342 0.902369 2.31658 0.902369 2.70711 1.29289L22.7071 21.2929C23.0976 21.6834 23.0976 22.3166 22.7071 22.7071C22.3166 23.0976 21.6834 23.0976 21.2929 22.7071L18.155 19.5692C17.5143 20.1791 16.7857 20.6927 15.9918 21.0918C14.8698 21.6558 13.6422 21.9788 12.3879 22.04C11.1337 22.1012 9.88048 21.8992 8.70895 21.447C7.83878 21.1112 7.02797 20.6429 6.30454 20.0603L4.71781 21.6962C4.33328 22.0926 3.70019 22.1023 3.30376 21.7177C2.90732 21.3332 2.89767 20.7001 3.28219 20.3037L4.89564 18.6403C4.33354 17.9309 3.88039 17.1392 3.55309 16.2912C3.10095 15.1196 2.89897 13.8665 2.96015 12.6122C3.02133 11.3579 3.34431 10.1303 3.90833 9.00836C4.30744 8.21444 4.82099 7.48583 5.43092 6.84513L4 5.41421L2.70711 6.70711C2.31658 7.09763 1.68342 7.09763 1.29289 6.70711C0.902369 6.31658 0.902369 5.68342 1.29289 5.29289L2.58579 4L1.29289 2.70711C0.902369 2.31658 0.902369 1.68342 1.29289 1.29289ZM6.84568 8.2599C6.3861 8.74951 5.99827 9.30388 5.69525 9.90665C5.25657 10.7793 5.00536 11.7341 4.95778 12.7096C4.91019 13.6852 5.06728 14.6599 5.41895 15.5711C5.75615 16.4448 6.26509 17.2415 6.91524 17.9145C6.92916 17.9266 6.94284 17.9391 6.95624 17.9521C6.98021 17.9754 7.00277 17.9995 7.02391 18.0245C7.70964 18.7036 8.52848 19.2336 9.42906 19.5812C10.3403 19.9328 11.315 20.0899 12.2905 20.0423C13.266 19.9948 14.2208 19.7436 15.0935 19.3049C15.6962 19.0019 16.2506 18.614 16.7402 18.1544L6.84568 8.2599ZM18.2929 2.29289C18.6834 1.90237 19.3166 1.90237 19.7071 2.29289L22.7071 5.29289C23.0976 5.68342 23.0976 6.31658 22.7071 6.70711C22.3166 7.09763 21.6834 7.09763 21.2929 6.70711L18.2929 3.70711C17.9024 3.31658 17.9024 2.68342 18.2929 2.29289ZM10.594 4.11213C11.9962 3.89068 13.431 4.00408 14.781 4.44307C16.131 4.88206 17.3581 5.63418 18.3619 6.63799C19.3657 7.64181 20.1178 8.86885 20.5568 10.2189C20.9958 11.5689 21.1092 13.0036 20.8878 14.4059C20.8016 14.9514 20.2895 15.3238 19.744 15.2376C19.1985 15.1515 18.8261 14.6394 18.9122 14.0939C19.0845 13.0033 18.9963 11.8874 18.6548 10.8373C18.3134 9.78732 17.7284 8.83295 16.9477 8.05221C16.1669 7.27146 15.2126 6.68648 14.1625 6.34504C13.1125 6.00361 11.9966 5.91541 10.906 6.08765C10.3605 6.1738 9.84839 5.8014 9.76224 5.25588C9.67609 4.71035 10.0485 4.19828 10.594 4.11213Z" fill="black" style="fill:black;fill-opacity:1;"/>
</svg>
