<svg width="24" height="24" viewBox="0 0 24 24" fill="none" xmlns="http://www.w3.org/2000/svg">
<path fill-rule="evenodd" clip-rule="evenodd" d="M1 4C1 3.44772 1.44772 3 2 3H22C22.5523 3 23 3.44772 23 4C23 4.55228 22.5523 5 22 5H17.8293C17.9398 5.31278 18 5.64936 18 6V8C18 9.65685 16.6569 11 15 11H9C7.34315 11 6 9.65685 6 8V6C6 5.64936 6.06015 5.31278 6.17071 5H2C1.44772 5 1 4.55228 1 4ZM9 5C8.44772 5 8 5.44772 8 6V8C8 8.55228 8.44772 9 9 9H15C15.5523 9 16 8.55228 16 8V6C16 5.44772 15.5523 5 15 5H9ZM1 14C1 13.4477 1.44772 13 2 13H22C22.5523 13 23 13.4477 23 14C23 14.5523 22.5523 15 22 15H19.8293C19.9398 15.3128 20 15.6494 20 16V18C20 19.6569 18.6569 21 17 21H7C5.34315 21 4 19.6569 4 18V16C4 15.6494 4.06015 15.3128 4.17071 15H2C1.44772 15 1 14.5523 1 14ZM7 15C6.44772 15 6 15.4477 6 16V18C6 18.5523 6.44772 19 7 19H17C17.5523 19 18 18.5523 18 18V16C18 15.4477 17.5523 15 17 15H7Z" fill="black" style="fill:black;fill-opacity:1;"/>
</svg>
