<svg width="24" height="24" viewBox="0 0 24 24" fill="none" xmlns="http://www.w3.org/2000/svg">
<path fill-rule="evenodd" clip-rule="evenodd" d="M2 1C2.55228 1 3 1.44772 3 2V22C3 22.5523 2.55228 23 2 23C1.44772 23 1 22.5523 1 22V2C1 1.44772 1.44772 1 2 1ZM8 6C7.44772 6 7 6.44772 7 7V17C7 17.5523 7.44772 18 8 18H10C10.5523 18 11 17.5523 11 17V7C11 6.44772 10.5523 6 10 6H8ZM5 7C5 5.34315 6.34315 4 8 4H10C11.6569 4 13 5.34315 13 7V17C13 18.6569 11.6569 20 10 20H8C6.34315 20 5 18.6569 5 17V7ZM18 8C17.4477 8 17 8.44772 17 9V15C17 15.5523 17.4477 16 18 16H20C20.5523 16 21 15.5523 21 15V9C21 8.44772 20.5523 8 20 8H18ZM15 9C15 7.34315 16.3431 6 18 6H20C21.6569 6 23 7.34315 23 9V15C23 16.6569 21.6569 18 20 18H18C16.3431 18 15 16.6569 15 15V9Z" fill="black" style="fill:black;fill-opacity:1;"/>
</svg>
