<svg width="24" height="24" viewBox="0 0 24 24" fill="none" xmlns="http://www.w3.org/2000/svg">
<path fill-rule="evenodd" clip-rule="evenodd" d="M2 1C2.55228 1 3 1.44772 3 2V22C3 22.5523 2.55228 23 2 23C1.44772 23 1 22.5523 1 22V2C1 1.44772 1.44772 1 2 1ZM8 5C7.44772 5 7 5.44772 7 6V8C7 8.55228 7.44772 9 8 9H20C20.5523 9 21 8.55228 21 8V6C21 5.44772 20.5523 5 20 5H8ZM5 6C5 4.34315 6.34315 3 8 3H20C21.6569 3 23 4.34315 23 6V8C23 9.65685 21.6569 11 20 11H8C6.34315 11 5 9.65685 5 8V6ZM8 15C7.44772 15 7 15.4477 7 16V18C7 18.5523 7.44772 19 8 19H13C13.5523 19 14 18.5523 14 18V16C14 15.4477 13.5523 15 13 15H8ZM5 16C5 14.3431 6.34315 13 8 13H13C14.6569 13 16 14.3431 16 16V18C16 19.6569 14.6569 21 13 21H8C6.34315 21 5 19.6569 5 18V16Z" fill="black" style="fill:black;fill-opacity:1;"/>
</svg>
