<svg width="24" height="24" viewBox="0 0 24 24" fill="none" xmlns="http://www.w3.org/2000/svg">
<path fill-rule="evenodd" clip-rule="evenodd" d="M9 5C8.44772 5 8 5.44772 8 6V8C8 8.55228 8.44772 9 9 9H15C15.5523 9 16 8.55228 16 8V6C16 5.44772 15.5523 5 15 5H9ZM18 8C18 9.65685 16.6569 11 15 11H9C7.34315 11 6 9.65685 6 8H1C0.447715 8 0 7.55228 0 7C0 6.44772 0.447715 6 1 6H6C6 4.34315 7.34315 3 9 3H15C16.6569 3 18 4.34315 18 6H22C22.5523 6 23 6.44772 23 7C23 7.55228 22.5523 8 22 8H18ZM7 15C6.44772 15 6 15.4477 6 16V18C6 18.5523 6.44772 19 7 19H17C17.5523 19 18 18.5523 18 18V16C18 15.4477 17.5523 15 17 15H7ZM20 18C20 19.6569 18.6569 21 17 21H7C5.34315 21 4 19.6569 4 18H2C1.44772 18 1 17.5523 1 17C1 16.4477 1.44772 16 2 16H4C4 14.3431 5.34315 13 7 13H17C18.6569 13 20 14.3431 20 16H22C22.5523 16 23 16.4477 23 17C23 17.5523 22.5523 18 22 18H20Z" fill="black" style="fill:black;fill-opacity:1;"/>
</svg>
