<svg width="24" height="24" viewBox="0 0 24 24" fill="none" xmlns="http://www.w3.org/2000/svg">
<path fill-rule="evenodd" clip-rule="evenodd" d="M1 2C1 1.44772 1.44772 1 2 1H22C22.5523 1 23 1.44772 23 2C23 2.55228 22.5523 3 22 3H2C1.44772 3 1 2.55228 1 2ZM6 7C5.44772 7 5 7.44772 5 8V20C5 20.5523 5.44772 21 6 21H8C8.55228 21 9 20.5523 9 20V8C9 7.44772 8.55228 7 8 7H6ZM3 8C3 6.34315 4.34315 5 6 5H8C9.65685 5 11 6.34315 11 8V20C11 21.6569 9.65685 23 8 23H6C4.34315 23 3 21.6569 3 20V8ZM16 7C15.4477 7 15 7.44772 15 8V13C15 13.5523 15.4477 14 16 14H18C18.5523 14 19 13.5523 19 13V8C19 7.44772 18.5523 7 18 7H16ZM13 8C13 6.34315 14.3431 5 16 5H18C19.6569 5 21 6.34315 21 8V13C21 14.6569 19.6569 16 18 16H16C14.3431 16 13 14.6569 13 13V8Z" fill="black" style="fill:black;fill-opacity:1;"/>
</svg>
