<svg width="24" height="24" viewBox="0 0 24 24" fill="none" xmlns="http://www.w3.org/2000/svg">
<path fill-rule="evenodd" clip-rule="evenodd" d="M9 5C8.44772 5 8 5.44772 8 6V8C8 8.55228 8.44772 9 9 9H15C15.5523 9 16 8.55228 16 8V6C16 5.44772 15.5523 5 15 5H9ZM17.8293 9C17.9398 8.68722 18 8.35064 18 8V6C18 4.34315 16.6569 3 15 3H9C7.34315 3 6 4.34315 6 6V8C6 8.35064 6.06015 8.68722 6.17071 9H2C1.44772 9 1 9.44772 1 10C1 10.5523 1.44772 11 2 11H22C22.5523 11 23 10.5523 23 10C23 9.44772 22.5523 9 22 9H17.8293ZM7 15C6.44772 15 6 15.4477 6 16V18C6 18.5523 6.44772 19 7 19H17C17.5523 19 18 18.5523 18 18V16C18 15.4477 17.5523 15 17 15H7ZM19.8293 19C19.9398 18.6872 20 18.3506 20 18V16C20 14.3431 18.6569 13 17 13H7C5.34315 13 4 14.3431 4 16V18C4 18.3506 4.06015 18.6872 4.17071 19H2C1.44772 19 1 19.4477 1 20C1 20.5523 1.44772 21 2 21H22C22.5523 21 23 20.5523 23 20C23 19.4477 22.5523 19 22 19H19.8293Z" fill="black" style="fill:black;fill-opacity:1;"/>
</svg>
