<svg width="24" height="24" viewBox="0 0 24 24" fill="none" xmlns="http://www.w3.org/2000/svg">
<path fill-rule="evenodd" clip-rule="evenodd" d="M6.58579 3.58579C6.96086 3.21071 7.46957 3 8 3H21C21.5304 3 22.0391 3.21071 22.4142 3.58579C22.7893 3.96086 23 4.46957 23 5C23 7.12173 22.1571 9.15656 20.6569 10.6569C19.3942 11.9195 17.753 12.7165 16 12.9373V16C17.0609 16 18.0783 16.4214 18.8284 17.1716C19.5786 17.9217 20 18.9391 20 20C20 20.5304 19.7893 21.0391 19.4142 21.4142C19.0391 21.7893 18.5304 22 18 22H6C5.46957 22 4.96086 21.7893 4.58579 21.4142C4.21071 21.0391 4 20.5304 4 20C4 18.9391 4.42143 17.9217 5.17157 17.1716C5.92172 16.4214 6.93913 16 8 16V13C7.46957 13 6.96086 12.7893 6.58579 12.4142C6.21071 12.0391 6 11.5304 6 11C4.67392 11 3.40215 10.4732 2.46447 9.53553C1.52678 8.59785 1 7.32608 1 6C1 5.46957 1.21071 4.96086 1.58579 4.58579C1.96086 4.21071 2.46957 4 3 4H6.26794C6.3546 3.8499 6.46111 3.71046 6.58579 3.58579ZM6 6L3 6C3 6.79565 3.31607 7.55871 3.87868 8.12132C4.44129 8.68393 5.20435 9 6 9V6ZM8 11H15C16.5913 11 18.1174 10.3679 19.2426 9.24264C20.3679 8.11742 21 6.5913 21 5L8 5V11ZM10 13V16H14V13H10ZM8 18C7.46957 18 6.96086 18.2107 6.58579 18.5858C6.21071 18.9609 6 19.4696 6 20H18C18 19.4696 17.7893 18.9609 17.4142 18.5858C17.0391 18.2107 16.5304 18 16 18H8Z" fill="black" style="fill:black;fill-opacity:1;"/>
</svg>
