<svg width="24" height="24" viewBox="0 0 24 24" fill="none" xmlns="http://www.w3.org/2000/svg">
<path fill-rule="evenodd" clip-rule="evenodd" d="M3.92625 8.01871C3.33323 9.21901 3 10.5706 3 12C3 13.0519 3.18046 14.0617 3.51212 15H7.95769L6.52556 12.52C6.51793 12.5074 6.51059 12.4947 6.50355 12.4818L3.92625 8.01871ZM3.09483 5.54126C1.77715 7.35492 1 9.5867 1 12C1 13.5409 1.31685 15.0079 1.88896 16.3392C1.90383 16.3805 1.92133 16.4204 1.94126 16.4589C3.48443 19.935 6.77653 22.4623 10.7007 22.9241C10.7461 22.9323 10.7918 22.9374 10.8375 22.9393C11.2195 22.9794 11.6074 23 12 23C15.5959 23 18.7887 21.2746 20.7959 18.6065C20.8372 18.5603 20.8738 18.5106 20.9054 18.4584C22.223 16.6448 23 14.4131 23 12C23 10.4585 22.6829 8.991 22.1104 7.65927C22.0958 7.61907 22.0788 7.58008 22.0594 7.54247C20.5163 4.06546 17.2235 1.53739 13.2984 1.07583C13.2536 1.0677 13.2085 1.06272 13.1634 1.0608C12.7811 1.02061 12.393 1 12 1C8.40394 1 5.21092 2.72558 3.20379 5.39389C3.16269 5.4399 3.12631 5.48928 3.09483 5.54126ZM5.15815 6.1526L7.38005 10.0003L8.81542 7.51464C8.82064 7.50526 8.826 7.49598 8.8315 7.48679L11.4115 3.01893C8.91161 3.18028 6.68966 4.36232 5.15815 6.1526ZM13.6453 3.15005L11.4221 7H14.2909C14.3031 6.99978 14.3152 6.99978 14.3274 7H19.4845C18.1607 5.0224 16.0739 3.5987 13.6453 3.15005ZM20.4879 9H16.0423L17.4744 11.4801C17.4821 11.4926 17.4894 11.5054 17.4965 11.5183L20.0737 15.9813C20.6668 14.781 21 13.4294 21 12C21 10.9481 20.8195 9.93834 20.4879 9ZM18.8418 17.8474L16.62 13.9998L15.1778 16.4972C15.177 16.4986 15.1761 16.5001 15.1753 16.5015L12.5885 20.9811C15.0884 20.8197 17.3103 19.6377 18.8418 17.8474ZM10.3547 20.85L12.5779 17H9.71213C9.69795 17.0003 9.68378 17.0003 9.66964 17H4.51555C5.83932 18.9776 7.92609 20.4013 10.3547 20.85ZM10.2672 15H13.7329L15.4652 12.0001L13.7328 9H10.2672L8.53481 12L10.2672 15Z" fill="black" style="fill:black;fill-opacity:1;"/>
</svg>
