<svg width="24" height="24" viewBox="0 0 24 24" fill="none" xmlns="http://www.w3.org/2000/svg">
<path fill-rule="evenodd" clip-rule="evenodd" d="M7 3C7.55228 3 8 3.44772 8 4V17.5858L10.2929 15.2929C10.6834 14.9024 11.3166 14.9024 11.7071 15.2929C12.0976 15.6834 12.0976 16.3166 11.7071 16.7071L7.70711 20.7071C7.31658 21.0976 6.68342 21.0976 6.29289 20.7071L2.29289 16.7071C1.90237 16.3166 1.90237 15.6834 2.29289 15.2929C2.68342 14.9024 3.31658 14.9024 3.70711 15.2929L6 17.5858V4C6 3.44772 6.44772 3 7 3ZM17 5C16.4477 5 16 5.44772 16 6V8C16 8.55228 16.4477 9 17 9C17.5523 9 18 8.55228 18 8V6C18 5.44772 17.5523 5 17 5ZM14 6C14 4.34315 15.3431 3 17 3C18.6569 3 20 4.34315 20 6V8C20 9.65685 18.6569 11 17 11C15.3431 11 14 9.65685 14 8V6ZM14 14C14 13.4477 14.4477 13 15 13H17C17.5523 13 18 13.4477 18 14V19H19C19.5523 19 20 19.4477 20 20C20 20.5523 19.5523 21 19 21H15C14.4477 21 14 20.5523 14 20C14 19.4477 14.4477 19 15 19H16V15H15C14.4477 15 14 14.5523 14 14Z" fill="black" style="fill:black;fill-opacity:1;"/>
</svg>
