<svg width="24" height="24" viewBox="0 0 24 24" fill="none" xmlns="http://www.w3.org/2000/svg">
<path fill-rule="evenodd" clip-rule="evenodd" d="M21 4C21.5523 4 22 4.44772 22 5V19C22 19.5523 21.5523 20 21 20C20.4477 20 20 19.5523 20 19V5C20 4.44772 20.4477 4 21 4ZM9.70711 5.29289C10.0976 5.68342 10.0976 6.31658 9.70711 6.70711L5.41421 11H17C17.5523 11 18 11.4477 18 12C18 12.5523 17.5523 13 17 13H5.41421L9.70711 17.2929C10.0976 17.6834 10.0976 18.3166 9.70711 18.7071C9.31658 19.0976 8.68342 19.0976 8.29289 18.7071L2.29289 12.7071C1.90237 12.3166 1.90237 11.6834 2.29289 11.2929L8.29289 5.29289C8.68342 4.90237 9.31658 4.90237 9.70711 5.29289Z" fill="black" style="fill:black;fill-opacity:1;"/>
</svg>
