<svg width="24" height="24" viewBox="0 0 24 24" fill="none" xmlns="http://www.w3.org/2000/svg">
<path fill-rule="evenodd" clip-rule="evenodd" d="M13.7558 3.17294C12.01 2.82567 10.2004 3.0039 8.55585 3.68509C6.91131 4.36628 5.50571 5.51983 4.51677 6.99987C3.52784 8.47992 3 10.22 3 12C3 12.5523 2.55228 13 2 13C1.44772 13 1 12.5523 1 12C1 9.82441 1.64514 7.69767 2.85383 5.88873C4.06253 4.07979 5.78049 2.66989 7.79048 1.83733C9.80047 1.00477 12.0122 0.786929 14.146 1.21137C16.2798 1.6358 18.2398 2.68345 19.7782 4.22183C21.3166 5.76021 22.3642 7.72022 22.7886 9.85401C23.2131 11.9878 22.9952 14.1995 22.1627 16.2095C21.3301 18.2195 19.9202 19.9375 18.1113 21.1462C16.3023 22.3549 14.1756 23 12 23C11.4477 23 11 22.5523 11 22C11 21.4477 11.4477 21 12 21C13.78 21 15.5201 20.4722 17.0001 19.4832C18.4802 18.4943 19.6337 17.0887 20.3149 15.4442C20.9961 13.7996 21.1743 11.99 20.8271 10.2442C20.4798 8.49836 19.6226 6.89472 18.364 5.63604C17.1053 4.37737 15.5016 3.5202 13.7558 3.17294ZM12.7071 11.2929C13.0976 11.6834 13.0976 12.3166 12.7071 12.7071L4.41421 21H8C8.55228 21 9 21.4477 9 22C9 22.5523 8.55228 23 8 23H2C1.44772 23 1 22.5523 1 22V16C1 15.4477 1.44772 15 2 15C2.55228 15 3 15.4477 3 16V19.5858L11.2929 11.2929C11.6834 10.9024 12.3166 10.9024 12.7071 11.2929Z" fill="black" style="fill:black;fill-opacity:1;"/>
</svg>
