<svg width="24" height="24" viewBox="0 0 24 24" fill="none" xmlns="http://www.w3.org/2000/svg">
<path fill-rule="evenodd" clip-rule="evenodd" d="M6.29289 3.29289C6.68342 2.90237 7.31658 2.90237 7.70711 3.29289L11.7071 7.29289C12.0976 7.68342 12.0976 8.31658 11.7071 8.70711C11.3166 9.09763 10.6834 9.09763 10.2929 8.70711L8 6.41421V20C8 20.5523 7.55228 21 7 21C6.44772 21 6 20.5523 6 20V6.41421L3.70711 8.70711C3.31658 9.09763 2.68342 9.09763 2.29289 8.70711C1.90237 8.31658 1.90237 7.68342 2.29289 7.29289L6.29289 3.29289ZM17 5C16.4477 5 16 5.44772 16 6V8C16 8.55228 16.4477 9 17 9C17.5523 9 18 8.55228 18 8V6C18 5.44772 17.5523 5 17 5ZM14 6C14 4.34315 15.3431 3 17 3C18.6569 3 20 4.34315 20 6V8C20 9.65685 18.6569 11 17 11C15.3431 11 14 9.65685 14 8V6ZM14 14C14 13.4477 14.4477 13 15 13H17C17.5523 13 18 13.4477 18 14V19H19C19.5523 19 20 19.4477 20 20C20 20.5523 19.5523 21 19 21H15C14.4477 21 14 20.5523 14 20C14 19.4477 14.4477 19 15 19H16V15H15C14.4477 15 14 14.5523 14 14Z" fill="black" style="fill:black;fill-opacity:1;"/>
</svg>
