<svg width="24" height="24" viewBox="0 0 24 24" fill="none" xmlns="http://www.w3.org/2000/svg">
<path fill-rule="evenodd" clip-rule="evenodd" d="M2 3C2 2.44772 2.44772 2 3 2H9C9.55228 2 10 2.44772 10 3C10 3.55228 9.55228 4 9 4H5.41421L12.7071 11.2929C13.0976 11.6834 13.0976 12.3166 12.7071 12.7071C12.3166 13.0976 11.6834 13.0976 11.2929 12.7071L4 5.41421V9C4 9.55228 3.55228 10 3 10C2.44772 10 2 9.55228 2 9V3ZM19 4H13C12.4477 4 12 3.55228 12 3C12 2.44772 12.4477 2 13 2H19C19.7957 2 20.5587 2.31607 21.1213 2.87868C21.6839 3.44129 22 4.20435 22 5V19C22 19.7957 21.6839 20.5587 21.1213 21.1213C20.5587 21.6839 19.7957 22 19 22H5C4.20435 22 3.44129 21.6839 2.87868 21.1213C2.31607 20.5587 2 19.7957 2 19V13C2 12.4477 2.44772 12 3 12C3.55228 12 4 12.4477 4 13V19C4 19.2652 4.10536 19.5196 4.29289 19.7071C4.48043 19.8946 4.73478 20 5 20H19C19.2652 20 19.5196 19.8946 19.7071 19.7071C19.8946 19.5196 20 19.2652 20 19V5C20 4.73478 19.8946 4.48043 19.7071 4.29289C19.5196 4.10536 19.2652 4 19 4Z" fill="black" style="fill:black;fill-opacity:1;"/>
</svg>
