<svg width="24" height="24" viewBox="0 0 24 24" fill="none" xmlns="http://www.w3.org/2000/svg">
<path fill-rule="evenodd" clip-rule="evenodd" d="M11.6173 4.07612C11.991 3.92134 12.4211 4.0069 12.7071 4.29289L19.7071 11.2929C20.0976 11.6834 20.0976 12.3166 19.7071 12.7071L12.7071 19.7071C12.4211 19.9931 11.991 20.0787 11.6173 19.9239C11.2436 19.7691 11 19.4045 11 19V16H9C8.44772 16 8 15.5523 8 15V9C8 8.44772 8.44772 8 9 8H11V5C11 4.59554 11.2436 4.2309 11.6173 4.07612ZM13 7.41421V9C13 9.55229 12.5523 10 12 10H10V14H12C12.5523 14 13 14.4477 13 15V16.5858L17.5858 12L13 7.41421ZM5 8C5.55228 8 6 8.44772 6 9V15C6 15.5523 5.55228 16 5 16C4.44772 16 4 15.5523 4 15V9C4 8.44772 4.44772 8 5 8Z" fill="black" style="fill:black;fill-opacity:1;"/>
</svg>
