<svg width="24" height="24" viewBox="0 0 24 24" fill="none" xmlns="http://www.w3.org/2000/svg">
<path fill-rule="evenodd" clip-rule="evenodd" d="M11.998 2L12 2C13.1749 2 14.2629 2.32205 15.0843 2.91347C15.9107 3.50849 16.5 4.41139 16.5 5.5C16.5 7.23955 15.3433 9 13.5 9C12.9476 9 12.3777 8.86431 11.9131 8.56866C11.4423 8.26903 11 7.73886 11 7C11 6.44772 11.4477 6 12 6C12.5136 6 12.9367 6.38712 12.9935 6.88547C13.0814 6.93889 13.2586 7 13.5 7C13.8567 7 14.5 6.56045 14.5 5.5C14.5 5.18861 14.3393 4.84151 13.9157 4.53653C13.4873 4.22807 12.8256 4.00018 12.001 4C10.1602 4.00395 8.377 4.64263 6.95226 5.80832C5.52726 6.97424 4.54803 8.596 4.17979 10.4C4.11747 10.7053 3.91636 10.9642 3.63589 11.1C3.46682 11.1819 3.32423 11.3097 3.22446 11.4689C3.12469 11.6281 3.07178 11.8121 3.07178 12C3.07178 12.1879 3.12469 12.3719 3.22446 12.5311C3.32423 12.6903 3.46682 12.8181 3.63589 12.9C3.91324 13.0343 4.11317 13.289 4.17778 13.5904C4.56152 15.3801 5.54741 16.9842 6.97094 18.1348C8.39448 19.2855 10.1696 19.9132 12 19.9132C13.8304 19.9132 15.6055 19.2855 17.0291 18.1348C18.4526 16.9842 19.4385 15.3801 19.8222 13.5904C19.8868 13.289 20.0868 13.0343 20.3641 12.9C20.5332 12.8181 20.6758 12.6903 20.7755 12.5311C20.8753 12.3719 20.9282 12.1879 20.9282 12C20.9282 11.8121 20.8753 11.6281 20.7755 11.4689C20.6758 11.3097 20.5332 11.1819 20.3641 11.1C20.0805 10.9626 19.8782 10.6996 19.8183 10.3903C19.5725 9.12253 19.0236 7.9331 18.2183 6.92362C17.8739 6.49188 17.9446 5.86269 18.3764 5.51827C18.8081 5.17386 19.4373 5.24465 19.7817 5.67638C20.6944 6.82051 21.3437 8.14956 21.6859 9.56884C21.9975 9.79412 22.2642 10.0782 22.4702 10.4067C22.7695 10.8843 22.9282 11.4364 22.9282 12C22.9282 12.5636 22.7695 13.1157 22.4702 13.5933C22.262 13.9253 21.9918 14.2119 21.6759 14.4383C21.1373 16.5024 19.9513 18.3444 18.2863 19.6902C16.5069 21.1286 14.288 21.9132 12 21.9132C9.71195 21.9132 7.4931 21.1286 5.71368 19.6902C4.0487 18.3444 2.86268 16.5024 2.32406 14.4383C2.00819 14.2119 1.73795 13.9253 1.52983 13.5933C1.23052 13.1157 1.07178 12.5636 1.07178 12C1.07178 11.4364 1.23052 10.8843 1.52983 10.4067C1.73686 10.0764 2.00535 9.79108 2.31909 9.56524C2.84123 7.48506 4.01978 5.6235 5.68579 4.26041C7.46704 2.80302 9.69649 2.00465 11.998 2ZM8 12C8 11.4477 8.44772 11 9 11H9.01C9.56228 11 10.01 11.4477 10.01 12C10.01 12.5523 9.56228 13 9.01 13H9C8.44772 13 8 12.5523 8 12ZM14 12C14 11.4477 14.4477 11 15 11H15.01C15.5623 11 16.01 11.4477 16.01 12C16.01 12.5523 15.5623 13 15.01 13H15C14.4477 13 14 12.5523 14 12ZM9.14251 15.4855C9.42666 15.0119 10.0409 14.8584 10.5145 15.1425C10.84 15.3378 11.3577 15.5 12 15.5C12.6423 15.5 13.16 15.3378 13.4855 15.1425C13.9591 14.8584 14.5733 15.0119 14.8575 15.4855C15.1416 15.9591 14.9881 16.5733 14.5145 16.8575C13.84 17.2622 12.9577 17.5 12 17.5C11.0423 17.5 10.16 17.2622 9.4855 16.8575C9.01192 16.5733 8.85836 15.9591 9.14251 15.4855Z" fill="black" style="fill:black;fill-opacity:1;"/>
</svg>
