<svg width="24" height="24" viewBox="0 0 24 24" fill="none" xmlns="http://www.w3.org/2000/svg">
<path fill-rule="evenodd" clip-rule="evenodd" d="M9.21123 4.08761C8.92505 4.28589 8.51871 4.5 8 4.5C7.36793 4.5 6.80604 4.3293 6.40294 4.20678C5.94594 4.06787 5.70999 4 5.5 4C5.10218 4 4.72064 4.15804 4.43934 4.43934C4.15804 4.72064 4 5.10218 4 5.5C4 5.89782 4.15804 6.27936 4.43934 6.56066C4.72064 6.84196 5.10218 7 5.5 7C5.70535 7 5.91856 6.93548 6.37091 6.79499C6.77859 6.66839 7.33532 6.5 8 6.5C8.59839 6.5 9.06944 6.64077 9.43659 6.75049C9.48238 6.76417 9.52654 6.77737 9.56914 6.78975C9.9461 6.89933 10.347 7 11 7C11.653 7 12.0539 6.89933 12.4309 6.78975C12.4735 6.77737 12.5176 6.76417 12.5634 6.75049C12.9306 6.64077 13.4016 6.5 14 6.5C14.6647 6.5 15.2214 6.66839 15.6291 6.79499C16.0814 6.93548 16.2946 7 16.5 7C16.8978 7 17.2794 6.84196 17.5607 6.56066C17.842 6.27936 18 5.89782 18 5.5C18 5.10218 17.842 4.72064 17.5607 4.43934C17.2794 4.15804 16.8978 4 16.5 4C16.2946 4 16.0814 4.06452 15.6291 4.20501C15.2214 4.33161 14.6647 4.5 14 4.5C13.4787 4.5 13.0682 4.29828 12.7654 4.09185C12.5454 3.94186 12.3237 3.74437 12.1585 3.59728C12.1199 3.5629 12.0844 3.53128 12.0527 3.50366C11.6666 3.16692 11.4027 3 11 3C10.5904 3 10.3065 3.17421 9.91347 3.51017C9.8774 3.541 9.83618 3.57712 9.79112 3.61661C9.62776 3.75977 9.41386 3.94722 9.21123 4.08761ZM8.61403 1.98983C9.09845 1.57579 9.84964 1 11 1C12.1573 1 12.8934 1.58308 13.3673 1.99634C13.4372 2.0573 13.497 2.11037 13.5499 2.15724C13.6958 2.2866 13.7885 2.36878 13.8921 2.4394C13.9485 2.47788 13.981 2.49249 13.9952 2.49776C13.9984 2.49896 14.0006 2.49964 14.0019 2.5C14.3365 2.49969 14.6393 2.41815 15.0359 2.29499C15.0654 2.28585 15.0961 2.27617 15.128 2.26612C15.4785 2.15579 15.9733 2 16.5 2C17.4283 2 18.3185 2.36875 18.9749 3.02513C19.6312 3.6815 20 4.57174 20 5.5C20 6.42826 19.6312 7.3185 18.9749 7.97487C18.6889 8.26084 18.3586 8.49221 18 8.66228V10C19.0609 10 20.0783 10.4214 20.8284 11.1716C21.5786 11.9217 22 12.9391 22 14C22 15.0609 21.5786 16.0783 20.8284 16.8284C20.0783 17.5786 19.0609 18 18 18V20C18 20.7957 17.6839 21.5587 17.1213 22.1213C16.5587 22.6839 15.7957 23 15 23H7C6.20435 23 5.44129 22.6839 4.87868 22.1213C4.31607 21.5587 4 20.7957 4 20V8.66228C3.64145 8.49221 3.31109 8.26084 3.02513 7.97487C2.36875 7.3185 2 6.42826 2 5.5C2 4.57174 2.36875 3.6815 3.02513 3.02513C3.6815 2.36875 4.57174 2 5.5 2C6.02877 2 6.53951 2.15673 6.90242 2.26809C6.93072 2.27677 6.95812 2.28518 6.98456 2.29322C7.39382 2.41762 7.68759 2.49614 7.9784 2.49986C7.99297 2.49332 8.023 2.47773 8.07221 2.44364C8.17376 2.37328 8.26349 2.29478 8.39839 2.17677C8.45931 2.12348 8.52944 2.06213 8.61403 1.98983ZM6 8.95747V20C6 20.2652 6.10536 20.5196 6.29289 20.7071C6.48043 20.8946 6.73478 21 7 21H15C15.2652 21 15.5196 20.8946 15.7071 20.7071C15.8946 20.5196 16 20.2652 16 20V8.95747C15.6667 8.90345 15.3645 8.80832 15.128 8.73388C15.0961 8.72383 15.0654 8.71415 15.0359 8.70501C14.6386 8.58161 14.3353 8.5 14 8.5C13.7064 8.5 13.5087 8.55799 13.127 8.66996C13.0835 8.68269 13.0377 8.69612 12.9891 8.71025C12.5061 8.85067 11.907 9 11 9C10.093 9 9.4939 8.85067 9.01086 8.71025C8.96227 8.69612 8.91647 8.68269 8.87305 8.66996C8.49132 8.55799 8.2936 8.5 8 8.5C7.66468 8.5 7.36141 8.58161 6.96409 8.70501C6.93464 8.71415 6.90391 8.72383 6.87197 8.73388C6.63553 8.80832 6.33334 8.90345 6 8.95747ZM18 12V16C18.5304 16 19.0391 15.7893 19.4142 15.4142C19.7893 15.0391 20 14.5304 20 14C20 13.4696 19.7893 12.9609 19.4142 12.5858C19.0391 12.2107 18.5304 12 18 12ZM9 11C9.55228 11 10 11.4477 10 12V18C10 18.5523 9.55228 19 9 19C8.44772 19 8 18.5523 8 18V12C8 11.4477 8.44772 11 9 11ZM13 11C13.5523 11 14 11.4477 14 12V18C14 18.5523 13.5523 19 13 19C12.4477 19 12 18.5523 12 18V12C12 11.4477 12.4477 11 13 11Z" fill="black" style="fill:black;fill-opacity:1;"/>
</svg>
