<svg width="24" height="24" viewBox="0 0 24 24" fill="none" xmlns="http://www.w3.org/2000/svg">
<path fill-rule="evenodd" clip-rule="evenodd" d="M12 3C9.2523 3 7.00002 5.25229 7.00002 8C7.00002 11.6473 6.21708 14.0654 5.37791 15.6039C5.30181 15.7434 5.22543 15.8753 5.14934 16H18.8254C18.6846 15.7733 18.5434 15.5228 18.4056 15.2472C18.1586 14.7532 18.3588 14.1526 18.8528 13.9056C19.3468 13.6586 19.9475 13.8588 20.1944 14.3528C20.5491 15.0622 20.9181 15.5345 21.1828 15.8195C21.3155 15.9624 21.4226 16.0589 21.4895 16.1151C21.523 16.1431 21.5464 16.1611 21.5579 16.1697C21.5612 16.1721 21.5635 16.1738 21.5648 16.1747C21.9244 16.4208 22.0836 16.8719 21.9571 17.2898C21.8294 17.7115 21.4407 18 21 18H3.00002C2.55935 18 2.17062 17.7115 2.04292 17.2898C1.91658 16.8725 2.07522 16.4221 2.43371 16.1758C2.43441 16.1753 2.43536 16.1746 2.43656 16.1737C2.44426 16.168 2.46212 16.1544 2.48874 16.1322C2.54195 16.0878 2.63034 16.0091 2.74281 15.8904C2.96724 15.6535 3.29033 15.2544 3.62212 14.6461C4.28295 13.4346 5.00002 11.3527 5.00002 8C5.00002 4.14772 8.14773 1 12 1C13.1488 1 14.2196 1.23361 15.2857 1.82584C15.7684 2.09406 15.9424 2.70286 15.6742 3.18564C15.406 3.66843 14.7972 3.84237 14.3144 3.57416C13.5804 3.16639 12.8512 3 12 3ZM2.44381 16.169C2.44389 16.1689 2.44397 16.1688 2.44405 16.1688C2.44405 16.1688 2.44404 16.1688 2.44404 16.1688L2.44381 16.169ZM18 4C18.5523 4 19 4.44772 19 5V7H21C21.5523 7 22 7.44772 22 8C22 8.55228 21.5523 9 21 9H19V11C19 11.5523 18.5523 12 18 12C17.4477 12 17 11.5523 17 11V9H15C14.4477 9 14 8.55228 14 8C14 7.44772 14.4477 7 15 7H17V5C17 4.44772 17.4477 4 18 4ZM9.81828 20.1237C10.3022 19.8576 10.9103 20.0343 11.1764 20.5182C11.2575 20.6657 11.3767 20.7888 11.5216 20.8744C11.6665 20.9601 11.8317 21.0053 12.0001 21.0053C12.1684 21.0053 12.3336 20.9601 12.4785 20.8744C12.6234 20.7888 12.7427 20.6657 12.8238 20.5182C13.0899 20.0343 13.6979 19.8576 14.1819 20.1237C14.6658 20.3898 14.8424 20.9978 14.5764 21.4818C14.3227 21.9432 13.9498 22.3279 13.4966 22.5959C13.0434 22.8639 12.5266 23.0053 12.0001 23.0053C11.4736 23.0053 10.9567 22.8639 10.5035 22.5959C10.0503 22.3279 9.67744 21.9432 9.42378 21.4818C9.15769 20.9978 9.33432 20.3898 9.81828 20.1237Z" fill="black" style="fill:black;fill-opacity:1;"/>
</svg>
