<svg width="24" height="24" viewBox="0 0 24 24" fill="none" xmlns="http://www.w3.org/2000/svg">
<path fill-rule="evenodd" clip-rule="evenodd" d="M11.6173 1.07612C11.991 0.921338 12.4211 1.00689 12.7071 1.29289L17.7071 6.29289C18.0976 6.68342 18.0976 7.31658 17.7071 7.70711L15.2071 10.2071C14.8166 10.5976 14.1834 10.5976 13.7929 10.2071C13.4024 9.81658 13.4024 9.18342 13.7929 8.79289L15.5858 7L13 4.41421V6.5C13 7.05228 12.5523 7.5 12 7.5C11.4477 7.5 11 7.05228 11 6.5V2C11 1.59554 11.2436 1.2309 11.6173 1.07612ZM1.29289 1.29289C1.68342 0.902368 2.31658 0.902368 2.70711 1.29289L12.7016 11.2874C12.7052 11.2909 12.7088 11.2945 12.7123 11.2981L22.7071 21.2929C23.0976 21.6834 23.0976 22.3166 22.7071 22.7071C22.3166 23.0976 21.6834 23.0976 21.2929 22.7071L17 18.4142L12.7071 22.7071C12.4211 22.9931 11.991 23.0787 11.6173 22.9239C11.2436 22.7691 11 22.4045 11 22V14.4142L7.70711 17.7071C7.31658 18.0976 6.68342 18.0976 6.29289 17.7071C5.90237 17.3166 5.90237 16.6834 6.29289 16.2929L10.5858 12L1.29289 2.70711C0.902369 2.31658 0.902369 1.68342 1.29289 1.29289ZM13 14.4142V19.5858L15.5858 17L13 14.4142Z" fill="black" style="fill:black;fill-opacity:1;"/>
</svg>
