<svg width="24" height="24" viewBox="0 0 24 24" fill="none" xmlns="http://www.w3.org/2000/svg">
<path fill-rule="evenodd" clip-rule="evenodd" d="M17.0061 3.40812C17.0059 3.40836 17.0056 3.40861 17.0054 3.40886L16.0483 4.36594C17.5289 5.23353 18.7665 6.47109 19.6341 7.95173L20.5929 6.99294L20.5941 6.99171C20.7246 6.86165 20.8282 6.7071 20.8988 6.53693C20.9695 6.36675 21.0059 6.18431 21.0059 6.00005C21.0059 5.81579 20.9695 5.63334 20.8988 5.46317C20.8282 5.293 20.7246 5.13845 20.5941 5.00838L20.5929 5.00715L18.9946 3.40886C18.9943 3.40862 18.9941 3.40838 18.9939 3.40814C18.7297 3.14564 18.3724 2.99829 18 2.99829C17.6276 2.99829 17.2703 3.14563 17.0061 3.40812ZM18.3898 9.93007C18.408 9.99262 18.4324 10.0538 18.463 10.1125C18.8098 11.0082 19 11.9819 19 13C19 17.4183 15.4183 21 11 21C6.58172 21 3 17.4183 3 13C3 8.58172 6.58172 5 11 5C12.0181 5 12.9918 5.19018 13.8874 5.53695C13.9462 5.56763 14.0074 5.59207 14.0701 5.61026C16.0194 6.42105 17.579 7.98069 18.3898 9.93007ZM14.097 3.48881C13.1219 3.17151 12.081 3 11 3C5.47715 3 1 7.47715 1 13C1 18.5228 5.47715 23 11 23C16.5228 23 21 18.5228 21 13C21 11.919 20.8285 10.8781 20.5112 9.90304L22.0059 8.40838C22.0062 8.40801 22.0066 8.40764 22.007 8.40727C22.007 8.40723 22.007 8.40719 22.0071 8.40715C22.3235 8.09154 22.5745 7.71664 22.7459 7.3039C22.9175 6.89062 23.0059 6.44753 23.0059 6.00005C23.0059 5.55256 22.9175 5.10947 22.7459 4.6962C22.5745 4.28345 22.3235 3.90856 22.0071 3.59294C22.0071 3.59292 22.007 3.59289 22.007 3.59287C22.0066 3.59248 22.0062 3.5921 22.0059 3.59171L21.9142 3.50004L22.7071 2.70711C23.0976 2.31658 23.0976 1.68342 22.7071 1.29289C22.3166 0.902369 21.6834 0.902369 21.2929 1.29289L20.5 2.08582L20.4071 1.99294L20.4071 1.99294L20.4054 1.99123C19.7664 1.3553 18.9015 0.998291 18 0.998291C17.0984 0.998291 16.2336 1.3553 15.5946 1.99123L15.5929 1.99294L14.097 3.48881Z" fill="black" style="fill:black;fill-opacity:1;"/>
</svg>
