<svg width="24" height="24" viewBox="0 0 24 24" fill="none" xmlns="http://www.w3.org/2000/svg">
<path fill-rule="evenodd" clip-rule="evenodd" d="M7 4C6.73478 4 6.48043 4.10536 6.29289 4.29289C6.10536 4.48043 6 4.73478 6 5V19.2768L11.5039 16.1318C11.8113 15.9561 12.1887 15.9561 12.4961 16.1318L18 19.2768V5C18 4.73478 17.8946 4.48043 17.7071 4.29289C17.5196 4.10536 17.2652 4 17 4H7ZM4.87868 2.87868C5.44129 2.31607 6.20435 2 7 2H17C17.7956 2 18.5587 2.31607 19.1213 2.87868C19.6839 3.44129 20 4.20435 20 5V21C20 21.3565 19.8102 21.686 19.5019 21.8649C19.1936 22.0438 18.8134 22.0451 18.5039 21.8682L12 18.1518L5.49614 21.8682C5.18664 22.0451 4.80639 22.0438 4.49807 21.8649C4.18976 21.686 4 21.3565 4 21V5C4 4.20435 4.31607 3.44129 4.87868 2.87868ZM8.79289 6.79289C9.18342 6.40237 9.81658 6.40237 10.2071 6.79289L12 8.58579L13.7929 6.79289C14.1834 6.40237 14.8166 6.40237 15.2071 6.79289C15.5976 7.18342 15.5976 7.81658 15.2071 8.20711L13.4142 10L15.2071 11.7929C15.5976 12.1834 15.5976 12.8166 15.2071 13.2071C14.8166 13.5976 14.1834 13.5976 13.7929 13.2071L12 11.4142L10.2071 13.2071C9.81658 13.5976 9.18342 13.5976 8.79289 13.2071C8.40237 12.8166 8.40237 12.1834 8.79289 11.7929L10.5858 10L8.79289 8.20711C8.40237 7.81658 8.40237 7.18342 8.79289 6.79289Z" fill="black" style="fill:black;fill-opacity:1;"/>
</svg>
