<svg width="24" height="24" viewBox="0 0 24 24" fill="none" xmlns="http://www.w3.org/2000/svg">
<path fill-rule="evenodd" clip-rule="evenodd" d="M6.5 3C6.10218 3 5.72064 3.15804 5.43934 3.43934C5.15804 3.72064 5 4.10218 5 4.5V16.3377C5.46443 16.1174 5.97616 16 6.5 16H19V15C19 14.4477 19.4477 14 20 14C20.5523 14 21 14.4477 21 15V22C21 22.5523 20.5523 23 20 23H6.5C5.57174 23 4.6815 22.6313 4.02513 21.9749C3.36875 21.3185 3 20.4283 3 19.5V4.5C3 3.57174 3.36875 2.6815 4.02513 2.02513C4.6815 1.36875 5.57174 1 6.5 1H10C10.5523 1 11 1.44772 11 2C11 2.55228 10.5523 3 10 3H6.5ZM19 18H6.5C6.10218 18 5.72064 18.158 5.43934 18.4393C5.15804 18.7206 5 19.1022 5 19.5C5 19.8978 5.15804 20.2794 5.43934 20.5607C5.72064 20.842 6.10218 21 6.5 21H19V18ZM13.8787 1.87868C14.4413 1.31607 15.2044 1 16 1C16.7956 1 17.5587 1.31607 18.1213 1.87868C18.6839 2.44129 19 3.20435 19 4V5C20.1046 5 21 5.89543 21 7V10C21 11.1046 20.1046 12 19 12H13C11.8954 12 11 11.1046 11 10V7C11 5.89543 11.8954 5 13 5V4C13 3.20435 13.3161 2.44129 13.8787 1.87868ZM13 7V10H19V7H13ZM17 5H15V4C15 3.73478 15.1054 3.48043 15.2929 3.29289C15.4804 3.10536 15.7348 3 16 3C16.2652 3 16.5196 3.10536 16.7071 3.29289C16.8946 3.48043 17 3.73478 17 4V5Z" fill="black" style="fill:black;fill-opacity:1;"/>
</svg>
