<svg width="24" height="24" viewBox="0 0 24 24" fill="none" xmlns="http://www.w3.org/2000/svg">
<path fill-rule="evenodd" clip-rule="evenodd" d="M6.5 3C6.10218 3 5.72064 3.15804 5.43934 3.43934C5.15804 3.72064 5 4.10218 5 4.5V16.3377C5.46443 16.1174 5.97616 16 6.5 16H19V3H6.5ZM21 2C21 1.44772 20.5523 1 20 1H6.5C5.57174 1 4.6815 1.36875 4.02513 2.02513C3.36875 2.6815 3 3.57174 3 4.5V19.5C3 20.4283 3.36875 21.3185 4.02513 21.9749C4.6815 22.6313 5.57174 23 6.5 23H20C20.5523 23 21 22.5523 21 22V2ZM19 18H6.5C6.10218 18 5.72064 18.158 5.43934 18.4393C5.15804 18.7206 5 19.1022 5 19.5C5 19.8978 5.15804 20.2794 5.43934 20.5607C5.72064 20.842 6.10218 21 6.5 21H19V18ZM8.79289 6.29289C9.18342 5.90237 9.81658 5.90237 10.2071 6.29289L12 8.08579L13.7929 6.29289C14.1834 5.90237 14.8166 5.90237 15.2071 6.29289C15.5976 6.68342 15.5976 7.31658 15.2071 7.70711L13.4142 9.5L15.2071 11.2929C15.5976 11.6834 15.5976 12.3166 15.2071 12.7071C14.8166 13.0976 14.1834 13.0976 13.7929 12.7071L12 10.9142L10.2071 12.7071C9.81658 13.0976 9.18342 13.0976 8.79289 12.7071C8.40237 12.3166 8.40237 11.6834 8.79289 11.2929L10.5858 9.5L8.79289 7.70711C8.40237 7.31658 8.40237 6.68342 8.79289 6.29289Z" fill="black" style="fill:black;fill-opacity:1;"/>
</svg>
