<svg width="24" height="24" viewBox="0 0 24 24" fill="none" xmlns="http://www.w3.org/2000/svg">
<path fill-rule="evenodd" clip-rule="evenodd" d="M6.5 3C6.10218 3 5.72064 3.15804 5.43934 3.43934C5.15804 3.72064 5 4.10218 5 4.5V16.3377C5.46443 16.1174 5.97616 16 6.5 16H9.28574L14.3928 10.8929C15.5834 9.70237 17.4165 9.70237 18.6071 10.8929L19 11.2858V3H6.5ZM19 14.1143L17.1928 12.3071C16.7834 11.8976 16.2165 11.8976 15.8071 12.3071L12.1142 16H19V14.1143ZM21 2C21 1.44772 20.5523 1 20 1H6.5C5.57174 1 4.6815 1.36875 4.02513 2.02513C3.36875 2.6815 3 3.57174 3 4.5V19.5C3 20.4283 3.36875 21.3185 4.02513 21.9749C4.6815 22.6313 5.57174 23 6.5 23H20C20.5523 23 21 22.5523 21 22V2ZM19 18H9.70064C9.70018 18 9.69972 18 9.69926 18H6.5C6.10218 18 5.72064 18.158 5.43934 18.4393C5.15804 18.7206 5 19.1022 5 19.5C5 19.8978 5.15804 20.2794 5.43934 20.5607C5.72064 20.842 6.10218 21 6.5 21H19V18ZM10 7C9.44772 7 9 7.44772 9 8C9 8.55228 9.44772 9 10 9C10.5523 9 11 8.55228 11 8C11 7.44772 10.5523 7 10 7ZM7 8C7 6.34315 8.34315 5 10 5C11.6569 5 13 6.34315 13 8C13 9.65685 11.6569 11 10 11C8.34315 11 7 9.65685 7 8Z" fill="black" style="fill:black;fill-opacity:1;"/>
</svg>
