<svg width="24" height="24" viewBox="0 0 24 24" fill="none" xmlns="http://www.w3.org/2000/svg">
<path fill-rule="evenodd" clip-rule="evenodd" d="M1 3C1 2.44772 1.44772 2 2 2H8C9.63179 2 11.0862 2.79011 12 4.00703C12.9138 2.79011 14.3682 2 16 2H22C22.5523 2 23 2.44772 23 3V6C23 6.55228 22.5523 7 22 7C21.4477 7 21 6.55228 21 6V4H16C14.3523 4 13 5.35228 13 7V17.5148C13.5842 17.186 14.2652 17 15 17H21V15.7C21 15.1477 21.4477 14.7 22 14.7C22.5523 14.7 23 15.1477 23 15.7V18C23 18.5523 22.5523 19 22 19H15C13.8523 19 13 19.8523 13 21C13 21.5523 12.5523 22 12 22C11.4477 22 11 21.5523 11 21C11 19.8523 10.1477 19 9 19H2C1.44772 19 1 18.5523 1 18V3ZM11 17.5148C10.4158 17.186 9.73475 17 9 17H3V4H8C9.64771 4 11 5.35228 11 7V17.5148ZM22.7071 9.29289C23.0976 9.68342 23.0976 10.3166 22.7071 10.7071L18.7071 14.7071C18.3166 15.0976 17.6834 15.0976 17.2929 14.7071L15.2929 12.7071C14.9024 12.3166 14.9024 11.6834 15.2929 11.2929C15.6834 10.9024 16.3166 10.9024 16.7071 11.2929L18 12.5858L21.2929 9.29289C21.6834 8.90237 22.3166 8.90237 22.7071 9.29289Z" fill="black" style="fill:black;fill-opacity:1;"/>
</svg>
