<svg width="24" height="24" viewBox="0 0 24 24" fill="none" xmlns="http://www.w3.org/2000/svg">
<path fill-rule="evenodd" clip-rule="evenodd" d="M4 3C4 2.44772 4.44772 2 5 2H8C8.55228 2 9 2.44772 9 3C9 3.55228 8.55228 4 8 4H6V20H8C8.55228 20 9 20.4477 9 21C9 21.5523 8.55228 22 8 22H5C4.44772 22 4 21.5523 4 21V3ZM15 3C15 2.44772 15.4477 2 16 2H19C19.5523 2 20 2.44772 20 3V21C20 21.5523 19.5523 22 19 22H16C15.4477 22 15 21.5523 15 21C15 20.4477 15.4477 20 16 20H18V4H16C15.4477 4 15 3.55228 15 3Z" fill="black" style="fill:black;fill-opacity:1;"/>
</svg>
