<svg width="24" height="24" viewBox="0 0 24 24" fill="none" xmlns="http://www.w3.org/2000/svg">
<path fill-rule="evenodd" clip-rule="evenodd" d="M8.91673 0.99208C9.44991 0.980966 9.97993 1.07658 10.4756 1.2733C10.9713 1.47003 11.4226 1.76388 11.8031 2.13759C11.8713 2.20459 11.937 2.27391 12 2.34541C12.0631 2.27391 12.1288 2.20459 12.197 2.13759C12.5774 1.76388 13.0288 1.47003 13.5245 1.2733C14.0202 1.07658 14.5502 0.980966 15.0834 0.99208C15.6165 1.00319 16.1421 1.12081 16.6292 1.33802C17.1162 1.55523 17.5549 1.86763 17.9195 2.25687C18.284 2.6461 18.5671 3.10431 18.752 3.60453C18.847 3.86166 18.9151 4.12722 18.9556 4.39696C19.4204 4.59437 19.8539 4.86162 20.2407 5.19069C20.8186 5.68227 21.277 6.29889 21.5812 6.99386C21.8855 7.68883 22.0276 8.44392 21.9968 9.20194C21.9766 9.69921 21.8824 10.1892 21.7184 10.656C22.0862 11.065 22.3852 11.5332 22.6019 12.0426C22.9207 12.7922 23.0516 13.6084 22.9831 14.4201C22.9146 15.2319 22.6488 16.0146 22.2088 16.7002C21.8857 17.2036 21.4759 17.6435 21 18.0003C20.9996 18.4653 20.9343 18.9291 20.8052 19.378C20.6162 20.0348 20.2946 20.6459 19.8603 21.1736C19.4259 21.7012 18.888 22.1342 18.2797 22.4458C17.6715 22.7574 17.0058 22.941 16.3238 22.9853C15.6418 23.0295 14.958 22.9335 14.3145 22.7031C13.6711 22.4727 13.0817 22.1129 12.5828 21.6458C12.3694 21.446 12.1745 21.2285 12 20.9958C11.8256 21.2285 11.6307 21.446 11.4173 21.6458C10.9184 22.1129 10.329 22.4727 9.68556 22.7031C9.04212 22.9335 8.35829 23.0295 7.67629 22.9853C6.9943 22.941 6.32861 22.7574 5.72035 22.4458C5.11209 22.1342 4.57417 21.7012 4.1398 21.1736C3.70544 20.6459 3.38387 20.0348 3.19493 19.378C3.06579 18.9291 3.0005 18.4653 3.00008 18.0003C2.52421 17.6435 2.11438 17.2036 1.79128 16.7002C1.3513 16.0146 1.08549 15.2319 1.01698 14.4201C0.948473 13.6084 1.07934 12.7922 1.3982 12.0426C1.61488 11.5332 1.91391 11.065 2.28171 10.656C2.11774 10.1892 2.02348 9.69921 2.00329 9.20194C1.9725 8.44392 2.11461 7.68883 2.41886 6.99386C2.7231 6.29889 3.1815 5.68227 3.75934 5.19069C4.14615 4.86162 4.5797 4.59437 5.04448 4.39696C5.085 4.12721 5.15311 3.86166 5.24814 3.60453C5.43301 3.10431 5.71605 2.64611 6.08061 2.25687C6.44516 1.86763 6.88386 1.55522 7.37092 1.33802C7.85798 1.12081 8.38355 1.00319 8.91673 0.99208ZM5.30173 6.52544C5.21657 6.58388 5.13429 6.6468 5.05527 6.71403C4.70857 7.00898 4.43353 7.37895 4.25098 7.79593C4.06843 8.21291 3.98317 8.66597 4.00164 9.12078C4.00682 9.24824 4.0201 9.3749 4.04129 9.50002C4.39982 9.49288 4.7503 9.67937 4.93643 10.0147C5.20442 10.4977 5.03021 11.1064 4.5473 11.3744C4.39064 11.4613 4.24409 11.5601 4.10858 11.6704L4.10762 11.6712C3.72826 11.9794 3.42994 12.3756 3.23863 12.8254C3.04731 13.2752 2.96879 13.7649 3.0099 14.2519C3.051 14.739 3.21049 15.2086 3.47448 15.62C3.73841 16.0312 4.09882 16.3718 4.52436 16.6121M5.30173 6.52544C5.36858 6.68782 5.44625 6.8461 5.53443 6.99918C5.81012 7.47773 6.42156 7.64219 6.90011 7.3665C7.37866 7.09081 7.54312 6.47937 7.26743 6.00082C7.1064 5.7213 7.01543 5.40687 7.00225 5.0842L7.00208 5.08044C6.99018 4.81406 7.03167 4.54798 7.12411 4.29787C7.21655 4.04776 7.35807 3.81866 7.54035 3.62404C7.72262 3.42942 7.94198 3.27322 8.1855 3.16461C8.42903 3.05601 8.69182 2.9972 8.95841 2.99165C9.225 2.98609 9.49001 3.0339 9.73785 3.13226C9.98569 3.23062 10.2114 3.37755 10.4016 3.5644C10.5918 3.75125 10.7428 3.97426 10.8455 4.2203C10.9465 4.46197 10.999 4.72107 11.0001 4.98287C11.0001 4.989 11.0001 4.99512 11.0001 5.00125V8.96984C10.9581 9.6523 10.7171 10.3077 10.3067 10.855C9.89135 11.4088 9.32114 11.827 8.66815 12.0567C8.14716 12.2399 7.87339 12.8109 8.05667 13.3319C8.23994 13.8528 8.81086 14.1266 9.33185 13.9433C9.94182 13.7288 10.5058 13.4095 11.0001 13.0031L11.0001 17.999C11.0001 17.9992 11.0001 17.9995 11.0001 17.9998C10.9995 18.4096 10.915 18.8149 10.7518 19.1908C10.5885 19.5669 10.3497 19.9056 10.0504 20.1858C9.75105 20.4661 9.39742 20.682 9.01136 20.8202C8.62531 20.9584 8.21501 21.016 7.80581 20.9895C7.39661 20.9629 6.9972 20.8528 6.63224 20.6658C6.26728 20.4788 5.94453 20.219 5.68391 19.9024C5.44587 19.6133 5.26429 19.2824 5.14824 18.9269C5.42858 18.9754 5.71364 19 6.00043 18.9999C6.55271 18.9996 7.00022 18.5517 6.99996 17.9994C6.9997 17.4471 6.55178 16.9996 5.99949 16.9999C5.48356 17.0001 4.9755 16.8665 4.52462 16.6122M13.0001 17.9998C13.0006 18.4096 13.0851 18.815 13.2483 19.1908C13.4116 19.5669 13.6503 19.9056 13.9497 20.1858C14.249 20.4661 14.6027 20.682 14.9887 20.8202C15.3748 20.9584 15.7851 21.016 16.1943 20.9895C16.6035 20.9629 17.0029 20.8528 17.3678 20.6658C17.7328 20.4788 18.0556 20.219 18.3162 19.9024C18.5542 19.6133 18.7358 19.2823 18.8519 18.9269C18.5715 18.9754 18.2864 19 17.9995 18.9999C17.4472 18.9996 16.9997 18.5517 17 17.9994C17.0003 17.4471 17.4482 16.9996 18.0005 16.9999C18.5164 17.0001 19.0246 16.8664 19.4755 16.6122M13.0001 17.9998C13.0001 17.9995 13.0001 17.9992 13.0001 17.999L13.0001 13.0032C13.4943 13.4096 14.0582 13.7288 14.6681 13.9433C15.1891 14.1266 15.7601 13.8528 15.9433 13.3319C16.1266 12.8109 15.8528 12.2399 15.3319 12.0567C14.6789 11.827 14.1087 11.4088 13.6933 10.855C13.2833 10.3084 13.0425 9.65384 13.0001 8.97224V5.00125C13.0001 4.99512 13.0001 4.98899 13.0001 4.98287C13.0012 4.72096 13.0536 4.46188 13.1545 4.2203C13.2573 3.97426 13.4083 3.75125 13.5985 3.5644C13.7887 3.37755 14.0144 3.23062 14.2622 3.13226C14.5101 3.0339 14.7751 2.98609 15.0417 2.99165C15.3083 2.9972 15.5711 3.05601 15.8146 3.16461C16.0581 3.27322 16.2775 3.42942 16.4597 3.62404C16.642 3.81866 16.7835 4.04776 16.876 4.29787C16.9684 4.54798 17.0099 4.81405 16.998 5.08044C16.9974 5.09436 16.9971 5.10823 16.997 5.12206C16.9782 5.43109 16.8879 5.73173 16.733 6.0002C16.4569 6.47855 16.621 7.09011 17.0993 7.36614C17.5777 7.64217 18.1892 7.47816 18.4653 6.9998C18.5537 6.8466 18.6315 6.68817 18.6986 6.5256C18.7837 6.58399 18.8659 6.64686 18.9448 6.71403C19.2915 7.00898 19.5666 7.37895 19.7491 7.79593C19.9317 8.21291 20.0169 8.66597 19.9984 9.12078C19.9933 9.24824 19.98 9.3749 19.9588 9.50002C19.6002 9.49287 19.2497 9.67935 19.0636 10.0147C18.7956 10.4977 18.9698 11.1064 19.4527 11.3744C19.6095 11.4614 19.7561 11.5601 19.8915 11.6704L19.8925 11.6712C20.2718 11.9794 20.5701 12.3756 20.7615 12.8254C20.9528 13.2752 21.0313 13.7649 20.9902 14.2519C20.9491 14.739 20.7896 15.2086 20.5256 15.62C20.2617 16.0312 19.9013 16.3718 19.4757 16.6121M21.1543 10.1195C21.1544 10.1196 21.1544 10.1196 21.1545 10.1197L20.523 10.8951L21.1536 10.1189C21.1538 10.1191 21.154 10.1193 21.1543 10.1195Z" fill="black" style="fill:black;fill-opacity:1;"/>
</svg>
