<svg width="24" height="24" viewBox="0 0 24 24" fill="none" xmlns="http://www.w3.org/2000/svg">
<path fill-rule="evenodd" clip-rule="evenodd" d="M6.00001 4C5.44772 4 5.00001 4.44772 5.00001 5V5.97833C5.0003 5.99228 5.0003 6.00621 5.00001 6.02012V10H19V6.02011C18.9997 6.00621 18.9997 5.99228 19 5.97834V5C19 4.44772 18.5523 4 18 4H6.00001ZM21 5.38197V5C21 3.34315 19.6569 2 18 2H6.00001C4.34315 2 3.00001 3.34315 3.00001 5V5.38197L1.55279 6.10557C1.05881 6.35256 0.858589 6.95324 1.10558 7.44721C1.35257 7.94119 1.95324 8.14142 2.44722 7.89443L3.00001 7.61803V17C3.00001 18.3062 3.83481 19.4175 5.00001 19.8293V21C5.00001 21.5523 5.44772 22 6.00001 22C6.55229 22 7.00001 21.5523 7.00001 21V20H17V21C17 21.5523 17.4477 22 18 22C18.5523 22 19 21.5523 19 21V19.8293C20.1652 19.4175 21 18.3062 21 17V7.61803L21.5528 7.89443C22.0468 8.14142 22.6474 7.94119 22.8944 7.44721C23.1414 6.95324 22.9412 6.35256 22.4472 6.10557L21 5.38197ZM19 12H5.00001V17C5.00001 17.5523 5.44772 18 6.00001 18H18C18.5523 18 19 17.5523 19 17V12ZM9.00001 6C9.00001 5.44772 9.44772 5 10 5H14C14.5523 5 15 5.44772 15 6C15 6.55228 14.5523 7 14 7H10C9.44772 7 9.00001 6.55228 9.00001 6ZM7.00001 15C7.00001 14.4477 7.44772 14 8.00001 14H8.01001C8.56229 14 9.01001 14.4477 9.01001 15C9.01001 15.5523 8.56229 16 8.01001 16H8.00001C7.44772 16 7.00001 15.5523 7.00001 15ZM15 15C15 14.4477 15.4477 14 16 14H16.01C16.5623 14 17.01 14.4477 17.01 15C17.01 15.5523 16.5623 16 16.01 16H16C15.4477 16 15 15.5523 15 15Z" fill="black" style="fill:black;fill-opacity:1;"/>
</svg>
