<svg width="24" height="24" viewBox="0 0 24 24" fill="none" xmlns="http://www.w3.org/2000/svg">
<path fill-rule="evenodd" clip-rule="evenodd" d="M8 1C8.55228 1 9 1.44772 9 2V3H15V2C15 1.44772 15.4477 1 16 1C16.5523 1 17 1.44772 17 2V3H19C19.7957 3 20.5587 3.31607 21.1213 3.87868C21.6839 4.44129 22 5.20435 22 6V10C22 10.5523 21.5523 11 21 11H4V20C4 20.2652 4.10536 20.5196 4.29289 20.7071C4.48043 20.8946 4.73478 21 5 21H12C12.5523 21 13 21.4477 13 22C13 22.5523 12.5523 23 12 23H5C4.20435 23 3.44129 22.6839 2.87868 22.1213C2.31607 21.5587 2 20.7957 2 20V6C2 5.20435 2.31607 4.44129 2.87868 3.87868C3.44129 3.31607 4.20435 3 5 3H7V2C7 1.44772 7.44772 1 8 1ZM7 5H5C4.73478 5 4.48043 5.10536 4.29289 5.29289C4.10536 5.48043 4 5.73478 4 6V9H20V6C20 5.73478 19.8946 5.48043 19.7071 5.29289C19.5196 5.10536 19.2652 5 19 5H17V6C17 6.55228 16.5523 7 16 7C15.4477 7 15 6.55228 15 6V5H9V6C9 6.55228 8.55228 7 8 7C7.44772 7 7 6.55228 7 6V5ZM18.2615 13.2542C18.8859 12.9952 19.5729 12.9264 20.2364 13.0566C20.9022 13.1873 21.5143 13.5125 21.9953 13.9911C22.0274 14.0231 22.0572 14.057 22.0844 14.0927C23.3732 15.4658 23.325 17.6264 21.81 19.1541L21.8021 19.162L18.2021 22.712C17.8123 23.0963 17.186 23.0959 16.7968 22.711L13.1999 19.1541C11.6557 17.5971 11.6204 15.3727 13.0048 14.0009C13.3173 13.6888 13.6863 13.4293 14.123 13.2537C14.7491 12.9959 15.4375 12.9292 16.1015 13.062C16.6092 13.1635 17.0852 13.3782 17.4952 13.6876C17.729 13.5114 17.9858 13.3653 18.2615 13.2542ZM19.8512 15.0192C19.5737 14.9647 19.2862 14.9938 19.0251 15.1028L19.0113 15.1084C18.8407 15.1767 18.6841 15.28 18.547 15.417L18.207 15.757C17.8205 16.1436 17.1952 16.1481 16.8031 15.7672L16.4531 15.4272L16.4417 15.4159C16.2418 15.2153 15.9869 15.0787 15.7093 15.0231C15.4317 14.9676 15.1438 14.9957 14.8822 15.104L14.8713 15.1085C14.7113 15.1725 14.5628 15.2713 14.417 15.417L14.4133 15.4208C13.9002 15.9285 13.7651 16.8811 14.6168 17.7425L17.5009 20.5945L20.3935 17.7421C21.2395 16.886 21.1045 15.9332 20.5866 15.4208C20.5635 15.3979 20.5416 15.374 20.521 15.3492C20.3313 15.1822 20.1003 15.0681 19.8512 15.0192Z" fill="black" style="fill:black;fill-opacity:1;"/>
</svg>
