<svg width="24" height="24" viewBox="0 0 24 24" fill="none" xmlns="http://www.w3.org/2000/svg">
<g clip-path="url(#clip0_168_2592)">
<path fill-rule="evenodd" clip-rule="evenodd" d="M16.6756 3.04243L18.6221 6.51068C18.6285 6.52213 18.6347 6.53365 18.6406 6.54524C18.7576 6.7584 18.8484 6.98549 18.9109 7.22164C19.012 7.60414 19.0365 8.00286 18.9829 8.39485C18.9293 8.78685 18.7987 9.16437 18.5986 9.50568C18.5319 9.61945 18.4883 9.74529 18.4705 9.87595C18.4526 10.0066 18.4608 10.1395 18.4945 10.267C18.5282 10.3945 18.5868 10.5141 18.6669 10.6189C18.747 10.7236 18.847 10.8115 18.9613 10.8774C19.0755 10.9434 19.2016 10.9861 19.3324 11.0031C19.4632 11.0201 19.596 11.011 19.7233 10.9765C19.8505 10.9419 19.9697 10.8825 20.074 10.8017C20.1782 10.7209 20.2654 10.6203 20.3306 10.5057L20.3337 10.5002L20.3337 10.5002C20.9968 9.35081 21.1762 7.98507 20.8323 6.70343C20.4885 5.42178 19.6496 4.32923 18.5002 3.66612C17.9327 3.33871 17.3124 3.12923 16.6756 3.04243ZM15.499 5.03238L14.4877 3.23058C13.5289 3.53454 12.6876 4.11936 12.0697 4.90361L13.1095 6.98326L13.4114 6.4902C13.606 6.15268 13.8645 5.85624 14.1725 5.61747C14.4851 5.37507 14.8427 5.19691 15.2245 5.09325C15.3151 5.06864 15.4067 5.04834 15.499 5.03238ZM11.8786 8.9936L10.8204 6.87709L9.03578 9.78227L10.0413 11.9944L11.8786 8.9936ZM8.78042 14.0537L7.77315 11.8377L6.01658 14.6972L7.08187 16.8278L8.78042 14.0537ZM7.76046 19.5496C7.82893 19.4694 7.88372 19.3793 7.92353 19.2833L15.1247 7.52211C15.1304 7.51289 15.1359 7.50358 15.1412 7.49419C15.2064 7.37954 15.2936 7.27892 15.3978 7.19812C15.5021 7.11732 15.6212 7.05793 15.7485 7.02338C15.8758 6.98882 16.0086 6.97979 16.1394 6.99678C16.2702 7.01378 16.3963 7.05648 16.5105 7.12242C16.6248 7.18837 16.7248 7.27625 16.8049 7.38101C16.885 7.48577 16.9436 7.60534 16.9773 7.73284C17.011 7.86034 17.0192 7.99325 17.0013 8.12391C16.9834 8.25458 16.9399 8.38042 16.8732 8.49419C16.6731 8.8355 16.5425 9.21302 16.4889 9.60501C16.4353 9.99701 16.4598 10.3957 16.5609 10.7782C16.662 11.1607 16.8378 11.5194 17.0782 11.8337C17.3185 12.148 17.6186 12.4117 17.9612 12.6095C18.3039 12.8073 18.6822 12.9354 19.0746 12.9864C19.4669 13.0374 19.8655 13.0103 20.2473 12.9066C20.6291 12.803 20.9867 12.6248 21.2993 12.3824C21.6111 12.1407 21.8721 11.84 22.0674 11.4973C22.9945 9.88895 23.2451 7.97825 22.764 6.18517C22.2827 4.39121 21.1085 2.86193 19.4996 1.93375C17.8908 1.00556 15.9791 0.754508 14.1851 1.23581C12.5402 1.67714 11.1178 2.70106 10.1773 4.10844C10.0827 4.20723 10.0106 4.32351 9.96354 4.44901C9.95595 4.46192 9.94839 4.47486 9.94087 4.48783L7.13518 9.05524C7.0708 9.13171 7.01864 9.21705 6.97992 9.30798L1.34782 18.4765C1.34229 18.4855 1.3369 18.4946 1.33165 18.5038C0.934854 19.1982 0.830155 20.0218 1.04059 20.7934C1.25103 21.565 1.75936 22.2214 2.45376 22.6182C3.14816 23.015 3.97175 23.1197 4.74335 22.9092C5.1254 22.805 5.48319 22.6266 5.79629 22.3841C6.10501 22.1451 6.36431 21.8483 6.55985 21.5105L7.76046 19.5496ZM5.85097 18.8381L4.78388 16.704L3.06168 19.5075C2.93339 19.739 2.9004 20.0115 2.97012 20.2671C3.04099 20.527 3.21218 20.7481 3.44604 20.8817C3.67989 21.0153 3.95726 21.0506 4.21711 20.9797C4.34578 20.9446 4.46627 20.8845 4.57172 20.8029C4.67716 20.7212 4.76549 20.6196 4.83165 20.5038C4.83666 20.495 4.84179 20.4864 4.84706 20.4778L5.85097 18.8381Z" fill="black" style="fill:black;fill-opacity:1;"/>
</g>
<defs>
<clipPath id="clip0_168_2592">
<rect width="24" height="24" fill="white" style="fill:white;fill-opacity:1;"/>
</clipPath>
</defs>
</svg>
