<svg width="24" height="24" viewBox="0 0 24 24" fill="none" xmlns="http://www.w3.org/2000/svg">
<path fill-rule="evenodd" clip-rule="evenodd" d="M1.29289 1.29289C1.68342 0.902369 2.31658 0.902369 2.70711 1.29289L9.19898 7.78476C9.20173 7.78745 9.20447 7.79016 9.2072 7.79289C9.20993 7.79562 9.21264 7.79836 9.21533 7.80112L16.199 14.7848C16.2017 14.7875 16.2045 14.7902 16.2072 14.7929C16.2099 14.7956 16.2126 14.7983 16.2153 14.8011L22.7071 21.2929C23.0976 21.6834 23.0976 22.3166 22.7071 22.7071C22.3166 23.0976 21.6834 23.0976 21.2929 22.7071L15.5 16.9143L15.2001 17.2143C14.0804 18.3115 12.573 18.9225 11.0054 18.9146C10.2162 18.9106 9.44377 18.7499 8.72985 18.4498L7.98058 22.1961C7.91947 22.5017 7.7194 22.7613 7.43948 22.8983C7.15957 23.0352 6.83181 23.0338 6.55305 22.8946L5.18605 22.2116C4.9086 22.0728 4.60222 22.0002 4.292 22C4.29187 22 4.29213 22 4.292 22H3C2.44772 22 2 21.5523 2 21V19.7084C2 19.7083 2 19.7085 2 19.7084C1.99981 19.3982 1.92746 19.0918 1.78867 18.8144L1.10544 17.447C0.966162 17.1682 0.964797 16.8404 1.10175 16.5605C1.2387 16.2806 1.49831 16.0805 1.80388 16.0194L5.55027 15.2701C5.25022 14.5563 5.08951 13.7839 5.08553 12.9947C5.07761 11.4271 5.68865 9.91969 6.78588 8.80007L6.79295 8.79286L7.08583 8.50005L1.29289 2.70711C0.902369 2.31658 0.902369 1.68342 1.29289 1.29289ZM8.50005 9.91426L8.211 10.2033C7.48467 10.9462 7.08025 11.9455 7.0855 12.9846C7.09076 14.0253 7.5065 15.0218 8.24238 15.7577C8.47177 15.9871 8.7265 16.1854 9 16.3498V10.4142L8.50005 9.91426ZM11 12.4142V16.9145C11.0052 16.9145 11.0103 16.9146 11.0155 16.9146C11.7174 16.9181 12.4012 16.7347 13 16.3915V14.4142L11 12.4142ZM6.73191 17.0734L3.47955 17.7239L3.57733 17.9196C3.57726 17.9194 3.57741 17.9198 3.57733 17.9196C3.8549 18.4746 3.99975 19.087 4 19.7076V20H4.292C4.91255 20.0002 5.52494 20.1449 6.07995 20.4224C6.0798 20.4224 6.0801 20.4225 6.07995 20.4224L6.27611 20.5204L6.92658 17.2681C6.89344 17.2365 6.86063 17.2044 6.82816 17.1719C6.79566 17.1394 6.76358 17.1066 6.73191 17.0734ZM16.5605 1.10175C16.8404 0.964797 17.1682 0.966162 17.447 1.10544L18.814 1.78844C19.0914 1.92724 19.3978 1.99981 19.708 2C19.7079 2 19.7081 2 19.708 2H21C21.5523 2 22 2.44772 22 3V4.2916C22 4.29146 22 4.29173 22 4.2916C22.0002 4.60182 22.0725 4.90815 22.2113 5.1856L22.8946 6.55305C23.0338 6.83181 23.0352 7.15957 22.8983 7.43948C22.7613 7.7194 22.5017 7.91947 22.1961 7.98058L18.4964 8.72052C18.5861 8.93682 18.6633 9.15885 18.7272 9.38555C19.0036 10.3658 19.0236 11.4007 18.7853 12.3909C18.656 12.9278 18.116 13.2584 17.579 13.1291C17.0421 12.9999 16.7115 12.4599 16.8408 11.9229C16.9989 11.2657 16.9857 10.5789 16.8022 9.92828C16.6188 9.27767 16.2714 8.68508 15.7932 8.20728C15.5551 7.96904 15.288 7.76269 15 7.59346V8.343C15 8.89529 14.5523 9.343 14 9.343C13.4477 9.343 13 8.89529 13 8.343V7.04956C12.6903 7.0496 12.3805 7.08609 12.077 7.15913C11.5401 7.28836 11 6.95784 10.8708 6.42089C10.7415 5.88393 11.0721 5.34389 11.609 5.21466C12.5992 4.97634 13.6341 4.99633 14.6144 5.27271C14.8411 5.33664 15.0632 5.41378 15.2795 5.50353L16.0194 1.80388C16.0805 1.49831 16.2806 1.2387 16.5605 1.10175ZM17.326 6.915L20.5204 6.27611L20.4227 6.0804C20.4226 6.08025 20.4227 6.08055 20.4227 6.0804C20.1451 5.52539 20.0002 4.91295 20 4.2924V4H19.708C19.0874 3.99975 18.4751 3.85512 17.92 3.57756C17.9199 3.57748 17.9202 3.57763 17.92 3.57756L17.7239 3.47955L17.085 6.67403C17.1262 6.713 17.167 6.75259 17.2071 6.79279C17.2474 6.83299 17.287 6.87374 17.326 6.915Z" fill="black" style="fill:black;fill-opacity:1;"/>
</svg>
