<svg width="24" height="24" viewBox="0 0 24 24" fill="none" xmlns="http://www.w3.org/2000/svg">
<path fill-rule="evenodd" clip-rule="evenodd" d="M6 1C6.55228 1 7 1.44772 7 2V3H9V2C9 1.44772 9.44772 1 10 1C10.5523 1 11 1.44772 11 2V3H13V2C13 1.44772 13.4477 1 14 1C14.5523 1 15 1.44772 15 2V3H17V2C17 1.44772 17.4477 1 18 1C18.5523 1 19 1.44772 19 2V10H21V9C21 8.44772 21.4477 8 22 8C22.5523 8 23 8.44772 23 9V20C23 20.7957 22.6839 21.5587 22.1213 22.1213C21.5587 22.6839 20.7957 23 20 23H4C3.20435 23 2.44129 22.6839 1.87868 22.1213C1.31607 21.5587 1 20.7957 1 20V9C1 8.44772 1.44772 8 2 8C2.55228 8 3 8.44772 3 9V10H5V2C5 1.44772 5.44772 1 6 1ZM3 12V20C3 20.2652 3.10536 20.5196 3.29289 20.7071C3.48043 20.8946 3.73478 21 4 21H8V18C8 16.9391 8.42143 15.9217 9.17157 15.1716C9.92172 14.4214 10.9391 14 12 14C13.0609 14 14.0783 14.4214 14.8284 15.1716C15.5786 15.9217 16 16.9391 16 18V21H20C20.2652 21 20.5196 20.8946 20.7071 20.7071C20.8946 20.5196 21 20.2652 21 20V12H3ZM17 10H7V5H17V10ZM14 21V18C14 17.4696 13.7893 16.9609 13.4142 16.5858C13.0391 16.2107 12.5304 16 12 16C11.4696 16 10.9609 16.2107 10.5858 16.5858C10.2107 16.9609 10 17.4696 10 18V21H14Z" fill="black" style="fill:black;fill-opacity:1;"/>
</svg>
