<svg width="24" height="24" viewBox="0 0 24 24" fill="none" xmlns="http://www.w3.org/2000/svg">
<path fill-rule="evenodd" clip-rule="evenodd" d="M6.43909 4.99455C6.18758 4.97628 5.93493 5.00773 5.69558 5.0871C5.45622 5.16648 5.23485 5.29223 5.0441 5.45717C4.854 5.62156 4.69803 5.82165 4.58502 6.04611L3.20515 8.83586C2.97872 9.29033 2.94153 9.816 3.10173 10.2978C3.26181 10.7793 3.60594 11.1778 4.05892 11.4063C4.05926 11.4065 4.0596 11.4066 4.05994 11.4068L13.553 16.1579L14.5048 14.2545C14.5118 14.2394 14.5193 14.2244 14.5272 14.2097L15.8437 11.5766C15.851 11.561 15.8587 11.5456 15.8668 11.5305L16.6586 9.94679L7.16141 5.19361C6.93604 5.08047 6.69059 5.01283 6.43909 4.99455ZM17.3681 13L16.5739 14.5884L18.3477 17.0683L20.3819 13H17.3681ZM15.5622 16.6118L17.6866 19.5818C17.8905 19.8669 18.2289 20.0245 18.5785 19.9969C18.928 19.9694 19.2375 19.7608 19.3943 19.4472L22.8943 12.4472C23.0493 12.1372 23.0328 11.7691 22.8506 11.4743C22.6684 11.1795 22.3465 11 21.9999 11H18.3681L18.8945 9.94713C19.1414 9.45329 18.9414 8.85277 18.4476 8.60566L8.05876 3.40622C8.05854 3.40611 8.05898 3.40633 8.05876 3.40622C7.59882 3.17542 7.09728 3.0371 6.58402 2.99981C6.07053 2.9625 5.55471 3.02671 5.06603 3.18877C4.57735 3.35083 4.12538 3.60757 3.73594 3.94433C3.34649 4.28108 3.0272 4.69126 2.79629 5.15143L1.41433 7.94537C0.952649 8.87294 0.876969 9.94559 1.20388 10.9288C1.53095 11.9125 2.23437 12.7267 3.16022 13.193L3.16252 13.1942L7.662 15.4461L6.66587 17.4522C6.58199 17.6177 6.45371 17.7566 6.29537 17.8533C6.13634 17.9505 5.95332 18.0013 5.76696 18L3 18V17C3 16.4477 2.55228 16 2 16C1.44772 16 1 16.4477 1 17V21C1 21.5523 1.44772 22 2 22C2.55228 22 3 21.5523 3 21V20H5.75697C6.31471 20.0032 6.86231 19.8508 7.33827 19.5599C7.81535 19.2683 8.20146 18.8493 8.45304 18.35L9.45052 16.3412L13.5525 18.3942C13.7898 18.5129 14.0644 18.5325 14.3161 18.4487C14.5678 18.3648 14.7759 18.1844 14.8945 17.9471L15.5622 16.6118ZM6 9C6 8.44772 6.44772 8 7 8H7.01C7.56228 8 8.01 8.44772 8.01 9C8.01 9.55228 7.56228 10 7.01 10H7C6.44772 10 6 9.55228 6 9Z" fill="black" style="fill:black;fill-opacity:1;"/>
</svg>
