<svg width="24" height="24" viewBox="0 0 24 24" fill="none" xmlns="http://www.w3.org/2000/svg">
<path fill-rule="evenodd" clip-rule="evenodd" d="M3.29289 6.29289C3.68342 5.90237 4.31658 5.90237 4.70711 6.29289L9.70711 11.2929C10.0976 11.6834 10.0976 12.3166 9.70711 12.7071L4.70711 17.7071C4.31658 18.0976 3.68342 18.0976 3.29289 17.7071C2.90237 17.3166 2.90237 16.6834 3.29289 16.2929L7.58579 12L3.29289 7.70711C2.90237 7.31658 2.90237 6.68342 3.29289 6.29289ZM20.7071 6.29289C21.0976 6.68342 21.0976 7.31658 20.7071 7.70711L16.4142 12L20.7071 16.2929C21.0976 16.6834 21.0976 17.3166 20.7071 17.7071C20.3166 18.0976 19.6834 18.0976 19.2929 17.7071L14.2929 12.7071C13.9024 12.3166 13.9024 11.6834 14.2929 11.2929L19.2929 6.29289C19.6834 5.90237 20.3166 5.90237 20.7071 6.29289Z" fill="black" style="fill:black;fill-opacity:1;"/>
</svg>
