<svg width="24" height="24" viewBox="0 0 24 24" fill="none" xmlns="http://www.w3.org/2000/svg">
<path fill-rule="evenodd" clip-rule="evenodd" d="M12 3C7.02944 3 3 7.02944 3 12C3 14.6718 4.16424 17.0717 6.01309 18.72C6.07802 18.0271 6.38245 17.3749 6.87868 16.8787C7.44129 16.3161 8.20435 16 9 16H15C15.7957 16 16.5587 16.3161 17.1213 16.8787C17.6175 17.3749 17.922 18.0271 17.9869 18.72C19.8358 17.0717 21 14.6718 21 12C21 7.02944 16.9706 3 12 3ZM16 20.0645V19C16 18.7348 15.8946 18.4804 15.7071 18.2929C15.5196 18.1054 15.2652 18 15 18H9C8.73478 18 8.48043 18.1054 8.29289 18.2929C8.10536 18.4804 8 18.7348 8 19V20.0645C9.20496 20.6633 10.5632 21 12 21C13.4368 21 14.795 20.6633 16 20.0645ZM1 12C1 5.92487 5.92487 1 12 1C18.0751 1 23 5.92487 23 12C23 18.0751 18.0751 23 12 23C5.92487 23 1 18.0751 1 12ZM12 8C10.8954 8 10 8.89543 10 10C10 11.1046 10.8954 12 12 12C13.1046 12 14 11.1046 14 10C14 8.89543 13.1046 8 12 8ZM8 10C8 7.79086 9.79086 6 12 6C14.2091 6 16 7.79086 16 10C16 12.2091 14.2091 14 12 14C9.79086 14 8 12.2091 8 10Z" fill="black" style="fill:black;fill-opacity:1;"/>
</svg>
