<svg width="24" height="24" viewBox="0 0 24 24" fill="none" xmlns="http://www.w3.org/2000/svg">
<path fill-rule="evenodd" clip-rule="evenodd" d="M12 3C7.02944 3 3 7.02944 3 12C3 16.9706 7.02944 21 12 21C16.9706 21 21 16.9706 21 12C21 7.02944 16.9706 3 12 3ZM1 12C1 5.92487 5.92487 1 12 1C18.0751 1 23 5.92487 23 12C23 18.0751 18.0751 23 12 23C5.92487 23 1 18.0751 1 12ZM12 5C12.5523 5 13 5.44772 13 6V8.5132L13.652 7.47C13.9447 7.00166 14.5617 6.85929 15.03 7.152C15.4983 7.44471 15.6407 8.06166 15.348 8.53L12.848 12.53C12.6116 12.9083 12.1531 13.0842 11.7243 12.9612C11.2955 12.8383 11 12.4461 11 12V6C11 5.44772 11.4477 5 12 5Z" fill="black" style="fill:black;fill-opacity:1;"/>
</svg>
