<svg width="24" height="24" viewBox="0 0 24 24" fill="none" xmlns="http://www.w3.org/2000/svg">
<path fill-rule="evenodd" clip-rule="evenodd" d="M11.1378 4.40128C10.2777 4.07412 9.35386 3.94918 8.43776 4.03612C7.52165 4.12306 6.63781 4.41956 5.85461 4.90268C5.07141 5.38581 4.40983 6.0426 3.92104 6.82228C3.43224 7.60196 3.12934 8.48362 3.03575 9.39907C2.94216 10.3145 3.0604 11.2392 3.38131 12.1017C3.70223 12.9641 4.21722 13.7412 4.88646 14.3728C5.28812 14.7519 5.30643 15.3848 4.92736 15.7865C4.54829 16.1881 3.91539 16.2064 3.51373 15.8274C2.62141 14.9852 1.93475 13.9491 1.50687 12.7992C1.07898 11.6492 0.921336 10.4163 1.04612 9.19567C1.1709 7.97506 1.57478 6.79952 2.2265 5.75995C2.87822 4.72038 3.76033 3.84465 4.8046 3.20048C5.84887 2.55632 7.02732 2.16099 8.24879 2.04507C9.47027 1.92914 10.702 2.09573 11.8489 2.53195C12.9957 2.96817 14.0268 3.66232 14.8624 4.56073C15.526 5.27416 16.0522 6.1012 16.4171 7.00009H17.5136C18.6794 7.01581 19.8101 7.40171 20.7424 8.10191C21.6747 8.80211 22.3603 9.78047 22.7004 10.8957C23.0404 12.011 23.0172 13.2055 22.6341 14.3067C22.251 15.4079 21.5279 16.3589 20.5691 17.0224C20.115 17.3367 19.4921 17.2233 19.1778 16.7691C18.8635 16.315 18.9769 15.692 19.4311 15.3778C20.0412 14.9556 20.5014 14.3504 20.7451 13.6496C20.9889 12.9488 21.0037 12.1887 20.7873 11.479C20.5709 10.7693 20.1346 10.1467 19.5413 9.7011C18.9497 9.25678 18.2326 9.0114 17.493 9.00009H15.7101C15.2684 9.00009 14.879 8.71026 14.7522 8.28712C14.488 7.40561 14.0247 6.59668 13.398 5.92287C12.7712 5.24906 11.9979 4.72844 11.1378 4.40128ZM13.7163 12.3514C14.2403 12.526 14.5234 13.0923 14.3488 13.6163L14.3096 13.7338C14.6293 13.9602 14.9143 14.2324 15.155 14.5409L15.3286 14.4714C15.8413 14.2663 16.4233 14.5157 16.6284 15.0285C16.8335 15.5413 16.5841 16.1233 16.0713 16.3284L15.9517 16.3763C15.9835 16.5795 16 16.7878 16 17C16 17.148 15.992 17.2942 15.9763 17.4381L16.0163 17.4514C16.5402 17.6261 16.8234 18.1924 16.6487 18.7163C16.4741 19.2403 15.9078 19.5234 15.3838 19.3488L15.2663 19.3096C15.0398 19.6293 14.7675 19.9143 14.459 20.1551L14.5284 20.3286C14.7335 20.8413 14.4841 21.4233 13.9713 21.6284C13.4586 21.8335 12.8766 21.5841 12.6715 21.0713L12.6236 20.9517C12.4204 20.9835 12.2121 21 12 21C11.852 21 11.7059 20.992 11.5621 20.9763L11.5488 21.0163C11.3741 21.5402 10.8078 21.8234 10.2839 21.6487C9.75993 21.4741 9.47677 20.9078 9.65141 20.3838L9.69057 20.2664C9.37078 20.0399 9.08572 19.7676 8.84491 19.459L8.67144 19.5284C8.15866 19.7335 7.57669 19.4841 7.37157 18.9713C7.16646 18.4586 7.41587 17.8766 7.92866 17.6715L8.04832 17.6236C8.01651 17.4204 8 17.2121 8 17C8 16.852 8.00804 16.7059 8.0237 16.5621L7.98382 16.5488C7.45988 16.3741 7.17672 15.8078 7.35137 15.2839C7.52601 14.7599 8.09233 14.4768 8.61628 14.6514L8.73366 14.6905C8.96014 14.3708 9.23238 14.0858 9.54085 13.845L9.47143 13.6714C9.26631 13.1587 9.51573 12.5767 10.0285 12.3716C10.5413 12.1665 11.1233 12.4159 11.3284 12.9287L11.3763 13.0483C11.5795 13.0165 11.7878 13 12 13C12.1481 13 12.2942 13.008 12.4381 13.0237L12.4514 12.9838C12.6261 12.4599 13.1924 12.1767 13.7163 12.3514ZM10.969 15.2858C11.037 15.2741 11.1047 15.2552 11.1713 15.2285C11.2626 15.192 11.3455 15.1436 11.419 15.0857C11.6029 15.03 11.7979 15 12 15C12.7274 15 13.3642 15.3884 13.7142 15.969C13.7259 16.037 13.7448 16.1047 13.7715 16.1713C13.808 16.2626 13.8564 16.3455 13.9143 16.419C13.97 16.6029 14 16.7979 14 17C14 17.7274 13.6117 18.3641 13.031 18.7141C12.963 18.7258 12.8952 18.7448 12.8286 18.7715C12.7373 18.808 12.6543 18.8565 12.5808 18.9144C12.397 18.9701 12.202 19 12 19C11.2726 19 10.6359 18.6117 10.2859 18.031C10.2742 17.963 10.2552 17.8952 10.2285 17.8286C10.192 17.7373 10.1435 17.6543 10.0856 17.5808C10.0299 17.397 10 17.202 10 17C10 16.2726 10.3884 15.6358 10.969 15.2858Z" fill="black" style="fill:black;fill-opacity:1;"/>
</svg>
