<svg width="24" height="24" viewBox="0 0 24 24" fill="none" xmlns="http://www.w3.org/2000/svg">
<path fill-rule="evenodd" clip-rule="evenodd" d="M12 1C12.5523 1 13 1.44772 13 2V3.0557C13.903 3.15663 14.7811 3.39331 15.6058 3.75388L16.1342 2.83964C16.4106 2.36149 17.0223 2.19793 17.5004 2.47432C17.9786 2.75071 18.1422 3.36238 17.8658 3.84053L17.3379 4.75378C17.6994 5.02009 18.0426 5.31466 18.364 5.63604C18.6853 5.95742 18.9799 6.30061 19.2462 6.66213L20.1595 6.13423C20.6376 5.85784 21.2493 6.0214 21.5257 6.49956C21.8021 6.97771 21.6385 7.58938 21.1604 7.86577L20.2461 8.39424C20.6067 9.21886 20.8434 10.097 20.9443 11H22C22.5523 11 23 11.4477 23 12C23 12.5523 22.5523 13 22 13H20.9443C20.8434 13.903 20.6067 14.7811 20.2461 15.6058L21.1604 16.1342C21.6385 16.4106 21.8021 17.0223 21.5257 17.5004C21.2493 17.9786 20.6376 18.1422 20.1595 17.8658L19.2462 17.3379C18.9799 17.6994 18.6853 18.0426 18.364 18.364C18.0426 18.6853 17.6994 18.9799 17.3379 19.2462L17.8658 20.1595C18.1422 20.6376 17.9786 21.2493 17.5004 21.5257C17.0223 21.8021 16.4106 21.6385 16.1342 21.1604L15.6058 20.2461C14.7811 20.6067 13.903 20.8434 13 20.9443V22C13 22.5523 12.5523 23 12 23C11.4477 23 11 22.5523 11 22V20.9443C10.0968 20.8433 9.21844 20.6066 8.39365 20.2459L7.86608 21.1599C7.58999 21.6382 6.97842 21.8022 6.5001 21.5261C6.02177 21.25 5.85783 20.6384 6.13392 20.1601L6.66161 19.2458C6.30029 18.9796 5.95727 18.6852 5.63604 18.364C5.31466 18.0426 5.02009 17.6994 4.75378 17.3379L3.84053 17.8658C3.36238 18.1422 2.75071 17.9786 2.47432 17.5004C2.19793 17.0223 2.36149 16.4106 2.83964 16.1342L3.75388 15.6058C3.39331 14.7811 3.15663 13.903 3.0557 13H2C1.44772 13 1 12.5523 1 12C1 11.4477 1.44772 11 2 11H3.0557C3.15663 10.097 3.39331 9.21885 3.75388 8.39423L2.83964 7.86577C2.36149 7.58938 2.19793 6.97771 2.47432 6.49956C2.75071 6.0214 3.36238 5.85784 3.84053 6.13423L4.75378 6.66212C5.02009 6.30061 5.31466 5.95742 5.63604 5.63604C5.95726 5.31481 6.30027 5.02038 6.66159 4.75417L6.13392 3.83999C5.85783 3.36167 6.02177 2.7501 6.5001 2.47401C6.97842 2.19792 7.58999 2.36186 7.86608 2.84019L8.39362 3.75415C9.21842 3.39343 10.0968 3.15666 11 3.0557V2C11 1.44772 11.4477 1 12 1ZM7.66945 6.5003C7.45346 6.67038 7.24662 6.85388 7.05025 7.05025C5.7375 8.36301 5 10.1435 5 12C5 13.8565 5.7375 15.637 7.05025 16.9497C7.24663 17.1461 7.45348 17.3296 7.66948 17.4997L9.71911 13.9487C9.25666 13.4075 9 12.717 9 12C9 11.283 9.25666 10.5925 9.71909 10.0513L7.66945 6.5003ZM11.4508 9.05069L9.40144 5.50019C10.2202 5.17287 11.1012 5 12 5C13.8565 5 15.637 5.7375 16.9497 7.05025C18.0245 8.12499 18.7137 9.51321 18.9282 11H14.8284C14.6807 10.5821 14.4407 10.1981 14.1213 9.87868C13.5587 9.31607 12.7957 9 12 9C11.8144 9 11.6307 9.01719 11.4508 9.05069ZM11.4626 11.1567C11.4751 11.1501 11.4876 11.1433 11.4999 11.1362C11.5126 11.1288 11.5252 11.1212 11.5374 11.1134C11.679 11.0396 11.8374 11 12 11C12.2652 11 12.5196 11.1054 12.7071 11.2929C12.8946 11.4804 13 11.7348 13 12C13 12.2652 12.8946 12.5196 12.7071 12.7071C12.5196 12.8946 12.2652 13 12 13C11.8372 13 11.6785 12.9603 11.5368 12.8862C11.5247 12.8786 11.5124 12.8711 11.4999 12.8639C11.4878 12.8569 11.4755 12.8502 11.4632 12.8437C11.4021 12.8048 11.3449 12.7591 11.2929 12.7071C11.1054 12.5196 11 12.2652 11 12C11 11.7348 11.1054 11.4804 11.2929 11.2929C11.3447 11.241 11.4017 11.1955 11.4626 11.1567ZM11.4508 14.9493L9.40147 18.4998C10.2202 18.8271 11.1012 19 12 19C13.8565 19 15.637 18.2625 16.9497 16.9497C18.0245 15.875 18.7137 14.4868 18.9282 13H14.8284C14.6807 13.4179 14.4407 13.8019 14.1213 14.1213C13.5587 14.6839 12.7957 15 12 15C11.8145 15 11.6307 14.9828 11.4508 14.9493Z" fill="black" style="fill:black;fill-opacity:1;"/>
</svg>
