<svg width="24" height="24" viewBox="0 0 24 24" fill="none" xmlns="http://www.w3.org/2000/svg">
<path fill-rule="evenodd" clip-rule="evenodd" d="M8 3C5.23858 3 3 5.23858 3 8C3 10.7614 5.23858 13 8 13C10.7614 13 13 10.7614 13 8C13 5.23858 10.7614 3 8 3ZM1 8C1 4.13401 4.13401 1 8 1C11.866 1 15 4.13401 15 8C15 11.866 11.866 15 8 15C4.13401 15 1 11.866 1 8ZM6 6C6 5.44772 6.44772 5 7 5H8C8.55228 5 9 5.44772 9 6V10C9 10.5523 8.55228 11 8 11C7.44772 11 7 10.5523 7 10V7C6.44772 7 6 6.55228 6 6ZM17.1531 10.0208C17.346 9.5033 17.9219 9.24019 18.4394 9.43312C19.5423 9.84428 20.5237 10.5269 21.2928 11.4178C22.0619 12.3088 22.594 13.3793 22.8398 14.5304C23.0856 15.6814 23.0371 16.8759 22.699 18.0033C22.3608 19.1307 21.7438 20.1546 20.9051 20.9803C20.0663 21.8061 19.0329 22.407 17.9004 22.7275C16.7679 23.0481 15.5728 23.0779 14.4257 22.8141C13.2786 22.5504 12.2166 22.0017 11.3377 21.2188C10.4589 20.4358 9.79166 19.4439 9.39775 18.3348C9.21292 17.8143 9.48498 17.2426 10.0054 17.0578C10.5259 16.8729 11.0976 17.145 11.2824 17.6655C11.5638 18.4577 12.0404 19.1662 12.6681 19.7254C13.2959 20.2847 14.0545 20.6766 14.8738 20.865C15.6932 21.0534 16.5468 21.0321 17.3557 20.8031C18.1647 20.5742 18.9028 20.145 19.5019 19.5551C20.101 18.9653 20.5418 18.2339 20.7833 17.4287C21.0248 16.6234 21.0594 15.7702 20.8839 14.948C20.7083 14.1258 20.3283 13.3612 19.7789 12.7248C19.2295 12.0884 18.5285 11.6008 17.7408 11.3071C17.2233 11.1142 16.9602 10.5383 17.1531 10.0208ZM16.008 13.1678C16.4013 12.78 17.0344 12.7845 17.4222 13.1778L18.1222 13.8878C18.508 14.2791 18.5058 14.9084 18.1172 15.297L15.2972 18.117C14.9067 18.5075 14.2735 18.5075 13.883 18.117C13.4925 17.7265 13.4925 17.0933 13.883 16.7028L16.0009 14.5849L15.998 14.582C15.6102 14.1887 15.6147 13.5555 16.008 13.1678Z" fill="black" style="fill:black;fill-opacity:1;"/>
</svg>
