<svg width="24" height="24" viewBox="0 0 24 24" fill="none" xmlns="http://www.w3.org/2000/svg">
<path fill-rule="evenodd" clip-rule="evenodd" d="M9 4C9 3.44772 9.44772 3 10 3H14C14.5523 3 15 3.44772 15 4C15 4.55228 14.5523 5 14 5H13V7.0557C15.019 7.28137 16.9135 8.18561 18.364 9.63604C19.8521 11.1242 20.7653 13.0799 20.9605 15.1579C21.3937 15.3043 21.7919 15.5492 22.1213 15.8787C22.6839 16.4413 23 17.2043 23 18V19C23 19.5304 22.7893 20.0391 22.4142 20.4142C22.0391 20.7893 21.5304 21 21 21H3C2.46957 21 1.96086 20.7893 1.58579 20.4142C1.21071 20.0391 1 19.5304 1 19V18C1 17.2044 1.31607 16.4413 1.87868 15.8787C2.20811 15.5492 2.60627 15.3043 3.03945 15.1579C3.23466 13.0799 4.14785 11.1242 5.63604 9.63604C7.08647 8.18561 8.98098 7.28137 11 7.0557V5H10C9.44772 5 9 4.55228 9 4ZM5.07177 15H18.9282C18.7137 13.5132 18.0245 12.125 16.9497 11.0503C15.637 9.7375 13.8565 9 12 9C10.1435 9 8.36301 9.7375 7.05025 11.0503C5.97552 12.125 5.28635 13.5132 5.07177 15ZM4 17C3.73478 17 3.48043 17.1054 3.29289 17.2929C3.10536 17.4804 3 17.7348 3 18V19H21V18C21 17.7348 20.8946 17.4804 20.7071 17.2929C20.5196 17.1054 20.2652 17 20 17H4Z" fill="black" style="fill:black;fill-opacity:1;"/>
</svg>
