<svg width="24" height="24" viewBox="0 0 24 24" fill="none" xmlns="http://www.w3.org/2000/svg">
<path fill-rule="evenodd" clip-rule="evenodd" d="M12.7058 1.43055C13.1155 1.19765 13.5787 1.0752 14.05 1.0752C14.5213 1.0752 14.9845 1.19765 15.3942 1.43055C15.405 1.43671 15.4158 1.44307 15.4264 1.44964L21.7264 5.34964C21.7516 5.36529 21.7762 5.38206 21.8 5.3999C22.1323 5.64909 22.4763 6.03979 22.7103 6.51395C22.7298 6.54092 22.7481 6.56911 22.7651 6.59849C22.8349 6.71884 22.8768 6.84769 22.8927 6.97757C22.9608 7.20726 23 7.4497 23 7.6999V14.1999C23 14.6858 22.8178 15.1623 22.5984 15.5336C22.3748 15.9122 22.0421 16.3008 21.6145 16.5574L21.6034 16.5641L11.2942 22.5693C10.8845 22.8022 10.4213 22.9246 9.95 22.9246C9.47872 22.9246 9.01553 22.8022 8.60581 22.5693C8.59497 22.5631 8.58425 22.5567 8.57365 22.5502L2.27365 18.6502C2.24836 18.6345 2.22379 18.6177 2.2 18.5999C1.85307 18.3397 1.56821 17.9633 1.3721 17.6038C1.17968 17.251 1 16.7814 1 16.2999V9.6999C1 9.46198 1.03675 9.22352 1.10543 8.99364C1.12083 8.84879 1.16825 8.70507 1.25017 8.573C1.27438 8.53397 1.30084 8.49718 1.32928 8.46271C1.58501 8.00188 1.9755 7.61726 2.45002 7.40473L12.7058 1.43055ZM3 10.8351V16.2999C2.99998 16.2996 3 16.2997 3 16.2999C3.00025 16.3035 3.00266 16.3386 3.02361 16.406C3.04529 16.4757 3.08024 16.5587 3.1279 16.646C3.21901 16.8131 3.31878 16.9287 3.37774 16.9814L8.99998 20.4619V14.5566L3 10.8351ZM11 14.5762V20.4261L13 19.2611V13.4165L11 14.5762ZM15 12.2569V18.096L17 16.931V11.0972L15 12.2569ZM19 9.93755V15.7659L20.5891 14.8402C20.6618 14.7953 20.7769 14.6848 20.8766 14.5162C20.9236 14.4366 20.9573 14.3603 20.9779 14.2963C20.9994 14.2294 21 14.1971 21 14.1999V8.77789L19 9.93755ZM20.3442 6.84624L14.393 3.16213C14.2877 3.10511 14.1698 3.0752 14.05 3.0752C13.9266 3.0752 13.8054 3.10689 13.6978 3.16722L3.76269 8.95466L10.0173 12.8341L20.3442 6.84624Z" fill="black" style="fill:black;fill-opacity:1;"/>
</svg>
