<svg width="24" height="24" viewBox="0 0 24 24" fill="none" xmlns="http://www.w3.org/2000/svg">
<path fill-rule="evenodd" clip-rule="evenodd" d="M9 1C9.55228 1 10 1.44772 10 2V3H14V2C14 1.44772 14.4477 1 15 1C15.5523 1 16 1.44772 16 2V3H18C19.6569 3 21 4.34315 21 6V8H22C22.5523 8 23 8.44772 23 9C23 9.55228 22.5523 10 22 10H21V14H22C22.5523 14 23 14.4477 23 15C23 15.5523 22.5523 16 22 16H21V18C21 19.6569 19.6569 21 18 21H16V22C16 22.5523 15.5523 23 15 23C14.4477 23 14 22.5523 14 22V21H10V22C10 22.5523 9.55228 23 9 23C8.44772 23 8 22.5523 8 22V21H6C4.34315 21 3 19.6569 3 18V16H2C1.44772 16 1 15.5523 1 15C1 14.4477 1.44772 14 2 14H3V10H2C1.44772 10 1 9.55228 1 9C1 8.44772 1.44772 8 2 8H3V6C3 4.34315 4.34315 3 6 3H8V2C8 1.44772 8.44772 1 9 1ZM6 5C5.44772 5 5 5.44772 5 6V18C5 18.5523 5.44772 19 6 19H18C18.5523 19 19 18.5523 19 18V6C19 5.44772 18.5523 5 18 5H6ZM8 9C8 8.44772 8.44772 8 9 8H15C15.5523 8 16 8.44772 16 9V15C16 15.5523 15.5523 16 15 16H9C8.44772 16 8 15.5523 8 15V9ZM10 10V14H14V10H10Z" fill="black" style="fill:black;fill-opacity:1;"/>
</svg>
