<svg width="24" height="24" viewBox="0 0 24 24" fill="none" xmlns="http://www.w3.org/2000/svg">
<path fill-rule="evenodd" clip-rule="evenodd" d="M4.18826 1.55117C4.69659 1.19171 5.30756 1 6 1C6.75268 1 7.40528 1.2111 7.91303 1.65186C8.40516 2.07906 8.66339 2.63752 8.80473 3.15551C8.98384 3.8119 9.01027 4.57166 9.00844 5.20159C9.22353 5.29619 9.422 5.42385 9.60211 5.58406C10.0022 5.93992 10.2475 6.40039 10.4206 6.81937L11.2284 8.66925C12.3255 8.65017 13.3762 9.24818 14.062 9.92672C14.7535 10.6109 15.3646 11.6649 15.338 12.7748L17.1805 13.5794C17.5995 13.7525 18.06 13.9978 18.4159 14.3979C18.5761 14.578 18.7037 14.7765 18.7983 14.9916C19.4283 14.9897 20.188 15.0161 20.8444 15.1952C21.3624 15.3365 21.9209 15.5947 22.3481 16.0869C22.7889 16.5946 23 17.2472 23 17.9999C23 18.6923 22.8083 19.3033 22.4488 19.8117C22.0963 20.3102 21.6198 20.6579 21.1235 20.8992C20.3562 21.2723 19.4596 21.431 18.635 21.481C18.5326 21.6888 18.4028 21.8852 18.2388 22.065C17.5744 22.7937 16.5871 23 15.4999 23C15.4844 23 15.4688 22.9996 15.4532 22.9989C13.6337 22.9139 11.892 22.2609 10.4694 21.1399C10.3736 21.1849 10.2747 21.2244 10.173 21.2583C9.52889 21.4731 8.8555 21.4363 8.23854 21.2791C7.02214 20.9693 5.79394 20.1362 4.8253 19.1709C3.85716 18.2062 3.0189 16.9804 2.71162 15.7606C2.55553 15.141 2.52283 14.4652 2.74471 13.8187C2.77844 13.7204 2.81736 13.6249 2.86136 13.5322C1.73957 12.1092 1.08617 10.3669 1.00109 8.54669C1.00036 8.53114 1 8.51557 1 8.5C1 7.41284 1.20629 6.42552 1.93496 5.76108C2.11477 5.59711 2.31119 5.46732 2.51887 5.36492C2.56891 4.54035 2.72759 3.64379 3.10067 2.87648C3.34198 2.38018 3.68974 1.90369 4.18826 1.55117ZM4.561 5H7.00628C7.00415 4.51306 6.98067 4.06826 6.87527 3.68199C6.79661 3.39373 6.69484 3.24282 6.60197 3.1622C6.52472 3.09515 6.36732 3 6 3C5.69244 3 5.49091 3.07954 5.34299 3.18414C5.18526 3.29568 5.03302 3.47607 4.89933 3.75102C4.73288 4.09335 4.62269 4.52542 4.561 5ZM5.0857 13.9842C4.80503 14.1404 4.69047 14.3104 4.63641 14.4679C4.5752 14.6462 4.55946 14.9086 4.65103 15.2721C4.83906 16.0185 5.41892 16.939 6.23703 17.7542C7.05464 18.569 7.98082 19.1496 8.73223 19.341C9.09917 19.4345 9.36305 19.4202 9.54024 19.3611C9.69481 19.3095 9.85722 19.2012 10.0056 18.9347C10.0055 18.9349 10.0057 18.9345 10.0056 18.9347L13.2253 13.1253L13.2273 13.1218C13.4443 12.7338 13.3429 12.0287 12.6553 11.3484C11.9642 10.6646 11.2476 10.5676 10.8756 10.7742L5.0857 13.9842C5.08585 13.9841 5.08556 13.9842 5.0857 13.9842ZM11.8713 19.6942C12.9296 20.4766 14.1992 20.9334 15.5233 21C16.4173 20.9968 16.6762 20.8105 16.761 20.7175C16.8665 20.6017 16.9999 20.315 16.9999 19.5V16C16.9999 15.825 16.957 15.7671 16.9215 15.7271C16.8578 15.6555 16.718 15.5516 16.4098 15.4249L16.3897 15.4164L14.6606 14.6614L11.8713 19.6942ZM4.30634 12.1294C3.52365 11.071 3.06657 9.80109 3.00004 8.47666C3.00323 7.58266 3.18951 7.32375 3.28254 7.23892C3.39828 7.13339 3.68495 7 4.5 7H8C8.17505 7 8.23294 7.0429 8.27289 7.07844C8.34446 7.1421 8.44839 7.28189 8.57506 7.59011L8.58357 7.61019L9.33871 9.33947L4.30634 12.1294ZM18.9999 19.4389C19.4745 19.3772 19.9066 19.267 20.249 19.1006C20.5239 18.9669 20.7043 18.8146 20.8159 18.6569C20.9205 18.509 21 18.3075 21 17.9999C21 17.6326 20.9049 17.4752 20.8378 17.398C20.7572 17.3051 20.6063 17.2033 20.318 17.1247C19.9317 17.0193 19.4869 16.9958 18.9999 16.9937V19.4389Z" fill="black" style="fill:black;fill-opacity:1;"/>
</svg>
