<svg width="24" height="24" viewBox="0 0 24 24" fill="none" xmlns="http://www.w3.org/2000/svg">
<path fill-rule="evenodd" clip-rule="evenodd" d="M6 1C6.55228 1 7 1.44772 7 2V5H16C16.7956 5 17.5587 5.31607 18.1213 5.87868C18.6839 6.44129 19 7.20435 19 8V17H22C22.5523 17 23 17.4477 23 18C23 18.5523 22.5523 19 22 19H19V22C19 22.5523 18.5523 23 18 23C17.4477 23 17 22.5523 17 22V19H8C7.20435 19 6.44129 18.6839 5.87868 18.1213C5.31607 17.5587 5 16.7956 5 16V7H2C1.44772 7 1 6.55228 1 6C1 5.44772 1.44772 5 2 5H5V2C5 1.44772 5.44772 1 6 1ZM7 7V16C7 16.2652 7.10536 16.5196 7.29289 16.7071C7.48043 16.8946 7.73478 17 8 17H17V8C17 7.73478 16.8946 7.48043 16.7071 7.29289C16.5196 7.10536 16.2652 7 16 7H7Z" fill="black" style="fill:black;fill-opacity:1;"/>
</svg>
