<svg width="24" height="24" viewBox="0 0 24 24" fill="none" xmlns="http://www.w3.org/2000/svg">
<path fill-rule="evenodd" clip-rule="evenodd" d="M15.669 1.25668C16.0796 1.62611 16.1129 2.2584 15.7434 2.66893C15.6372 2.78699 15.5351 2.90494 15.437 3.02281L17.7071 5.2929C18.0976 5.68343 18.0976 6.31659 17.7071 6.70712C17.3166 7.09764 16.6834 7.09764 16.2929 6.70712L14.2887 4.70288C14.0133 5.20906 13.7974 5.71493 13.628 6.22166C13.6553 6.24375 13.6817 6.2675 13.7071 6.2929L14.7071 7.2929C15.0976 7.68343 15.0976 8.31659 14.7071 8.70712C14.3166 9.09764 13.6834 9.09764 13.2929 8.70712L13.0665 8.48068C12.8703 8.83186 12.4718 9.04373 12.05 8.98271C11.5034 8.90365 11.1244 8.39645 11.2034 7.84985C11.5161 5.68827 12.3063 3.49856 14.2568 1.33108C14.6262 0.920555 15.2585 0.887241 15.669 1.25668ZM22.7433 8.33106C23.1128 8.74158 23.0795 9.37387 22.6689 9.74332C19.0499 13.0003 15.3804 13.0001 12.0619 13L12 13C10.7696 13 9.58796 13.0028 8.43454 13.1435C8.57048 13.5004 8.49467 13.9195 8.20711 14.2071C7.81658 14.5976 7.18342 14.5976 6.79289 14.2071L6.21541 13.6296C5.70873 13.7993 5.20505 14.0148 4.70248 14.2883L4.70711 14.2929C5.09763 14.6834 5.09763 15.3166 4.70711 15.7071C4.31658 16.0976 3.68342 16.0976 3.29289 15.7071L3.02271 15.4369C2.90485 15.5351 2.78694 15.6371 2.66895 15.7433C2.25843 16.1128 1.62614 16.0795 1.25669 15.669C0.887241 15.2584 0.920535 14.6261 1.33105 14.2567C4.95008 10.9997 8.61964 10.9999 11.9381 11L12 11C13.2304 11 14.412 10.9972 15.5655 10.8565C15.4295 10.4996 15.5053 10.0805 15.7929 9.7929C16.1834 9.40238 16.8166 9.40238 17.2071 9.7929L17.7846 10.3704C18.2913 10.2007 18.795 9.98524 19.2975 9.71174L19.2929 9.70712C18.9024 9.31659 18.9024 8.68343 19.2929 8.2929C19.6834 7.90238 20.3166 7.90238 20.7071 8.2929L20.9773 8.56309C21.0952 8.46496 21.2131 8.36288 21.3311 8.2567C21.7416 7.88725 22.3739 7.92054 22.7433 8.33106ZM9.29289 15.2929C9.68342 14.9024 10.3166 14.9024 10.7071 15.2929L10.9337 15.5194C11.1298 15.1682 11.5283 14.9564 11.9502 15.0174C12.4968 15.0965 12.8758 15.6036 12.7967 16.1502C12.484 18.3118 11.6938 20.5015 9.74333 22.669C9.3739 23.0795 8.74161 23.1129 8.33108 22.7434C7.92055 22.374 7.88723 21.7417 8.25667 21.3312C8.3629 21.2131 8.46499 21.0952 8.56308 20.9773L6.29289 18.7071C5.90237 18.3166 5.90237 17.6834 6.29289 17.2929C6.68342 16.9024 7.31658 16.9024 7.70711 17.2929L9.71144 19.2972C9.98576 18.793 10.201 18.2891 10.3702 17.7844L9.29289 16.7071C8.90237 16.3166 8.90237 15.6834 9.29289 15.2929Z" fill="black" style="fill:black;fill-opacity:1;"/>
</svg>
