<svg width="24" height="24" viewBox="0 0 24 24" fill="none" xmlns="http://www.w3.org/2000/svg">
<g clip-path="url(#clip0_168_2222)">
<path d="M11.5 22.06C6.11999 22.06 2.49999 19.07 2.49999 14.62C2.49999 13.75 2.57999 12.88 2.73999 12.02C2.52999 11.94 2.33999 11.84 2.14999 11.73C1.48999 11.32 1.06999 10.76 1.00999 10.18C0.879993 9.00999 2.15999 2.67999 5.83999 2.06999C7.17999 1.84999 8.47999 2.15999 9.39999 2.93999C9.79999 3.27999 10.1 3.67999 10.29 4.12999C10.7 4.07999 11.11 4.05999 11.52 4.05999C12.02 4.05999 12.51 4.09999 12.98 4.17999C13.16 3.71999 13.47 3.29999 13.89 2.93999C14.81 2.15999 16.1 1.83999 17.45 2.06999C21.13 2.67999 22.41 8.99999 22.28 10.17C22.21 10.75 21.8 11.31 21.14 11.72C20.87 11.89 20.57 12.02 20.26 12.11C20.43 12.94 20.52 13.79 20.52 14.61C20.52 19.06 16.9 22.05 11.52 22.05L11.5 22.06ZM4.72999 12.29C4.57999 13.06 4.50999 13.84 4.50999 14.62C4.50999 18.64 8.27999 20.06 11.51 20.06C14.74 20.06 18.51 18.63 18.51 14.62C18.51 13.85 18.41 13.04 18.23 12.25C17.91 12.2 17.58 12.12 17.27 12C15.51 11.34 14.81 9.91999 14.44 8.90999C14.25 8.38999 14.52 7.81999 15.04 7.62999C15.56 7.43999 16.13 7.70999 16.32 8.22999C16.7 9.27999 17.2 9.84999 17.97 10.14C18.32 10.27 18.65 10.32 18.94 10.33C18.98 10.33 19.02 10.33 19.05 10.33C19.69 10.3 20.14 10.03 20.28 9.87999C20.27 8.85999 19.06 4.38999 17.11 4.06999C16.36 3.93999 15.64 4.09999 15.17 4.48999C14.99 4.63999 14.77 4.89999 14.77 5.24999C14.77 5.50999 14.67 5.74999 14.5 5.92999C14.26 6.28999 13.81 6.46999 13.38 6.33999C12.79 6.15999 12.14 6.07999 11.47 6.07999C10.96 6.07999 10.45 6.12999 9.95999 6.22999C9.85999 6.24999 9.75999 6.24999 9.65999 6.23999C9.07999 6.32999 8.49999 5.85999 8.49999 5.24999C8.49999 4.89999 8.27999 4.63999 8.09999 4.48999C7.63999 4.09999 6.90999 3.93999 6.15999 4.06999C4.20999 4.39999 2.99999 8.85999 2.98999 9.88999C3.19999 10.11 4.08999 10.6 5.29999 10.15C6.11999 9.83999 6.69999 9.21999 7.05999 8.23999C7.24999 7.71999 7.81999 7.45999 8.33999 7.63999C8.85999 7.82999 9.12999 8.39999 8.93999 8.91999C8.38999 10.43 7.36999 11.5 6.00999 12.01C5.58999 12.17 5.15999 12.26 4.72999 12.3V12.29ZM11.5 18.06C11.24 18.06 10.99 17.96 10.79 17.77L10.04 17.02C9.74999 16.73 9.66999 16.3 9.81999 15.93C9.96999 15.56 10.34 15.31 10.74 15.31H12.24C12.64 15.31 13.01 15.55 13.16 15.93C13.32 16.3 13.23 16.73 12.94 17.02L12.19 17.77C11.99 17.97 11.74 18.06 11.48 18.06H11.5ZM15.5 15.56C14.95 15.56 14.5 15.11 14.5 14.56V14.06C14.5 13.51 14.95 13.06 15.5 13.06C16.05 13.06 16.5 13.51 16.5 14.06V14.56C16.5 15.11 16.05 15.56 15.5 15.56ZM7.49999 15.56C6.94999 15.56 6.49999 15.11 6.49999 14.56V14.06C6.49999 13.51 6.94999 13.06 7.49999 13.06C8.04999 13.06 8.49999 13.51 8.49999 14.06V14.56C8.49999 15.11 8.04999 15.56 7.49999 15.56Z" fill="black" style="fill:black;fill-opacity:1;"/>
</g>
<defs>
<clipPath id="clip0_168_2222">
<rect width="21.27" height="20.06" fill="white" style="fill:white;fill-opacity:1;" transform="translate(1 2)"/>
</clipPath>
</defs>
</svg>
