<svg width="24" height="24" viewBox="0 0 24 24" fill="none" xmlns="http://www.w3.org/2000/svg">
<path fill-rule="evenodd" clip-rule="evenodd" d="M12 4C11.4477 4 11 4.44772 11 5C11 5.35378 11.1837 5.66465 11.4609 5.84242C11.4775 5.85057 11.4939 5.85923 11.5102 5.86838C11.5271 5.87788 11.5436 5.8878 11.5597 5.89811C11.6926 5.96336 11.842 6 12 6C12.5523 6 13 5.55228 13 5C13 4.44772 12.5523 4 12 4ZM9.741 6.97414C9.27959 6.44657 8.99999 5.75594 8.99999 5C8.99999 3.34315 10.3431 2 12 2C13.6568 2 15 3.34315 15 5C15 5.75294 14.7226 6.4411 14.2645 6.96785L15.7921 9.69069C16.0623 10.1723 15.8909 10.7819 15.4093 11.0521C14.9276 11.3223 14.3181 11.1509 14.0479 10.6693L12.5246 7.95428C12.3543 7.98433 12.179 8 12 8C11.8239 8 11.6513 7.98483 11.4836 7.95572L8.50153 13.2579C11.741 14.6955 15.6306 14.0444 18.2813 11.3047C18.6653 10.9077 19.2984 10.8973 19.6953 11.2813C20.0922 11.6653 20.1027 12.2984 19.7187 12.6953C16.4194 16.1055 11.5338 16.8764 7.51725 15.008L3.8716 21.4902C3.60087 21.9716 2.99117 22.1423 2.50979 21.8716C2.02842 21.6009 1.85765 20.9912 2.12839 20.5098L5.79024 13.9988C5.2595 13.6185 4.75412 13.184 4.28131 12.6953C3.89728 12.2984 3.90774 11.6653 4.30466 11.2813C4.70158 10.8973 5.33466 10.9077 5.71868 11.3047C6.05332 11.6505 6.40771 11.9631 6.77804 12.2424L9.741 6.97414ZM18.3498 16.2883C18.8312 16.0176 19.4409 16.1883 19.7117 16.6697L21.8717 20.5097C22.1424 20.991 21.9717 21.6007 21.4903 21.8715C21.009 22.1423 20.3993 21.9715 20.1285 21.4902L17.9685 17.6502C17.6977 17.1688 17.8685 16.5591 18.3498 16.2883Z" fill="black" style="fill:black;fill-opacity:1;"/>
</svg>
