<svg width="24" height="24" viewBox="0 0 24 24" fill="none" xmlns="http://www.w3.org/2000/svg">
<path fill-rule="evenodd" clip-rule="evenodd" d="M3.00064 11.8912C3.00022 11.9274 3 11.9637 3 12C3 14.2321 3.81258 16.2744 5.15807 17.8473C7.4345 15.1931 10.0678 13.2901 13.0222 12.279C12.8659 11.8987 12.7052 11.5273 12.5388 11.162C12.4193 10.8998 12.2967 10.6402 12.1707 10.3825C9.51884 11.2057 6.48983 11.6394 3.00064 11.8912ZM3.25436 9.86661C6.34376 9.62798 8.96089 9.23988 11.2174 8.58085C10.3746 7.09922 9.37692 5.5953 8.13586 3.86942C5.72121 5.01906 3.8995 7.21267 3.25436 9.86661ZM10.1141 3.19792C11.3071 4.87975 12.2919 6.39274 13.1388 7.91746C14.8825 7.21122 16.3899 6.2832 17.7293 5.05883C16.1729 3.77273 14.1767 3 12 3C11.3531 3 10.7222 3.06824 10.1141 3.19792ZM19.1213 6.49595C17.6173 7.88039 15.9433 8.91795 14.0626 9.70019C14.1633 9.9095 14.262 10.1203 14.3588 10.333C14.5702 10.7968 14.7723 11.2687 14.9672 11.7529C16.8614 11.3717 18.8732 11.3369 20.9945 11.6811C20.9265 9.7313 20.2384 7.9392 19.1213 6.49595ZM20.8428 13.6835C19.0276 13.371 17.3044 13.3676 15.6752 13.6554C16.2425 15.3037 16.7627 17.131 17.2973 19.2766C19.1098 17.9549 20.4097 15.9725 20.8428 13.6835ZM15.4895 20.2985C14.8975 17.8756 14.3384 15.8956 13.7304 14.1511C11.0813 15.0421 8.70795 16.7599 6.61965 19.2154C8.12046 20.3363 9.98272 21 12 21C13.2374 21 14.4164 20.7503 15.4895 20.2985ZM1 12C1 5.92487 5.92487 1 12 1C18.0751 1 23 5.92487 23 12C23 18.0751 18.0751 23 12 23C5.92487 23 1 18.0751 1 12Z" fill="black" style="fill:black;fill-opacity:1;"/>
</svg>
