<svg width="24" height="24" viewBox="0 0 24 24" fill="none" xmlns="http://www.w3.org/2000/svg">
<path fill-rule="evenodd" clip-rule="evenodd" d="M1.29289 1.29289C1.68342 0.902369 2.31658 0.902369 2.70711 1.29289L7.0913 5.67708C7.10169 5.68704 7.11184 5.69719 7.12174 5.70753L19.0664 17.6522C19.0773 17.6626 19.0879 17.6732 19.0982 17.684L22.7071 21.2929C23.0976 21.6834 23.0976 22.3166 22.7071 22.7071C22.3166 23.0976 21.6834 23.0976 21.2929 22.7071L18.5445 19.9587C17.1789 21.7567 15.0496 22.9756 12.0079 22.9999H11.9919C8.52231 22.972 6.23235 21.3898 4.91324 19.1499C3.63217 16.9746 3.30775 14.2603 3.50333 11.9174M17.1129 18.5271L6.64851 8.06273C6.01481 9.40486 5.60106 10.82 5.4965 12.0825L5.49644 12.0832C5.32214 14.1701 5.63279 16.4305 6.63659 18.135C7.60154 19.7735 9.24434 20.9755 12 20.9999C14.5223 20.9776 16.1191 19.9675 17.1129 18.5271ZM5.15779 6.57201L1.29289 2.70711C0.902369 2.31658 0.902369 1.68342 1.29289 1.29289M5.15779 6.57201C4.26389 8.26999 3.64854 10.1656 3.50338 11.9167L5.15779 6.57201ZM11.9886 1.00007L12.0114 1.00006C14.2835 1.02567 16.3249 2.78482 17.7617 4.80858C19.2344 6.88276 20.2996 9.54092 20.4967 11.9173C20.5527 12.5849 20.5641 13.2555 20.5309 13.9246C20.5035 14.4762 20.0341 14.9012 19.4825 14.8738C18.9309 14.8464 18.5059 14.377 18.5333 13.8254C18.5622 13.2448 18.5522 12.6629 18.5036 12.0837L18.5035 12.0827C18.3406 10.1191 17.4308 7.79724 16.131 5.96641C14.7993 4.09077 13.2757 3.0207 12.0002 3.00009C11.2706 3.01203 10.4467 3.36224 9.59034 4.06849C9.16426 4.41988 8.534 4.35932 8.18261 3.93324C7.83122 3.50716 7.89178 2.87689 8.31786 2.52551C9.38501 1.64544 10.641 1.01562 11.9886 1.00007Z" fill="black" style="fill:black;fill-opacity:1;"/>
</svg>
