<svg width="24" height="24" viewBox="0 0 24 24" fill="none" xmlns="http://www.w3.org/2000/svg">
<path fill-rule="evenodd" clip-rule="evenodd" d="M6.23832 4.80858C7.67517 2.78482 9.71651 1.02566 11.9887 1.00006H12.0112C14.2834 1.02566 16.3247 2.78482 17.7616 4.80858C19.2342 6.88276 20.2994 9.54091 20.4965 11.9173C20.6921 14.2603 20.3677 16.9746 19.0866 19.15C17.7675 21.3899 15.4776 22.9721 12.008 23H11.9919C8.52235 22.9721 6.23239 21.3899 4.91328 19.15C3.63219 16.9746 3.30778 14.2603 3.50338 11.9173M6.23832 4.80858C4.7658 6.88259 3.70067 9.54049 3.50343 11.9168L6.23832 4.80858ZM7.86909 5.96641C6.56923 7.79724 5.65941 10.1191 5.49653 12.0827L5.49649 12.0832C5.32219 14.1701 5.63283 16.4306 6.63663 18.135C7.60158 19.7736 9.24437 20.9755 12 21C14.7555 20.9755 16.3983 19.7736 17.3633 18.135C18.3671 16.4306 18.6777 14.1701 18.5034 12.0832L18.5034 12.0827C18.3405 10.1191 17.4307 7.79724 16.1308 5.96641C14.7991 4.09071 13.2755 3.02063 12 3.00009C10.7244 3.02063 9.20082 4.0907 7.86909 5.96641Z" fill="black" style="fill:black;fill-opacity:1;"/>
</svg>
