<svg width="24" height="24" viewBox="0 0 24 24" fill="none" xmlns="http://www.w3.org/2000/svg">
<path fill-rule="evenodd" clip-rule="evenodd" d="M14.9567 4.36893C14.4736 3.83217 13.6384 3.77573 13.0071 4.40707L6.41418 11L14 18.5857L20.5929 11.9929C20.6052 11.9805 20.618 11.9684 20.631 11.9567C21.1678 11.4736 21.2242 10.6384 20.5929 10.0071L14.9929 4.40707C14.9805 4.39467 14.9684 4.38196 14.9567 4.36893ZM12.5857 20L4.99996 12.4142L3.40707 14.0071C3.39467 14.0195 3.38196 14.0315 3.36893 14.0433C2.83217 14.5263 2.77573 15.3615 3.40707 15.9929L7.41418 20L12.5857 20L12.5857 20ZM15.4141 20L22 20C22.5523 20 23 20.4477 23 21C23 21.5523 22.5523 22 22 22L6.99996 22C6.73474 22 6.48039 21.8946 6.29286 21.7071L1.99286 17.4071C0.630801 16.045 0.568334 13.8945 2.0099 12.5758L11.5929 2.99286C12.9549 1.6308 15.1054 1.56833 16.4241 3.0099L22.0071 8.59286C23.3691 9.95491 23.4316 12.1054 21.99 13.4241L15.4141 20Z" fill="black" style="fill:black;fill-opacity:1;"/>
</svg>
