<svg width="24" height="24" viewBox="0 0 24 24" fill="none" xmlns="http://www.w3.org/2000/svg">
<path fill-rule="evenodd" clip-rule="evenodd" d="M3.29289 2.29289C3.68342 1.90237 4.31658 1.90237 4.70711 2.29289L6.70711 4.29289C6.89464 4.48043 7 4.73478 7 5V7H9V5C9 4.73478 9.10536 4.48043 9.29289 4.29289L11.2929 2.29289C11.6834 1.90237 12.3166 1.90237 12.7071 2.29289L14.7071 4.29289C14.8946 4.48043 15 4.73478 15 5V7H17V5C17 4.73478 17.1054 4.48043 17.2929 4.29289L19.2929 2.29289C19.6834 1.90237 20.3166 1.90237 20.7071 2.29289L22.7071 4.29289C22.8946 4.48043 23 4.73478 23 5V20C23 20.5272 22.8199 21.0443 22.4321 21.4321C22.0443 21.8199 21.5272 22 21 22H19C18.4728 22 17.9557 21.8199 17.5679 21.4321C17.1801 21.0443 17 20.5272 17 20V19H15V20C15 20.5272 14.8199 21.0443 14.4321 21.4321C14.0443 21.8199 13.5272 22 13 22H11C10.4728 22 9.95567 21.8199 9.56789 21.4321C9.18011 21.0443 9 20.5272 9 20V19H7V20C7 20.5272 6.81989 21.0443 6.43211 21.4321C6.04433 21.8199 5.52725 22 5 22H3C2.47275 22 1.95567 21.8199 1.56789 21.4321C1.18011 21.0443 1 20.5272 1 20V5C1 4.73478 1.10536 4.48043 1.29289 4.29289L3.29289 2.29289ZM7 17H9V9H7V17ZM5 20H3V5.41421L4 4.41421L5 5.41421V20ZM11 20H13V5.41421L12 4.41421L11 5.41421V20ZM15 9V17H17V9H15ZM19 20H21V5.41421L20 4.41421L19 5.41421V20Z" fill="black" style="fill:black;fill-opacity:1;"/>
</svg>
