<svg width="24" height="24" viewBox="0 0 24 24" fill="none" xmlns="http://www.w3.org/2000/svg">
<path fill-rule="evenodd" clip-rule="evenodd" d="M3.87868 1.87868C4.44129 1.31607 5.20435 1 6 1H15C15.2652 1 15.5196 1.10536 15.7071 1.29289L20.7071 6.29289C20.8946 6.48043 21 6.73478 21 7V20C21 20.7957 20.6839 21.5587 20.1213 22.1213C19.5587 22.6839 18.7957 23 18 23H6C5.20435 23 4.44129 22.6839 3.87868 22.1213C3.31607 21.5587 3 20.7957 3 20V4C3 3.20435 3.31607 2.44129 3.87868 1.87868ZM18.5858 7H16C15.7348 7 15.4804 6.89464 15.2929 6.70711C15.1054 6.51957 15 6.26522 15 6V3.41421L18.5858 7ZM13 3V6C13 6.79565 13.3161 7.55871 13.8787 8.12132C14.4413 8.68393 15.2044 9 16 9H19V20C19 20.2652 18.8946 20.5196 18.7071 20.7071C18.5196 20.8946 18.2652 21 18 21H6C5.73478 21 5.48043 20.8946 5.29289 20.7071C5.10536 20.5196 5 20.2652 5 20V4C5 3.73478 5.10536 3.48043 5.29289 3.29289C5.48043 3.10536 5.73478 3 6 3H13ZM14.4 11.2C14.8418 10.8686 15.4686 10.9582 15.8 11.4C16.5789 12.4386 17 13.7018 17 15C17 16.2982 16.5789 17.5614 15.8 18.6C15.4686 19.0418 14.8418 19.1314 14.4 18.8C13.9582 18.4686 13.8686 17.8418 14.2 17.4C14.7193 16.7076 15 15.8655 15 15C15 14.1345 14.7193 13.2924 14.2 12.6C13.8686 12.1582 13.9582 11.5314 14.4 11.2ZM10.9 12.7C11.3418 12.3686 11.9686 12.4582 12.3 12.9C12.7544 13.5058 13 14.2427 13 15C13 15.7573 12.7544 16.4942 12.3 17.1C11.9686 17.5418 11.3418 17.6314 10.9 17.3C10.4582 16.9686 10.3686 16.3418 10.7 15.9C10.8947 15.6404 11 15.3246 11 15C11 14.6754 10.8947 14.3596 10.7 14.1C10.3686 13.6582 10.4582 13.0314 10.9 12.7ZM7 15C7 14.4477 7.44772 14 8 14H8.01C8.56228 14 9.01 14.4477 9.01 15C9.01 15.5523 8.56228 16 8.01 16H8C7.44772 16 7 15.5523 7 15Z" fill="black" style="fill:black;fill-opacity:1;"/>
</svg>
