<svg width="24" height="24" viewBox="0 0 24 24" fill="none" xmlns="http://www.w3.org/2000/svg">
<path fill-rule="evenodd" clip-rule="evenodd" d="M9 3C8.73478 3 8.48043 3.10536 8.29289 3.29289C8.10536 3.48043 8 3.73478 8 4V16C8 16.2652 8.10536 16.5196 8.29289 16.7071C8.48043 16.8946 8.73478 17 9 17H18C18.2652 17 18.5196 16.8946 18.7071 16.7071C18.8946 16.5196 19 16.2652 19 16V8H17C16.2044 8 15.4413 7.68393 14.8787 7.12132C14.3161 6.55871 14 5.79565 14 5V3H9ZM9 1C8.20435 1 7.44129 1.31607 6.87868 1.87868C6.31607 2.44129 6 3.20435 6 4V16C6 16.7956 6.31607 17.5587 6.87868 18.1213C7.44129 18.6839 8.20435 19 9 19H18C18.7957 19 19.5587 18.6839 20.1213 18.1213C20.6839 17.5587 21 16.7957 21 16V6C21 5.73478 20.8946 5.48043 20.7071 5.29289L16.7071 1.29289C16.5196 1.10536 16.2652 1 16 1H9ZM18.5858 6L16 3.41421V5C16 5.26522 16.1054 5.51957 16.2929 5.70711C16.4804 5.89464 16.7348 6 17 6H18.5858ZM3 6.6001C3.55228 6.6001 4 7.04781 4 7.6001V20.4001C4 20.5592 4.06321 20.7118 4.17574 20.8244C4.28826 20.9369 4.44087 21.0001 4.6 21.0001H14.4C14.9523 21.0001 15.4 21.4478 15.4 22.0001C15.4 22.5524 14.9523 23.0001 14.4 23.0001H4.6C3.91044 23.0001 3.24912 22.7262 2.76152 22.2386C2.27393 21.751 2 21.0897 2 20.4001V7.6001C2 7.04781 2.44772 6.6001 3 6.6001Z" fill="black" style="fill:black;fill-opacity:1;"/>
</svg>
