<svg width="24" height="24" viewBox="0 0 24 24" fill="none" xmlns="http://www.w3.org/2000/svg">
<path fill-rule="evenodd" clip-rule="evenodd" d="M3.87868 1.87868C4.44129 1.31607 5.20435 1 6 1H15C15.2652 1 15.5196 1.10536 15.7071 1.29289L20.7071 6.29289C20.8946 6.48043 21 6.73478 21 7V20C21 20.7957 20.6839 21.5587 20.1213 22.1213C19.5587 22.6839 18.7957 23 18 23H16C15.4477 23 15 22.5523 15 22C15 21.4477 15.4477 21 16 21H18C18.2652 21 18.5196 20.8946 18.7071 20.7071C18.8946 20.5196 19 20.2652 19 20V9H16C15.2044 9 14.4413 8.68393 13.8787 8.12132C13.3161 7.55871 13 6.79565 13 6V3H6C5.73478 3 5.48043 3.10536 5.29289 3.29289C5.10536 3.48043 5 3.73478 5 4V7C5 7.55228 4.55228 8 4 8C3.44772 8 3 7.55228 3 7V4C3 3.20435 3.31607 2.44129 3.87868 1.87868ZM15 3.41421V6C15 6.26522 15.1054 6.51957 15.2929 6.70711C15.4804 6.89464 15.7348 7 16 7H18.5858L15 3.41421ZM7 10C7 9.44772 7.44772 9 8 9C11.8523 9 15 12.1477 15 16C15 16.5523 14.5523 17 14 17H8C7.44772 17 7 16.5523 7 16V10ZM9 11.1014V15H12.8986C12.4979 13.0497 10.9503 11.5021 9 11.1014ZM4.74584 10.8339C5.1137 11.2459 5.07797 11.878 4.66603 12.2459C4.15653 12.7009 3.74524 13.2551 3.45735 13.8745C3.16946 14.494 3.01103 15.1657 2.99175 15.8485C2.97247 16.5313 3.09274 17.2109 3.34522 17.8456C3.59769 18.4803 3.97705 19.0569 4.46007 19.5399C4.94309 20.0229 5.51961 20.4023 6.15433 20.6547C6.78905 20.9072 7.46862 21.0275 8.15144 21.0082C8.83426 20.9889 9.50596 20.8305 10.1254 20.5426C10.7449 20.2547 11.2991 19.8434 11.7541 19.3339C12.1219 18.922 12.7541 18.8863 13.166 19.2541C13.578 19.622 13.6137 20.2541 13.2458 20.6661C12.6096 21.3786 11.8346 21.9537 10.9683 22.3563C10.1021 22.7589 9.16275 22.9804 8.20789 23.0074C7.25303 23.0344 6.30272 22.8662 5.41512 22.5131C4.52752 22.1601 3.72131 21.6296 3.04586 20.9541C2.3704 20.2786 1.8399 19.4724 1.48684 18.5848C1.13378 17.6972 0.965581 16.7469 0.992543 15.7921C1.01951 14.8372 1.24106 13.8979 1.64365 13.0316C2.04623 12.1654 2.62138 11.3904 3.33388 10.7541C3.74582 10.3863 4.37797 10.422 4.74584 10.8339Z" fill="black" style="fill:black;fill-opacity:1;"/>
</svg>
