<svg width="24" height="24" viewBox="0 0 24 24" fill="none" xmlns="http://www.w3.org/2000/svg">
<path fill-rule="evenodd" clip-rule="evenodd" d="M3.87868 1.87868C4.44129 1.31607 5.20435 1 6 1H15C15.2652 1 15.5196 1.10536 15.7071 1.29289L20.7071 6.29289C20.8946 6.48043 21 6.73478 21 7V20C21 20.7957 20.6839 21.5587 20.1213 22.1213C19.5587 22.6839 18.7957 23 18 23H14.5C13.9477 23 13.5 22.5523 13.5 22C13.5 21.4477 13.9477 21 14.5 21H18C18.2652 21 18.5196 20.8946 18.7071 20.7071C18.8946 20.5196 19 20.2652 19 20V9H16C15.2044 9 14.4413 8.68393 13.8787 8.12132C13.3161 7.55871 13 6.79565 13 6V3H6C5.73478 3 5.48043 3.10536 5.29289 3.29289C5.10536 3.48043 5 3.73478 5 4V8C5 8.55228 4.55228 9 4 9C3.44772 9 3 8.55228 3 8V4C3 3.20435 3.31607 2.44129 3.87868 1.87868ZM15 3.41421V6C15 6.26522 15.1054 6.51957 15.2929 6.70711C15.4804 6.89464 15.7348 7 16 7H18.5858L15 3.41421ZM5.46682 10.4259C5.92953 10.1564 6.45592 10.0157 6.99137 10.0183C7.52681 10.021 8.0518 10.1669 8.51182 10.4409L8.515 10.4428L11.5446 12.2625C11.5444 12.2624 11.5447 12.2626 11.5446 12.2625C12.0028 12.5376 12.3797 12.9303 12.6354 13.3995C12.8883 13.8637 13.0141 14.3864 13.0001 14.9146V18.1338C13.0061 18.6649 12.8711 19.1881 12.6086 19.6499C12.3471 20.1102 11.9685 20.4929 11.5114 20.7595L8.55048 22.564L8.53333 22.5742C8.13237 22.8077 7.68357 22.9445 7.22249 22.9752C7.15094 22.9914 7.07647 23 7 23C6.91536 23 6.83317 22.9895 6.75467 22.9697C6.30822 22.9295 5.8753 22.7897 5.48834 22.5592L5.48517 22.5573L2.45561 20.7375C1.99718 20.4625 1.62058 20.07 1.36477 19.6005C1.11182 19.1364 0.986059 18.6137 1.00008 18.0854V14.8663C0.994044 14.3352 1.1291 13.812 1.39152 13.3502C1.65303 12.8899 2.03164 12.5071 2.48882 12.2405L5.44968 10.4361L5.46682 10.4259ZM3.00008 15.781V18.1C3.00008 18.1109 2.9999 18.1217 2.99955 18.1325C2.99376 18.3106 3.03567 18.4871 3.12094 18.6435C3.20621 18.8 3.33174 18.9308 3.48455 19.0225L6 20.5335V17.5683L3.00008 15.781ZM8 17.5683V20.5573L10.4797 19.0461L10.5002 19.034C10.6543 18.945 10.7818 18.8166 10.8697 18.6619C10.9576 18.5072 11.0027 18.3319 11.0002 18.154L11 18.14L11.0001 15.781L8 17.5683ZM10.3184 13.8591L7.00001 15.836L3.67891 13.8574L6.4805 12.15C6.63299 12.0629 6.80579 12.0175 6.98152 12.0183C7.15947 12.0192 7.33395 12.0675 7.48696 12.1584C7.48742 12.1586 7.48788 12.1589 7.48834 12.1592L10.3184 13.8591Z" fill="black" style="fill:black;fill-opacity:1;"/>
</svg>
