<svg width="24" height="24" viewBox="0 0 24 24" fill="none" xmlns="http://www.w3.org/2000/svg">
<path fill-rule="evenodd" clip-rule="evenodd" d="M3.87868 1.87868C4.44129 1.31607 5.20435 1 6 1H15C15.2652 1 15.5196 1.10536 15.7071 1.29289L20.7071 6.29289C20.8946 6.48043 21 6.73478 21 7V20C21 20.7957 20.6839 21.5587 20.1213 22.1213C19.5587 22.6839 18.7957 23 18 23H6C5.20435 23 4.44129 22.6839 3.87868 22.1213C3.31607 21.5587 3 20.7957 3 20V4C3 3.20435 3.31607 2.44129 3.87868 1.87868ZM6 3C5.73478 3 5.48043 3.10536 5.29289 3.29289C5.10536 3.48043 5 3.73478 5 4V20C5 20.2652 5.10536 20.5196 5.29289 20.7071C5.48043 20.8946 5.73478 21 6 21H18C18.2652 21 18.5196 20.8946 18.7071 20.7071C18.8946 20.5196 19 20.2652 19 20V7.41421L14.5858 3H6ZM12.1183 10.0309C11.8707 9.99276 11.6174 10.0404 11.4005 10.1658C11.383 10.1759 11.3653 10.1854 11.3472 10.1945C11.226 10.255 11.0514 10.4333 10.8944 10.7472C10.6474 11.2412 10.0468 11.4415 9.55279 11.1945C9.05881 10.9475 8.85858 10.3468 9.10557 9.85282C9.34521 9.37355 9.7622 8.76223 10.4247 8.41988C11.0304 8.07723 11.7341 7.94822 12.4224 8.05412C13.1204 8.16149 13.7608 8.50393 14.2376 9.02478C14.2596 9.04883 14.2804 9.07395 14.3 9.10004C14.6658 9.58778 15 10.197 15 11C15 12.1845 14.1087 12.9457 13.5595 13.3164C13.2511 13.5245 12.9497 13.6784 12.7292 13.7794C12.6175 13.8306 12.5232 13.8698 12.4545 13.897C12.42 13.9107 12.3918 13.9214 12.3708 13.9292L12.3449 13.9387L12.3361 13.9419L12.3329 13.943L12.3315 13.9435L12.3309 13.9437C12.3306 13.9438 12.3304 13.9439 12 13L12.3304 13.9439C11.8091 14.1263 11.2386 13.8517 11.0561 13.3304C10.874 12.8101 11.1473 12.2408 11.6667 12.0572M11.6668 12.0572L11.6741 12.0545C11.6824 12.0514 11.6972 12.0458 11.7174 12.0378C11.7581 12.0217 11.82 11.9961 11.8958 11.9613C12.0503 11.8905 12.2489 11.788 12.4405 11.6587C12.8913 11.3544 13 11.1155 13 11C13 10.8124 12.9402 10.6303 12.732 10.3433C12.5664 10.1765 12.3514 10.0667 12.1183 10.0309M11.6668 12.0572L11.6679 12.0568L11.6683 12.0567L11.6687 12.0565L11.669 12.0564M11 17C11 16.4477 11.4477 16 12 16H12.01C12.5623 16 13.01 16.4477 13.01 17C13.01 17.5523 12.5623 18 12.01 18H12C11.4477 18 11 17.5523 11 17Z" fill="black" style="fill:black;fill-opacity:1;"/>
</svg>
