<svg width="24" height="24" viewBox="0 0 24 24" fill="none" xmlns="http://www.w3.org/2000/svg">
<path fill-rule="evenodd" clip-rule="evenodd" d="M12 3C7.05228 3 3 7.05228 3 12C3 12.5523 2.55228 13 2 13C1.44772 13 1 12.5523 1 12C1 5.94772 5.94772 1 12 1C13.7077 1 15.3919 1.3976 16.9193 2.1613C18.4468 2.92501 19.7754 4.03384 20.8 5.4C21.1314 5.84183 21.0418 6.46863 20.6 6.8C20.1582 7.13137 19.5314 7.04183 19.2 6.6C18.3617 5.48224 17.2746 4.575 16.0249 3.95016C14.7752 3.32531 13.3972 3 12 3ZM12.0008 6.99609C11.1228 6.99595 10.2603 7.22699 9.5 7.66597C9.02171 7.94211 8.41012 7.77823 8.13397 7.29994C7.85783 6.82165 8.02171 6.21006 8.5 5.93392C9.56446 5.31935 10.772 4.9959 12.0011 4.99609C13.2303 4.99629 14.4377 5.32013 15.5019 5.93504C16.5662 6.54995 17.4498 7.43425 18.0639 8.49901C18.6779 9.56377 19.0008 10.7714 19 12.0006L18 11.9999H19V12.0006V12.0015C19 12.4722 19 13.182 18.9797 14.024C18.9664 14.5762 18.508 15.013 17.9559 14.9997C17.4038 14.9863 16.967 14.528 16.9803 13.9759C17 13.1589 17 12.4693 17 11.9999V11.9993C17.0006 11.1213 16.7699 10.2587 16.3313 9.49818C15.8927 8.73763 15.2616 8.10599 14.5014 7.66677C13.7412 7.22755 12.8788 6.99623 12.0008 6.99609ZM6.66968 9.05591C7.19109 9.23799 7.46617 9.80828 7.28409 10.3297C7.09992 10.8571 7 11.4158 7 12C7 15.0803 6.4903 18.1914 5.94868 19.8162C5.77404 20.3402 5.20772 20.6233 4.68377 20.4487C4.15983 20.274 3.87667 19.7077 4.05132 19.1838C4.5097 17.8086 5 14.9197 5 12C5 11.1842 5.14008 10.4029 5.39591 9.67032C5.57799 9.14891 6.14828 8.87383 6.66968 9.05591ZM21.6013 9.01995C22.1426 8.91019 22.6703 9.25999 22.7801 9.80126C22.8301 10.0478 22.8609 10.4521 22.8822 10.879C22.9048 11.3325 22.9198 11.8893 22.9241 12.4849C22.9329 13.669 22.9002 15.048 22.7951 16.0995C22.7401 16.649 22.2501 17.05 21.7005 16.995C21.151 16.9401 20.7501 16.45 20.805 15.9005C20.8999 14.952 20.9327 13.654 20.9242 12.4996C20.92 11.9259 20.9056 11.3981 20.8847 10.9786C20.8624 10.5324 20.8355 10.2752 20.82 10.1987C20.7102 9.65747 21.06 9.12971 21.6013 9.01995ZM9.87867 9.87868C10.4413 9.31607 11.2043 9 12 9C12.5523 9 13 9.44772 13 10C13 10.5523 12.5523 11 12 11C11.7348 11 11.4804 11.1054 11.2929 11.2929C11.1053 11.4804 11 11.7348 11 12C11 13.0699 10.8962 14.599 10.7343 16.1068C10.6753 16.6559 10.1823 17.0532 9.63322 16.9943C9.08409 16.9353 8.68674 16.4424 8.74571 15.8932C8.9038 14.421 8.99999 12.9701 8.99999 12C8.99999 11.2043 9.31606 10.4413 9.87867 9.87868ZM14 12.1201C14.5523 12.1201 15 12.5678 15 13.1201V13.1317C15 14.3172 15 15.9438 14.872 17.5925C14.7448 19.2307 14.4859 20.9778 13.9285 22.3715C13.7234 22.8843 13.1414 23.1337 12.6286 22.9286C12.1158 22.7235 11.8664 22.1415 12.0715 21.6287C12.5141 20.5224 12.7552 19.0196 12.878 17.4377C12.9996 15.8718 13 14.3136 13 13.1201C13 12.5678 13.4477 12.1201 14 12.1201ZM1 16C1 15.4477 1.44772 15 2 15H2.01C2.56228 15 3.01 15.4477 3.01 16C3.01 16.5523 2.56228 17 2.01 17H2C1.44772 17 1 16.5523 1 16ZM17.8868 17.0047C18.4365 17.0581 18.8388 17.5471 18.7853 18.0968C18.7098 18.8735 18.3899 20.6199 18.2706 21.2161C18.1623 21.7577 17.6355 22.1089 17.0939 22.0006C16.5524 21.8923 16.2011 21.3654 16.3095 20.8239C16.4302 20.2201 16.7303 18.5665 16.7947 17.9032C16.8482 17.3535 17.3371 16.9512 17.8868 17.0047ZM9.39369 19.0152C9.93757 19.1112 10.3007 19.6299 10.2047 20.1738C10.0941 20.8007 9.89049 21.422 9.71462 21.9588C9.67555 22.0781 9.63784 22.1932 9.60283 22.3032C9.43537 22.8295 8.87298 23.1204 8.3467 22.9529C7.82041 22.7855 7.52952 22.2231 7.69698 21.6968C7.74305 21.552 7.78824 21.4135 7.83189 21.2796C8.00368 20.7531 8.15156 20.2997 8.23512 19.8262C8.3311 19.2823 8.84981 18.9192 9.39369 19.0152Z" fill="black" style="fill:black;fill-opacity:1;"/>
</svg>
