<svg width="24" height="24" viewBox="0 0 24 24" fill="none" xmlns="http://www.w3.org/2000/svg">
<path fill-rule="evenodd" clip-rule="evenodd" d="M17.5257 1.14935C17.8205 1.33156 18 1.65342 18 2V11.9799C18.0003 11.9938 18.0003 12.0077 18 12.0217V22C18 22.5523 17.5523 23 17 23C16.4477 23 16 22.5523 16 22V12.618L6.55279 7.89443C6.214 7.72504 6 7.37877 6 7C6 6.62123 6.214 6.27497 6.55279 6.10557L16.5528 1.10557C16.8628 0.95058 17.2309 0.967144 17.5257 1.14935ZM16 10.382V3.61803L9.23607 7L16 10.382Z" fill="black" style="fill:black;fill-opacity:1;"/>
</svg>
