<svg width="24" height="24" viewBox="0 0 24 24" fill="none" xmlns="http://www.w3.org/2000/svg">
<path fill-rule="evenodd" clip-rule="evenodd" d="M1.29289 1.29289C1.68342 0.902369 2.31658 0.902369 2.70711 1.29289L22.7071 21.2929C23.0976 21.6834 23.0976 22.3166 22.7071 22.7071C22.3166 23.0976 21.6834 23.0976 21.2929 22.7071L15.574 16.9882C14.0691 16.905 12.7996 16.397 11.6843 15.9508C11.6657 15.9433 11.6471 15.9359 11.6286 15.9285C10.3605 15.4212 9.28069 15 8 15C6.61272 15 5.74051 15.2308 5.24639 15.4285C5.15123 15.4665 5.06941 15.5036 5 15.5381V22C5 22.5523 4.55228 23 4 23C3.44772 23 3 22.5523 3 22V15.0002C3 15.0001 3 14.9999 3 14.9998V4.41421L1.29289 2.70711C0.902369 2.31658 0.902369 1.68342 1.29289 1.29289ZM5 6.41421V13.3968C5.7276 13.1727 6.70825 13 8 13C9.69345 13 11.0967 13.5615 12.3157 14.0492C12.3343 14.0567 12.3529 14.0641 12.3714 14.0715C12.5322 14.1358 12.6899 14.1988 12.8454 14.2596L5 6.41421ZM7 2C7 1.44772 7.44772 1 8 1C9.69345 1 11.0967 1.56148 12.3157 2.04923C12.3343 2.05668 12.3529 2.06411 12.3714 2.07152C13.6395 2.57876 14.7193 3 16 3C17.3873 3 18.2595 2.76917 18.7536 2.57152C19.0016 2.47234 19.1589 2.37972 19.2422 2.3242C19.2837 2.29655 19.3074 2.27769 19.3153 2.2712C19.601 2.00265 20.0186 1.92533 20.3827 2.07612C20.7564 2.2309 21 2.59554 21 3V14C21 14.5523 20.5523 15 20 15C19.4477 15 19 14.5523 19 14V4.6032C18.2724 4.82731 17.2918 5 16 5C14.3066 5 12.9033 4.43852 11.6843 3.95077C11.6657 3.94332 11.6471 3.93589 11.6286 3.92848C10.3605 3.42124 9.28069 3 8 3C7.44772 3 7 2.55228 7 2Z" fill="black" style="fill:black;fill-opacity:1;"/>
</svg>
