<svg width="24" height="24" viewBox="0 0 24 24" fill="none" xmlns="http://www.w3.org/2000/svg">
<path fill-rule="evenodd" clip-rule="evenodd" d="M1.29289 1.29289C1.68342 0.902369 2.31658 0.902369 2.70711 1.29289L22.7071 21.2929C23.0976 21.6834 23.0976 22.3166 22.7071 22.7071C22.3166 23.0976 21.6834 23.0976 21.2929 22.7071L17 18.4142V20C17 20.7957 16.6839 21.5587 16.1213 22.1213C15.5587 22.6839 14.7957 23 14 23H10C9.20435 23 8.44129 22.6839 7.87868 22.1213C7.31607 21.5587 7 20.7957 7 20V10C7 9.43968 6.78239 9.1966 6.29289 8.70711C6.28424 8.69846 6.27551 8.68974 6.26671 8.68094C5.81176 8.22637 5.16193 7.57709 5.02566 6.43987L1.29289 2.70711C0.902369 2.31658 0.902369 1.68342 1.29289 1.29289ZM9 10.4142V20C9 20.2652 9.10536 20.5196 9.29289 20.7071C9.48043 20.8946 9.73478 21 10 21H14C14.2652 21 14.5196 20.8946 14.7071 20.7071C14.8946 20.5196 15 20.2652 15 20V16.4142L9 10.4142ZM6 2C6 1.44772 6.44772 1 7 1H18C18.5523 1 19 1.44772 19 2V6C19 7.41529 18.2439 8.17075 17.7333 8.68094C17.7245 8.68973 17.7158 8.69846 17.7071 8.70711C17.2176 9.1966 17 9.43968 17 10V11C17 11.5523 16.5523 12 16 12C15.4477 12 15 11.5523 15 11V10C15 8.58471 15.7561 7.82925 16.2667 7.31906C16.2755 7.31026 16.2842 7.30154 16.2929 7.29289C16.4004 7.18536 16.4948 7.08972 16.5767 7H11C10.4477 7 10 6.55228 10 6C10 5.44772 10.4477 5 11 5H17V3H7C6.44772 3 6 2.55228 6 2Z" fill="black" style="fill:black;fill-opacity:1;"/>
</svg>
