<svg width="24" height="24" viewBox="0 0 24 24" fill="none" xmlns="http://www.w3.org/2000/svg">
<path fill-rule="evenodd" clip-rule="evenodd" d="M12 1C12.5523 1 13 1.44772 13 2V4C13 4.55228 12.5523 5 12 5C11.4477 5 11 4.55228 11 4V2C11 1.44772 11.4477 1 12 1ZM2.87868 2.87868C3.44129 2.31607 4.20435 2 5 2H8C8.55228 2 9 2.44772 9 3C9 3.55228 8.55228 4 8 4H5C4.73478 4 4.48043 4.10536 4.29289 4.29289C4.10536 4.48043 4 4.73478 4 5V19C4 19.5477 4.45228 20 5 20H8C8.55228 20 9 20.4477 9 21C9 21.5523 8.55228 22 8 22H5C3.34772 22 2 20.6523 2 19V5C2 4.20435 2.31607 3.44129 2.87868 2.87868ZM15 3C15 2.44772 15.4477 2 16 2H19C19.7957 2 20.5587 2.31607 21.1213 2.87868C21.6839 3.44129 22 4.20435 22 5V19C22 19.7957 21.6839 20.5587 21.1213 21.1213C20.5587 21.6839 19.7957 22 19 22H16C15.4477 22 15 21.5523 15 21C15 20.4477 15.4477 20 16 20H19C19.2652 20 19.5196 19.8946 19.7071 19.7071C19.8946 19.5196 20 19.2652 20 19V5C20 4.73478 19.8946 4.48043 19.7071 4.29289C19.5196 4.10536 19.2652 4 19 4H16C15.4477 4 15 3.55228 15 3ZM12 7C12.5523 7 13 7.44772 13 8V10C13 10.5523 12.5523 11 12 11C11.4477 11 11 10.5523 11 10V8C11 7.44772 11.4477 7 12 7ZM12 13C12.5523 13 13 13.4477 13 14V16C13 16.5523 12.5523 17 12 17C11.4477 17 11 16.5523 11 16V14C11 13.4477 11.4477 13 12 13ZM12 19C12.5523 19 13 19.4477 13 20V22C13 22.5523 12.5523 23 12 23C11.4477 23 11 22.5523 11 22V20C11 19.4477 11.4477 19 12 19Z" fill="black" style="fill:black;fill-opacity:1;"/>
</svg>
