<svg width="24" height="24" viewBox="0 0 24 24" fill="none" xmlns="http://www.w3.org/2000/svg">
<path fill-rule="evenodd" clip-rule="evenodd" d="M2.87868 2.87868C3.44129 2.31607 4.20435 2 5 2H19C19.7957 2 20.5587 2.31607 21.1213 2.87868C21.6839 3.44129 22 4.20435 22 5V8C22 8.55228 21.5523 9 21 9C20.4477 9 20 8.55228 20 8V5C20 4.73478 19.8946 4.48043 19.7071 4.29289C19.5196 4.10536 19.2652 4 19 4H5C4.73478 4 4.48043 4.10536 4.29289 4.29289C4.10536 4.48043 4 4.73478 4 5V8C4 8.55228 3.55228 9 3 9C2.44772 9 2 8.55228 2 8V5C2 4.20435 2.31607 3.44129 2.87868 2.87868ZM1 12C1 11.4477 1.44772 11 2 11H4C4.55228 11 5 11.4477 5 12C5 12.5523 4.55228 13 4 13H2C1.44772 13 1 12.5523 1 12ZM7 12C7 11.4477 7.44772 11 8 11H10C10.5523 11 11 11.4477 11 12C11 12.5523 10.5523 13 10 13H8C7.44772 13 7 12.5523 7 12ZM13 12C13 11.4477 13.4477 11 14 11H16C16.5523 11 17 11.4477 17 12C17 12.5523 16.5523 13 16 13H14C13.4477 13 13 12.5523 13 12ZM19 12C19 11.4477 19.4477 11 20 11H22C22.5523 11 23 11.4477 23 12C23 12.5523 22.5523 13 22 13H20C19.4477 13 19 12.5523 19 12ZM3 15C3.55228 15 4 15.4477 4 16V19C4 19.2652 4.10536 19.5196 4.29289 19.7071C4.48043 19.8946 4.73478 20 5 20H19C19.2652 20 19.5196 19.8946 19.7071 19.7071C19.8946 19.5196 20 19.2652 20 19V16C20 15.4477 20.4477 15 21 15C21.5523 15 22 15.4477 22 16V19C22 19.7957 21.6839 20.5587 21.1213 21.1213C20.5587 21.6839 19.7957 22 19 22H5C4.20435 22 3.44129 21.6839 2.87868 21.1213C2.31607 20.5587 2 19.7957 2 19V16C2 15.4477 2.44772 15 3 15Z" fill="black" style="fill:black;fill-opacity:1;"/>
</svg>
