<svg width="24" height="24" viewBox="0 0 24 24" fill="none" xmlns="http://www.w3.org/2000/svg">
<path fill-rule="evenodd" clip-rule="evenodd" d="M8.21964 1.07686C8.99556 0.92252 9.79983 1.00173 10.5307 1.30448C11.0963 1.53873 11.5982 1.89866 12 2.35425C12.4018 1.89866 12.9037 1.53873 13.4693 1.30448C14.2002 1.00173 15.0044 0.92252 15.7804 1.07686C16.5563 1.2312 17.269 1.61216 17.8284 2.17157C18.3878 2.73098 18.7688 3.44372 18.9231 4.21964C19.0775 4.99556 18.9983 5.79983 18.6955 6.53074C18.4613 7.09626 18.1013 7.59821 17.6458 8C18.1013 8.40179 18.4613 8.90374 18.6955 9.46927C18.9983 10.2002 19.0775 11.0044 18.9231 11.7804C18.7688 12.5563 18.3878 13.269 17.8284 13.8284C17.269 14.3878 16.5563 14.7688 15.7804 14.9231C15.0044 15.0775 14.2002 14.9983 13.4693 14.6955C13.3073 14.6285 13.1506 14.5511 13 14.4641L13 17.6904C13.1163 17.5976 13.2372 17.5086 13.3625 17.4233C14.815 16.4352 16.7898 16 19 16C19.5523 16 20 16.4477 20 17C20 18.9926 19.1402 20.5544 17.6375 21.5767C16.185 22.5648 14.2102 23 12 23C9.78978 23 7.81503 22.5648 6.36252 21.5767C4.85978 20.5544 4 18.9926 4 17C4 16.4477 4.44772 16 5 16C7.21022 16 9.18497 16.4352 10.6375 17.4233C10.7628 17.5086 10.8837 17.5976 11 17.6904V14.4641C10.8494 14.5511 10.6927 14.6285 10.5307 14.6955C9.79983 14.9983 8.99556 15.0775 8.21964 14.9231C7.44372 14.7688 6.73098 14.3878 6.17157 13.8284C5.61216 13.269 5.2312 12.5563 5.07686 11.7804C4.92252 11.0044 5.00173 10.2002 5.30448 9.46927C5.53873 8.90374 5.89866 8.40179 6.35425 8C5.89866 7.59821 5.53873 7.09626 5.30448 6.53074C5.00173 5.79983 4.92252 4.99556 5.07686 4.21964C5.2312 3.44372 5.61216 2.73098 6.17157 2.17157C6.73098 1.61216 7.44372 1.2312 8.21964 1.07686ZM9.17071 7H9C8.60444 7 8.21776 6.8827 7.88886 6.66294C7.55996 6.44318 7.30362 6.13082 7.15224 5.76537C7.00087 5.39992 6.96126 4.99778 7.03843 4.60982C7.1156 4.22186 7.30608 3.86549 7.58579 3.58579C7.86549 3.30608 8.22186 3.1156 8.60982 3.03843C8.99778 2.96126 9.39992 3.00087 9.76537 3.15224C10.1308 3.30362 10.4432 3.55996 10.6629 3.88886C10.8827 4.21776 11 4.60444 11 5V5.17071C10.1476 5.47199 9.47199 6.14759 9.17071 7ZM9.17071 9H9C8.60444 9 8.21776 9.1173 7.88886 9.33706C7.55996 9.55683 7.30362 9.86918 7.15224 10.2346C7.00087 10.6001 6.96126 11.0022 7.03843 11.3902C7.1156 11.7781 7.30608 12.1345 7.58579 12.4142C7.86549 12.6939 8.22186 12.8844 8.60982 12.9616C8.99778 13.0387 9.39992 12.9991 9.76537 12.8478C10.1308 12.6964 10.4432 12.44 10.6629 12.1111C10.8826 11.7824 10.9999 11.3959 11 11.0006C11 11.0004 11 11.0002 11 11V10.8293C10.1476 10.528 9.47199 9.85242 9.17071 9ZM13 10.8293C13.8524 10.528 14.528 9.85242 14.8293 9H15C15.3956 9 15.7822 9.1173 16.1111 9.33706C16.44 9.55683 16.6964 9.86918 16.8478 10.2346C16.9991 10.6001 17.0387 11.0022 16.9616 11.3902C16.8844 11.7781 16.6939 12.1345 16.4142 12.4142C16.1345 12.6939 15.7781 12.8844 15.3902 12.9616C15.0022 13.0387 14.6001 12.9991 14.2346 12.8478C13.8692 12.6964 13.5568 12.44 13.3371 12.1111C13.1173 11.7822 13 11.3956 13 11V10.8293ZM15 7C15.3956 7 15.7822 6.8827 16.1111 6.66294C16.44 6.44318 16.6964 6.13082 16.8478 5.76537C16.9991 5.39992 17.0387 4.99778 16.9616 4.60982C16.8844 4.22186 16.6939 3.86549 16.4142 3.58579C16.1345 3.30608 15.7781 3.1156 15.3902 3.03843C15.0022 2.96126 14.6001 3.00087 14.2346 3.15224C13.8692 3.30362 13.5568 3.55996 13.3371 3.88886C13.1173 4.21776 13 4.60444 13 5V5.17071C13.8524 5.47199 14.528 6.14759 14.8293 7H15ZM10.8727 20.954C10.6608 20.151 10.1911 19.5386 9.51252 19.0769C8.71263 18.5328 7.57337 18.1688 6.12735 18.046C6.33921 18.849 6.8089 19.4614 7.48748 19.9231C8.28737 20.4672 9.42663 20.8312 10.8727 20.954ZM13.1273 20.954C14.5734 20.8312 15.7126 20.4672 16.5125 19.9231C17.1911 19.4614 17.6608 18.849 17.8727 18.046C16.4266 18.1688 15.2874 18.5328 14.4875 19.0769C13.8089 19.5386 13.3392 20.151 13.1273 20.954ZM12 7C11.4477 7 11 7.44772 11 8C11 8.55229 11.4477 9 12 9C12.5523 9 13 8.55229 13 8C13 7.44772 12.5523 7 12 7Z" fill="black" style="fill:black;fill-opacity:1;"/>
</svg>
