<svg width="24" height="24" viewBox="0 0 24 24" fill="none" xmlns="http://www.w3.org/2000/svg">
<path fill-rule="evenodd" clip-rule="evenodd" d="M5.87868 3.87868C6.44129 3.31607 7.20435 3 8 3H11.93C12.4267 3.00008 12.9157 3.12347 13.3529 3.35909C13.7883 3.59373 14.1589 3.93236 14.4317 4.34479L15.2453 5.55001C15.3372 5.6897 15.4627 5.80412 15.6103 5.88274C15.758 5.96135 15.923 6.00169 16.0902 6.00005L16.1 5.99995L20 6C20.7957 6 21.5587 6.31607 22.1213 6.87868C22.6839 7.44129 23 8.20435 23 9V15C23 15.7957 22.6839 16.5587 22.1213 17.1213C21.5587 17.6839 20.7957 18 20 18H8C7.20435 18 6.44129 17.6839 5.87868 17.1213C5.31607 16.5587 5 15.7956 5 15V6C5 5.20435 5.31607 4.44129 5.87868 3.87868ZM8 5C7.73478 5 7.48043 5.10536 7.29289 5.29289C7.10536 5.48043 7 5.73478 7 6V15C7 15.2652 7.10536 15.5196 7.29289 15.7071C7.48043 15.8946 7.73478 16 8 16H20C20.2652 16 20.5196 15.8946 20.7071 15.7071C20.8946 15.5196 21 15.2652 21 15V9C21 8.73478 20.8946 8.48043 20.7071 8.29289C20.5196 8.10536 20.2652 8 20 8H16.1044C15.6045 8.004 15.1115 7.88302 14.6703 7.64802C14.2292 7.41316 13.8539 7.07187 13.5783 6.65519L12.7648 5.45004C12.6737 5.31177 12.5498 5.19824 12.4041 5.1197C12.2584 5.04118 12.0955 5.00005 11.93 5C11.9299 5 11.9301 5 11.93 5H8ZM2 7C2.55228 7 3 7.44772 3 8V19C3 19.2652 3.10536 19.5196 3.29289 19.7071C3.48043 19.8946 3.73478 20 4 20H18C18.5523 20 19 20.4477 19 21C19 21.5523 18.5523 22 18 22H4C3.20435 22 2.44129 21.6839 1.87868 21.1213C1.31607 20.5587 1 19.7957 1 19V8C1 7.44772 1.44772 7 2 7Z" fill="black" style="fill:black;fill-opacity:1;"/>
</svg>
