<svg width="24" height="24" viewBox="0 0 24 24" fill="none" xmlns="http://www.w3.org/2000/svg">
<path fill-rule="evenodd" clip-rule="evenodd" d="M8.38965 4.11736C8.24203 4.03874 8.07705 3.99841 7.9098 4.00005L7.9 4.00014L4 4.0001C3.73478 4.0001 3.48043 4.10545 3.29289 4.29299C3.10536 4.48053 3 4.73488 3 5.0001V18.0001C3 18.2653 3.10536 18.5197 3.29289 18.7072C3.48043 18.8947 3.73478 19.0001 4 19.0001H11C11.5523 19.0001 12 19.4478 12 20.0001C12 20.5524 11.5523 21.0001 11 21.0001H4C3.20435 21.0001 2.44129 20.684 1.87868 20.1214C1.31607 19.5588 1 18.7957 1 18.0001V5.0001C1 4.20445 1.31607 3.44138 1.87868 2.87878C2.44129 2.31617 3.20435 2.0001 4 2.0001H7.89559C8.39547 1.99609 8.88846 2.11707 9.32975 2.35207C9.77076 2.58694 10.1461 2.92822 10.4217 3.3449L11.2352 4.55006C11.3263 4.68832 11.4502 4.80186 11.5959 4.8804C11.7416 4.95891 11.9045 5.00004 12.07 5.0001C12.0699 5.0001 12.0701 5.0001 12.07 5.0001H20C20.7957 5.0001 21.5587 5.31617 22.1213 5.87878C22.6839 6.44138 23 7.20445 23 8.0001V9.5001C23 10.0524 22.5523 10.5001 22 10.5001C21.4477 10.5001 21 10.0524 21 9.5001V8.0001C21 7.73488 20.8946 7.48053 20.7071 7.29299C20.5196 7.10545 20.2652 7.0001 20 7.0001H12.07C11.5733 7.00001 11.0843 6.87663 10.6471 6.641C10.2117 6.40637 9.84114 6.06777 9.5683 5.65535L8.75475 4.45008C8.66277 4.3104 8.53728 4.19597 8.38965 4.11736ZM20.1159 14.1049C19.9415 14.0329 19.7545 13.996 19.5658 13.9966C19.377 13.9971 19.1903 14.035 19.0162 14.1081C18.8422 14.1812 18.6844 14.288 18.5519 14.4223L18.5471 14.4272L18.2071 14.7672C17.8244 15.1499 17.2068 15.1587 16.8133 14.7871L16.4533 14.4471C16.4462 14.4403 16.4391 14.4335 16.4321 14.4265C16.2993 14.2934 16.1415 14.1878 15.9678 14.1157C15.7942 14.0437 15.608 14.0066 15.4199 14.0066C15.2319 14.0066 15.0457 14.0437 14.872 14.1157C14.6984 14.1878 14.5406 14.2934 14.4078 14.4265L14.4033 14.431C13.8961 14.9327 13.7601 15.894 14.6048 16.7407C14.6055 16.7414 14.6063 16.7422 14.607 16.743L17.499 19.5947L20.3831 16.7427C21.2325 15.8835 21.1032 14.9375 20.5828 14.4172L20.5821 14.4165C20.4488 14.2829 20.2903 14.177 20.1159 14.1049ZM19.56 11.9966C20.0127 11.9953 20.4611 12.0836 20.8795 12.2565C21.2976 12.4292 21.6774 12.6829 21.9971 13.003C23.3761 14.382 23.347 16.5943 21.8 18.1543L21.7931 18.1612L18.2031 21.7111C17.8139 22.096 17.1875 22.0965 16.7978 21.7121L13.1928 18.1572C11.6409 16.6053 11.6242 14.3694 12.9944 13.0114C13.3125 12.6932 13.6901 12.4408 14.1057 12.2684C14.5223 12.0956 14.9689 12.0066 15.4199 12.0066C15.871 12.0066 16.3175 12.0956 16.7341 12.2684C17.0034 12.3801 17.2568 12.5254 17.4883 12.7004C17.7194 12.524 17.9726 12.3772 18.2419 12.2641C18.6593 12.0888 19.1073 11.9979 19.56 11.9966Z" fill="black" style="fill:black;fill-opacity:1;"/>
</svg>
