<svg width="24" height="24" viewBox="0 0 24 24" fill="none" xmlns="http://www.w3.org/2000/svg">
<path fill-rule="evenodd" clip-rule="evenodd" d="M1.87868 2.87868C2.44129 2.31607 3.20435 2 4 2H7.93C8.42666 2.00008 8.9157 2.12347 9.35291 2.35909C9.7883 2.59373 10.1589 2.93236 10.4317 3.34479L11.2453 4.55001C11.3372 4.6897 11.4627 4.80412 11.6103 4.88274C11.758 4.96135 11.923 5.00169 12.0902 5.00005L12.1 4.99995L20 5C20.7957 5 21.5587 5.31607 22.1213 5.87868C22.6839 6.44129 23 7.20435 23 8V17.997C23.0032 18.5547 22.8508 19.1023 22.5599 19.5783C22.2683 20.0553 21.8493 20.4415 21.35 20.693C20.8568 20.9416 20.2555 20.7432 20.007 20.25C19.7584 19.7568 19.9568 19.1555 20.45 18.907C20.6165 18.8231 20.7561 18.6944 20.8533 18.5354C20.9505 18.3763 21.0013 18.1933 21 18.007L21 18V8C21 7.73478 20.8946 7.48043 20.7071 7.29289C20.5196 7.10536 20.2652 7 20 7H12.1044C11.6045 7.004 11.1115 6.88302 10.6703 6.64802C10.2292 6.41316 9.85389 6.07187 9.57826 5.65519L8.76478 4.45004C8.67373 4.31177 8.54982 4.19824 8.40408 4.1197C8.2584 4.04118 8.0955 4.00005 7.93 4C7.92994 4 7.93005 4 7.93 4H4C3.73478 4 3.48043 4.10536 3.29289 4.29289C3.10536 4.48043 3 4.73478 3 5V18C3 18.2652 3.10536 18.5196 3.29289 18.7071C3.48043 18.8946 3.73478 19 4 19H9.1C9.65228 19 10.1 19.4477 10.1 20C10.1 20.5523 9.65228 21 9.1 21H4C3.20435 21 2.44129 20.6839 1.87868 20.1213C1.31607 19.5587 1 18.7957 1 18V5C1 4.20435 1.31607 3.44129 1.87868 2.87868ZM15 9C15.5523 9 16 9.44772 16 10V11C16 11.5523 15.5523 12 15 12C14.4477 12 14 11.5523 14 11V10C14 9.44772 14.4477 9 15 9ZM15 14C15.5523 14 16 14.4477 16 15V16.1707C17.1652 16.5825 18 17.6938 18 19C18 20.6569 16.6569 22 15 22C13.3431 22 12 20.6569 12 19C12 17.6938 12.8348 16.5825 14 16.1707V15C14 14.4477 14.4477 14 15 14ZM15 18C14.4477 18 14 18.4477 14 19C14 19.5523 14.4477 20 15 20C15.5523 20 16 19.5523 16 19C16 18.4477 15.5523 18 15 18Z" fill="black" style="fill:black;fill-opacity:1;"/>
</svg>
