<svg width="24" height="24" viewBox="0 0 24 24" fill="none" xmlns="http://www.w3.org/2000/svg">
<path fill-rule="evenodd" clip-rule="evenodd" d="M8.38965 4.11736C8.24203 4.03874 8.07705 3.99841 7.9098 4.00005L7.9 4.00014L4 4.0001C3.73478 4.0001 3.48043 4.10545 3.29289 4.29299C3.10536 4.48053 3 4.73488 3 5.0001V18.0001C3 18.2653 3.10536 18.5197 3.29289 18.7072C3.48043 18.8947 3.73478 19.0001 4 19.0001H10.3C10.8523 19.0001 11.3 19.4478 11.3 20.0001C11.3 20.5524 10.8523 21.0001 10.3 21.0001H4C3.20435 21.0001 2.44129 20.684 1.87868 20.1214C1.31607 19.5588 1 18.7957 1 18.0001V5.0001C1 4.20445 1.31607 3.44138 1.87868 2.87878C2.44129 2.31617 3.20435 2.0001 4 2.0001H7.89559C8.39547 1.99609 8.88846 2.11707 9.32975 2.35207C9.77076 2.58694 10.1461 2.92822 10.4217 3.3449L11.2352 4.55006C11.3263 4.68832 11.4502 4.80186 11.5959 4.8804C11.7416 4.95891 11.9045 5.00004 12.07 5.0001C12.0699 5.0001 12.0701 5.0001 12.07 5.0001H20C20.7957 5.0001 21.5587 5.31617 22.1213 5.87878C22.6839 6.44138 23 7.20445 23 8.0001V11.3001C23 11.8524 22.5523 12.3001 22 12.3001C21.4477 12.3001 21 11.8524 21 11.3001V8.0001C21 7.73488 20.8946 7.48053 20.7071 7.29299C20.5196 7.10545 20.2652 7.0001 20 7.0001H12.07C11.5733 7.00001 11.0843 6.87663 10.6471 6.641C10.2117 6.40637 9.84114 6.06777 9.5683 5.65535L8.75475 4.45008C8.66277 4.3104 8.53728 4.19597 8.38965 4.11736ZM19.7162 13.3514C20.2401 13.526 20.5233 14.0923 20.3487 14.6163L20.3095 14.7337C20.6292 14.9602 20.9142 15.2324 21.155 15.5408L21.3286 15.4714C21.8413 15.2663 22.4233 15.5157 22.6284 16.0285C22.8335 16.5413 22.5841 17.1233 22.0713 17.3284L21.9517 17.3763C21.9835 17.5795 22 17.7878 22 18C22 18.148 21.992 18.2942 21.9763 18.4381L22.0163 18.4514C22.5402 18.6261 22.8234 19.1924 22.6487 19.7163C22.4741 20.2403 21.9078 20.5234 21.3838 20.3488L21.2663 20.3096C21.0398 20.6293 20.7675 20.9143 20.459 21.1551L20.5284 21.3286C20.7335 21.8413 20.4841 22.4233 19.9713 22.6284C19.4586 22.8335 18.8766 22.5841 18.6715 22.0713L18.6236 21.9517C18.4204 21.9835 18.2121 22 18 22C17.852 22 17.7058 21.992 17.562 21.9763L17.5487 22.0163C17.374 22.5402 16.8077 22.8234 16.2837 22.6487C15.7598 22.4741 15.4766 21.9078 15.6513 21.3838L15.6905 21.2663C15.3707 21.0398 15.0857 20.7675 14.8449 20.459L14.6714 20.5284C14.1587 20.7335 13.5767 20.4841 13.3716 19.9713C13.1665 19.4586 13.4159 18.8766 13.9287 18.6715L14.0483 18.6236C14.0165 18.4204 14 18.2121 14 18C14 17.852 14.008 17.7059 14.0237 17.5621L13.9838 17.5488C13.4599 17.3741 13.1767 16.8078 13.3514 16.2839C13.526 15.7599 14.0923 15.4768 14.6163 15.6514L14.7337 15.6905C14.9602 15.3708 15.2324 15.0857 15.5409 14.8449L15.4715 14.6714C15.2664 14.1587 15.5159 13.5767 16.0286 13.3716C16.5414 13.1665 17.1234 13.4159 17.3285 13.9287L17.3764 14.0483C17.5796 14.0165 17.7879 14 18 14C18.148 14 18.2942 14.008 18.438 14.0237L18.4513 13.9838C18.6259 13.4599 19.1923 13.1767 19.7162 13.3514ZM16.969 16.2859C17.037 16.2742 17.1048 16.2552 17.1714 16.2285C17.2627 16.192 17.3457 16.1435 17.4192 16.0856C17.603 16.0299 17.798 16 18 16C18.7274 16 19.3642 16.3884 19.7142 16.969C19.7259 17.037 19.7448 17.1047 19.7715 17.1713C19.808 17.2626 19.8564 17.3455 19.9143 17.419C19.97 17.6029 20 17.7979 20 18C20 18.7274 19.6117 19.3641 19.031 19.7141C18.963 19.7258 18.8952 19.7448 18.8286 19.7715C18.7373 19.808 18.6543 19.8565 18.5808 19.9144C18.397 19.9701 18.202 20 18 20C17.2726 20 16.6359 19.6117 16.2859 19.031C16.2742 18.963 16.2552 18.8952 16.2285 18.8286C16.192 18.7373 16.1435 18.6543 16.0856 18.5808C16.0299 18.397 16 18.202 16 18C16 17.2726 16.3883 16.6359 16.969 16.2859Z" fill="black" style="fill:black;fill-opacity:1;"/>
</svg>
