<svg width="24" height="24" viewBox="0 0 24 24" fill="none" xmlns="http://www.w3.org/2000/svg">
<path fill-rule="evenodd" clip-rule="evenodd" d="M8.38965 4.11727C8.24203 4.03865 8.07705 3.99832 7.9098 3.99996L7.9 4.00005L4 4C3.73478 4 3.48043 4.10536 3.29289 4.2929C3.10536 4.48043 3 4.73479 3 5V18C3 18.2652 3.10536 18.5196 3.29289 18.7071C3.48043 18.8946 3.73478 19 4 19H18.4567C18.6796 19.0015 18.8966 18.9286 19.0732 18.7927C19.2498 18.6568 19.376 18.4658 19.4317 18.25L20.9718 12.25C21.0099 12.1021 21.0137 11.9474 20.9828 11.7978C20.952 11.6482 20.8872 11.5076 20.7935 11.3869C20.6999 11.2662 20.5798 11.1686 20.4426 11.1015C20.3053 11.0345 20.1545 10.9997 20.0018 11L20 11H9.25357C9.07568 11.0058 8.90251 11.059 8.75197 11.1542C8.59872 11.2511 8.4747 11.3878 8.39316 11.5497L8.38827 11.5595L6.88822 14.4594C6.63449 14.95 6.03113 15.142 5.54058 14.8882C5.05003 14.6345 4.85805 14.0311 5.11178 13.5406L6.60953 10.6449C6.85417 10.1615 7.2252 9.75327 7.68325 9.46369C8.14299 9.17306 8.67308 9.01287 9.21684 9.00027L9.24 9H19V8C19 7.73479 18.8946 7.48043 18.7071 7.2929C18.5196 7.10536 18.2652 7 18 7H12.07C11.5733 6.99992 11.0843 6.87653 10.6471 6.64091C10.2117 6.40628 9.84114 6.06767 9.5683 5.65526L8.75475 4.44999C8.66277 4.31031 8.53728 4.19588 8.38965 4.11727ZM20 10H21V9.17034C21.1091 9.20877 21.2162 9.25358 21.3207 9.30463C21.7325 9.50585 22.0926 9.79874 22.3736 10.1608C22.6546 10.5229 22.8489 10.9445 22.9415 11.3933C23.0342 11.8419 23.0228 12.3058 22.9084 12.7493L21.3683 18.75C21.2011 19.3973 20.8226 19.9703 20.2926 20.3779C19.7637 20.7848 19.1142 21.0037 18.447 21H18.45V20L18.4433 21C18.4445 21 18.4457 21 18.447 21H4C3.20435 21 2.44129 20.6839 1.87868 20.1213C1.31607 19.5587 1 18.7957 1 18V5C1 4.20436 1.31607 3.44129 1.87868 2.87868C2.44129 2.31607 3.20435 2 4 2H7.89559C7.89379 2.00002 7.89199 2.00004 7.8902 2.00005L7.9 3V2H7.89559C8.39547 1.996 8.88846 2.11698 9.32975 2.35198C9.77076 2.58684 10.1461 2.92812 10.4217 3.3448L11.2352 4.54997C11.3263 4.68823 11.4502 4.80176 11.5959 4.88031C11.7416 4.95882 11.9045 4.99995 12.07 5C12.0699 5 12.0701 5 12.07 5H18C18.7957 5 19.5587 5.31608 20.1213 5.87868C20.6839 6.44129 21 7.20435 21 8V9.17034C20.6793 9.05739 20.3409 8.99951 19.9991 9" fill="black" style="fill:black;fill-opacity:1;"/>
</svg>
