<svg width="24" height="24" viewBox="0 0 24 24" fill="none" xmlns="http://www.w3.org/2000/svg">
<path fill-rule="evenodd" clip-rule="evenodd" d="M4.97382 4.52039C4.34812 5.49464 4.01317 6.803 3.99985 8.01103L3.99983 8.012C3.98673 9.10393 4.19943 9.85942 4.44472 10.6593C4.45917 10.7065 4.47382 10.754 4.4886 10.8019C4.60243 11.1709 4.72371 11.5641 4.81957 12H7.2781C7.47945 11.1611 7.76138 10.3701 8.02486 9.63087C8.0359 9.59989 8.04691 9.56901 8.05788 9.53821C8.56584 8.11212 8.99991 6.85582 8.99991 5.5C8.99991 4.74766 8.85646 4.07203 8.5901 3.62101C8.35756 3.22724 8.0414 3 7.49991 3C6.41892 3 5.58512 3.56857 4.97382 4.52039ZM7.00199 14H4.99991V16C4.99991 16.2652 5.10526 16.5196 5.2928 16.7071C5.48034 16.8946 5.73469 17 5.99991 17C6.26512 17 6.51948 16.8946 6.70701 16.7071C6.89455 16.5196 6.99991 16.2652 6.99991 16V14.18C6.99991 14.1198 7.00061 14.0598 7.00199 14ZM3.29099 3.43961C4.1697 2.07143 5.57089 1 7.49991 1C8.82841 1 9.76226 1.67276 10.3122 2.60399C10.8284 3.47797 10.9999 4.55234 10.9999 5.5C10.9999 7.2393 10.4435 8.80118 9.95446 10.1741L9.94193 10.2093C9.43139 11.6426 8.99991 12.8718 8.99991 14.18V16C8.99991 16.7956 8.68384 17.5587 8.12123 18.1213C7.55862 18.6839 6.79556 19 5.99991 19C5.20426 19 4.4412 18.6839 3.87859 18.1213C3.31598 17.5587 2.99991 16.7956 2.99991 16V13.62C2.99991 12.767 2.80773 12.1414 2.56291 11.3444C2.55289 11.3118 2.54278 11.2789 2.5326 11.2457C2.27042 10.3907 1.98315 9.39629 1.99997 7.98849C2.01673 6.47664 2.42679 4.78521 3.29099 3.43961ZM13.6877 6.60399C14.2376 5.67276 15.1715 5 16.5 5C18.429 5 19.8302 6.07143 20.7089 7.43961C21.5732 8.78536 21.9833 10.477 21.9999 11.989C22.0167 13.3965 21.7295 14.3908 21.4673 15.2457C21.4571 15.2789 21.447 15.3118 21.437 15.3444C21.1922 16.1414 21 16.767 21 17.62V20C21 20.7957 20.6839 21.5587 20.1213 22.1213C19.5587 22.6839 18.7956 23 18 23C17.2043 23 16.4413 22.6839 15.8787 22.1213C15.3161 21.5587 15 20.7957 15 20V18.18C15 16.8718 14.5685 15.6426 14.058 14.2093L14.0454 14.1741C13.5564 12.8012 13 11.2393 13 9.5C13 8.55234 13.1715 7.47797 13.6877 6.60399ZM15.4098 7.62101C15.1434 8.07203 15 8.74766 15 9.5C15 10.8558 15.4341 12.1121 15.942 13.5382C15.953 13.569 15.964 13.5999 15.975 13.6309C16.2385 14.3701 16.5205 15.1611 16.7218 16H19.1803C19.2762 15.5641 19.3975 15.1709 19.5113 14.8019C19.5261 14.754 19.5407 14.7065 19.5552 14.6593C19.8005 13.8594 20.0132 13.1039 20.0001 12.012L20.0001 12.011C19.9867 10.803 19.6518 9.49464 19.0261 8.52039C18.4148 7.56857 17.581 7 16.5 7C15.9585 7 15.6423 7.22724 15.4098 7.62101ZM19 18H16.9979C16.9993 18.0598 17 18.1198 17 18.18V20C17 20.2652 17.1054 20.5196 17.2929 20.7071C17.4804 20.8946 17.7348 21 18 21C18.2652 21 18.5196 20.8946 18.7071 20.7071C18.8946 20.5196 19 20.2652 19 20V18Z" fill="black" style="fill:black;fill-opacity:1;"/>
</svg>
