<svg width="24" height="24" viewBox="0 0 24 24" fill="none" xmlns="http://www.w3.org/2000/svg">
<path fill-rule="evenodd" clip-rule="evenodd" d="M5 4C4.44772 4 4 4.44772 4 5V15C4 15.5523 4.44772 16 5 16H19C19.5523 16 20 15.5523 20 15V5C20 4.44771 19.5523 4 19 4H5ZM2 5C2 3.34315 3.34315 2 5 2H19C20.6569 2 22 3.34315 22 5V15C22 16.6569 20.6569 18 19 18H5C3.34315 18 2 16.6569 2 15V5ZM3 21C3 20.4477 3.44772 20 4 20H5C5.55228 20 6 20.4477 6 21C6 21.5523 5.55228 22 5 22H4C3.44772 22 3 21.5523 3 21ZM8 21C8 20.4477 8.44772 20 9 20H10C10.5523 20 11 20.4477 11 21C11 21.5523 10.5523 22 10 22H9C8.44772 22 8 21.5523 8 21ZM13 21C13 20.4477 13.4477 20 14 20H15C15.5523 20 16 20.4477 16 21C16 21.5523 15.5523 22 15 22H14C13.4477 22 13 21.5523 13 21ZM18 21C18 20.4477 18.4477 20 19 20H20C20.5523 20 21 20.4477 21 21C21 21.5523 20.5523 22 20 22H19C18.4477 22 18 21.5523 18 21Z" fill="black" style="fill:black;fill-opacity:1;"/>
</svg>
