<svg width="24" height="24" viewBox="0 0 24 24" fill="none" xmlns="http://www.w3.org/2000/svg">
<path fill-rule="evenodd" clip-rule="evenodd" d="M2 2C2.55228 2 3 2.44772 3 3V21C3 21.5523 2.55228 22 2 22C1.44772 22 1 21.5523 1 21V3C1 2.44772 1.44772 2 2 2ZM8 4C7.44772 4 7 4.44772 7 5V19C7 19.5523 7.44771 20 8 20H16C16.5523 20 17 19.5523 17 19V5C17 4.44772 16.5523 4 16 4H8ZM5 5C5 3.34315 6.34315 2 8 2H16C17.6569 2 19 3.34315 19 5V19C19 20.6569 17.6569 22 16 22H8C6.34315 22 5 20.6569 5 19V5ZM22 2C22.5523 2 23 2.44772 23 3V21C23 21.5523 22.5523 22 22 22C21.4477 22 21 21.5523 21 21V3C21 2.44772 21.4477 2 22 2Z" fill="black" style="fill:black;fill-opacity:1;"/>
</svg>
