<svg width="24" height="24" viewBox="0 0 24 24" fill="none" xmlns="http://www.w3.org/2000/svg">
<path fill-rule="evenodd" clip-rule="evenodd" d="M5 4C4.44772 4 4 4.44772 4 5V19C4 19.5523 4.44771 20 5 20H19C19.5523 20 20 19.5523 20 19V5C20 4.44771 19.5523 4 19 4H5ZM2 5C2 3.34315 3.34315 2 5 2H19C20.6569 2 22 3.34315 22 5V19C22 20.6569 20.6569 22 19 22H5C3.34315 22 2 20.6569 2 19V5ZM8 8C8 7.44772 8.44772 7 9 7H16C16.5523 7 17 7.44772 17 8C17 8.55228 16.5523 9 16 9H9C8.44772 9 8 8.55228 8 8ZM7 12C7 11.4477 7.44772 11 8 11H14C14.5523 11 15 11.4477 15 12C15 12.5523 14.5523 13 14 13H8C7.44772 13 7 12.5523 7 12ZM10 16C10 15.4477 10.4477 15 11 15H16C16.5523 15 17 15.4477 17 16C17 16.5523 16.5523 17 16 17H11C10.4477 17 10 16.5523 10 16Z" fill="black" style="fill:black;fill-opacity:1;"/>
</svg>
