<svg width="24" height="24" viewBox="0 0 24 24" fill="none" xmlns="http://www.w3.org/2000/svg">
<path fill-rule="evenodd" clip-rule="evenodd" d="M9.46944 5.01208C8.80934 4.27863 8.12408 3.98923 7.51742 3.9998L7.5 3.99996C7.10218 3.99996 6.72064 4.15799 6.43934 4.4393C6.15804 4.7206 6 5.10213 6 5.49996C6 5.89778 6.15804 6.27931 6.43934 6.56062C6.72064 6.84192 7.10218 6.99996 7.5 6.99996C7.50341 6.99996 7.50681 6.99997 7.51021 7.00001H10.6419C10.3251 6.18854 9.92147 5.51434 9.46944 5.01208ZM11 9.00001V11H4V9.00001H11ZM6 13H11V20H7C6.73478 20 6.48043 19.8947 6.29289 19.7071C6.10536 19.5196 6 19.2652 6 19V13ZM7 22C6.20435 22 5.44129 21.6839 4.87868 21.1213C4.31607 20.5587 4 19.7957 4 19V13C2.89543 13 2 12.1046 2 11V9.00001C2 7.89544 2.89543 7.00001 4 7.00001H4.33774C4.11744 6.53557 4 6.02382 4 5.49996C4 4.5717 4.36875 3.68146 5.02513 3.02508C5.67943 2.37078 6.56612 2.00229 7.4912 1.99997C8.81053 1.97987 10.0128 2.62608 10.956 3.67415C11.3497 4.11155 11.6987 4.61778 12 5.17654C12.3013 4.61778 12.6503 4.11155 13.044 3.67415C13.9872 2.62608 15.1895 1.97987 16.5088 1.99997C17.4339 2.00229 18.3206 2.37078 18.9749 3.02508C19.6312 3.68146 20 4.5717 20 5.49996C20 6.02382 19.8826 6.53557 19.6623 7.00001H20C21.1046 7.00001 22 7.89544 22 9.00001V11C22 12.1046 21.1046 13 20 13V19C20 19.7957 19.6839 20.5587 19.1213 21.1213C18.5587 21.6839 17.7957 22 17 22H7ZM18 13V19C18 19.2652 17.8946 19.5196 17.7071 19.7071C17.5196 19.8947 17.2652 20 17 20H13V13H18ZM20 11V9.00001H13V11H20ZM16.4898 7.00001C16.4932 6.99997 16.4966 6.99996 16.5 6.99996C16.8978 6.99996 17.2794 6.84192 17.5607 6.56062C17.842 6.27931 18 5.89778 18 5.49996C18 5.10213 17.842 4.7206 17.5607 4.4393C17.2794 4.15799 16.8978 3.99996 16.5 3.99996L16.4826 3.9998C15.8759 3.98923 15.1907 4.27863 14.5306 5.01208C14.0785 5.51434 13.6749 6.18854 13.3581 7.00001H16.4898Z" fill="black" style="fill:black;fill-opacity:1;"/>
</svg>
