<svg width="24" height="24" viewBox="0 0 24 24" fill="none" xmlns="http://www.w3.org/2000/svg">
<path fill-rule="evenodd" clip-rule="evenodd" d="M5.00004 1V2C5.00004 1 5.00077 1 5.00151 1L5.00301 1L5.00608 1.00002L5.01249 1.00007L5.0264 1.00032C5.03616 1.00055 5.04689 1.00091 5.05858 1.00146C5.08197 1.00256 5.1092 1.00438 5.14025 1.0073C5.20239 1.01312 5.27961 1.02328 5.37183 1.04057C5.55642 1.07518 5.79967 1.13811 6.10116 1.25117C6.6348 1.45129 7.34888 1.80763 8.24378 2.44039C10.728 2.01987 13.2721 2.01987 15.7563 2.44039C16.6512 1.80763 17.3653 1.45129 17.8989 1.25117C18.2004 1.13811 18.4437 1.07518 18.6283 1.04057C18.7205 1.02328 18.7977 1.01312 18.8598 1.0073C18.8909 1.00438 18.9181 1.00256 18.9415 1.00146C18.9532 1.00091 18.9639 1.00055 18.9737 1.00032L18.9876 1.00007L18.994 1.00002L18.9971 1L18.9986 1C18.9993 1 19 1 19 2V1C19.4612 1 19.8626 1.31536 19.9717 1.76343C20.2541 2.92363 20.2856 4.12871 20.0659 5.29889C20.7524 6.41768 21.0777 7.71579 21 9.03182C20.9847 12.5556 18.4304 14.7234 15.6188 15.3269C15.9599 16.1846 16.0943 17.1189 16 18.0527V22C16 22.5523 15.5523 23 15 23C14.4478 23 14 22.5523 14 22V18C14 17.9631 14.0021 17.9263 14.0061 17.8896C14.1163 16.8979 13.8319 15.9026 13.2145 15.1188C12.9775 14.8179 12.9331 14.408 13.1004 14.0634C13.2676 13.7188 13.617 13.5 14 13.5C16.6262 13.5 19 11.7847 19 9C19 8.97869 19.0007 8.95739 19.0021 8.93613C19.0674 7.91542 18.7821 6.91375 18.1868 6.08199C18.0174 5.84521 17.9595 5.54634 18.0284 5.26343C18.1853 4.61908 18.2406 3.95659 18.1941 3.29947C17.8002 3.48942 17.2688 3.79843 16.6 4.3C16.3753 4.46857 16.09 4.53481 15.814 4.48253C13.2969 4.00582 10.7032 4.00582 8.18612 4.48253C7.91009 4.53481 7.62479 4.46857 7.40004 4.3C6.72378 3.79281 6.18794 3.48252 5.79274 3.29313C5.74201 3.94693 5.80031 4.60611 5.96765 5.24758C6.04266 5.53509 5.98592 5.84106 5.81283 6.08256C5.21946 6.91042 4.93147 7.9184 4.99791 8.93477C4.99933 8.95649 5.00004 8.97824 5.00004 9C5.00004 11.7847 7.37386 13.5 10 13.5C10.384 13.5 10.734 13.7198 10.9008 14.0657C11.0676 14.4115 11.0216 14.8223 10.7825 15.1227C10.4732 15.5113 10.2453 15.9528 10.1122 16.4226C9.97808 16.8958 9.93809 17.3951 9.99372 17.8878C9.99793 17.9251 10 17.9625 10 18V22C10 22.5523 9.55232 23 9.00004 23C8.44775 23 8.00004 22.5523 8.00004 22V19.4013C7.33199 19.5617 6.72095 19.5974 6.15422 19.5227C5.20465 19.3975 4.49125 18.9772 3.93357 18.5305C3.6602 18.3115 3.41718 18.0803 3.20881 17.8784C3.17388 17.8446 3.14023 17.8119 3.10766 17.7802C2.93557 17.613 2.79328 17.4747 2.64932 17.3503C2.30843 17.0556 2.13462 17 2 17C1.44772 17 1 16.5523 1 16C1 15.4477 1.44772 15 2 15C2.86538 15 3.50283 15.4444 3.95725 15.8372C4.14952 16.0034 4.34063 16.1893 4.51138 16.3554C4.54173 16.385 4.57144 16.4139 4.60039 16.4419C4.80332 16.6385 4.9892 16.8135 5.18397 16.9695C5.56254 17.2728 5.94228 17.4775 6.41553 17.5398C6.79013 17.5892 7.29049 17.558 7.97077 17.3301C7.98133 16.8402 8.05357 16.3515 8.18791 15.8774C8.24104 15.6899 8.30375 15.5058 8.37558 15.3257C5.56637 14.7205 3.01569 12.5535 3.00011 9.03246C2.92113 7.72111 3.24757 6.42084 3.92957 5.30609C3.69359 4.12833 3.72788 2.915 4.03242 1.74758C4.14729 1.30725 4.54497 1 5.00004 1Z" fill="black" style="fill:black;fill-opacity:1;"/>
</svg>
