<svg width="24" height="24" viewBox="0 0 24 24" fill="none" xmlns="http://www.w3.org/2000/svg">
<path fill-rule="evenodd" clip-rule="evenodd" d="M10.7553 4.27016C11.1461 4.09197 11.5706 3.99976 12 3.99976C12.4294 3.99976 12.8538 4.09194 13.2446 4.27007L21.8032 8.16846C22.1569 8.3198 22.4596 8.57 22.6748 8.88921C22.8935 9.21369 23.0123 9.59521 23.0163 9.98651C23.0173 10.0793 23.0118 10.1716 23 10.263V16C23 16.5523 22.5523 17 22 17C21.4477 17 21 16.5523 21 16V12.2109L19 13.1184V16C19 17.3662 17.939 18.3912 16.6899 19.0157C15.3939 19.6637 13.7065 20 12 20C10.2935 20 8.60606 19.6637 7.31015 19.0157C6.06101 18.3912 5 17.3662 5 16V13.1056L2.1908 11.8246C1.83823 11.6683 1.53829 11.4134 1.3272 11.0905C1.1145 10.7651 1.00122 10.3848 1.00122 9.99611C1.00122 9.6074 1.1145 9.2271 1.3272 8.90174C1.53837 8.57872 1.83845 8.32374 2.1912 8.16749L10.7553 4.27016C10.7554 4.27011 10.7552 4.2702 10.7553 4.27016ZM7 14.0176V16C7 16.2251 7.20327 16.7262 8.20457 17.2269C9.15909 17.7042 10.5239 18 12 18C13.4761 18 14.8409 17.7042 15.7954 17.2269C16.7967 16.7262 17 16.2251 17 16V14.026L13.245 15.7299C13.2448 15.7301 13.2453 15.7298 13.245 15.7299C12.8544 15.908 12.4293 16.0005 12 16.0005C11.5705 16.0005 11.146 15.9082 10.7551 15.73C10.7551 15.73 10.7552 15.73 10.7551 15.73L7 14.0176ZM21 10.0002V10.0146L12.415 13.9103C12.2848 13.9697 12.1432 14.0005 12 14.0005C11.8569 14.0005 11.7153 13.9697 11.585 13.9103L3.01495 10.0022L3.00122 9.99611L3.01425 9.9903L11.5842 6.0903C11.7145 6.03087 11.8568 5.99976 12 5.99976C12.1432 5.99976 12.2848 6.03051 12.415 6.08993L20.9865 9.99416C20.991 9.99619 20.9955 9.9982 21 10.0002Z" fill="black" style="fill:black;fill-opacity:1;"/>
</svg>
