<svg width="24" height="24" viewBox="0 0 24 24" fill="none" xmlns="http://www.w3.org/2000/svg">
<path fill-rule="evenodd" clip-rule="evenodd" d="M5 4C4.44772 4 4 4.44772 4 5V8H8V4H5ZM5 2C3.34315 2 2 3.34315 2 5V19C2 20.6569 3.34315 22 5 22H19C20.6569 22 22 20.6569 22 19V5C22 3.34315 20.6569 2 19 2H5ZM10 4V8H14V4H10ZM16 4V8H20V5C20 4.44771 19.5523 4 19 4H16ZM20 10H16V14H20V10ZM20 16H16V20H19C19.5523 20 20 19.5523 20 19V16ZM14 20V16H10V20H14ZM8 20V16H4V19C4 19.5523 4.44771 20 5 20H8ZM4 14H8V10H4V14ZM10 10V14H14V10H10Z" fill="black" style="fill:black;fill-opacity:1;"/>
</svg>
