<svg width="24" height="24" viewBox="0 0 24 24" fill="none" xmlns="http://www.w3.org/2000/svg">
<path fill-rule="evenodd" clip-rule="evenodd" d="M12 1.5C12.5523 1.5 13 1.94772 13 2.5V5C13 5.55228 12.5523 6 12 6C11.4477 6 11 5.55228 11 5V2.5C11 1.94772 11.4477 1.5 12 1.5ZM4.49284 5.49284C4.88337 5.10232 5.51653 5.10232 5.90706 5.49284L7.30706 6.89284C7.69758 7.28337 7.69758 7.91653 7.30706 8.30706C6.91653 8.69758 6.28337 8.69758 5.89284 8.30706L4.49284 6.90706C4.10232 6.51653 4.10232 5.88337 4.49284 5.49284ZM19.507 5.49284C19.8975 5.88337 19.8975 6.51653 19.507 6.90706L18.107 8.30706C17.7165 8.69758 17.0833 8.69758 16.6928 8.30706C16.3023 7.91653 16.3023 7.28337 16.6928 6.89284L18.0928 5.49284C18.4833 5.10232 19.1165 5.10232 19.507 5.49284ZM8.46447 9.46447C9.40215 8.52678 10.6739 8 12 8C13.3261 8 14.5979 8.52678 15.5355 9.46447C16.4732 10.4021 17 11.6739 17 13C17 13.5523 16.5523 14 16 14C15.4477 14 15 13.5523 15 13C15 12.2044 14.6839 11.4413 14.1213 10.8787C13.5587 10.3161 12.7956 10 12 10C11.2044 10 10.4413 10.3161 9.87868 10.8787C9.31607 11.4413 9 12.2044 9 13C9 13.5523 8.55228 14 8 14C7.44772 14 7 13.5523 7 13C7 11.6739 7.52678 10.4021 8.46447 9.46447ZM1 13C1 12.4477 1.44772 12 2 12H4C4.55228 12 5 12.4477 5 13C5 13.5523 4.55228 14 4 14H2C1.44772 14 1 13.5523 1 13ZM19 13C19 12.4477 19.4477 12 20 12H22C22.5523 12 23 12.4477 23 13C23 13.5523 22.5523 14 22 14H20C19.4477 14 19 13.5523 19 13ZM1 17C1 16.4477 1.44772 16 2 16H22C22.5523 16 23 16.4477 23 17C23 17.5523 22.5523 18 22 18H2C1.44772 18 1 17.5523 1 17ZM1 21C1 20.4477 1.44772 20 2 20H22C22.5523 20 23 20.4477 23 21C23 21.5523 22.5523 22 22 22H2C1.44772 22 1 21.5523 1 21Z" fill="black" style="fill:black;fill-opacity:1;"/>
</svg>
