<svg width="24" height="24" viewBox="0 0 24 24" fill="none" xmlns="http://www.w3.org/2000/svg">
<path fill-rule="evenodd" clip-rule="evenodd" d="M4 5C4.55228 5 5 5.44772 5 6V11H11V6C11 5.44772 11.4477 5 12 5C12.5523 5 13 5.44772 13 6V18C13 18.5523 12.5523 19 12 19C11.4477 19 11 18.5523 11 18V13H5V18C5 18.5523 4.55228 19 4 19C3.44772 19 3 18.5523 3 18V6C3 5.44772 3.44772 5 4 5ZM16 10C16 9.44772 16.4477 9 17 9H21C21.5523 9 22 9.44772 22 10C22 10.5523 21.5523 11 21 11H18V12H18.3C20.2754 12 22 13.4739 22 15.5C22 17.5261 20.2754 19 18.3 19C17.6458 19 17.0925 18.8643 16.5528 18.5944C16.0588 18.3474 15.8586 17.7468 16.1056 17.2528C16.3526 16.7588 16.9532 16.5586 17.4472 16.8056C17.7075 16.9357 17.9542 17 18.3 17C19.3246 17 20 16.2739 20 15.5C20 14.7261 19.3246 14 18.3 14H17C16.4477 14 16 13.5523 16 13V10Z" fill="black" style="fill:black;fill-opacity:1;"/>
</svg>
