<svg width="24" height="24" viewBox="0 0 24 24" fill="none" xmlns="http://www.w3.org/2000/svg">
<path fill-rule="evenodd" clip-rule="evenodd" d="M11.4445 1.02235C14.1663 0.884716 16.8423 1.76236 18.9539 3.4852C19.4013 3.84979 19.6632 4.40357 19.6145 4.98478C19.5633 5.59511 19.1743 6.12736 18.5607 6.36337C18.0452 6.56163 17.4666 6.30448 17.2684 5.789C17.1381 5.4503 17.2045 5.08435 17.4115 4.81695C15.7301 3.5516 13.6546 2.91315 11.5455 3.01979C9.31857 3.1324 7.21273 4.06766 5.63605 5.64435C4.05936 7.22103 3.1241 9.32687 3.01149 11.5538C2.90485 13.6629 3.5433 15.7384 4.80864 17.4198C5.08065 17.2092 5.45418 17.1447 5.79619 17.2828C6.30829 17.4896 6.55578 18.0724 6.34897 18.5845C6.10773 19.1818 5.58481 19.5712 4.9732 19.6227C4.38876 19.672 3.83844 19.406 3.47661 18.9618C1.75396 16.8503 0.876424 14.1744 1.01405 11.4528C1.15168 8.731 2.29478 6.1572 4.22184 4.23014C6.14889 2.30308 8.7227 1.15998 11.4445 1.02235Z" fill="black" style="fill:black;fill-opacity:1;"/>
<path fill-rule="evenodd" clip-rule="evenodd" d="M19.2011 5.3872C19.1963 5.27641 19.1729 5.16453 19.1291 5.05583C18.9224 4.54367 18.3397 4.29601 17.8275 4.50267C17.0875 4.80126 15.9171 5.05555 14.678 5.23398C13.4532 5.41035 12.2523 5.50003 11.4917 5.50003C11.1703 5.50003 10.8684 5.65455 10.6805 5.91532C10.4925 6.17608 10.4414 6.5113 10.543 6.81625C10.8425 7.7145 11.113 8.53531 11.182 9.54375C11.1798 9.60502 11.1833 9.66595 11.1922 9.72582C11.2108 10.1572 11.1923 10.6241 11.1243 11.1459C10.6463 11.2133 10.1653 11.2212 9.69067 11.1869C9.66263 11.1835 9.63437 11.1813 9.60598 11.1803C8.61617 11.0981 7.65624 10.8362 6.81007 10.5521C6.50498 10.4496 6.16922 10.5002 5.90792 10.6881C5.64662 10.876 5.49172 11.1782 5.49172 11.5C5.49172 12.2606 5.40204 13.4615 5.22568 14.6863C5.04725 15.9254 4.79296 17.0958 4.49437 17.8358C4.28771 18.348 4.53537 18.9307 5.04753 19.1374C5.15624 19.1812 5.26812 19.2046 5.37891 19.2094C6.65569 20.3061 8.05572 21.252 9.55134 22.0277C9.5665 22.0355 9.58186 22.043 9.59741 22.0501C9.86326 22.1711 10.1546 22.2256 10.4462 22.2089C10.7378 22.1922 11.021 22.1047 11.2713 21.9541C11.3387 21.9135 11.4031 21.8687 11.4643 21.82C12.6072 22.3079 13.7992 22.6739 15.0206 22.9115L15.0399 22.9151C15.283 22.9575 15.5323 22.9485 15.7718 22.8889C16.0113 22.8292 16.2357 22.7201 16.4305 22.5685C16.5339 22.4881 16.6277 22.3967 16.7105 22.2962C18.2701 22.7398 19.9228 22.8986 20.9287 22.9579C21.1976 22.9757 21.4673 22.936 21.7198 22.8415C21.9742 22.7463 22.2052 22.5976 22.3972 22.4055C22.5893 22.2135 22.738 21.9825 22.8332 21.7281C22.9265 21.4786 22.9664 21.2124 22.9502 20.9466C22.889 19.5175 22.6639 18.1011 22.2799 16.7253C22.3836 16.6409 22.4777 16.5449 22.5602 16.4388C22.7118 16.244 22.8209 16.0196 22.8806 15.7801C22.9402 15.5406 22.9492 15.2913 22.9068 15.0482L22.9032 15.0289C22.6656 13.8076 22.2996 12.6156 21.8117 11.4726C21.8604 11.4114 21.9053 11.347 21.9458 11.2796C22.0964 11.0293 22.1839 10.7461 22.2006 10.4545C22.2173 10.1629 22.1628 9.87156 22.0418 9.60571C22.0347 9.59016 22.0272 9.5748 22.0194 9.55964C21.2437 8.06401 20.2978 6.66398 19.2011 5.3872ZM20.0816 10.174C19.4035 8.92057 18.5923 7.74421 17.6622 6.66518C16.8356 6.90084 15.8772 7.08192 14.963 7.21357C14.2296 7.31917 13.4941 7.39716 12.8344 7.44487C12.9564 7.8909 13.0608 8.3649 13.1262 8.88373C14.2029 9.30276 15.2666 9.61854 16.2836 9.83475C16.306 9.83868 16.3282 9.84337 16.3503 9.8488C17.7053 10.1316 18.9757 10.2371 20.0816 10.174ZM17.4876 12.0652C18.3424 12.1716 19.1655 12.2112 19.94 12.1827C20.3518 13.1336 20.6682 14.1233 20.8843 15.1374C19.8988 15.1711 18.7434 14.9821 17.883 14.8053C17.811 13.9857 17.6898 13.0149 17.4876 12.0652ZM15.3319 11.6697C14.6133 11.4969 13.8832 11.2818 13.1505 11.0248C13.1351 11.1855 13.1157 11.3501 13.092 11.5189L13.091 11.5263C13.0326 11.9213 12.85 12.2874 12.5696 12.5716C12.2892 12.8558 11.9256 13.0434 11.5314 13.1072L11.5271 13.1079C11.3574 13.1346 11.1881 13.1554 11.0197 13.1709C11.273 13.9 11.4861 14.6263 11.6577 15.3411C13.0909 15.7534 14.8311 15.9107 15.959 15.9673C15.9565 15.9182 15.9538 15.8679 15.9509 15.8165C15.9333 15.7289 15.9273 15.638 15.9342 15.5459C15.8603 14.4373 15.6905 12.9304 15.3319 11.6697ZM14.7964 17.8926C13.9775 17.8219 13.0069 17.7025 12.0547 17.4988C12.1618 18.3525 12.2023 19.1745 12.1742 19.9482C13.1252 20.36 14.115 20.6765 15.1291 20.8926C15.1628 19.9057 14.9732 18.748 14.7964 17.8926ZM17.127 20.3347C17.0981 19.4422 16.9593 18.5335 16.8196 17.8087C17.2561 17.6158 17.6071 17.2649 17.8001 16.8285C18.5239 16.9674 19.4286 17.1055 20.3173 17.135C20.6751 18.379 20.8872 19.661 20.9486 20.9554C19.943 20.8917 18.4508 20.7296 17.127 20.3347ZM21.299 17.1169C21.2986 17.1169 21.2981 17.117 21.2977 17.117L21.2216 16.1199L21.3003 17.1168C21.2999 17.1168 21.2995 17.1169 21.299 17.1169ZM10.1656 20.0898C10.2765 18.1356 9.85389 15.6641 8.86736 13.1098C8.36562 13.0408 7.88583 12.9402 7.4378 12.8254C7.39021 13.4896 7.31179 14.2315 7.20527 14.9713C7.07362 15.8855 6.89254 16.8439 6.65688 17.6705C7.73589 18.6006 8.91224 19.4117 10.1656 20.0898Z" fill="black" style="fill:black;fill-opacity:1;"/>
<path fill-rule="evenodd" clip-rule="evenodd" d="M3.875 2.46919C4.07407 2.09461 4.01857 1.61928 3.70588 1.30015C3.31936 0.905657 2.68623 0.899196 2.29174 1.28571C2.13019 1.444 2.00186 1.63293 1.91424 1.84143C1.82662 2.04994 1.7815 2.27383 1.7815 2.5C1.7815 2.72617 1.82662 2.95006 1.91424 3.15857C2.00105 3.36516 2.12785 3.55254 2.28731 3.70992L4.21449 5.63711C4.60501 6.02763 5.23818 6.02763 5.6287 5.63711C6.01923 5.24658 6.01923 4.61342 5.6287 4.22289L3.875 2.46919Z" fill="black" style="fill:black;fill-opacity:1;"/>
</svg>
