<svg width="24" height="24" viewBox="0 0 24 24" fill="none" xmlns="http://www.w3.org/2000/svg">
<path fill-rule="evenodd" clip-rule="evenodd" d="M3.87868 1.87868C4.44129 1.31607 5.20435 1 6 1H18C18.7956 1 19.5587 1.31607 20.1213 1.87868C20.6839 2.44129 21 3.20435 21 4V20C21 20.7957 20.6839 21.5587 20.1213 22.1213C19.5587 22.6839 18.7957 23 18 23H6C5.20435 23 4.44129 22.6839 3.87868 22.1213C3.31607 21.5587 3 20.7957 3 20V4C3 3.20435 3.31607 2.44129 3.87868 1.87868ZM11 21H13V16.1162C12.6852 16.0405 12.3474 16.0002 12.0004 16.0002C11.6532 16.0002 11.3151 16.0405 11 16.1163V21ZM9 17.0001V21H6C5.73478 21 5.48043 20.8946 5.29289 20.7071C5.10536 20.5196 5 20.2652 5 20V4C5 3.73478 5.10536 3.48043 5.29289 3.29289C5.48043 3.10536 5.73478 3 6 3H18C18.2652 3 18.5196 3.10536 18.7071 3.29289C18.8946 3.48043 19 3.73478 19 4V20C19 20.2652 18.8946 20.5196 18.7071 20.7071C18.5196 20.8946 18.2652 21 18 21H15V17.0001C15.3174 16.9998 15.6294 16.8488 15.8232 16.5677C16.1368 16.1131 16.0224 15.4903 15.5677 15.1768L15.221 14.9377C15.2208 14.9375 15.2212 14.9378 15.221 14.9377C14.29 14.2936 13.1207 14.0002 12.0004 14.0002C10.88 14.0002 9.71122 14.2933 8.77982 14.9371C8.77963 14.9372 8.78 14.937 8.77982 14.9371L8.43227 15.1768C7.97762 15.4903 7.86324 16.1131 8.17679 16.5677C8.37062 16.8488 8.68261 16.9998 9 17.0001ZM7 7C7 6.44772 7.44772 6 8 6H8.01C8.56228 6 9.01 6.44772 9.01 7C9.01 7.55228 8.56228 8 8.01 8H8C7.44772 8 7 7.55228 7 7ZM11 7C11 6.44772 11.4477 6 12 6H12.01C12.5623 6 13.01 6.44772 13.01 7C13.01 7.55228 12.5623 8 12.01 8H12C11.4477 8 11 7.55228 11 7ZM15 7C15 6.44772 15.4477 6 16 6H16.01C16.5623 6 17.01 6.44772 17.01 7C17.01 7.55228 16.5623 8 16.01 8H16C15.4477 8 15 7.55228 15 7ZM7 11C7 10.4477 7.44772 10 8 10H8.01C8.56228 10 9.01 10.4477 9.01 11C9.01 11.5523 8.56228 12 8.01 12H8C7.44772 12 7 11.5523 7 11ZM11 11C11 10.4477 11.4477 10 12 10H12.01C12.5623 10 13.01 10.4477 13.01 11C13.01 11.5523 12.5623 12 12.01 12H12C11.4477 12 11 11.5523 11 11ZM15 11C15 10.4477 15.4477 10 16 10H16.01C16.5623 10 17.01 10.4477 17.01 11C17.01 11.5523 16.5623 12 16.01 12H16C15.4477 12 15 11.5523 15 11Z" fill="black" style="fill:black;fill-opacity:1;"/>
</svg>
