<svg width="24" height="24" viewBox="0 0 24 24" fill="none" xmlns="http://www.w3.org/2000/svg">
<path fill-rule="evenodd" clip-rule="evenodd" d="M3 10C3 5.04772 7.04772 1 12 1C16.9523 1 21 5.04772 21 10C21 10.5523 20.5523 11 20 11C19.4477 11 19 10.5523 19 10C19 6.15228 15.8477 3 12 3C8.15228 3 5 6.15228 5 10C5 13.8477 8.15228 17 12 17H17.5858L15.2929 14.7071C14.9024 14.3166 14.9024 13.6834 15.2929 13.2929C15.6834 12.9024 16.3166 12.9024 16.7071 13.2929L20.7071 17.2929C21.0976 17.6834 21.0976 18.3166 20.7071 18.7071L16.7071 22.7071C16.3166 23.0976 15.6834 23.0976 15.2929 22.7071C14.9024 22.3166 14.9024 21.6834 15.2929 21.2929L17.5858 19H12C7.04772 19 3 14.9523 3 10Z" fill="black" style="fill:black;fill-opacity:1;"/>
</svg>
