<svg width="24" height="24" viewBox="0 0 24 24" fill="none" xmlns="http://www.w3.org/2000/svg">
<path fill-rule="evenodd" clip-rule="evenodd" d="M5.32172 2.2652C5.72755 1.8906 6.3602 1.9159 6.73481 2.32172L12 8.02569L17.2652 2.32172C17.6398 1.9159 18.2725 1.8906 18.6783 2.2652C19.0841 2.63981 19.1094 3.27246 18.7348 3.67829L13 9.89099V10H18C18.5523 10 19 10.4477 19 11C19 11.5523 18.5523 12 18 12H13V14H18C18.5523 14 19 14.4477 19 15C19 15.5523 18.5523 16 18 16H13V21C13 21.5523 12.5523 22 12 22C11.4477 22 11 21.5523 11 21V16H6.00001C5.44772 16 5 15.5523 5 15C5 14.4477 5.44772 14 6.00001 14H11V12H6.00001C5.44772 12 5 11.5523 5 11C5 10.4477 5.44772 10 6.00001 10H11V9.89099L5.2652 3.67829C4.8906 3.27246 4.9159 2.63981 5.32172 2.2652Z" fill="black" style="fill:black;fill-opacity:1;"/>
</svg>
