<svg width="24" height="24" viewBox="0 0 24 24" fill="none" xmlns="http://www.w3.org/2000/svg">
<path fill-rule="evenodd" clip-rule="evenodd" d="M6 4C6.55228 4 7 4.44772 7 5V16C7 16.5523 6.55228 17 6 17C5.44772 17 5 16.5523 5 16V5C5 4.44772 5.44772 4 6 4ZM12 4C12.5523 4 13 4.44772 13 5V11C13 11.5523 12.5523 12 12 12C11.4477 12 11 11.5523 11 11V5C11 4.44772 11.4477 4 12 4ZM18 4C18.5523 4 19 4.44772 19 5V19C19 19.5523 18.5523 20 18 20C17.4477 20 17 19.5523 17 19V5C17 4.44772 17.4477 4 18 4Z" fill="black" style="fill:black;fill-opacity:1;"/>
</svg>
