<svg width="24" height="24" viewBox="0 0 24 24" fill="none" xmlns="http://www.w3.org/2000/svg">
<path fill-rule="evenodd" clip-rule="evenodd" d="M15.0928 3.40701C14.5833 2.89753 13.6165 2.89753 13.107 3.40701L9.40701 7.10701C8.89753 7.61648 8.89753 8.58332 9.40701 9.0928L14.907 14.5928C15.4165 15.1023 16.3833 15.1023 16.8928 14.5928L20.5928 10.8928C21.1023 10.3833 21.1023 9.41648 20.5928 8.90701L15.0928 3.40701ZM11.6928 1.9928C12.9833 0.702271 15.2165 0.702271 16.507 1.9928L22.007 7.4928C23.2975 8.78332 23.2975 11.0165 22.007 12.307L18.307 16.007C17.0165 17.2975 14.7833 17.2975 13.4928 16.007L13.45 15.9643L12.7071 16.7072C12.5196 16.8947 12.2652 17.0001 12 17.0001H11V19.0001C11 19.5524 10.5523 20.0001 10 20.0001H8V22.0001C8 22.5524 7.55228 23.0001 7 23.0001H3C2.47275 23.0001 1.95567 22.82 1.56789 22.4322C1.18011 22.0444 1 21.5273 1 21.0001V18.0001C1 17.7349 1.10536 17.4805 1.29289 17.293L8.03584 10.55L7.9928 10.507C6.70227 9.21649 6.70227 6.98332 7.9928 5.6928L11.6928 1.9928ZM9.45005 11.9643L3 18.4143V21.0001H6V19.0001C6 18.4478 6.44772 18.0001 7 18.0001H9V16.0001C9 15.4478 9.44772 15.0001 10 15.0001H11.5858L12.0358 14.55L9.45005 11.9643ZM13.2929 6.29289C13.6834 5.90237 14.3166 5.90237 14.7071 6.29289L17.7071 9.29289C18.0976 9.68342 18.0976 10.3166 17.7071 10.7071C17.3166 11.0976 16.6834 11.0976 16.2929 10.7071L13.2929 7.70711C12.9024 7.31658 12.9024 6.68342 13.2929 6.29289Z" fill="black" style="fill:black;fill-opacity:1;"/>
</svg>
