<svg width="24" height="24" viewBox="0 0 24 24" fill="none" xmlns="http://www.w3.org/2000/svg">
<path d="M16.5 8C16.7761 8 17 7.77614 17 7.5C17 7.22386 16.7761 7 16.5 7C16.2239 7 16 7.22386 16 7.5C16 7.77614 16.2239 8 16.5 8Z" fill="black" style="fill:black;fill-opacity:1;"/>
<path fill-rule="evenodd" clip-rule="evenodd" d="M11.5524 2.10846C12.9909 1.20599 14.6931 0.81841 16.3806 1.00913C18.068 1.19986 19.6407 1.95759 20.8415 3.15838C22.0423 4.35917 22.8001 5.93192 22.9908 7.61934C23.1815 9.30677 22.7939 11.009 21.8915 12.4475C20.989 13.886 19.625 14.9757 18.0227 15.5382C16.6229 16.0297 15.1135 16.0934 13.685 15.7291L12.7071 16.707C12.5196 16.8946 12.2652 16.9999 12 16.9999H11V18.9999C11 19.5522 10.5523 19.9999 10 19.9999H8V21.9999C8 22.5522 7.55228 22.9999 7 22.9999H3C2.47275 22.9999 1.95567 22.8198 1.56789 22.432C1.18011 22.0442 1 21.5272 1 20.9999V17.9999C1 17.7347 1.10536 17.4803 1.29289 17.2928L8.2708 10.3149C7.90651 8.88645 7.97023 7.37705 8.46171 5.97717C9.02426 4.37488 10.1139 3.01094 11.5524 2.10846ZM16.156 2.99648C14.9185 2.85662 13.6702 3.14084 12.6153 3.80265C11.5604 4.46447 10.7613 5.4647 10.3488 6.63971C9.93625 7.81471 9.93468 9.09494 10.3443 10.271C10.4705 10.6332 10.3784 11.0358 10.1071 11.307L3 18.4141V20.9999H6V18.9999C6 18.4476 6.44772 17.9999 7 17.9999H9V15.9999C9 15.4476 9.44772 14.9999 10 14.9999H11.5858L12.6929 13.8928C12.9642 13.6215 13.3667 13.5294 13.729 13.6556C14.905 14.0652 16.1852 14.0637 17.3602 13.6511C18.5352 13.2386 19.5354 12.4395 20.1973 11.3846C20.8591 10.3297 21.1433 9.08141 21.0034 7.84397C20.8636 6.60652 20.3079 5.45317 19.4273 4.57259C18.5467 3.69202 17.3934 3.13634 16.156 2.99648ZM16.5 8C16.7761 8 17 7.77614 17 7.5C17 7.22386 16.7761 7 16.5 7C16.2239 7 16 7.22386 16 7.5C16 7.77614 16.2239 8 16.5 8ZM15 7.5C15 6.67157 15.6716 6 16.5 6C17.3284 6 18 6.67157 18 7.5C18 8.32843 17.3284 9 16.5 9C15.6716 9 15 8.32843 15 7.5Z" fill="black" style="fill:black;fill-opacity:1;"/>
</svg>
