<svg width="24" height="24" viewBox="0 0 24 24" fill="none" xmlns="http://www.w3.org/2000/svg">
<path fill-rule="evenodd" clip-rule="evenodd" d="M21.7071 1.29289C22.0977 1.68342 22.0977 2.31658 21.7071 2.70711L20.4142 4.00001L22.7071 6.29289C23.0976 6.68342 23.0976 7.31658 22.7071 7.70711L19.2071 11.2071C18.8166 11.5976 18.1834 11.5976 17.7929 11.2071L15.5 8.91423L12.7489 11.6653C13.5356 12.7403 14 14.0659 14 15.5C14 19.0899 11.0899 22 7.5 22C3.91015 22 1 19.0899 1 15.5C1 11.9101 3.91015 9 7.5 9C8.93411 9 10.2597 9.46444 11.3347 10.2511L14.7887 6.7971C14.7901 6.79569 14.7915 6.79429 14.7929 6.79289C14.7943 6.7915 14.7957 6.7901 14.7971 6.78871L18.2886 3.29716C18.2901 3.29574 18.2915 3.29431 18.2929 3.29289C18.2943 3.29147 18.2957 3.29006 18.2972 3.28865L20.2929 1.29289C20.6834 0.902369 21.3166 0.902369 21.7071 1.29289ZM19 5.41423L16.9142 7.50001L18.5 9.08579L20.5858 7L19 5.41423ZM7.5 11C5.01472 11 3 13.0147 3 15.5C3 17.9853 5.01472 20 7.5 20C9.98528 20 12 17.9853 12 15.5C12 13.0147 9.98528 11 7.5 11Z" fill="black" style="fill:black;fill-opacity:1;"/>
</svg>
