<svg width="24" height="24" viewBox="0 0 24 24" fill="none" xmlns="http://www.w3.org/2000/svg">
<path fill-rule="evenodd" clip-rule="evenodd" d="M8.08086 1.60608C8.23844 1.2384 8.59998 1 9 1H15C15.4 1 15.7616 1.2384 15.9191 1.60608L18.9191 8.60608C19.0516 8.91504 19.0199 9.26987 18.8348 9.55049C18.6498 9.83112 18.3361 10 18 10H13V21H15C15.5523 21 16 21.4477 16 22C16 22.5523 15.5523 23 15 23H9C8.44772 23 8 22.5523 8 22C8 21.4477 8.44772 21 9 21H11V10H6C5.66386 10 5.35021 9.83112 5.16516 9.55049C4.98012 9.26987 4.94845 8.91504 5.08086 8.60608L8.08086 1.60608ZM16.4835 8L14.3406 3H9.6594L7.51654 8H16.4835Z" fill="black" style="fill:black;fill-opacity:1;"/>
</svg>
