<svg width="24" height="24" viewBox="0 0 24 24" fill="none" xmlns="http://www.w3.org/2000/svg">
<path fill-rule="evenodd" clip-rule="evenodd" d="M3 9.99608C3.00971 11.1318 3.3526 12.2377 3.98313 13.1776C4.30625 13.0612 4.64997 13 5 13C5.79565 13 6.55871 13.3161 7.12132 13.8787C7.68393 14.4413 8 15.2044 8 16C8 16.0868 7.99624 16.1733 7.9888 16.2591C8.69393 16.5313 9.41667 16.7318 10.1528 16.8533C10.6978 16.9432 11.0666 17.4579 10.9767 18.0028C10.8867 18.5477 10.3721 18.9165 9.82715 18.8266C8.91039 18.6753 8.01915 18.4226 7.15963 18.0823C7.14699 18.0954 7.13422 18.1084 7.12132 18.1213C6.82255 18.4201 6.46724 18.6493 6.08054 18.7986C6.15033 19.1411 6.26494 19.4742 6.42229 19.7889C6.7 20.3443 7.10322 20.8274 7.6 21.2C8.04183 21.5314 8.13137 22.1582 7.8 22.6C7.46863 23.0418 6.84183 23.1314 6.4 22.8C5.65482 22.2411 5.05 21.5164 4.63344 20.6833C4.34429 20.105 4.15135 19.4855 4.06038 18.8491C3.61909 18.7035 3.21341 18.456 2.87868 18.1213C2.31607 17.5587 2 16.7956 2 16C2 15.4492 2.15147 14.914 2.43133 14.4502C1.51285 13.1514 1.01256 11.6014 1.00003 10.0079L0.999969 10H1C1 4.83074 6.14783 1 12 1C17.8522 1 23 4.83074 23 10L22.9998 10.0221C22.9827 10.7954 22.8561 11.5624 22.6239 12.3003C22.458 12.8271 21.8965 13.1197 21.3697 12.9539C20.8429 12.788 20.5503 12.2265 20.7161 11.6997C20.8906 11.1456 20.9861 10.5697 21 9.98902C20.9924 6.32263 17.1827 3 12 3C6.81401 3 3.00271 6.3269 3 9.99608ZM15 13.0877V19.4747L16.3483 17.4549C16.5338 17.177 16.8459 17.0101 17.18 17.0101H19.7984L15 13.0877ZM21.2644 18.2082C21.2605 18.2051 21.2566 18.202 21.2528 18.1989L21.2644 18.2082ZM21.6769 17.0102C21.6815 17.0102 21.6862 17.0102 21.6908 17.0103L21.6769 17.0102ZM15.1753 10.6478C14.9664 10.4754 14.678 10.3401 14.33 10.3401C14.3202 10.3401 14.3104 10.3402 14.3006 10.3405C13.9521 10.3508 13.6213 10.4965 13.3784 10.7467C13.1357 10.9968 13 11.3316 13 11.6801C13 11.6802 13 11.6804 13 11.6805V21.6801C13 21.6918 13.0002 21.7036 13.0006 21.7153C13.0103 21.991 13.1043 22.2571 13.2698 22.4778C13.4353 22.6984 13.6644 22.8631 13.9263 22.9496C14.0275 22.9831 14.1334 23.0001 14.24 23.0001H14.33C14.5396 23.0001 14.7463 22.9513 14.9337 22.8576C15.1212 22.7638 15.2842 22.6278 15.41 22.4601C15.421 22.4454 15.4316 22.4305 15.4417 22.4153L17.7148 19.0101H21.6632C21.9375 19.0129 22.2062 18.9308 22.4322 18.7748C22.6621 18.6162 22.8362 18.3893 22.9299 18.1261C23.0235 17.863 23.032 17.5771 22.954 17.3089C22.8774 17.0455 22.7213 16.8123 22.5072 16.6412L15.1753 10.6478ZM5 15C4.73478 15 4.48043 15.1054 4.29289 15.2929C4.10536 15.4804 4 15.7348 4 16C4 16.2652 4.10536 16.5196 4.29289 16.7071C4.48043 16.8946 4.73478 17 5 17C5.26522 17 5.51957 16.8946 5.70711 16.7071C5.89464 16.5196 6 16.2652 6 16C6 15.7348 5.89464 15.4804 5.70711 15.2929C5.51957 15.1054 5.26522 15 5 15Z" fill="black" style="fill:black;fill-opacity:1;"/>
</svg>
