<svg width="24" height="24" viewBox="0 0 24 24" fill="none" xmlns="http://www.w3.org/2000/svg">
<path fill-rule="evenodd" clip-rule="evenodd" d="M12 3C7.02944 3 3 7.02944 3 12C3 16.9706 7.02944 21 12 21C16.9706 21 21 16.9706 21 12C21 7.02944 16.9706 3 12 3ZM1 12C1 5.92487 5.92487 1 12 1C18.0751 1 23 5.92487 23 12C23 18.0751 18.0751 23 12 23C5.92487 23 1 18.0751 1 12ZM8 9C8 8.44772 8.44772 8 9 8H9.01C9.56228 8 10.01 8.44772 10.01 9C10.01 9.55228 9.56228 10 9.01 10H9C8.44772 10 8 9.55228 8 9ZM14 9C14 8.44772 14.4477 8 15 8H15.01C15.5623 8 16.01 8.44772 16.01 9C16.01 9.55228 15.5623 10 15.01 10H15C14.4477 10 14 9.55228 14 9ZM5.23627 12.3545C5.42627 12.1297 5.70566 12 6 12H18C18.2943 12 18.5737 12.1297 18.7637 12.3545C18.9537 12.5793 19.0351 12.8763 18.986 13.1666C18.7077 14.8144 17.8489 16.3083 16.5651 17.3781C15.2849 18.445 13.6661 19.02 12 19.0001C10.3339 19.02 8.71514 18.445 7.43489 17.3781C6.15105 16.3083 5.29234 14.8144 5.01397 13.1666C4.96494 12.8763 5.04626 12.5793 5.23627 12.3545ZM7.33334 14C7.64225 14.708 8.11334 15.3401 8.71526 15.8417C9.63228 16.6059 10.7924 17.0168 11.986 17.0001C11.9953 17 12.0047 17 12.014 17.0001C13.2076 17.0168 14.3677 16.6059 15.2847 15.8417C15.8867 15.3401 16.3577 14.708 16.6667 14H7.33334Z" fill="black" style="fill:black;fill-opacity:1;"/>
</svg>
