<svg width="24" height="24" viewBox="0 0 24 24" fill="none" xmlns="http://www.w3.org/2000/svg">
<g clip-path="url(#clip0_168_1620)">
<path fill-rule="evenodd" clip-rule="evenodd" d="M12.0001 2.99194C11.8246 2.99194 11.6521 3.03815 11.5001 3.12592L11.4972 3.12757L2.99317 7.9999L2.99725 8.00221L8.36097 11.0753C8.44095 11.1082 8.51692 11.1515 8.58663 11.2046L11.5001 12.8739C11.6521 12.9616 11.8246 13.0078 12.0001 13.0078C12.1756 13.0078 12.3481 12.9616 12.5001 12.8739L12.503 12.8722L15.4136 11.2046C15.4833 11.1515 15.5593 11.1082 15.6393 11.0753L21.003 8.00222L21.0071 7.99989L21.003 7.99757L12.503 3.12757L12.5001 3.12592C12.3481 3.03815 12.1756 2.99194 12.0001 2.99194ZM16.0293 13.1569L13.5001 14.6059C13.4995 14.6063 13.4989 14.6066 13.4984 14.6069C13.0427 14.8696 12.526 15.0078 12.0001 15.0078C11.4742 15.0078 10.9575 14.8696 10.5019 14.6069C10.5013 14.6066 10.5007 14.6063 10.5001 14.6059L7.97094 13.1569L2.99608 15.9983L2.99316 16L2.99725 16.0023L11.5001 20.874C11.6521 20.9617 11.8246 21.0079 12.0001 21.0079C12.1756 21.0079 12.3481 20.9617 12.5001 20.874L12.503 20.8723L21.003 16.0023L21.0071 16L21.0041 15.9983L16.0293 13.1569ZM5.95781 12.0035L2.00706 9.73989C2.00626 9.73944 2.00545 9.73898 2.00465 9.73852C1.69793 9.56413 1.44278 9.3117 1.26513 9.00682C1.08701 8.70114 0.993164 8.35368 0.993164 7.99989C0.993164 7.6461 1.08701 7.29865 1.26513 6.99297C1.44278 6.68809 1.69792 6.43566 2.00464 6.26127C2.00545 6.26081 2.00625 6.26035 2.00706 6.25989L10.5001 1.39387C10.5007 1.39355 10.5012 1.39323 10.5018 1.39291C10.9574 1.13023 11.4741 0.991943 12.0001 0.991943C12.5261 0.991943 13.0428 1.13023 13.4985 1.39291C13.499 1.39323 13.4996 1.39355 13.5001 1.39387L21.9932 6.25989C21.994 6.26034 21.9948 6.26079 21.9955 6.26124C22.3023 6.43563 22.5574 6.68808 22.7351 6.99297C22.9132 7.29865 23.0071 7.64611 23.0071 7.99989C23.0071 8.35368 22.9132 8.70114 22.7351 9.00682C22.5574 9.31171 22.3023 9.56415 21.9955 9.73854C21.9948 9.73899 21.994 9.73944 21.9932 9.73989L18.0424 12.0035L21.9932 14.26C21.9937 14.2603 21.9943 14.2606 21.9948 14.2609C22.3019 14.4353 22.5573 14.6879 22.7351 14.9931C22.9132 15.2988 23.0071 15.6462 23.0071 16C23.0071 16.3538 22.9132 16.7012 22.7351 17.0069C22.5575 17.3118 22.3023 17.5642 21.9957 17.7386C21.9948 17.7391 21.994 17.7395 21.9932 17.74L13.5001 22.606C13.4996 22.6063 13.4991 22.6066 13.4986 22.6069C13.0429 22.8696 12.5261 23.0079 12.0001 23.0079C11.4741 23.0079 10.9573 22.8696 10.5016 22.6069C10.5011 22.6066 10.5006 22.6063 10.5001 22.606L2.00706 17.74C2.00622 17.7395 2.00538 17.739 2.00454 17.7386C1.69787 17.5642 1.44276 17.3118 1.26513 17.0069C1.08701 16.7012 0.993164 16.3538 0.993164 16C0.993164 15.6462 1.08701 15.2988 1.26513 14.9931C1.44292 14.688 1.69832 14.4354 2.00535 14.261C2.00592 14.2606 2.00649 14.2603 2.00706 14.26L5.95781 12.0035Z" fill="black" style="fill:black;fill-opacity:1;"/>
</g>
<defs>
<clipPath id="clip0_168_1620">
<rect width="24" height="24" fill="white" style="fill:white;fill-opacity:1;"/>
</clipPath>
</defs>
</svg>
