<svg width="24" height="24" viewBox="0 0 24 24" fill="none" xmlns="http://www.w3.org/2000/svg">
<path fill-rule="evenodd" clip-rule="evenodd" d="M4 3C4.55228 3 5 3.44772 5 4V20C5 20.5523 4.55228 21 4 21C3.44772 21 3 20.5523 3 20V4C3 3.44772 3.44772 3 4 3ZM15.7253 5.03848C16.2563 4.88675 16.8098 5.19424 16.9615 5.72528L20.9615 19.7253C21.1132 20.2563 20.8058 20.8098 20.2747 20.9615C19.7437 21.1132 19.1902 20.8058 19.0385 20.2747L15.0385 6.27472C14.8868 5.74369 15.1942 5.1902 15.7253 5.03848ZM12 5C12.5523 5 13 5.44772 13 6V20C13 20.5523 12.5523 21 12 21C11.4477 21 11 20.5523 11 20V6C11 5.44772 11.4477 5 12 5ZM8 7C8.55228 7 9 7.44772 9 8V20C9 20.5523 8.55228 21 8 21C7.44772 21 7 20.5523 7 20V8C7 7.44772 7.44772 7 8 7Z" fill="black" style="fill:black;fill-opacity:1;"/>
</svg>
