<svg width="24" height="24" viewBox="0 0 24 24" fill="none" xmlns="http://www.w3.org/2000/svg">
<path fill-rule="evenodd" clip-rule="evenodd" d="M5 4C4.44772 4 4 4.44772 4 5V19C4 19.5523 4.44771 20 5 20H19C19.5523 20 20 19.5523 20 19V5C20 4.44771 19.5523 4 19 4H5ZM2 5C2 3.34315 3.34315 2 5 2H19C20.6569 2 22 3.34315 22 5V19C22 20.6569 20.6569 22 19 22H5C3.34315 22 2 20.6569 2 19V5ZM14.8039 6.01942C15.3454 5.91111 15.8723 6.26232 15.9806 6.80388L17.9806 16.8039C18.0889 17.3454 17.7377 17.8723 17.1961 17.9806C16.6546 18.0889 16.1277 17.7377 16.0194 17.1961L14.0194 7.19612C13.9111 6.65456 14.2623 6.12773 14.8039 6.01942ZM7 6C7.55228 6 8 6.44772 8 7V17C8 17.5523 7.55228 18 7 18C6.44772 18 6 17.5523 6 17V7C6 6.44772 6.44772 6 7 6ZM11 6C11.5523 6 12 6.44772 12 7V17C12 17.5523 11.5523 18 11 18C10.4477 18 10 17.5523 10 17V7C10 6.44772 10.4477 6 11 6Z" fill="black" style="fill:black;fill-opacity:1;"/>
</svg>
