<svg width="24" height="24" viewBox="0 0 24 24" fill="none" xmlns="http://www.w3.org/2000/svg">
<path fill-rule="evenodd" clip-rule="evenodd" d="M1.29289 1.29289C1.68342 0.902369 2.31658 0.902369 2.70711 1.29289L22.7071 21.2929C23.0976 21.6834 23.0976 22.3166 22.7071 22.7071C22.3166 23.0976 21.6834 23.0976 21.2929 22.7071L11.5858 13H8C7.44772 13 7 12.5523 7 12C7 11.4477 7.44772 11 8 11H9.58579L6.6053 8.01951C5.68936 8.1103 4.8281 8.51504 4.17157 9.17157C3.42143 9.92172 3 10.9391 3 12C3 13.0609 3.42143 14.0783 4.17157 14.8284C4.92172 15.5786 5.93913 16 7 16H9C9.55228 16 10 16.4477 10 17C10 17.5523 9.55228 18 9 18H7C5.4087 18 3.88258 17.3679 2.75736 16.2426C1.63214 15.1174 1 13.5913 1 12C1 10.4087 1.63214 8.88258 2.75736 7.75736C3.38282 7.1319 4.13215 6.65879 4.9477 6.36191L1.29289 2.70711C0.902369 2.31658 0.902369 1.68342 1.29289 1.29289ZM15 8C14.4477 8 14 7.55228 14 7C14 6.44772 14.4477 6 15 6H17C18.1143 6 19.2065 6.31029 20.1544 6.8961C21.1022 7.4819 21.8682 8.32009 22.3666 9.31672C22.8649 10.3134 23.0758 11.4291 22.9758 12.5388C22.8757 13.6486 22.4686 14.7086 21.8 15.6C21.4686 16.0418 20.8418 16.1314 20.4 15.8C19.9582 15.4686 19.8686 14.8418 20.2 14.4C20.6457 13.8057 20.9171 13.0991 20.9838 12.3592C21.0506 11.6194 20.9099 10.8756 20.5777 10.2111C20.2455 9.54672 19.7348 8.98793 19.1029 8.5974C18.471 8.20686 17.7428 8 17 8H15Z" fill="black" style="fill:black;fill-opacity:1;"/>
</svg>
