<svg width="24" height="24" viewBox="0 0 24 24" fill="none" xmlns="http://www.w3.org/2000/svg">
<path fill-rule="evenodd" clip-rule="evenodd" d="M1.29289 1.29289C1.68342 0.902369 2.31658 0.902369 2.70711 1.29289L22.7071 21.2929C23.0976 21.6834 23.0976 22.3166 22.7071 22.7071C22.3166 23.0976 21.6834 23.0976 21.2929 22.7071L16.8497 18.2639C15.7574 19.1306 14.4457 19.7384 13 19.9331V22C13 22.5523 12.5523 23 12 23C11.4477 23 11 22.5523 11 22V19.9383C7.37824 19.4878 4.51223 16.6218 4.06173 13H2C1.44772 13 1 12.5523 1 12C1 11.4477 1.44772 11 2 11H4.06691C4.2616 9.55427 4.8695 8.24267 5.7362 7.15042L1.29289 2.70711C0.902369 2.31658 0.902369 1.68342 1.29289 1.29289ZM7.16244 8.57666C6.43197 9.56646 6 10.7419 6 12C6 15.3177 8.68228 18 12 18C13.2581 18 14.4336 17.5681 15.4234 16.8377L7.16244 8.57666ZM11 4.06482V2C11 1.44772 11.4477 1 12 1C12.5523 1 13 1.44772 13 2V4.06173C16.6218 4.51223 19.4878 7.37824 19.9383 11H22C22.5523 11 23 11.4477 23 12C23 12.5523 22.5523 13 22 13H19.9352C19.88 13.4247 19.79 13.8423 19.6674 14.2487C19.508 14.7775 18.9501 15.0769 18.4213 14.9174C17.8925 14.7579 17.5932 14.2 17.7526 13.6713C17.9149 13.1332 18 12.5705 18 12C18 8.68228 15.3177 6 12 6C11.4296 6 10.8668 6.08513 10.3288 6.24741C9.80002 6.40687 9.2421 6.1075 9.08263 5.57874C8.92316 5.04998 9.22254 4.49206 9.7513 4.33259C10.1577 4.21002 10.5753 4.12005 11 4.06482Z" fill="black" style="fill:black;fill-opacity:1;"/>
</svg>
