<svg width="24" height="24" viewBox="0 0 24 24" fill="none" xmlns="http://www.w3.org/2000/svg">
<path fill-rule="evenodd" clip-rule="evenodd" d="M12 3C11.7836 3 11.5731 3.07018 11.4 3.2L3.4 9.2C3.28373 9.2872 3.18797 9.39862 3.11925 9.52641L11.5032 14.854C11.6523 14.9468 11.8244 14.996 12 14.996C12.1756 14.996 12.3477 14.9468 12.4968 14.854C12.4976 14.8535 12.4983 14.8531 12.4991 14.8526L20.8794 9.52727C20.8113 9.40146 20.7159 9.28861 20.5971 9.19779C20.5963 9.19725 20.5956 9.1967 20.5949 9.19616L12.6 3.2C12.4269 3.07018 12.2164 3 12 3ZM21 11.8203L13.5609 16.5474C13.0931 16.8406 12.5521 16.996 12 16.996C11.4479 16.996 10.9069 16.8405 10.4391 16.5474L10.4337 16.544L3 11.8203V20C3 20.2652 3.10536 20.5196 3.29289 20.7071C3.48043 20.8946 3.73478 21 4 21H20C20.2652 21 20.5196 20.8946 20.7071 20.7071C20.8946 20.5196 21 20.2652 21 20V11.8203ZM10.2 1.6C10.7193 1.21053 11.3509 1 12 1C12.6491 1 13.2807 1.21053 13.8 1.6L21.8051 7.60382C22.5479 8.16839 23 9.05007 23 10V20C23 20.7957 22.6839 21.5587 22.1213 22.1213C21.5587 22.6839 20.7957 23 20 23H4C3.20435 23 2.44129 22.6839 1.87868 22.1213C1.31607 21.5587 1 20.7957 1 20V10C1 9.53426 1.10844 9.07493 1.31672 8.65836C1.525 8.24179 1.82741 7.87944 2.2 7.6L10.2 1.6Z" fill="black" style="fill:black;fill-opacity:1;"/>
</svg>
