<svg width="24" height="24" viewBox="0 0 24 24" fill="none" xmlns="http://www.w3.org/2000/svg">
<path fill-rule="evenodd" clip-rule="evenodd" d="M1.29289 1.29289C1.68342 0.902369 2.31658 0.902369 2.70711 1.29289L6.123 4.70879C6.13316 4.71853 6.14308 4.72845 6.15276 4.73854L9.82138 8.40717C9.83163 8.41699 9.84166 8.42702 9.85146 8.43724L13.5626 12.1484C13.5728 12.1581 13.5828 12.1682 13.5926 12.1784L17.6959 16.2817C17.7041 16.2896 17.7121 16.2977 17.72 16.3058L22.7071 21.2929C23.0976 21.6834 23.0976 22.3166 22.7071 22.7071C22.3166 23.0976 21.6834 23.0976 21.2929 22.7071L17.0745 18.4887C15.7372 20.0656 14.2446 21.5053 12.6187 22.7856C12.2626 23.066 11.7625 23.0718 11.4 22.7999L12 21.9999C11.4 22.7999 11.4002 22.8001 11.4 22.7999L11.3989 22.7991L11.397 22.7977L11.3912 22.7933L11.3709 22.7779C11.3537 22.7648 11.3291 22.7459 11.2976 22.7215C11.2346 22.6727 11.1441 22.6017 11.0299 22.5099C10.8016 22.3264 10.4782 22.0596 10.0915 21.7213C9.31946 21.0457 8.28758 20.0787 7.25259 18.9143C5.22953 16.6384 3 13.395 3 9.99993L3 9.99828C3.00257 8.44435 3.40467 6.92211 4.16126 5.57548L1.29289 2.70711C0.902369 2.31658 0.902369 1.68342 1.29289 1.29289ZM5.64686 7.06107C5.22442 7.97877 5.00181 8.98098 5 10.0007C5.00036 12.6055 6.77067 15.3617 8.74741 17.5856C9.71242 18.6712 10.6805 19.5791 11.4085 20.2161C11.6294 20.4093 11.8274 20.5771 11.9958 20.7167C13.322 19.6124 14.5466 18.3918 15.6552 17.0694L12.5498 13.964C12.3662 13.9896 12.1806 14.0016 11.9946 13.9999C10.9357 13.9985 9.92038 13.5772 9.17148 12.8283C8.42257 12.0794 8.0013 11.0641 7.99991 10.0051C7.99991 10.0034 7.99991 10.0016 7.99991 9.99988H8.58567L8.03577 9.44999M8.03577 9.44999L5.64686 7.06107L8.03577 9.44999ZM11.9956 13.4098L8.58999 10.0042L11.9956 13.4098ZM8.0358 1.92409C9.26821 1.31309 10.6257 0.996757 12.0012 1.00003C14.3877 1.00036 16.6764 1.94853 18.3639 3.63606C20.0518 5.32389 21 7.61308 21 10L20.9998 10.0187C20.9745 11.3773 20.6628 12.7152 20.0851 13.9451C19.8503 14.445 19.2548 14.6599 18.7549 14.4252C18.255 14.1904 18.0401 13.5948 18.2748 13.0949C18.7316 12.1224 18.9786 11.0648 19 9.99071C18.9975 8.13755 18.2603 6.36084 16.9497 5.05028C15.637 3.73752 13.8565 3.00003 12 3.00003L11.9975 3.00002C10.9314 2.99734 9.87929 3.24243 8.92416 3.71596C8.42935 3.96128 7.82936 3.75902 7.58404 3.26421C7.33873 2.7694 7.54099 2.1694 8.0358 1.92409ZM11.7823 6.83791C11.9216 6.30348 12.4677 5.98313 13.0022 6.12241C13.6937 6.30262 14.3243 6.66479 14.8285 7.17128C15.3326 7.67776 15.6918 8.31005 15.8688 9.00241C16.0056 9.53748 15.6828 10.0821 15.1477 10.2189C14.6126 10.3557 14.0679 10.0328 13.9312 9.49777C13.8427 9.15159 13.663 8.83545 13.411 8.5822C13.1589 8.32896 12.8436 8.14787 12.4978 8.05777C11.9634 7.9185 11.643 7.37235 11.7823 6.83791Z" fill="black" style="fill:black;fill-opacity:1;"/>
</svg>
