<svg width="24" height="24" viewBox="0 0 24 24" fill="none" xmlns="http://www.w3.org/2000/svg">
<path fill-rule="evenodd" clip-rule="evenodd" d="M11.1692 2.05309C11.4074 2.02926 11.6997 2 12 2C12.3004 2 12.5927 2.02926 12.8309 2.05309L12.8495 2.05496C13.108 2.08081 13.3083 2.1 13.5 2.1C14.0523 2.1 14.5 2.54772 14.5 3.1C14.5 3.65228 14.0523 4.1 13.5 4.1C13.1997 4.1 12.9074 4.07074 12.6692 4.04691L12.6505 4.04504C12.392 4.01919 12.1918 4 12 4C11.8083 4 11.608 4.01919 11.3495 4.04504L11.3309 4.04691C11.0927 4.07074 10.8004 4.1 10.5 4.1C9.94774 4.1 9.50003 3.65228 9.50003 3.1C9.50003 2.54772 9.94774 2.1 10.5 2.1C10.6918 2.1 10.892 2.08081 11.1505 2.05496L11.1692 2.05309ZM7.60039 4.1005C7.93146 4.54255 7.84149 5.16929 7.39943 5.50036C6.67924 6.03974 6.03977 6.67921 5.50039 7.3994C5.16932 7.84146 4.54258 7.93143 4.10053 7.60036C3.65847 7.26929 3.5685 6.64255 3.89957 6.2005C4.5531 5.32788 5.32791 4.55307 6.20053 3.89954C6.64258 3.56847 7.26932 3.65844 7.60039 4.1005ZM16.3996 4.1005C16.7306 3.65844 17.3574 3.56847 17.7994 3.89954C18.672 4.55307 19.4469 5.32788 20.1004 6.2005C20.4315 6.64255 20.3415 7.26929 19.8994 7.60036C19.4574 7.93143 18.8306 7.84146 18.4996 7.3994C17.9602 6.67921 17.3207 6.03974 16.6005 5.50036C16.1585 5.16929 16.0685 4.54255 16.3996 4.1005ZM3.10003 9.5C3.65231 9.5 4.10003 9.94772 4.10003 10.5C4.10003 10.8004 4.07077 11.0926 4.04693 11.3308L4.04506 11.3495C4.01921 11.608 4.00003 11.8083 4.00003 12C4.00003 12.1917 4.01921 12.392 4.04506 12.6505L4.04693 12.6692C4.07077 12.9074 4.10003 13.1996 4.10003 13.5C4.10003 14.0523 3.65231 14.5 3.10003 14.5C2.54774 14.5 2.10003 14.0523 2.10003 13.5C2.10003 13.3083 2.08084 13.108 2.05499 12.8495L2.05312 12.8308C2.02928 12.5927 2.00003 12.3004 2.00003 12C2.00003 11.6996 2.02928 11.4073 2.05312 11.1692L2.05499 11.1505C2.08084 10.892 2.10003 10.6917 2.10003 10.5C2.10003 9.94772 2.54774 9.5 3.10003 9.5ZM20.8999 9.5C21.4522 9.5 21.8999 9.94772 21.8999 10.5C21.8999 10.6917 21.9191 10.892 21.945 11.1505L21.9468 11.1692C21.9707 11.4074 21.9999 11.6997 21.9999 12L21.9999 12.0355C22 12.5136 22.0001 13.0982 21.8805 13.6961C21.7722 14.2377 21.2454 14.5889 20.7038 14.4806C20.1623 14.3723 19.811 13.8454 19.9193 13.3039C19.9968 12.9167 19.9999 12.5155 19.9999 12C19.9999 11.8083 19.9807 11.608 19.9549 11.3495L19.953 11.3308C19.9292 11.0926 19.8999 10.8003 19.8999 10.5C19.8999 9.94772 20.3476 9.5 20.8999 9.5ZM19.8994 16.3995C20.3415 16.7306 20.4315 17.3574 20.1004 17.7994C19.4469 18.672 18.672 19.4468 17.7994 20.1004C17.3574 20.4314 16.7306 20.3415 16.3996 19.8994C16.0685 19.4573 16.1585 18.8306 16.6005 18.4995C17.3207 17.9602 17.9602 17.3207 18.4996 16.6005C18.8306 16.1584 19.4574 16.0685 19.8994 16.3995ZM3.81625 16.5513C4.3402 16.726 4.62336 17.2923 4.44871 17.8162L3.58117 20.4189L6.1838 19.5513C6.70774 19.3767 7.27406 19.6598 7.44871 20.1838C7.62336 20.7077 7.3402 21.274 6.81626 21.4487L2.31625 22.9487C1.95692 23.0685 1.56075 22.9749 1.29292 22.7071C1.02509 22.4393 0.931566 22.0431 1.05134 21.6838L2.55134 17.1838C2.72599 16.6598 3.29231 16.3767 3.81625 16.5513ZM9.51945 20.7038C9.62776 20.1622 10.1546 19.811 10.6961 19.9193C11.0833 19.9968 11.4845 19.9999 12 19.9999C12.1918 19.9999 12.392 19.9807 12.6505 19.9549L12.6693 19.953C12.9074 19.9292 13.1997 19.8999 13.5 19.8999C14.0523 19.8999 14.5 20.3476 14.5 20.8999C14.5 21.4522 14.0523 21.8999 13.5 21.8999C13.3083 21.8999 13.108 21.9191 12.8495 21.9449L12.8308 21.9468C12.5926 21.9707 12.3004 21.9999 12 21.9999L11.9645 21.9999C11.4864 22 10.9019 22.0001 10.3039 21.8805C9.76235 21.7722 9.41113 21.2453 9.51945 20.7038Z" fill="black" style="fill:black;fill-opacity:1;"/>
</svg>
