<svg width="24" height="24" viewBox="0 0 24 24" fill="none" xmlns="http://www.w3.org/2000/svg">
<path fill-rule="evenodd" clip-rule="evenodd" d="M1.29289 1.29289C1.68342 0.902369 2.31658 0.902369 2.70711 1.29289L4.29865 2.88443C4.30377 2.88945 4.30886 2.89453 4.31389 2.89968L22.7071 21.2929C23.0976 21.6834 23.0976 22.3166 22.7071 22.7071C22.3166 23.0976 21.6834 23.0976 21.2929 22.7071L16.5859 18.0001H7.41421L3.70711 21.7072C3.42111 21.9932 2.99099 22.0788 2.61732 21.924C2.24364 21.7692 2 21.4046 2 21.0001V5.0001C2 4.55547 2.08276 4.10068 2.27676 3.69098L1.29289 2.70711C0.902369 2.31658 0.902369 1.68342 1.29289 1.29289ZM4 5.41421V18.5859L6.29289 16.293C6.48043 16.1055 6.73478 16.0001 7 16.0001H14.5859L4 5.41421ZM8 3C8 2.44772 8.44772 2 9 2H19C19.7957 2 20.5587 2.31607 21.1213 2.87868C21.6839 3.44129 22 4.20435 22 5V15C22 15.5523 21.5523 16 21 16C20.4477 16 20 15.5523 20 15V5C20 4.73478 19.8946 4.48043 19.7071 4.29289C19.5196 4.10536 19.2652 4 19 4H9C8.44772 4 8 3.55228 8 3Z" fill="black" style="fill:black;fill-opacity:1;"/>
</svg>
