<svg width="24" height="24" viewBox="0 0 24 24" fill="none" xmlns="http://www.w3.org/2000/svg">
<path fill-rule="evenodd" clip-rule="evenodd" d="M6.11896 3.91008C8.04524 2.50653 10.4095 1.83712 12.7856 2.02249C15.1618 2.20787 17.3936 3.23583 19.0789 4.92113C20.7642 6.60644 21.7922 8.83827 21.9776 11.2144C22.163 13.5906 21.4935 15.9548 20.09 17.8811C18.6864 19.8074 16.641 21.169 14.3224 21.7207C12.1442 22.2389 9.85945 22.0103 7.83253 21.0788L2.32107 22.9471C1.96061 23.0693 1.56205 22.9763 1.29292 22.7072C1.02379 22.438 0.930774 22.0395 1.05296 21.679L2.92125 16.1675C1.98982 14.1406 1.7612 11.8559 2.2794 9.67771C2.83103 7.35904 4.19268 5.31364 6.11896 3.91008ZM12.6301 4.01644C10.7292 3.86814 8.83776 4.40366 7.29674 5.52651C5.75571 6.64935 4.6664 8.28567 4.2251 10.1406C3.78379 11.9955 4.01951 13.9471 4.88979 15.6436C5.01328 15.8844 5.03395 16.1649 4.94709 16.4211L3.5974 20.4027L7.57899 19.053C7.83522 18.9661 8.11572 18.9868 8.35645 19.1103C10.053 19.9806 12.0045 20.2163 13.8595 19.775C15.7144 19.3337 17.3507 18.2444 18.4736 16.7033C19.5964 15.1623 20.1319 13.2709 19.9836 11.37C19.8353 9.46905 19.013 7.68359 17.6647 6.33535C16.3165 4.9871 14.531 4.16473 12.6301 4.01644ZM12.2581 8.0244C11.7926 7.94455 11.3138 8.03203 10.9066 8.27135C10.4994 8.51066 10.1901 8.88637 10.0333 9.33193C9.85006 9.85292 9.27914 10.1267 8.75815 9.94342C8.23716 9.76015 7.96339 9.18923 8.14666 8.66824C8.46013 7.77713 9.07886 7.02571 9.89326 6.54708C10.7077 6.06845 11.6652 5.89349 12.5962 6.05319C13.5273 6.21289 14.3717 6.69694 14.9801 7.41961C15.5883 8.14213 15.9213 9.05656 15.92 10.001C15.9195 11.5314 14.7849 12.542 13.9747 13.0821C13.5391 13.3726 13.1105 13.5861 12.7949 13.7264C12.6356 13.7972 12.5015 13.8509 12.4049 13.8877C12.3565 13.9061 12.3173 13.9204 12.2887 13.9306L12.254 13.9427L12.2429 13.9465L12.239 13.9478L12.2375 13.9483C12.2372 13.9484 12.2362 13.9488 11.92 13.0001L12.2362 13.9488C11.7123 14.1234 11.146 13.8403 10.9713 13.3163C10.7967 12.7925 11.0796 12.2264 11.6032 12.0516L11.6021 12.052C11.6022 12.0519 11.6022 12.0519 11.6032 12.0516L11.6187 12.0461C11.6341 12.0407 11.6593 12.0315 11.6929 12.0187C11.7603 11.993 11.8606 11.953 11.9826 11.8988C12.2294 11.7891 12.5509 11.6276 12.8653 11.418C13.5549 10.9583 13.92 10.4692 13.92 10.0001L13.92 9.99859C13.9207 9.52627 13.7542 9.06895 13.45 8.70761C13.1459 8.34628 12.7236 8.10425 12.2581 8.0244ZM11 17C11 16.4477 11.4477 16 12 16H12.01C12.5623 16 13.01 16.4477 13.01 17C13.01 17.5523 12.5623 18 12.01 18H12C11.4477 18 11 17.5523 11 17Z" fill="black" style="fill:black;fill-opacity:1;"/>
</svg>
