<svg width="24" height="24" viewBox="0 0 24 24" fill="none" xmlns="http://www.w3.org/2000/svg">
<path fill-rule="evenodd" clip-rule="evenodd" d="M4 4C3.44772 4 3 4.44772 3 5V15C3 15.5523 3.44772 16 4 16H20C20.5523 16 21 15.5523 21 15V5C21 4.44771 20.5523 4 20 4H4ZM13 18H20C21.6569 18 23 16.6569 23 15V5C23 3.34315 21.6569 2 20 2H4C2.34315 2 1 3.34315 1 5V15C1 16.6569 2.34315 18 4 18H11V20H8C7.44772 20 7 20.4477 7 21C7 21.5523 7.44772 22 8 22H16C16.5523 22 17 21.5523 17 21C17 20.4477 16.5523 20 16 20H13V18ZM8.79289 6.79289C9.18342 6.40237 9.81658 6.40237 10.2071 6.79289L12 8.58579L13.7929 6.79289C14.1834 6.40237 14.8166 6.40237 15.2071 6.79289C15.5976 7.18342 15.5976 7.81658 15.2071 8.20711L13.4142 10L15.2071 11.7929C15.5976 12.1834 15.5976 12.8166 15.2071 13.2071C14.8166 13.5976 14.1834 13.5976 13.7929 13.2071L12 11.4142L10.2071 13.2071C9.81658 13.5976 9.18342 13.5976 8.79289 13.2071C8.40237 12.8166 8.40237 12.1834 8.79289 11.7929L10.5858 10L8.79289 8.20711C8.40237 7.81658 8.40237 7.18342 8.79289 6.79289Z" fill="black" style="fill:black;fill-opacity:1;"/>
</svg>
