<svg width="24" height="24" viewBox="0 0 24 24" fill="none" xmlns="http://www.w3.org/2000/svg">
<path fill-rule="evenodd" clip-rule="evenodd" d="M4 4C3.44772 4 3 4.44772 3 5V15C3 15.5523 3.44772 16 4 16H20C20.5523 16 21 15.5523 21 15V5C21 4.44771 20.5523 4 20 4H4ZM13 18H20C21.6569 18 23 16.6569 23 15V5C23 3.34315 21.6569 2 20 2H4C2.34315 2 1 3.34315 1 5V15C1 16.6569 2.34315 18 4 18H11V20H8C7.44772 20 7 20.4477 7 21C7 21.5523 7.44772 22 8 22H16C16.5523 22 17 21.5523 17 21C17 20.4477 16.5523 20 16 20H13V18ZM9.5073 6.1298C9.82081 5.95229 10.2056 5.95715 10.5145 6.14251L15.5145 9.14251C15.8157 9.32323 16 9.64874 16 10C16 10.3513 15.8157 10.6768 15.5145 10.8575L10.5145 13.8575C10.2056 14.0429 9.82081 14.0477 9.5073 13.8702C9.19379 13.6927 9 13.3603 9 13V7C9 6.63973 9.19379 6.30731 9.5073 6.1298ZM11 8.76619V11.2338L13.0563 10L11 8.76619Z" fill="black" style="fill:black;fill-opacity:1;"/>
</svg>
