<svg width="24" height="24" viewBox="0 0 24 24" fill="none" xmlns="http://www.w3.org/2000/svg">
<path fill-rule="evenodd" clip-rule="evenodd" d="M11.2929 1.29289C11.6834 0.902369 12.3166 0.902369 12.7071 1.29289L16.7071 5.29289C17.0976 5.68342 17.0976 6.31658 16.7071 6.70711C16.3166 7.09763 15.6834 7.09763 15.2929 6.70711L13 4.41421V19.5858L15.2929 17.2929C15.6834 16.9024 16.3166 16.9024 16.7071 17.2929C17.0976 17.6834 17.0976 18.3166 16.7071 18.7071L12.7071 22.7071C12.3166 23.0976 11.6834 23.0976 11.2929 22.7071L7.29289 18.7071C6.90237 18.3166 6.90237 17.6834 7.29289 17.2929C7.68342 16.9024 8.31658 16.9024 8.70711 17.2929L11 19.5858V4.41421L8.70711 6.70711C8.31658 7.09763 7.68342 7.09763 7.29289 6.70711C6.90237 6.31658 6.90237 5.68342 7.29289 5.29289L11.2929 1.29289Z" fill="black" style="fill:black;fill-opacity:1;"/>
</svg>
