<svg width="24" height="24" viewBox="0 0 24 24" fill="none" xmlns="http://www.w3.org/2000/svg">
<path fill-rule="evenodd" clip-rule="evenodd" d="M15.8741 1.13168C16.3536 0.857733 16.9645 1.02441 17.2384 1.50396C19.0646 4.70064 20.0251 8.31846 20.0251 12C20.0251 15.6815 19.0646 19.2993 17.2384 22.496C16.9645 22.9756 16.3536 23.1422 15.8741 22.8683C15.3945 22.5943 15.2279 21.9835 15.5018 21.504C17.1553 18.6094 18.0251 15.3335 18.0251 12C18.0251 8.66643 17.1553 5.39056 15.5018 2.49602C15.2279 2.01647 15.3945 1.40563 15.8741 1.13168ZM12.4128 3.23239C12.892 2.95785 13.5031 3.12378 13.7776 3.60299C15.2418 6.15877 16.013 9.05266 16.0148 11.9981C16.0167 14.9436 15.2492 17.8385 13.7882 20.3961C13.5143 20.8756 12.9035 21.0423 12.4239 20.7684C11.9443 20.4945 11.7776 19.8837 12.0516 19.4041C13.3397 17.149 14.0165 14.5965 14.0148 11.9994C14.0132 9.40229 13.3332 6.85067 12.0422 4.59718C11.7677 4.11796 11.9336 3.50692 12.4128 3.23239ZM8.9676 5.33955C9.44831 5.06763 10.0584 5.23689 10.3303 5.7176C11.4144 7.63398 11.9841 9.79823 11.9841 11.9999C11.9841 14.2017 11.4144 16.3659 10.3303 18.2823C10.0584 18.763 9.44831 18.9323 8.9676 18.6603C8.48689 18.3884 8.31764 17.7783 8.58955 17.2976C9.50365 15.6816 9.98406 13.8566 9.98406 11.9999C9.98406 10.1433 9.50365 8.3183 8.58955 6.7023C8.31764 6.22159 8.48689 5.61147 8.9676 5.33955ZM5.5047 7.45133C5.98448 7.17779 6.59518 7.34498 6.86872 7.82477C7.59395 9.0968 7.97534 10.5358 7.97534 12.0001C7.97534 13.4643 7.59395 14.9033 6.86872 16.1753C6.59518 16.6551 5.98448 16.8223 5.5047 16.5488C5.02491 16.2752 4.85772 15.6646 5.13126 15.1848C5.68443 14.2145 5.97534 13.1169 5.97534 12.0001C5.97534 10.8832 5.68443 9.78559 5.13126 8.81535C4.85772 8.33556 5.02491 7.72487 5.5047 7.45133Z" fill="black" style="fill:black;fill-opacity:1;"/>
</svg>
