<svg width="24" height="24" viewBox="0 0 24 24" fill="none" xmlns="http://www.w3.org/2000/svg">
<path fill-rule="evenodd" clip-rule="evenodd" d="M5 4C4.44772 4 4 4.44772 4 5V19C4 19.5523 4.44771 20 5 20H14V4H5ZM5 2C3.34315 2 2 3.34315 2 5V19C2 20.6569 3.34315 22 5 22H19C20.6569 22 22 20.6569 22 19V5C22 3.34315 20.6569 2 19 2H5ZM16 4V20H19C19.5523 20 20 19.5523 20 19V5C20 4.44771 19.5523 4 19 4H16ZM7.29289 8.29289C7.68342 7.90237 8.31658 7.90237 8.70711 8.29289L11.7071 11.2929C12.0976 11.6834 12.0976 12.3166 11.7071 12.7071L8.70711 15.7071C8.31658 16.0976 7.68342 16.0976 7.29289 15.7071C6.90237 15.3166 6.90237 14.6834 7.29289 14.2929L9.58579 12L7.29289 9.70711C6.90237 9.31658 6.90237 8.68342 7.29289 8.29289Z" fill="black" style="fill:black;fill-opacity:1;"/>
</svg>
