<svg width="24" height="24" viewBox="0 0 24 24" fill="none" xmlns="http://www.w3.org/2000/svg">
<path fill-rule="evenodd" clip-rule="evenodd" d="M5 4C4.44772 4 4 4.44772 4 5V19C4 19.5523 4.44771 20 5 20H8V4H5ZM5 2C3.34315 2 2 3.34315 2 5V19C2 20.6569 3.34315 22 5 22H19C20.6569 22 22 20.6569 22 19V5C22 3.34315 20.6569 2 19 2H5ZM10 4V20H19C19.5523 20 20 19.5523 20 19V5C20 4.44771 19.5523 4 19 4H10ZM13.2929 8.29289C13.6834 7.90237 14.3166 7.90237 14.7071 8.29289L17.7071 11.2929C18.0976 11.6834 18.0976 12.3166 17.7071 12.7071L14.7071 15.7071C14.3166 16.0976 13.6834 16.0976 13.2929 15.7071C12.9024 15.3166 12.9024 14.6834 13.2929 14.2929L15.5858 12L13.2929 9.70711C12.9024 9.31658 12.9024 8.68342 13.2929 8.29289Z" fill="black" style="fill:black;fill-opacity:1;"/>
</svg>
