<svg width="24" height="24" viewBox="0 0 24 24" fill="none" xmlns="http://www.w3.org/2000/svg">
<path fill-rule="evenodd" clip-rule="evenodd" d="M8.60071 3.79947L8.60228 3.79828L8.60314 3.79763L8.60071 3.79947L8.57977 3.81602C8.55893 3.8327 8.52468 3.86065 8.47892 3.89988C8.38733 3.97838 8.25004 4.10167 8.08211 4.2696C7.74575 4.60596 7.28979 5.11809 6.83205 5.8047C5.91914 7.17407 5 9.2343 5 12C5 14.7657 5.91914 16.8259 6.83205 18.1953C7.28979 18.8819 7.74575 19.394 8.08211 19.7304C8.25004 19.8983 8.38733 20.0216 8.47892 20.1001C8.52468 20.1393 8.55893 20.1673 8.57977 20.184L8.6007 20.2005L8.6031 20.2023L8.60228 20.2017L8.6007 20.2005M8.60071 3.79947C9.04166 3.4679 9.13112 2.84149 8.8 2.4C8.46863 1.95817 7.84183 1.86863 7.4 2.2L8 3C7.4 2.2 7.4 2.2 7.4 2.2L7.39831 2.20126L7.39626 2.20281L7.39106 2.20676L7.37635 2.21806C7.36467 2.22711 7.34926 2.23918 7.33038 2.25429C7.29263 2.28449 7.24094 2.32684 7.17733 2.38137C7.05017 2.49036 6.87496 2.64832 6.66789 2.85539C6.25425 3.26903 5.71021 3.88191 5.16795 4.6953C4.08086 6.32593 3 8.76569 3 12C3 15.2343 4.08086 17.6741 5.16795 19.3047C5.71021 20.1181 6.25425 20.731 6.66789 21.1446C6.87496 21.3517 7.05017 21.5096 7.17733 21.6186C7.24094 21.6732 7.29263 21.7155 7.33038 21.7457C7.34926 21.7608 7.36467 21.7729 7.37635 21.7819L7.39106 21.7932L7.39626 21.7972L7.3992 21.7994C7.3992 21.7994 7.4 21.8 8 21M15.2 2.4C15.5314 1.95817 16.1582 1.86863 16.6 2.2L16 3C16.6 2.2 16.6 2.2 16.6 2.2L16.6017 2.20126L16.6037 2.20281L16.6089 2.20676L16.6236 2.21806C16.6353 2.22711 16.6507 2.23918 16.6696 2.25429C16.7074 2.28449 16.7591 2.32684 16.8227 2.38137C16.9498 2.49036 17.125 2.64832 17.3321 2.85539C17.7457 3.26903 18.2898 3.88191 18.8321 4.6953C19.9191 6.32593 21 8.76569 21 12C21 15.2343 19.9191 17.6741 18.8321 19.3047C18.2898 20.1181 17.7457 20.731 17.3321 21.1446C17.125 21.3517 16.9498 21.5096 16.8227 21.6186C16.7591 21.6732 16.7074 21.7155 16.6696 21.7457C16.6507 21.7608 16.6353 21.7729 16.6236 21.7819L16.6089 21.7932L16.6037 21.7972L16.6008 21.7994C16.6008 21.7994 16.6 21.8 16 21L16.6008 21.7994C16.159 22.1308 15.5314 22.0418 15.2 21.6C14.8693 21.1591 14.9578 20.534 15.3972 20.2021L15.3989 20.2008L15.4202 20.184C15.4411 20.1673 15.4753 20.1393 15.5211 20.1001C15.6127 20.0216 15.75 19.8983 15.9179 19.7304C16.2543 19.394 16.7102 18.8819 17.1679 18.1953C18.0809 16.8259 19 14.7657 19 12C19 9.2343 18.0809 7.17407 17.1679 5.8047C16.7102 5.11809 16.2543 4.60596 15.9179 4.2696C15.75 4.10167 15.6127 3.97838 15.5211 3.89988C15.4753 3.86065 15.4411 3.8327 15.4202 3.81602L15.3993 3.79951C15.3976 3.79817 15.3969 3.79763 15.3969 3.79763L15.3977 3.79828L15.3993 3.79951C14.9581 3.468 14.8688 2.84159 15.2 2.4Z" fill="black" style="fill:black;fill-opacity:1;"/>
</svg>
