<svg width="24" height="24" viewBox="0 0 24 24" fill="none" xmlns="http://www.w3.org/2000/svg">
<path fill-rule="evenodd" clip-rule="evenodd" d="M10.666 1.07978C11.8162 0.885255 12.9951 0.944641 14.12 1.25378C15.2448 1.56291 16.2885 2.11431 17.1777 2.86934C18.067 3.62436 18.7804 4.56474 19.2679 5.62455C19.7551 6.68368 20.0049 7.83647 19.9999 9.00224C19.9997 9.89392 19.8864 10.7089 19.5447 11.6285C19.0429 13.1831 18.3943 15.104 17.8713 16.6356C17.6083 17.4056 17.3767 18.0786 17.2108 18.5591C17.1278 18.7994 17.0613 18.9916 17.0155 19.1238L16.9447 19.3276C16.9447 19.3276 16.9444 19.3285 15.9999 18.9999L16.9447 19.3276C16.8049 19.7296 16.4256 19.9999 15.9999 19.9999H13V22C13 22.5523 12.5523 23 12 23C11.4477 23 11 22.5523 11 22V19.9999H7.99993C7.57427 19.9999 7.19527 19.7305 7.05543 19.3285L6.98439 19.1238C6.93856 18.9916 6.87202 18.7994 6.78906 18.5591C6.62315 18.0786 6.39152 17.4056 6.12858 16.6356C5.60459 15.1011 4.95447 13.1758 4.45232 11.6197C4.06723 10.5236 3.92545 9.35685 4.03689 8.20039C4.14879 7.0392 4.51329 5.91654 5.10484 4.91108C5.69639 3.90562 6.50068 3.0417 7.46134 2.37987C8.42199 1.71803 9.51577 1.2743 10.666 1.07978ZM8.71186 17.9999H15.288C15.2985 17.9696 15.3092 17.9384 15.3203 17.9064C15.4857 17.4275 15.7165 16.7567 15.9786 15.9893C16.5032 14.453 17.1509 12.5346 17.6482 10.9929C17.653 10.9781 17.6581 10.9634 17.6636 10.9488C17.915 10.2785 17.9999 9.70008 17.9999 8.99995V8.99535C18.0039 8.12043 17.8166 7.25522 17.451 6.46036C17.0853 5.6655 16.5503 4.96021 15.8833 4.39395C15.2164 3.82768 14.4336 3.41413 13.59 3.18228C12.7463 2.95042 11.8622 2.90588 10.9995 3.05178C10.1368 3.19767 9.31649 3.53047 8.596 4.02684C7.87551 4.52322 7.27229 5.17116 6.82863 5.92525C6.38497 6.67935 6.11159 7.52135 6.02767 8.39224C5.94374 9.26313 6.0513 10.1418 6.34279 10.9668C6.34586 10.9755 6.34881 10.9842 6.35164 10.9929C6.84893 12.5346 7.49669 14.453 8.02128 15.9893C8.28333 16.7568 8.5142 17.4275 8.67954 17.9064C8.69061 17.9384 8.70139 17.9696 8.71186 17.9999ZM12 7C11.4696 7 10.9609 7.21071 10.5858 7.58579C10.2107 7.96086 10 8.46957 10 9C10 9.55228 9.55228 10 9 10C8.44772 10 8 9.55228 8 9C8 7.93913 8.42143 6.92172 9.17157 6.17157C9.92172 5.42143 10.9391 5 12 5C13.0609 5 14.0783 5.42143 14.8284 6.17157C15.5786 6.92172 16 7.93913 16 9C16 9.55228 15.5523 10 15 10C14.4477 10 14 9.55228 14 9C14 8.46957 13.7893 7.96086 13.4142 7.58579C13.0391 7.21071 12.5304 7 12 7ZM12 11C12.5523 11 13 11.4477 13 12V14C13.5523 14 14 14.4477 14 15C14 15.5523 13.5523 16 13 16H11C10.4477 16 10 15.5523 10 15C10 14.4477 10.4477 14 11 14V12C11 11.4477 11.4477 11 12 11Z" fill="black" style="fill:black;fill-opacity:1;"/>
</svg>
