<svg width="24" height="24" viewBox="0 0 24 24" fill="none" xmlns="http://www.w3.org/2000/svg">
<path fill-rule="evenodd" clip-rule="evenodd" d="M12 3C7.02944 3 3 7.02944 3 12C3 16.9706 7.02944 21 12 21C16.9706 21 21 16.9706 21 12C21 7.02944 16.9706 3 12 3ZM1 12C1 5.92487 5.92487 1 12 1C18.0751 1 23 5.92487 23 12C23 18.0751 18.0751 23 12 23C5.92487 23 1 18.0751 1 12ZM8 7C8 6.44772 8.44772 6 9 6H13C14.0609 6 15.0783 6.42143 15.8284 7.17157C16.5786 7.92172 17 8.93913 17 10C17 11.0609 16.5786 12.0783 15.8284 12.8284C15.0783 13.5786 14.0609 14 13 14H10V17C10 17.5523 9.55228 18 9 18C8.44772 18 8 17.5523 8 17V7ZM10 12H13C13.5304 12 14.0391 11.7893 14.4142 11.4142C14.7893 11.0391 15 10.5304 15 10C15 9.46957 14.7893 8.96086 14.4142 8.58579C14.0391 8.21071 13.5304 8 13 8H10V12Z" fill="black" style="fill:black;fill-opacity:1;"/>
</svg>
