<svg width="24" height="24" viewBox="0 0 24 24" fill="none" xmlns="http://www.w3.org/2000/svg">
<path fill-rule="evenodd" clip-rule="evenodd" d="M4.9681 6.38231C3.73647 7.92199 3 9.87499 3 12C3 16.9706 7.02944 21 12 21C14.125 21 16.078 20.2635 17.6177 19.0319L4.9681 6.38231ZM6.38231 4.9681L8.0633 6.64909C8.20542 6.2699 8.57119 6 9 6H13C14.0609 6 15.0783 6.42143 15.8284 7.17157C16.5786 7.92172 17 8.93913 17 10C17 11.0609 16.5786 12.0783 15.8284 12.8284C15.5576 13.0992 15.252 13.3272 14.9221 13.5079L19.0319 17.6177C20.2635 16.078 21 14.125 21 12C21 7.02944 16.9706 3 12 3C9.87499 3 7.92199 3.73647 6.38231 4.9681ZM13.3781 11.9639C13.7679 11.8889 14.1295 11.6989 14.4142 11.4142C14.7893 11.0391 15 10.5304 15 10C15 9.46957 14.7893 8.96086 14.4142 8.58579C14.0391 8.21071 13.5304 8 13 8H10V8.58579L13.3781 11.9639ZM1 12C1 5.92487 5.92487 1 12 1C18.0751 1 23 5.92487 23 12C23 18.0751 18.0751 23 12 23C5.92487 23 1 18.0751 1 12ZM9 13.6599C9.55228 13.6599 10 14.1076 10 14.6599V16.9999C10 17.5522 9.55228 17.9999 9 17.9999C8.44772 17.9999 8 17.5522 8 16.9999V14.6599C8 14.1076 8.44772 13.6599 9 13.6599Z" fill="black" style="fill:black;fill-opacity:1;"/>
</svg>
