<svg width="24" height="24" viewBox="0 0 24 24" fill="none" xmlns="http://www.w3.org/2000/svg">
<path fill-rule="evenodd" clip-rule="evenodd" d="M22.9483 1.68253C23.1236 2.20624 22.8412 2.77294 22.3175 2.94829L20.0761 3.69878C19.6583 3.83793 19.3019 4.11785 19.0676 4.4907C18.8334 4.86355 18.7359 5.30617 18.7919 5.74292L18.7934 5.75452C18.9616 7.20061 17.8361 8.50003 16.35 8.50003H15.97C15.5782 8.50003 15.2603 8.77042 15.1924 9.12714L15.191 9.13437L14.981 10.1944C14.8736 10.7361 14.3474 11.0883 13.8057 10.981C13.2639 10.8736 12.9118 10.3474 13.0191 9.80569L13.2284 8.74896C13.4821 7.42778 14.6432 6.50003 15.97 6.50003H16.35C16.6227 6.50003 16.8366 6.26166 16.8071 5.98934C16.6944 5.0954 16.8947 4.1899 17.3741 3.4268C17.8547 2.66168 18.5861 2.0872 19.4433 1.8015C19.4431 1.80157 19.4436 1.80143 19.4433 1.8015L21.6825 1.05177C22.2062 0.876419 22.7729 1.15882 22.9483 1.68253ZM10.6267 1.07233C11.139 0.866143 11.7215 1.11434 11.9277 1.62669L12.26 2.45236C12.8338 3.90366 11.9241 5.51576 10.3932 5.78492C10.3826 5.78678 10.3721 5.78846 10.3614 5.78998C10.1726 5.81695 10 5.99874 10 6.23003V7.00003C10 7.55231 9.55231 8.00003 9.00003 8.00003C8.44774 8.00003 8.00003 7.55231 8.00003 7.00003V6.23003C8.00003 5.04858 8.85686 3.99605 10.0564 3.81335C10.339 3.75763 10.5043 3.455 10.4009 3.18976L10.0723 2.37337C9.86614 1.86102 10.1143 1.27852 10.6267 1.07233ZM14 2.00003C14 1.44774 14.4477 1.00003 15 1.00003H15.01C15.5623 1.00003 16.01 1.44774 16.01 2.00003C16.01 2.55231 15.5623 3.00003 15.01 3.00003H15C14.4477 3.00003 14 2.55231 14 2.00003ZM3.00003 3.00003C3.00003 2.44774 3.44774 2.00003 4.00003 2.00003H4.01003C4.56231 2.00003 5.01003 2.44774 5.01003 3.00003C5.01003 3.55231 4.56231 4.00003 4.01003 4.00003H4.00003C3.44774 4.00003 3.00003 3.55231 3.00003 3.00003ZM21 8.00003C21 7.44774 21.4477 7.00003 22 7.00003H22.01C22.5623 7.00003 23.01 7.44774 23.01 8.00003C23.01 8.55231 22.5623 9.00003 22.01 9.00003H22C21.4477 9.00003 21 8.55231 21 8.00003ZM4.78307 11.1755C4.87204 10.8597 5.03233 10.5535 5.29294 10.2929C5.73966 9.84622 6.32018 9.69427 6.85392 9.691C7.3815 9.68777 7.93212 9.82555 8.45938 10.0367C9.5175 10.4606 10.67 11.2558 11.7072 12.2929C12.7443 13.3301 13.5395 14.4826 13.9633 15.5407C14.1745 16.068 14.3123 16.6186 14.3091 17.1462C14.3058 17.6799 14.1539 18.2604 13.7072 18.7072C13.5637 18.8506 13.4064 18.9637 13.2412 19.0512C13.1776 19.0921 13.1083 19.1263 13.0339 19.1527L2.33391 22.9427C1.97038 23.0715 1.56521 22.9797 1.29263 22.7069C1.02004 22.4341 0.928626 22.0288 1.05769 21.6654L4.78307 11.1755ZM5.66213 14.6765L3.64489 20.3566L9.33098 18.3425C8.64077 17.9141 7.94412 17.3583 7.29294 16.7072C6.64407 16.0583 6.0899 15.3643 5.66213 14.6765ZM12.2898 17.2898C12.2977 17.2672 12.3086 17.2199 12.3091 17.1339C12.3103 16.9478 12.258 16.6621 12.1067 16.2844C11.8056 15.5325 11.1858 14.6 10.2929 13.7072C9.40009 12.8143 8.46759 12.1945 7.71571 11.8933C7.33797 11.742 7.05234 11.6898 6.86617 11.691C6.78714 11.6914 6.74074 11.7007 6.71623 11.7083L6.69914 11.7564C6.69475 11.7827 6.69126 11.8185 6.69096 11.8662C6.68982 12.0523 6.74204 12.338 6.89334 12.7157C7.19451 13.4676 7.81431 14.4001 8.70715 15.2929C9.6 16.1858 10.5325 16.8056 11.2844 17.1067C11.6621 17.258 11.9478 17.3103 12.1339 17.3091C12.2199 17.3086 12.2672 17.2976 12.2898 17.2898ZM18.2151 13.6068C18.4843 12.0759 20.0964 11.1662 21.5477 11.74L21.5534 11.7422L22.3734 12.0723C22.8857 12.2785 23.1339 12.8609 22.9277 13.3733C22.7215 13.8857 22.139 14.1338 21.6267 13.9277L20.8124 13.5999C20.8117 13.5996 20.811 13.5994 20.8103 13.5991C20.5438 13.4952 20.2395 13.6626 20.1859 13.9477C19.9939 15.1299 18.966 16 17.77 16H17C16.4477 16 16 15.5522 16 15C16 14.4477 16.4477 14 17 14H17.77C17.9899 14 18.1789 13.8361 18.2122 13.6247L18.2151 13.6068ZM21 20C21 19.4477 21.4477 19 22 19H22.01C22.5623 19 23.01 19.4477 23.01 20C23.01 20.5523 22.5623 21 22.01 21H22C21.4477 21 21 20.5523 21 20Z" fill="black" style="fill:black;fill-opacity:1;"/>
</svg>
