<svg width="24" height="24" viewBox="0 0 24 24" fill="none" xmlns="http://www.w3.org/2000/svg">
<path fill-rule="evenodd" clip-rule="evenodd" d="M10.2285 2.57936C10.7484 2.21741 11.3666 2.02338 12 2.02338C12.6334 2.02338 13.2516 2.21741 13.7714 2.57936L13.7823 2.58695L21.1812 7.88627C21.1816 7.88652 21.1819 7.88677 21.1822 7.88702C22.2207 8.62947 22.6983 9.98457 22.2454 11.2266L19.4519 19.9064C19.447 19.9214 19.4418 19.9363 19.4363 19.9511C19.0192 21.0633 17.9945 22 16.6 22H7.49997C6.10545 22 5.0807 21.0633 4.66364 19.9511C4.65809 19.9363 4.6529 19.9214 4.64806 19.9064L1.85455 11.2265C1.40203 9.98552 1.87847 8.63156 2.91529 7.88873L10.2125 2.59079L10.2285 2.57936ZM11.3782 4.21595L4.08123 9.51377C3.7273 9.76657 3.6047 10.1979 3.7363 10.5489C3.74185 10.5637 3.74705 10.5786 3.75189 10.5936L6.54373 19.2683C6.72926 19.7437 7.0999 20 7.49997 20H16.6C17 20 17.3707 19.7437 17.5562 19.2683L20.3481 10.5936C20.3529 10.5786 20.3581 10.5637 20.3636 10.5489C20.4952 10.1979 20.3727 9.76655 20.0187 9.51374L20.0177 9.513L12.6239 4.21747C12.4404 4.09109 12.2229 4.02338 12 4.02338C11.778 4.02338 11.5612 4.09054 11.3782 4.21595Z" fill="black" style="fill:black;fill-opacity:1;"/>
</svg>
