<svg width="24" height="24" viewBox="0 0 24 24" fill="none" xmlns="http://www.w3.org/2000/svg">
<path d="M19.89 22.93C19.8 22.93 19.71 22.93 19.61 22.92C16.38 22.57 13.24 21.45 10.53 19.69C8.01 18.09 5.83 15.91 4.23 13.39C2.47 10.67 1.36 7.51999 1.01 4.28999C0.970002 3.85999 1.01 3.44999 1.15 3.04999C1.28 2.64999 1.5 2.28999 1.78 1.97999C2.06 1.67999 2.4 1.42999 2.78 1.25999C3.17 1.08999 3.58 0.999993 4 0.999993H7C7.72 0.969993 8.42 1.24999 8.98 1.72999C9.53 2.20999 9.89 2.85999 9.99 3.58999C10.11 4.47999 10.33 5.35999 10.64 6.18999C10.84 6.72999 10.89 7.30999 10.76 7.86999C10.64 8.42999 10.36 8.94999 9.96 9.34999L9.24 10.07C10.41 11.91 11.98 13.48 13.83 14.66L14.55 13.94C14.96 13.53 15.48 13.25 16.04 13.14C16.6 13.02 17.18 13.06 17.72 13.26C18.55 13.57 19.43 13.79 20.31 13.91C21.05 14.01 21.71 14.38 22.19 14.94C22.66 15.5 22.92 16.21 22.9 16.94V19.93C22.9 20.35 22.82 20.75 22.65 21.14C22.48 21.53 22.24 21.87 21.93 22.15C21.62 22.43 21.26 22.65 20.86 22.78C20.55 22.88 20.23 22.94 19.9 22.94L19.89 22.93ZM7.02 2.99999H4C3.86 2.99999 3.73 3.02999 3.6 3.08999C3.47 3.14999 3.36 3.22999 3.27 3.32999C3.17 3.42999 3.1 3.54999 3.06 3.68999C3.02 3.81999 3 3.95999 3.01 4.09999C3.32 6.99999 4.33 9.84999 5.92 12.32C7.37 14.6 9.34 16.57 11.62 18.02C14.08 19.62 16.92 20.62 19.82 20.94C19.94 20.94 20.08 20.94 20.21 20.89C20.34 20.85 20.46 20.77 20.57 20.68C20.67 20.58 20.75 20.47 20.81 20.34C20.87 20.21 20.9 20.07 20.89 19.93V16.9C20.89 16.65 20.81 16.42 20.65 16.23C20.49 16.04 20.27 15.92 20.03 15.89C19.01 15.76 17.99 15.5 17.01 15.14C16.83 15.07 16.64 15.06 16.45 15.1C16.26 15.14 16.09 15.23 15.95 15.37L14.69 16.64C14.37 16.96 13.88 17.02 13.49 16.8C10.83 15.29 8.63 13.08 7.11 10.42C6.89 10.03 6.95 9.53999 7.27 9.21999L8.54 7.94999C8.67 7.81999 8.76 7.64999 8.8 7.45999C8.84 7.26999 8.82 7.07999 8.76 6.89999C8.4 5.92999 8.14 4.90999 8.01 3.86999C7.98 3.63999 7.86 3.41999 7.67 3.25999C7.49 3.09999 7.26 3.01999 7.02 3.01999V2.99999ZM21.89 8.99999C21.34 8.99999 20.89 8.54999 20.89 7.99999V4.40999L16.6 8.69999C16.21 9.08999 15.58 9.08999 15.19 8.69999C14.8 8.30999 14.8 7.67999 15.19 7.28999L19.48 2.99999H15.89C15.34 2.99999 14.89 2.54999 14.89 1.99999C14.89 1.44999 15.33 0.999993 15.89 0.999993H21.89C22.02 0.999993 22.15 1.02999 22.27 1.07999C22.38 1.12999 22.48 1.18999 22.58 1.27999C22.58 1.27999 22.6 1.29999 22.61 1.30999C22.7 1.39999 22.76 1.50999 22.81 1.61999C22.86 1.73999 22.89 1.86999 22.89 1.99999V7.99999C22.89 8.54999 22.44 8.99999 21.89 8.99999Z" fill="black" style="fill:black;fill-opacity:1;"/>
</svg>
