<svg width="24" height="24" viewBox="0 0 24 24" fill="none" xmlns="http://www.w3.org/2000/svg">
<path fill-rule="evenodd" clip-rule="evenodd" d="M1.87868 3.87868C2.44129 3.31607 3.20435 3 4 3H19C19.7957 3 20.5587 3.31607 21.1213 3.87868C21.6839 4.44129 22 5.20435 22 6V9C22 9.55228 21.5523 10 21 10C20.4477 10 20 9.55228 20 9V6C20 5.73478 19.8946 5.48043 19.7071 5.29289C19.5196 5.10536 19.2652 5 19 5H4C3.73478 5 3.48043 5.10536 3.29289 5.29289C3.10536 5.48043 3 5.73478 3 6V16C3 16.5477 3.45228 17 4 17H8C8.55228 17 9 17.4477 9 18C9 18.5523 8.55228 19 8 19H4C2.34772 19 1 17.6523 1 16V6C1 5.20435 1.31607 4.44129 1.87868 3.87868ZM14 14C13.4477 14 13 14.4477 13 15V18C13 18.5523 13.4477 19 14 19H20C20.5523 19 21 18.5523 21 18V15C21 14.4477 20.5523 14 20 14H14ZM11 15C11 13.3431 12.3431 12 14 12H20C21.6569 12 23 13.3431 23 15V18C23 19.6569 21.6569 21 20 21H14C12.3431 21 11 19.6569 11 18V15Z" fill="black" style="fill:black;fill-opacity:1;"/>
</svg>
