<svg width="24" height="24" viewBox="0 0 24 24" fill="none" xmlns="http://www.w3.org/2000/svg">
<path fill-rule="evenodd" clip-rule="evenodd" d="M9 1C9.55228 1 10 1.44772 10 2V7H14V2C14 1.44772 14.4477 1 15 1C15.5523 1 16 1.44772 16 2V7H18C18.5523 7 19 7.44772 19 8V13C19 14.3261 18.4732 15.5979 17.5355 16.5355C16.5979 17.4732 15.3261 18 14 18H13V22C13 22.5523 12.5523 23 12 23C11.4477 23 11 22.5523 11 22V18H10C8.67392 18 7.40215 17.4732 6.46447 16.5355C5.52678 15.5979 5 14.3261 5 13V8C5 7.44772 5.44772 7 6 7H8V2C8 1.44772 8.44772 1 9 1ZM7 9V13C7 13.7956 7.31607 14.5587 7.87868 15.1213C8.44129 15.6839 9.20435 16 10 16H14C14.7956 16 15.5587 15.6839 16.1213 15.1213C16.6839 14.5587 17 13.7956 17 13V9H7Z" fill="black" style="fill:black;fill-opacity:1;"/>
</svg>
