<svg width="24" height="24" viewBox="0 0 24 24" fill="none" xmlns="http://www.w3.org/2000/svg">
<path fill-rule="evenodd" clip-rule="evenodd" d="M6.04297 2.98455C7.76614 1.70655 9.85463 1.0166 12 1.0166C14.1454 1.0166 16.2339 1.70655 17.957 2.98455C19.6802 4.26255 20.9467 6.06085 21.5694 8.11384C22.1922 10.1668 22.1382 12.3657 21.4154 14.3856C20.6926 16.4056 19.3394 18.1395 17.5556 19.3314C17.0963 19.6382 16.4753 19.5147 16.1685 19.0555C15.8617 18.5963 15.9852 17.9753 16.4444 17.6684C17.8715 16.7149 18.9541 15.3278 19.5323 13.7118C20.1105 12.0959 20.1537 10.3368 19.6555 8.69439C19.1573 7.052 18.1442 5.61336 16.7656 4.59096C15.3871 3.56856 13.7163 3.0166 12 3.0166C10.2837 3.0166 8.61291 3.56856 7.23438 4.59096C5.85584 5.61336 4.84266 7.052 4.34446 8.69439C3.84626 10.3368 3.88946 12.0959 4.46768 13.7118C5.04591 15.3278 6.12849 16.7149 7.55556 17.6684C8.01477 17.9753 8.1383 18.5963 7.83148 19.0555C7.52465 19.5147 6.90366 19.6382 6.44445 19.3314C4.66062 18.1395 3.30738 16.4056 2.5846 14.3856C1.86183 12.3657 1.80782 10.1668 2.43057 8.11384C3.05332 6.06085 4.3198 4.26255 6.04297 2.98455ZM12 7C11.2572 7 10.529 7.20686 9.89708 7.5974C9.26517 7.98794 8.75451 8.54672 8.42229 9.21115C8.09008 9.87557 7.94945 10.6194 8.01617 11.3592C8.08288 12.0991 8.35429 12.8057 8.8 13.4C9.13137 13.8418 9.04183 14.4686 8.6 14.8C8.15817 15.1314 7.53137 15.0418 7.2 14.6C6.53144 13.7086 6.12431 12.6486 6.02425 11.5388C5.92418 10.4291 6.13512 9.31335 6.63344 8.31672C7.13176 7.32008 7.89776 6.4819 8.84562 5.8961C9.79347 5.31029 10.8857 5 12 5C13.1143 5 14.2065 5.31029 15.1544 5.8961C16.1022 6.4819 16.8682 7.32008 17.3666 8.31672C17.8649 9.31335 18.0758 10.4291 17.9758 11.5388C17.8757 12.6486 17.4686 13.7086 16.8 14.6C16.4686 15.0418 15.8418 15.1314 15.4 14.8C14.9582 14.4686 14.8686 13.8418 15.2 13.4C15.6457 12.8057 15.9171 12.0991 15.9838 11.3592C16.0506 10.6194 15.9099 9.87557 15.5777 9.21115C15.2455 8.54672 14.7348 7.98794 14.1029 7.5974C13.471 7.20686 12.7428 7 12 7ZM10 11C10 9.89543 10.8954 9 12 9C13.1046 9 14 9.89543 14 11C14 12.1046 13.1046 13 12 13C10.8954 13 10 12.1046 10 11ZM10.5858 15.5858C10.9609 15.2107 11.4696 15 12 15C12.5304 15 13.0391 15.2107 13.4142 15.5858C13.7893 15.9609 14 16.4696 14 17C14 17.3272 13.9029 18.1609 13.8029 18.9941C13.7764 19.2147 13.7489 19.4418 13.7212 19.6698C13.6399 20.3396 13.5576 21.018 13.4985 21.5676C13.4817 21.9408 13.326 22.2953 13.0607 22.5607C12.7794 22.842 12.3978 23 12 23C11.6022 23 11.2206 22.842 10.9393 22.5607C10.674 22.2953 10.5183 21.9408 10.5015 21.5676C10.4424 21.018 10.3601 20.3396 10.2788 19.6698C10.2511 19.4418 10.2236 19.2147 10.1971 18.9941C10.0971 18.1609 10 17.3272 10 17C10 16.4696 10.2107 15.9609 10.5858 15.5858Z" fill="black" style="fill:black;fill-opacity:1;"/>
</svg>
