<svg width="24" height="24" viewBox="0 0 24 24" fill="none" xmlns="http://www.w3.org/2000/svg">
<path fill-rule="evenodd" clip-rule="evenodd" d="M5.87868 1.87868C6.44129 1.31607 7.20435 1 8 1C8.79565 1 9.55871 1.31607 10.1213 1.87868C10.6839 2.44129 11 3.20435 11 4V6.17157C11.3182 6.05906 11.6561 6 12 6C12.7956 6 13.5587 6.31607 14.1213 6.87868C14.2763 7.03362 14.4125 7.20377 14.5286 7.38562C14.9739 7.13501 15.48 7 16 7C16.7957 7 17.5587 7.31607 18.1213 7.87868C18.2763 8.03364 18.4125 8.2038 18.5286 8.38566C18.974 8.13503 19.4801 8 20.0001 8C20.7958 8 21.5588 8.31607 22.1214 8.87868C22.684 9.44129 23.0001 10.2043 23.0001 11L23 14C23 14 23 14 23 14C23 16.3869 22.0518 18.6761 20.364 20.364C18.6761 22.0518 16.3869 23 14 23H12.0001C8.93129 23 6.97932 22.0322 5.30538 20.3695L5.303 20.3671L1.703 16.7671C1.69098 16.7551 1.67928 16.7428 1.66789 16.7302C1.15179 16.1586 0.87527 15.4104 0.895575 14.6406C0.915881 13.8707 1.23146 13.1382 1.77697 12.5946C2.32248 12.051 3.05614 11.738 3.82605 11.7205C4.23117 11.7112 4.63 11.7841 5 11.9308V4C5 3.20435 5.31607 2.44129 5.87868 1.87868ZM5.30152 14.7156L6.293 15.7071C6.68352 16.0976 7.31669 16.0976 7.70721 15.7071C8.09773 15.3166 8.09773 14.6834 7.70721 14.2929L7 13.5857V4C7 3.73478 7.10536 3.48043 7.29289 3.29289C7.48043 3.10536 7.73478 3 8 3C8.26522 3 8.51957 3.10536 8.70711 3.29289C8.89464 3.48043 9 3.73478 9 4V10C9 10.5523 9.44772 11 10 11C10.5523 11 11 10.5523 11 10V9C11 8.73478 11.1054 8.48043 11.2929 8.29289C11.4804 8.10536 11.7348 8 12 8C12.2652 8 12.5196 8.10536 12.7071 8.29289C12.8946 8.48043 13 8.73478 13 9V10C13 10.5523 13.4477 11 14 11C14.5523 11 15 10.5523 15 10C15 9.73478 15.1054 9.48043 15.2929 9.29289C15.4804 9.10536 15.7348 9 16 9C16.2652 9 16.5196 9.10536 16.7071 9.29289C16.8946 9.48043 17 9.73478 17 10V11C17 11.5523 17.4477 12 18 12C18.5523 12 19 11.5523 19 11C19 10.7349 19.1054 10.4805 19.293 10.2929C19.4805 10.1054 19.7349 10 20.0001 10C20.2653 10 20.5197 10.1054 20.7072 10.2929C20.8947 10.4804 21.0001 10.7348 21.0001 11C21.0001 11 21.0001 11 21.0001 11L21 14C21 15.8565 20.2625 17.637 18.9497 18.9497C17.637 20.2625 15.8565 21 14 21H12.0001C9.46968 21 8.02176 20.2483 6.71601 18.9517C6.71561 18.9513 6.71522 18.9509 6.71483 18.9505L3.13833 15.374C2.9753 15.1856 2.8883 14.9429 2.89488 14.6933C2.90165 14.4367 3.00684 14.1925 3.18868 14.0113C3.37051 13.8301 3.61507 13.7258 3.8717 13.7199C4.12178 13.7142 4.36467 13.8024 4.55265 13.9668L5.28437 14.6985C5.29002 14.7043 5.29574 14.71 5.30152 14.7156Z" fill="black" style="fill:black;fill-opacity:1;"/>
</svg>
