<svg width="24" height="24" viewBox="0 0 24 24" fill="none" xmlns="http://www.w3.org/2000/svg">
<path fill-rule="evenodd" clip-rule="evenodd" d="M1.29289 1.29289C1.68342 0.902369 2.31658 0.902369 2.70711 1.29289L20.3563 18.9421C20.3589 18.9447 20.3616 18.9473 20.3642 18.9499C20.3668 18.9525 20.3695 18.9552 20.372 18.9578L22.7071 21.2929C23.0976 21.6834 23.0976 22.3166 22.7071 22.7071C22.3166 23.0976 21.6834 23.0976 21.2929 22.7071L19.6176 21.0318C18.9583 21.5585 18.2269 21.9909 17.4443 22.315C16.3523 22.7673 15.182 23.0001 14.0001 23C14.0001 23 14.0001 23 14.0001 23H12.0302C10.7913 23.0724 9.55116 22.8801 8.39221 22.4358C7.2235 21.9878 6.16465 21.294 5.28729 20.4014C5.28715 20.4012 5.28744 20.4015 5.28729 20.4014L1.69812 16.7622C1.69149 16.7555 1.68495 16.7487 1.67851 16.7418C1.15295 16.1778 0.864672 15.4331 0.873487 14.6622C0.882303 13.8914 1.18753 13.1535 1.72585 12.6017C2.26417 12.0498 2.99427 11.7264 3.76467 11.6985C4.19102 11.6831 4.61161 11.7588 5 11.9162V6.41421L1.29289 2.70711C0.902369 2.31658 0.902369 1.68342 1.29289 1.29289ZM7 8.41421V13.5857L7.70721 14.2929C8.09773 14.6834 8.09773 15.3166 7.70721 15.7071C7.31668 16.0976 6.68352 16.0976 6.29299 15.7071L5.30085 14.715C5.29552 14.7098 5.29024 14.7045 5.28503 14.6992L4.51787 13.932C4.32821 13.7721 4.08559 13.6882 3.83709 13.6972C3.58028 13.7065 3.33692 13.8143 3.15748 13.9982C2.97804 14.1822 2.8763 14.4281 2.87336 14.6851C2.87046 14.9381 2.9636 15.1827 3.13374 15.3696L6.71334 18.9991C7.38999 19.6876 8.20666 20.2228 9.10808 20.5683C10.0095 20.9139 10.9746 21.0617 11.9381 21.0019C11.9588 21.0007 11.9794 21 12.0001 21H14.0001C14.9194 21 15.8297 20.819 16.679 20.4673C17.2184 20.2438 17.7265 19.9543 18.192 19.6063L7 8.41421ZM7.38509 1.0642C7.8217 0.972755 8.27321 0.979827 8.70674 1.0849C9.14028 1.18998 9.54492 1.39041 9.89121 1.67161C10.2375 1.95281 10.5167 2.3077 10.7086 2.71044C10.9004 3.11317 11 3.55362 11.0001 3.9997V4.49996C11.0001 5.05225 10.5524 5.49996 10.0001 5.49996C9.4478 5.49996 9.00009 5.05225 9.00009 4.49996V4.00023C9.00009 4.00014 9.00009 4.00031 9.00009 4.00023C9.00001 3.85162 8.96681 3.70464 8.90291 3.57047C8.83897 3.43623 8.74589 3.31793 8.63046 3.2242C8.51503 3.13046 8.38015 3.06365 8.23564 3.02863C8.09113 2.9936 7.94062 2.99124 7.79509 3.02173C7.25453 3.13494 6.72454 2.78852 6.61133 2.24796C6.49811 1.70741 6.84453 1.17742 7.38509 1.0642ZM11.694 6.78054C11.8732 6.25813 12.4419 5.97989 12.9643 6.15907C13.4097 6.31183 13.8129 6.56727 14.1412 6.90473C14.2856 7.05315 14.4138 7.2156 14.524 7.38927C14.6908 7.29498 14.8671 7.21641 15.0508 7.15513C15.6542 6.95386 16.3059 6.94958 16.9119 7.14288C17.5178 7.33619 18.0467 7.71709 18.422 8.23057C18.4591 8.28134 18.4946 8.33315 18.5283 8.38592C18.9737 8.13515 19.4799 8.00005 20.0001 8.00005C20.7958 8.00005 21.5588 8.31613 22.1214 8.87874C22.684 9.44134 23.0001 10.2044 23.0001 11.0001V13.9985C23.003 14.8345 22.8894 15.6667 22.6626 16.4714C22.5128 17.0029 21.9604 17.3124 21.4288 17.1625C20.8972 17.0127 20.5878 16.4603 20.7376 15.9288C20.9142 15.3024 21.0025 14.6545 21.0001 14.0037L21.0001 14.0001V11.0001C21.0001 10.7348 20.8948 10.4805 20.7072 10.2929C20.5197 10.1054 20.2653 10.0001 20.0001 10.0001C19.7349 10.0001 19.4805 10.1054 19.293 10.2929C19.1055 10.4805 19.0001 10.7348 19.0001 11.0001C19.0001 11.5523 18.5524 12.0001 18.0001 12.0001C17.4478 12.0001 17.0001 11.5523 17.0001 11.0001V10.0005C17 9.7885 16.9325 9.582 16.8074 9.41084C16.6823 9.23968 16.506 9.11271 16.304 9.04828C16.102 8.98384 15.8848 8.98527 15.6837 9.05236C15.4826 9.11945 15.308 9.24872 15.1851 9.42152C14.8651 9.87163 14.2408 9.97708 13.7907 9.65705C13.6591 9.56354 13.557 9.44403 13.4864 9.31048C13.2363 9.19681 13.0339 8.98119 12.9455 8.69839C12.8986 8.54859 12.8172 8.41192 12.7077 8.29944C12.5983 8.18695 12.4639 8.10181 12.3155 8.05089C11.793 7.8717 11.5148 7.30295 11.694 6.78054Z" fill="black" style="fill:black;fill-opacity:1;"/>
</svg>
