<svg width="24" height="24" viewBox="0 0 24 24" fill="none" xmlns="http://www.w3.org/2000/svg">
<path fill-rule="evenodd" clip-rule="evenodd" d="M5 2C5 1.44772 5.44772 1 6 1H18C18.5523 1 19 1.44772 19 2V8H20C20.7957 8 21.5587 8.31607 22.1213 8.87868C22.6839 9.44129 23 10.2043 23 11V16C23 16.7957 22.6839 17.5587 22.1213 18.1213C21.5587 18.6839 20.7957 19 20 19H19V22C19 22.5523 18.5523 23 18 23H6C5.44772 23 5 22.5523 5 22V19H4C3.20435 19 2.44129 18.6839 1.87868 18.1213C1.31607 17.5587 1 16.7956 1 16V11C1 10.2044 1.31607 9.44129 1.87868 8.87868C2.44129 8.31607 3.20435 8 4 8H5V2ZM4 10C3.73478 10 3.48043 10.1054 3.29289 10.2929C3.10536 10.4804 3 10.7348 3 11V16C3 16.2652 3.10536 16.5196 3.29289 16.7071C3.48043 16.8946 3.73478 17 4 17H5V14C5 13.4477 5.44772 13 6 13H18C18.5523 13 19 13.4477 19 14V17H20C20.2652 17 20.5196 16.8946 20.7071 16.7071C20.8946 16.5196 21 16.2652 21 16V11C21 10.7348 20.8946 10.4804 20.7071 10.2929C20.5196 10.1054 20.2652 10 20 10H4ZM17 8H7V3H17V8ZM17 15H7V21H17V15Z" fill="black" style="fill:black;fill-opacity:1;"/>
</svg>
