<svg width="24" height="24" viewBox="0 0 24 24" fill="none" xmlns="http://www.w3.org/2000/svg">
<path fill-rule="evenodd" clip-rule="evenodd" d="M10.175 2.81921C10.7465 3.39297 11 4.1737 11 5.00003V13C11 16.6899 9.93889 19.0239 8.25823 20.399C6.61585 21.7427 4.58172 22 2.99999 22C2.98729 22 2.97449 22 2.96163 22C2.74596 22.0001 2.50869 22.0002 2.31143 21.9783C2.10978 21.9559 1.72821 21.8925 1.41788 21.5821C1.10756 21.2718 1.04414 20.8902 1.02173 20.6886C0.999813 20.4913 0.9999 20.254 0.999979 20.0384C0.999984 20.0255 0.999989 20.0127 0.999989 20V18.031C0.999989 18.0184 0.999984 18.0057 0.99998 17.9929C0.999908 17.7711 0.999829 17.5306 1.0214 17.3309C1.04321 17.1291 1.10406 16.7506 1.40449 16.4384C1.71157 16.1194 2.09409 16.0492 2.3037 16.0243C2.5082 15.9999 2.75264 16 2.97237 16L2.99999 16C3.17476 16 3.43323 15.9026 3.66788 15.6679C3.90254 15.4333 3.99999 15.1748 3.99999 15V14C3.17448 14 2.39669 13.7484 1.82413 13.1759C1.25157 12.6033 0.999989 11.8255 0.999989 11V4.97203C0.999989 4.15456 1.25518 3.38381 1.82776 2.81706C2.39926 2.25138 3.17464 2.00003 3.99999 2.00003H7.99366C8.82399 1.99023 9.6029 2.24482 10.175 2.81921ZM8.75797 4.2306C8.64276 4.11493 8.42457 3.99432 8.01365 3.99993L7.99999 4.00012V4.00003H3.99999C3.57534 4.00003 3.35072 4.12367 3.23472 4.23849C3.1198 4.35224 2.99999 4.5675 2.99999 4.97203V11C2.99999 11.4245 3.12341 11.6467 3.23835 11.7617C3.35328 11.8766 3.5755 12 3.99999 12C4.01269 12 4.02548 12 4.03835 12C4.25402 11.9999 4.49129 11.9999 4.68854 12.0218C4.8902 12.0442 5.27177 12.1076 5.5821 12.4179C5.89242 12.7282 5.95584 13.1098 5.97825 13.3115C6.00016 13.5087 6.00008 13.746 6 13.9617C5.99999 13.9745 5.99999 13.9873 5.99999 14V15C5.99999 15.8253 5.59744 16.5668 5.0821 17.0821C4.56675 17.5975 3.82522 18 2.99999 18C2.99999 18.0102 2.99999 18.0205 2.99999 18.031V20C4.41825 20 5.88413 19.7573 6.99175 18.8511C8.06109 17.9762 8.99999 16.3102 8.99999 13V5.00003C8.99999 4.57635 8.87549 4.34858 8.75797 4.2306ZM22.1745 2.81908C22.746 3.39268 23 4.17334 23 5.00003V13C23 16.6899 21.9389 19.0239 20.2582 20.399C18.6159 21.7427 16.5817 22 15 22C14.9873 22 14.9745 22 14.9616 22C14.746 22.0001 14.5087 22.0002 14.3114 21.9783C14.1098 21.9559 13.7282 21.8925 13.4179 21.5821C13.1076 21.2718 13.0441 20.8902 13.0217 20.6886C12.9998 20.4913 12.9999 20.2541 13 20.0384C13 20.0255 13 20.0127 13 20V17C13 16.4477 13.4477 16 14 16C14.6664 16 15.0409 15.9006 15.2481 15.797C15.4233 15.7094 15.5141 15.6032 15.5829 15.4451C15.6669 15.2519 15.7219 14.9657 15.7434 14.5255C15.7518 14.3534 15.7547 14.1778 15.7551 13.9925C15.0217 13.9468 14.3397 13.6915 13.8241 13.1759C13.2516 12.6033 13 11.8255 13 11V4.97203C13 4.15456 13.2552 3.38381 13.8278 2.81706C14.3993 2.25138 15.1746 2.00003 16 2.00003H19.9937C20.8237 1.99023 21.6024 2.24492 22.1745 2.81908ZM20.7577 4.23073C20.6422 4.11483 20.4239 3.99432 20.0137 3.99993L20 4.00012V4.00003H16C15.5753 4.00003 15.3507 4.12367 15.2347 4.23849C15.1198 4.35224 15 4.5675 15 4.97203V11C15 11.4245 15.1234 11.6467 15.2383 11.7617C15.3533 11.8766 15.5755 12 16 12H16.75C17.3023 12 17.75 12.4477 17.75 13C17.75 13.1437 17.7512 13.2928 17.7525 13.4441C17.7557 13.8403 17.7591 14.2521 17.741 14.623C17.7156 15.1437 17.6456 15.7169 17.4171 16.2425C17.1733 16.8031 16.7642 17.275 16.1425 17.5859C15.8035 17.7553 15.4217 17.8668 15 17.931V20C16.4183 20 17.8841 19.7573 18.9918 18.8511C20.0611 17.9762 21 16.3102 21 13V5.00003C21 4.57671 20.8755 4.34888 20.7577 4.23073Z" fill="black" style="fill:black;fill-opacity:1;"/>
</svg>
