<svg width="24" height="24" viewBox="0 0 24 24" fill="none" xmlns="http://www.w3.org/2000/svg">
<path fill-rule="evenodd" clip-rule="evenodd" d="M5.60708 1.1928C5.99761 1.58332 5.99761 2.21648 5.60708 2.60701C2.09761 6.11649 2.09761 11.8833 5.60708 15.3928C5.99761 15.7833 5.99761 16.4165 5.60708 16.807C5.21656 17.1975 4.58339 17.1975 4.19287 16.807C-0.0976555 12.5165 -0.0976555 5.48332 4.19287 1.1928C4.58339 0.802271 5.21656 0.802271 5.60708 1.1928ZM18.3921 1.19352C18.7823 0.802596 19.4154 0.801947 19.8064 1.19207C20.8265 2.21009 21.6358 3.41931 22.188 4.7505C22.7402 6.08169 23.0244 7.50872 23.0244 8.9499C23.0244 10.3911 22.7402 11.8181 22.188 13.1493C21.6358 14.4805 20.8265 15.6897 19.8064 16.7077C19.4154 17.0979 18.7823 17.0972 18.3921 16.7063C18.002 16.3154 18.0027 15.6822 18.3936 15.2921C19.2276 14.4598 19.8892 13.4713 20.3406 12.383C20.792 11.2947 21.0244 10.1281 21.0244 8.9499C21.0244 7.77171 20.792 6.60509 20.3406 5.51682C19.8892 4.42854 19.2276 3.43999 18.3936 2.60773C18.0027 2.21761 18.002 1.58445 18.3921 1.19352ZM8.49447 3.98041C8.89187 4.36394 8.9031 4.99701 8.51957 5.3944C7.72538 6.21728 7.2283 7.28153 7.107 8.4187C6.98571 9.55587 7.24712 10.701 7.84986 11.6729C8.14094 12.1423 7.99643 12.7587 7.52707 13.0498C7.05772 13.3409 6.44127 13.1964 6.15019 12.727C5.31291 11.3769 4.94979 9.78621 5.11829 8.20657C5.28678 6.62692 5.97727 5.14857 7.08048 4.0055C7.46402 3.60811 8.09708 3.59688 8.49447 3.98041ZM15.4928 4.09294C15.8834 3.70242 16.5165 3.70242 16.9071 4.09294C19.254 6.43985 19.5401 10.0647 17.8504 12.7962C17.5598 13.2658 16.9435 13.411 16.4738 13.1205C16.0042 12.8299 15.859 12.2136 16.1495 11.7439C17.3798 9.75536 17.1459 7.16025 15.4928 5.50716C15.1023 5.11663 15.1023 4.48347 15.4928 4.09294ZM12 8C11.4477 8 11 8.44772 11 9C11 9.55228 11.4477 10 12 10C12.5523 10 13 9.55228 13 9C13 8.44772 12.5523 8 12 8ZM9 9C9 7.34315 10.3431 6 12 6C13.6569 6 15 7.34315 15 9C15 10.1843 14.3137 11.2083 13.3172 11.6961L16.9398 21.6583C17.1285 22.1773 16.8608 22.7511 16.3417 22.9398C15.8227 23.1285 15.2489 22.8608 15.0602 22.3417L13.845 19H10.155L8.93979 22.3417C8.75105 22.8608 8.17729 23.1285 7.65826 22.9398C7.13922 22.7511 6.87147 22.1773 7.06021 21.6583L10.6828 11.6961C9.68625 11.2083 9 10.1843 9 9ZM12 13.9262L10.8822 17H13.1178L12 13.9262Z" fill="black" style="fill:black;fill-opacity:1;"/>
</svg>
