<svg width="24" height="24" viewBox="0 0 24 24" fill="none" xmlns="http://www.w3.org/2000/svg">
<path fill-rule="evenodd" clip-rule="evenodd" d="M5.60322 2.99747C6.64654 2.21824 7.87365 2.87901 8.35748 3.68539C8.3632 3.69492 8.36875 3.70454 8.37415 3.71425C8.87154 4.60956 9.76863 6.20441 10.8654 8.09885C11.0036 8.33756 11.0371 8.62275 10.9579 8.88697C10.8787 9.15119 10.6939 9.37096 10.4472 9.49432C9.60852 9.91366 8.99999 10.8528 8.99999 11.9999C8.99999 12.5522 8.55227 12.9999 7.99999 12.9999H2.99999C2.42566 12.9999 1.89888 12.763 1.53038 12.3945C1.17462 12.0387 0.904981 11.4868 1.00929 10.859C1.35037 7.67351 3.10706 4.84343 5.60322 2.99747ZM6.6437 4.71769C4.66007 6.24386 3.29433 8.50537 3.00595 10.9999H7.09826C7.31255 9.92589 7.86758 8.97077 8.66735 8.2912C7.78984 6.76532 7.07534 5.49424 6.6437 4.71769ZM18.4831 3.08744C21.0265 4.86218 22.6667 7.72641 22.9947 10.8971C22.9982 10.9312 23 10.9656 23 11C23 11.5272 22.8199 12.0443 22.4321 12.4321C22.0443 12.8198 21.5272 13 21 13H16C15.4477 13 15 12.5522 15 12C15 10.8659 14.3979 9.88975 13.4961 9.36373C13.264 9.22831 13.0961 9.00513 13.0304 8.74453C12.9646 8.48393 13.0066 8.20783 13.1467 7.9785C13.5813 7.26742 13.9958 6.56787 14.3759 5.92652C14.904 5.03538 15.3654 4.25662 15.7214 3.71549C15.9918 3.15784 16.5068 2.86379 16.9789 2.76937C17.464 2.67234 18.0292 2.75532 18.4831 3.08744ZM17.4144 4.78115C17.0779 5.28862 16.6559 6.00166 16.1458 6.86339C15.8947 7.28752 15.6223 7.74767 15.3283 8.23707C16.1218 8.94914 16.6857 9.91028 16.9022 11H20.9941C20.7024 8.45416 19.3897 6.19297 17.4144 4.78115ZM11 12C11 11.4477 11.4477 11 12 11H12.01C12.5623 11 13.01 11.4477 13.01 12C13.01 12.5523 12.5623 13 12.01 13H12C11.4477 13 11 12.5523 11 12ZM9.14668 14.9785C9.43051 14.5141 10.0337 14.362 10.5038 14.6362C11.3925 15.1546 12.6075 15.1546 13.4961 14.6362C13.9663 14.362 14.5694 14.5141 14.8532 14.9785C15.9586 16.7873 16.863 18.3945 17.3674 19.3022C17.9449 20.2859 17.5793 21.5661 16.499 22.0172C13.6444 23.3276 10.3555 23.3276 7.50095 22.0172C6.42065 21.5661 6.05507 20.2859 6.63254 19.3022C7.13694 18.3945 8.04134 16.7873 9.14668 14.9785ZM10.4001 16.7701C9.53795 18.2081 8.83393 19.4587 8.40452 20.2309C10.6902 21.2563 13.3097 21.2563 15.5954 20.2309C15.166 19.4587 14.462 18.2081 13.5998 16.7701C12.571 17.11 11.4289 17.11 10.4001 16.7701Z" fill="black" style="fill:black;fill-opacity:1;"/>
</svg>
