<svg width="24" height="24" viewBox="0 0 24 24" fill="none" xmlns="http://www.w3.org/2000/svg">
<path fill-rule="evenodd" clip-rule="evenodd" d="M5.60708 4.1928C5.99761 4.58332 5.99761 5.21648 5.60708 5.60701C2.09761 9.11649 2.09761 14.8833 5.60708 18.3928C5.99761 18.7833 5.99761 19.4165 5.60708 19.807C5.21656 20.1975 4.58339 20.1975 4.19287 19.807C-0.0976555 15.5165 -0.0976555 8.48332 4.19287 4.1928C4.58339 3.80227 5.21656 3.80227 5.60708 4.1928ZM18.3929 4.1928C18.7834 3.80227 19.4166 3.80227 19.8071 4.1928C24.0976 8.48332 24.0976 15.4165 19.8071 19.707C19.4166 20.0975 18.7834 20.0975 18.3929 19.707C18.0023 19.3165 18.0023 18.6833 18.3929 18.2928C21.9023 14.7833 21.9023 9.11649 18.3929 5.60701C18.0023 5.21648 18.0023 4.58332 18.3929 4.1928ZM8.49186 6.97796C8.8906 7.36009 8.90407 7.99311 8.52194 8.39186C6.58453 10.4135 6.60568 13.5915 8.50706 15.4928C8.89758 15.8834 8.89758 16.5165 8.50706 16.9071C8.11653 17.2976 7.48337 17.2976 7.09284 16.9071C4.39422 14.2084 4.41538 9.7864 7.07796 7.00805C7.46009 6.6093 8.09311 6.59583 8.49186 6.97796ZM15.4928 7.09294C15.8834 6.70242 16.5165 6.70242 16.9071 7.09294C19.6057 9.79156 19.5845 14.2136 16.9219 16.992C16.5398 17.3907 15.9068 17.4042 15.508 17.022C15.1093 16.6399 15.0958 16.0069 15.478 15.6081C17.4154 13.5865 17.3942 10.4085 15.4928 8.50716C15.1023 8.11663 15.1023 7.48347 15.4928 7.09294ZM12 11C11.4477 11 11 11.4477 11 12C11 12.5523 11.4477 13 12 13C12.5523 13 13 12.5523 13 12C13 11.4477 12.5523 11 12 11ZM9 12C9 10.3431 10.3431 9 12 9C13.6569 9 15 10.3431 15 12C15 13.6569 13.6569 15 12 15C10.3431 15 9 13.6569 9 12Z" fill="black" style="fill:black;fill-opacity:1;"/>
</svg>
