<svg width="24" height="24" viewBox="0 0 24 24" fill="none" xmlns="http://www.w3.org/2000/svg">
<path fill-rule="evenodd" clip-rule="evenodd" d="M8 3C7.44772 3 7 3.44772 7 4V5H17V4C17 3.44772 16.5523 3 16 3H8ZM19 5V4C19 2.34315 17.6569 1 16 1H8C6.34315 1 5 2.34315 5 4V5H4C2.34315 5 1 6.34315 1 8V16C1 17.6569 2.34315 19 4 19H5V20C5 21.6569 6.34315 23 8 23H16C17.6569 23 19 21.6569 19 20V19H20C21.6569 19 23 17.6569 23 16V8C23 6.34315 21.6569 5 20 5H19ZM17 7H7V17H17V7ZM19 17V7H20C20.5523 7 21 7.44771 21 8V16C21 16.5523 20.5523 17 20 17H19ZM17 19H7V20C7 20.5523 7.44771 21 8 21H16C16.5523 21 17 20.5523 17 20V19ZM5 17V7H4C3.44772 7 3 7.44772 3 8V16C3 16.5523 3.44772 17 4 17H5Z" fill="black" style="fill:black;fill-opacity:1;"/>
</svg>
