<svg width="24" height="24" viewBox="0 0 24 24" fill="none" xmlns="http://www.w3.org/2000/svg">
<path fill-rule="evenodd" clip-rule="evenodd" d="M14.2929 3.29289C14.6834 2.90237 15.3166 2.90237 15.7071 3.29289L20.7071 8.29289C21.0976 8.68342 21.0976 9.31658 20.7071 9.70711L15.7071 14.7071C15.3166 15.0976 14.6834 15.0976 14.2929 14.7071C13.9024 14.3166 13.9024 13.6834 14.2929 13.2929L17.5858 10H9.5C8.30653 10 7.16193 10.4741 6.31802 11.318C5.47411 12.1619 5 13.3065 5 14.5C5 15.0909 5.1164 15.6761 5.34254 16.2221C5.56869 16.768 5.90016 17.2641 6.31802 17.682C7.16193 18.5259 8.30653 19 9.5 19H13C13.5523 19 14 19.4477 14 20C14 20.5523 13.5523 21 13 21H9.5C7.77609 21 6.12279 20.3152 4.90381 19.0962C4.30023 18.4926 3.82144 17.7761 3.49478 16.9874C3.16813 16.1988 3 15.3536 3 14.5C3 12.7761 3.68482 11.1228 4.90381 9.90381C6.12279 8.68482 7.77609 8 9.5 8H17.5858L14.2929 4.70711C13.9024 4.31658 13.9024 3.68342 14.2929 3.29289Z" fill="black" style="fill:black;fill-opacity:1;"/>
</svg>
