<svg width="24" height="24" viewBox="0 0 24 24" fill="none" xmlns="http://www.w3.org/2000/svg">
<path fill-rule="evenodd" clip-rule="evenodd" d="M3 1C3.55228 1 4 1.44772 4 2V5.7547L5.33333 4.55475C6.77161 3.26831 8.55136 2.42549 10.4579 2.12792C12.3645 1.83035 14.3164 2.09076 16.0783 2.87774C17.8402 3.66471 19.3368 4.94463 20.3875 6.56312C21.4382 8.18162 21.9982 10.0695 22 11.9992C22.0005 12.5515 21.5532 12.9996 21.0009 13.0001C20.4486 13.0006 20.0005 12.5533 20 12.001C19.9986 10.4573 19.5506 8.94695 18.71 7.65216C17.8694 6.35737 16.6722 5.33343 15.2627 4.70385C13.8532 4.07427 12.2916 3.86595 10.7663 4.104C9.24161 4.34197 7.81825 5.01586 6.66784 6.04441C6.66745 6.04476 6.66706 6.04511 6.66667 6.04546L5.60603 7H9C9.55228 7 10 7.44772 10 8C10 8.55228 9.55228 9 9 9H3C2.44772 9 2 8.55228 2 8V2C2 1.44772 2.44772 1 3 1ZM10 12C10 10.8954 10.8954 10 12 10C13.1046 10 14 10.8954 14 12C14 13.1046 13.1046 14 12 14C10.8954 14 10 13.1046 10 12ZM2.99909 11C3.55137 10.9995 3.9995 11.4468 4 11.9991C4.00141 13.5428 4.44942 15.0532 5.29 16.3479C6.13059 17.6427 7.32784 18.6667 8.73734 19.2963C10.1468 19.9258 11.7084 20.1342 13.2337 19.8961C14.7585 19.6581 16.1819 18.9842 17.3323 17.9556C17.3327 17.9553 17.333 17.9549 17.3333 17.9546L18.394 17H15C14.4477 17 14 16.5523 14 16C14 15.4477 14.4477 15 15 15H21C21.5523 15 22 15.4477 22 16V22C22 22.5523 21.5523 23 21 23C20.4477 23 20 22.5523 20 22V18.2454L18.669 19.4433L18.6667 19.4454C17.2284 20.7318 15.4486 21.5746 13.5421 21.8722C11.6355 22.1698 9.68356 21.9093 7.92168 21.1224C6.1598 20.3354 4.66324 19.0555 3.61251 17.437C2.56178 15.8185 2.00176 13.9306 2 12.0009C1.9995 11.4486 2.4468 11.0005 2.99909 11Z" fill="black" style="fill:black;fill-opacity:1;"/>
</svg>
