<svg width="24" height="24" viewBox="0 0 24 24" fill="none" xmlns="http://www.w3.org/2000/svg">
<path fill-rule="evenodd" clip-rule="evenodd" d="M20.9592 3.03868C19.2918 3.174 17.6676 3.66036 16.1949 4.47031C14.419 5.44705 12.9226 6.86189 11.8479 8.58026L11.8422 8.58924C11.1969 9.59723 10.639 10.6582 10.1747 11.7605L12.242 13.8277C13.3576 13.3645 14.4322 12.8073 15.4542 12.162C19.6794 9.3238 20.7549 5.61275 20.9592 3.03868ZM15.3414 14.551C14.5826 14.9699 13.801 15.3464 13 15.6785V18.7053C13.0961 18.6739 13.1949 18.6401 13.2953 18.6037C14.1579 18.2908 14.8771 17.8794 15.1684 17.4446C15.3115 17.2296 15.4177 16.8976 15.4599 16.4428C15.5015 15.9961 15.4751 15.5004 15.4132 15.0203C15.3923 14.858 15.3677 14.7006 15.3414 14.551ZM12 20L12.1786 20.9839C11.8869 21.0369 11.5868 20.9577 11.3592 20.7677C11.1316 20.5777 11 20.2965 11 20V15.4142L8.58581 13L4.00002 13C3.70355 13 3.42236 12.8685 3.23236 12.6409C3.04237 12.4133 2.96315 12.1131 3.0161 11.8214L4.00002 12C3.0161 11.8214 3.01606 11.8216 3.0161 11.8214L3.01649 11.8193L3.01708 11.8161L3.01891 11.8063L3.02511 11.774C3.03039 11.747 3.03799 11.7091 3.04801 11.6616C3.06801 11.5667 3.09776 11.433 3.13803 11.2707C3.21818 10.9475 3.34185 10.5035 3.51621 10.0228C3.84066 9.12829 4.42909 7.84779 5.444 7.16885L5.44532 7.16797C6.04031 6.77131 6.7381 6.60762 7.37217 6.54869C8.01485 6.48895 8.66797 6.5301 9.23534 6.60322C9.76093 6.67096 10.236 6.76924 10.595 6.85511C11.8058 5.14623 13.3899 3.73053 15.2311 2.71788C17.306 1.5767 19.6383 0.985336 22.0062 1.00002C22.5561 1.00343 23 1.45014 23 2C23 4.8103 22.2117 9.70768 17.1477 13.4166C17.2329 13.7741 17.3298 14.2447 17.3968 14.7647C17.4699 15.3321 17.5111 15.9852 17.4514 16.6279C17.3924 17.2619 17.2287 17.9597 16.8321 18.5547L16.8312 18.556C16.1522 19.5709 14.8717 20.1594 13.9773 20.4838C13.4966 20.6582 13.0525 20.7818 12.7294 20.862C12.567 20.9023 12.4333 20.932 12.3385 20.952C12.291 20.962 12.2531 20.9696 12.226 20.9749L12.1938 20.9811L12.184 20.9829L12.1807 20.9835L12.1786 20.9839C12.1784 20.984 12.1786 20.9839 12 20ZM9.46735 8.66193C9.04278 9.41895 8.66133 10.1995 8.32486 11L5.2947 11C5.32608 10.9039 5.35994 10.8051 5.39634 10.7048C5.7092 9.84224 6.12048 9.12308 6.55529 8.83169C6.77032 8.68854 7.10234 8.58238 7.55725 8.5401C8.00395 8.49859 8.49957 8.52494 8.9797 8.58682C9.14862 8.60859 9.3123 8.63431 9.46735 8.66193ZM3.85622 15.7349C4.45548 15.2301 5.22 14.9644 6.00316 14.9886C6.78659 15.0128 7.53347 15.3255 8.10046 15.8667L8.11261 15.8785C9.30102 17.0518 9.28578 18.9352 8.26475 20.1444C7.82208 20.6709 7.21241 21.0575 6.6261 21.3439C6.02792 21.6361 5.38238 21.8582 4.80253 22.024C4.2195 22.1908 3.68176 22.3067 3.29062 22.381C3.09436 22.4182 2.93328 22.4453 2.81975 22.4633C2.76295 22.4723 2.71793 22.4791 2.68624 22.4837L2.64886 22.489L2.63799 22.4905L2.63338 22.4911C2.63318 22.4912 2.63253 22.4913 2.50002 21.5001C1.50884 21.3676 1.50886 21.3674 1.50889 21.3672L1.50958 21.3621L1.51108 21.3512L1.51641 21.3139C1.52102 21.2822 1.52776 21.2371 1.53677 21.1803C1.55477 21.0668 1.58187 20.9057 1.61914 20.7095C1.6934 20.3183 1.80931 19.7806 1.97608 19.1976C2.14194 18.6177 2.36398 17.9722 2.65617 17.374C2.94265 16.7875 3.32944 16.1776 3.85622 15.7349ZM2.50002 21.5001L1.50889 21.3672C1.4676 21.676 1.57259 21.9869 1.79291 22.2072C2.01324 22.4275 2.32454 22.5324 2.63338 22.4911L2.50002 21.5001ZM3.77047 20.2296C3.92551 20.1912 4.08725 20.1484 4.25251 20.1011C4.76517 19.9545 5.29088 19.7703 5.74831 19.5469C6.21721 19.3178 6.54707 19.0798 6.73432 18.8569L6.73629 18.8545C7.13228 18.386 7.09898 17.6949 6.71329 17.3075C6.50368 17.1104 6.22915 16.9965 5.94133 16.9876C5.65063 16.9786 5.36684 17.0773 5.14444 17.2647L5.14321 17.2658C4.9203 17.453 4.68228 17.7829 4.45325 18.2518C4.22981 18.7092 4.0456 19.2349 3.89896 19.7476C3.85169 19.9128 3.80893 20.0746 3.77047 20.2296Z" fill="black" style="fill:black;fill-opacity:1;"/>
</svg>
