<svg width="24" height="24" viewBox="0 0 24 24" fill="none" xmlns="http://www.w3.org/2000/svg">
<path fill-rule="evenodd" clip-rule="evenodd" d="M8 3C8 2.44772 8.44772 2 9 2H14C15.3261 2 16.5979 2.52678 17.5355 3.46447C18.4732 4.40215 19 5.67392 19 7C19 8.32608 18.4732 9.59785 17.5355 10.5355C16.5979 11.4732 15.3261 12 14 12H10V14H14C14.5523 14 15 14.4477 15 15C15 15.5523 14.5523 16 14 16H10V21C10 21.5523 9.55228 22 9 22C8.44772 22 8 21.5523 8 21V16H6C5.44772 16 5 15.5523 5 15C5 14.4477 5.44772 14 6 14H8V12H6C5.44772 12 5 11.5523 5 11C5 10.4477 5.44772 10 6 10H8V3ZM10 10H14C14.7956 10 15.5587 9.68393 16.1213 9.12132C16.6839 8.55871 17 7.79565 17 7C17 6.20435 16.6839 5.44129 16.1213 4.87868C15.5587 4.31607 14.7956 4 14 4H10V10Z" fill="black" style="fill:black;fill-opacity:1;"/>
</svg>
