<svg width="24" height="24" viewBox="0 0 24 24" fill="none" xmlns="http://www.w3.org/2000/svg">
<path fill-rule="evenodd" clip-rule="evenodd" d="M19.2164 4.31939C18.8746 4.29898 18.5371 4.40457 18.2678 4.61619C17.9112 4.89652 17.4105 4.90164 17.0482 4.62866C16.8938 4.51238 16.7171 4.42931 16.529 4.38468C16.341 4.34005 16.1458 4.33483 15.9556 4.36935C15.7655 4.40387 15.5846 4.47739 15.4242 4.58526C15.2639 4.69314 15.1276 4.83304 15.024 4.99616C14.7689 5.39774 14.2662 5.564 13.822 5.39372C13.5853 5.30301 13.3285 5.27823 13.0789 5.32204C12.8293 5.36585 12.5962 5.47659 12.4046 5.64246C12.213 5.80833 12.07 6.0231 11.9909 6.26386C11.9117 6.50462 11.8994 6.76235 11.9553 7.00955C12.0162 7.27912 11.9629 7.56188 11.8079 7.79071C11.6621 8.00601 11.4386 8.1555 11.1853 8.20865C11.1277 8.22575 11.0688 8.23753 11.0095 8.24401C10.7119 8.32037 10.4464 8.49293 10.2555 8.73667C10.0376 9.01478 9.9329 9.365 9.96242 9.71706C9.99194 10.0691 10.1535 10.397 10.4147 10.635C10.6691 10.8668 10.9997 10.9965 11.3432 11H11.372C11.3774 11 11.3828 11 11.3882 11H12.5858L16.2929 7.29289C16.6834 6.90237 17.3166 6.90237 17.7071 7.29289C18.0976 7.68342 18.0976 8.31658 17.7071 8.70711L15.4142 11H18.9248C18.8793 10.5508 19.1432 10.1177 19.5793 9.95975C19.7852 9.88517 19.9708 9.76332 20.121 9.604C20.2713 9.44467 20.3821 9.25232 20.4445 9.04241C20.5069 8.83249 20.5192 8.61086 20.4803 8.39533C20.4415 8.1798 20.3527 7.97638 20.221 7.80142C19.9482 7.4391 19.9534 6.93859 20.2337 6.58202C20.4453 6.31278 20.5509 5.97531 20.5305 5.63346C20.5101 5.29161 20.3651 4.9691 20.1229 4.72695C19.8808 4.4848 19.5583 4.3398 19.2164 4.31939ZM19.9333 13H13.0007C13.0002 13 12.9998 13 12.9993 13H11.3797C11.3649 13.0001 11.3501 13.0001 11.3353 13H4.55738C4.54644 13.0002 4.53551 13.0002 4.52459 13H4.06272C4.28353 14.753 5.08052 16.3942 6.34315 17.6569C7.84344 19.1571 9.87827 20 12 20C14.1217 20 16.1566 19.1571 17.6569 17.6569C18.9195 16.3942 19.7164 14.753 19.9373 13.0001C19.9359 13 19.9346 13 19.9333 13ZM6.34296 20.2461C6.1328 20.4295 6 20.6992 6 21C6 21.5523 6.44772 22 7 22H17C17.5523 22 18 21.5523 18 21C18 20.6992 17.8672 20.4295 17.657 20.2461C18.16 19.9011 18.6337 19.5084 19.0711 19.0711C20.9464 17.1957 22 14.6522 22 12C22 11.7348 21.8946 11.4804 21.7071 11.2929C21.6304 11.2162 21.5425 11.1532 21.4473 11.1056C21.4913 11.0637 21.5342 11.0205 21.576 10.9762C21.9409 10.5893 22.21 10.1222 22.3615 9.61235C22.5131 9.10255 22.5429 8.5643 22.4487 8.04087C22.3969 7.75357 22.3086 7.47514 22.1865 7.21212C22.4429 6.68861 22.5621 6.10412 22.5269 5.51426C22.4774 4.68406 22.1252 3.90082 21.5371 3.31273C20.949 2.72465 20.1658 2.37251 19.3356 2.32294C18.7458 2.28773 18.1614 2.40695 17.6379 2.66322C17.4309 2.56706 17.2142 2.49174 16.9909 2.43874C16.5343 2.33036 16.0601 2.31768 15.5984 2.40152C15.1366 2.48536 14.6972 2.66389 14.3078 2.92588C14.1281 3.04675 13.9609 3.18418 13.8082 3.33607C13.4528 3.28461 13.09 3.28953 12.7332 3.35215C12.127 3.45853 11.561 3.72748 11.0956 4.1303C10.6729 4.4962 10.3476 4.9601 10.1475 5.4803C9.80689 5.31694 9.44701 5.19195 9.07433 5.10899C8.09562 4.89111 7.07397 4.97312 6.14255 5.34434C5.21114 5.71555 4.41315 6.35876 3.85261 7.1901C3.29255 8.02075 2.99548 9.00073 3.00005 10.0025C3.00023 10.3451 3.03558 10.6785 3.10186 11H3C2.73478 11 2.48043 11.1054 2.29289 11.2929C2.10536 11.4804 2 11.7348 2 12C2 14.6522 3.05357 17.1957 4.92893 19.0711C5.3663 19.5084 5.84001 19.9011 6.34296 20.2461ZM5.1742 11H8.2591C8.10108 10.6503 8.00205 10.2733 7.96942 9.88419C7.89772 9.02917 8.15194 8.17866 8.6811 7.50324C8.77621 7.38183 8.87894 7.2677 8.9884 7.16136C8.87472 7.12109 8.75831 7.08759 8.63973 7.06119C8.05329 6.93064 7.44112 6.97978 6.88301 7.20222C6.32491 7.42465 5.84676 7.81006 5.51088 8.3082C5.17501 8.80634 4.99699 9.39411 5.00004 9.9949L5.00006 9.99997C5.00006 10.3501 5.06153 10.6858 5.1742 11Z" fill="black" style="fill:black;fill-opacity:1;"/>
</svg>
