<svg width="24" height="24" viewBox="0 0 24 24" fill="none" xmlns="http://www.w3.org/2000/svg">
<path fill-rule="evenodd" clip-rule="evenodd" d="M10 3C10 2.44772 10.4477 2 11 2C13.9174 2 16.7153 3.15893 18.7782 5.22183C20.8411 7.28473 22 10.0826 22 13C22 13.5523 21.5523 14 21 14C20.4477 14 20 13.5523 20 13C20 10.6131 19.0518 8.32387 17.364 6.63604C15.6761 4.94821 13.387 4 11 4C10.4477 4 10 3.55228 10 3ZM10 7C10 6.44772 10.4477 6 11 6C12.8565 6 14.637 6.7375 15.9497 8.05025C17.2625 9.36301 18 11.1435 18 13C18 13.5523 17.5523 14 17 14C16.4477 14 16 13.5523 16 13C16 11.6739 15.4732 10.4021 14.5355 9.46447C13.5979 8.52678 12.3261 8 11 8C10.4477 8 10 7.55228 10 7ZM3.87216 9.0082C4.17956 8.96858 4.48795 9.07373 4.70711 9.29289L9 13.5858L11.2929 11.2929C11.6834 10.9024 12.3166 10.9024 12.7071 11.2929C13.0976 11.6834 13.0976 12.3166 12.7071 12.7071L10.4142 15L14.7071 19.2929C14.9263 19.5121 15.0314 19.8204 14.9918 20.1278C14.9522 20.4352 14.7723 20.7069 14.5047 20.8633C12.9188 21.7904 11.0704 22.1659 9.2484 21.9311C7.42645 21.6962 5.73366 20.8643 4.43469 19.5653C3.13571 18.2663 2.30377 16.5736 2.06893 14.7516C1.83408 12.9296 2.20958 11.0812 3.1367 9.49531C3.29312 9.22774 3.56477 9.04783 3.87216 9.0082ZM4.3134 11.7276C4.02341 12.6142 3.93184 13.5597 4.05252 14.4959C4.23084 15.8794 4.86256 17.1648 5.8489 18.1511C6.83525 19.1374 8.12062 19.7692 9.50408 19.9475C10.4403 20.0682 11.3858 19.9766 12.2724 19.6866L4.3134 11.7276Z" fill="black" style="fill:black;fill-opacity:1;"/>
</svg>
