<svg width="24" height="24" viewBox="0 0 24 24" fill="none" xmlns="http://www.w3.org/2000/svg">
<path fill-rule="evenodd" clip-rule="evenodd" d="M5 4C4.44772 4 4 4.44772 4 5C4 5.55228 4.44772 6 5 6C5.55228 6 6 5.55228 6 5C6 4.44772 5.55228 4 5 4ZM2 5C2 3.34315 3.34315 2 5 2C6.65685 2 8 3.34315 8 5C8 6.30622 7.16519 7.41746 6 7.82929V16.5858L10.2929 12.2929C10.6834 11.9024 11.3166 11.9024 11.7071 12.2929C12.0976 12.6834 12.0976 13.3166 11.7071 13.7071L7.41421 18H16.1707C16.5825 16.8348 17.6938 16 19 16C20.6569 16 22 17.3431 22 19C22 20.6569 20.6569 22 19 22C17.6938 22 16.5825 21.1652 16.1707 20H5C4.44772 20 4 19.5523 4 19V7.82929C2.83481 7.41746 2 6.30622 2 5ZM19 18C18.4477 18 18 18.4477 18 19C18 19.5523 18.4477 20 19 20C19.5523 20 20 19.5523 20 19C20 18.4477 19.5523 18 19 18Z" fill="black" style="fill:black;fill-opacity:1;"/>
</svg>
