<svg width="24" height="24" viewBox="0 0 24 24" fill="none" xmlns="http://www.w3.org/2000/svg">
<path fill-rule="evenodd" clip-rule="evenodd" d="M11.4453 3.16795C11.7812 2.94402 12.2188 2.94402 12.5547 3.16795L18.3028 7H22C22.5523 7 23 7.44772 23 8V20C23 20.7957 22.6839 21.5587 22.1213 22.1213C21.5587 22.6839 20.7957 23 20 23H4C3.20435 23 2.44129 22.6839 1.87868 22.1213C1.31607 21.5587 1 20.7957 1 20V8C1 7.44772 1.44772 7 2 7H5.69722L11.4453 3.16795ZM11 21H13V17C13 16.7348 12.8946 16.4804 12.7071 16.2929C12.5196 16.1054 12.2652 16 12 16C11.7348 16 11.4804 16.1054 11.2929 16.2929C11.1054 16.4804 11 16.7348 11 17V21ZM15 21V17C15 16.2043 14.6839 15.4413 14.1213 14.8787C13.5587 14.3161 12.7957 14 12 14C11.2043 14 10.4413 14.3161 9.87868 14.8787C9.31607 15.4413 9 16.2043 9 17V21H4C3.73478 21 3.48043 20.8946 3.29289 20.7071C3.10536 20.5196 3 20.2652 3 20V9H6C6.19742 9 6.39043 8.94156 6.5547 8.83205L12 5.20185L17.4453 8.83205C17.6096 8.94156 17.8026 9 18 9H21V20C21 20.2652 20.8946 20.5196 20.7071 20.7071C20.5196 20.8946 20.2652 21 20 21H15ZM10 10C10 8.89543 10.8954 8 12 8C13.1046 8 14 8.89543 14 10C14 11.1046 13.1046 12 12 12C10.8954 12 10 11.1046 10 10ZM6 12C6.55228 12 7 12.4477 7 13V13.01C7 13.5623 6.55228 14.01 6 14.01C5.44772 14.01 5 13.5623 5 13.01V13C5 12.4477 5.44772 12 6 12ZM18 12C18.5523 12 19 12.4477 19 13V13.01C19 13.5623 18.5523 14.01 18 14.01C17.4477 14.01 17 13.5623 17 13.01V13C17 12.4477 17.4477 12 18 12ZM6 16C6.55228 16 7 16.4477 7 17V17.01C7 17.5623 6.55228 18.01 6 18.01C5.44772 18.01 5 17.5623 5 17.01V17C5 16.4477 5.44772 16 6 16ZM18 16C18.5523 16 19 16.4477 19 17V17.01C19 17.5623 18.5523 18.01 18 18.01C17.4477 18.01 17 17.5623 17 17.01V17C17 16.4477 17.4477 16 18 16Z" fill="black" style="fill:black;fill-opacity:1;"/>
</svg>
