<svg width="24" height="24" viewBox="0 0 24 24" fill="none" xmlns="http://www.w3.org/2000/svg">
<path fill-rule="evenodd" clip-rule="evenodd" d="M4 7C3.44772 7 3 7.44772 3 8C3 8.55228 3.44772 9 4 9C4.55228 9 5 8.55228 5 8C5 7.44772 4.55228 7 4 7ZM1 8C1 6.34315 2.34315 5 4 5C5.65685 5 7 6.34315 7 8C7 8.46315 6.89505 8.90178 6.70763 9.29342L7.99996 10.5857L13.2928 5.29289C13.6833 4.90237 14.3165 4.90237 14.707 5.29289C15.0976 5.68342 15.0976 6.31658 14.707 6.70711L6.7076 14.7065C6.89504 15.0982 7 15.5368 7 16C7 17.6569 5.65685 19 4 19C2.34315 19 1 17.6569 1 16C1 14.3431 2.34315 13 4 13C4.46313 13 4.90174 13.1049 5.29336 13.2923L6.58575 12L5.29342 10.7076C4.90178 10.895 4.46315 11 4 11C2.34315 11 1 9.65685 1 8ZM13 12C13 11.4477 13.4477 11 14 11H16C16.5523 11 17 11.4477 17 12C17 12.5523 16.5523 13 16 13H14C13.4477 13 13 12.5523 13 12ZM19 12C19 11.4477 19.4477 11 20 11H22C22.5523 11 23 11.4477 23 12C23 12.5523 22.5523 13 22 13H20C19.4477 13 19 12.5523 19 12ZM4 15C3.44772 15 3 15.4477 3 16C3 16.5523 3.44772 17 4 17C4.55228 17 5 16.5523 5 16C5 15.4477 4.55228 15 4 15ZM10.0929 14.0929C10.4835 13.7024 11.1166 13.7024 11.5072 14.0929L14.7072 17.2929C15.0977 17.6835 15.0977 18.3166 14.7072 18.7072C14.3166 19.0977 13.6835 19.0977 13.2929 18.7072L10.0929 15.5072C9.70242 15.1166 9.70242 14.4835 10.0929 14.0929Z" fill="black" style="fill:black;fill-opacity:1;"/>
</svg>
