<svg width="24" height="24" viewBox="0 0 24 24" fill="none" xmlns="http://www.w3.org/2000/svg">
<path fill-rule="evenodd" clip-rule="evenodd" d="M4 3C3.73478 3 3.48043 3.10536 3.29289 3.29289C3.10536 3.48043 3 3.73478 3 4V20C3 20.2652 3.10536 20.5196 3.29289 20.7071C3.48043 20.8946 3.73478 21 4 21C4.55228 21 5 21.4477 5 22C5 22.5523 4.55228 23 4 23C3.20435 23 2.44129 22.6839 1.87868 22.1213C1.31607 21.5587 1 20.7957 1 20V4C1 3.20435 1.31607 2.44129 1.87868 1.87868C2.44129 1.31607 3.20435 1 4 1H20C20.7957 1 21.5587 1.31607 22.1213 1.87868C22.6839 2.44129 23 3.20435 23 4V20C23 20.7957 22.6839 21.5587 22.1213 22.1213C21.5587 22.6839 20.7957 23 20 23C19.4477 23 19 22.5523 19 22C19 21.4477 19.4477 21 20 21C20.2652 21 20.5196 20.8946 20.7071 20.7071C20.8946 20.5196 21 20.2652 21 20V4C21 3.73478 20.8946 3.48043 20.7071 3.29289C20.5196 3.10536 20.2652 3 20 3H4ZM8 7C7.44772 7 7 7.44772 7 8C7 8.55228 7.44772 9 8 9C8.27085 9 8.51656 8.89232 8.69663 8.71743C8.70004 8.71392 8.70348 8.71043 8.70696 8.70696C8.71043 8.70348 8.71392 8.70004 8.71743 8.69663C8.89232 8.51656 9 8.27085 9 8C9 7.44772 8.55228 7 8 7ZM10.7076 9.29342C10.895 8.90178 11 8.46315 11 8C11 6.34315 9.65685 5 8 5C6.34315 5 5 6.34315 5 8C5 9.65685 6.34315 11 8 11C8.46315 11 8.90178 10.895 9.29342 10.7076L10.5858 12L9.29346 13.2924C8.90181 13.105 8.46316 13 8 13C6.34315 13 5 14.3431 5 16C5 17.6569 6.34315 19 8 19C9.65685 19 11 17.6569 11 16C11 15.5369 10.8951 15.0983 10.7076 14.7066L12.7004 12.7139C12.7027 12.7116 12.7049 12.7094 12.7072 12.7072C12.7094 12.7049 12.7116 12.7027 12.7139 12.7004L18.7072 6.70711C19.0977 6.31658 19.0977 5.68342 18.7072 5.29289C18.3166 4.90237 17.6835 4.90237 17.293 5.29289L12 10.5858L10.7076 9.29342ZM8.6956 15.2816C8.69935 15.2854 8.70313 15.2893 8.70696 15.2931C8.71077 15.2969 8.7146 15.3007 8.71846 15.3044C8.89274 15.4844 9 15.7297 9 16C9 16.5523 8.55228 17 8 17C7.44772 17 7 16.5523 7 16C7 15.4477 7.44772 15 8 15C8.27033 15 8.51561 15.1073 8.6956 15.2816ZM14.0929 14.0929C14.4835 13.7024 15.1166 13.7024 15.5072 14.0929L18.7072 17.2929C19.0977 17.6835 19.0977 18.3166 18.7072 18.7072C18.3166 19.0977 17.6835 19.0977 17.2929 18.7072L14.0929 15.5072C13.7024 15.1166 13.7024 14.4835 14.0929 14.0929ZM7 22C7 21.4477 7.44772 21 8 21H10C10.5523 21 11 21.4477 11 22C11 22.5523 10.5523 23 10 23H8C7.44772 23 7 22.5523 7 22ZM13 22C13 21.4477 13.4477 21 14 21H16C16.5523 21 17 21.4477 17 22C17 22.5523 16.5523 23 16 23H14C13.4477 23 13 22.5523 13 22Z" fill="black" style="fill:black;fill-opacity:1;"/>
</svg>
