<svg width="24" height="24" viewBox="0 0 24 24" fill="none" xmlns="http://www.w3.org/2000/svg">
<g clip-path="url(#clip0_168_844)">
<path d="M22 23.0001C21.75 23.0001 21.5 22.9101 21.3 22.7201L20.94 22.9001C20.8 22.9701 20.65 23.0101 20.49 23.0101H4C3.2 23.0101 2.45 22.7001 1.88 22.1301C1.31 21.5601 0.999999 20.8001 0.999999 20.0001V16.0001C0.999999 15.2001 1.31 14.4401 1.88 13.8801C2.45 13.3101 3.2 13.0001 4 13.0001H11.59L9.59 11.0001H4C3.2 11.0001 2.45 10.6901 1.88 10.1201C1.31 9.56006 0.999999 8.80006 0.999999 8.00006V5.00006C0.999999 3.74006 0.999999 2.94006 1.09 2.41006C0.919999 2.04006 0.989999 1.60006 1.29 1.29006C1.68 0.900059 2.32 0.900059 2.71 1.29006L22.71 21.2901C22.91 21.4901 23 21.7401 23 22.0001C23 22.2601 22.9 22.5101 22.71 22.7101C22.52 22.9101 22.26 23.0001 22 23.0001ZM4 15.0001C3.74 15.0001 3.48 15.1101 3.29 15.2901C3.1 15.4801 3 15.7301 3 16.0001V20.0001C3 20.2701 3.1 20.5201 3.29 20.7101C3.48 20.9001 3.73 21.0001 4 21.0001H19.59L13.59 15.0001H4ZM3 4.42006C3 4.61006 3 4.80006 3 5.00006V8.00006C3 8.27006 3.1 8.52006 3.29 8.71006C3.48 8.90006 3.73 9.00006 4 9.00006H7.59L3 4.42006ZM6.01 19.0001C5.46 19.0001 5.01 18.5501 5.01 18.0001C5.01 17.4501 5.45 17.0001 6.01 17.0001C6.56 17.0001 7.01 17.4501 7.01 18.0001C7.01 18.5501 6.56 19.0001 6.01 19.0001ZM22 18.0001C21.45 18.0001 21 17.5501 21 17.0001V16.0001C21 15.7401 20.89 15.4801 20.71 15.2901C20.52 15.1001 20.27 15.0001 20 15.0001H19C18.45 15.0001 18 14.5501 18 14.0001C18 13.4501 18.45 13.0001 19 13.0001H20C20.8 13.0001 21.55 13.3101 22.12 13.8801C22.69 14.4501 23 15.2001 23 16.0001V17.0001C23 17.5501 22.55 18.0001 22 18.0001ZM20 11.0001H15C14.45 11.0001 14 10.5501 14 10.0001C14 9.45006 14.45 9.00006 15 9.00006H20C20.26 9.00006 20.52 8.89006 20.71 8.71006C20.9 8.52006 21 8.27006 21 8.00006V4.00006C21 3.74006 20.89 3.48006 20.71 3.29006C20.52 3.10006 20.27 3.00006 20 3.00006H7C6.45 3.00006 6 2.55006 6 2.00006C6 1.45006 6.45 1.00006 7 1.00006H20C20.8 1.00006 21.55 1.31006 22.12 1.88006C22.69 2.45006 23 3.20006 23 4.00006V8.00006C23 8.80006 22.69 9.55006 22.12 10.1201C21.55 10.6901 20.8 11.0001 20 11.0001Z" fill="black" style="fill:black;fill-opacity:1;"/>
</g>
<defs>
<clipPath id="clip0_168_844">
<rect width="22" height="22" fill="white" style="fill:white;fill-opacity:1;" transform="translate(1 1)"/>
</clipPath>
</defs>
</svg>
