<svg width="24" height="24" viewBox="0 0 24 24" fill="none" xmlns="http://www.w3.org/2000/svg">
<path d="M12.2179 23H11.7779C10.1279 23 8.77791 21.65 8.77791 20V19.82C8.77791 19.47 8.58791 19.13 8.27791 18.96L7.84791 18.71C7.53791 18.53 7.15791 18.53 6.84791 18.71L6.66791 18.81C5.26791 19.62 3.42791 19.13 2.59791 17.7L2.37791 17.32C1.54791 15.89 2.04791 14.05 3.46791 13.22L3.59791 13.14C3.92791 12.95 4.11791 12.62 4.11791 12.26V11.75C4.11791 11.4 3.92791 11.07 3.61791 10.9L3.41791 10.77C2.04791 9.96 1.55791 8.12 2.37791 6.69L2.59791 6.31C3.42791 4.88 5.26791 4.39 6.69791 5.22L6.81791 5.28C7.15791 5.47 7.53791 5.47 7.84791 5.3L8.27791 5.05C8.58791 4.87 8.77791 4.54 8.77791 4.18V4C8.77791 2.35 10.1279 1 11.7779 1H12.2179C13.8679 1 15.2179 2.35 15.2179 4V4.18C15.2179 4.53 15.4079 4.87 15.7179 5.05L16.1479 5.3C16.4479 5.48 16.8379 5.48 17.1479 5.3L17.3279 5.2C18.7279 4.39 20.5679 4.88 21.3979 6.31L21.6179 6.69C22.4479 8.12 21.9579 9.96 20.5279 10.79L20.3879 10.87C20.0679 11.06 19.8779 11.39 19.8779 11.75V12.25C19.8779 12.61 20.0679 12.94 20.3779 13.12L20.4979 13.18C21.9579 14.03 22.4479 15.86 21.6279 17.29L21.4179 17.67C20.5879 19.11 18.7479 19.6 17.3179 18.78L17.1979 18.72C16.8579 18.52 16.4779 18.53 16.1679 18.7L15.7379 18.95C15.4279 19.13 15.2379 19.46 15.2379 19.82V20C15.2379 21.65 13.8879 23 12.2379 23H12.2179ZM7.33791 16.57C7.85791 16.57 8.37791 16.7 8.84791 16.97L9.27791 17.22C10.1979 17.75 10.7779 18.75 10.7779 19.81V19.99C10.7779 20.54 11.2279 20.99 11.7779 20.99H12.2179C12.7679 20.99 13.2179 20.54 13.2179 19.99V19.81C13.2179 18.74 13.7979 17.75 14.7179 17.21L15.1479 16.96C16.0779 16.43 17.2279 16.43 18.1479 16.96L18.2679 17.02C18.7679 17.31 19.3879 17.15 19.6579 16.67L19.8679 16.29C20.1479 15.8 19.9879 15.19 19.5079 14.92L19.3879 14.86C18.4279 14.31 17.8579 13.31 17.8579 12.23V11.73C17.8579 10.66 18.4279 9.66 19.3579 9.12L19.4979 9.04C19.9879 8.76 20.1479 8.14 19.8779 7.67L19.6579 7.29C19.3779 6.81 18.7679 6.65 18.2879 6.93L18.1079 7.03C17.2079 7.55 16.0579 7.55 15.1379 7.01L14.7079 6.76C13.7879 6.23 13.2079 5.23 13.2079 4.17V3.99C13.2079 3.44 12.7579 2.99 12.2079 2.99H11.7679C11.2179 2.99 10.7679 3.44 10.7679 3.99V4.17C10.7679 5.24 10.1879 6.23 9.26791 6.77L8.83791 7.02C7.90791 7.55 6.75791 7.56 5.83791 7.02L5.71791 6.96C5.20791 6.67 4.59791 6.83 4.31791 7.31L4.09791 7.69C3.82791 8.17 3.98791 8.78 4.46791 9.05L4.66791 9.18C5.53791 9.68 6.10791 10.67 6.11791 11.73V12.25C6.11791 13.32 5.54791 14.32 4.61791 14.86L4.48791 14.94C3.98791 15.23 3.82791 15.84 4.10791 16.32L4.32791 16.7C4.60791 17.17 5.21791 17.34 5.69791 17.07L5.87791 16.97C6.31791 16.71 6.82791 16.58 7.33791 16.58V16.57ZM11.9979 16C9.78791 16 7.99791 14.21 7.99791 12C7.99791 9.79 9.78791 8 11.9979 8C14.2079 8 15.9979 9.79 15.9979 12C15.9979 14.21 14.2079 16 11.9979 16ZM11.9979 10C10.8979 10 9.99791 10.9 9.99791 12C9.99791 13.1 10.8979 14 11.9979 14C13.0979 14 13.9979 13.1 13.9979 12C13.9979 10.9 13.0979 10 11.9979 10Z" fill="black" style="fill:black;fill-opacity:1;"/>
</svg>
