<svg width="24" height="24" viewBox="0 0 24 24" fill="none" xmlns="http://www.w3.org/2000/svg">
<path fill-rule="evenodd" clip-rule="evenodd" d="M5 4C4.44772 4 4 4.44772 4 5V19C4 19.5523 4.44771 20 5 20H19C19.5523 20 20 19.5523 20 19V5C20 4.44771 19.5523 4 19 4H5ZM2 5C2 3.34315 3.34315 2 5 2H19C20.6569 2 22 3.34315 22 5V19C22 20.6569 20.6569 22 19 22H5C3.34315 22 2 20.6569 2 19V5ZM7.0987 6.56681C7.26522 6.22035 7.61559 6 8 6H16C16.5523 6 17 6.44772 17 7V8.9C17 9.45228 16.5523 9.9 16 9.9C15.4477 9.9 15 9.45228 15 8.9V8H10.0806L12.7809 11.3753C13.073 11.7405 13.073 12.2595 12.7809 12.6247L10.0806 16H15V15.1C15 14.5477 15.4477 14.1 16 14.1C16.5523 14.1 17 14.5477 17 15.1V17C17 17.5523 16.5523 18 16 18H8C7.61559 18 7.26522 17.7797 7.0987 17.4332C6.93218 17.0867 6.979 16.6755 7.21913 16.3753L10.7194 12L7.21913 7.62469C6.979 7.32452 6.93218 6.91328 7.0987 6.56681Z" fill="black" style="fill:black;fill-opacity:1;"/>
</svg>
