<svg width="24" height="24" viewBox="0 0 24 24" fill="none" xmlns="http://www.w3.org/2000/svg">
<path fill-rule="evenodd" clip-rule="evenodd" d="M12 2C12.5523 2 13 2.44772 13 3V5H18.5C18.7652 5 19.0196 5.10536 19.2071 5.29289L22.7071 8.79289C23.0976 9.18342 23.0976 9.81658 22.7071 10.2071L19.2071 13.7071C19.0196 13.8946 18.7652 14 18.5 14H13V21C13 21.5523 12.5523 22 12 22C11.4477 22 11 21.5523 11 21V14H5.5C5.23478 14 4.98043 13.8946 4.79289 13.7071L1.29289 10.2071C0.902369 9.81658 0.902369 9.18342 1.29289 8.79289L4.79289 5.29289C4.98043 5.10536 5.23478 5 5.5 5H11V3C11 2.44772 11.4477 2 12 2ZM5.91421 7L3.41421 9.5L5.91421 12H18.0858L20.5858 9.5L18.0858 7H5.91421Z" fill="black" style="fill:black;fill-opacity:1;"/>
</svg>
