<svg width="24" height="24" viewBox="0 0 24 24" fill="none" xmlns="http://www.w3.org/2000/svg">
<path fill-rule="evenodd" clip-rule="evenodd" d="M12.9 2.99506C11.0926 2.81343 9.27254 3.18298 7.67909 4.05511C6.08564 4.92725 4.79339 6.26115 3.97222 7.88146C3.15106 9.50177 2.83942 11.3326 3.07828 13.1334C3.31713 14.9341 4.0953 16.6204 5.31048 17.9706C6.52567 19.3208 8.12098 20.2717 9.8867 20.6983C11.6524 21.1249 13.5059 21.0071 15.2034 20.3606C16.901 19.7141 18.3632 18.569 19.3978 17.0759C20.4319 15.5835 20.9904 13.8132 21 11.9977V11.0001C21 10.4478 21.4477 10.0001 22 10.0001C22.5523 10.0001 23 10.4478 23 11.0001V12.0001L23 12.0051C22.9889 14.2252 22.3062 16.3901 21.0417 18.215C19.7772 20.0399 17.9901 21.4394 15.9153 22.2296C13.8405 23.0198 11.5751 23.1637 9.41704 22.6424C7.25894 22.121 5.30912 20.9588 3.8239 19.3086C2.33867 17.6583 1.38758 15.5973 1.09564 13.3964C0.803706 11.1955 1.1846 8.95773 2.18824 6.97735C3.19189 4.99697 4.7713 3.36665 6.71886 2.3007C8.66641 1.23476 10.8909 0.783094 13.1 1.00508C13.6495 1.06031 14.0502 1.55054 13.995 2.10006C13.9398 2.64958 13.4495 3.05028 12.9 2.99506ZM19 1C19.5523 1 20 1.44772 20 2V4H22C22.5523 4 23 4.44772 23 5C23 5.55229 22.5523 6 22 6H20V8C20 8.55229 19.5523 9 19 9C18.4477 9 18 8.55229 18 8V6H16C15.4477 6 15 5.55229 15 5C15 4.44772 15.4477 4 16 4H18V2C18 1.44772 18.4477 1 19 1ZM8 9C8 8.44772 8.44772 8 9 8H9.01C9.56229 8 10.01 8.44772 10.01 9C10.01 9.55229 9.56229 10 9.01 10H9C8.44772 10 8 9.55229 8 9ZM14 9C14 8.44772 14.4477 8 15 8H15.01C15.5623 8 16.01 8.44772 16.01 9C16.01 9.55229 15.5623 10 15.01 10H15C14.4477 10 14 9.55229 14 9Z" fill="black" style="fill:black;fill-opacity:1;"/>
</svg>
