<svg width="24" height="24" viewBox="0 0 24 24" fill="none" xmlns="http://www.w3.org/2000/svg">
<path fill-rule="evenodd" clip-rule="evenodd" d="M11.2929 1.29289C11.6834 0.902369 12.3166 0.902369 12.7071 1.29289L19.7071 8.29289C21.1923 9.77808 23 11.7443 23 14.5C23 15.3536 22.8319 16.1988 22.5052 16.9874C22.1786 17.7761 21.6998 18.4926 21.0962 19.0962C20.4926 19.6998 19.7761 20.1786 18.9874 20.5052C18.1988 20.8319 17.3536 21 16.5 21C15.5022 21 14.6074 20.8606 13.7358 20.4783C13.484 20.3678 13.2397 20.2395 13 20.0933V22C13 22.5523 12.5523 23 12 23C11.4477 23 11 22.5523 11 22V20.0933C10.7603 20.2395 10.516 20.3678 10.2642 20.4783C9.39258 20.8606 8.49778 21 7.5 21C5.77609 21 4.12279 20.3152 2.90381 19.0962C2.30023 18.4926 1.82144 17.7761 1.49478 16.9874C1.16813 16.1988 1 15.3536 1 14.5C1 11.7443 2.80771 9.77808 4.29289 8.29289L11.2929 1.29289ZM12 3.41421L5.70711 9.70711C4.19229 11.2219 3 12.6557 3 14.5C3 15.0909 3.1164 15.6761 3.34254 16.2221C3.56869 16.768 3.90016 17.2641 4.31802 17.682C5.16193 18.5259 6.30653 19 7.5 19C8.30222 19 8.90742 18.8894 9.46084 18.6467C10.0216 18.4007 10.596 17.9898 11.2929 17.2929C11.6834 16.9024 12.3166 16.9024 12.7071 17.2929C13.404 17.9898 13.9784 18.4007 14.5392 18.6467C15.0926 18.8894 15.6978 19 16.5 19C17.0909 19 17.6761 18.8836 18.2221 18.6575C18.768 18.4313 19.2641 18.0998 19.682 17.682C20.0998 17.2641 20.4313 16.768 20.6575 16.2221C20.8836 15.6761 21 15.0909 21 14.5C21 12.6557 19.8077 11.2219 18.2929 9.70711L12 3.41421Z" fill="black" style="fill:black;fill-opacity:1;"/>
</svg>
