<svg width="24" height="24" viewBox="0 0 24 24" fill="none" xmlns="http://www.w3.org/2000/svg">
<path fill-rule="evenodd" clip-rule="evenodd" d="M12 3C12.3788 3 12.725 3.214 12.8944 3.55279L16.8854 11.5348C16.8919 11.5471 16.8981 11.5596 16.9041 11.5722L18.8944 15.5528C19.1414 16.0468 18.9412 16.6474 18.4472 16.8944C17.9532 17.1414 17.3526 16.9412 17.1056 16.4472L15.382 13H8.61804L6.89443 16.4472C6.64744 16.9412 6.04677 17.1414 5.55279 16.8944C5.05881 16.6474 4.85859 16.0468 5.10558 15.5528L7.09589 11.5722C7.10186 11.5596 7.1081 11.5471 7.11458 11.5348L11.1056 3.55279C11.275 3.214 11.6212 3 12 3ZM9.61804 11H14.382L12 6.23607L9.61804 11ZM22.7071 17.2929C23.0976 17.6834 23.0976 18.3166 22.7071 18.7071L18.7071 22.7071C18.3166 23.0976 17.6834 23.0976 17.2929 22.7071L15.2929 20.7071C14.9024 20.3166 14.9024 19.6834 15.2929 19.2929C15.6834 18.9024 16.3166 18.9024 16.7071 19.2929L18 20.5858L21.2929 17.2929C21.6834 16.9024 22.3166 16.9024 22.7071 17.2929Z" fill="black" style="fill:black;fill-opacity:1;"/>
</svg>
