<svg width="24" height="24" viewBox="0 0 24 24" fill="none" xmlns="http://www.w3.org/2000/svg">
<path fill-rule="evenodd" clip-rule="evenodd" d="M2 3C2 2.44772 2.44772 2 3 2H3.01C3.56228 2 4.01 2.44772 4.01 3C4.01 3.55228 3.56228 4 3.01 4H3C2.44772 4 2 3.55228 2 3ZM6 5C6 4.44772 6.44772 4 7 4H7.01C7.56228 4 8.01 4.44772 8.01 5C8.01 5.55228 7.56228 6 7.01 6H7C6.44772 6 6 5.55228 6 5ZM14 5C14 4.44772 14.4477 4 15 4H19C19.5523 4 20 4.44772 20 5V8.58579L21.7071 10.2929C21.8946 10.4804 22 10.7348 22 11V11.9791C22.0003 11.9936 22.0003 12.008 22 12.0224V16.9791C22.0003 16.9936 22.0003 17.008 22 17.0224V21C22 21.5272 21.8199 22.0443 21.4321 22.4321C21.0443 22.8199 20.5272 23 20 23H14C13.4728 23 12.9557 22.8199 12.5679 22.4321C12.1801 22.0443 12 21.5272 12 21V19.0209C11.9997 19.0064 11.9997 18.992 12 18.9776V14.0209C11.9997 14.0064 11.9997 13.992 12 13.9776V11C12 10.7348 12.1054 10.4804 12.2929 10.2929L14 8.58579V5ZM15.4142 10L14 11.4142V12.7192L19.844 11.2582L18.5858 10H15.4142ZM18 8V6H16V8H18ZM20 13.2808L14 14.7808V17.7192L20 16.2192V13.2808ZM20 18.2808L14 19.7808V21H20V18.2808ZM2 7C2 6.44772 2.44772 6 3 6H3.01C3.56228 6 4.01 6.44772 4.01 7C4.01 7.55228 3.56228 8 3.01 8H3C2.44772 8 2 7.55228 2 7ZM10 7C10 6.44772 10.4477 6 11 6H11.01C11.5623 6 12.01 6.44772 12.01 7C12.01 7.55228 11.5623 8 11.01 8H11C10.4477 8 10 7.55228 10 7ZM6 9C6 8.44772 6.44772 8 7 8H7.01C7.56228 8 8.01 8.44772 8.01 9C8.01 9.55228 7.56228 10 7.01 10H7C6.44772 10 6 9.55228 6 9ZM2 11C2 10.4477 2.44772 10 3 10H3.01C3.56228 10 4.01 10.4477 4.01 11C4.01 11.5523 3.56228 12 3.01 12H3C2.44772 12 2 11.5523 2 11Z" fill="black" style="fill:black;fill-opacity:1;"/>
</svg>
