<svg width="24" height="24" viewBox="0 0 24 24" fill="none" xmlns="http://www.w3.org/2000/svg">
<path fill-rule="evenodd" clip-rule="evenodd" d="M19.875 3.00366C19.5776 3.00366 19.2924 3.1218 19.0821 3.33209L9.90296 12.5112L9.37437 14.6256L11.4888 14.097L20.6679 4.91788C20.8782 4.70759 20.9963 4.42237 20.9963 4.12498C20.9963 3.82759 20.8782 3.54238 20.6679 3.33209C20.4576 3.1218 20.1724 3.00366 19.875 3.00366ZM17.6679 1.91788C18.2533 1.33251 19.0472 1.00366 19.875 1.00366C20.7028 1.00366 21.4967 1.33251 22.0821 1.91788C22.6675 2.50324 22.9963 3.29716 22.9963 4.12498C22.9963 4.95281 22.6675 5.74673 22.0821 6.33209L12.7071 15.7071C12.5789 15.8352 12.4184 15.9262 12.2425 15.9701L8.24254 16.9701C7.90176 17.0553 7.54127 16.9555 7.29289 16.7071C7.04451 16.4587 6.94466 16.0982 7.02986 15.7574L8.02986 11.7574C8.07382 11.5816 8.16473 11.421 8.29289 11.2929L17.6679 1.91788ZM2.87868 2.87868C3.44129 2.31607 4.20435 2 5 2H12C12.5523 2 13 2.44772 13 3C13 3.55228 12.5523 4 12 4H5C4.73478 4 4.48043 4.10536 4.29289 4.29289C4.10536 4.48043 4 4.73478 4 5V19C4 19.2652 4.10536 19.5196 4.29289 19.7071C4.48043 19.8946 4.73478 20 5 20H19C19.2652 20 19.5196 19.8946 19.7071 19.7071C19.8946 19.5196 20 19.2652 20 19V12C20 11.4477 20.4477 11 21 11C21.5523 11 22 11.4477 22 12V19C22 19.7957 21.6839 20.5587 21.1213 21.1213C20.5587 21.6839 19.7957 22 19 22H5C4.20435 22 3.44129 21.6839 2.87868 21.1213C2.31607 20.5587 2 19.7957 2 19V5C2 4.20435 2.31607 3.44129 2.87868 2.87868Z" fill="black" style="fill:black;fill-opacity:1;"/>
</svg>
