<svg width="24" height="24" viewBox="0 0 24 24" fill="none" xmlns="http://www.w3.org/2000/svg">
<path fill-rule="evenodd" clip-rule="evenodd" d="M12.43 1.09713C12.9286 1.33457 13.1403 1.93129 12.9029 2.42992L9.90289 8.72992C9.75888 9.03234 9.47304 9.24257 9.14145 9.28994L4.1729 9.99973L7.69256 13.3786C7.93253 13.609 8.04224 13.9436 7.98524 14.2713L7.13015 19.1881L11.5414 16.9114C12.0322 16.6581 12.6353 16.8506 12.8887 17.3413C13.142 17.8321 12.9494 18.4353 12.4587 18.6886L6.25867 21.8886C5.92126 22.0628 5.51433 22.0308 5.20825 21.8061C4.90218 21.5814 4.74976 21.2027 4.81482 20.8286L5.92365 14.4529L1.3075 10.0214C1.0316 9.75652 0.930937 9.3575 1.04817 8.99346C1.1654 8.62942 1.48 8.36413 1.85861 8.31004L8.32773 7.38588L11.0972 1.57006C11.3346 1.07142 11.9313 0.859683 12.43 1.09713Z" fill="black" style="fill:black;fill-opacity:1;"/>
</svg>
