<svg width="24" height="24" viewBox="0 0 24 24" fill="none" xmlns="http://www.w3.org/2000/svg">
<path fill-rule="evenodd" clip-rule="evenodd" d="M9.56681 3.09871C9.91328 2.93219 10.3245 2.979 10.6247 3.21914L20.6247 11.2191C20.8619 11.4089 21 11.6962 21 12C21 12.3038 20.8619 12.5911 20.6247 12.7809L10.6247 20.7809C10.3245 21.021 9.91328 21.0678 9.56681 20.9013C9.22035 20.7348 9 20.3844 9 20V4.00001C9 3.6156 9.22035 3.26523 9.56681 3.09871ZM6 3.00001C6.55228 3.00001 7 3.44772 7 4.00001V20C7 20.5523 6.55228 21 6 21C5.44772 21 5 20.5523 5 20V4.00001C5 3.44772 5.44772 3.00001 6 3.00001ZM11 6.08063V17.9194L18.3992 12L11 6.08063Z" fill="black" style="fill:black;fill-opacity:1;"/>
</svg>
