<svg width="24" height="24" viewBox="0 0 24 24" fill="none" xmlns="http://www.w3.org/2000/svg">
<path fill-rule="evenodd" clip-rule="evenodd" d="M14.4332 3.09871C14.7797 3.26523 15 3.6156 15 4.00001V20C15 20.3844 14.7797 20.7348 14.4332 20.9013C14.0867 21.0678 13.6755 21.021 13.3753 20.7809L3.3753 12.7809C3.13809 12.5911 3 12.3038 3 12C3 11.6962 3.13809 11.4089 3.3753 11.2191L13.3753 3.21914C13.6755 2.979 14.0867 2.93219 14.4332 3.09871ZM18 3.00001C18.5523 3.00001 19 3.44772 19 4.00001V20C19 20.5523 18.5523 21 18 21C17.4477 21 17 20.5523 17 20V4.00001C17 3.44772 17.4477 3.00001 18 3.00001ZM5.60078 12L13 17.9194V6.08063L5.60078 12Z" fill="black" style="fill:black;fill-opacity:1;"/>
</svg>
