<svg width="24" height="24" viewBox="0 0 24 24" fill="none" xmlns="http://www.w3.org/2000/svg">
<path fill-rule="evenodd" clip-rule="evenodd" d="M4.89004 0.999898C5.08146 0.968645 5.27846 0.980469 5.46639 1.03575C5.72803 1.11272 5.95883 1.27001 6.12614 1.48538C6.29345 1.70075 6.38879 1.96328 6.39867 2.23582C6.40854 2.50835 6.33246 2.7771 6.18118 3.00402C6.0299 3.23094 5.81109 3.40453 5.55572 3.50023C5.30035 3.59594 5.02134 3.60891 4.75819 3.5373C4.49504 3.4657 4.26108 3.31315 4.0894 3.10124C4.06293 3.06857 4.03815 3.03474 4.01511 2.9999H4C3.73478 2.9999 3.48043 3.10525 3.29289 3.29279C3.10536 3.48033 3 3.73468 3 3.9999V8.9999C3 10.326 3.52678 11.5977 4.46447 12.5354C5.40215 13.4731 6.67392 13.9999 8 13.9999C9.32608 13.9999 10.5979 13.4731 11.5355 12.5354C12.4732 11.5977 13 10.326 13 8.9999V3.9999C13 3.73468 12.8946 3.48033 12.7071 3.29279C12.5229 3.10857 12.2742 3.00364 12.014 3C12.0117 3.00234 12.0094 3.00468 12.0071 3.007C11.8945 3.11956 11.7609 3.20885 11.6139 3.26976C11.4668 3.33068 11.3092 3.36203 11.15 3.36203C10.9908 3.36203 10.8332 3.33068 10.6861 3.26976C10.5391 3.20885 10.4055 3.11956 10.2929 3.007C10.1803 2.89445 10.0911 2.76082 10.0301 2.61376C9.96922 2.4667 9.93787 2.30908 9.93787 2.1499C9.93787 1.99072 9.96922 1.8331 10.0301 1.68603C10.0911 1.53897 10.1803 1.40535 10.2929 1.29279C10.4804 1.10525 10.7348 0.999898 11 0.999898H12C12.7956 0.999898 13.5587 1.31597 14.1213 1.87858C14.6839 2.44119 15 3.20425 15 3.9999V8.9999C15 10.8564 14.2625 12.6369 12.9497 13.9496C11.875 15.0244 10.4868 15.7135 9 15.9281V16C9 17.3261 9.52678 18.5979 10.4645 19.5355C11.4021 20.4732 12.6739 21 14 21C15.3261 21 16.5979 20.4732 17.5355 19.5355C18.4732 18.5979 19 17.3261 19 16V12.8293C17.8348 12.4175 17 11.3062 17 10C17 8.34315 18.3431 7 20 7C21.6569 7 23 8.34315 23 10C23 11.3062 22.1652 12.4175 21 12.8293V16C21 17.8565 20.2625 19.637 18.9497 20.9497C17.637 22.2625 15.8565 23 14 23C12.1435 23 10.363 22.2625 9.05025 20.9497C7.7375 19.637 7 17.8565 7 16V15.9281C5.51321 15.7135 4.12499 15.0244 3.05025 13.9496C1.7375 12.6369 1 10.8564 1 8.9999V3.9999C1 3.20425 1.31607 2.44119 1.87868 1.87858C2.44129 1.31597 3.20435 0.999898 4 0.999898H4.89004ZM20 9C19.4477 9 19 9.44772 19 10C19 10.5523 19.4477 11 20 11C20.5523 11 21 10.5523 21 10C21 9.44772 20.5523 9 20 9Z" fill="black" style="fill:black;fill-opacity:1;"/>
</svg>
