<svg width="24" height="24" viewBox="0 0 24 24" fill="none" xmlns="http://www.w3.org/2000/svg">
<path fill-rule="evenodd" clip-rule="evenodd" d="M12 1C12.5523 1 13 1.44772 13 2V4C13 4.55228 12.5523 5 12 5C11.4477 5 11 4.55228 11 4V2C11 1.44772 11.4477 1 12 1ZM4.19292 4.1928C4.58344 3.80227 5.21661 3.80227 5.60713 4.1928L7.00713 5.5928C7.39766 5.98332 7.39766 6.61649 7.00713 7.00701C6.61661 7.39753 5.98344 7.39753 5.59292 7.00701L4.19292 5.60701C3.80239 5.21648 3.80239 4.58332 4.19292 4.1928ZM19.8071 4.1928C20.1976 4.58332 20.1976 5.21648 19.8071 5.60701L18.4071 7.00701C18.0165 7.39753 17.3834 7.39753 16.9928 7.00701C16.6023 6.61649 16.6023 5.98332 16.9928 5.5928L18.3928 4.1928C18.7834 3.80227 19.4165 3.80227 19.8071 4.1928ZM10.255 9.55975C9.7992 9.88566 9.44326 10.3331 9.22836 10.8519C9.0013 11.4001 8.94189 12.0033 9.05765 12.5853C9.1734 13.1672 9.45912 13.7018 9.87868 14.1213C10.2982 14.5409 10.8328 14.8266 11.4147 14.9424C11.9967 15.0581 12.5999 14.9987 13.1481 14.7716C13.6669 14.5567 14.1143 14.2008 14.4402 13.745C14.2956 13.7592 14.1496 13.7652 14.0029 13.7628C13.0093 13.7462 12.0611 13.3441 11.3585 12.6415C10.6559 11.9389 10.2538 10.9907 10.2372 9.99714C10.2348 9.85042 10.2408 9.7044 10.255 9.55975ZM9.22215 7.84265C10.0444 7.29325 11.0111 7 12 7C12.3984 7 12.7588 7.23649 12.9174 7.60197C13.0759 7.96745 13.0025 8.3922 12.7303 8.68314C12.4059 9.02987 12.229 9.48908 12.237 9.9638C12.2449 10.4385 12.437 10.8916 12.7727 11.2273C13.1084 11.563 13.5615 11.7551 14.0362 11.763C14.5109 11.771 14.9701 11.5941 15.3169 11.2697C15.6078 10.9976 16.0326 10.9241 16.398 11.0826C16.7635 11.2412 17 11.6016 17 12C17 12.9889 16.7068 13.9556 16.1573 14.7779C15.6079 15.6001 14.8271 16.241 13.9134 16.6194C12.9998 16.9978 11.9945 17.0969 11.0246 16.9039C10.0546 16.711 9.16373 16.2348 8.46447 15.5355C7.7652 14.8363 7.289 13.9454 7.09608 12.9755C6.90315 12.0055 7.00217 11.0002 7.3806 10.0866C7.75904 9.17295 8.39991 8.39206 9.22215 7.84265ZM1 12C1 11.4477 1.44772 11 2 11H4C4.55228 11 5 11.4477 5 12C5 12.5523 4.55228 13 4 13H2C1.44772 13 1 12.5523 1 12ZM19 12C19 11.4477 19.4477 11 20 11H22C22.5523 11 23 11.4477 23 12C23 12.5523 22.5523 13 22 13H20C19.4477 13 19 12.5523 19 12ZM7.00713 16.9928C7.39766 17.3834 7.39766 18.0165 7.00713 18.4071L5.60713 19.8071C5.21661 20.1976 4.58344 20.1976 4.19292 19.8071C3.80239 19.4165 3.80239 18.7834 4.19292 18.3928L5.59292 16.9928C5.98344 16.6023 6.61661 16.6023 7.00713 16.9928ZM16.9928 16.9928C17.3834 16.6023 18.0165 16.6023 18.4071 16.9928L19.8071 18.3928C20.1976 18.7834 20.1976 19.4165 19.8071 19.8071C19.4165 20.1976 18.7834 20.1976 18.3928 19.8071L16.9928 18.4071C16.6023 18.0165 16.6023 17.3834 16.9928 16.9928ZM12 19C12.5523 19 13 19.4477 13 20V22C13 22.5523 12.5523 23 12 23C11.4477 23 11 22.5523 11 22V20C11 19.4477 11.4477 19 12 19Z" fill="black" style="fill:black;fill-opacity:1;"/>
</svg>
