<svg width="24" height="24" viewBox="0 0 24 24" fill="none" xmlns="http://www.w3.org/2000/svg">
<path fill-rule="evenodd" clip-rule="evenodd" d="M5.29289 1.29289C5.68342 0.902369 6.31658 0.902369 6.70711 1.29289L9.70711 4.29289C10.0976 4.68342 10.0976 5.31658 9.70711 5.70711L6.70711 8.70711C6.31658 9.09763 5.68342 9.09763 5.29289 8.70711C4.90237 8.31658 4.90237 7.68342 5.29289 7.29289L6.58579 6H4C3.73478 6 3.48043 6.10536 3.29289 6.29289C3.10536 6.48043 3 6.73478 3 7V17C3 17.2652 3.10536 17.5196 3.29289 17.7071C3.48043 17.8946 3.73478 18 4 18H11C11.5523 18 12 18.4477 12 19C12 19.5523 11.5523 20 11 20H4C3.20435 20 2.44129 19.6839 1.87868 19.1213C1.31607 18.5587 1 17.7957 1 17V7C1 6.20435 1.31607 5.44129 1.87868 4.87868C2.44129 4.31607 3.20435 4 4 4H6.58579L5.29289 2.70711C4.90237 2.31658 4.90237 1.68342 5.29289 1.29289ZM20 6H13C12.4477 6 12 5.55228 12 5C12 4.44772 12.4477 4 13 4H20C20.7957 4 21.5587 4.31607 22.1213 4.87868C22.6839 5.44129 23 6.20435 23 7V17C23 17.7957 22.6839 18.5587 22.1213 19.1213C21.5587 19.6839 20.7957 20 20 20H17.4142L18.7071 21.2929C19.0976 21.6834 19.0976 22.3166 18.7071 22.7071C18.3166 23.0976 17.6834 23.0976 17.2929 22.7071L14.2929 19.7071C13.9024 19.3166 13.9024 18.6834 14.2929 18.2929L17.2929 15.2929C17.6834 14.9024 18.3166 14.9024 18.7071 15.2929C19.0976 15.6834 19.0976 16.3166 18.7071 16.7071L17.4142 18H20C20.2652 18 20.5196 17.8946 20.7071 17.7071C20.8946 17.5196 21 17.2652 21 17V7C21 6.73478 20.8946 6.48043 20.7071 6.29289C20.5196 6.10536 20.2652 6 20 6ZM12 10C10.8954 10 10 10.8954 10 12C10 13.1046 10.8954 14 12 14C13.1046 14 14 13.1046 14 12C14 10.8954 13.1046 10 12 10ZM8 12C8 9.79086 9.79086 8 12 8C14.2091 8 16 9.79086 16 12C16 14.2091 14.2091 16 12 16C9.79086 16 8 14.2091 8 12Z" fill="black" style="fill:black;fill-opacity:1;"/>
</svg>
