<svg width="24" height="24" viewBox="0 0 24 24" fill="none" xmlns="http://www.w3.org/2000/svg">
<path fill-rule="evenodd" clip-rule="evenodd" d="M17.2929 1.29289C17.6834 0.902369 18.3166 0.902369 18.7071 1.29289L20.707 3.29275L22.7071 5.29289C23.0976 5.68342 23.0976 6.31658 22.7071 6.70711C22.3166 7.09763 21.6834 7.09763 21.2929 6.70711L20 5.41421L18.4142 7L20.7071 9.29289C21.0976 9.68342 21.0976 10.3166 20.7071 10.7071C20.3166 11.0976 19.6834 11.0976 19.2929 10.7071L19 10.4142L13.713 15.7012C13.7111 15.7031 13.7091 15.7051 13.7071 15.7071C13.7051 15.7091 13.7031 15.7111 13.7012 15.713L9.40706 20.0071C8.1885 21.2257 6.33884 21.404 5.01838 20.3958L2.70711 22.7071C2.31658 23.0976 1.68342 23.0976 1.29289 22.7071C0.902369 22.3166 0.902369 21.6834 1.29289 21.2929L3.61748 18.9683C2.63366 17.6158 2.71508 15.7603 4.00989 14.5759L13.5858 4.99998L13.2929 4.70711C12.9024 4.31658 12.9024 3.68342 13.2929 3.29289C13.6834 2.90237 14.3166 2.90237 14.7071 3.29289L17 5.58579L18.5858 4L17.2929 2.70711C16.9024 2.31658 16.9024 1.68342 17.2929 1.29289ZM15 6.41419L10.4142 11L13 13.5858L17.5858 8.99998L15 6.41419ZM11.5858 15L8.99998 12.4142L5.40706 16.0071C5.39466 16.0195 5.38195 16.0316 5.36892 16.0433C4.83216 16.5264 4.77572 17.3616 5.40706 17.9929L5.70108 18.2869C5.7031 18.2889 5.70511 18.2909 5.70711 18.2929C5.70911 18.2949 5.7111 18.2969 5.71308 18.2989L6.00706 18.5929C6.01945 18.6053 6.03152 18.618 6.04325 18.631C6.52633 19.1678 7.36151 19.2242 7.99284 18.5929L11.5858 15Z" fill="black" style="fill:black;fill-opacity:1;"/>
</svg>
