<svg width="24" height="24" viewBox="0 0 24 24" fill="none" xmlns="http://www.w3.org/2000/svg">
<path fill-rule="evenodd" clip-rule="evenodd" d="M7 3C6.73478 3 6.48043 3.10536 6.29289 3.29289C6.10536 3.48043 6 3.73478 6 4C6 4.55228 5.55228 5 5 5C4.44772 5 4 4.55228 4 4C4 3.20435 4.31607 2.44129 4.87868 1.87868C5.44129 1.31607 6.20435 1 7 1H19C19.7957 1 20.5587 1.31607 21.1213 1.87868C21.6839 2.44129 22 3.20435 22 4V20C22 20.7957 21.6839 21.5587 21.1213 22.1213C20.5587 22.6839 19.7957 23 19 23H16.6C16.0477 23 15.6 22.5523 15.6 22C15.6 21.4477 16.0477 21 16.6 21H19C19.2652 21 19.5196 20.8946 19.7071 20.7071C19.8946 20.5196 20 20.2652 20 20V4C20 3.73478 19.8946 3.48043 19.7071 3.29289C19.5196 3.10536 19.2652 3 19 3H7ZM5 9C4.44772 9 4 9.44772 4 10V20C4 20.5523 4.44772 21 5 21H11C11.5523 21 12 20.5523 12 20V10C12 9.44772 11.5523 9 11 9H5ZM2 10C2 8.34315 3.34315 7 5 7H11C12.6569 7 14 8.34315 14 10V20C14 21.6569 12.6569 23 11 23H5C3.34315 23 2 21.6569 2 20V10ZM7 18C7 17.4477 7.44772 17 8 17H8.01C8.56228 17 9.01 17.4477 9.01 18C9.01 18.5523 8.56228 19 8.01 19H8C7.44772 19 7 18.5523 7 18Z" fill="black" style="fill:black;fill-opacity:1;"/>
</svg>
