<svg width="24" height="24" viewBox="0 0 24 24" fill="none" xmlns="http://www.w3.org/2000/svg">
<path fill-rule="evenodd" clip-rule="evenodd" d="M18.7879 2.27285C19.3022 2.14457 19.8463 2.22565 20.3008 2.49827C20.7553 2.7709 21.083 3.21278 21.2119 3.72685L22.727 9.78714C22.8559 10.3017 22.7751 10.8463 22.5024 11.3013C22.2297 11.7562 21.7875 12.0842 21.273 12.2131L20.1824 12.4853C20.1823 12.4853 20.1824 12.4853 20.1824 12.4853C19.4107 12.678 18.5937 12.5565 17.9117 12.1472C17.7938 12.0765 17.6816 11.9982 17.5756 11.913L14.9537 12.4722C14.9841 12.6436 15 12.8199 15 13C15 13.8089 14.6799 14.5431 14.1594 15.0826L16.8945 20.5528C17.1414 21.0468 16.9412 21.6475 16.4472 21.8945C15.9533 22.1415 15.3526 21.9412 15.1056 21.4473L12.3706 15.9773C12.2492 15.9923 12.1255 16 12 16C11.8745 16 11.7508 15.9923 11.6294 15.9773L8.89444 21.4473C8.64745 21.9412 8.04678 22.1415 7.5528 21.8945C7.05882 21.6475 6.8586 21.0468 7.10559 20.5528L9.84069 15.0826C9.48075 14.7095 9.21661 14.2434 9.0879 13.7238L7.51111 14.06C7.49028 14.0652 7.46944 14.0696 7.44862 14.0734L4.097 14.7882C4.09637 14.7883 4.09573 14.7884 4.09509 14.7886C3.59896 14.8957 3.08056 14.8035 2.65176 14.5319C2.22526 14.2616 1.92145 13.8354 1.80502 13.3444L1.26834 11.1957C1.1462 10.6946 1.21558 10.1659 1.46285 9.71321C1.71012 9.26054 2.11749 8.91649 2.60515 8.74846L2.61858 8.74394L15.5884 4.47957C15.656 4.28309 15.7443 4.09273 15.8528 3.91185C16.2621 3.22971 16.9256 2.73806 17.6973 2.54501L18.7879 2.27285ZM15.6133 6.57671L7.35359 9.29244L8.00777 11.9091L9.33209 11.6267C9.83039 10.6606 10.8381 10 12 10C12.7092 10 13.3609 10.2461 13.8744 10.6575L16.4938 10.0987L15.6133 6.57671ZM18.4851 9.81758C18.5495 10.0748 18.7133 10.2959 18.9407 10.4323C19.1681 10.5687 19.4403 10.6092 19.6976 10.5449L20.7869 10.2731L19.272 4.21338L18.1826 4.48523C17.9256 4.54967 17.7041 4.71362 17.5678 4.94084C17.4314 5.16817 17.3909 5.44037 17.4551 5.69758M17.4551 5.69758L18.4851 9.81758C18.4851 9.81754 18.4851 9.81763 18.4851 9.81758M11.0313 12.7508C11.0322 12.7474 11.0331 12.7441 11.034 12.7407C11.1482 12.3141 11.5374 12 12 12C12.5523 12 13 12.4477 13 13C13 13.5523 12.5523 14 12 14C11.4477 14 11 13.5523 11 13C11 12.914 11.0109 12.8305 11.0313 12.7508ZM6.05057 12.3266L5.44863 9.91877L3.25397 10.6404C3.23869 10.6463 3.22596 10.6575 3.21806 10.672C3.20988 10.687 3.20746 10.7044 3.21122 10.721L3.73555 12.8203L6.05057 12.3266Z" fill="black" style="fill:black;fill-opacity:1;"/>
</svg>
