<svg width="24" height="24" viewBox="0 0 24 24" fill="none" xmlns="http://www.w3.org/2000/svg">
<path fill-rule="evenodd" clip-rule="evenodd" d="M5 4C4.44772 4 4 4.44772 4 5V19C4 19.5523 4.44771 20 5 20H19C19.5523 20 20 19.5523 20 19V5C20 4.44771 19.5523 4 19 4H5ZM2 5C2 3.34315 3.34315 2 5 2H19C20.6569 2 22 3.34315 22 5V19C22 20.6569 20.6569 22 19 22H5C3.34315 22 2 20.6569 2 19V5ZM6.29289 6.29289C6.68342 5.90237 7.31658 5.90237 7.70711 6.29289L9.70711 8.29289C10.0976 8.68342 10.0976 9.31658 9.70711 9.70711L7.70711 11.7071C7.31658 12.0976 6.68342 12.0976 6.29289 11.7071C5.90237 11.3166 5.90237 10.6834 6.29289 10.2929L7.58579 9L6.29289 7.70711C5.90237 7.31658 5.90237 6.68342 6.29289 6.29289ZM10 13C10 12.4477 10.4477 12 11 12H15C15.5523 12 16 12.4477 16 13C16 13.5523 15.5523 14 15 14H11C10.4477 14 10 13.5523 10 13Z" fill="black" style="fill:black;fill-opacity:1;"/>
</svg>
