<svg width="24" height="24" viewBox="0 0 24 24" fill="none" xmlns="http://www.w3.org/2000/svg">
<path fill-rule="evenodd" clip-rule="evenodd" d="M4.99998 1C5.55227 1 5.99998 1.44772 5.99998 2C5.99998 4.70449 5.18808 6.86848 4.37788 8.35385C4.32487 8.45103 4.27183 8.54538 4.21899 8.63685C6.98905 7.70274 8.99998 5.07319 8.99998 2C8.99998 1.44772 9.4477 1 9.99998 1C10.5523 1 11 1.44772 11 2C11 6.32579 7.9116 9.96141 3.82966 10.812C3.84251 10.8341 3.85537 10.8564 3.86822 10.8789C4.42598 11.8549 4.99998 13.2762 4.99998 15C4.99998 15.5523 4.55227 16 3.99998 16C3.4477 16 2.99998 15.5523 2.99998 15C2.99998 13.7238 2.57398 12.6451 2.13174 11.8711C1.9118 11.4863 1.69263 11.1853 1.53161 10.9841C1.45135 10.8837 1.38627 10.8091 1.34382 10.7621C1.32261 10.7386 1.30713 10.7221 1.2983 10.7128L1.29021 10.7044L1.29193 10.7062C0.902176 10.3159 0.902515 9.68415 1.29204 9.29373L1.29111 9.29466C1.291 9.29477 1.29078 9.29503 1.29204 9.29373L1.30772 9.27734C1.32327 9.26093 1.34892 9.23339 1.38323 9.195C1.4519 9.11816 1.555 8.9981 1.68123 8.83682C1.93402 8.5138 2.27728 8.0283 2.62209 7.39615C3.31188 6.13152 3.99998 4.29551 3.99998 2C3.99998 1.44772 4.4477 1 4.99998 1ZM14 1C14.5523 1 15 1.44772 15 2C15 5.07319 17.0109 7.70274 19.781 8.63685C19.7281 8.54538 19.6751 8.45103 19.6221 8.35385C18.8119 6.86848 18 4.70449 18 2C18 1.44772 18.4477 1 19 1C19.5523 1 20 1.44772 20 2C20 4.29551 20.6881 6.13152 21.3779 7.39615C21.7227 8.0283 22.0659 8.5138 22.3187 8.83682C22.445 8.9981 22.5481 9.11816 22.6167 9.195C22.651 9.23339 22.6767 9.26093 22.6922 9.27734L22.7076 9.29344C23.0967 9.68311 23.0974 10.3139 22.7098 10.7044C22.7092 10.705 22.7087 10.7055 22.7081 10.7061L22.7017 10.7128C22.6928 10.7221 22.6774 10.7386 22.6561 10.7621C22.6137 10.8091 22.5486 10.8837 22.4683 10.9841C22.3073 11.1853 22.0882 11.4863 21.8682 11.8711C21.426 12.6451 21 13.7238 21 15C21 15.5523 20.5523 16 20 16C19.4477 16 19 15.5523 19 15C19 13.2762 19.574 11.8549 20.1317 10.8789C20.1446 10.8564 20.1575 10.8341 20.1703 10.812C16.0884 9.96141 13 6.32579 13 2C13 1.44772 13.4477 1 14 1ZM22.7081 10.7061C22.7081 10.7061 22.7082 10.706 22.7081 10.7061V10.7061ZM6.99998 15C6.99998 14.4477 7.4477 14 7.99998 14H16C16.5523 14 17 14.4477 17 15C17 15.5523 16.5523 16 16 16H7.99998C7.4477 16 6.99998 15.5523 6.99998 15ZM22.7076 9.29344L22.7088 9.29466C22.709 9.29477 22.7089 9.29474 22.7076 9.29344ZM3.99998 20C3.73477 20 3.48041 20.1054 3.29287 20.2929C3.10534 20.4804 2.99998 20.7348 2.99998 21V22C2.99998 22.5523 2.55227 23 1.99998 23C1.4477 23 0.999981 22.5523 0.999981 22V21C0.999981 20.2043 1.31605 19.4413 1.87866 18.8787C2.44127 18.3161 3.20433 18 3.99998 18H7.99998C8.79563 18 9.55869 18.3161 10.1213 18.8787C10.6839 19.4413 11 20.2043 11 21V22C11 22.5523 10.5523 23 9.99998 23C9.4477 23 8.99998 22.5523 8.99998 22V21C8.99998 20.7348 8.89462 20.4804 8.70709 20.2929C8.51955 20.1054 8.2652 20 7.99998 20H3.99998ZM16 20C15.7348 20 15.4804 20.1054 15.2929 20.2929C15.1053 20.4804 15 20.7348 15 21V22C15 22.5523 14.5523 23 14 23C13.4477 23 13 22.5523 13 22V21C13 20.2043 13.3161 19.4413 13.8787 18.8787C14.4413 18.3161 15.2043 18 16 18H20C20.7956 18 21.5587 18.3161 22.1213 18.8787C22.6839 19.4413 23 20.2043 23 21V22C23 22.5523 22.5523 23 22 23C21.4477 23 21 22.5523 21 22V21C21 20.7348 20.8946 20.4804 20.7071 20.2929C20.5196 20.1054 20.2652 20 20 20H16Z" fill="black" style="fill:black;fill-opacity:1;"/>
</svg>
