<svg width="24" height="24" viewBox="0 0 24 24" fill="none" xmlns="http://www.w3.org/2000/svg">
<path fill-rule="evenodd" clip-rule="evenodd" d="M9 2C9 1.44772 9.44772 1 10 1H14C14.5523 1 15 1.44772 15 2C15 2.55228 14.5523 3 14 3H10C9.44772 3 9 2.55228 9 2ZM11.9922 6.99997C10.2777 6.98653 8.61802 7.60274 7.32775 8.73172C6.03749 9.8607 5.20642 11.4239 4.99216 13.125C4.92314 13.6729 4.42299 14.0612 3.87503 13.9922C3.32708 13.9231 2.93882 13.423 3.00784 12.875C3.28331 10.688 4.35183 8.67812 6.01074 7.22657C7.6688 5.77576 9.8014 4.98357 12.0044 5.00001C13.4591 5.0021 14.8916 5.35675 16.1792 6.03361C17.4678 6.71099 18.5728 7.69086 19.3996 8.88915C20.2263 10.0875 20.7499 11.4684 20.9257 12.9136C21.1014 14.3587 20.924 15.8249 20.4085 17.1864C19.8931 18.548 19.0551 19.7641 17.9664 20.7306C16.8777 21.6971 15.5708 22.385 14.1578 22.7354C12.7448 23.0858 11.2678 23.0882 9.8537 22.7424C8.43956 22.3966 7.13042 21.7129 6.03856 20.75L6.03564 20.7474L5 19.8268V22C5 22.5523 4.55228 23 4 23C3.44772 23 3 22.5523 3 22V17.6043C2.99999 17.6012 2.99999 17.5981 3 17.595V17C3 16.4477 3.44772 16 4 16H9C9.55228 16 10 16.4477 10 17C10 17.5523 9.55228 18 9 18H5.9552L7.36144 19.25C7.36195 19.2505 7.36247 19.2509 7.36299 19.2514C8.2119 19.9996 9.22955 20.5309 10.3288 20.7997C11.4287 21.0686 12.5774 21.0667 13.6764 20.7942C14.7754 20.5217 15.7919 19.9866 16.6386 19.2349C17.4854 18.4832 18.1372 17.5373 18.5381 16.4783C18.939 15.4194 19.077 14.279 18.9403 13.155C18.8036 12.031 18.3963 10.9569 17.7533 10.0249C17.1103 9.09289 16.2508 8.33077 15.2486 7.80392C14.2463 7.27706 13.1312 7.0012 11.9989 7L11.9922 6.99999L11.9922 6.99997ZM12 9C12.5523 9 13 9.44772 13 10V14C13 14.5523 12.5523 15 12 15C11.4477 15 11 14.5523 11 14V10C11 9.44772 11.4477 9 12 9Z" fill="black" style="fill:black;fill-opacity:1;"/>
</svg>
