<svg width="24" height="24" viewBox="0 0 24 24" fill="none" xmlns="http://www.w3.org/2000/svg">
<path fill-rule="evenodd" clip-rule="evenodd" d="M1.29289 1.29289C1.68342 0.902369 2.31658 0.902369 2.70711 1.29289L7.54478 6.13057C9.14484 5.22962 10.9891 4.83629 12.8301 5.01503C14.9502 5.22087 16.9285 6.17198 18.4133 7.6991C19.8947 9.19112 20.807 11.1548 20.9918 13.2493C21.152 15.0645 20.757 16.8786 19.8694 18.4552L22.7071 21.2929C23.0976 21.6834 23.0976 22.3166 22.7071 22.7071C22.3166 23.0976 21.6834 23.0976 21.2929 22.7071L17.9054 19.3197C17.8964 19.3109 17.8875 19.302 17.8788 19.293L6.70709 8.12131C6.69805 8.1126 6.68914 8.10369 6.68038 8.09459L1.29289 2.70711C0.902369 2.31658 0.902369 1.68342 1.29289 1.29289ZM9.03001 7.6158L11.0633 9.64909C11.2054 9.2699 11.5712 9 12 9C12.5523 9 13 9.44772 13 10V11.5858L18.3841 16.9699C18.8917 15.8685 19.1074 14.6471 18.9996 13.4251C18.8557 11.7945 18.1449 10.2659 16.9909 9.10507L16.9825 9.09669L16.9826 9.09664C15.8274 7.90691 14.2874 7.16592 12.6369 7.00567C11.3946 6.88506 10.1504 7.09935 9.03001 7.6158ZM9 2C9 1.44772 9.44772 1 10 1H14C14.5523 1 15 1.44772 15 2C15 2.55228 14.5523 3 14 3H10C9.44772 3 9 2.55228 9 2ZM4.98409 10.0767C5.49401 10.2888 5.73542 10.8742 5.52329 11.3841C4.99321 12.6583 4.8516 14.0608 5.11626 15.4152C5.38059 16.7679 6.03837 18.0125 7.00709 18.9929C7.98746 19.9616 9.23203 20.6194 10.5848 20.8837C11.9392 21.1484 13.3417 21.0068 14.6159 20.4767C15.1258 20.2646 15.7112 20.506 15.9233 21.0159C16.1354 21.5258 15.894 22.1112 15.3841 22.3233C13.7458 23.0048 11.9427 23.1869 10.2012 22.8466C8.4598 22.5063 6.8578 21.6589 5.59659 20.4108L5.58916 20.4034L5.5892 20.4034C4.34111 19.1422 3.49366 17.5402 3.15338 15.7988C2.8131 14.0573 2.99517 12.2542 3.6767 10.6159C3.88883 10.106 4.47417 9.86458 4.98409 10.0767Z" fill="black" style="fill:black;fill-opacity:1;"/>
</svg>
