<svg width="24" height="24" viewBox="0 0 24 24" fill="none" xmlns="http://www.w3.org/2000/svg">
<path fill-rule="evenodd" clip-rule="evenodd" d="M10 2C10 1.44772 10.4477 1 11 1H13C13.5523 1 14 1.44772 14 2C14 2.55228 13.5523 3 13 3V5H14.9828C14.9934 4.99983 15.004 4.99983 15.0147 5H20C20.314 5 20.6098 5.1475 20.7987 5.39831C20.9877 5.64912 21.0478 5.97411 20.9612 6.27594L19.2001 12.4103C19.194 12.4538 19.1849 12.4971 19.1729 12.54C19.0553 12.9591 18.8043 13.3285 18.4577 13.592C18.1112 13.8555 17.6882 13.9988 17.2529 14L17.25 14H17V22C17 22.5523 16.5523 23 16 23C15.4477 23 15 22.5523 15 22V14H14.0172C14.0066 14.0002 13.996 14.0002 13.9853 14H10.0147C10.004 14.0002 9.99342 14.0002 9.98282 14H9.00001V22C9.00001 22.5523 8.55229 23 8.00001 23C7.44772 23 7.00001 22.5523 7.00001 22V14H6.73712C6.30524 13.9944 5.88676 13.8491 5.54428 13.586C5.20278 13.3235 4.95513 12.9579 4.83813 12.5435L3.03883 6.27594C2.95219 5.97411 3.01234 5.64912 3.20128 5.39831C3.39022 5.1475 3.686 5 4.00001 5H8.98531C8.99597 4.99983 9.00661 4.99983 9.01721 5H11V3C10.4477 3 10 2.55228 10 2ZM10.153 7L10.8673 12H13.1327L13.847 7H10.153ZM15.8673 7L15.153 12H17.2371C17.2377 11.998 17.2383 11.996 17.2388 11.9941L18.6725 7H15.8673ZM8.847 12L8.13271 7H5.32748L6.76289 12H8.847Z" fill="black" style="fill:black;fill-opacity:1;"/>
</svg>
