<svg width="24" height="24" viewBox="0 0 24 24" fill="none" xmlns="http://www.w3.org/2000/svg">
<path fill-rule="evenodd" clip-rule="evenodd" d="M6 4C5.44772 4 5 4.44772 5 5V10H11V4H6ZM6 2C4.34315 2 3 3.34315 3 5V17C3 18.6569 4.34315 20 6 20H6.13148L5.16795 21.4453C4.8616 21.9048 4.98577 22.5257 5.4453 22.8321C5.90483 23.1384 6.5257 23.0142 6.83205 22.5547L8.53518 20H15.4648L17.1679 22.5547C17.4743 23.0142 18.0952 23.1384 18.5547 22.8321C19.0142 22.5257 19.1384 21.9048 18.8321 21.4453L17.8685 20H18C19.6569 20 21 18.6569 21 17V5C21 3.34315 19.6569 2 18 2H6ZM13 4V10H19V5C19 4.44772 18.5523 4 18 4H13ZM19 12H5V17C5 17.5523 5.44772 18 6 18H7.98632C7.99605 17.9999 8.00578 17.9999 8.01551 18H15.9845C15.9942 17.9999 16.004 17.9999 16.0137 18H18C18.5523 18 19 17.5523 19 17V12Z" fill="black" style="fill:black;fill-opacity:1;"/>
</svg>
