<svg width="24" height="24" viewBox="0 0 24 24" fill="none" xmlns="http://www.w3.org/2000/svg">
<path fill-rule="evenodd" clip-rule="evenodd" d="M12.0001 2C12.2778 2 12.5431 2.11552 12.7323 2.3189L16.7233 6.60923C17.0048 6.89853 17.1923 7.26637 17.2609 7.66446C17.3305 8.06867 17.2742 8.48452 17.0995 8.85564C17.0036 9.05956 16.8744 9.24456 16.7185 9.4037L18.7295 11.6158C18.9952 11.8928 19.1756 12.2405 19.2491 12.6175C19.324 13.0018 19.2844 13.3996 19.1354 13.7616C19.037 14.0005 18.8938 14.2168 18.7148 14.3996L20.7295 16.6158C20.9952 16.8928 21.1756 17.2405 21.2491 17.6175C21.324 18.0018 21.2844 18.3996 21.1354 18.7616C20.9863 19.1236 20.7343 19.4339 20.4105 19.654C20.0868 19.8741 19.7056 19.9944 19.3141 19.9999L19.3001 20.0001L13 20V22C13 22.5523 12.5523 23 12 23C11.4477 23 11 22.5523 11 22V20H4.68602C4.29457 19.9945 3.91334 19.8741 3.58959 19.654C3.26584 19.4339 3.01382 19.1236 2.86476 18.7616C2.7157 18.3996 2.67616 18.0018 2.75104 17.6175C2.82451 17.2405 3.00497 16.8928 3.27064 16.6158L5.28533 14.3996C5.1063 14.2168 4.96311 14.0005 4.86476 13.7616C4.7157 13.3996 4.67616 13.0018 4.75104 12.6175C4.82451 12.2405 5.00497 11.8928 5.27064 11.6158L7.2816 9.4037C7.12569 9.24456 6.99655 9.05956 6.90058 8.85564C6.72594 8.48451 6.66962 8.06867 6.73926 7.66446C6.80785 7.26638 6.99534 6.89854 7.27685 6.60925L11.2679 2.3189C11.4571 2.11552 11.7223 2 12.0001 2ZM6.71421 13H7.00007C7.39588 13 7.75445 13.2335 7.91458 13.5954C8.07471 13.9574 8.00626 14.3798 7.74001 14.6727L4.74001 17.9727C4.73158 17.9819 4.72298 17.9911 4.71421 18H19.2859C19.2772 17.9911 19.2686 17.9819 19.2601 17.9727L16.2601 14.6727C15.9939 14.3798 15.9254 13.9574 16.0856 13.5954C16.2457 13.2335 16.6042 13 17.0001 13H17.2859C17.2772 12.9911 17.2686 12.9819 17.2601 12.9727L14.2601 9.67267C13.9939 9.37979 13.9254 8.95743 14.0856 8.59545C14.2457 8.23347 14.6042 8 15.0001 8H15.2001C15.2301 8 15.26 8.00135 15.2899 8.00404C15.2824 7.99651 15.2751 7.98887 15.2679 7.9811L12.0001 4.4682L8.73225 7.9811C8.72503 7.98887 8.71769 7.99651 8.71022 8.00404C8.74009 8.00135 8.77007 8 8.80007 8H9.00007C9.39588 8 9.75445 8.23347 9.91458 8.59545C10.0747 8.95743 10.0063 9.37979 9.74001 9.67267L6.74001 12.9727C6.73158 12.9819 6.72298 12.9911 6.71421 13Z" fill="black" style="fill:black;fill-opacity:1;"/>
</svg>
