<svg width="24" height="24" viewBox="0 0 24 24" fill="none" xmlns="http://www.w3.org/2000/svg">
<path fill-rule="evenodd" clip-rule="evenodd" d="M16 8C15.4477 8 15 7.55228 15 7C15 6.44772 15.4477 6 16 6H22C22.5523 6 23 6.44772 23 7V13C23 13.5523 22.5523 14 22 14C21.4477 14 21 13.5523 21 13V9.41421L14.2071 16.2071C13.8166 16.5976 13.1834 16.5976 12.7929 16.2071L8.5 11.9142L2.70711 17.7071C2.31658 18.0976 1.68342 18.0976 1.29289 17.7071C0.902369 17.3166 0.902369 16.6834 1.29289 16.2929L7.79289 9.79289C8.18342 9.40237 8.81658 9.40237 9.20711 9.79289L13.5 14.0858L19.5858 8H16Z" fill="black" style="fill:black;fill-opacity:1;"/>
</svg>
