<svg width="24" height="24" viewBox="0 0 24 24" fill="none" xmlns="http://www.w3.org/2000/svg">
<path fill-rule="evenodd" clip-rule="evenodd" d="M4.23653 7.08748C5.84754 5.74417 7.88541 5 10 5C12.1144 5 14.1521 5.74404 15.763 7.08713C15.8067 7.11843 15.8481 7.1535 15.8868 7.19225C16.0506 7.3339 16.2098 7.48189 16.364 7.63604C16.784 8.05604 17.1582 8.51328 17.4834 9H20C20.7957 9 21.5587 9.31607 22.1213 9.87868C22.6839 10.4413 23 11.2043 23 12C23 12.7957 22.6839 13.5587 22.1213 14.1213C21.5587 14.6839 20.7957 15 20 15H19V17C19 17.5304 18.7893 18.0391 18.4142 18.4142C18.0391 18.7893 17.5304 19 17 19H15C14.4696 19 13.9609 18.7893 13.5858 18.4142C13.2107 18.0391 13 17.5304 13 17V15H7V17C7 17.5304 6.78929 18.0391 6.41421 18.4142C6.03914 18.7893 5.53043 19 5 19H3C2.46957 19 1.96086 18.7893 1.58579 18.4142C1.21071 18.0391 1 17.5304 1 17V14C1 11.6131 1.94821 9.32387 3.63604 7.63604C3.79035 7.48173 3.94969 7.3336 4.11366 7.19181C4.15211 7.15338 4.19323 7.11857 4.23653 7.08748ZM4.93152 9.1719C3.92473 10.2288 3.27834 11.5687 3.07177 13H5.38197L6.70905 10.3458L4.93152 9.1719ZM8.61803 11L7.61803 13H12.382L11.382 11H8.61803ZM13.291 10.3458L14.618 13H16.9282C16.7217 11.5687 16.0753 10.2288 15.0685 9.17193L13.291 10.3458ZM13.3966 7.87928C12.3665 7.30766 11.1991 7 10 7C8.80091 7 7.63353 7.30766 6.60341 7.87926L8.30041 9H11.6996L13.3966 7.87928ZM18.9443 13H20C20.2652 13 20.5196 12.8946 20.7071 12.7071C20.8946 12.5196 21 12.2652 21 12C21 11.7348 20.8946 11.4804 20.7071 11.2929C20.5196 11.1054 20.2652 11 20 11H18.4853C18.713 11.644 18.8677 12.3148 18.9443 13ZM17 15H15V17H17V15ZM5 15H3V17H5V15Z" fill="black" style="fill:black;fill-opacity:1;"/>
</svg>
