<svg width="24" height="24" viewBox="0 0 24 24" fill="none" xmlns="http://www.w3.org/2000/svg">
<path fill-rule="evenodd" clip-rule="evenodd" d="M12 1C12.5523 1 13 1.44772 13 2V2.08239C15.362 2.29677 17.6026 3.26636 19.3819 4.86111C21.4107 6.67951 22.6969 9.18276 22.994 11.891C23.025 12.1735 22.9344 12.4558 22.7447 12.6675C22.555 12.8791 22.2842 13 22 13H13V20C13 20.2652 13.1054 20.5196 13.2929 20.7071C13.4804 20.8946 13.7348 21 14 21C14.2652 21 14.5196 20.8946 14.7071 20.7071C14.8946 20.5196 15 20.2652 15 20C15 19.4477 15.4477 19 16 19C16.5523 19 17 19.4477 17 20C17 20.7957 16.6839 21.5587 16.1213 22.1213C15.5587 22.6839 14.7957 23 14 23C13.2044 23 12.4413 22.6839 11.8787 22.1213C11.3161 21.5587 11 20.7957 11 20V13H2C1.7158 13 1.44503 12.8791 1.25534 12.6675C1.06565 12.4558 0.974976 12.1735 1.00597 11.891C1.30308 9.18276 2.58934 6.67951 4.61815 4.86111C6.39742 3.26636 8.63801 2.29677 11 2.08239V2C11 1.44772 11.4477 1 12 1ZM12.0068 11C12.0046 11 12.0023 11 12 11C11.9977 11 11.9954 11 11.9932 11H3.18602C3.61114 9.21318 4.5721 7.58814 5.95302 6.35044C7.61496 4.86086 9.76822 4.03711 12 4.03711C14.2318 4.03711 16.3851 4.86086 18.047 6.35044C19.4279 7.58814 20.3889 9.21318 20.814 11H12.0068Z" fill="black" style="fill:black;fill-opacity:1;"/>
</svg>
