<svg width="24" height="24" viewBox="0 0 24 24" fill="none" xmlns="http://www.w3.org/2000/svg">
<path fill-rule="evenodd" clip-rule="evenodd" d="M12 1C12.5523 1 13 1.44772 13 2V4C13 4.55228 12.5523 5 12 5C11.4477 5 11 4.55228 11 4V2C11 1.44772 11.4477 1 12 1ZM12 7C12.5523 7 13 7.44772 13 8V10C13 10.5523 12.5523 11 12 11C11.4477 11 11 10.5523 11 10V8C11 7.44772 11.4477 7 12 7ZM5.70711 8.29289C6.09763 8.68342 6.09763 9.31658 5.70711 9.70711L4.41421 11H8C8.55228 11 9 11.4477 9 12C9 12.5523 8.55228 13 8 13H4.41421L5.70711 14.2929C6.09763 14.6834 6.09763 15.3166 5.70711 15.7071C5.31658 16.0976 4.68342 16.0976 4.29289 15.7071L1.29289 12.7071C0.902369 12.3166 0.902369 11.6834 1.29289 11.2929L4.29289 8.29289C4.68342 7.90237 5.31658 7.90237 5.70711 8.29289ZM18.2929 8.29289C18.6834 7.90237 19.3166 7.90237 19.7071 8.29289L22.7071 11.2929C23.0976 11.6834 23.0976 12.3166 22.7071 12.7071L19.7071 15.7071C19.3166 16.0976 18.6834 16.0976 18.2929 15.7071C17.9024 15.3166 17.9024 14.6834 18.2929 14.2929L19.5858 13H16C15.4477 13 15 12.5523 15 12C15 11.4477 15.4477 11 16 11H19.5858L18.2929 9.70711C17.9024 9.31658 17.9024 8.68342 18.2929 8.29289ZM12 13C12.5523 13 13 13.4477 13 14V16C13 16.5523 12.5523 17 12 17C11.4477 17 11 16.5523 11 16V14C11 13.4477 11.4477 13 12 13ZM12 19C12.5523 19 13 19.4477 13 20V22C13 22.5523 12.5523 23 12 23C11.4477 23 11 22.5523 11 22V20C11 19.4477 11.4477 19 12 19Z" fill="black" style="fill:black;fill-opacity:1;"/>
</svg>
