<svg width="24" height="24" viewBox="0 0 24 24" fill="none" xmlns="http://www.w3.org/2000/svg">
<path fill-rule="evenodd" clip-rule="evenodd" d="M10 4C7.79086 4 6 5.79086 6 8C6 10.2091 7.79086 12 10 12C12.2091 12 14 10.2091 14 8C14 5.79086 12.2091 4 10 4ZM13.641 12.7694C15.075 11.673 16 9.94452 16 8C16 4.68629 13.3137 2 10 2C6.68629 2 4 4.68629 4 8C4 9.94451 4.92501 11.673 6.35901 12.7694C6.04098 12.9101 5.73045 13.0695 5.42912 13.2471C4.08019 14.0424 2.9621 15.1759 2.18533 16.5356C1.40857 17.8953 0.999998 19.4341 1 21C1 21.5523 1.44772 22 2 22C2.55229 22 3 21.5523 3 21C3 19.7821 3.31777 18.5852 3.92193 17.5277C4.52608 16.4701 5.3957 15.5885 6.44487 14.97C7.49404 14.3514 8.68644 14.0173 9.90426 14.0007C11.1221 13.984 12.3232 14.2854 13.3889 14.875C13.8721 15.1424 14.4806 14.9674 14.748 14.4841C15.0154 14.0009 14.8404 13.3924 14.3571 13.125C14.1232 12.9956 13.8843 12.877 13.641 12.7694ZM16.2929 16.2929C16.6834 15.9024 17.3166 15.9024 17.7071 16.2929L19.5 18.0858L21.2929 16.2929C21.6834 15.9024 22.3166 15.9024 22.7071 16.2929C23.0976 16.6834 23.0976 17.3166 22.7071 17.7071L20.9142 19.5L22.7071 21.2929C23.0976 21.6834 23.0976 22.3166 22.7071 22.7071C22.3166 23.0976 21.6834 23.0976 21.2929 22.7071L19.5 20.9142L17.7071 22.7071C17.3166 23.0976 16.6834 23.0976 16.2929 22.7071C15.9024 22.3166 15.9024 21.6834 16.2929 21.2929L18.0858 19.5L16.2929 17.7071C15.9024 17.3166 15.9024 16.6834 16.2929 16.2929Z" fill="black" style="fill:black;fill-opacity:1;"/>
</svg>
