<svg width="24" height="24" viewBox="0 0 24 24" fill="none" xmlns="http://www.w3.org/2000/svg">
<path fill-rule="evenodd" clip-rule="evenodd" d="M12 4C9.79086 4 8 5.79086 8 8C8 10.2091 9.79086 12 12 12C14.2091 12 16 10.2091 16 8C16 5.79086 14.2091 4 12 4ZM15.641 12.7694C17.075 11.673 18 9.94452 18 8C18 4.68629 15.3137 2 12 2C8.68629 2 6 4.68629 6 8C6 9.94452 6.92501 11.673 8.35901 12.7694C7.35354 13.2142 6.4285 13.8436 5.63604 14.636C3.94821 16.3239 3 18.6131 3 21C3 21.5523 3.44772 22 4 22C4.55228 22 5 21.5523 5 21C5 19.1435 5.7375 17.363 7.05025 16.0503C8.36301 14.7375 10.1435 14 12 14C13.8565 14 15.637 14.7375 16.9497 16.0503C18.2625 17.363 19 19.1435 19 21C19 21.5523 19.4477 22 20 22C20.5523 22 21 21.5523 21 21C21 18.6131 20.0518 16.3239 18.364 14.636C17.5715 13.8436 16.6465 13.2142 15.641 12.7694Z" fill="black" style="fill:black;fill-opacity:1;"/>
</svg>
