<svg width="24" height="24" viewBox="0 0 24 24" fill="none" xmlns="http://www.w3.org/2000/svg">
<path fill-rule="evenodd" clip-rule="evenodd" d="M3 1C3.55228 1 4 1.44772 4 2V9C4 9.54772 4.45228 10 5 10H6V2C6 1.44772 6.44772 1 7 1C7.55228 1 8 1.44772 8 2V10H9C9.26522 10 9.51957 9.89464 9.70711 9.70711C9.89464 9.51957 10 9.26522 10 9V2C10 1.44772 10.4477 1 11 1C11.5523 1 12 1.44772 12 2V9C12 9.79565 11.6839 10.5587 11.1213 11.1213C10.5587 11.6839 9.79565 12 9 12H8V22C8 22.5523 7.55228 23 7 23C6.44772 23 6 22.5523 6 22V12H5C3.34772 12 2 10.6523 2 9V2C2 1.44772 2.44772 1 3 1ZM16.7574 2.75736C17.8826 1.63214 19.4087 1 21 1C21.2652 1 21.5196 1.10536 21.7071 1.29289C21.8946 1.48043 22 1.73478 22 2V22C22 22.5523 21.5523 23 21 23C20.4477 23 20 22.5523 20 22V16H18C16.3477 16 15 14.6523 15 13V7C15 5.4087 15.6321 3.88258 16.7574 2.75736ZM20 14V3.12701C19.314 3.30416 18.6811 3.66203 18.1716 4.17157C17.4214 4.92172 17 5.93913 17 7V13C17 13.5477 17.4523 14 18 14H20Z" fill="black" style="fill:black;fill-opacity:1;"/>
</svg>
