<svg width="24" height="24" viewBox="0 0 24 24" fill="none" xmlns="http://www.w3.org/2000/svg">
<path fill-rule="evenodd" clip-rule="evenodd" d="M16.7072 1.29289C17.0977 1.68342 17.0977 2.31658 16.7072 2.70711L14.4111 5.00321C14.0466 5.37673 13.8425 5.87799 13.8425 6.4C13.8425 6.92201 14.0466 7.42327 14.4111 7.79679L14.6 7.98574L18.2929 4.29289C18.6834 3.90237 19.3166 3.90237 19.7071 4.29289C20.0976 4.68342 20.0976 5.31658 19.7071 5.70711L16.0143 9.39995L16.2033 9.58899C16.5768 9.95348 17.0781 10.1576 17.6001 10.1576C18.1221 10.1576 18.6234 9.95348 18.9969 9.58899L21.293 7.29289C21.6835 6.90237 22.3167 6.90237 22.7072 7.29289C23.0977 7.68342 23.0977 8.31658 22.7072 8.70711L20.4001 11.0142C19.6524 11.7471 18.6471 12.1576 17.6001 12.1576C16.5531 12.1576 15.5478 11.7471 14.8001 11.0141L14.793 11.0071L14.6001 10.8142L13.4141 12.0001L22.707 21.2929C23.0976 21.6835 23.0976 22.3166 22.707 22.7072C22.3165 23.0977 21.6833 23.0977 21.2928 22.7072L14.9999 16.4143L14.107 17.3072C14.0913 17.3228 14.0751 17.338 14.0584 17.3526C12.9088 18.3586 11.0073 18.4216 9.89281 17.3072L8.99837 16.4127L2.80161 22.5127C2.40803 22.9001 1.77488 22.8951 1.38745 22.5015C1.00001 22.1079 1.00499 21.4748 1.39858 21.0873L7.58412 14.9985L2.59625 10.0106C2.1039 9.52719 1.71266 8.95063 1.44535 8.31449C1.17735 7.6767 1.03931 6.99185 1.03931 6.30005C1.03931 5.60824 1.17735 4.92339 1.44535 4.28561C1.71335 3.64782 2.10592 3.06993 2.60006 2.58576C2.99171 2.20203 3.61932 2.20523 4.00703 2.59294L11.9999 10.5859L13.1858 9.39995L12.9859 9.20004C12.253 8.45232 11.8425 7.44701 11.8425 6.4C11.8425 5.35299 12.2531 4.34772 12.986 3.6L12.993 3.59286L15.293 1.29289C15.6835 0.902369 16.3167 0.902369 16.7072 1.29289ZM13.5857 15L3.40335 4.8177C3.36199 4.89683 3.32389 4.9778 3.28918 5.06039C3.12426 5.45288 3.03931 5.87432 3.03931 6.30005C3.03931 6.72577 3.12426 7.14722 3.28918 7.5397C3.4541 7.93219 3.69568 8.28782 3.99977 8.58576L4.00706 8.59291L11.307 15.8929C11.5881 16.174 12.2695 16.2395 12.7202 15.8655L13.5857 15Z" fill="black" style="fill:black;fill-opacity:1;"/>
</svg>
