<svg width="24" height="24" viewBox="0 0 24 24" fill="none" xmlns="http://www.w3.org/2000/svg">
<path fill-rule="evenodd" clip-rule="evenodd" d="M5 4C4.44772 4 4 4.44772 4 5V19C4 19.5523 4.44771 20 5 20H19C19.5523 20 20 19.5523 20 19V5C20 4.44771 19.5523 4 19 4H5ZM2 5C2 3.34315 3.34315 2 5 2H19C20.6569 2 22 3.34315 22 5V19C22 20.6569 20.6569 22 19 22H5C3.34315 22 2 20.6569 2 19V5ZM8.99771 7.5835C8.99923 7.55586 9 7.52802 9 7.5C9 6.67157 8.32843 6 7.5 6C6.67157 6 6 6.67157 6 7.5C6 8.32843 6.67157 9 7.5 9C7.52802 9 7.55586 8.99923 7.5835 8.99771L9.29237 10.7066C9.10495 11.0982 9 11.5369 9 12C9 12.4631 9.10493 12.9017 9.29231 13.2933L7.58332 15.0023C7.55574 15.0008 7.52796 15 7.5 15C6.67157 15 6 15.6716 6 16.5C6 17.3284 6.67157 18 7.5 18C8.32843 18 9 17.3284 9 16.5C9 16.4719 8.99923 16.444 8.9977 16.4163L10.7065 14.7076C11.0981 14.895 11.5368 15 12 15C12.4631 15 12.9018 14.895 13.2934 14.7076L15.0023 16.4165C15.0008 16.4441 15 16.472 15 16.5C15 17.3284 15.6716 18 16.5 18C17.3284 18 18 17.3284 18 16.5C18 15.6716 17.3284 15 16.5 15C16.472 15 16.4441 15.0008 16.4165 15.0023L14.7076 13.2934C14.895 12.9018 15 12.4631 15 12C15 11.5368 14.895 11.0981 14.7076 10.7065L16.4163 8.9977C16.444 8.99923 16.4719 9 16.5 9C17.3284 9 18 8.32843 18 7.5C18 6.67157 17.3284 6 16.5 6C15.6716 6 15 6.67157 15 7.5C15 7.52796 15.0008 7.55574 15.0023 7.58332L13.2933 9.29231C12.9017 9.10493 12.4631 9 12 9C11.5369 9 11.0982 9.10495 10.7066 9.29237L8.99771 7.5835ZM11.1999 11.4001C11.2372 11.372 11.273 11.341 11.307 11.307C11.341 11.273 11.372 11.2372 11.4001 11.1999C11.5672 11.0744 11.7749 11 12 11C12.2249 11 12.4324 11.0742 12.5995 11.1995C12.6276 11.237 12.6587 11.2729 12.6928 11.307C12.7269 11.3411 12.7629 11.3723 12.8004 11.4004C12.9257 11.5675 13 11.7751 13 12C13 12.2247 12.9259 12.4321 12.8007 12.5991C12.7631 12.6273 12.727 12.6586 12.6928 12.6928C12.6586 12.727 12.6273 12.7631 12.5991 12.8007C12.4321 12.9259 12.2247 13 12 13C11.7751 13 11.5675 12.9257 11.4004 12.8004C11.3723 12.7629 11.3411 12.7269 11.307 12.6928C11.2729 12.6587 11.237 12.6276 11.1995 12.5995C11.0742 12.4324 11 12.2249 11 12C11 11.7749 11.0744 11.5672 11.1999 11.4001ZM16.9985 7.46042C16.9512 7.36376 16.8874 7.27314 16.807 7.1928C16.7268 7.11257 16.6363 7.04883 16.5398 7.00156C16.7843 7.02083 16.9793 7.21592 16.9985 7.46042ZM16.5394 16.9985C16.636 16.9512 16.7267 16.8874 16.807 16.807C16.8874 16.7267 16.9512 16.636 16.9985 16.5394C16.9794 16.7841 16.7841 16.9794 16.5394 16.9985ZM7.00156 16.5398C7.04883 16.6363 7.11257 16.7268 7.1928 16.807C7.27314 16.8874 7.36376 16.9512 7.46042 16.9985C7.21592 16.9793 7.02083 16.7843 7.00156 16.5398ZM7.00158 7.45994C7.04884 7.36346 7.11258 7.27301 7.1928 7.1928C7.27301 7.11258 7.36346 7.04884 7.45994 7.00158C7.21574 7.02094 7.02094 7.21574 7.00158 7.45994Z" fill="black" style="fill:black;fill-opacity:1;"/>
</svg>
