<svg width="24" height="24" viewBox="0 0 24 24" fill="none" xmlns="http://www.w3.org/2000/svg">
<path fill-rule="evenodd" clip-rule="evenodd" d="M4 7C3.44772 7 3 7.44772 3 8V16C3 16.5523 3.44772 17 4 17H14C14.5523 17 15 16.5523 15 16V8C15 7.44772 14.5523 7 14 7H4ZM17 10.1315V8C17 6.34315 15.6569 5 14 5H4C2.34315 5 1 6.34315 1 8V16C1 17.6569 2.34315 19 4 19H14C15.6569 19 17 17.6569 17 16V13.8685L21.4453 16.8321C21.7522 17.0366 22.1467 17.0557 22.4719 16.8817C22.797 16.7077 23 16.3688 23 16V8C23 7.6312 22.797 7.29234 22.4719 7.11833C22.1467 6.94431 21.7522 6.96338 21.4453 7.16795L17 10.1315ZM17.8028 12L21 14.1315V9.86852L17.8028 12Z" fill="black" style="fill:black;fill-opacity:1;"/>
</svg>
