<svg width="24" height="24" viewBox="0 0 24 24" fill="none" xmlns="http://www.w3.org/2000/svg">
<path fill-rule="evenodd" clip-rule="evenodd" d="M1.87868 2.87868C2.44129 2.31607 3.20435 2 4 2H20C20.7957 2 21.5587 2.31607 22.1213 2.87868C22.6839 3.44129 23 4.20435 23 5V15C23 15.7957 22.6839 16.5587 22.1213 17.1213C21.5587 17.6839 20.7957 18 20 18H13V20H16C16.5523 20 17 20.4477 17 21C17 21.5523 16.5523 22 16 22H8C7.44772 22 7 21.5523 7 21C7 20.4477 7.44772 20 8 20H11V18H9.00069C9.00023 18 8.99977 18 8.99931 18H4C3.20435 18 2.44129 17.6839 1.87868 17.1213C1.31607 16.5587 1 15.7956 1 15V5C1 4.20435 1.31607 3.44129 1.87868 2.87868ZM11.4142 16H20C20.2652 16 20.5196 15.8946 20.7071 15.7071C20.8091 15.6051 20.8868 15.4833 20.9365 15.3507L17.205 11.6192C17.2047 11.6189 17.2044 11.6186 17.2041 11.6184C17.0177 11.4335 16.7661 11.3293 16.5035 11.3284C16.2419 11.3274 15.9904 11.429 15.8029 11.6113L11.4142 16ZM21 12.5858L18.6171 10.2029L18.615 10.2008C18.0556 9.64462 17.2995 9.33118 16.5106 9.32837C15.7217 9.32556 14.9635 9.63362 14.4 10.1858L8.58579 16H4C3.73478 16 3.48043 15.8946 3.29289 15.7071C3.10536 15.5196 3 15.2652 3 15V5C3 4.73478 3.10536 4.48043 3.29289 4.29289C3.48043 4.10536 3.73478 4 4 4H20C20.2652 4 20.5196 4.10536 20.7071 4.29289C20.8946 4.48043 21 4.73478 21 5V12.5858ZM8 8C7.44772 8 7 8.44772 7 9C7 9.55228 7.44772 10 8 10C8.55228 10 9 9.55228 9 9C9 8.44772 8.55228 8 8 8ZM5 9C5 7.34315 6.34315 6 8 6C9.65685 6 11 7.34315 11 9C11 10.6569 9.65685 12 8 12C6.34315 12 5 10.6569 5 9Z" fill="black" style="fill:black;fill-opacity:1;"/>
</svg>
