<svg width="24" height="24" viewBox="0 0 24 24" fill="none" xmlns="http://www.w3.org/2000/svg">
<path fill-rule="evenodd" clip-rule="evenodd" d="M10 1C10.5523 1 11 1.44772 11 2C11.5523 2 12 2.44772 12 3C12 3.55228 11.5523 4 11 4C11 4.55228 10.5523 5 10 5C9.44772 5 9 4.55228 9 4C8.44772 4 8 3.55228 8 3C8 2.44772 8.44772 2 9 2C9 1.44772 9.44772 1 10 1ZM18.6491 1.17163C18.9187 1.05914 19.2079 1.00122 19.5 1.00122C19.7922 1.00122 20.0814 1.05914 20.351 1.17163C20.6197 1.28372 20.8635 1.44776 21.0685 1.65433C21.0693 1.65508 21.07 1.65584 21.0708 1.65659L22.3431 2.92885C22.5511 3.13274 22.7166 3.37593 22.8299 3.64433C22.9442 3.91513 23.0031 4.2061 23.0031 4.50005C23.0031 4.79399 22.9442 5.08496 22.8299 5.35576C22.7166 5.62415 22.5511 5.86733 22.3431 6.07121L6.07121 22.3431C5.86733 22.5511 5.62415 22.7166 5.35576 22.8299C5.08496 22.9442 4.79399 23.0031 4.50005 23.0031C4.2061 23.0031 3.91513 22.9442 3.64433 22.8299C3.37593 22.7166 3.13274 22.5511 2.92885 22.3431L1.65659 21.0708C1.65584 21.07 1.65508 21.0693 1.65433 21.0685C1.44776 20.8635 1.28372 20.6197 1.17163 20.351C1.05914 20.0814 1.00122 19.7922 1.00122 19.5C1.00122 19.2079 1.05914 18.9187 1.17163 18.6491C1.28375 18.3803 1.44786 18.1364 1.65453 17.9313C1.65522 17.9307 1.65591 17.93 1.65659 17.9293L13.2849 6.301C13.2875 6.29829 13.2902 6.29558 13.2929 6.29289C13.2956 6.2902 13.2983 6.28753 13.301 6.28488L17.9293 1.65659C17.93 1.65591 17.9307 1.65522 17.9313 1.65453C18.1364 1.44786 18.3803 1.28375 18.6491 1.17163ZM14 8.41426L3.06715 19.3472L3.0635 19.3508C3.04377 19.3703 3.0281 19.3936 3.01741 19.4192C3.00672 19.4448 3.00122 19.4723 3.00122 19.5C3.00122 19.5278 3.00672 19.5553 3.01741 19.5809C3.0281 19.6065 3.04377 19.6298 3.0635 19.6493L3.06716 19.6529L4.35678 20.9426C4.37542 20.9617 4.39764 20.977 4.42225 20.9874C4.44687 20.9978 4.47332 21.0031 4.50005 21.0031C4.52677 21.0031 4.55322 20.9978 4.57784 20.9874C4.60245 20.977 4.62474 20.9618 4.64338 20.9426L4.65287 20.9329L15.5858 10L14 8.41426ZM17 8.58583L15.4143 7.00005L19.3472 3.06715L19.3508 3.0635C19.3703 3.04377 19.3936 3.0281 19.4192 3.01741C19.4448 3.00672 19.4723 3.00122 19.5 3.00122C19.5278 3.00122 19.5553 3.00672 19.5809 3.01741C19.6065 3.0281 19.6298 3.04377 19.6493 3.0635L19.6529 3.06715L20.9329 4.34715L20.9426 4.35671C20.9618 4.37535 20.977 4.39764 20.9874 4.42225C20.9978 4.44687 21.0031 4.47332 21.0031 4.50005C21.0031 4.52677 20.9978 4.55322 20.9874 4.57784C20.977 4.60245 20.9618 4.62474 20.9426 4.64338L17 8.58583ZM5 5C5.55228 5 6 5.44772 6 6V7H7C7.55228 7 8 7.44772 8 8C8 8.55228 7.55228 9 7 9H6V10C6 10.5523 5.55228 11 5 11C4.44772 11 4 10.5523 4 10V9H3C2.44772 9 2 8.55228 2 8C2 7.44772 2.44772 7 3 7H4V6C4 5.44772 4.44772 5 5 5ZM19 13C19.5523 13 20 13.4477 20 14V15H21C21.5523 15 22 15.4477 22 16C22 16.5523 21.5523 17 21 17H20V18C20 18.5523 19.5523 19 19 19C18.4477 19 18 18.5523 18 18V17H17C16.4477 17 16 16.5523 16 16C16 15.4477 16.4477 15 17 15H18V14C18 13.4477 18.4477 13 19 13Z" fill="black" style="fill:black;fill-opacity:1;"/>
</svg>
