<svg width="24" height="24" viewBox="0 0 24 24" fill="none" xmlns="http://www.w3.org/2000/svg">
<path fill-rule="evenodd" clip-rule="evenodd" d="M12 6.00024C8.55631 6.00024 5.23343 7.26947 2.66666 9.56526C2.25501 9.93345 1.62283 9.89822 1.25464 9.48657C0.886449 9.07492 0.921679 8.44274 1.33333 8.07455C4.26678 5.45079 8.06436 4.00024 12 4.00024C15.9356 4.00024 19.7332 5.45079 22.6667 8.07455C23.0783 8.44274 23.1135 9.07492 22.7453 9.48657C22.3772 9.89822 21.745 9.93345 21.3333 9.56526C18.7666 7.26947 15.4437 6.00024 12 6.00024ZM12 11.0005C9.64422 11.0005 7.38235 11.9242 5.69999 13.5732C5.30558 13.9598 4.67245 13.9535 4.28585 13.5591C3.89925 13.1646 3.90558 12.5315 4.29999 12.1449C6.35621 10.1294 9.12071 9.00049 12 9.00049C14.8793 9.00049 17.6438 10.1294 19.7 12.1449C20.0944 12.5315 20.1007 13.1646 19.7141 13.5591C19.3275 13.9535 18.6944 13.9598 18.3 13.5732C16.6176 11.9242 14.3558 11.0005 12 11.0005ZM12 15.9998C10.953 15.9998 9.94771 16.4103 9.19999 17.1432C8.80558 17.5298 8.17245 17.5235 7.78585 17.129C7.39925 16.7346 7.40558 16.1015 7.79999 15.7149C8.92157 14.6155 10.4295 13.9998 12 13.9998C13.5705 13.9998 15.0784 14.6155 16.2 15.7149C16.5944 16.1015 16.6007 16.7346 16.2141 17.129C15.8275 17.5235 15.1944 17.5298 14.8 17.1432C14.0523 16.4103 13.047 15.9998 12 15.9998ZM11 20C11 19.4477 11.4477 19 12 19H12.01C12.5623 19 13.01 19.4477 13.01 20C13.01 20.5523 12.5623 21 12.01 21H12C11.4477 21 11 20.5523 11 20Z" fill="black" style="fill:black;fill-opacity:1;"/>
</svg>
