<svg width="24" height="24" viewBox="0 0 24 24" fill="none" xmlns="http://www.w3.org/2000/svg">
<path fill-rule="evenodd" clip-rule="evenodd" d="M1.29289 1.29289C1.68342 0.902369 2.31658 0.902369 2.70711 1.29289L8.00201 6.5878C8.00976 6.5953 8.01737 6.60292 8.02486 6.61065L15.0817 13.6675C15.0927 13.678 15.1034 13.6887 15.1139 13.6997L22.7071 21.2929C23.0976 21.6834 23.0976 22.3166 22.7071 22.7071C22.3166 23.0976 21.6834 23.0976 21.2929 22.7071L14.1768 15.591C13.7963 15.7391 13.402 15.8479 13 15.9158V21H16C16.5523 21 17 21.4477 17 22C17 22.5523 16.5523 23 16 23H8C7.44772 23 7 22.5523 7 22C7 21.4477 7.44772 21 8 21H11V15.9158C10.2735 15.793 9.57324 15.537 8.93543 15.1581C8.0409 14.6266 7.29995 13.8717 6.78532 12.9674C6.27068 12.0631 6.00005 11.0405 6 10.0001L6.00001 9.99663C6.00268 9.20358 6.07612 8.41274 6.21926 7.63347L1.29289 2.70711C0.902369 2.31658 0.902369 1.68342 1.29289 1.29289ZM8.12708 11C8.21508 11.3407 8.34803 11.6698 8.52354 11.9782C8.86663 12.5811 9.3606 13.0843 9.95695 13.4386C10.5533 13.7929 11.2315 13.986 11.9251 13.999C12.134 14.003 12.3423 13.9905 12.5478 13.9621L9.58579 11H8.12708ZM8.06412 1.64767C8.21082 1.258 8.58363 1 9 1H15C15.4168 1 15.79 1.25857 15.9363 1.64888C17.4416 5.66294 18 7.80734 18 10C18 10.489 17.9399 10.9706 17.8265 11.4352C17.6954 11.9718 17.1543 12.3005 16.6178 12.1694C16.0943 12.0416 15.7687 11.5234 15.8748 11H15.657C15.1047 11 14.657 10.5523 14.657 10C14.657 9.44772 15.1047 9 15.657 9H15.9528C15.8154 7.55578 15.3564 5.86385 14.3046 3H9.69476C9.65521 3.10789 9.61677 3.21387 9.57954 3.31791C9.39347 3.8379 8.82109 4.10861 8.30109 3.92254C7.78109 3.73647 7.51039 3.16409 7.69646 2.64409C7.8112 2.32344 7.93543 1.9895 8.06412 1.64767Z" fill="black" style="fill:black;fill-opacity:1;"/>
</svg>
