<svg width="24" height="24" viewBox="0 0 24 24" fill="none" xmlns="http://www.w3.org/2000/svg">
<path fill-rule="evenodd" clip-rule="evenodd" d="M1 3C1 2.44772 1.44772 2 2 2H22C22.5523 2 23 2.44772 23 3C23 3.55228 22.5523 4 22 4H17.8293C17.9398 4.31278 18 4.64936 18 5V7C18 8.65685 16.6569 10 15 10H9C7.34315 10 6 8.65685 6 7V5C6 4.64936 6.06015 4.31278 6.17071 4H2C1.44772 4 1 3.55228 1 3ZM9 4C8.44772 4 8 4.44772 8 5V7C8 7.55228 8.44772 8 9 8H15C15.5523 8 16 7.55228 16 7V5C16 4.44772 15.5523 4 15 4H9ZM7 16C6.44772 16 6 16.4477 6 17V19C6 19.5523 6.44772 20 7 20H17C17.5523 20 18 19.5523 18 19V17C18 16.4477 17.5523 16 17 16H7ZM19.8293 20C19.9398 19.6872 20 19.3506 20 19V17C20 15.3431 18.6569 14 17 14H7C5.34315 14 4 15.3431 4 17V19C4 19.3506 4.06015 19.6872 4.17071 20H2C1.44772 20 1 20.4477 1 21C1 21.5523 1.44772 22 2 22H22C22.5523 22 23 21.5523 23 21C23 20.4477 22.5523 20 22 20H19.8293Z" fill="black" style="fill:black;fill-opacity:1;"/>
</svg>
