<svg width="24" height="24" viewBox="0 0 24 24" fill="none" xmlns="http://www.w3.org/2000/svg">
<path fill-rule="evenodd" clip-rule="evenodd" d="M22 1C22.5523 1 23 1.44772 23 2V22C23 22.5523 22.5523 23 22 23C21.4477 23 21 22.5523 21 22V2C21 1.44772 21.4477 1 22 1ZM4 6C3.44772 6 3 6.44772 3 7V17C3 17.5523 3.44772 18 4 18H6C6.55228 18 7 17.5523 7 17V7C7 6.44772 6.55228 6 6 6H4ZM1 7C1 5.34315 2.34315 4 4 4H6C7.65685 4 9 5.34315 9 7V17C9 18.6569 7.65685 20 6 20H4C2.34315 20 1 18.6569 1 17V7ZM14 8C13.4477 8 13 8.44772 13 9V15C13 15.5523 13.4477 16 14 16H16C16.5523 16 17 15.5523 17 15V9C17 8.44772 16.5523 8 16 8H14ZM11 9C11 7.34315 12.3431 6 14 6H16C17.6569 6 19 7.34315 19 9V15C19 16.6569 17.6569 18 16 18H14C12.3431 18 11 16.6569 11 15V9Z" fill="black" style="fill:black;fill-opacity:1;"/>
</svg>
