<svg width="24" height="24" viewBox="0 0 24 24" fill="none" xmlns="http://www.w3.org/2000/svg">
<path fill-rule="evenodd" clip-rule="evenodd" d="M3 1C3.55228 1 4 1.44772 4 2V4.17071C4.31278 4.06015 4.64936 4 5 4H7C8.65685 4 10 5.34315 10 7V17C10 18.6569 8.65685 20 7 20H5C4.64936 20 4.31278 19.9398 4 19.8293V22C4 22.5523 3.55228 23 3 23C2.44772 23 2 22.5523 2 22V2C2 1.44772 2.44772 1 3 1ZM4 17C4 17.5523 4.44772 18 5 18H7C7.55228 18 8 17.5523 8 17V7C8 6.44772 7.55228 6 7 6H5C4.44772 6 4 6.44772 4 7V17ZM21 1C21.5523 1 22 1.44772 22 2V22C22 22.5523 21.5523 23 21 23C20.4477 23 20 22.5523 20 22V17.8293C19.6872 17.9398 19.3506 18 19 18H17C15.3431 18 14 16.6569 14 15V9C14 7.34315 15.3431 6 17 6H19C19.3506 6 19.6872 6.06015 20 6.17071V2C20 1.44772 20.4477 1 21 1ZM20 9C20 8.44772 19.5523 8 19 8H17C16.4477 8 16 8.44772 16 9V15C16 15.5523 16.4477 16 17 16H19C19.5523 16 20 15.5523 20 15V9Z" fill="black" style="fill:black;fill-opacity:1;"/>
</svg>
