<svg width="24" height="24" viewBox="0 0 24 24" fill="none" xmlns="http://www.w3.org/2000/svg">
<path fill-rule="evenodd" clip-rule="evenodd" d="M6.29289 3.29289C6.68342 2.90237 7.31658 2.90237 7.70711 3.29289L11.7071 7.29289C12.0976 7.68342 12.0976 8.31658 11.7071 8.70711C11.3166 9.09763 10.6834 9.09763 10.2929 8.70711L8 6.41421V20C8 20.5523 7.55228 21 7 21C6.44772 21 6 20.5523 6 20V6.41421L3.70711 8.70711C3.31658 9.09763 2.68342 9.09763 2.29289 8.70711C1.90237 8.31658 1.90237 7.68342 2.29289 7.29289L6.29289 3.29289ZM15 3H17C17.5523 3 18 3.44772 18 4V9H19C19.5523 9 20 9.44772 20 10C20 10.5523 19.5523 11 19 11H15C14.4477 11 14 10.5523 14 10C14 9.44772 14.4477 9 15 9H16V5H15C14.4477 5 14 4.55228 14 4C14 3.44772 14.4477 3 15 3ZM17 15C16.4477 15 16 15.4477 16 16V18C16 18.5523 16.4477 19 17 19C17.5523 19 18 18.5523 18 18V16C18 15.4477 17.5523 15 17 15ZM14 16C14 14.3431 15.3431 13 17 13C18.6569 13 20 14.3431 20 16V18C20 19.6569 18.6569 21 17 21C15.3431 21 14 19.6569 14 18V16Z" fill="black" style="fill:black;fill-opacity:1;"/>
</svg>
