<svg width="24" height="24" viewBox="0 0 24 24" fill="none" xmlns="http://www.w3.org/2000/svg">
<path fill-rule="evenodd" clip-rule="evenodd" d="M12.3827 4.07612C12.7564 4.2309 13 4.59554 13 5V8H18C18.5523 8 19 8.44772 19 9V15C19 15.5523 18.5523 16 18 16H13V19C13 19.4045 12.7564 19.7691 12.3827 19.9239C12.009 20.0787 11.5789 19.9931 11.2929 19.7071L4.29289 12.7071C3.90237 12.3166 3.90237 11.6834 4.29289 11.2929L11.2929 4.29289C11.5789 4.0069 12.009 3.92134 12.3827 4.07612ZM6.41421 12L11 16.5858V15C11 14.4477 11.4477 14 12 14H17V10H12C11.4477 10 11 9.55229 11 9V7.41421L6.41421 12Z" fill="black" style="fill:black;fill-opacity:1;"/>
</svg>
