<svg width="24" height="24" viewBox="0 0 24 24" fill="none" xmlns="http://www.w3.org/2000/svg">
<path fill-rule="evenodd" clip-rule="evenodd" d="M12 3C12.3788 3 12.725 3.214 12.8944 3.55279L16.8854 11.5348C16.8919 11.5471 16.8981 11.5596 16.9041 11.5722L18.8944 15.5528C19.1414 16.0468 18.9412 16.6474 18.4472 16.8944C17.9532 17.1414 17.3526 16.9412 17.1056 16.4472L15.382 13H8.61803L6.89443 16.4472C6.64744 16.9412 6.04676 17.1414 5.55279 16.8944C5.05881 16.6474 4.85858 16.0468 5.10557 15.5528L7.09588 11.5722C7.10186 11.5596 7.10809 11.5471 7.11457 11.5348L11.1056 3.55279C11.275 3.214 11.6212 3 12 3ZM9.61803 11H14.382L12 6.23607L9.61803 11ZM3 20C3 19.4477 3.44772 19 4 19H20C20.5523 19 21 19.4477 21 20C21 20.5523 20.5523 21 20 21H4C3.44772 21 3 20.5523 3 20Z" fill="black" style="fill:black;fill-opacity:1;"/>
</svg>
