<svg width="24" height="24" viewBox="0 0 24 24" fill="none" xmlns="http://www.w3.org/2000/svg">
<path fill-rule="evenodd" clip-rule="evenodd" d="M4 8C3.44772 8 3 8.44772 3 9V15C3 15.5523 3.44772 16 4 16H16C16.5523 16 17 15.5523 17 15V9C17 8.44772 16.5523 8 16 8H4ZM1 9C1 7.34315 2.34315 6 4 6H16C17.6569 6 19 7.34315 19 9V15C19 16.6569 17.6569 18 16 18H4C2.34315 18 1 16.6569 1 15V9ZM6 10C6.55228 10 7 10.4477 7 11V13C7 13.5523 6.55228 14 6 14C5.44772 14 5 13.5523 5 13V11C5 10.4477 5.44772 10 6 10ZM22 10C22.5523 10 23 10.4477 23 11V13C23 13.5523 22.5523 14 22 14C21.4477 14 21 13.5523 21 13V11C21 10.4477 21.4477 10 22 10Z" fill="black" style="fill:black;fill-opacity:1;"/>
</svg>
