<svg width="24" height="24" viewBox="0 0 24 24" fill="none" xmlns="http://www.w3.org/2000/svg">
<path fill-rule="evenodd" clip-rule="evenodd" d="M3.5 3C3.5 2.44772 3.94772 2 4.5 2H19.5C20.0523 2 20.5 2.44772 20.5 3C20.5 3.55228 20.0523 4 19.5 4H19V19C19 19.7957 18.6839 20.5587 18.1213 21.1213C17.5587 21.6839 16.7957 22 16 22H8C7.20435 22 6.44129 21.6839 5.87868 21.1213C5.31607 20.5587 5 19.7957 5 19V4H4.5C3.94772 4 3.5 3.55228 3.5 3ZM7 4V13H17V4H7ZM17 15H7V19C7 19.2652 7.10536 19.5196 7.29289 19.7071C7.48043 19.8946 7.73478 20 8 20H16C16.2652 20 16.5196 19.8946 16.7071 19.7071C16.8946 19.5196 17 19.2652 17 19V15Z" fill="black" style="fill:black;fill-opacity:1;"/>
</svg>
