<svg width="24" height="24" viewBox="0 0 24 24" fill="none" xmlns="http://www.w3.org/2000/svg">
<g clip-path="url(#clip0_168_2810)">
<path d="M8.01999 23C8.01999 23 8.00999 23 7.99999 23C6.28999 23 4.63999 22.37 3.34999 21.23C2.06999 20.1 1.24999 18.53 1.04999 16.82C0.849989 15.12 1.27999 13.4 2.25999 11.99C3.23999 10.58 4.69999 9.59 6.36999 9.19C6.78999 9.09 7.13999 8.98 7.43999 8.85L1.29999 2.71C0.909989 2.32 0.909989 1.68 1.29999 1.29C1.68999 0.899998 2.31999 0.899998 2.70999 1.29L18.6 17.18C18.6 17.18 18.6 17.19 18.6 17.2L22.69 21.29C23.08 21.68 23.08 22.31 22.69 22.7C22.3 23.09 21.67 23.09 21.28 22.7L17.86 19.28C16.63 20.36 15.25 21.22 13.72 21.85C11.89 22.61 9.96999 22.99 7.98999 22.99L8.01999 23ZM7.99999 21H8.00999C9.71999 21 11.39 20.67 12.97 20.01C14.25 19.48 15.41 18.76 16.45 17.87L11.75 13.17C11.36 13.43 10.93 13.64 10.47 13.78C9.69999 14.02 8.86999 14.07 8.06999 13.92C7.26999 13.77 6.51999 13.43 5.87999 12.93C5.53999 12.66 5.23999 12.35 4.97999 12.01C4.55999 12.33 4.17999 12.71 3.87999 13.15C3.17999 14.16 2.86999 15.38 3.01999 16.6C3.15999 17.82 3.74999 18.94 4.66999 19.75C5.58999 20.56 6.76999 21.01 7.98999 21.01L7.99999 21ZM6.88999 11.13C6.96999 11.21 7.05999 11.29 7.14999 11.36C7.52999 11.66 7.97999 11.87 8.45999 11.96C8.92999 12.05 9.42999 12.02 9.89999 11.88C10.04 11.84 10.17 11.78 10.3 11.72L8.91999 10.34C8.23999 10.76 7.50999 10.98 6.88999 11.13ZM20.32 15.66C20.16 15.66 20 15.62 19.84 15.54C19.35 15.28 19.17 14.67 19.44 14.18C20.46 12.29 21 10.16 21 8C21 6.9 20.63 5.81 19.95 4.94C19.27 4.07 18.32 3.44 17.25 3.16C16.18 2.88 15.03 2.97 14.02 3.41C13.22 3.75 12.52 4.31 12 5C12.68 5.51 13.22 6.19 13.57 6.98C13.79 7.48 13.57 8.08 13.06 8.3C12.56 8.52 11.96 8.3 11.74 7.79C11.44 7.11 10.89 6.56 10.21 6.26C9.70999 6.04 9.47999 5.45 9.69999 4.94C9.72999 4.88 9.75999 4.82 9.79999 4.76C9.81999 4.71 9.83999 4.66 9.86999 4.61C10.62 3.26 11.81 2.18 13.23 1.57C14.65 0.959998 16.26 0.839998 17.75 1.22C19.24 1.6 20.59 2.49 21.53 3.71C22.47 4.93 22.99 6.45 22.99 8C22.99 10.49 22.37 12.96 21.19 15.14C21.01 15.47 20.67 15.66 20.31 15.66H20.32Z" fill="black" style="fill:black;fill-opacity:1;"/>
</g>
<defs>
<clipPath id="clip0_168_2810">
<rect width="22.01" height="22" fill="white" style="fill:white;fill-opacity:1;" transform="translate(1 1)"/>
</clipPath>
</defs>
</svg>
