<svg width="24" height="24" viewBox="0 0 24 24" fill="none" xmlns="http://www.w3.org/2000/svg">
<path fill-rule="evenodd" clip-rule="evenodd" d="M6.5 3C6.10218 3 5.72064 3.15804 5.43934 3.43934C5.15804 3.72064 5 4.10218 5 4.5V16.3377C5.46443 16.1174 5.97616 16 6.5 16H19V3H6.5ZM21 2C21 1.44772 20.5523 1 20 1H6.5C5.57174 1 4.6815 1.36875 4.02513 2.02513C3.36875 2.6815 3 3.57174 3 4.5V19.5C3 20.4283 3.36875 21.3185 4.02513 21.9749C4.6815 22.6313 5.57174 23 6.5 23H20C20.5523 23 21 22.5523 21 22V2ZM19 18H6.5C6.10218 18 5.72064 18.158 5.43934 18.4393C5.15804 18.7206 5 19.1022 5 19.5C5 19.8978 5.15804 20.2794 5.43934 20.5607C5.72064 20.842 6.10218 21 6.5 21H19V18ZM12 5C12.3589 5 12.6902 5.19229 12.8682 5.50386L16.8682 12.5039C17.1423 12.9834 16.9757 13.5942 16.4961 13.8682C16.0166 14.1423 15.4058 13.9757 15.1318 13.4961L14.2768 12H9.72318L8.86824 13.4961C8.59423 13.9757 7.98338 14.1423 7.50386 13.8682C7.02434 13.5942 6.85775 12.9834 7.13176 12.5039L8.12951 10.7578C8.17462 10.5764 8.26924 10.4147 8.39818 10.2876L11.1318 5.50386C11.3098 5.19229 11.6411 5 12 5ZM10.866 10H13.134L12 8.01556L10.866 10Z" fill="black" style="fill:black;fill-opacity:1;"/>
</svg>
