<svg width="24" height="24" viewBox="0 0 24 24" fill="none" xmlns="http://www.w3.org/2000/svg">
<path fill-rule="evenodd" clip-rule="evenodd" d="M6.5 3C6.10218 3 5.72064 3.15804 5.43934 3.43934C5.15804 3.72064 5 4.10218 5 4.5V5C5 5.55228 4.55228 6 4 6C3.44772 6 3 5.55228 3 5V4.5C3 3.57174 3.36875 2.6815 4.02513 2.02513C4.6815 1.36875 5.57174 1 6.5 1H8C8.55228 1 9 1.44772 9 2C9 2.55228 8.55228 3 8 3H6.5ZM11 2C11 1.44772 11.4477 1 12 1H14C14.5523 1 15 1.44772 15 2C15 2.55228 14.5523 3 14 3H12C11.4477 3 11 2.55228 11 2ZM17 2C17 1.44772 17.4477 1 18 1H20C20.5523 1 21 1.44772 21 2V4C21 4.55228 20.5523 5 20 5C19.4477 5 19 4.55228 19 4V3H18C17.4477 3 17 2.55228 17 2ZM20 7C20.5523 7 21 7.44772 21 8V11C21 11.5523 20.5523 12 20 12C19.4477 12 19 11.5523 19 11V8C19 7.44772 19.4477 7 20 7ZM4 8C4.55228 8 5 8.44772 5 9V11C5 11.5523 4.55228 12 4 12C3.44772 12 3 11.5523 3 11V9C3 8.44772 3.44772 8 4 8ZM4 14C4.55228 14 5 14.4477 5 15V16.3377C5.46443 16.1174 5.97616 16 6.5 16H8C8.55228 16 9 16.4477 9 17C9 17.5523 8.55228 18 8 18H6.5C6.10218 18 5.72064 18.158 5.43934 18.4393C5.15804 18.7206 5 19.1022 5 19.5C5 19.8978 5.15804 20.2794 5.43934 20.5607C5.72064 20.842 6.10218 21 6.5 21H8C8.55228 21 9 21.4477 9 22C9 22.5523 8.55228 23 8 23H6.5C5.57174 23 4.6815 22.6313 4.02513 21.9749C3.36875 21.3185 3 20.4283 3 19.5V15C3 14.4477 3.44772 14 4 14ZM20 14C20.5523 14 21 14.4477 21 15V17C21 17.5523 20.5523 18 20 18H18C17.4477 18 17 17.5523 17 17C17 16.4477 17.4477 16 18 16H19V15C19 14.4477 19.4477 14 20 14ZM11 17C11 16.4477 11.4477 16 12 16H14C14.5523 16 15 16.4477 15 17C15 17.5523 14.5523 18 14 18H12C11.4477 18 11 17.5523 11 17ZM11 22C11 21.4477 11.4477 21 12 21H14C14.5523 21 15 21.4477 15 22C15 22.5523 14.5523 23 14 23H12C11.4477 23 11 22.5523 11 22ZM17 22C17 21.4477 17.4477 21 18 21H20C20.5523 21 21 21.4477 21 22C21 22.5523 20.5523 23 20 23H18C17.4477 23 17 22.5523 17 22Z" fill="black" style="fill:black;fill-opacity:1;"/>
</svg>
