<svg width="24" height="24" viewBox="0 0 24 24" fill="none" xmlns="http://www.w3.org/2000/svg">
<path fill-rule="evenodd" clip-rule="evenodd" d="M1 3C1 2.44772 1.44772 2 2 2H8C9.32608 2 10.5979 2.52678 11.5355 3.46447C11.7038 3.63275 11.8589 3.81178 12 3.99997C12.1411 3.81178 12.2962 3.63275 12.4645 3.46447C13.4021 2.52678 14.6739 2 16 2H22C22.5523 2 23 2.44772 23 3V18C23 18.5523 22.5523 19 22 19H15C14.4696 19 13.9609 19.2107 13.5858 19.5858C13.2107 19.9609 13 20.4696 13 21C13 21.5523 12.5523 22 12 22C11.4477 22 11 21.5523 11 21C11 20.4696 10.7893 19.9609 10.4142 19.5858C10.0391 19.2107 9.53043 19 9 19H2C1.44772 19 1 18.5523 1 18V3ZM11 17.5359C10.3971 17.1878 9.70823 17 9 17H3V4H8C8.79565 4 9.55871 4.31607 10.1213 4.87868C10.6839 5.44129 11 6.20435 11 7V17.5359ZM13 17.5359C13.6029 17.1878 14.2918 17 15 17H21V4H16C15.2044 4 14.4413 4.31607 13.8787 4.87868C13.3161 5.44129 13 6.20435 13 7V17.5359ZM5 8C5 7.44772 5.44772 7 6 7H8C8.55228 7 9 7.44772 9 8C9 8.55228 8.55228 9 8 9H6C5.44772 9 5 8.55228 5 8ZM15 8C15 7.44772 15.4477 7 16 7H18C18.5523 7 19 7.44772 19 8C19 8.55228 18.5523 9 18 9H16C15.4477 9 15 8.55228 15 8ZM5 12C5 11.4477 5.44772 11 6 11H8C8.55228 11 9 11.4477 9 12C9 12.5523 8.55228 13 8 13H6C5.44772 13 5 12.5523 5 12ZM15 12C15 11.4477 15.4477 11 16 11H18C18.5523 11 19 11.4477 19 12C19 12.5523 18.5523 13 18 13H16C15.4477 13 15 12.5523 15 12Z" fill="black" style="fill:black;fill-opacity:1;"/>
</svg>
