<svg width="24" height="24" viewBox="0 0 24 24" fill="none" xmlns="http://www.w3.org/2000/svg">
<path fill-rule="evenodd" clip-rule="evenodd" d="M4 3C3.73478 3 3.48043 3.10536 3.29289 3.29289C3.10536 3.48043 3 3.73478 3 4V8C3 8.26522 3.10536 8.51957 3.29289 8.70711C3.48043 8.89464 3.73478 9 4 9C4.55228 9 5 9.44772 5 10C5 10.5523 4.55228 11 4 11C3.20435 11 2.44129 10.6839 1.87868 10.1213C1.31607 9.55871 1 8.79565 1 8V4C1 3.20435 1.31607 2.44129 1.87868 1.87868C2.44129 1.31607 3.20435 1 4 1H8C8.79565 1 9.55871 1.31607 10.1213 1.87868C10.6839 2.44129 11 3.20435 11 4C11 4.55228 10.5523 5 10 5C9.44772 5 9 4.55228 9 4C9 3.73478 8.89464 3.48043 8.70711 3.29289C8.51957 3.10536 8.26522 3 8 3H4ZM10 9C9.44772 9 9 9.44772 9 10V14C9 14.5523 9.44772 15 10 15H14C14.5523 15 15 14.5523 15 14V10C15 9.44772 14.5523 9 14 9H10ZM7 10C7 8.34315 8.34315 7 10 7H14C15.6569 7 17 8.34315 17 10V14C17 15.6569 15.6569 17 14 17H10C8.34315 17 7 15.6569 7 14V10ZM19 14C19 13.4477 19.4477 13 20 13C20.7957 13 21.5587 13.3161 22.1213 13.8787C22.6839 14.4413 23 15.2043 23 16V20C23 20.7957 22.6839 21.5587 22.1213 22.1213C21.5587 22.6839 20.7957 23 20 23H16C15.2043 23 14.4413 22.6839 13.8787 22.1213C13.3161 21.5587 13 20.7957 13 20C13 19.4477 13.4477 19 14 19C14.5523 19 15 19.4477 15 20C15 20.2652 15.1054 20.5196 15.2929 20.7071C15.4804 20.8946 15.7348 21 16 21H20C20.2652 21 20.5196 20.8946 20.7071 20.7071C20.8946 20.5196 21 20.2652 21 20V16C21 15.7348 20.8946 15.4804 20.7071 15.2929C20.5196 15.1054 20.2652 15 20 15C19.4477 15 19 14.5523 19 14Z" fill="black" style="fill:black;fill-opacity:1;"/>
</svg>
