<svg width="24" height="24" viewBox="0 0 24 24" fill="none" xmlns="http://www.w3.org/2000/svg">
<path fill-rule="evenodd" clip-rule="evenodd" d="M1.29289 1.29289C1.68342 0.902369 2.31658 0.902369 2.70711 1.29289L22.7071 21.2929C23.0976 21.6834 23.0976 22.3166 22.7071 22.7071C22.3166 23.0976 21.6834 23.0976 21.2929 22.7071L18.5858 20H5C4.20435 20 3.44129 19.6839 2.87868 19.1213C2.31607 18.5587 2 17.7957 2 17V7C2 6.20435 2.31607 5.44129 2.87868 4.87868C2.97723 4.78013 3.08193 4.68914 3.19188 4.6061L1.29289 2.70711C0.902369 2.31658 0.902369 1.68342 1.29289 1.29289ZM4.6493 6.06351C4.51673 6.11316 4.39492 6.19086 4.29289 6.29289C4.10536 6.48043 4 6.73478 4 7V17C4 17.2652 4.10536 17.5196 4.29289 17.7071C4.48043 17.8946 4.73478 18 5 18H16.5858L10.5858 12H7C6.44772 12 6 11.5523 6 11C6 10.4477 6.44772 10 7 10H8.58579L4.6493 6.06351ZM9.5 5C9.5 4.44772 9.94772 4 10.5 4H19C19.7957 4 20.5587 4.31607 21.1213 4.87868C21.6839 5.44129 22 6.20435 22 7V15.5C22 16.0523 21.5523 16.5 21 16.5C20.4477 16.5 20 16.0523 20 15.5V7C20 6.73478 19.8946 6.48043 19.7071 6.29289C19.5196 6.10536 19.2652 6 19 6H10.5C9.94772 6 9.5 5.55228 9.5 5ZM15.5 11C15.5 10.4477 15.9477 10 16.5 10H17C17.5523 10 18 10.4477 18 11C18 11.5523 17.5523 12 17 12H16.5C15.9477 12 15.5 11.5523 15.5 11ZM6 15C6 14.4477 6.44772 14 7 14H9.5C10.0523 14 10.5 14.4477 10.5 15C10.5 15.5523 10.0523 16 9.5 16H7C6.44772 16 6 15.5523 6 15Z" fill="black" style="fill:black;fill-opacity:1;"/>
</svg>
