<svg width="24" height="24" viewBox="0 0 24 24" fill="none" xmlns="http://www.w3.org/2000/svg">
<path fill-rule="evenodd" clip-rule="evenodd" d="M11.5528 1.10557C11.8343 0.964809 12.1657 0.964809 12.4472 1.10557L18.4472 4.10557C18.786 4.27496 19 4.62123 19 5V6.38197L22.4472 8.10557C22.786 8.27496 23 8.62123 23 9V20C23 20.7957 22.6839 21.5587 22.1213 22.1213C21.5587 22.6839 20.7957 23 20 23H4C3.20435 23 2.44129 22.6839 1.87868 22.1213C1.31607 21.5587 1 20.7957 1 20V9C1 8.62123 1.214 8.27496 1.55279 8.10557L5 6.38197V5C5 4.62123 5.214 4.27496 5.55279 4.10557L11.5528 1.10557ZM7 7.02012C7.00029 7.00621 7.00029 6.99228 7 6.97833V5.61803L12 3.11803L17 5.61803V6.97834C16.9997 6.99228 16.9997 7.00621 17 7.02012V21H15V18C15 17.2043 14.6839 16.4413 14.1213 15.8787C13.5587 15.3161 12.7957 15 12 15C11.2043 15 10.4413 15.3161 9.87868 15.8787C9.31607 16.4413 9 17.2043 9 18V21H7V7.02012ZM5 8.61803L3 9.61803V20C3 20.2652 3.10536 20.5196 3.29289 20.7071C3.48043 20.8946 3.73478 21 4 21H5V8.61803ZM11 21H13V18C13 17.7348 12.8946 17.4804 12.7071 17.2929C12.5196 17.1054 12.2652 17 12 17C11.7348 17 11.4804 17.1054 11.2929 17.2929C11.1054 17.4804 11 17.7348 11 18V21ZM19 21H20C20.2652 21 20.5196 20.8946 20.7071 20.7071C20.8946 20.5196 21 20.2652 21 20V9.61803L19 8.61803V21ZM12 6C12.5523 6 13 6.44772 13 7V8H14C14.5523 8 15 8.44772 15 9C15 9.55228 14.5523 10 14 10H13V12C13 12.5523 12.5523 13 12 13C11.4477 13 11 12.5523 11 12V10H10C9.44772 10 9 9.55228 9 9C9 8.44772 9.44772 8 10 8H11V7C11 6.44772 11.4477 6 12 6Z" fill="black" style="fill:black;fill-opacity:1;"/>
</svg>
