<svg width="24" height="24" viewBox="0 0 24 24" fill="none" xmlns="http://www.w3.org/2000/svg">
<g clip-path="url(#clip0_168_2482)">
<path fill-rule="evenodd" clip-rule="evenodd" d="M13.7088 3.16157C12.5803 2.94159 11.4199 2.94159 10.2914 3.16157C9.74936 3.26725 9.22425 2.91347 9.11857 2.37139C9.0129 1.82931 9.36668 1.3042 9.90876 1.19853C11.29 0.929268 12.7102 0.929268 14.0914 1.19853C14.6335 1.3042 14.9873 1.82931 14.8816 2.37139C14.7759 2.91347 14.2508 3.26725 13.7088 3.16157ZM7.24044 3.15291C7.54809 3.61157 7.42567 4.23279 6.96701 4.54044C6.00911 5.18296 5.18444 6.00458 4.53837 6.96009C4.22902 7.4176 3.60735 7.53772 3.14983 7.22837C2.69232 6.91902 2.5722 6.29735 2.88155 5.83983C3.672 4.6708 4.68095 3.66558 5.85291 2.87948C6.31157 2.57183 6.93279 2.69425 7.24044 3.15291ZM16.7717 3.14983C17.081 2.69232 17.7027 2.5722 18.1602 2.88155C19.3293 3.672 20.3345 4.68095 21.1206 5.85291C21.4282 6.31157 21.3058 6.93279 20.8471 7.24044C20.3885 7.54809 19.7673 7.42567 19.4596 6.96701C18.8171 6.00911 17.9955 5.18444 17.04 4.53837C16.5825 4.22902 16.4623 3.60735 16.7717 3.14983ZM2.37139 9.11857C2.91347 9.22425 3.26725 9.74936 3.16157 10.2914C2.94159 11.4199 2.94159 12.5803 3.16157 13.7088C3.26725 14.2508 2.91347 14.7759 2.37139 14.8816C1.82931 14.9873 1.3042 14.6335 1.19853 14.0914C0.929268 12.7102 0.929268 11.29 1.19853 9.90876C1.3042 9.36668 1.82931 9.0129 2.37139 9.11857ZM21.6287 9.11857C22.1708 9.0129 22.6959 9.36668 22.8016 9.90876C23.0709 11.29 23.0709 12.7102 22.8016 14.0914C22.6959 14.6335 22.1708 14.9873 21.6287 14.8816C21.0866 14.7759 20.7329 14.2508 20.8385 13.7088C21.0585 12.5803 21.0585 11.4199 20.8385 10.2914C20.7329 9.74936 21.0866 9.22425 21.6287 9.11857ZM10 12C10 10.8954 10.8954 10 12 10C13.1046 10 14 10.8954 14 12C14 13.1046 13.1046 14 12 14C10.8954 14 10 13.1046 10 12ZM3.15291 16.7596C3.61157 16.452 4.23279 16.5744 4.54044 17.033C5.18296 17.9909 6.00458 18.8156 6.96009 19.4617C7.4176 19.771 7.53772 20.3927 7.22837 20.8502C6.91902 21.3077 6.29735 21.4278 5.83983 21.1185C4.6708 20.3281 3.66558 19.3191 2.87948 18.1471C2.57183 17.6885 2.69425 17.0673 3.15291 16.7596ZM20.8502 16.7717C21.3077 17.081 21.4278 17.7027 21.1185 18.1602C20.3281 19.3293 19.3191 20.3345 18.1471 21.1206C17.6885 21.4282 17.0673 21.3058 16.7596 20.8471C16.452 20.3885 16.5744 19.7673 17.033 19.4596C17.9909 18.8171 18.8156 17.9955 19.4617 17.04C19.771 16.5825 20.3927 16.4623 20.8502 16.7717ZM9.11854 21.6289C9.2241 21.0868 9.74914 20.7329 10.2912 20.8385C11.4199 21.0583 12.5803 21.0583 13.709 20.8385C14.2511 20.7329 14.7761 21.0868 14.8817 21.6289C14.9872 22.171 14.6333 22.6961 14.0912 22.8016C12.7101 23.0706 11.2901 23.0706 9.90895 22.8016C9.36685 22.6961 9.01297 22.171 9.11854 21.6289Z" fill="black" style="fill:black;fill-opacity:1;"/>
</g>
<defs>
<clipPath id="clip0_168_2482">
<rect width="24" height="24" fill="white" style="fill:white;fill-opacity:1;"/>
</clipPath>
</defs>
</svg>
