<svg width="24" height="24" viewBox="0 0 24 24" fill="none" xmlns="http://www.w3.org/2000/svg">
<path fill-rule="evenodd" clip-rule="evenodd" d="M7.58579 1.58579C7.96086 1.21071 8.46957 1 9 1H15C15.5272 1 16.0443 1.18011 16.4321 1.56789C16.8199 1.95567 17 2.47275 17 3H18C18.7956 3 19.5587 3.31607 20.1213 3.87868C20.6839 4.44129 21 5.20435 21 6V8C21 8.55228 20.5523 9 20 9C19.4477 9 19 8.55228 19 8V6C19 5.73478 18.8946 5.48043 18.7071 5.29289C18.5196 5.10536 18.2652 5 18 5H17C17 5.52725 16.8199 6.04433 16.4321 6.43211C16.0443 6.81989 15.5272 7 15 7H9C8.47275 7 7.95567 6.81989 7.56789 6.43211C7.18011 6.04433 7 5.52725 7 5H6C5.73478 5 5.48043 5.10536 5.29289 5.29289C5.10536 5.48043 5 5.73478 5 6V20C5 20.2652 5.10536 20.5196 5.29289 20.7071C5.48043 20.8946 5.73478 21 6 21H18C18.2652 21 18.5196 20.8946 18.7071 20.7071C18.8946 20.5196 19 20.2652 19 20C19 19.4477 19.4477 19 20 19C20.5523 19 21 19.4477 21 20C21 20.7957 20.6839 21.5587 20.1213 22.1213C19.5587 22.6839 18.7957 23 18 23H6C5.20435 23 4.44129 22.6839 3.87868 22.1213C3.31607 21.5587 3 20.7957 3 20V6C3 5.20435 3.31607 4.44129 3.87868 3.87868C4.44129 3.31607 5.20435 3 6 3H7C7 2.46957 7.21071 1.96086 7.58579 1.58579ZM9 5H15V3H9V5ZM16.2929 10.7071C15.9024 10.3166 15.9024 9.68342 16.2929 9.29289C16.6834 8.90237 17.3166 8.90237 17.7071 9.29289L21.7071 13.2929C22.0976 13.6834 22.0976 14.3166 21.7071 14.7071L17.7071 18.7071C17.3166 19.0976 16.6834 19.0976 16.2929 18.7071C15.9024 18.3166 15.9024 17.6834 16.2929 17.2929L18.5858 15H11C10.4477 15 10 14.5523 10 14C10 13.4477 10.4477 13 11 13H18.5858L16.2929 10.7071Z" fill="black" style="fill:black;fill-opacity:1;"/>
</svg>
