<svg width="24" height="24" viewBox="0 0 24 24" fill="none" xmlns="http://www.w3.org/2000/svg">
<path fill-rule="evenodd" clip-rule="evenodd" d="M6.99999 3C6.99999 1.89543 7.89542 1 8.99999 1H15C16.1046 1 17 1.89543 17 3H18C18.7956 3 19.5587 3.31607 20.1213 3.87868C20.6839 4.44129 21 5.20435 21 6V20C21 20.7957 20.6839 21.5587 20.1213 22.1213C19.5587 22.6839 18.7956 23 18 23H12.5C11.9477 23 11.5 22.5523 11.5 22C11.5 21.4477 11.9477 21 12.5 21H18C18.2652 21 18.5196 20.8946 18.7071 20.7071C18.8946 20.5196 19 20.2652 19 20V6C19 5.73478 18.8946 5.48043 18.7071 5.29289C18.5196 5.10536 18.2652 5 18 5H17C17 6.10457 16.1046 7 15 7H8.99999C7.89542 7 6.99999 6.10457 6.99999 5H5.99999C5.73477 5 5.48042 5.10536 5.29288 5.29289C5.10535 5.48043 4.99999 5.73478 4.99999 6V13.5C4.99999 14.0523 4.55228 14.5 3.99999 14.5C3.44771 14.5 2.99999 14.0523 2.99999 13.5V6C2.99999 5.20435 3.31606 4.44129 3.87867 3.87868C4.44128 3.31607 5.20434 3 5.99999 3H6.99999ZM8.99999 5H15V3H8.99999V5ZM11.9 12.9788C11.6026 12.9788 11.3174 13.0969 11.1071 13.3072L5.90295 18.5113L5.37436 20.6257L7.48874 20.0971L12.6929 14.893C12.9032 14.6827 13.0213 14.3975 13.0213 14.1001C13.0213 13.8027 12.9032 13.5175 12.6929 13.3072C12.4826 13.0969 12.1974 12.9788 11.9 12.9788ZM9.69288 11.893C10.2782 11.3076 11.0722 10.9788 11.9 10.9788C12.7278 10.9788 13.5217 11.3076 14.1071 11.893C14.6925 12.4783 15.0213 13.2723 15.0213 14.1001C15.0213 14.9279 14.6925 15.7218 14.1071 16.3072L8.7071 21.7072C8.57894 21.8353 8.41836 21.9263 8.24253 21.9702L4.24253 22.9702C3.90175 23.0554 3.54126 22.9556 3.29288 22.7072C3.0445 22.4588 2.94465 22.0983 3.02985 21.7575L4.02985 17.7575C4.07381 17.5817 4.16473 17.4211 4.29288 17.293L9.69288 11.893Z" fill="black" style="fill:black;fill-opacity:1;"/>
</svg>
