<svg width="24" height="24" viewBox="0 0 24 24" fill="none" xmlns="http://www.w3.org/2000/svg">
<path fill-rule="evenodd" clip-rule="evenodd" d="M11.1972 2.00929C12.6621 1.94085 14.1071 2.36963 15.2976 3.22601C16.2787 3.9318 17.0395 4.89387 17.5011 6.00006H19.0001C20.0609 6.00006 21.0783 6.42149 21.8285 7.17163C22.5786 7.92178 23.0001 8.93919 23.0001 10.0001C23.0001 10.5523 22.5523 11.0001 22.0001 11.0001C21.4478 11.0001 21.0001 10.5523 21.0001 10.0001C21.0001 9.46963 20.7894 8.96092 20.4143 8.58585C20.0392 8.21077 19.5305 8.00006 19.0001 8.00006H16.7931C16.3461 8.00006 15.9534 7.70341 15.8312 7.27344C15.5536 6.29672 14.9539 5.44252 14.1297 4.84957C13.3054 4.25661 12.3048 3.95972 11.2906 4.00711C10.2763 4.05449 9.30777 4.44338 8.54236 5.11061C8.20837 5.40175 7.92161 5.73844 7.68906 6.10843C8.5823 5.95985 9.49841 5.96332 10.3981 6.12282C11.8589 6.38178 13.2189 7.04185 14.3262 8.02926C15.2446 8.84821 15.959 9.86557 16.4179 11H17.4999C18.2222 11 18.9374 11.1423 19.6047 11.4187C20.272 11.6951 20.8783 12.1002 21.389 12.6109C21.8997 13.1216 22.3049 13.728 22.5813 14.3952C22.8577 15.0625 22.9999 15.7777 22.9999 16.5C22.9999 17.2223 22.8577 17.9375 22.5813 18.6048C22.3049 19.2721 21.8997 19.8784 21.389 20.3891C20.8783 20.8998 20.272 21.3049 19.6047 21.5813C18.9374 21.8577 18.2222 22 17.4999 22H8.99992C7.51633 21.9996 6.06182 21.5867 4.7994 20.8074C3.53699 20.0281 2.51614 18.9131 1.85094 17.587C1.18574 16.2609 0.902396 14.7759 1.03257 13.2981C1.16274 11.8202 1.70129 10.4077 2.58806 9.21827C3.28221 8.28721 4.16832 7.52162 5.18207 6.97075C5.49859 5.6664 6.21203 4.48879 7.22815 3.60301C8.33358 2.63937 9.73232 2.07773 11.1972 2.00929ZM10.049 8.09211C8.95341 7.89789 7.82538 8.01216 6.79097 8.42213C5.75657 8.83211 4.85654 9.52165 4.19147 10.4137C3.5264 11.3057 3.12248 12.3652 3.02485 13.4736C2.92722 14.582 3.13973 15.6957 3.63863 16.6902C4.13753 17.6848 4.90317 18.5211 5.84998 19.1055C6.79672 19.69 7.88732 19.9997 8.99992 20C8.99983 20 9 20 8.99992 20H17.4999C17.9595 20 18.4147 19.9095 18.8393 19.7336C19.2639 19.5577 19.6498 19.2999 19.9748 18.9749C20.2998 18.6499 20.5576 18.264 20.7335 17.8394C20.9094 17.4148 20.9999 16.9596 20.9999 16.5C20.9999 16.0404 20.9094 15.5853 20.7335 15.1606C20.5576 14.736 20.2998 14.3501 19.9748 14.0251C19.6498 13.7001 19.2639 13.4423 18.8393 13.2664C18.4147 13.0905 17.9595 13 17.4999 13H15.7099C15.2677 13 14.878 12.7095 14.7516 12.2857C14.4337 11.2194 13.8255 10.2625 12.9951 9.52195C12.1646 8.78139 11.1446 8.28633 10.049 8.09211Z" fill="black" style="fill:black;fill-opacity:1;"/>
</svg>
