<svg width="24" height="24" viewBox="0 0 24 24" fill="none" xmlns="http://www.w3.org/2000/svg">
<path fill-rule="evenodd" clip-rule="evenodd" d="M9.09321 1.69623C9.99577 1.24495 10.991 1.01001 12.0001 1.01001C13.0092 1.01001 14.0044 1.24495 14.907 1.69623C15.8095 2.14751 16.5946 2.80274 17.2001 3.61001C17.8056 4.41728 18.2147 5.35444 18.3953 6.34725C18.513 6.99469 18.5313 7.6542 18.4515 8.30336C19.1377 8.51869 19.7857 8.84716 20.3681 9.27744C21.2351 9.91809 21.9292 10.7643 22.3878 11.74C22.8464 12.7156 23.0552 13.79 22.9953 14.8664C22.9354 15.9427 22.6087 16.9873 22.0446 17.906C21.4806 18.8248 20.6969 19.5888 19.7641 20.1292C18.8313 20.6697 17.7788 20.9697 16.7012 21.0022C15.6237 21.0347 14.5549 20.7987 13.5913 20.3154C13.3879 20.2134 13.1906 20.1011 13 19.979L13 21.9999C13 22.5522 12.5523 22.9999 12 22.9999C11.4477 22.9999 11 22.5522 11 21.9999L11 19.973C10.8083 20.0954 10.6098 20.2079 10.4052 20.31C9.44155 20.7909 8.37351 21.0249 7.29708 20.9908C6.22064 20.9567 5.16954 20.6557 4.23824 20.1148C3.30693 19.574 2.52462 18.8102 1.96161 17.8921C1.3986 16.974 1.07253 15.9304 1.01272 14.8551C0.952905 13.7797 1.16122 12.7064 1.61893 11.7315C2.07664 10.7567 2.76942 9.91081 3.63499 9.26998C4.21607 8.83977 4.86279 8.51102 5.54767 8.29502C5.46902 7.64856 5.48773 6.99192 5.60494 6.34725C5.78545 5.35444 6.19464 4.41728 6.8001 3.61001C7.40555 2.80274 8.19065 2.14751 9.09321 1.69623ZM12.0001 3.01001C11.3015 3.01001 10.6125 3.17266 9.98763 3.48509C9.36279 3.79751 8.81926 4.25113 8.4001 4.81001C7.98093 5.36889 7.69765 6.01769 7.57268 6.70503C7.44771 7.39236 7.48449 8.09935 7.6801 8.77001C7.76122 9.04816 7.71772 9.34782 7.56085 9.59142C7.40399 9.83502 7.14917 9.99861 6.86238 10.0398C6.12437 10.1459 5.42429 10.4337 4.82505 10.8774C4.22581 11.321 3.7462 11.9066 3.42932 12.5815C3.11244 13.2565 2.96822 13.9995 3.00963 14.744C3.05104 15.4884 3.27678 16.2109 3.66656 16.8465C4.05633 17.4821 4.59794 18.0109 5.24268 18.3854C5.88743 18.7598 6.61512 18.9682 7.36034 18.9918C8.10557 19.0154 8.84497 18.8534 9.51211 18.5205C10.1792 18.1875 10.7532 17.6941 11.1824 17.0844C11.3699 16.818 11.6755 16.6596 12.0013 16.66C12.3271 16.6604 12.6323 16.8195 12.8192 17.0864C13.2473 17.6978 13.8208 18.193 14.4879 18.5276C15.155 18.8622 15.8949 19.0256 16.6409 19.0031C17.3869 18.9806 18.1156 18.7729 18.7614 18.3988C19.4072 18.0246 19.9497 17.4957 20.3402 16.8596C20.7307 16.2236 20.9569 15.5004 20.9984 14.7552C21.0398 14.01 20.8953 13.2662 20.5778 12.5908C20.2603 11.9154 19.7798 11.3295 19.1795 10.886C18.5793 10.4424 17.8781 10.1552 17.1392 10.05C16.6463 9.9799 16.2801 9.55787 16.2801 9.06001V9.05001C16.2801 8.95525 16.2936 8.86098 16.3201 8.77001C16.5157 8.09935 16.5525 7.39236 16.4275 6.70503C16.3025 6.01769 16.0193 5.36889 15.6001 4.81001C15.1809 4.25113 14.6374 3.79751 14.0126 3.48509C13.3877 3.17266 12.6987 3.01001 12.0001 3.01001Z" fill="black" style="fill:black;fill-opacity:1;"/>
</svg>
