<svg width="24" height="24" viewBox="0 0 24 24" fill="none" xmlns="http://www.w3.org/2000/svg">
<path fill-rule="evenodd" clip-rule="evenodd" d="M10.5022 1.40264C10.9577 1.14014 11.4743 1.00195 12 1.00195C12.5259 1.00195 13.0424 1.14015 13.498 1.40267C13.4987 1.40307 13.4993 1.40348 13.5 1.40388L16.6939 3.22891C16.9039 3.27049 17.0998 3.37897 17.2474 3.54518L20.5 5.40387C20.8701 5.61751 21.1892 5.90713 21.4371 6.2524C21.4974 6.31275 21.5509 6.38187 21.5957 6.45924C21.6342 6.52589 21.6642 6.59514 21.686 6.66572C21.8917 7.07918 21.9996 7.53539 22 7.99888V11.9808C22.0003 11.993 22.0003 12.0052 22 12.0173V16.0009C21.9995 16.527 21.8606 17.0437 21.5974 17.4992C21.3341 17.9547 20.9557 18.3329 20.5 18.5959L20.4962 18.5981L17.2471 20.4547C17.1047 20.6147 16.9116 20.7287 16.693 20.7714L13.5 22.5959C13.4994 22.5963 13.4988 22.5966 13.4982 22.597C13.1811 22.7798 12.8344 22.9023 12.4755 22.9599C12.3341 23.0365 12.1722 23.08 12 23.08C11.8279 23.08 11.666 23.0365 11.5245 22.9599C11.1657 22.9023 10.819 22.7798 10.5019 22.597C10.5013 22.5966 10.5007 22.5963 10.5 22.5959L7.30711 20.7714C7.08853 20.7287 6.89543 20.6147 6.75296 20.4547L3.50391 18.5981L3.50005 18.5959C3.04444 18.3329 2.66602 17.9547 2.40274 17.4992C2.13946 17.0437 2.00058 16.527 2.00005 16.0009L2.00004 12.0173C1.99982 12.0052 1.99982 11.993 2.00004 11.9808L2.00005 7.99888C2.00052 7.53531 2.1084 7.07904 2.31416 6.66552C2.33595 6.59501 2.36594 6.52583 2.40446 6.45924C2.44918 6.38193 2.50266 6.31286 2.56292 6.25254C2.81081 5.90721 3.12996 5.61754 3.50005 5.40388L3.5039 5.40165L6.75274 3.54518C6.90028 3.37897 7.09619 3.27049 7.30621 3.22891L10.5022 1.40264ZM7.54945 5.39342L5.039 6.82797L12.0001 10.8547L18.9611 6.82798L16.4506 5.39342L12.5003 7.67583C12.1908 7.85467 11.8093 7.85467 11.4998 7.67583L7.54945 5.39342ZM14.4407 4.24489L12.5 3.13594C12.348 3.04817 12.1756 3.00195 12 3.00195C11.8245 3.00195 11.6521 3.04816 11.5 3.13593L11.4962 3.13815L9.55938 4.24489L12 5.65505L14.4407 4.24489ZM20 8.53751L13 12.5868V20.5782L15.5 19.1496V14.6C15.5 14.2428 15.6905 13.9128 15.9998 13.7341L20 11.4229V8.53751ZM20 13.7327L17.5 15.1771V18.0067L19.5 16.8639C19.5006 16.8636 19.5011 16.8633 19.5016 16.863C19.6528 16.7753 19.7784 16.6496 19.8658 16.4983C19.9536 16.3465 19.9999 16.1742 20 15.9989V13.7327ZM11 20.5782V12.5867L4.00004 8.53749V11.4229L8.00032 13.7341C8.30957 13.9128 8.50004 14.2428 8.50004 14.6V19.1496L11 20.5782ZM6.50004 18.0067V15.1771L4.00004 13.7327V15.9993C4.0003 16.1745 4.04659 16.3466 4.13427 16.4983C4.22173 16.6496 4.3473 16.7753 4.49847 16.863C4.49899 16.8633 4.49952 16.8636 4.50004 16.8639L6.50004 18.0067Z" fill="black" style="fill:black;fill-opacity:1;"/>
</svg>
