<svg width="24" height="24" viewBox="0 0 24 24" fill="none" xmlns="http://www.w3.org/2000/svg">
<path fill-rule="evenodd" clip-rule="evenodd" d="M6 1C6.55228 1 7 1.44772 7 2V4C7 4.55228 6.55228 5 6 5C5.44772 5 5 4.55228 5 4V2C5 1.44772 5.44772 1 6 1ZM10 1C10.5523 1 11 1.44772 11 2V4C11 4.55228 10.5523 5 10 5C9.44772 5 9 4.55228 9 4V2C9 1.44772 9.44772 1 10 1ZM14 1C14.5523 1 15 1.44772 15 2V4C15 4.55228 14.5523 5 14 5C13.4477 5 13 4.55228 13 4V2C13 1.44772 13.4477 1 14 1ZM2 8C2 7.44772 2.44772 7 3 7H18C19.3261 7 20.5979 7.52678 21.5355 8.46447C22.4732 9.40215 23 10.6739 23 12C23 13.3261 22.4732 14.5979 21.5355 15.5355C20.5979 16.4732 19.3261 17 18 17C18 18.3261 17.4732 19.5979 16.5355 20.5355C15.5979 21.4732 14.3261 22 13 22H7C5.67392 22 4.40215 21.4732 3.46447 20.5355C2.52678 19.5979 2 18.3261 2 17V8ZM18 15C18.7957 15 19.5587 14.6839 20.1213 14.1213C20.6839 13.5587 21 12.7956 21 12C21 11.2044 20.6839 10.4413 20.1213 9.87868C19.5587 9.31607 18.7957 9 18 9V15ZM16 9V17C16 17.7957 15.6839 18.5587 15.1213 19.1213C14.5587 19.6839 13.7956 20 13 20H7C6.20435 20 5.44129 19.6839 4.87868 19.1213C4.31607 18.5587 4 17.7957 4 17V9H16Z" fill="black" style="fill:black;fill-opacity:1;"/>
</svg>
