<svg width="24" height="24" viewBox="0 0 24 24" fill="none" xmlns="http://www.w3.org/2000/svg">
<path fill-rule="evenodd" clip-rule="evenodd" d="M7 3C6.44772 3 6 3.44772 6 4V8C6 8.55228 6.44772 9 7 9H17C17.5523 9 18 8.55228 18 8V4C18 3.44772 17.5523 3 17 3H7ZM4 4C4 2.34315 5.34315 1 7 1H17C18.6569 1 20 2.34315 20 4V8C20 9.65685 18.6569 11 17 11H7C5.34315 11 4 9.65685 4 8V4ZM4 15C3.44772 15 3 15.4477 3 16V20C3 20.5523 3.44772 21 4 21H20C20.5523 21 21 20.5523 21 20V16C21 15.4477 20.5523 15 20 15H4ZM1 16C1 14.3431 2.34315 13 4 13H20C21.6569 13 23 14.3431 23 16V20C23 21.6569 21.6569 23 20 23H4C2.34315 23 1 21.6569 1 20V16ZM5 18C5 17.4477 5.44772 17 6 17H8C8.55228 17 9 17.4477 9 18C9 18.5523 8.55228 19 8 19H6C5.44772 19 5 18.5523 5 18ZM11 18C11 17.4477 11.4477 17 12 17H18C18.5523 17 19 17.4477 19 18C19 18.5523 18.5523 19 18 19H12C11.4477 19 11 18.5523 11 18Z" fill="black" style="fill:black;fill-opacity:1;"/>
</svg>
