<svg width="24" height="24" viewBox="0 0 24 24" fill="none" xmlns="http://www.w3.org/2000/svg">
<path fill-rule="evenodd" clip-rule="evenodd" d="M10.9378 1.31123C11.2561 1.11169 11.6243 1.00586 12 1.00586C12.3757 1.00586 12.7438 1.11169 13.0622 1.31123C13.3783 1.5094 13.6327 1.79204 13.7966 2.12714L21.742 17.9982C21.901 18.2938 22 18.6279 22 19C22 19.8519 21.4811 20.5044 20.9117 20.9531C20.331 21.4108 19.5528 21.7791 18.6802 22.07C16.9246 22.6552 14.5629 23 12 23C9.43715 23 7.07541 22.6552 5.31981 22.07C4.44724 21.7791 3.66896 21.4108 3.08829 20.9531C2.51889 20.5044 2 19.8519 2 19C2 18.6284 2.09869 18.2948 2.25723 17.9995L10.2033 2.12718C10.3672 1.79206 10.6216 1.50941 10.9378 1.31123ZM4.00998 18.9661L4.02638 18.9333C4.029 18.9287 4.03189 18.9238 4.03507 18.9186C4.07752 18.8494 4.16408 18.7455 4.32624 18.6177C4.65642 18.3575 5.19616 18.0794 5.95227 17.8274C7.45402 17.3268 9.59229 17 12 17C14.4077 17 16.546 17.3268 18.0477 17.8274C18.8038 18.0794 19.3436 18.3575 19.6738 18.6177C19.8359 18.7455 19.9225 18.8494 19.9649 18.9186C19.9679 18.9235 19.9707 18.9281 19.9732 18.9326L19.9903 18.9667C19.9935 18.9744 19.9956 18.9804 19.9969 18.9847C20 18.9948 20 18.999 20 18.9999C20 19.0002 20 19.0008 19.9999 19.0019C19.9997 19.0041 19.9991 19.0083 19.9969 19.0153C19.9935 19.0264 19.9852 19.0485 19.9649 19.0814C19.9225 19.1506 19.8359 19.2545 19.6738 19.3823C19.3436 19.6425 18.8038 19.9206 18.0477 20.1726C16.546 20.6732 14.4077 21 12 21C9.59229 21 7.45402 20.6732 5.95227 20.1726C5.19616 19.9206 4.65642 19.6425 4.32624 19.3823C4.16408 19.2545 4.07752 19.1506 4.03507 19.0814C4.01483 19.0485 4.00645 19.0264 4.00305 19.0153C3.99998 19.0052 4 19.001 4 19.0001C4 18.9992 3.99998 18.9948 4.00305 18.9847C4.00442 18.9802 4.00658 18.974 4.00998 18.9661ZM18.4297 15.8494C16.703 15.3133 14.4429 15 12 15C9.5571 15 7.29693 15.3133 5.57025 15.8494L11.9942 3.01763L11.9999 3.00596L18.4297 15.8494Z" fill="black" style="fill:black;fill-opacity:1;"/>
</svg>
