<svg width="24" height="24" viewBox="0 0 24 24" fill="none" xmlns="http://www.w3.org/2000/svg">
<path fill-rule="evenodd" clip-rule="evenodd" d="M12.435 3.01032C12.3047 2.99101 12.1719 2.99762 12.0442 3.02978L12.0402 3.03078L10.1044 3.50971C10.1038 3.50986 10.1033 3.51001 10.1027 3.51016C9.97591 3.54236 9.8567 3.59911 9.75179 3.6772C9.64638 3.75566 9.55747 3.85412 9.49014 3.96696C9.42281 4.07979 9.37838 4.2048 9.35938 4.33482C9.34039 4.46484 9.3472 4.59732 9.37944 4.72471L9.38047 4.72877L9.59003 5.57172L13.4697 4.60181L13.2599 3.76258L13.2592 3.75978C13.2276 3.63191 13.1711 3.51154 13.0928 3.40558C13.0146 3.29962 12.9162 3.21016 12.8033 3.14233C12.6904 3.0745 12.5653 3.02964 12.435 3.01032ZM15.4099 4.11674L19.7575 3.02986C20.2933 2.89591 20.8362 3.22167 20.9701 3.75746C21.1041 4.29326 20.7783 4.83619 20.2425 4.97014L4.24254 8.97014C3.70674 9.10409 3.16381 8.77833 3.02986 8.24254C2.89591 7.70674 3.22167 7.16381 3.75746 7.02986L7.64974 6.05679L7.44002 5.21321C7.34377 4.83173 7.32351 4.43503 7.38039 4.0457C7.43737 3.65564 7.57067 3.28064 7.77266 2.94213C7.97466 2.60361 8.24139 2.30823 8.5576 2.07285C8.87382 1.83748 9.23332 1.66674 9.61556 1.57038L9.61982 1.56931L11.5558 1.09031C11.5566 1.09013 11.5573 1.08994 11.558 1.08976C11.9405 0.993761 12.3382 0.974112 12.7283 1.03195C13.1191 1.08989 13.4947 1.22448 13.8334 1.42797C14.1721 1.63146 14.4672 1.89985 14.7019 2.21773C14.9362 2.5352 15.1057 2.89578 15.2005 3.27881C15.2006 3.27931 15.2007 3.27981 15.2008 3.28031L15.4099 4.11674ZM1 12C1 11.4477 1.44772 11 2 11H22C22.5523 11 23 11.4477 23 12C23 12.5523 22.5523 13 22 13H21V20C21 20.7957 20.6839 21.5587 20.1213 22.1213C19.5587 22.6839 18.7957 23 18 23H6C5.20435 23 4.44129 22.6839 3.87868 22.1213C3.31607 21.5587 3 20.7957 3 20V13H2C1.44772 13 1 12.5523 1 12ZM5 13V20C5 20.2652 5.10536 20.5196 5.29289 20.7071C5.48043 20.8946 5.73478 21 6 21H18C18.2652 21 18.5196 20.8946 18.7071 20.7071C18.8946 20.5196 19 20.2652 19 20V13H5Z" fill="black" style="fill:black;fill-opacity:1;"/>
</svg>
