<svg width="24" height="24" viewBox="0 0 24 24" fill="none" xmlns="http://www.w3.org/2000/svg">
<path fill-rule="evenodd" clip-rule="evenodd" d="M12 3C7.02944 3 3 7.02944 3 12C3 16.9706 7.02944 21 12 21C16.9706 21 21 16.9706 21 12C21 7.02944 16.9706 3 12 3ZM1 12C1 5.92487 5.92487 1 12 1C18.0751 1 23 5.92487 23 12C23 18.0751 18.0751 23 12 23C5.92487 23 1 18.0751 1 12ZM7.7905 8.19211C8.66141 7.94328 9.59256 8.01371 10.4161 8.39072C10.9183 8.6206 11.139 9.21404 10.9091 9.71621C10.6793 10.2184 10.0858 10.4391 9.58366 10.2092C9.19355 10.0307 8.75248 9.99729 8.33994 10.1152C7.92811 10.2328 7.57176 10.4935 7.33488 10.8503C7.11129 11.192 6.99219 11.5916 6.99219 12C6.99219 12.4092 7.11173 12.8094 7.33612 13.1516C7.34117 13.1593 7.34612 13.1671 7.35096 13.1749C7.5736 13.5358 7.92305 13.8004 8.33076 13.9169C8.73847 14.0334 9.17499 13.9933 9.55467 13.8046C10.0492 13.5587 10.6494 13.7602 10.8953 14.2548C11.1412 14.7493 10.9396 15.3495 10.4451 15.5954C9.61876 16.0063 8.66868 16.0935 7.78132 15.84C6.89843 15.5877 6.14104 15.0163 5.65617 14.2369C5.22291 13.5714 4.99219 12.7943 4.99219 12C4.99219 11.2011 5.22557 10.4196 5.66367 9.75159L5.66612 9.74786L5.66612 9.74786C6.16621 8.99267 6.91959 8.44094 7.7905 8.19211ZM14.7905 8.19211C15.6614 7.94328 16.5926 8.01371 17.4161 8.39072C17.9183 8.6206 18.139 9.21404 17.9091 9.71621C17.6793 10.2184 17.0858 10.4391 16.5837 10.2092C16.1935 10.0307 15.7525 9.99729 15.3399 10.1152C14.9281 10.2328 14.5718 10.4935 14.3349 10.8503C14.1113 11.192 13.9922 11.5916 13.9922 12C13.9922 12.4092 14.1117 12.8094 14.3361 13.1516C14.3412 13.1593 14.3461 13.1671 14.351 13.1749C14.5736 13.5358 14.9231 13.8004 15.3308 13.9169C15.7385 14.0334 16.175 13.9933 16.5547 13.8046C17.0492 13.5587 17.6494 13.7602 17.8953 14.2548C18.1412 14.7493 17.9396 15.3495 17.4451 15.5954C16.6188 16.0063 15.6687 16.0935 14.7813 15.84C13.8984 15.5877 13.141 15.0163 12.6562 14.2369C12.2229 13.5714 11.9922 12.7943 11.9922 12C11.9922 11.2011 12.2256 10.4196 12.6637 9.75159L12.6661 9.74786C13.1662 8.99267 13.9196 8.44094 14.7905 8.19211Z" fill="black" style="fill:black;fill-opacity:1;"/>
</svg>
