<svg width="24" height="24" viewBox="0 0 24 24" fill="none" xmlns="http://www.w3.org/2000/svg">
<path fill-rule="evenodd" clip-rule="evenodd" d="M4 4.99994L4 5V5.00027C4.00001 5.00151 4.00018 5.00585 4.00305 5.01529C4.00645 5.02644 4.01483 5.04845 4.03507 5.08143C4.07752 5.15057 4.16408 5.25453 4.32624 5.38232C4.65642 5.64253 5.19616 5.9206 5.95227 6.17264C7.45402 6.67322 9.59229 7 12 7C14.4077 7 16.546 6.67322 18.0477 6.17264C18.8038 5.9206 19.3436 5.64253 19.6738 5.38232C19.8359 5.25453 19.9225 5.15057 19.9649 5.08143C19.9852 5.04845 19.9935 5.02644 19.9969 5.01529C19.9999 5.00571 20 5.00139 20 5.00022C20 5.00016 20 5.00011 20 5.00006V5C20 4.99927 20.0001 4.99506 19.9969 4.98471C19.9935 4.97356 19.9852 4.95155 19.9649 4.91857C19.9225 4.84943 19.8359 4.74547 19.6738 4.61768C19.3436 4.35747 18.8038 4.0794 18.0477 3.82736C16.546 3.32678 14.4077 3 12 3C9.59229 3 7.45402 3.32678 5.95227 3.82736C5.19616 4.0794 4.65642 4.35747 4.32624 4.61768C4.16408 4.74547 4.07752 4.84943 4.03507 4.91857C4.01483 4.95155 4.00645 4.97356 4.00305 4.98471C3.99998 4.99479 4 4.99905 4 4.99994ZM20 7.5266C19.5988 7.73177 19.1533 7.91229 18.6802 8.07C16.9246 8.6552 14.5629 9 12 9C9.43715 9 7.07541 8.6552 5.31981 8.07C4.84666 7.91229 4.40123 7.73177 4 7.5266V19L4.00001 19.0003L4.00017 19.0016C4.00036 19.0029 4.00091 19.0059 4.00243 19.011C4.00542 19.0211 4.01311 19.042 4.03215 19.0737C4.07192 19.14 4.1544 19.2421 4.31203 19.369C4.6331 19.6274 5.1701 19.9119 5.95227 20.1726C7.51001 20.6919 9.68623 21 12 21C14.3138 21 16.49 20.6919 18.0477 20.1726C18.8299 19.9119 19.3669 19.6274 19.688 19.369C19.8456 19.2421 19.9281 19.14 19.9679 19.0737C19.9869 19.042 19.9946 19.0211 19.9976 19.011C19.9991 19.0059 19.9996 19.0029 19.9998 19.0016L20 19.0003L20 19V7.5266ZM22 5V19C22 19.8252 21.5076 20.4718 20.9419 20.9271C20.3669 21.3898 19.5858 21.7681 18.6802 22.07C16.8623 22.676 14.4601 23 12 23C9.53987 23 7.13772 22.676 5.31981 22.07C4.41415 21.7681 3.63313 21.3898 3.05814 20.9271C2.49239 20.4718 2 19.8252 2 19V5C2 4.14805 2.51889 3.49559 3.08829 3.04685C3.66896 2.58923 4.44724 2.22085 5.31981 1.93C7.07541 1.3448 9.43715 1 12 1C14.5629 1 16.9246 1.3448 18.6802 1.93C19.5528 2.22085 20.331 2.58923 20.9117 3.04685C21.4811 3.49559 22 4.14805 22 5Z" fill="black" style="fill:black;fill-opacity:1;"/>
</svg>
