<svg width="24" height="24" viewBox="0 0 24 24" fill="none" xmlns="http://www.w3.org/2000/svg">
<path fill-rule="evenodd" clip-rule="evenodd" d="M10.7575 3.5921C10.7575 3.59211 10.7575 3.5921 10.7575 3.5921L6.75754 4.5921C6.5412 4.64617 6.3491 4.77102 6.21185 4.94677C6.07463 5.12248 6.00007 5.33901 6 5.56195C6 5.5619 6 5.562 6 5.56195V19.2192L12 20.7187V4.5626C11.9999 4.41018 11.965 4.25935 11.8985 4.12331C11.8318 3.98682 11.7349 3.86731 11.6152 3.77386C11.4954 3.68041 11.3559 3.61547 11.2073 3.58398C11.0587 3.55249 10.9049 3.55527 10.7575 3.5921ZM14 5V19H17V6C17 5.73478 16.8946 5.48043 16.7071 5.29289C16.5196 5.10536 16.2652 5 16 5H14ZM22 21C22.5523 21 23 20.5523 23 20C23 19.4477 22.5523 19 22 19H19V6C19 5.20435 18.6839 4.44129 18.1213 3.87868C17.5587 3.31607 16.7956 3 16 3H13.5611C13.3733 2.69209 13.1311 2.41989 12.8455 2.19707C12.4862 1.91672 12.0678 1.72191 11.6219 1.62743C11.1761 1.53295 10.7146 1.54129 10.2725 1.6518L6.2725 2.6518C6.27249 2.6518 6.27251 2.6518 6.2725 2.6518C5.6235 2.81404 5.0473 3.18855 4.63556 3.7158C4.22381 4.24306 4.0001 4.89281 4 5.5618V19H2C1.44772 19 1 19.4477 1 20C1 20.5523 1.44772 21 2 21H4.87693L11.5155 22.6591C11.8103 22.7326 12.1184 22.7381 12.4156 22.675C12.7127 22.6119 12.9916 22.4819 13.231 22.2949C13.4705 22.1079 13.6642 21.8688 13.7974 21.5958C13.8893 21.4075 13.9508 21.2064 13.9801 21H22ZM10 11C10.5523 11 11 11.4477 11 12V12.01C11 12.5623 10.5523 13.01 10 13.01C9.44772 13.01 9 12.5623 9 12.01V12C9 11.4477 9.44772 11 10 11Z" fill="black" style="fill:black;fill-opacity:1;"/>
</svg>
