<svg width="24" height="24" viewBox="0 0 24 24" fill="none" xmlns="http://www.w3.org/2000/svg">
<path fill-rule="evenodd" clip-rule="evenodd" d="M19.643 4.40717C17.9089 2.67309 14.3428 2.87162 11.6272 5.58717L11.626 5.58838C8.9111 8.29401 8.71537 11.8663 10.4541 13.5899L10.4623 13.5979L10.4622 13.598C11.3599 14.5085 12.7364 14.8914 14.2698 14.6496C14.129 13.0611 14.8202 11.3458 16.103 10.063C17.3855 8.78044 19.1058 8.09007 20.6951 8.22949C20.9323 6.68969 20.5505 5.3147 19.643 4.40717ZM10.2136 4.17235C13.3581 1.0284 18.2315 0.167218 21.0572 2.99296C22.7971 4.73289 23.1217 7.3107 22.4082 9.69659C22.3293 9.96045 22.145 10.1801 21.8989 10.3037C21.6528 10.4273 21.3666 10.4439 21.1078 10.3497C20.157 10.0033 18.6916 10.3028 17.5172 11.4772C16.3418 12.6526 16.0437 14.108 16.3897 15.0578C16.4836 15.3156 16.4675 15.6008 16.345 15.8464C16.2225 16.092 16.0045 16.2764 15.742 16.3565C14.413 16.7621 13.0166 16.84 11.741 16.5232L10.3014 17.9628C10.3823 18.1892 10.4398 18.424 10.4728 18.6637C10.5442 19.1839 10.4977 19.7136 10.3367 20.2134C10.1756 20.7132 9.90413 21.1704 9.54237 21.5511C9.1806 21.9317 8.73782 22.2261 8.24683 22.4124C7.75583 22.5987 7.22922 22.6721 6.70601 22.6272C6.18279 22.5823 5.67639 22.4202 5.22432 22.153C4.77225 21.8857 4.38611 21.5202 4.09451 21.0835C3.93417 20.8433 3.80468 20.585 3.70837 20.3147C3.32041 20.178 2.95789 19.9732 2.63858 19.708C2.13706 19.2916 1.7622 18.743 1.55649 18.1244C1.35078 17.5058 1.32244 16.8419 1.47467 16.2081C1.62666 15.5752 1.95258 14.9975 2.41558 14.5402C2.9848 13.9727 3.73202 13.6185 4.53168 13.537C5.05044 13.4841 5.57074 13.5481 6.05572 13.72L7.50647 12.2693C6.86008 9.61677 7.94155 6.43703 10.2136 4.17235ZM8.38188 14.2223L6.96705 15.6371C6.63169 15.9725 6.10688 16.0261 5.71058 15.7656C5.42235 15.5761 5.07762 15.4917 4.73445 15.5267C4.39128 15.5617 4.07066 15.7138 3.82658 15.9576L3.82206 15.9621L3.82205 15.9621C3.62386 16.1575 3.48437 16.4045 3.41937 16.6751C3.35438 16.9457 3.36648 17.2292 3.4543 17.4933C3.54213 17.7574 3.70217 17.9916 3.91629 18.1694C4.1304 18.3472 4.39004 18.4615 4.66578 18.4993C5.1087 18.56 5.45751 18.9073 5.5201 19.35C5.55161 19.5728 5.63286 19.7857 5.75783 19.9729C5.8828 20.1601 6.04829 20.3167 6.24204 20.4313C6.43578 20.5458 6.65281 20.6152 6.87705 20.6345C7.10128 20.6537 7.32698 20.6223 7.5374 20.5424C7.74782 20.4626 7.93759 20.3365 8.09263 20.1733C8.24767 20.0102 8.36401 19.8142 8.43304 19.6C8.50206 19.3858 8.522 19.1588 8.49137 18.9358C8.46074 18.7129 8.38033 18.4997 8.2561 18.312C7.99365 17.9155 8.04664 17.3891 8.38284 17.0529L9.79309 15.6427C9.52866 15.4563 9.27741 15.2445 9.04204 15.0062C8.794 14.7599 8.57426 14.4977 8.38188 14.2223Z" fill="black" style="fill:black;fill-opacity:1;"/>
</svg>
