<svg width="24" height="24" viewBox="0 0 24 24" fill="none" xmlns="http://www.w3.org/2000/svg">
<path fill-rule="evenodd" clip-rule="evenodd" d="M3.22302 10H5.00005C5.7957 10 6.55876 10.3161 7.12137 10.8787C7.68398 11.4413 8.00005 12.2044 8.00005 13V14C8.00005 14.2652 8.10541 14.5196 8.29294 14.7071C8.48048 14.8946 8.73483 15 9.00005 15C9.7957 15 10.5588 15.3161 11.1214 15.8787C11.684 16.4413 12 17.2043 12 18V21C12.6874 21 13.3568 20.9229 14 20.777V17C14 16.2043 14.3161 15.4413 14.8787 14.8787C15.4413 14.3161 16.2043 14 17 14H20.777C20.9229 13.3568 21 12.6874 21 12C21 10.9481 20.8195 9.9384 20.4879 9.00009H18C17.4523 9.00009 17 9.45237 17 10.0001C17 10.7957 16.6839 11.5588 16.1213 12.1214C15.5587 12.684 14.7957 13.0001 14 13.0001C12.3477 13.0001 11 11.6524 11 10.0001C11 9.73487 10.8946 9.48052 10.7071 9.29298C10.5196 9.10544 10.2652 9.00009 10 9.00009C8.93913 9.00009 7.92172 8.57866 7.17157 7.82852C6.48833 7.14528 6.07779 6.24032 6.00999 5.28275C4.63841 6.5067 3.64406 8.14447 3.22302 10ZM8 3.93552V5.00009C8 5.53052 8.21071 6.03923 8.58579 6.4143C8.96086 6.78937 9.46957 7.00009 10 7.00009C10.7957 7.00009 11.5587 7.31616 12.1213 7.87877C12.6839 8.44138 13 9.20444 13 10.0001C13 10.5478 13.4523 11.0001 14 11.0001C14.2652 11.0001 14.5196 10.8947 14.7071 10.7072C14.8946 10.5197 15 10.2653 15 10.0001C15 8.3478 16.3477 7.00009 18 7.00009H19.4845C17.87 4.58807 15.1205 3 12 3C10.5632 3 9.20496 3.33671 8 3.93552ZM22.0593 7.54228C20.3488 3.68814 16.4883 1 12 1C5.92487 1 1 5.92487 1 12C1 18.0751 5.92487 23 12 23C18.0751 23 23 18.0751 23 12C23 10.4586 22.683 8.9913 22.1106 7.65967C22.0959 7.61926 22.0788 7.58007 22.0593 7.54228ZM20.0645 16H17C16.7348 16 16.4804 16.1054 16.2929 16.2929C16.1054 16.4804 16 16.7348 16 17V20.0645C17.7585 19.1906 19.1906 17.7585 20.0645 16ZM10 20.777C5.99205 19.8676 3 16.2832 3 12H5.00005C5.26526 12 5.51962 12.1054 5.70716 12.2929C5.89469 12.4804 6.00005 12.7348 6.00005 13V14C6.00005 14.7957 6.31612 15.5587 6.87873 16.1213C7.44134 16.6839 8.2044 17 9.00005 17C9.26526 17 9.51962 17.1054 9.70716 17.2929C9.89469 17.4804 10 17.7348 10 18V20.777Z" fill="black" style="fill:black;fill-opacity:1;"/>
</svg>
