<svg width="24" height="24" viewBox="0 0 24 24" fill="none" xmlns="http://www.w3.org/2000/svg">
<path fill-rule="evenodd" clip-rule="evenodd" d="M13.3725 3.01225C12.7362 2.97169 12.0948 3.05105 11.4826 3.24946C10.5493 3.55188 9.72359 4.11794 9.10498 4.87932C8.48637 5.64069 8.10135 6.56484 7.99639 7.54022C7.89143 8.5156 8.07102 9.5005 8.51348 10.3761C8.69134 10.728 8.64575 11.1516 8.39707 11.4577C8.1484 11.7637 7.74308 11.8951 7.36217 11.793L3.01212 10.6275C2.97156 11.2639 3.05093 11.9052 3.24934 12.5175C3.55175 13.4507 4.11782 14.2765 4.87919 14.8951C5.64057 15.5137 6.56472 15.8987 7.5401 16.0037C8.51547 16.1086 9.50038 15.929 10.3759 15.4866C10.7279 15.3087 11.1515 15.3543 11.4576 15.603C11.7636 15.8517 11.895 16.257 11.7929 16.6379L10.6274 20.9879C11.2637 21.0285 11.9051 20.9491 12.5174 20.7507C13.4506 20.4483 14.2763 19.8822 14.895 19.1209C15.5136 18.3595 15.8986 17.4353 16.0035 16.46C16.1085 15.4846 15.9289 14.4997 15.4865 13.6241C15.3086 13.2722 15.3542 12.8485 15.6029 12.5425C15.8515 12.2364 16.2569 12.1051 16.6378 12.2072L20.9878 13.3726C21.0284 12.7363 20.949 12.095 20.7506 11.4827C20.4482 10.5495 19.8821 9.72371 19.1207 9.1051C18.3594 8.48649 17.4352 8.10147 16.4598 7.99651C15.4845 7.89155 14.4996 8.07114 13.624 8.5136C13.272 8.69146 12.8484 8.64587 12.5424 8.39719C12.2363 8.14852 12.105 7.7432 12.207 7.36229L13.3725 3.01225ZM10.866 1.34686C12.1665 0.925429 13.5612 0.889407 14.8817 1.24314C15.1379 1.31177 15.3563 1.47936 15.489 1.70905C15.6216 1.93873 15.6575 2.2117 15.5889 2.46788L14.6192 6.0871C15.2931 5.96157 15.9852 5.93389 16.6738 6.00799C18.033 6.15426 19.3209 6.6908 20.3819 7.55286C21.4429 8.41492 22.2318 9.56565 22.6532 10.8661C23.0746 12.1666 23.1106 13.5613 22.7569 14.8818C22.6883 15.138 22.5207 15.3565 22.291 15.4891C22.0613 15.6217 21.7884 15.6577 21.5322 15.589L17.913 14.6193C18.0385 15.2933 18.0662 15.9853 17.9921 16.6739C17.8458 18.0332 17.3092 19.321 16.4472 20.382C15.5851 21.443 14.4344 22.2319 13.1339 22.6533C11.8334 23.0747 10.4387 23.1108 9.11821 22.757C8.86202 22.6884 8.64359 22.5208 8.51096 22.2911C8.37834 22.0614 8.34239 21.7885 8.41103 21.5323L9.3807 17.9131C8.70679 18.0386 8.01475 18.0663 7.32611 17.9922C5.96688 17.8459 4.67904 17.3094 3.61802 16.4473C2.55701 15.5853 1.76818 14.4345 1.34674 13.134C0.925307 11.8335 0.889285 10.4389 1.24302 9.11833C1.31165 8.86214 1.47924 8.64371 1.70893 8.51109C1.93861 8.37846 2.21157 8.34252 2.46776 8.41116L6.08698 9.38083C5.96144 8.70692 5.93377 8.01487 6.00787 7.32624C6.15414 5.96701 6.69068 4.67916 7.55274 3.61814C8.4148 2.55713 9.56553 1.7683 10.866 1.34686ZM12 11C12.5523 11 13 11.4477 13 12V12.01C13 12.5623 12.5523 13.01 12 13.01C11.4477 13.01 11 12.5623 11 12.01V12C11 11.4477 11.4477 11 12 11Z" fill="black" style="fill:black;fill-opacity:1;"/>
</svg>
