<svg width="24" height="24" viewBox="0 0 24 24" fill="none" xmlns="http://www.w3.org/2000/svg">
<path fill-rule="evenodd" clip-rule="evenodd" d="M3.87868 1.87868C4.44129 1.31607 5.20435 1 6 1H15C15.2652 1 15.5196 1.10536 15.7071 1.29289L20.7071 6.29289C20.8946 6.48043 21 6.73478 21 7V16.9991C21 16.9997 21 17.0004 21 17.001V20C21 20.7957 20.6839 21.5587 20.1213 22.1213C19.5587 22.6839 18.7957 23 18 23H9.0086C9.00287 23 8.99713 23 8.9914 23H6C5.20435 23 4.44129 22.6839 3.87868 22.1213C3.31607 21.5587 3 20.7957 3 20V4C3 3.20435 3.31607 2.44129 3.87868 1.87868ZM11.4142 21H18C18.2652 21 18.5196 20.8946 18.7071 20.7071C18.8946 20.5196 19 20.2652 19 20V17.4142L17.9969 16.4112C17.7325 16.1468 17.3739 15.9983 17 15.9983C16.6261 15.9983 16.2675 16.1468 16.0031 16.4112L11.4142 21ZM19 14.6464C18.4219 14.2278 17.7228 13.9983 17 13.9983C16.0957 13.9983 15.2284 14.3575 14.5889 14.9969L8.58582 21H6C5.73478 21 5.48043 20.8946 5.29289 20.7071C5.10536 20.5196 5 20.2652 5 20V4C5 3.73478 5.10536 3.48043 5.29289 3.29289C5.48043 3.10536 5.73478 3 6 3H13V6C13 6.79565 13.3161 7.55871 13.8787 8.12132C14.4413 8.68393 15.2044 9 16 9H19V14.6464ZM18.5858 7H16C15.7348 7 15.4804 6.89464 15.2929 6.70711C15.1054 6.51957 15 6.26522 15 6V3.41421L18.5858 7ZM10 11C9.44772 11 9 11.4477 9 12C9 12.5523 9.44772 13 10 13C10.5523 13 11 12.5523 11 12C11 11.4477 10.5523 11 10 11ZM7 12C7 10.3431 8.34315 9 10 9C11.6569 9 13 10.3431 13 12C13 13.6569 11.6569 15 10 15C8.34315 15 7 13.6569 7 12Z" fill="black" style="fill:black;fill-opacity:1;"/>
</svg>
