<svg width="24" height="24" viewBox="0 0 24 24" fill="none" xmlns="http://www.w3.org/2000/svg">
<path fill-rule="evenodd" clip-rule="evenodd" d="M6 3C5.73478 3 5.48043 3.10536 5.29289 3.29289C5.10536 3.48043 5 3.73478 5 4V7C5 7.55228 4.55228 8 4 8C3.44772 8 3 7.55228 3 7V4C3 3.20435 3.31607 2.44129 3.87868 1.87868C4.44129 1.31607 5.20435 1 6 1H15C15.2652 1 15.5196 1.10536 15.7071 1.29289L20.7071 6.29289C20.8946 6.48043 21 6.73478 21 7V7.99516C21 7.99678 21 7.99839 21 8C21 8.00161 21 8.00322 21 8.00484V20C21 20.7957 20.6839 21.5587 20.1213 22.1213C19.5587 22.6839 18.7956 23 18 23L6.12123 22.999C5.55167 23.0595 4.97615 22.9556 4.46297 22.699C3.92847 22.4318 3.48596 22.011 3.19218 21.4906C2.92066 21.0097 3.09043 20.3997 3.57137 20.1282C4.0523 19.8567 4.66228 20.0264 4.9338 20.5074C5.03173 20.6808 5.17923 20.8211 5.35739 20.9102C5.53556 20.9993 5.73627 21.0331 5.9338 21.0074C5.97666 21.0018 6.01985 20.999 6.06307 20.999L18 21C18 21 18 21 18 21C18.2652 21 18.5196 20.8946 18.7071 20.7071C18.8946 20.5196 19 20.2652 19 20V9H16C15.2044 9 14.4413 8.68393 13.8787 8.12132C13.3161 7.55871 13 6.79565 13 6V3H6ZM15 3.41422V6C15 6.26522 15.1054 6.51957 15.2929 6.70711C15.4804 6.89464 15.7348 7 16 7H18.5858L15 3.41422ZM5.70711 10.2929C6.09763 10.6834 6.09763 11.3166 5.70711 11.7071L4.41421 13H12C12.5523 13 13 13.4477 13 14C13 14.5523 12.5523 15 12 15H4.41421L5.70711 16.2929C6.09763 16.6834 6.09763 17.3166 5.70711 17.7071C5.31658 18.0976 4.68342 18.0976 4.29289 17.7071L1.29289 14.7071C0.902369 14.3166 0.902369 13.6834 1.29289 13.2929L4.29289 10.2929C4.68342 9.90237 5.31658 9.90237 5.70711 10.2929Z" fill="black" style="fill:black;fill-opacity:1;"/>
</svg>
