<svg width="24" height="24" viewBox="0 0 24 24" fill="none" xmlns="http://www.w3.org/2000/svg">
<path fill-rule="evenodd" clip-rule="evenodd" d="M3.87868 1.87868C4.44129 1.31607 5.20435 1 6 1H15C15.2652 1 15.5196 1.10536 15.7071 1.29289L18.7071 4.29289C19.0976 4.68342 19.0976 5.31658 18.7071 5.70711C18.3166 6.09763 17.6834 6.09763 17.2929 5.70711L14.5858 3H6C5.73478 3 5.48043 3.10536 5.29289 3.29289C5.10536 3.48043 5 3.73478 5 4V20C5 20.2652 5.10536 20.5196 5.29289 20.7071C5.48043 20.8946 5.73478 21 6 21H18C18.2652 21 18.5196 20.8946 18.7071 20.7071C18.8946 20.5196 19 20.2652 19 20C19 19.4477 19.4477 19 20 19C20.5523 19 21 19.4477 21 20C21 20.7957 20.6839 21.5587 20.1213 22.1213C19.5587 22.6839 18.7957 23 18 23H6C5.20435 23 4.44129 22.6839 3.87868 22.1213C3.31607 21.5587 3 20.7957 3 20V4C3 3.20435 3.31607 2.44129 3.87868 1.87868ZM19.9 9.97876C19.6026 9.97876 19.3174 10.0969 19.1071 10.3072L14.903 14.5113L14.3744 16.6257L16.4888 16.0971L20.6929 11.893C20.9032 11.6827 21.0213 11.3975 21.0213 11.1001C21.0213 10.8027 20.9032 10.5175 20.6929 10.3072C20.4826 10.0969 20.1974 9.97876 19.9 9.97876ZM17.6929 8.89297C18.2783 8.30761 19.0722 7.97876 19.9 7.97876C20.7278 7.97876 21.5217 8.30761 22.1071 8.89297C22.6925 9.47833 23.0213 10.2723 23.0213 11.1001C23.0213 11.9279 22.6925 12.7218 22.1071 13.3072L17.7071 17.7072C17.5789 17.8353 17.4184 17.9263 17.2425 17.9702L13.2425 18.9702C12.9018 19.0554 12.5413 18.9556 12.2929 18.7072C12.0445 18.4588 11.9447 18.0983 12.0299 17.7575L13.0299 13.7575C13.0738 13.5817 13.1647 13.4211 13.2929 13.293L17.6929 8.89297ZM7 18C7 17.4477 7.44772 17 8 17H9C9.55228 17 10 17.4477 10 18C10 18.5523 9.55228 19 9 19H8C7.44772 19 7 18.5523 7 18Z" fill="black" style="fill:black;fill-opacity:1;"/>
</svg>
