<svg width="24" height="24" viewBox="0 0 24 24" fill="none" xmlns="http://www.w3.org/2000/svg">
<path fill-rule="evenodd" clip-rule="evenodd" d="M3.87868 1.87868C4.44129 1.31607 5.20435 1 6 1H15C15.2652 1 15.5196 1.10536 15.7071 1.29289L20.7071 6.29289C20.8946 6.48043 21 6.73478 21 7V20C21 20.7957 20.6839 21.5587 20.1213 22.1213C19.5587 22.6839 18.7957 23 18 23H4C3.44772 23 3 22.5523 3 22C3 21.4477 3.44772 21 4 21H18C18.2652 21 18.5196 20.8946 18.7071 20.7071C18.8946 20.5196 19 20.2652 19 20V9H16C15.2044 9 14.4413 8.68393 13.8787 8.12132C13.3161 7.55871 13 6.79565 13 6V3H6C5.73478 3 5.48043 3.10536 5.29289 3.29289C5.10536 3.48043 5 3.73478 5 4V8C5 8.55228 4.55228 9 4 9C3.44772 9 3 8.55228 3 8V4C3 3.20435 3.31607 2.44129 3.87868 1.87868ZM15 3.41421V6C15 6.26522 15.1054 6.51957 15.2929 6.70711C15.4804 6.89464 15.7348 7 16 7H18.5858L15 3.41421ZM5.70711 11.2929C6.09763 11.6834 6.09763 12.3166 5.70711 12.7071L3.41421 15L5.70711 17.2929C6.09763 17.6834 6.09763 18.3166 5.70711 18.7071C5.31658 19.0976 4.68342 19.0976 4.29289 18.7071L1.29289 15.7071C0.902369 15.3166 0.902369 14.6834 1.29289 14.2929L4.29289 11.2929C4.68342 10.9024 5.31658 10.9024 5.70711 11.2929ZM8.29289 11.2929C8.68342 10.9024 9.31658 10.9024 9.70711 11.2929L12.7071 14.2929C13.0976 14.6834 13.0976 15.3166 12.7071 15.7071L9.70711 18.7071C9.31658 19.0976 8.68342 19.0976 8.29289 18.7071C7.90237 18.3166 7.90237 17.6834 8.29289 17.2929L10.5858 15L8.29289 12.7071C7.90237 12.3166 7.90237 11.6834 8.29289 11.2929Z" fill="black" style="fill:black;fill-opacity:1;"/>
</svg>
