<svg width="24" height="24" viewBox="0 0 24 24" fill="none" xmlns="http://www.w3.org/2000/svg">
<path fill-rule="evenodd" clip-rule="evenodd" d="M2.85719 16.515L2.85741 16.5147L2.85752 16.5145L2.86054 16.5095L2.87641 16.4837C2.89124 16.4598 2.91452 16.4226 2.94603 16.3733C3.00907 16.2748 3.10494 16.1284 3.23191 15.944C3.48611 15.5748 3.86356 15.0551 4.35037 14.4635C4.62984 14.1238 4.94326 13.763 5.28798 13.3949C5.90726 13.9428 6.5889 14.4779 7.327 14.9615C9.25588 16.2252 11.6233 17.1709 14.2931 17.0139C16.9788 16.8559 19.8235 15.5908 22.7071 12.7071C23.0977 12.3166 23.0977 11.6834 22.7071 11.2929C19.8235 8.40922 16.9788 7.14407 14.2931 6.98609C11.6233 6.82904 9.25588 7.77479 7.327 9.03853C6.5889 9.52212 5.90726 10.0571 5.28798 10.6051C4.94326 10.237 4.62984 9.87617 4.35037 9.5365C3.86356 8.94485 3.48611 8.42523 3.23191 8.05598C3.10494 7.87154 3.00907 7.72514 2.94603 7.62666C2.91452 7.57743 2.89124 7.54022 2.87641 7.51627L2.86054 7.49046L2.85741 7.48531C2.85727 7.48507 2.85716 7.4849 2.85711 7.48481C2.57278 7.01177 1.95888 6.85849 1.48553 7.1425C1.01195 7.42665 0.858388 8.04091 1.14254 8.51449L2.00003 7.99999C1.14254 8.51449 1.14279 8.51491 1.14307 8.51538L1.14382 8.51662L1.14593 8.52013L1.15265 8.53119L1.17596 8.56911C1.19586 8.60125 1.22446 8.64692 1.26155 8.70487C1.33572 8.82074 1.44395 8.98586 1.58455 9.1901C1.86551 9.5982 2.27712 10.1645 2.80594 10.8072C3.11421 11.1819 3.4645 11.5852 3.85418 12C3.4645 12.4148 3.11421 12.8181 2.80594 13.1928C2.27712 13.8355 1.86551 14.4018 1.58455 14.8099C1.44395 15.0141 1.33572 15.1792 1.26155 15.2951C1.22446 15.3531 1.19586 15.3987 1.17596 15.4309L1.15265 15.4688L1.14593 15.4799L1.14382 15.4834L1.14307 15.4846C1.14279 15.4851 1.14254 15.4855 2.00003 16L1.14254 15.4855C0.858388 15.9591 1.01195 16.5733 1.48553 16.8575C1.95893 17.1415 2.5729 16.9882 2.85719 16.515ZM6.73067 12C7.25307 12.4542 7.81891 12.8927 8.42306 13.2885C10.1192 14.3998 12.0643 15.1415 14.1757 15.0173C16.0707 14.9059 18.219 14.0899 20.5475 12C18.219 9.91013 16.0707 9.09411 14.1757 8.98264C12.0643 8.85844 10.1192 9.6002 8.42306 10.7115C7.81891 11.1073 7.25307 11.5457 6.73067 12Z" fill="black" style="fill:black;fill-opacity:1;"/>
</svg>
