<svg width="24" height="24" viewBox="0 0 24 24" fill="none" xmlns="http://www.w3.org/2000/svg">
<g clip-path="url(#clip0_168_1994)">
<path d="M12 22.5C10.94 22.5 9.91 22.29 8.94 21.89C7.96 21.48 7.09 20.9 6.34 20.16C5.59 19.41 5.01 18.54 4.61 17.56C4.21 16.58 4 15.56 4 14.5C4 13.2 4.47 11.81 5.22 10.87C5.49 10.54 5.93 10.41 6.33 10.55C6.73 10.69 7 11.07 7 11.49C7 11.89 7.16 12.27 7.44 12.55C8.01 13.12 8.99 13.12 9.56 12.55C9.84 12.27 10 11.89 10 11.49C10 10.61 9.76 10.16 9.39 9.48C9.3 9.31 9.2 9.13 9.1 8.94C7.87 6.49 8.6 4.13 11.34 1.74C11.61 1.51 11.98 1.43 12.32 1.55C12.66 1.67 12.91 1.95 12.98 2.3C13.43 4.54 14.79 6.75 16.62 8.22C18.83 9.99 20 12.16 20 14.5C20 15.56 19.79 16.59 19.39 17.56C18.99 18.54 18.4 19.41 17.66 20.16C16.91 20.91 16.04 21.49 15.06 21.89C14.08 22.29 13.05 22.5 12 22.5ZM6.04 13.98C6.02 14.15 6 14.32 6 14.49C6 15.28 6.15 16.05 6.46 16.79C6.76 17.52 7.2 18.18 7.76 18.74C8.32 19.3 8.97 19.74 9.71 20.04C11.17 20.65 12.84 20.65 14.3 20.04C15.03 19.74 15.69 19.3 16.25 18.74C16.81 18.18 17.25 17.52 17.55 16.79C17.85 16.06 18.01 15.29 18.01 14.49C18.01 12.78 17.1 11.15 15.39 9.77C13.67 8.39 12.3 6.47 11.53 4.4C10.22 6 10.46 7.13 10.91 8.04C11 8.21 11.08 8.38 11.17 8.53C11.59 9.3 12.02 10.11 12.02 11.48C12.02 12.41 11.66 13.29 10.99 13.95C9.67 15.27 7.38 15.27 6.05 13.96L6.04 13.98Z" fill="black" style="fill:black;fill-opacity:1;"/>
</g>
<defs>
<clipPath id="clip0_168_1994">
<rect width="16" height="21" fill="white" style="fill:white;fill-opacity:1;" transform="translate(4 1.5)"/>
</clipPath>
</defs>
</svg>
