<svg width="24" height="24" viewBox="0 0 24 24" fill="none" xmlns="http://www.w3.org/2000/svg">
<path fill-rule="evenodd" clip-rule="evenodd" d="M4 7C3.44772 7 3 7.44772 3 8V16C3 16.5523 3.44772 17 4 17H20C20.5523 17 21 16.5523 21 16V8C21 7.44771 20.5523 7 20 7H4ZM1 8C1 6.34315 2.34315 5 4 5H20C21.6569 5 23 6.34315 23 8V16C23 17.6569 21.6569 19 20 19H4C2.34315 19 1 17.6569 1 16V8ZM6 12C6 11.4477 6.44772 11 7 11H7.01C7.56228 11 8.01 11.4477 8.01 12C8.01 12.5523 7.56228 13 7.01 13H7C6.44772 13 6 12.5523 6 12ZM11 12C11 11.4477 11.4477 11 12 11H12.01C12.5623 11 13.01 11.4477 13.01 12C13.01 12.5523 12.5623 13 12.01 13H12C11.4477 13 11 12.5523 11 12ZM16 12C16 11.4477 16.4477 11 17 11H17.01C17.5623 11 18.01 11.4477 18.01 12C18.01 12.5523 17.5623 13 17.01 13H17C16.4477 13 16 12.5523 16 12Z" fill="black" style="fill:black;fill-opacity:1;"/>
</svg>
