<svg width="24" height="24" viewBox="0 0 24 24" fill="none" xmlns="http://www.w3.org/2000/svg">
<path fill-rule="evenodd" clip-rule="evenodd" d="M2 2C2 1.44772 2.44772 1 3 1H21C21.5523 1 22 1.44772 22 2C22 2.55228 21.5523 3 21 3H3C2.44772 3 2 2.55228 2 2ZM5 7C4.44772 7 4 7.44772 4 8V16C4 16.5523 4.44772 17 5 17H19C19.5523 17 20 16.5523 20 16V8C20 7.44771 19.5523 7 19 7H5ZM2 8C2 6.34315 3.34315 5 5 5H19C20.6569 5 22 6.34315 22 8V16C22 17.6569 20.6569 19 19 19H5C3.34315 19 2 17.6569 2 16V8ZM2 22C2 21.4477 2.44772 21 3 21H21C21.5523 21 22 21.4477 22 22C22 22.5523 21.5523 23 21 23H3C2.44772 23 2 22.5523 2 22Z" fill="black" style="fill:black;fill-opacity:1;"/>
</svg>
