<svg width="24" height="24" viewBox="0 0 24 24" fill="none" xmlns="http://www.w3.org/2000/svg">
<path fill-rule="evenodd" clip-rule="evenodd" d="M5 4C3.89543 4 3 4.89543 3 6C3 7.10457 3.89543 8 5 8C6.10457 8 7 7.10457 7 6C7 4.89543 6.10457 4 5 4ZM1 6C1 3.79086 2.79086 2 5 2C7.20914 2 9 3.79086 9 6C9 7.86384 7.72523 9.42994 6 9.87398V21C6 21.5523 5.55228 22 5 22C4.44772 22 4 21.5523 4 21V9.87398C2.27477 9.42994 1 7.86384 1 6ZM15.7071 2.29289C16.0976 2.68342 16.0976 3.31658 15.7071 3.70711L14.4142 5H17C17.7957 5 18.5587 5.31607 19.1213 5.87868C19.6839 6.44129 20 7.20435 20 8V11C20 11.5523 19.5523 12 19 12C18.4477 12 18 11.5523 18 11V8C18 7.73478 17.8946 7.48043 17.7071 7.29289C17.5196 7.10536 17.2652 7 17 7H14.4142L15.7071 8.29289C16.0976 8.68342 16.0976 9.31658 15.7071 9.70711C15.3166 10.0976 14.6834 10.0976 14.2929 9.70711L11.2929 6.70711C10.9024 6.31658 10.9024 5.68342 11.2929 5.29289L14.2929 2.29289C14.6834 1.90237 15.3166 1.90237 15.7071 2.29289ZM19 14C19.5523 14 20 14.4477 20 15V17H22C22.5523 17 23 17.4477 23 18C23 18.5523 22.5523 19 22 19H20V21C20 21.5523 19.5523 22 19 22C18.4477 22 18 21.5523 18 21V19H16C15.4477 19 15 18.5523 15 18C15 17.4477 15.4477 17 16 17H18V15C18 14.4477 18.4477 14 19 14Z" fill="black" style="fill:black;fill-opacity:1;"/>
</svg>
