<svg width="24" height="24" viewBox="0 0 24 24" fill="none" xmlns="http://www.w3.org/2000/svg">
<path fill-rule="evenodd" clip-rule="evenodd" d="M6 3C4.89543 3 4 3.89543 4 5C4 6.10457 4.89543 7 6 7C7.10457 7 8 6.10457 8 5C8 3.89543 7.10457 3 6 3ZM2 5C2 2.79086 3.79086 1 6 1C8.20914 1 10 2.79086 10 5C10 7.20914 8.20914 9 6 9C3.79086 9 2 7.20914 2 5ZM16.0001 7.1001C14.9508 7.1001 14.1001 7.95076 14.1001 9.0001C14.1001 10.0494 14.9508 10.9001 16.0001 10.9001C16.4493 10.9001 16.862 10.7442 17.1873 10.4836L17.3911 10.2943C17.7069 9.95508 17.9001 9.50014 17.9001 9.0001C17.9001 7.95076 17.0494 7.1001 16.0001 7.1001ZM19.8997 8.94573C19.8706 6.81688 18.1359 5.1001 16.0001 5.1001C13.8462 5.1001 12.1001 6.84619 12.1001 9.0001C12.1001 9.34574 12.1451 9.68089 12.2295 10H10C9.21591 10 8.40018 10.2574 7.85592 10.9283L3.01274 15.5985L2.70711 15.2929C2.31658 14.9024 1.68342 14.9024 1.29289 15.2929C0.902369 15.6834 0.902369 16.3166 1.29289 16.7071L2.29125 17.7055C2.29251 17.7067 2.29378 17.708 2.29504 17.7093L6.28603 21.7002C6.29104 21.7054 6.29609 21.7104 6.30118 21.7154L7.29289 22.7071C7.68342 23.0976 8.31658 23.0976 8.70711 22.7071C9.09763 22.3166 9.09763 21.6834 8.70711 21.2929L8.46294 21.0487L9.2585 20.3526C9.31085 20.3068 9.35827 20.2557 9.4 20.2C9.45673 20.1244 9.61143 20 10 20H14C15.3317 20 16.6078 19.516 17.5213 18.4939L22.0868 14.1268C22.0876 14.1261 22.0884 14.1253 22.0892 14.1246C22.6664 13.5779 23.0032 12.8246 23.0257 12.0299C23.0482 11.234 22.7536 10.4618 22.2068 9.88318C21.66 9.30453 20.9057 8.96681 20.1098 8.94431C20.0396 8.94233 19.9695 8.94282 19.8997 8.94573ZM18.5036 11.9907C18.6056 11.9051 18.7032 11.8145 18.796 11.7191L19.3305 11.2228L19.3368 11.2168C19.53 11.0343 19.7877 10.936 20.0533 10.9435C20.3189 10.951 20.5707 11.0637 20.7532 11.2569C20.9357 11.45 21.034 11.7077 21.0265 11.9733C21.019 12.239 20.9063 12.4907 20.7132 12.6732L16.1088 17.0774C16.0874 17.0978 16.0669 17.1192 16.0474 17.1415C15.563 17.6952 14.8531 18 14 18H10C9.22428 18 8.41759 18.2519 7.87344 18.907L7.04559 19.6314L4.42719 17.013L9.29414 12.3198C9.33257 12.2828 9.36797 12.2427 9.4 12.2C9.45673 12.1244 9.61142 12 10 12H13C13.2652 12 13.5196 12.1054 13.7071 12.2929C13.8946 12.4804 14 12.7348 14 13C14 13.2652 13.8946 13.5196 13.7071 13.7071C13.5196 13.8946 13.2652 14 13 14H11C10.4477 14 10 14.4477 10 15C10 15.5523 10.4477 16 11 16H13C13.763 16 14.496 15.7093 15.051 15.1893C15.0783 15.1688 15.1049 15.1466 15.1305 15.1228L18.5036 11.9907Z" fill="black" style="fill:black;fill-opacity:1;"/>
</svg>
