<svg width="24" height="24" viewBox="0 0 24 24" fill="none" xmlns="http://www.w3.org/2000/svg">
<path fill-rule="evenodd" clip-rule="evenodd" d="M12 1C12.5523 1 13 1.44772 13 2V7.58579L15.2929 5.29289C15.6834 4.90237 16.3166 4.90237 16.7071 5.29289C17.0976 5.68342 17.0976 6.31658 16.7071 6.70711L12.7071 10.7071C12.3166 11.0976 11.6834 11.0976 11.2929 10.7071L7.29289 6.70711C6.90237 6.31658 6.90237 5.68342 7.29289 5.29289C7.68342 4.90237 8.31658 4.90237 8.70711 5.29289L11 7.58579V2C11 1.44772 11.4477 1 12 1ZM4 15C3.44772 15 3 15.4477 3 16V20C3 20.5523 3.44772 21 4 21H20C20.5523 21 21 20.5523 21 20V16C21 15.4477 20.5523 15 20 15H4ZM1 16C1 14.3431 2.34315 13 4 13H20C21.6569 13 23 14.3431 23 16V20C23 21.6569 21.6569 23 20 23H4C2.34315 23 1 21.6569 1 20V16ZM5 18C5 17.4477 5.44772 17 6 17H6.01C6.56228 17 7.01 17.4477 7.01 18C7.01 18.5523 6.56228 19 6.01 19H6C5.44772 19 5 18.5523 5 18ZM9 18C9 17.4477 9.44772 17 10 17H10.01C10.5623 17 11.01 17.4477 11.01 18C11.01 18.5523 10.5623 19 10.01 19H10C9.44772 19 9 18.5523 9 18Z" fill="black" style="fill:black;fill-opacity:1;"/>
</svg>
