<svg width="24" height="24" viewBox="0 0 24 24" fill="none" xmlns="http://www.w3.org/2000/svg">
<path fill-rule="evenodd" clip-rule="evenodd" d="M9.58579 3.58579C9.96086 3.21071 10.4696 3 11 3H13C13.5304 3 14.0391 3.21071 14.4142 3.58579C14.7893 3.96086 15 4.46957 15 5V5.07177C16.4868 5.28635 17.875 5.97552 18.9497 7.05025C20.2625 8.36301 21 10.1435 21 12V14C21.5304 14 22.0391 14.2107 22.4142 14.5858C22.7893 14.9609 23 15.4696 23 16V18C23 18.5304 22.7893 19.0391 22.4142 19.4142C22.0391 19.7893 21.5304 20 21 20H3C2.46957 20 1.96086 19.7893 1.58579 19.4142C1.21071 19.0391 1 18.5304 1 18V16C1 15.4696 1.21071 14.9609 1.58579 14.5858C1.96086 14.2107 2.46957 14 3 14V12C3 10.1435 3.7375 8.36301 5.05025 7.05025C6.12499 5.97552 7.51321 5.28635 9 5.07177V5C9 4.46957 9.21071 3.96086 9.58579 3.58579ZM9 7.101V10C9 10.5523 9.44772 11 10 11C10.5523 11 11 10.5523 11 10V5L13 5V10C13 10.5523 13.4477 11 14 11C14.5523 11 15 10.5523 15 10V7.101C15.9534 7.29564 16.8372 7.76608 17.5355 8.46447C18.4732 9.40215 19 10.6739 19 12V14H5V12C5 10.6739 5.52678 9.40215 6.46447 8.46447C7.16285 7.76608 8.04656 7.29564 9 7.101ZM3 16V18H21V16H3Z" fill="black" style="fill:black;fill-opacity:1;"/>
</svg>
