<svg width="24" height="24" viewBox="0 0 24 24" fill="none" xmlns="http://www.w3.org/2000/svg">
<path fill-rule="evenodd" clip-rule="evenodd" d="M12 3C10.9494 3 9.90914 3.20693 8.93853 3.60896C7.96793 4.011 7.08601 4.60028 6.34315 5.34315C5.60028 6.08601 5.011 6.96793 4.60896 7.93853C4.33513 8.59962 4.15182 9.29303 4.06275 10H6C6.79565 10 7.55871 10.3161 8.12132 10.8787C8.68393 11.4413 9 12.2044 9 13V16C9 16.7956 8.68393 17.5587 8.12132 18.1213C7.55871 18.6839 6.79565 19 6 19H5C4.20435 19 3.44129 18.6839 2.87868 18.1213C2.31607 17.5587 2 16.7956 2 16V11C2 9.68678 2.25866 8.38642 2.7612 7.17317C3.26375 5.95991 4.00035 4.85752 4.92893 3.92893C5.85752 3.00035 6.95991 2.26375 8.17317 1.7612C9.38642 1.25866 10.6868 1 12 1C13.3132 1 14.6136 1.25866 15.8268 1.7612C17.0401 2.26375 18.1425 3.00035 19.0711 3.92893C19.9997 4.85752 20.7362 5.95991 21.2388 7.17317C21.7413 8.38642 22 9.68678 22 11V18C22 19.3261 21.4732 20.5979 20.5355 21.5355C19.5979 22.4732 18.3261 23 17 23H12C11.4477 23 11 22.5523 11 22C11 21.4477 11.4477 21 12 21H17C17.7956 21 18.5587 20.6839 19.1213 20.1213C19.4734 19.7693 19.7289 19.3387 19.8708 18.8708C19.591 18.9557 19.2978 19 19 19H18C17.2043 19 16.4413 18.6839 15.8787 18.1213C15.3161 17.5587 15 16.7957 15 16V13C15 12.2043 15.3161 11.4413 15.8787 10.8787C16.4413 10.3161 17.2043 10 18 10H19.9373C19.8482 9.29303 19.6649 8.59962 19.391 7.93853C18.989 6.96793 18.3997 6.08601 17.6569 5.34315C16.914 4.60028 16.0321 4.011 15.0615 3.60896C14.0909 3.20693 13.0506 3 12 3ZM20 12H18C17.7348 12 17.4804 12.1054 17.2929 12.2929C17.1054 12.4804 17 12.7348 17 13V16C17 16.2652 17.1054 16.5196 17.2929 16.7071C17.4804 16.8946 17.7348 17 18 17H19C19.2652 17 19.5196 16.8946 19.7071 16.7071C19.8946 16.5196 20 16.2652 20 16V12ZM4 12V16C4 16.2652 4.10536 16.5196 4.29289 16.7071C4.48043 16.8946 4.73478 17 5 17H6C6.26522 17 6.51957 16.8946 6.70711 16.7071C6.89464 16.5196 7 16.2652 7 16V13C7 12.7348 6.89464 12.4804 6.70711 12.2929C6.51957 12.1054 6.26522 12 6 12H4Z" fill="black" style="fill:black;fill-opacity:1;"/>
</svg>
