<svg width="24" height="24" viewBox="0 0 24 24" fill="none" xmlns="http://www.w3.org/2000/svg">
<path fill-rule="evenodd" clip-rule="evenodd" d="M12 2C12.5523 2 13 2.44772 13 3V12.5858L15.2929 10.2929C15.6834 9.90237 16.3166 9.90237 16.7071 10.2929C17.0976 10.6834 17.0976 11.3166 16.7071 11.7071L12.7071 15.7071C12.3166 16.0976 11.6834 16.0976 11.2929 15.7071L7.29289 11.7071C6.90237 11.3166 6.90237 10.6834 7.29289 10.2929C7.68342 9.90237 8.31658 9.90237 8.70711 10.2929L11 12.5858V3C11 2.44772 11.4477 2 12 2ZM1.87868 4.87868C2.44129 4.31607 3.20435 4 4 4H8C8.55228 4 9 4.44772 9 5C9 5.55228 8.55228 6 8 6H4C3.73478 6 3.48043 6.10536 3.29289 6.29289C3.10536 6.48043 3 6.73478 3 7V17C3 17.2652 3.10536 17.5196 3.29289 17.7071C3.48043 17.8946 3.73478 18 4 18H20C20.2652 18 20.5196 17.8946 20.7071 17.7071C20.8946 17.5196 21 17.2652 21 17V7C21 6.73478 20.8946 6.48043 20.7071 6.29289C20.5196 6.10536 20.2652 6 20 6H16C15.4477 6 15 5.55228 15 5C15 4.44772 15.4477 4 16 4H20C20.7957 4 21.5587 4.31607 22.1213 4.87868C22.6839 5.44129 23 6.20435 23 7V17C23 17.7957 22.6839 18.5587 22.1213 19.1213C21.5587 19.6839 20.7957 20 20 20H4C3.20435 20 2.44129 19.6839 1.87868 19.1213C1.31607 18.5587 1 17.7956 1 17V7C1 6.20435 1.31607 5.44129 1.87868 4.87868Z" fill="black" style="fill:black;fill-opacity:1;"/>
</svg>
