<svg width="24" height="24" viewBox="0 0 24 24" fill="none" xmlns="http://www.w3.org/2000/svg">
<g clip-path="url(#clip0_168_1632)">
<path d="M3.615 20.5C3.285 20.5 2.945 20.41 2.655 20.25C2.355 20.08 2.105 19.84 1.925 19.55C1.745 19.26 1.645 18.93 1.625 18.59C1.605 18.25 1.685 17.91 1.835 17.6L3.005 15.26V6.5C3.005 5.7 3.315 4.95 3.885 4.38C4.455 3.81 5.205 3.5 6.005 3.5H18.005C18.805 3.5 19.555 3.81 20.125 4.38C20.695 4.95 21.005 5.7 21.005 6.5V15.26L22.175 17.6C22.325 17.9 22.405 18.25 22.385 18.59C22.365 18.93 22.265 19.26 22.085 19.55C21.905 19.84 21.655 20.08 21.355 20.25C21.055 20.41 20.675 20.5 20.375 20.5H3.615ZM4.615 16.5L3.615 18.5H20.385L19.385 16.5H4.615ZM5.005 14.5H19.005V6.5C19.005 6.23 18.905 5.98 18.715 5.79C18.525 5.6 18.275 5.5 18.005 5.5H6.005C5.745 5.5 5.485 5.61 5.295 5.79C5.105 5.98 5.005 6.23 5.005 6.5V14.5Z" fill="black" style="fill:black;fill-opacity:1;"/>
</g>
<defs>
<clipPath id="clip0_168_1632">
<rect width="20.77" height="17" fill="white" style="fill:white;fill-opacity:1;" transform="translate(1.615 3.5)"/>
</clipPath>
</defs>
</svg>
