<svg width="24" height="24" viewBox="0 0 24 24" fill="none" xmlns="http://www.w3.org/2000/svg">
<path fill-rule="evenodd" clip-rule="evenodd" d="M12.4682 1.11881C13.2221 0.941288 14.0091 0.96137 14.753 1.17712C15.2003 1.30685 15.623 1.50471 16.0067 1.76217C16.7346 1.28474 17.5914 1.02486 18.475 1.02486C19.066 1.02486 19.6512 1.14126 20.1972 1.36742C20.7432 1.59357 21.2393 1.92505 21.6572 2.34293C22.075 2.76081 22.4065 3.25691 22.6327 3.8029C22.8588 4.34888 22.9752 4.93407 22.9752 5.52504C22.9752 6.11601 22.8588 6.70119 22.6327 7.24718C22.5245 7.50835 22.3922 7.75811 22.2379 7.99334C22.4954 8.37709 22.6932 8.79974 22.823 9.24709C23.0387 9.99099 23.0588 10.778 22.8813 11.5319C22.7037 12.2859 22.3346 12.9812 21.8096 13.5507C21.5262 13.8581 21.2026 14.1232 20.8488 14.3396C20.9742 14.8091 21.0234 15.2981 20.9922 15.7877C20.9383 16.6333 20.6467 17.4466 20.151 18.1338C19.6554 18.821 18.9757 19.3543 18.1903 19.6724C17.6784 19.8797 17.135 19.99 16.5877 20.0005C16.3813 20.4801 16.1003 20.9261 15.7536 21.3213C15.2154 21.9348 14.5352 22.4072 13.7724 22.6973C13.0096 22.9874 12.1874 23.0864 11.3775 22.9856C10.5676 22.8848 9.79473 22.5873 9.1263 22.1191C9.08777 22.0921 9.05119 22.0624 9.01683 22.0303C8.18855 21.2553 7.10184 20.8174 5.96932 20.8005C4.88142 20.9697 4.16121 21.5485 3.1191 22.386C2.96088 22.5132 2.79523 22.6463 2.61975 22.7849C2.22082 23.0999 1.64906 23.0655 1.29076 22.705C0.932451 22.3444 0.901604 21.7725 1.21906 21.3755C1.31318 21.2578 1.40447 21.1445 1.49285 21.0348C2.40613 19.9011 3.00834 19.1536 3.21227 17.9439C3.27447 17.5182 3.17553 17.0575 2.92342 16.5204C2.66817 15.9766 2.3009 15.4438 1.89807 14.8593L1.88167 14.8355C1.42218 14.1683 1.13148 13.399 1.03505 12.5945C0.938626 11.7901 1.03912 10.9743 1.32789 10.2173C1.61666 9.46036 2.08505 8.78489 2.69275 8.24907C3.08376 7.90432 3.52489 7.62402 3.99946 7.4169C4.00945 6.86804 4.11983 6.32312 4.32771 5.80975C4.64575 5.02436 5.17907 4.34472 5.8663 3.84904C6.55353 3.35336 7.36675 3.06179 8.21238 3.00787C8.70203 2.97665 9.19102 3.02585 9.66051 3.15131C9.87687 2.79751 10.142 2.47387 10.4494 2.19046C11.0189 1.66546 11.7142 1.29634 12.4682 1.11881ZM14.1959 3.09796C13.7826 2.9781 13.3454 2.96695 12.9266 3.06557C12.5077 3.1642 12.1214 3.36927 11.805 3.66093C11.4886 3.9526 11.2529 4.32099 11.1206 4.73046C11.0292 5.01349 10.8165 5.24112 10.5403 5.35155C10.2642 5.46199 9.95318 5.44376 9.69181 5.30181C9.27813 5.07716 8.80943 4.97386 8.33964 5.00382C7.86985 5.03377 7.41806 5.19576 7.03626 5.47113C6.65447 5.74651 6.35818 6.12409 6.18149 6.56042C6.00481 6.99674 5.9549 7.47409 6.03752 7.93753C6.1302 8.45738 5.80272 8.9597 5.28966 9.08464C4.81736 9.19966 4.38008 9.42773 4.01546 9.74922C3.65084 10.0707 3.3698 10.476 3.19654 10.9302C3.02328 11.3844 2.96298 11.8738 3.02084 12.3565C3.07869 12.8392 3.25297 13.3005 3.52866 13.7009C3.54603 13.7261 3.56359 13.7515 3.58132 13.7772C3.95626 14.3207 4.40691 14.974 4.73392 15.6707C4.97223 16.1784 5.16552 16.7502 5.21701 17.3688L16.2929 6.2929C16.6834 5.90237 17.3166 5.90237 17.7071 6.29289C18.0976 6.68341 18.0976 7.31658 17.7071 7.7071L6.57915 18.8351C7.97038 18.9796 9.28506 19.5661 10.3255 20.5164C10.7145 20.777 11.1593 20.943 11.6245 21.0009C12.1104 21.0614 12.6038 21.002 13.0614 20.828C13.5191 20.6539 13.9273 20.3704 14.2502 20.0023C14.5731 19.6343 14.801 19.1927 14.914 18.7163C15.0364 18.2002 15.5404 17.8695 16.0626 17.9626C16.526 18.0452 17.0033 17.9953 17.4397 17.8186C17.876 17.6419 18.2536 17.3456 18.529 16.9638C18.8043 16.582 18.9663 16.1302 18.9963 15.6604C19.0262 15.1907 18.9229 14.722 18.6983 14.3083C18.5563 14.0469 18.5381 13.7359 18.6485 13.4597C18.759 13.1836 18.9866 12.9709 19.2696 12.8795C19.6791 12.7472 20.0475 12.5114 20.3392 12.1951C20.6308 11.8787 20.8359 11.4924 20.9345 11.0735C21.0331 10.6547 21.022 10.2175 20.9021 9.80418C20.7823 9.3909 20.5578 9.01556 20.2503 8.71447C20.0596 8.52763 19.9515 8.27226 19.9501 8.00524C19.9487 7.73823 20.0541 7.48174 20.2429 7.29293C20.4751 7.06077 20.6593 6.78515 20.7849 6.48182C20.9106 6.17848 20.9752 5.85337 20.9752 5.52504C20.9752 5.19671 20.9106 4.8716 20.7849 4.56826C20.6593 4.26493 20.4751 3.98931 20.2429 3.75715C20.0108 3.52498 19.7352 3.34082 19.4318 3.21518C19.1285 3.08953 18.8034 3.02486 18.475 3.02486C17.812 3.02486 17.176 3.28827 16.7072 3.75715C16.5183 3.94596 16.2619 4.05142 15.9948 4.05003C15.7278 4.04864 15.4725 3.94052 15.2856 3.74975C14.9845 3.44233 14.6092 3.21782 14.1959 3.09796Z" fill="black" style="fill:black;fill-opacity:1;"/>
</svg>
