<svg width="24" height="24" viewBox="0 0 24 24" fill="none" xmlns="http://www.w3.org/2000/svg">
<path fill-rule="evenodd" clip-rule="evenodd" d="M2 6C2 5.44772 2.44772 5 3 5H21C21.5523 5 22 5.44772 22 6C22 6.55228 21.5523 7 21 7H3C2.44772 7 2 6.55228 2 6ZM11 9C11.5523 9 12 9.44772 12 10V11.5858L12.3829 11.2029C13.4335 10.1522 14.8952 9.5 16.5 9.5C17.9587 9.5 19.3576 10.0795 20.3891 11.1109C21.4205 12.1424 22 13.5413 22 15C22 16.2593 21.6038 17.4867 20.8675 18.5083C20.1311 19.5299 19.092 20.2939 17.8974 20.6921C16.7027 21.0903 15.413 21.1026 14.211 20.7271C13.009 20.3516 11.9556 19.6074 11.2 18.6C10.8686 18.1582 10.9582 17.5314 11.4 17.2C11.8418 16.8686 12.4686 16.9582 12.8 17.4C13.3037 18.0716 14.006 18.5677 14.8073 18.8181C15.6087 19.0684 16.4685 19.0602 17.2649 18.7947C18.0614 18.5292 18.7541 18.0199 19.245 17.3388C19.7359 16.6578 20 15.8395 20 15C20 14.0717 19.6312 13.1815 18.9749 12.5251C18.3185 11.8687 17.4283 11.5 16.5 11.5C15.4448 11.5 14.4865 11.9278 13.7971 12.6171L13.4142 13H15C15.5523 13 16 13.4477 16 14C16 14.5523 15.5523 15 15 15H11C10.4477 15 10 14.5523 10 14V10C10 9.44772 10.4477 9 11 9ZM2 12C2 11.4477 2.44772 11 3 11H7C7.55228 11 8 11.4477 8 12C8 12.5523 7.55228 13 7 13H3C2.44772 13 2 12.5523 2 12ZM2 18C2 17.4477 2.44772 17 3 17H7C7.55228 17 8 17.4477 8 18C8 18.5523 7.55228 19 7 19H3C2.44772 19 2 18.5523 2 18Z" fill="black" style="fill:black;fill-opacity:1;"/>
</svg>
