<svg width="24" height="24" viewBox="0 0 24 24" fill="none" xmlns="http://www.w3.org/2000/svg">
<path fill-rule="evenodd" clip-rule="evenodd" d="M10 3C9.73478 3 9.48043 3.10536 9.29289 3.29289C9.10536 3.48043 9 3.73478 9 4V5H15V4C15 3.73478 14.8946 3.48043 14.7071 3.29289C14.5196 3.10536 14.2652 3 14 3H10ZM17 5V4C17 3.20435 16.6839 2.44129 16.1213 1.87868C15.5587 1.31607 14.7956 1 14 1H10C9.20435 1 8.44129 1.31607 7.87868 1.87868C7.31607 2.44129 7 3.20435 7 4V5H6C5.20435 5 4.44129 5.31607 3.87868 5.87868C3.31607 6.44129 3 7.20435 3 8V18C3 18.7957 3.31607 19.5587 3.87868 20.1213C4.2305 20.4731 4.66071 20.7286 5.12826 20.8706C5.50134 22.1029 6.6459 23 8 23C9.30622 23 10.4175 22.1652 10.8293 21H13.1707C13.5825 22.1652 14.6938 23 16 23C17.3541 23 18.4987 22.1029 18.8717 20.8706C19.3393 20.7286 19.7695 20.4731 20.1213 20.1213C20.6839 19.5587 21 18.7957 21 18V8C21 7.20435 20.6839 6.44129 20.1213 5.87868C19.5587 5.31607 18.7956 5 18 5H17ZM15 7H9V17.1707C9.85241 17.472 10.528 18.1476 10.8293 19H13.1707C13.472 18.1476 14.1476 17.472 15 17.1707V7ZM17 17.1707V7H18C18.2652 7 18.5196 7.10536 18.7071 7.29289C18.8946 7.48043 19 7.73478 19 8V18C19 18.265 18.8948 18.5191 18.7076 18.7066C18.3665 17.9937 17.752 17.4365 17 17.1707ZM7 17.1707V7H6C5.73478 7 5.48043 7.10536 5.29289 7.29289C5.10536 7.48043 5 7.73478 5 8V18C5 18.265 5.10516 18.5191 5.29237 18.7066C5.63353 17.9937 6.24795 17.4365 7 17.1707ZM8 19C7.44772 19 7 19.4477 7 20C7 20.5523 7.44772 21 8 21C8.55228 21 9 20.5523 9 20C9 19.4477 8.55228 19 8 19ZM16 19C15.4477 19 15 19.4477 15 20C15 20.5523 15.4477 21 16 21C16.5523 21 17 20.5523 17 20C17 19.4477 16.5523 19 16 19Z" fill="black" style="fill:black;fill-opacity:1;"/>
</svg>
