<svg width="24" height="24" viewBox="0 0 24 24" fill="none" xmlns="http://www.w3.org/2000/svg">
<path fill-rule="evenodd" clip-rule="evenodd" d="M5 4C4.44772 4 4 4.44772 4 5V19C4 19.5523 4.44771 20 5 20H19C19.5523 20 20 19.5523 20 19V5C20 4.44771 19.5523 4 19 4H5ZM2 5C2 3.34315 3.34315 2 5 2H19C20.6569 2 22 3.34315 22 5V19C22 20.6569 20.6569 22 19 22H5C3.34315 22 2 20.6569 2 19V5ZM7.61732 7.07612C7.99099 6.92134 8.42111 7.0069 8.70711 7.29289L12 10.5858L15.2929 7.29289C15.5789 7.0069 16.009 6.92134 16.3827 7.07612C16.7564 7.2309 17 7.59554 17 8V16C17 16.5523 16.5523 17 16 17C15.4477 17 15 16.5523 15 16V10.4142L12.7071 12.7071C12.3166 13.0976 11.6834 13.0976 11.2929 12.7071L9 10.4142V16C9 16.5523 8.55228 17 8 17C7.44772 17 7 16.5523 7 16V8C7 7.59554 7.24364 7.2309 7.61732 7.07612Z" fill="black" style="fill:black;fill-opacity:1;"/>
</svg>
