<svg width="24" height="24" viewBox="0 0 24 24" fill="none" xmlns="http://www.w3.org/2000/svg">
<path fill-rule="evenodd" clip-rule="evenodd" d="M8 5C7.44772 5 7 5.44772 7 6V6.3995L13.5657 9.89508C13.5663 9.89539 13.5669 9.8957 13.5675 9.89601C13.8449 10.0413 14.1551 10.0413 14.4325 9.89601C14.4331 9.8957 14.4337 9.89539 14.4343 9.89508L21 6.3995V6C21 5.44772 20.5523 5 20 5H8ZM23 6.97929V6C23 4.34315 21.6569 3 20 3H8C6.34315 3 5 4.34315 5 6V6.97927C4.99974 6.99253 4.99974 7.00578 5 7.01901V15C5 16.6569 6.34315 18 8 18H20C21.6569 18 23 16.6569 23 15V7.01899C23.0003 7.00578 23.0003 6.99254 23 6.97929ZM21 8.66529L15.3658 11.6649C14.5042 12.1184 13.4958 12.1184 12.6343 11.6649L12.6301 11.6627L7 8.66529V15C7 15.5523 7.44772 16 8 16H20C20.5523 16 21 15.5523 21 15V8.66529ZM2 7C2.55228 7 3 7.44772 3 8V19C3 19.5477 3.45228 20 4 20H18C18.5523 20 19 20.4477 19 21C19 21.5523 18.5523 22 18 22H4C2.34772 22 1 20.6523 1 19V8C1 7.44772 1.44772 7 2 7Z" fill="black" style="fill:black;fill-opacity:1;"/>
</svg>
