<svg width="24" height="24" viewBox="0 0 24 24" fill="none" xmlns="http://www.w3.org/2000/svg">
<path fill-rule="evenodd" clip-rule="evenodd" d="M1.87868 3.87868C2.44129 3.31607 3.20436 3 4 3H20C20.7957 3 21.5587 3.31607 22.1213 3.87868C22.6839 4.44129 23 5.20435 23 6V6.98317C23.0002 6.99377 23.0002 7.00436 23 7.01495V10.5C23 11.0523 22.5523 11.5 22 11.5C21.4477 11.5 21 11.0523 21 10.5V8.82027L13.5609 13.5474C13.0931 13.8406 12.5521 13.996 12 13.996C11.4479 13.996 10.9069 13.8405 10.4391 13.5474L10.4337 13.544L3 8.82027V18C3 18.5477 3.45229 19 4 19H16.5C17.0523 19 17.5 19.4477 17.5 20C17.5 20.5523 17.0523 21 16.5 21H4C2.34772 21 1 19.6523 1 18V7.01499C0.999836 7.00437 0.999836 6.99375 1 6.98313V6C1 5.20435 1.31608 4.44129 1.87868 3.87868ZM3 6.45063L11.5032 11.854C11.6522 11.9468 11.8244 11.996 12 11.996C12.1757 11.996 12.3478 11.9468 12.4968 11.854C12.4976 11.8535 12.4983 11.853 12.4991 11.8526L21 6.45063V6C21 5.73478 20.8946 5.48043 20.7071 5.29289C20.5196 5.10536 20.2652 5 20 5H4C3.73479 5 3.48043 5.10536 3.2929 5.29289C3.10536 5.48043 3 5.73478 3 6V6.45063ZM20.1183 15.0108C19.8707 14.9727 19.6174 15.0203 19.4005 15.1457C19.383 15.1558 19.3653 15.1654 19.3472 15.1744C19.226 15.235 19.0514 15.4132 18.8944 15.7272C18.6474 16.2212 18.0468 16.4214 17.5528 16.1744C17.0588 15.9275 16.8586 15.3268 17.1056 14.8328C17.3452 14.3535 17.7622 13.7422 18.4247 13.3999C19.0304 13.0572 19.7341 12.9282 20.4225 13.0341C21.1204 13.1415 21.7608 13.4839 22.2376 14.0048C22.2596 14.0288 22.2804 14.0539 22.3 14.08C22.6658 14.5678 23 15.1769 23 15.98C23 17.1645 22.1087 17.9256 21.5595 18.2964C21.2511 18.5045 20.9497 18.6583 20.7292 18.7594C20.6175 18.8106 20.5232 18.8498 20.4545 18.877C20.42 18.8907 20.3918 18.9014 20.3708 18.9092L20.3449 18.9187L20.3361 18.9218L20.3329 18.923L20.3315 18.9235C20.3312 18.9236 20.3304 18.9239 20 17.98L20.3304 18.9239C19.8091 19.1063 19.2386 18.8316 19.0561 18.3104C18.874 17.7901 19.1473 17.2208 19.6667 17.0372M20.1183 15.0108C20.3514 15.0467 20.5664 15.1565 20.732 15.3233L20.1183 15.0108ZM20 21C20.5523 21 21 21.4477 21 22V22.01C21 22.5623 20.5523 23.01 20 23.01C19.4477 23.01 19 22.5623 19 22.01V22C19 21.4477 19.4477 21 20 21Z" fill="black" style="fill:black;fill-opacity:1;"/>
</svg>
