<svg width="24" height="24" viewBox="0 0 24 24" fill="none" xmlns="http://www.w3.org/2000/svg">
<path fill-rule="evenodd" clip-rule="evenodd" d="M21.6051 5.20388C21.8539 5.39298 22 5.68751 22 6.00001V18C22 18.3033 21.8623 18.5903 21.6257 18.7801C21.3891 18.9698 21.0792 19.042 20.7831 18.9762L12.5414 17.1447C12.399 17.6225 12.1686 18.0698 11.8619 18.4634C11.5384 18.8787 11.1363 19.2261 10.6785 19.4859C10.2207 19.7458 9.71624 19.9129 9.19387 19.9777C8.6715 20.0426 8.14147 20.0039 7.63404 19.864C7.12662 19.724 6.65173 19.4854 6.2365 19.1619C5.82126 18.8384 5.47382 18.4363 5.21399 17.9785C4.95417 17.5207 4.78705 17.0162 4.7222 16.4939C4.67738 16.1329 4.68199 15.7683 4.7353 15.41L2.78307 14.9762C2.32553 14.8745 2 14.4687 2 14V11C2 10.5508 2.29954 10.1567 2.73236 10.0365L20.7324 5.03649C21.0335 4.95285 21.3563 5.01478 21.6051 5.20388ZM6.69755 15.8461C6.6873 15.9795 6.69038 16.114 6.70695 16.2474C6.73945 16.5091 6.82318 16.7619 6.95336 16.9913C7.08355 17.2206 7.25763 17.4221 7.46568 17.5842C7.67372 17.7463 7.91166 17.8658 8.1659 17.936C8.42014 18.0061 8.68571 18.0255 8.94743 17.993C9.20916 17.9605 9.46192 17.8768 9.69129 17.7466C9.92066 17.6164 10.1221 17.4423 10.2842 17.2343C10.4086 17.0746 10.5079 16.8974 10.5791 16.7086L6.69755 15.8461ZM4 11.7601V13.1978L20 16.7534V7.31565L4 11.7601Z" fill="black" style="fill:black;fill-opacity:1;"/>
</svg>
