<svg width="24" height="24" viewBox="0 0 24 24" fill="none" xmlns="http://www.w3.org/2000/svg">
<path fill-rule="evenodd" clip-rule="evenodd" d="M4 6C3.73478 6 3.48043 6.10536 3.29289 6.29289C3.10536 6.48043 3 6.73478 3 7V7.42212C3.32297 7.61963 3.6077 7.87774 3.83728 8.1847C4.22523 8.70341 4.43488 9.33376 4.43488 9.9815C4.43488 10.6292 4.22523 11.2596 3.83728 11.7783C3.6077 12.0853 3.32297 12.3434 3 12.5409V14H21V12.5779C20.677 12.3804 20.3923 12.1223 20.1627 11.8153C19.7748 11.2966 19.5651 10.6662 19.5651 10.0185C19.5651 9.37076 19.7748 8.74041 20.1627 8.2217C20.3923 7.91474 20.677 7.65663 21 7.45912V7C21 6.73478 20.8946 6.48043 20.7071 6.29289C20.5196 6.10536 20.2652 6 20 6H4ZM23 11.937C23 11.4935 22.7079 11.1031 22.2826 10.9778C22.0754 10.9167 21.8936 10.7903 21.7643 10.6174C21.635 10.4445 21.5651 10.2344 21.5651 10.0185C21.5651 9.80259 21.635 9.59247 21.7643 9.41957C21.8936 9.24666 22.0754 9.12026 22.2826 9.05925C22.7079 8.93395 23 8.54346 23 8.1V7C23 6.20435 22.6839 5.44129 22.1213 4.87868C21.5587 4.31607 20.7957 4 20 4H4C3.20435 4 2.44129 4.31607 1.87868 4.87868C1.31607 5.44129 1 6.20435 1 7V8.063C1 8.50646 1.29206 8.89695 1.71744 9.02225C1.92456 9.08326 2.10636 9.20966 2.23568 9.38257C2.365 9.55547 2.43488 9.76559 2.43488 9.9815C2.43488 10.1974 2.365 10.4075 2.23568 10.5804C2.10636 10.7533 1.92456 10.8797 1.71744 10.9407C1.29206 11.0661 1 11.4565 1 11.9V17C1 17.7956 1.31607 18.5587 1.87868 19.1213C2.44129 19.6839 3.20435 20 4 20H20C20.7957 20 21.5587 19.6839 22.1213 19.1213C22.6839 18.5587 23 17.7957 23 17V11.937ZM21 16H19V18H20C20.2652 18 20.5196 17.8946 20.7071 17.7071C20.8946 17.5196 21 17.2652 21 17V16ZM17 18V16H15V18H17ZM13 18V16H11V18H13ZM9 18V16H7V18H9ZM5 18V16H3V17C3 17.2652 3.10536 17.5196 3.29289 17.7071C3.48043 17.8946 3.73478 18 4 18H5ZM8 8C8.55228 8 9 8.44772 9 9V11C9 11.5523 8.55228 12 8 12C7.44772 12 7 11.5523 7 11V9C7 8.44772 7.44772 8 8 8ZM12 8C12.5523 8 13 8.44772 13 9V11C13 11.5523 12.5523 12 12 12C11.4477 12 11 11.5523 11 11V9C11 8.44772 11.4477 8 12 8ZM16 8C16.5523 8 17 8.44772 17 9V11C17 11.5523 16.5523 12 16 12C15.4477 12 15 11.5523 15 11V9C15 8.44772 15.4477 8 16 8Z" fill="black" style="fill:black;fill-opacity:1;"/>
</svg>
