<svg width="24" height="24" viewBox="0 0 24 24" fill="none" xmlns="http://www.w3.org/2000/svg">
<path fill-rule="evenodd" clip-rule="evenodd" d="M6.11896 3.91008C8.04524 2.50653 10.4095 1.83712 12.7856 2.02249C15.1618 2.20787 17.3936 3.23583 19.0789 4.92113C20.7642 6.60644 21.7922 8.83827 21.9776 11.2144C22.163 13.5906 21.4935 15.9548 20.09 17.8811C18.6864 19.8074 16.641 21.169 14.3224 21.7207C12.1442 22.2389 9.85945 22.0103 7.83253 21.0788L2.32107 22.9471C1.96061 23.0693 1.56205 22.9763 1.29292 22.7072C1.02379 22.438 0.930774 22.0395 1.05296 21.679L2.92125 16.1675C1.98982 14.1406 1.7612 11.8559 2.2794 9.67771C2.83103 7.35904 4.19268 5.31364 6.11896 3.91008ZM12.6301 4.01644C10.7292 3.86814 8.83776 4.40366 7.29674 5.52651C5.75571 6.64935 4.6664 8.28567 4.2251 10.1406C3.78379 11.9955 4.01951 13.9471 4.88979 15.6436C5.01328 15.8844 5.03395 16.1649 4.94709 16.4211L3.5974 20.4027L7.57899 19.053C7.83522 18.9661 8.11572 18.9868 8.35645 19.1103C10.053 19.9806 12.0045 20.2163 13.8595 19.775C15.7144 19.3337 17.3507 18.2444 18.4736 16.7033C19.5964 15.1623 20.1319 13.2709 19.9836 11.37C19.8353 9.46905 19.013 7.68359 17.6647 6.33535C16.3165 4.9871 14.531 4.16473 12.6301 4.01644ZM11.9234 8.20544C12.5308 7.7408 13.2774 7.48535 14.0499 7.48535C14.8787 7.48535 15.6776 7.77931 16.3067 8.31014C16.412 8.36414 16.5094 8.43787 16.5932 8.53103C17.1977 9.20263 17.555 10.0687 17.5372 10.9942C17.5193 11.9282 17.121 12.8431 16.357 13.6071L16.3471 13.6171L16.347 13.617L12.747 17.117C12.3589 17.4943 11.741 17.4943 11.3528 17.117L7.79973 13.6626C7.44101 13.3893 7.13967 13.0475 6.91331 12.6569C6.67395 12.2438 6.52373 11.7852 6.47231 11.3105C6.42089 10.8359 6.46943 10.3557 6.61478 9.90097C6.76014 9.44621 6.9991 9.02693 7.31628 8.67009C7.63346 8.31326 8.02184 8.02679 8.45642 7.82912C8.891 7.63146 9.36216 7.52696 9.83956 7.52238C10.317 7.51779 10.79 7.61321 11.2283 7.80249C11.4757 7.90932 11.7089 8.04471 11.9234 8.20544ZM13.0484 9.86866L12.7999 10.2C12.634 10.4212 12.3839 10.5639 12.109 10.594C11.8342 10.6242 11.5591 10.5392 11.3491 10.3593L10.9991 10.0593C10.9697 10.034 10.9417 10.0071 10.9154 9.9786C10.7809 9.833 10.6174 9.71718 10.4354 9.63859C10.2534 9.56 10.057 9.52038 9.85878 9.52228C9.66056 9.52419 9.46493 9.56757 9.28449 9.64965C9.10405 9.73172 8.94279 9.85066 8.8111 9.99882C8.6794 10.147 8.58019 10.3211 8.51983 10.5099C8.45948 10.6987 8.43933 10.8981 8.46068 11.0951C8.48203 11.2922 8.5444 11.4826 8.64378 11.6542C8.74317 11.8257 8.87736 11.9745 9.03773 12.091C9.0763 12.119 9.11282 12.1498 9.147 12.183L12.0499 15.0053L14.9474 12.1882C15.3799 11.7538 15.5306 11.3205 15.5376 10.9558C15.5437 10.6383 15.4421 10.314 15.231 10.0226C15.1851 9.99073 15.1412 9.95458 15.0999 9.91414C14.8195 9.6393 14.4425 9.48535 14.0499 9.48535C13.6795 9.48535 13.323 9.62237 13.0484 9.86866Z" fill="black" style="fill:black;fill-opacity:1;"/>
</svg>
