<svg width="24" height="24" viewBox="0 0 24 24" fill="none" xmlns="http://www.w3.org/2000/svg">
<path fill-rule="evenodd" clip-rule="evenodd" d="M7.00002 2C7.00002 1.44772 7.44773 1 8.00002 1H16C16.5523 1 17 1.44772 17 2C17 2.55228 16.5523 3 16 3V4.788C15.9999 5.3806 16.1753 5.96018 16.504 6.45322L17.16 7.43722C17.7077 8.2586 18 9.22374 18 10.211V14.9768C18.0004 14.9919 18.0004 15.0071 18 15.0222V20C18 20.7957 17.6839 21.5587 17.1213 22.1213C16.5587 22.6839 15.7957 23 15 23H9.00002C8.20437 23 7.4413 22.6839 6.8787 22.1213C6.31609 21.5587 6.00002 20.7957 6.00002 20V15.0231C5.99967 15.0079 5.99967 14.9927 6.00002 14.9776V10.2122C6.00002 10.2121 6.00002 10.2123 6.00002 10.2122C5.99984 9.22467 6.29211 8.25896 6.83997 7.4373C6.83995 7.43733 6.83998 7.43727 6.83997 7.4373L7.49597 6.4533C7.82458 5.96048 8 5.38133 8.00002 4.789M8.00002 15.7072V20C8.00002 20.2652 8.10537 20.5196 8.29291 20.7071C8.48045 20.8946 8.7348 21 9.00002 21H15C15.2652 21 15.5196 20.8946 15.7071 20.7071C15.8947 20.5196 16 20.2652 16 20V16.3503C15.5076 16.4512 15.0051 16.5024 14.5 16.5024C13.5089 16.5024 12.5277 16.3052 11.6136 15.9222C10.9442 15.6419 10.2257 15.4976 9.50002 15.4976C8.99167 15.4976 8.48688 15.5684 8.00002 15.7072ZM16 14.2927C15.5132 14.4316 15.0084 14.5024 14.5 14.5024C13.7743 14.5024 13.0558 14.358 12.3864 14.0776C11.4723 13.6948 10.4911 13.4976 9.50002 13.4976C8.99492 13.4976 8.4924 13.5488 8.00002 13.6497V10.212C7.99988 9.6194 8.17526 9.03982 8.50402 8.54678L9.16002 7.56278C9.16 7.5628 9.16003 7.56275 9.16002 7.56278C9.70768 6.74141 9.99999 5.77623 10 4.78903V3H14V4.78778C14 4.7877 14 4.78785 14 4.78778C13.9998 5.77533 14.2921 6.74104 14.84 7.5627C14.8399 7.56267 14.84 7.56272 14.84 7.5627L15.496 8.5467C15.8246 9.03952 16 9.61867 16 10.211C16 10.211 16 10.211 16 10.211V14.2927ZM7.00002 2C7.00002 2.55228 7.44773 3 8.00002 3L7.00002 2ZM8.00002 3V4.789V3Z" fill="black" style="fill:black;fill-opacity:1;"/>
</svg>
