<svg width="24" height="24" viewBox="0 0 24 24" fill="none" xmlns="http://www.w3.org/2000/svg">
<path fill-rule="evenodd" clip-rule="evenodd" d="M2.87868 2.87868C3.44129 2.31607 4.20435 2 5 2C5.55228 2 6 2.44772 6 3C6 3.55228 5.55228 4 5 4C4.73478 4 4.48043 4.10536 4.29289 4.29289C4.10536 4.48043 4 4.73478 4 5C4 5.55228 3.55228 6 3 6C2.44772 6 2 5.55228 2 5C2 4.20435 2.31607 3.44129 2.87868 2.87868ZM8 3C8 2.44772 8.44772 2 9 2H10C10.5523 2 11 2.44772 11 3C11 3.55228 10.5523 4 10 4H9C8.44772 4 8 3.55228 8 3ZM13 3C13 2.44772 13.4477 2 14 2H15C15.5523 2 16 2.44772 16 3C16 3.55228 15.5523 4 15 4H14C13.4477 4 13 3.55228 13 3ZM18 3C18 2.44772 18.4477 2 19 2C19.7957 2 20.5587 2.31607 21.1213 2.87868C21.6839 3.44129 22 4.20435 22 5C22 5.55228 21.5523 6 21 6C20.4477 6 20 5.55228 20 5C20 4.73478 19.8946 4.48043 19.7071 4.29289C19.5196 4.10536 19.2652 4 19 4C18.4477 4 18 3.55228 18 3ZM3 8C3.55228 8 4 8.44772 4 9V10C4 10.5523 3.55228 11 3 11C2.44772 11 2 10.5523 2 10V9C2 8.44772 2.44772 8 3 8ZM21 8C21.5523 8 22 8.44772 22 9V11C22 11.5523 21.5523 12 21 12C20.4477 12 20 11.5523 20 11V9C20 8.44772 20.4477 8 21 8ZM11.2929 11.2929C11.5758 11.01 12 10.923 12.3714 11.0715L22.3714 15.0715C22.7517 15.2237 23.0008 15.5924 23 16.002C22.9992 16.4116 22.7486 16.7794 22.3677 16.93L18.4706 18.4706L16.93 22.3677C16.7794 22.7486 16.4116 22.9992 16.002 23C15.5924 23.0008 15.2237 22.7517 15.0715 22.3714L11.0715 12.3714C10.923 12 11.01 11.5758 11.2929 11.2929ZM13.7951 13.7951L15.9946 19.2938L16.77 17.3323C16.8717 17.0752 17.0752 16.8717 17.3323 16.77L19.2938 15.9946L13.7951 13.7951ZM3 13C3.55228 13 4 13.4477 4 14V15C4 15.5523 3.55228 16 3 16C2.44772 16 2 15.5523 2 15V14C2 13.4477 2.44772 13 3 13ZM3 18C3.55228 18 4 18.4477 4 19C4 19.2652 4.10536 19.5196 4.29289 19.7071C4.48043 19.8946 4.73478 20 5 20C5.55228 20 6 20.4477 6 21C6 21.5523 5.55228 22 5 22C4.20435 22 3.44129 21.6839 2.87868 21.1213C2.31607 20.5587 2 19.7957 2 19C2 18.4477 2.44772 18 3 18ZM8 21C8 20.4477 8.44772 20 9 20H11C11.5523 20 12 20.4477 12 21C12 21.5523 11.5523 22 11 22H9C8.44772 22 8 21.5523 8 21Z" fill="black" style="fill:black;fill-opacity:1;"/>
</svg>
