<svg width="24" height="24" viewBox="0 0 24 24" fill="none" xmlns="http://www.w3.org/2000/svg">
<path fill-rule="evenodd" clip-rule="evenodd" d="M5.87868 1.87868C6.44129 1.31607 7.20435 1 8 1H20C20.7957 1 21.5587 1.31607 22.1213 1.87868C22.6839 2.44129 23 3.20435 23 4V20C23 20.7957 22.6839 21.5587 22.1213 22.1213C21.5587 22.6839 20.7957 23 20 23H4C3.20435 23 2.44129 22.6839 1.87868 22.1213C1.31607 21.5587 1 20.7957 1 20V11C1 9.34772 2.34772 8 4 8H5V4C5 3.20435 5.31607 2.44129 5.87868 1.87868ZM5 10H4C3.45228 10 3 10.4523 3 11V20C3 20.2652 3.10536 20.5196 3.29289 20.7071C3.48043 20.8946 3.73478 21 4 21C4.26522 21 4.51957 20.8946 4.70711 20.7071C4.89464 20.5196 5 20.2652 5 20V10ZM6.82843 21C6.94094 20.6818 7 20.3439 7 20V4C7 3.73478 7.10536 3.48043 7.29289 3.29289C7.48043 3.10536 7.73478 3 8 3H20C20.2652 3 20.5196 3.10536 20.7071 3.29289C20.8946 3.48043 21 3.73478 21 4V20C21 20.2652 20.8946 20.5196 20.7071 20.7071C20.5196 20.8946 20.2652 21 20 21H6.82843ZM9 6C9 5.44772 9.44772 5 10 5H18C18.5523 5 19 5.44772 19 6V10C19 10.5523 18.5523 11 18 11H10C9.44772 11 9 10.5523 9 10V6ZM11 7V9H17V7H11ZM9 14C9 13.4477 9.44772 13 10 13H18C18.5523 13 19 13.4477 19 14C19 14.5523 18.5523 15 18 15H10C9.44772 15 9 14.5523 9 14ZM9 18C9 17.4477 9.44772 17 10 17H15C15.5523 17 16 17.4477 16 18C16 18.5523 15.5523 19 15 19H10C9.44772 19 9 18.5523 9 18Z" fill="black" style="fill:black;fill-opacity:1;"/>
</svg>
