<svg width="24" height="24" viewBox="0 0 24 24" fill="none" xmlns="http://www.w3.org/2000/svg">
<path fill-rule="evenodd" clip-rule="evenodd" d="M10.5021 1.40264C10.9577 1.14014 11.4742 1.00195 12 1.00195C12.5258 1.00195 13.0424 1.14015 13.4979 1.40267C13.4986 1.40307 13.4993 1.40348 13.5 1.40388L20.5 5.40387C20.9556 5.66692 21.334 6.04515 21.5973 6.50062C21.8606 6.95609 21.9995 7.47279 22 7.99888V9.9999C22 10.5522 21.5523 10.9999 21 10.9999C20.4477 10.9999 20 10.5522 20 9.9999V8.56065L17.064 10.2461C17.0213 10.2751 16.9767 10.3007 16.9305 10.3227L13 12.579L13 20.5789L14.5048 19.7211C14.9846 19.4476 15.5953 19.6149 15.8688 20.0947C16.1423 20.5745 15.975 21.1852 15.4952 21.4587L13.5 22.5959C13.4991 22.5964 13.4982 22.597 13.4973 22.5975C13.0654 22.8463 12.5786 22.9833 12.0812 22.9968C12.0544 22.9989 12.0273 23 12 23C11.9727 23 11.9456 22.9989 11.9188 22.9968C11.4211 22.9833 10.934 22.8461 10.5019 22.597C10.5012 22.5966 10.5006 22.5963 10.5 22.5959L3.50386 18.5981L3.5 18.5959C3.04439 18.3329 2.66597 17.9547 2.40269 17.4992C2.13941 17.0437 2.00054 16.527 2 16.0009V7.99888C2.00054 7.47279 2.13941 6.95609 2.40269 6.50062C2.66597 6.04515 3.04439 5.66692 3.5 5.40388L3.50386 5.40165L6.99371 3.40746C6.99986 3.40386 7.00605 3.40032 7.01228 3.39685L10.5021 1.40264ZM7.49955 5.42191L5.01892 6.83941L12 10.8469L14.4861 9.41979L7.49955 5.42191ZM16.4964 8.2658L9.51441 4.27056L11.4961 3.13815L11.5 3.13593C11.652 3.04816 11.8245 3.00195 12 3.00195C12.1755 3.00195 12.348 3.04816 12.5 3.13593L18.9811 6.83944L16.4964 8.2658ZM11 12.579L4 8.56061V15.9993C4.00025 16.1745 4.04654 16.3466 4.13423 16.4983C4.22169 16.6496 4.34726 16.7753 4.49842 16.863C4.49895 16.8633 4.49947 16.8636 4.5 16.8639L11 20.5782L11 12.579ZM18.5 14C17.6716 14 17 14.6716 17 15.5C17 16.3284 17.6716 17 18.5 17C19.3284 17 20 16.3284 20 15.5C20 14.6716 19.3284 14 18.5 14ZM15 15.5C15 13.567 16.567 12 18.5 12C20.433 12 22 13.567 22 15.5C22 16.1028 21.8476 16.6699 21.5793 17.1651L22.7071 18.2929C23.0977 18.6834 23.0977 19.3166 22.7071 19.7071C22.3166 20.0977 21.6834 20.0977 21.2929 19.7071L20.1651 18.5793C19.6699 18.8476 19.1028 19 18.5 19C16.567 19 15 17.433 15 15.5Z" fill="black" style="fill:black;fill-opacity:1;"/>
</svg>
