<svg width="24" height="24" viewBox="0 0 24 24" fill="none" xmlns="http://www.w3.org/2000/svg">
<path fill-rule="evenodd" clip-rule="evenodd" d="M5 4C4.44772 4 4 4.44772 4 5V14H20V5C20 4.44771 19.5523 4 19 4H5ZM22 5C22 3.34315 20.6569 2 19 2H5C3.34315 2 2 3.34315 2 5V19C2 20.6569 3.34315 22 5 22H19C20.6569 22 22 20.6569 22 19V5ZM20 16H4V19C4 19.5523 4.44771 20 5 20H19C19.5523 20 20 19.5523 20 19V16ZM8.29289 7.29289C8.68342 6.90237 9.31658 6.90237 9.70711 7.29289L12 9.58579L14.2929 7.29289C14.6834 6.90237 15.3166 6.90237 15.7071 7.29289C16.0976 7.68342 16.0976 8.31658 15.7071 8.70711L12.7071 11.7071C12.3166 12.0976 11.6834 12.0976 11.2929 11.7071L8.29289 8.70711C7.90237 8.31658 7.90237 7.68342 8.29289 7.29289Z" fill="black" style="fill:black;fill-opacity:1;"/>
</svg>
