<svg width="24" height="24" viewBox="0 0 24 24" fill="none" xmlns="http://www.w3.org/2000/svg">
<path fill-rule="evenodd" clip-rule="evenodd" d="M1.29291 1.29291C1.53925 1.04658 1.89602 0.946197 2.23466 1.02794L16.7347 4.52794C17.1132 4.6193 17.4042 4.92208 17.4806 5.3039L18.6337 11.0693C18.9927 10.9282 19.4169 11.0027 19.7071 11.2929L22.7071 14.2929C23.0977 14.6834 23.0977 15.3166 22.7071 15.7071L15.7071 22.7071C15.3166 23.0977 14.6834 23.0977 14.2929 22.7071L11.2929 19.7071C11.0027 19.4169 10.9282 18.9927 11.0693 18.6337L5.3039 17.4806C4.92208 17.4042 4.6193 17.1132 4.52794 16.7347L1.02794 2.23466C0.946197 1.89602 1.04658 1.53925 1.29291 1.29291ZM12.6713 16.9145L16.9145 12.6713L15.6447 6.32228L5.22025 3.80604L9.7066 8.29239C10.0982 8.10497 10.5369 8.00002 11 8.00002C12.6569 8.00002 14 9.34317 14 11C14 12.6569 12.6569 14 11 14C9.34317 14 8.00002 12.6569 8.00002 11C8.00002 10.5369 8.10497 10.0982 8.29239 9.7066L3.80604 5.22025L6.32228 15.6447L12.6713 16.9145ZM10.2806 10.3054C10.1069 10.4853 10 10.7302 10 11C10 11.5523 10.4477 12 11 12C11.5523 12 12 11.5523 12 11C12 10.4477 11.5523 10 11 10C10.7302 10 10.4853 10.1069 10.3054 10.2806C10.3014 10.2848 10.2973 10.289 10.2931 10.2931C10.289 10.2973 10.2848 10.3014 10.2806 10.3054ZM13.4142 19L15 20.5858L20.5858 15L19 13.4142L13.4142 19Z" fill="black" style="fill:black;fill-opacity:1;"/>
</svg>
