<svg width="24" height="24" viewBox="0 0 24 24" fill="none" xmlns="http://www.w3.org/2000/svg">
<path fill-rule="evenodd" clip-rule="evenodd" d="M18 3.87866C17.7026 3.87866 17.4174 3.9968 17.2071 4.20709L16.4142 4.99999L18 6.58578L18.7929 5.79288C18.897 5.68875 18.9796 5.56514 19.036 5.42909C19.0923 5.29305 19.1213 5.14724 19.1213 4.99998C19.1213 4.85273 19.0923 4.70692 19.036 4.57087C18.9796 4.43483 18.897 4.31121 18.7929 4.20709C18.6888 4.10296 18.5652 4.02037 18.4291 3.96402C18.2931 3.90767 18.1473 3.87866 18 3.87866ZM18.7106 8.70363L20.2071 7.20709C20.497 6.91725 20.7269 6.57316 20.8837 6.19446C21.0406 5.81576 21.1213 5.40988 21.1213 4.99998C21.1213 4.59008 21.0406 4.1842 20.8837 3.8055C20.7269 3.42681 20.497 3.08272 20.2071 2.79288C19.9173 2.50303 19.5732 2.27312 19.1945 2.11626C18.8158 1.9594 18.4099 1.87866 18 1.87866C17.1722 1.87866 16.3783 2.20751 15.7929 2.79288L3.29291 15.2929C3.16476 15.421 3.07384 15.5816 3.02988 15.7574L2.02988 19.7574C1.94468 20.0982 2.04453 20.4587 2.29291 20.7071C2.54129 20.9555 2.90178 21.0553 3.24256 20.9701L7.24256 19.9701C7.41839 19.9262 7.57897 19.8352 7.70713 19.7071L18.7037 8.71056C18.7048 8.70942 18.706 8.70826 18.7071 8.70711C18.7083 8.70595 18.7094 8.70479 18.7106 8.70363ZM16.5858 7.99999L15 6.4142L4.90299 16.5112L4.37439 18.6256L6.48877 18.097L16.5858 7.99999ZM11 20C11 19.4477 11.4477 19 12 19H21C21.5523 19 22 19.4477 22 20C22 20.5523 21.5523 21 21 21H12C11.4477 21 11 20.5523 11 20Z" fill="black" style="fill:black;fill-opacity:1;"/>
</svg>
