<svg width="24" height="24" viewBox="0 0 24 24" fill="none" xmlns="http://www.w3.org/2000/svg">
<path d="M2 23C1.74 23 1.49 22.9 1.29 22.71C0.899998 22.32 0.899998 21.69 1.29 21.3L9.89 12.7C9.89 12.7 9.94 12.64 9.97 12.61C10 12.58 10.03 12.55 10.06 12.53L21.29 1.29C21.68 0.899998 22.31 0.899998 22.7 1.29C23.09 1.68 23.09 2.31 22.7 2.7L12.12 13.28C12.69 13.78 13.29 14.23 13.93 14.64L14.65 13.92C15.06 13.51 15.58 13.23 16.14 13.12C16.7 13 17.28 13.04 17.82 13.24C18.65 13.55 19.53 13.77 20.41 13.89C21.14 13.99 21.8 14.35 22.28 14.91C22.75 15.46 23.01 16.17 23 16.9V19.89C23 20.3 22.92 20.71 22.75 21.1C22.58 21.49 22.34 21.83 22.03 22.11C21.72 22.39 21.36 22.61 20.96 22.74C20.56 22.87 20.14 22.93 19.73 22.89C16.5 22.54 13.36 21.42 10.65 19.66C9.67 19.04 8.74 18.33 7.88 17.54L2.71 22.7C2.51 22.9 2.26 22.99 2 22.99V23ZM9.29 16.13C10.05 16.81 10.87 17.43 11.73 17.98C14.19 19.58 17.02 20.58 19.93 20.9C20.05 20.91 20.19 20.9 20.32 20.85C20.45 20.81 20.57 20.73 20.67 20.64C20.77 20.55 20.86 20.43 20.91 20.3C20.96 20.18 20.99 20.04 20.99 19.9V16.9C20.99 16.65 20.91 16.41 20.75 16.23C20.59 16.05 20.37 15.93 20.13 15.89C19.11 15.76 18.09 15.5 17.11 15.14C16.93 15.07 16.73 15.06 16.55 15.1C16.36 15.14 16.19 15.23 16.05 15.37L14.79 16.64C14.47 16.96 13.98 17.02 13.59 16.8C12.56 16.21 11.59 15.52 10.7 14.73L9.28 16.15L9.29 16.13ZM5.19 13.81C4.86 13.81 4.54 13.65 4.35 13.35C2.59 10.64 1.47 7.51 1.13 4.29C1.09 3.86 1.13 3.44 1.27 3.04C1.4 2.64 1.61 2.29 1.9 1.98C2.18 1.68 2.52 1.43 2.9 1.26C3.28 1.09 3.69 0.999998 4.11 0.999998H7.11C7.84 0.969998 8.53 1.25 9.09 1.73C9.64 2.21 10 2.86 10.1 3.59C10.22 4.48 10.43 5.35 10.75 6.19C10.95 6.73 11 7.31 10.87 7.87C10.75 8.43 10.47 8.95 10.07 9.35L8.8 10.62C8.41 11.01 7.78 11.01 7.39 10.62C7 10.23 7 9.6 7.39 9.21L8.66 7.94C8.79 7.81 8.88 7.64 8.92 7.45C8.96 7.26 8.95 7.07 8.88 6.89C8.51 5.91 8.26 4.89 8.12 3.86C8.09 3.63 7.97 3.41 7.78 3.25C7.6 3.09 7.37 3.01 7.13 3.01H4.11C3.97 3.01 3.84 3.04 3.71 3.1C3.58 3.16 3.47 3.24 3.38 3.34C3.28 3.44 3.21 3.56 3.17 3.69C3.12 3.83 3.11 3.96 3.12 4.1C3.43 6.99 4.44 9.82 6.03 12.28C6.33 12.74 6.2 13.36 5.74 13.66C5.57 13.77 5.38 13.82 5.2 13.82L5.19 13.81Z" fill="black" style="fill:black;fill-opacity:1;"/>
</svg>
