<svg width="24" height="24" viewBox="0 0 24 24" fill="none" xmlns="http://www.w3.org/2000/svg">
<path fill-rule="evenodd" clip-rule="evenodd" d="M7.10562 0.653099C8.977 0.230984 10.9381 0.506941 12.6203 1.4291C14.2835 2.34078 15.5607 3.82199 16.2183 5.59938C16.6652 6.4526 17.517 6.99996 18.5 6.99996C20.9523 6.99996 23 9.04768 23 11.5V20C23 20.7956 22.684 21.5587 22.1213 22.1213C21.5587 22.6839 20.7957 23 20 23H4.00002C3.20437 23 2.44131 22.6839 1.8787 22.1213C1.3161 21.5587 1.00002 20.7956 1.00002 20V14.0068C1.00001 14.0046 1 14.0023 1 14C1 13.9977 1.00001 13.9954 1.00002 13.9932V9.04716C0.826889 7.15465 1.34442 5.26271 2.45802 3.72135C3.58148 2.16633 5.23424 1.07522 7.10562 0.653099ZM3.00002 15V20C3.00002 20.2652 3.10538 20.5195 3.29292 20.7071C3.48045 20.8946 3.73481 21 4.00002 21H20C20.2652 21 20.5196 20.8946 20.7071 20.7071C20.8947 20.5195 21 20.2652 21 20V15H19V18C19 18.5523 18.5523 19 18 19C17.4477 19 17 18.5523 17 18V15H15V18C15 18.5523 14.5523 19 14 19C13.4477 19 13 18.5523 13 18V15H11V18C11 18.5523 10.5523 19 10 19C9.44772 19 9 18.5523 9 18V15H7V18C7 18.5523 6.55229 19 6 19C5.44772 19 5 18.5523 5 18V15H3.00002ZM3.00002 13V8.99996C3.00002 8.96741 2.99844 8.93487 2.99526 8.90247C2.85577 7.47842 3.24123 6.05244 4.07918 4.8926C4.91714 3.73276 6.14988 2.91893 7.54569 2.60408C8.9415 2.28924 10.4042 2.49507 11.659 3.18288C12.9137 3.87069 13.874 4.99311 14.3593 6.33916C14.3726 6.37604 14.3881 6.41211 14.4056 6.44718C15.1657 7.96732 16.7009 8.99996 18.5 8.99996C19.8477 8.99996 21 10.1522 21 11.5V13H3.00002Z" fill="black" style="fill:black;fill-opacity:1;"/>
</svg>
