<svg width="24" height="24" viewBox="0 0 24 24" fill="none" xmlns="http://www.w3.org/2000/svg">
<path fill-rule="evenodd" clip-rule="evenodd" d="M10.6856 1.55072C10.938 1.46712 11.2133 1.48747 11.4506 1.60728L12.4959 2.13488C12.4967 2.13532 12.4976 2.13576 12.4985 2.1362C12.9351 2.35419 13.3119 2.67539 13.5963 3.07197C13.8813 3.46936 14.0648 3.93037 14.1309 4.41488L14.1313 4.41784L14.8509 9.81488C14.8509 9.81531 14.851 9.81573 14.851 9.81616C14.8732 9.9772 14.9343 10.1304 15.029 10.2625C15.124 10.395 15.25 10.5022 15.3959 10.5749L15.3972 10.5756L19.7972 12.7756L19.814 12.7842C20.3833 13.0823 20.8926 13.5393 21.2278 14.133L21.8241 15.1567L21.8337 15.1735C22.6625 16.6619 21.7396 18.5435 20.0234 18.7524C20.022 18.7525 20.0206 18.7527 20.0192 18.7529L18.8467 18.902C18.8465 18.902 18.8468 18.9019 18.8467 18.902C18.1862 18.9862 17.5023 18.8761 16.8954 18.5607L3.8377 12.0419C3.54982 11.8959 3.28741 11.7044 3.06055 11.4747L1.29292 9.70711C1.00034 9.41453 0.918169 8.97197 1.08622 8.59386L3.08622 4.09386C3.19713 3.8443 3.40529 3.65097 3.66234 3.55874C3.91939 3.46652 4.20298 3.48344 4.44724 3.60557L5.55372 4.15881C6.42997 4.6049 7.00003 5.50387 7.00003 6.5C7.00003 6.72303 7.12898 6.94327 7.3512 7.05755L7.55282 7.15836L10.1056 2.05279C10.2245 1.81498 10.4332 1.63432 10.6856 1.55072ZM11.4455 3.84505L8.89446 8.94721C8.77585 9.18443 8.56786 9.36482 8.31626 9.44868C8.06465 9.53255 7.79003 9.51304 7.55282 9.39443L6.44633 8.84119C5.57009 8.3951 5.00003 7.49613 5.00003 6.5C5.00003 6.27697 4.87107 6.05673 4.64885 5.94244L4.48882 5.86243L3.19278 8.77853L4.48237 10.0681C4.55759 10.1445 4.64457 10.2082 4.74002 10.257L17.7967 16.7753L17.814 16.7842C18.0447 16.905 18.3174 16.9533 18.5934 16.9181L19.7809 16.7671C20.0598 16.7336 20.2342 16.4217 20.0897 16.1527L19.4959 15.1333L19.4879 15.1193C19.3642 14.8988 19.1581 14.7001 18.8934 14.5597L14.5042 12.3651C14.5039 12.365 14.5045 12.3653 14.5042 12.3651C14.0668 12.1471 13.6885 11.8252 13.4037 11.428C13.1188 11.0306 12.9353 10.5696 12.8692 10.0851L12.8688 10.0822L12.1492 4.68512C12.1491 4.68469 12.1491 4.68426 12.149 4.68384C12.1269 4.5228 12.0658 4.36959 11.971 4.23748C11.876 4.10502 11.7501 3.99779 11.6042 3.92512L11.5994 3.92273L11.4455 3.84505ZM1.00003 22C1.00003 21.4477 1.44774 21 2.00003 21H22C22.5523 21 23 21.4477 23 22C23 22.5523 22.5523 23 22 23H2.00003C1.44774 23 1.00003 22.5523 1.00003 22Z" fill="black" style="fill:black;fill-opacity:1;"/>
</svg>
