<svg width="24" height="24" viewBox="0 0 24 24" fill="none" xmlns="http://www.w3.org/2000/svg">
<path fill-rule="evenodd" clip-rule="evenodd" d="M2.69279 2.79289C3.82185 1.66384 5.35318 1.02954 6.9499 1.02954C8.54663 1.02954 10.078 1.66384 11.207 2.79289L19.307 10.8929C20.4975 12.0834 20.4975 13.9166 19.307 15.1071L17.9142 16.5L22.7071 21.2929C23.0976 21.6834 23.0976 22.3166 22.7071 22.7071C22.3166 23.0976 21.6834 23.0976 21.2929 22.7071L16.5 17.9142L15.107 19.3071C13.9039 20.5102 12.1299 20.4568 10.886 19.4894C10.8532 19.4639 10.8221 19.4364 10.7928 19.4071L2.69279 11.3071C1.56374 10.1781 0.929443 8.64672 0.929443 7.05C0.929443 5.45327 1.56374 3.92195 2.69279 2.79289ZM6.9499 3.02954C5.88361 3.02954 4.86099 3.45312 4.10701 4.20711C3.35303 4.96109 2.92944 5.98371 2.92944 7.05C2.92944 8.11629 3.35303 9.13891 4.10701 9.89289L12.1579 17.9438C12.7028 18.3401 13.3064 18.2793 13.6928 17.8929L17.8928 13.6929C18.3023 13.2834 18.3023 12.7166 17.8928 12.3071L9.7928 4.20711C9.03881 3.45312 8.01619 3.02954 6.9499 3.02954Z" fill="black" style="fill:black;fill-opacity:1;"/>
</svg>
