<svg width="24" height="24" viewBox="0 0 24 24" fill="none" xmlns="http://www.w3.org/2000/svg">
<path fill-rule="evenodd" clip-rule="evenodd" d="M4 9C3.44772 9 3 9.44772 3 10V14C3 14.5523 3.44772 15 4 15H20C20.5523 15 21 14.5523 21 14V10C21 9.44771 20.5523 9 20 9H4ZM18 17V18C18 18.5523 18.4477 19 19 19C19.5523 19 20 18.5523 20 18V17C21.6569 17 23 15.6569 23 14V10C23 8.34315 21.6569 7 20 7H4C2.34315 7 1 8.34315 1 10V14C1 15.6569 2.34315 17 4 17V18C4 18.5523 4.44772 19 5 19C5.55228 19 6 18.5523 6 18V17H18Z" fill="black" style="fill:black;fill-opacity:1;"/>
</svg>
