<svg width="24" height="24" viewBox="0 0 24 24" fill="none" xmlns="http://www.w3.org/2000/svg">
<path fill-rule="evenodd" clip-rule="evenodd" d="M9 3C8.20435 3 7.44129 3.31607 6.87868 3.87868C6.31607 4.44129 6 5.20435 6 6V9H14V7C14 6.44772 14.4477 6 15 6C15.5523 6 16 6.44772 16 7V9H18V6C18 5.20435 17.6839 4.44129 17.1213 3.87868C16.5587 3.31607 15.7956 3 15 3H9ZM20 6C20 4.67392 19.4732 3.40215 18.5355 2.46447C17.5979 1.52678 16.3261 1 15 1H9C7.67392 1 6.40215 1.52678 5.46447 2.46447C4.52678 3.40215 4 4.67392 4 6V20C4 20.7957 4.31607 21.5587 4.87868 22.1213C5.44129 22.6839 6.20435 23 7 23H17C17.7957 23 18.5587 22.6839 19.1213 22.1213C19.6839 21.5587 20 20.7957 20 20V6ZM18 11H16V13C16 13.5523 15.5523 14 15 14C14.4477 14 14 13.5523 14 13V11H6V20C6 20.2652 6.10536 20.5196 6.29289 20.7071C6.48043 20.8946 6.73478 21 7 21H17C17.2652 21 17.5196 20.8946 17.7071 20.7071C17.8946 20.5196 18 20.2652 18 20V11Z" fill="black" style="fill:black;fill-opacity:1;"/>
</svg>
