<svg width="24" height="24" viewBox="0 0 24 24" fill="none" xmlns="http://www.w3.org/2000/svg">
<path fill-rule="evenodd" clip-rule="evenodd" d="M1.29289 1.29289C1.68342 0.902369 2.31658 0.902369 2.70711 1.29289L6.33815 4.92394C6.34261 4.92829 6.34704 4.93269 6.35143 4.93714C6.35289 4.93861 6.35433 4.94008 6.35578 4.94156L22.7071 21.2929C23.0976 21.6834 23.0976 22.3166 22.7071 22.7071C22.3166 23.0976 21.6834 23.0976 21.2929 22.7071L18.328 19.7422C16.6077 21.1606 14.4016 22 12 22L11.9962 22C9.22213 21.9896 6.55946 20.9071 4.56496 18.979L4.55289 18.9671L4 18.4142V21C4 21.5523 3.55228 22 3 22C2.44772 22 2 21.5523 2 21V16C2 15.4477 2.44772 15 3 15H8C8.55228 15 9 15.4477 9 16C9 16.5523 8.55228 17 8 17H5.41421L5.96095 17.5467C7.58325 19.1121 9.74722 19.991 12.0017 20C13.8575 19.9996 15.5583 19.3764 16.9056 18.3198L5.68012 7.09433C4.6233 8.44206 4 10.1434 4 11.9999C4 12.5522 3.55228 12.9999 3 12.9999C2.44772 12.9999 2 12.5522 2 11.9999C2 9.5983 2.83942 7.39229 4.25771 5.67193L1.29289 2.70711C0.902369 2.31658 0.902369 1.68342 1.29289 1.29289ZM21 2C21.5523 2.00001 22 2.44774 22 3.00002L21.9999 8.00002C21.9999 8.5523 21.5522 9 20.9999 9H16C15.4477 9 15 8.55228 15 8C15 7.44772 15.4477 7 16 7H18.5857L18.0389 6.45323C16.4166 4.88784 14.2526 4.00896 11.998 4C11.1051 4.0002 10.2461 4.14318 9.45555 4.41548C8.93337 4.59535 8.36426 4.31784 8.1844 3.79567C8.00454 3.27349 8.28204 2.70438 8.80422 2.52452C9.81311 2.17701 10.8935 2 11.9999 2H12.0036C14.7777 2.01044 17.4404 3.09289 19.4349 5.02103L19.447 5.03289L19.9999 5.58584L20 2.99998C20 2.44769 20.4477 1.99999 21 2ZM21 11C21.5523 11 22 11.4477 22 12C22 13.1064 21.823 14.1868 21.4755 15.1957C21.2957 15.7178 20.7265 15.9953 20.2044 15.8155C19.6822 15.6356 19.4047 15.0665 19.5845 14.5443C19.857 13.7532 20 12.8936 20 12C20 11.4477 20.4477 11 21 11Z" fill="black" style="fill:black;fill-opacity:1;"/>
</svg>
