<svg width="24" height="24" viewBox="0 0 24 24" fill="none" xmlns="http://www.w3.org/2000/svg">
<path fill-rule="evenodd" clip-rule="evenodd" d="M12.0112 3.90636L8.80585 9.00005H15.1842L12.0112 3.90636ZM11.951 1.64099C12.2437 1.63048 12.5342 1.69577 12.7942 1.83053C13.0542 1.96529 13.275 2.16494 13.4352 2.41013L13.4468 2.42832L17.1383 8.35437C17.3048 8.60312 17.4028 8.89161 17.4221 9.19071C17.442 9.50018 17.3769 9.80922 17.2339 10.0844C17.0908 10.3595 16.8752 10.5903 16.6104 10.7517C16.3456 10.9131 16.0417 10.999 15.7315 11L15.728 11H8.32136C8.01949 11.0106 7.72003 10.9406 7.45391 10.7968C7.17806 10.6478 6.94878 10.4254 6.79144 10.1542C6.6341 9.883 6.55483 9.57357 6.56238 9.26013C6.56988 8.94916 6.66255 8.64625 6.83024 8.38437L10.5423 2.48556C10.6837 2.24227 10.8834 2.03773 11.1236 1.89049C11.3733 1.73744 11.6583 1.65149 11.951 1.64099ZM2 15C2 13.8954 2.89543 13 4 13H9C10.1046 13 11 13.8954 11 15V20C11 21.1046 10.1046 22 9 22H4C2.89543 22 2 21.1046 2 20V15ZM9 15H4V20H9V15ZM17.5 15C16.1193 15 15 16.1193 15 17.5C15 18.8807 16.1193 20 17.5 20C18.8807 20 20 18.8807 20 17.5C20 16.1193 18.8807 15 17.5 15ZM13 17.5C13 15.0147 15.0147 13 17.5 13C19.9853 13 22 15.0147 22 17.5C22 19.9853 19.9853 22 17.5 22C15.0147 22 13 19.9853 13 17.5Z" fill="black" style="fill:black;fill-opacity:1;"/>
</svg>
