<svg width="24" height="24" viewBox="0 0 24 24" fill="none" xmlns="http://www.w3.org/2000/svg">
<path fill-rule="evenodd" clip-rule="evenodd" d="M18 3C16.8954 3 16 3.89543 16 5C16 5.34745 16.0886 5.67421 16.2444 5.95891C16.2545 5.97424 16.2643 5.98993 16.2737 6.00598C16.283 6.02191 16.2918 6.038 16.3001 6.05421C16.6529 6.62199 17.2823 7 18 7C19.1046 7 20 6.10457 20 5C20 3.89543 19.1046 3 18 3ZM15.1581 7.81485C15.883 8.54668 16.8885 9 18 9C20.2091 9 22 7.20914 22 5C22 2.79086 20.2091 1 18 1C15.7909 1 14 2.79086 14 5C14 5.37701 14.0522 5.74185 14.1497 6.08767L8.84193 9.18514C8.11703 8.45331 7.11145 8 6 8C3.79086 8 2 9.79086 2 12C2 14.2091 3.79086 16 6 16C7.11166 16 8.1174 15.5465 8.84232 14.8145L14.1509 17.9079C14.0526 18.255 14 18.6214 14 19C14 21.2091 15.7909 23 18 23C20.2091 23 22 21.2091 22 19C22 16.7909 20.2091 15 18 15C16.8902 15 15.886 15.452 15.1613 16.1819L9.85049 13.0872C9.94789 12.7415 10 12.3768 10 12C10 11.623 9.94784 11.2581 9.85034 10.9123L15.1581 7.81485ZM7.69948 10.9451C7.70791 10.9615 7.71684 10.9779 7.72628 10.994C7.73579 11.0103 7.74568 11.0263 7.75595 11.0418C7.91155 11.3263 8 11.6528 8 12C8 12.3472 7.91153 12.6737 7.7559 12.9583C7.74553 12.974 7.73555 12.9901 7.72596 13.0065C7.71666 13.0225 7.70785 13.0386 7.69953 13.0548C7.3466 13.6223 6.71741 14 6 14C4.89543 14 4 13.1046 4 12C4 10.8954 4.89543 10 6 10C6.71737 10 7.34653 10.3777 7.69948 10.9451ZM16.2153 18.0963C16.24 18.0639 16.2629 18.0296 16.284 17.9935C16.3041 17.9589 16.322 17.9235 16.3376 17.8877C16.6965 17.3524 17.3071 17 18 17C19.1046 17 20 17.8954 20 19C20 20.1046 19.1046 21 18 21C16.8954 21 16 20.1046 16 19C16 18.6748 16.0776 18.3678 16.2153 18.0963Z" fill="black" style="fill:black;fill-opacity:1;"/>
</svg>
