<svg width="24" height="24" viewBox="0 0 24 24" fill="none" xmlns="http://www.w3.org/2000/svg">
<path fill-rule="evenodd" clip-rule="evenodd" d="M9.49614 3.13181C9.97566 3.40582 10.1423 4.01667 9.86824 4.49619L6.72318 10H8.98794C8.99682 9.99993 9.00568 9.99993 9.01452 10H14.9855C14.9943 9.99993 15.0032 9.99993 15.0121 10H17.2768L14.1318 4.49619C13.8577 4.01667 14.0243 3.40582 14.5039 3.13181C14.9834 2.8578 15.5942 3.02439 15.8682 3.50391L19.5803 10H20.5782C20.5921 9.99976 20.6061 9.99975 20.6201 10H22C22.5523 10 23 10.4478 23 11C23 11.5523 22.5523 12 22 12H21.3963L19.8771 18.6132C19.7347 19.2956 19.359 19.9074 18.8144 20.3431C18.2692 20.7793 17.5889 21.0115 16.891 21H14.0145C14.0057 21.0002 13.9968 21.0002 13.988 21H10.012C10.0032 21.0002 9.99433 21.0002 9.98552 21H7.10902C6.41108 21.0115 5.73084 20.7793 5.18559 20.3431C4.63912 19.9059 4.26274 19.2915 4.12146 18.6062L2.69311 12H2C1.44772 12 1 11.5523 1 11C1 10.4478 1.44772 10 2 10H3.4806C3.49422 9.99977 3.5078 9.99977 3.52134 10H4.41968L8.13176 3.50391C8.40577 3.02439 9.01662 2.8578 9.49614 3.13181ZM4.73932 12L5.27986 14.5H8.38274L8.10496 12H5.01756C5.00525 12.0003 4.99292 12.0003 4.98059 12H4.73932ZM10.1173 12L10.395 14.5H13.605L13.8827 12H10.1173ZM15.895 12L15.6173 14.5H18.7699L19.3442 12H19.0194C19.0071 12.0003 18.9947 12.0003 18.9824 12H15.895ZM18.3104 16.5H15.395L15.1173 19H16.9L16.9202 19.0003C17.1541 19.005 17.3823 18.9275 17.565 18.7813C17.7477 18.6351 17.8734 18.4295 17.9202 18.2003C17.9218 18.1922 17.9235 18.1842 17.9254 18.1762L18.3104 16.5ZM13.105 19L13.3827 16.5H10.6173L10.895 19H13.105ZM8.88274 19L8.60496 16.5H5.7123L6.07991 18.2002C6.12666 18.4295 6.25226 18.6351 6.43498 18.7813C6.6177 18.9275 6.84589 19.005 7.07984 19.0003L7.1 19H8.88274Z" fill="black" style="fill:black;fill-opacity:1;"/>
</svg>
