<svg width="24" height="24" viewBox="0 0 24 24" fill="none" xmlns="http://www.w3.org/2000/svg">
<path fill-rule="evenodd" clip-rule="evenodd" d="M12 3C11.7348 3 11.4804 3.10536 11.2929 3.29289C11.1054 3.48043 11 3.73478 11 4V21H13V4C13 3.73478 12.8946 3.48043 12.7071 3.29289C12.5196 3.10536 12.2652 3 12 3ZM15 6V8H19.5858L20.5858 7L19.5858 6H15ZM15 10H20C20.2652 10 20.5196 9.89464 20.7071 9.70711L22.7071 7.70711C23.0976 7.31658 23.0976 6.68342 22.7071 6.29289L20.7071 4.29289C20.5196 4.10536 20.2652 4 20 4H15C15 3.20435 14.6839 2.44129 14.1213 1.87868C13.5587 1.31607 12.7956 1 12 1C11.2044 1 10.4413 1.31607 9.87868 1.87868C9.31607 2.44129 9 3.20435 9 4H4C3.73478 4 3.48043 4.10536 3.29289 4.29289L1.29289 6.29289C0.902369 6.68342 0.902369 7.31658 1.29289 7.70711L3.29289 9.70711C3.48043 9.89464 3.73478 10 4 10H9V21H8C7.44772 21 7 21.4477 7 22C7 22.5523 7.44772 23 8 23H16C16.5523 23 17 22.5523 17 22C17 21.4477 16.5523 21 16 21H15V10ZM9 8V6H4.41421L3.41421 7L4.41421 8H9Z" fill="black" style="fill:black;fill-opacity:1;"/>
</svg>
