<svg width="24" height="24" viewBox="0 0 24 24" fill="none" xmlns="http://www.w3.org/2000/svg">
<path fill-rule="evenodd" clip-rule="evenodd" d="M6.33211 4.33211C6.09745 4.56676 6 4.82523 6 5V8C6 8.55228 5.55228 9 5 9C4.44772 9 4 8.55228 4 8V5C4 4.17477 4.40255 3.43324 4.91789 2.91789C5.43324 2.40255 6.17477 2 7 2H17C17.8252 2 18.5668 2.40255 19.0821 2.91789C19.5975 3.43324 20 4.17477 20 5V8C20 8.55228 19.5523 9 19 9C18.4477 9 18 8.55228 18 8V5C18 4.82523 17.9025 4.56676 17.6679 4.33211C17.4332 4.09745 17.1748 4 17 4H7C6.82523 4 6.56676 4.09745 6.33211 4.33211ZM3 12C3 11.4477 3.44772 11 4 11H20C20.5523 11 21 11.4477 21 12C21 12.5523 20.5523 13 20 13H4C3.44772 13 3 12.5523 3 12ZM5 15C5.55228 15 6 15.4477 6 16V19C6 19.1748 6.09745 19.4332 6.33211 19.6679C6.56676 19.9025 6.82523 20 7 20H17C17.1748 20 17.4332 19.9025 17.6679 19.6679C17.9025 19.4332 18 19.1748 18 19V16C18 15.4477 18.4477 15 19 15C19.5523 15 20 15.4477 20 16V19C20 19.8252 19.5975 20.5668 19.0821 21.0821C18.5668 21.5975 17.8252 22 17 22H7C6.17477 22 5.43324 21.5975 4.91789 21.0821C4.40255 20.5668 4 19.8252 4 19V16C4 15.4477 4.44772 15 5 15Z" fill="black" style="fill:black;fill-opacity:1;"/>
</svg>
