<svg width="24" height="24" viewBox="0 0 24 24" fill="none" xmlns="http://www.w3.org/2000/svg">
<path fill-rule="evenodd" clip-rule="evenodd" d="M19 4C18.4477 4 18 4.44772 18 5C18 5.55228 18.4477 6 19 6C19.5523 6 20 5.55228 20 5C20 4.44772 19.5523 4 19 4ZM16.1613 4.02706C16.5654 2.84775 17.6837 2 19 2C20.6569 2 22 3.34315 22 5C22 6.65685 20.6569 8 19 8C17.7052 8 16.602 7.17971 16.1817 6.03046C13.5635 6.22567 11.091 7.35268 9.22183 9.22183C7.35268 11.091 6.22567 13.5635 6.03046 16.1817C7.17971 16.602 8 17.7052 8 19C8 20.6569 6.65685 22 5 22C3.34315 22 2 20.6569 2 19C2 17.6837 2.84775 16.5654 4.02706 16.1613C4.23004 13.0197 5.56808 10.0471 7.80761 7.80761C10.0471 5.56808 13.0197 4.23004 16.1613 4.02706ZM5 18C4.44772 18 4 18.4477 4 19C4 19.5523 4.44772 20 5 20C5.55228 20 6 19.5523 6 19C6 18.4477 5.55228 18 5 18Z" fill="black" style="fill:black;fill-opacity:1;"/>
</svg>
