<svg width="24" height="24" viewBox="0 0 24 24" fill="none" xmlns="http://www.w3.org/2000/svg">
<path fill-rule="evenodd" clip-rule="evenodd" d="M5 4C4.44772 4 4 4.44772 4 5V19C4 19.5523 4.44771 20 5 20H6V19C6 18.2043 6.31607 17.4413 6.87868 16.8787C7.44129 16.3161 8.20435 16 9 16H15C15.7957 16 16.5587 16.3161 17.1213 16.8787C17.6839 17.4413 18 18.2043 18 19V20H19C19.5523 20 20 19.5523 20 19V5C20 4.44771 19.5523 4 19 4H5ZM19 22C20.6569 22 22 20.6569 22 19V5C22 3.34315 20.6569 2 19 2H5C3.34315 2 2 3.34315 2 5V19C2 20.6569 3.34315 22 5 22H19ZM16 20V19C16 18.7348 15.8946 18.4804 15.7071 18.2929C15.5196 18.1054 15.2652 18 15 18H9C8.73478 18 8.48043 18.1054 8.29289 18.2929C8.10536 18.4804 8 18.7348 8 19V20H16ZM12 8C10.8954 8 10 8.89543 10 10C10 11.1046 10.8954 12 12 12C13.1046 12 14 11.1046 14 10C14 8.89543 13.1046 8 12 8ZM8 10C8 7.79086 9.79086 6 12 6C14.2091 6 16 7.79086 16 10C16 12.2091 14.2091 14 12 14C9.79086 14 8 12.2091 8 10Z" fill="black" style="fill:black;fill-opacity:1;"/>
</svg>
