<svg width="24" height="24" viewBox="0 0 24 24" fill="none" xmlns="http://www.w3.org/2000/svg">
<path fill-rule="evenodd" clip-rule="evenodd" d="M5.50711 5.50711C4.47511 6.5391 4 8.39285 4 12C4 15.6071 4.47511 17.4609 5.50711 18.4929C6.5391 19.5249 8.39285 20 12 20C15.6071 20 17.4609 19.5249 18.4929 18.4929C19.5249 17.4609 20 15.6071 20 12C20 8.39285 19.5249 6.5391 18.4929 5.50711C17.4609 4.47511 15.6071 4 12 4C8.39285 4 6.5391 4.47511 5.50711 5.50711ZM4.09289 4.09289C5.7609 2.42489 8.40715 2 12 2C15.5929 2 18.2391 2.42489 19.9071 4.09289C21.5751 5.7609 22 8.40715 22 12C22 15.5929 21.5751 18.2391 19.9071 19.9071C18.2391 21.5751 15.5929 22 12 22C8.40715 22 5.7609 21.5751 4.09289 19.9071C2.42489 18.2391 2 15.5929 2 12C2 8.40715 2.42489 5.7609 4.09289 4.09289Z" fill="black" style="fill:black;fill-opacity:1;"/>
</svg>
