<svg width="24" height="24" viewBox="0 0 24 24" fill="none" xmlns="http://www.w3.org/2000/svg">
<path fill-rule="evenodd" clip-rule="evenodd" d="M6 3C5.44772 3 5 3.44772 5 4V20C5 20.5523 5.44771 21 6 21H8C8.55229 21 9 20.5523 9 20V4C9 3.44772 8.55228 3 8 3H6ZM3 4C3 2.34315 4.34315 1 6 1H8C9.65685 1 11 2.34315 11 4V20C11 21.6569 9.65685 23 8 23H6C4.34315 23 3 21.6569 3 20V4ZM16 3C15.4477 3 15 3.44772 15 4V20C15 20.5523 15.4477 21 16 21H18C18.5523 21 19 20.5523 19 20V4C19 3.44772 18.5523 3 18 3H16ZM13 4C13 2.34315 14.3431 1 16 1H18C19.6569 1 21 2.34315 21 4V20C21 21.6569 19.6569 23 18 23H16C14.3431 23 13 21.6569 13 20V4Z" fill="black" style="fill:black;fill-opacity:1;"/>
</svg>
