<svg width="24" height="24" viewBox="0 0 24 24" fill="none" xmlns="http://www.w3.org/2000/svg">
<path fill-rule="evenodd" clip-rule="evenodd" d="M4 3C3.44772 3 3 3.44772 3 4C3 4.55228 3.44772 5 4 5C4.55229 5 5 4.55228 5 4C5 3.44772 4.55229 3 4 3ZM1 4C1 2.34315 2.34315 1 4 1C5.65685 1 7 2.34315 7 4C7 5.65685 5.65685 7 4 7C2.34315 7 1 5.65685 1 4ZM16.2929 1.29289C16.6834 0.902369 17.3166 0.902369 17.7071 1.29289L20.7071 4.29289C21.0976 4.68342 21.0976 5.31658 20.7071 5.70711C20.3166 6.09763 19.6834 6.09763 19.2929 5.70711L18 4.41421V6.58579L20.7071 9.29289C21.0976 9.68342 21.0976 10.3166 20.7071 10.7071C20.3166 11.0976 19.6834 11.0976 19.2929 10.7071L18 9.41421V13.7132L22.848 21.47C23.0407 21.7783 23.0509 22.1668 22.8746 22.4848C22.6984 22.8027 22.3635 23 22 23H14.0173C14.0064 23.0002 13.9955 23.0002 13.9846 23H2C1.63648 23 1.30158 22.8027 1.12536 22.4848C0.949132 22.1668 0.959334 21.7783 1.152 21.47L6.152 13.47C6.33474 13.1776 6.65521 13 7 13H8.98267C8.9936 12.9998 9.00452 12.9998 9.01544 13H16V9.41421L14.7071 10.7071C14.3166 11.0976 13.6834 11.0976 13.2929 10.7071C12.9024 10.3166 12.9024 9.68342 13.2929 9.29289L16 6.58579V4.41421L14.7071 5.70711C14.3166 6.09763 13.6834 6.09763 13.2929 5.70711C12.9024 5.31658 12.9024 4.68342 13.2929 4.29289L16.2929 1.29289ZM16.4458 15H10.8042L14.5542 21H20.1958L16.4458 15ZM12.1958 21L9 15.8868V21H12.1958ZM7 21V15.8868L3.80425 21H7Z" fill="black" style="fill:black;fill-opacity:1;"/>
</svg>
