<svg width="24" height="24" viewBox="0 0 24 24" fill="none" xmlns="http://www.w3.org/2000/svg">
<path fill-rule="evenodd" clip-rule="evenodd" d="M9.49613 2.13626C9.97318 1.85798 10.5855 2.01912 10.8638 2.49617L12 4.44398L13.1362 2.49617C13.4145 2.01912 14.0268 1.85798 14.5039 2.13626C14.9809 2.41454 15.1421 3.02686 14.8638 3.50391L13.1577 6.42861L21.0744 20H22C22.5523 20 23 20.4478 23 21C23 21.5523 22.5523 22 22 22H20.519C20.5069 22.0003 20.4949 22.0003 20.4829 22H15.519C15.5069 22.0003 15.4949 22.0003 15.4829 22H8.5171C8.50509 22.0003 8.49306 22.0003 8.48102 22H3.5171C3.50509 22.0003 3.49306 22.0003 3.48102 22H2C1.44772 22 1 21.5523 1 21C1 20.4478 1.44772 20 2 20H2.92563L10.8423 6.42861L9.13622 3.50391C8.85794 3.02686 9.01908 2.41454 9.49613 2.13626ZM12 8.41325L5.24104 20H7.92563L11.1362 14.4962C11.3154 14.189 11.6443 14 12 14C12.3557 14 12.6846 14.189 12.8638 14.4962L16.0744 20H18.759L12 8.41325ZM13.759 20L12 16.9847L10.241 20H13.759Z" fill="black" style="fill:black;fill-opacity:1;"/>
</svg>
