<svg width="24" height="24" viewBox="0 0 24 24" fill="none" xmlns="http://www.w3.org/2000/svg">
<path fill-rule="evenodd" clip-rule="evenodd" d="M2 6.1001C2 5.54781 2.44772 5.1001 3 5.1001H17C17.5523 5.1001 18 5.54781 18 6.1001C18 6.65238 17.5523 7.1001 17 7.1001H3C2.44772 7.1001 2 6.65238 2 6.1001ZM2 12.1001C2 11.5478 2.44772 11.1001 3 11.1001H21C21.5523 11.1001 22 11.5478 22 12.1001C22 12.6524 21.5523 13.1001 21 13.1001H3C2.44772 13.1001 2 12.6524 2 12.1001ZM2 18C2 17.4477 2.44772 17 3 17H15.1C15.6523 17 16.1 17.4477 16.1 18C16.1 18.5523 15.6523 19 15.1 19H3C2.44772 19 2 18.5523 2 18Z" fill="black" style="fill:black;fill-opacity:1;"/>
</svg>
