<svg width="24" height="24" viewBox="0 0 24 24" fill="none" xmlns="http://www.w3.org/2000/svg">
<path fill-rule="evenodd" clip-rule="evenodd" d="M2.87868 2.87868C3.44129 2.31607 4.20435 2 5 2C5.55228 2 6 2.44772 6 3C6 3.55228 5.55228 4 5 4C4.73478 4 4.48043 4.10536 4.29289 4.29289C4.10536 4.48043 4 4.73478 4 5C4 5.55228 3.55228 6 3 6C2.44772 6 2 5.55228 2 5C2 4.20435 2.31607 3.44129 2.87868 2.87868ZM8 3C8 2.44772 8.44772 2 9 2H10C10.5523 2 11 2.44772 11 3C11 3.55228 10.5523 4 10 4H9C8.44772 4 8 3.55228 8 3ZM13 3C13 2.44772 13.4477 2 14 2H15C15.5523 2 16 2.44772 16 3C16 3.55228 15.5523 4 15 4H14C13.4477 4 13 3.55228 13 3ZM18 3C18 2.44772 18.4477 2 19 2C19.7957 2 20.5587 2.31607 21.1213 2.87868C21.6839 3.44129 22 4.20435 22 5C22 5.55228 21.5523 6 21 6C20.4477 6 20 5.55228 20 5C20 4.73478 19.8946 4.48043 19.7071 4.29289C19.5196 4.10536 19.2652 4 19 4C18.4477 4 18 3.55228 18 3ZM6 8C6 7.44772 6.44772 7 7 7H15C15.5523 7 16 7.44772 16 8C16 8.55228 15.5523 9 15 9H7C6.44772 9 6 8.55228 6 8ZM3 8C3.55228 8 4 8.44772 4 9V10C4 10.5523 3.55228 11 3 11C2.44772 11 2 10.5523 2 10V9C2 8.44772 2.44772 8 3 8ZM21 8C21.5523 8 22 8.44772 22 9V10C22 10.5523 21.5523 11 21 11C20.4477 11 20 10.5523 20 10V9C20 8.44772 20.4477 8 21 8ZM6 12C6 11.4477 6.44772 11 7 11H17C17.5523 11 18 11.4477 18 12C18 12.5523 17.5523 13 17 13H7C6.44772 13 6 12.5523 6 12ZM3 13C3.55228 13 4 13.4477 4 14V15C4 15.5523 3.55228 16 3 16C2.44772 16 2 15.5523 2 15V14C2 13.4477 2.44772 13 3 13ZM21 13C21.5523 13 22 13.4477 22 14V15C22 15.5523 21.5523 16 21 16C20.4477 16 20 15.5523 20 15V14C20 13.4477 20.4477 13 21 13ZM6 16C6 15.4477 6.44772 15 7 15H13C13.5523 15 14 15.4477 14 16C14 16.5523 13.5523 17 13 17H7C6.44772 17 6 16.5523 6 16ZM3 18C3.55228 18 4 18.4477 4 19C4 19.2652 4.10536 19.5196 4.29289 19.7071C4.48043 19.8946 4.73478 20 5 20C5.55228 20 6 20.4477 6 21C6 21.5523 5.55228 22 5 22C4.20435 22 3.44129 21.6839 2.87868 21.1213C2.31607 20.5587 2 19.7957 2 19C2 18.4477 2.44772 18 3 18ZM21 18C21.5523 18 22 18.4477 22 19C22 19.7957 21.6839 20.5587 21.1213 21.1213C20.5587 21.6839 19.7957 22 19 22C18.4477 22 18 21.5523 18 21C18 20.4477 18.4477 20 19 20C19.2652 20 19.5196 19.8946 19.7071 19.7071C19.8946 19.5196 20 19.2652 20 19C20 18.4477 20.4477 18 21 18ZM8 21C8 20.4477 8.44772 20 9 20H10C10.5523 20 11 20.4477 11 21C11 21.5523 10.5523 22 10 22H9C8.44772 22 8 21.5523 8 21ZM13 21C13 20.4477 13.4477 20 14 20H15C15.5523 20 16 20.4477 16 21C16 21.5523 15.5523 22 15 22H14C13.4477 22 13 21.5523 13 21Z" fill="black" style="fill:black;fill-opacity:1;"/>
</svg>
