<svg width="24" height="24" viewBox="0 0 24 24" fill="none" xmlns="http://www.w3.org/2000/svg">
<path fill-rule="evenodd" clip-rule="evenodd" d="M6.50004 3C6.28367 3 6.07314 3.07018 5.90004 3.2C5.72705 3.32975 5.60077 3.51207 5.54015 3.71963L3.21015 11.7196C3.16668 11.8687 3.1584 12.0261 3.18617 12.1789C3.21394 12.3316 3.27689 12.4758 3.37004 12.6C3.46319 12.7242 3.58397 12.825 3.72283 12.8944C3.86168 12.9639 4.01479 13 4.17004 13H10C10.3068 13 10.5965 13.1408 10.7861 13.3819C10.9757 13.623 11.0442 13.9378 10.9718 14.2359L9.97182 18.3559L9.97089 18.3597C9.89396 18.6713 9.88844 18.9962 9.95473 19.3102C10.021 19.6242 10.1574 19.9192 10.3537 20.1731C10.55 20.427 10.8012 20.6333 11.0884 20.7765C11.1976 20.8309 11.311 20.8757 11.4272 20.9105L14.5545 14.665C14.5548 14.6644 14.5551 14.6639 14.5554 14.6633C14.8037 14.1642 15.1863 13.7442 15.6601 13.4504C15.7698 13.3824 15.8833 13.3218 16 13.2688V3H6.50004ZM6.50004 1C5.85093 1 5.21933 1.21053 4.70004 1.6C4.18075 1.98947 3.80179 2.53685 3.62004 3.16L1.29004 11.16C1.29 11.1601 1.29007 11.1599 1.29004 11.16C1.15973 11.607 1.13514 12.0786 1.21843 12.5367C1.30174 12.9949 1.4906 13.4274 1.77004 13.8C2.04948 14.1726 2.41183 14.475 2.8284 14.6833C3.24496 14.8916 3.7043 15 4.17004 15H8.72829L8.02919 17.8803C8.02902 17.881 8.02885 17.8817 8.02868 17.8824C7.88001 18.4859 7.86947 19.1152 7.99787 19.7234C8.12641 20.3322 8.39089 20.9042 8.77153 21.3965C9.15217 21.8888 9.63914 22.2887 10.196 22.5663C10.753 22.844 11.3654 22.9922 11.9877 22.9999C12.3707 23.0047 12.7227 22.7902 12.8942 22.4477L16.3442 15.5577L16.3456 15.555C16.4284 15.3884 16.556 15.2482 16.7141 15.1501C16.8722 15.0521 17.0545 15.0001 17.2406 15H20C20.7957 15 21.5588 14.6839 22.1214 14.1213C22.684 13.5587 23 12.7957 23 12V4C23 3.20435 22.684 2.44129 22.1214 1.87868C21.5587 1.31607 20.7957 1 20 1H6.50004ZM18 3V13H20C20.2653 13 20.5196 12.8946 20.7071 12.7071C20.8947 12.5196 21 12.2652 21 12V4C21 3.73478 20.8947 3.48043 20.7071 3.29289C20.5196 3.10536 20.2653 3 20 3H18Z" fill="black" style="fill:black;fill-opacity:1;"/>
</svg>
