<svg width="24" height="24" viewBox="0 0 24 24" fill="none" xmlns="http://www.w3.org/2000/svg">
<path fill-rule="evenodd" clip-rule="evenodd" d="M1.87868 4.87868C2.44129 4.31607 3.20435 4 4 4H20C20.7957 4 21.5587 4.31607 22.1213 4.87868C22.6839 5.44129 23 6.20435 23 7V9C23 9.55228 22.5523 10 22 10C21.4696 10 20.9609 10.2107 20.5858 10.5858C20.2107 10.9609 20 11.4696 20 12C20 12.5304 20.2107 13.0391 20.5858 13.4142C20.9609 13.7893 21.4696 14 22 14C22.5523 14 23 14.4477 23 15V17C23 17.7957 22.6839 18.5587 22.1213 19.1213C21.5587 19.6839 20.7957 20 20 20H4C3.20435 20 2.44129 19.6839 1.87868 19.1213C1.31607 18.5587 1 17.7956 1 17V15C1 14.4477 1.44772 14 2 14C2.53043 14 3.03914 13.7893 3.41421 13.4142C3.78929 13.0391 4 12.5304 4 12C4 11.4696 3.78929 10.9609 3.41421 10.5858C3.03914 10.2107 2.53043 10 2 10C1.44772 10 1 9.55228 1 9V7C1 6.20435 1.31607 5.44129 1.87868 4.87868ZM4 6C3.73478 6 3.48043 6.10536 3.29289 6.29289C3.10536 6.48043 3 6.73478 3 7V8.12701C3.68603 8.30416 4.31889 8.66203 4.82843 9.17157C5.57857 9.92172 6 10.9391 6 12C6 13.0609 5.57857 14.0783 4.82843 14.8284C4.31889 15.338 3.68603 15.6958 3 15.873V17C3 17.2652 3.10536 17.5196 3.29289 17.7071C3.48043 17.8946 3.73478 18 4 18H20C20.2652 18 20.5196 17.8946 20.7071 17.7071C20.8946 17.5196 21 17.2652 21 17V15.873C20.314 15.6958 19.6811 15.338 19.1716 14.8284C18.4214 14.0783 18 13.0609 18 12C18 10.9391 18.4214 9.92172 19.1716 9.17157C19.6811 8.66203 20.314 8.30416 21 8.12701V7C21 6.73478 20.8946 6.48043 20.7071 6.29289C20.5196 6.10536 20.2652 6 20 6H4ZM12 8C12.5523 8 13 8.44772 13 9V11H15C15.5523 11 16 11.4477 16 12C16 12.5523 15.5523 13 15 13H13V15C13 15.5523 12.5523 16 12 16C11.4477 16 11 15.5523 11 15V13H9C8.44772 13 8 12.5523 8 12C8 11.4477 8.44772 11 9 11H11V9C11 8.44772 11.4477 8 12 8Z" fill="black" style="fill:black;fill-opacity:1;"/>
</svg>
