<svg width="24" height="24" viewBox="0 0 24 24" fill="none" xmlns="http://www.w3.org/2000/svg">
<path fill-rule="evenodd" clip-rule="evenodd" d="M2 4C2 3.44772 2.44772 3 3 3H21C21.5523 3 22 3.44772 22 4C22 4.55228 21.5523 5 21 5H3C2.44772 5 2 4.55228 2 4ZM5 8C5 7.44772 5.44772 7 6 7H18C18.5523 7 19 7.44772 19 8C19 8.55228 18.5523 9 18 9H6C5.44772 9 5 8.55228 5 8ZM8 12C8 11.4477 8.44772 11 9 11H19C19.5523 11 20 11.4477 20 12C20 12.5523 19.5523 13 19 13H9C8.44772 13 8 12.5523 8 12ZM9 16C9 15.4477 9.44772 15 10 15H16C16.5523 15 17 15.4477 17 16C17 16.5523 16.5523 17 16 17H10C9.44772 17 9 16.5523 9 16ZM8 20C8 19.4477 8.44772 19 9 19H11C11.5523 19 12 19.4477 12 20C12 20.5523 11.5523 21 11 21H9C8.44772 21 8 20.5523 8 20Z" fill="black" style="fill:black;fill-opacity:1;"/>
</svg>
