<svg width="24" height="24" viewBox="0 0 24 24" fill="none" xmlns="http://www.w3.org/2000/svg">
<path fill-rule="evenodd" clip-rule="evenodd" d="M4.58579 3.58579C4.96086 3.21071 5.46957 3 6 3H9C9.52725 3 10.0443 3.18011 10.4321 3.56789C10.8199 3.95567 11 4.47275 11 5V7H13V5C13 4.46957 13.2107 3.96086 13.5858 3.58579C13.9609 3.21071 14.4696 3 15 3H18C18.5272 3 19.0443 3.18011 19.4321 3.56789C19.8199 3.95567 20 4.47275 20 5V7C21.1046 7 22 7.89543 22 9V19C22 20.1046 21.1046 21 20 21H4C2.89543 21 2 20.1046 2 19V9C2 7.89543 2.89543 7 4 7V5C4 4.46957 4.21071 3.96086 4.58579 3.58579ZM4 9V19H20V9H4ZM9 7H6V5L9 5V7ZM15 7H18V5L15 5V7Z" fill="black" style="fill:black;fill-opacity:1;"/>
</svg>
