<svg width="24" height="24" viewBox="0 0 24 24" fill="none" xmlns="http://www.w3.org/2000/svg">
<path fill-rule="evenodd" clip-rule="evenodd" d="M2 4C2 3.44772 2.44772 3 3 3H12C12.4995 3 12.9223 3.36852 12.9906 3.86329L13.8809 10.3142L16 10.4876V6C16 5.46957 16.2107 4.96086 16.5858 4.58579C16.9609 4.21071 17.4696 4 18 4C18.5523 4 19 4.44772 19 5C19 5.55228 18.5523 6 18 6V10.6512L21.0476 10.9006C21.6348 10.9143 22.1587 11.1816 22.4865 11.6585C22.8023 12.1178 22.8682 12.6686 22.787 13.1607C22.7868 13.1619 22.7866 13.1632 22.7864 13.1644L21.9874 18.158C21.9098 18.6431 21.4913 19 21 19H20.8293C20.4175 20.1652 19.3062 21 18 21C16.6938 21 15.5825 20.1652 15.1707 19H11.4722C10.3736 20.2275 8.777 21 7 21C3.68629 21 1 18.3137 1 15C1 13.223 1.7725 11.6264 3 10.5278V5C2.44772 5 2 4.55228 2 4ZM5 5V9.34141C5.62556 9.12031 6.29873 9 7 9V5H5ZM9 5V9.34141C9.48355 9.51232 9.93865 9.74346 10.3563 10.0258L11.8389 10.1471L11.1285 5H9ZM12.8789 12.2389L12.3036 12.1918C12.7482 13.0297 13 13.9854 13 15C13 15.7013 12.8797 16.3744 12.6586 17H15.1707C15.5825 15.8348 16.6938 15 18 15C18.9215 15 19.7459 15.4154 20.2962 16.0692L20.8053 12.8874L16.9429 12.5714C16.9258 12.5704 16.9088 12.569 16.8919 12.5672L12.9563 12.2452C12.9303 12.2441 12.9044 12.242 12.8789 12.2389ZM20.8168 12.7498C20.8169 12.7498 20.8171 12.7505 20.8174 12.7518L20.8168 12.7498ZM10.2132 17.3828C10.7075 16.7172 11 15.8928 11 15C11 13.7001 10.38 12.5451 9.41953 11.8145C9.40641 11.8051 9.39352 11.7954 9.38089 11.7854C8.71567 11.2919 7.89192 11 7 11C6.10723 11 5.28277 11.2925 4.61721 11.7868C4.60586 11.7958 4.5943 11.8044 4.58256 11.8129C3.62093 12.5434 3 13.6992 3 15C3 17.2091 4.79086 19 7 19C8.3008 19 9.45658 18.3791 10.1871 17.4174C10.1955 17.4057 10.2042 17.3941 10.2132 17.3828ZM6 15C6 14.4477 6.44772 14 7 14H7.01C7.56228 14 8.01 14.4477 8.01 15C8.01 15.5523 7.56228 16 7.01 16H7C6.44772 16 6 15.5523 6 15ZM18 17C17.4477 17 17 17.4477 17 18C17 18.5523 17.4477 19 18 19C18.5523 19 19 18.5523 19 18C19 17.4477 18.5523 17 18 17Z" fill="black" style="fill:black;fill-opacity:1;"/>
</svg>
