<svg width="24" height="24" viewBox="0 0 24 24" fill="none" xmlns="http://www.w3.org/2000/svg">
<path fill-rule="evenodd" clip-rule="evenodd" d="M12 3C9.61305 3 7.32387 3.94821 5.63604 5.63604C3.94821 7.32387 3 9.61305 3 12V22C3 22.5523 2.55228 23 2 23C1.44772 23 1 22.5523 1 22V12C1 9.08262 2.15893 6.28473 4.22183 4.22183C6.28473 2.15893 9.08262 1 12 1C14.9174 1 17.7153 2.15893 19.7782 4.22183C21.8411 6.28473 23 9.08262 23 12V22C23 22.5523 22.5523 23 22 23C21.4477 23 21 22.5523 21 22V12C21 9.61305 20.0518 7.32387 18.364 5.63604C16.6761 3.94821 14.3869 3 12 3ZM8.58057 5.89199C8.5261 5.9172 8.47428 5.94716 8.42564 5.98135C7.92857 6.27653 7.46596 6.63455 7.05025 7.05025C5.7375 8.36301 5 10.1435 5 12V15C5 16.3261 5.52678 17.5979 6.46447 18.5355C6.79177 18.8628 7.15978 19.1401 7.5566 19.3623L6.16795 21.4453C5.8616 21.9048 5.98577 22.5257 6.4453 22.8321C6.90483 23.1384 7.5257 23.0142 7.83205 22.5547L9.54878 19.9796C9.6982 19.9931 9.84875 20 10 20H14C14.1513 20 14.3018 19.9931 14.4512 19.9796L16.1679 22.5547C16.4743 23.0142 17.0952 23.1384 17.5547 22.8321C18.0142 22.5257 18.1384 21.9048 17.8321 21.4453L16.4434 19.3623C16.8402 19.1401 17.2082 18.8628 17.5355 18.5355C18.4732 17.5979 19 16.3261 19 15V12C19 10.1435 18.2625 8.36301 16.9497 7.05025C16.534 6.63455 16.0714 6.27653 15.5744 5.98134C15.5257 5.94716 15.4739 5.9172 15.4194 5.89199C14.3837 5.31223 13.208 5 12 5C10.792 5 9.61626 5.31223 8.58057 5.89199ZM14 7.41742C13.3751 7.1447 12.695 7 12 7C11.305 7 10.6249 7.1447 10 7.41742V8.20005C10 8.6543 10.1927 9.10516 10.561 9.44889C10.9316 9.7948 11.4482 10 12 10C12.5518 10 13.0684 9.7948 13.439 9.44889C13.8073 9.10516 14 8.6543 14 8.20005V7.41742ZM15.93 8.90877C16.6196 9.78552 17 10.8731 17 12V15C17 15.7956 16.6839 16.5587 16.1213 17.1213C15.5587 17.6839 14.7956 18 14 18H10C9.20435 18 8.44129 17.6839 7.87868 17.1213C7.31607 16.5587 7 15.7956 7 15V12C7 10.8732 7.38038 9.78552 8.07005 8.90878C8.22204 9.67023 8.61582 10.3692 9.19636 10.911C9.95096 11.6153 10.9605 12 12 12C13.0395 12 14.049 11.6153 14.8036 10.911C15.3842 10.3692 15.778 9.67023 15.93 8.90877ZM9 15C9 14.4477 9.44772 14 10 14H10.01C10.5623 14 11.01 14.4477 11.01 15C11.01 15.5523 10.5623 16 10.01 16H10C9.44772 16 9 15.5523 9 15ZM13 15C13 14.4477 13.4477 14 14 14H14.01C14.5623 14 15.01 14.4477 15.01 15C15.01 15.5523 14.5623 16 14.01 16H14C13.4477 16 13 15.5523 13 15Z" fill="black" style="fill:black;fill-opacity:1;"/>
</svg>
