<svg width="24" height="24" viewBox="0 0 24 24" fill="none" xmlns="http://www.w3.org/2000/svg">
<path fill-rule="evenodd" clip-rule="evenodd" d="M13.0009 2C13.2784 2.00023 13.5433 2.11574 13.7323 2.3189L17.7233 6.60923C18.0048 6.89853 18.1923 7.26637 18.2609 7.66446C18.3305 8.06867 18.2742 8.48452 18.0996 8.85564C18.0036 9.05956 17.8745 9.24456 17.7186 9.4037L19.7295 11.6158C19.9952 11.8928 20.1757 12.2405 20.2491 12.6175C20.324 13.0018 20.2845 13.3996 20.1354 13.7616C20.0371 14.0005 19.8939 14.2168 19.7148 14.3996L21.7295 16.6158C21.9952 16.8928 22.1757 17.2405 22.2491 17.6175C22.324 18.0018 22.2845 18.3996 22.1354 18.7616C21.9863 19.1236 21.7343 19.4339 21.4106 19.654C21.0868 19.8741 20.7056 19.9944 20.3141 19.9999L20.3001 20.0001L14 20V22C14 22.5523 13.5523 23 13 23C12.4477 23 12 22.5523 12 22V20C11.4478 19.9999 11.0001 19.5523 11.0001 19C11.0001 18.4477 11.4478 18 12.0001 18H20.286C20.2772 17.9911 20.2686 17.9819 20.2602 17.9727L17.2602 14.6727C16.9939 14.3798 16.9255 13.9574 17.0856 13.5954C17.2457 13.2335 17.6043 13 18.0001 13H18.286C18.2772 12.9911 18.2686 12.9819 18.2602 12.9727L15.2602 9.67267C14.9939 9.37979 14.9255 8.95743 15.0856 8.59545C15.2457 8.23347 15.6043 8 16.0001 8H16.2001C16.2301 8 16.2601 8.00135 16.2899 8.00404C16.2825 7.99651 16.2751 7.98887 16.2679 7.9811L12.9989 4.4669L12.3312 5.18232C11.9543 5.58607 11.3215 5.60789 10.9178 5.23106C10.514 4.85422 10.4922 4.22143 10.869 3.81768L12.269 2.31768C12.4584 2.11484 12.7235 1.99977 13.0009 2ZM7.0001 8C6.46966 8 5.96096 8.21071 5.58588 8.58579C5.21081 8.96086 5.0001 9.46957 5.0001 10V10.2C5.0001 10.6141 4.7449 10.9853 4.3583 11.1336C3.92606 11.2995 3.56474 11.6101 3.33596 12.0126C3.10719 12.4151 3.02513 12.8845 3.10379 13.3407C3.18246 13.797 3.41696 14.2118 3.76731 14.5144C4.11484 14.8146 4.555 14.986 5.0138 15H8.90783C9.37625 15.0036 9.83108 14.8427 10.193 14.5454C10.5549 14.248 10.801 13.833 10.8883 13.3728C10.9756 12.9125 10.8985 12.4363 10.6706 12.027C10.4427 11.6178 10.0784 11.3015 9.64116 11.1334C9.25495 10.9848 9.0001 10.6138 9.0001 10.2V10C9.0001 9.46957 8.78938 8.96086 8.41431 8.58579C8.03924 8.21071 7.53053 8 7.0001 8ZM6 17V22C6 22.5523 6.44772 23 7 23C7.55229 23 8 22.5523 8 22V17H8.89646C9.83185 17.0063 10.7399 16.6845 11.4627 16.0906C12.1866 15.4959 12.6787 14.6659 12.8532 13.7454C13.0278 12.825 12.8738 11.8724 12.4179 11.0539C12.0744 10.437 11.5758 9.92573 10.9766 9.56733C10.8786 8.66558 10.476 7.81903 9.82852 7.17157C9.07838 6.42143 8.06096 6 7.0001 6C5.93923 6 4.92182 6.42143 4.17167 7.17157C3.52434 7.81891 3.12179 8.66527 3.02361 9.56683C2.43352 9.91928 1.94067 10.4201 1.59721 11.0243C1.13966 11.8293 0.975552 12.7681 1.13287 13.6806C1.2902 14.593 1.7592 15.4226 2.4599 16.0279C3.1606 16.6332 4.04958 16.9767 4.97522 16.9997C4.98351 16.9999 4.99181 17 5.0001 17H6Z" fill="black" style="fill:black;fill-opacity:1;"/>
</svg>
