<svg width="24" height="24" viewBox="0 0 24 24" fill="none" xmlns="http://www.w3.org/2000/svg">
<path fill-rule="evenodd" clip-rule="evenodd" d="M1.2929 1.29289C1.68342 0.902369 2.31659 0.902369 2.70711 1.29289L6.08662 4.6724C6.11908 4.70088 6.15006 4.73178 6.1793 4.76508L22.7071 21.2929C23.0976 21.6834 23.0976 22.3166 22.7071 22.7071C22.3166 23.0976 21.6834 23.0976 21.2929 22.7071L13 14.4142V20C13 20.0327 12.9984 20.0654 12.9952 20.0979C12.9757 20.296 13.0263 20.4946 13.1383 20.6591C13.2502 20.8237 13.4163 20.9438 13.6076 20.9984C13.799 21.0531 14.0034 21.0389 14.1854 20.9583C14.3673 20.8777 14.5152 20.7358 14.6033 20.5574C14.8478 20.0622 15.4474 19.8589 15.9427 20.1034C16.4379 20.3478 16.6412 20.9475 16.3967 21.4427C16.1013 22.041 15.6054 22.5167 14.9954 22.787C14.3853 23.0572 13.6997 23.1048 13.0582 22.9215C12.4166 22.7382 11.8597 22.3356 11.4845 21.7838C11.1194 21.2471 10.9489 20.6023 11 19.9563V13H2C1.71728 13 1.44777 12.8804 1.25818 12.6706C1.06859 12.4609 0.976633 12.1807 1.00508 11.8994C1.25242 9.45348 2.31047 7.17176 3.99446 5.40867L1.2929 2.70711C0.902373 2.31658 0.902373 1.68342 1.2929 1.29289ZM5.40913 6.82334C4.30447 7.99179 3.53356 9.4347 3.17566 11H9.58584L5.40913 6.82334ZM13 2.02173C13.1806 2.03743 13.3611 2.0576 13.5412 2.08227C15.1662 2.30491 16.7209 2.88813 18.0914 3.78926C19.4619 4.69038 20.6136 5.88659 21.462 7.29031C22.3105 8.69403 22.8343 10.2697 22.9951 11.902C23.0228 12.183 22.9304 12.4625 22.7409 12.6716C22.5513 12.8808 22.2822 13.0001 21.9999 13.0001H17.4999C16.9476 13.0001 16.4999 12.5524 16.4999 12.0001C16.4999 11.4478 16.9476 11.0001 17.4999 11.0001H20.8275C20.6151 10.0586 20.2521 9.15499 19.7504 8.32488C19.0562 7.17639 18.1139 6.19767 16.9926 5.46039C15.8713 4.7231 14.5993 4.24592 13.2697 4.06376C12.9115 4.01469 12.5516 3.98736 12.1918 3.98162C12.1298 3.99368 12.0656 4 12 4C11.9377 4 11.8768 3.99431 11.8177 3.98342C10.9678 4.00518 10.1228 4.14733 9.30833 4.40762C8.78225 4.57575 8.2195 4.28557 8.05137 3.7595C7.88325 3.23343 8.17342 2.67067 8.69949 2.50254C9.44962 2.26281 10.2209 2.10508 11 2.03051V2C11 1.44772 11.4477 1 12 1C12.5523 1 13 1.44772 13 2V2.02173Z" fill="black" style="fill:black;fill-opacity:1;"/>
</svg>
