<svg width="24" height="24" viewBox="0 0 24 24" fill="none" xmlns="http://www.w3.org/2000/svg">
<path fill-rule="evenodd" clip-rule="evenodd" d="M22.7071 1.29289C23.0976 1.68342 23.0976 2.31658 22.7071 2.70711L20.4142 5.00002L21.0059 5.5917C21.0063 5.5921 21.0067 5.5925 21.0071 5.5929C21.0071 5.59289 21.0071 5.59291 21.0071 5.5929C21.3235 5.90851 21.5746 6.28344 21.746 6.69618C21.9176 7.10946 22.0059 7.55255 22.0059 8.00003C22.0059 8.44752 21.9176 8.89061 21.746 9.30388C21.5746 9.71663 21.3235 10.0915 21.0071 10.4071M21.0059 10.4084L18.7071 12.7071C18.5196 12.8947 18.2652 13 18 13C17.7348 13 17.4804 12.8947 17.2929 12.7071L11.2929 6.70714C10.9024 6.31662 10.9024 5.68345 11.2929 5.29293L13.5917 2.99416C13.5914 2.99439 13.5919 2.99392 13.5917 2.99416C13.9074 2.67751 14.2832 2.42556 14.6962 2.25408C15.1094 2.08248 15.5525 1.99414 16 1.99414C16.4475 1.99414 16.8906 2.08248 17.3039 2.25408C17.7169 2.42557 18.092 2.67686 18.4077 2.99354C18.4075 2.99334 18.4079 2.99375 18.4077 2.99354L19 3.5858L21.2929 1.29289C21.6834 0.902369 22.3166 0.902369 22.7071 1.29289M16.9917 4.40591C16.8616 4.27539 16.7071 4.17184 16.5369 4.10117C16.3667 4.03051 16.1843 3.99414 16 3.99414C15.8157 3.99414 15.6333 4.03051 15.4631 4.10117C15.2929 4.17184 15.1384 4.27539 15.0083 4.40591L13.4142 6.00003L18 10.5858L19.5929 8.99293L19.5941 8.9917C19.7246 8.86163 19.8282 8.70708 19.8989 8.53691C19.9695 8.36674 20.0059 8.18429 20.0059 8.00003C20.0059 7.81577 19.9695 7.63333 19.8989 7.46315C19.8282 7.29298 19.7246 7.13843 19.5941 7.00837L19.5929 7.00714L16.9917 4.40591ZM10.7071 10.2929C11.0976 10.6834 11.0976 11.3166 10.7071 11.7071L8.91423 13.5L10.5 15.0858L12.2929 13.2929C12.6834 12.9024 13.3166 12.9024 13.7071 13.2929C14.0976 13.6834 14.0976 14.3166 13.7071 14.7071L11.9142 16.5L12.7071 17.2929C12.8947 17.4804 13 17.7348 13 18C13 18.2652 12.8947 18.5196 12.7071 18.7071L10.4084 21.0059M9.79776 17.2119L10.5858 18L8.99293 19.5929L8.9917 19.5941C8.86163 19.7246 8.70708 19.8282 8.53691 19.8989C8.36674 19.9695 8.18429 20.0059 8.00003 20.0059C7.81577 20.0059 7.63333 19.9695 7.46315 19.8989C7.29298 19.8282 7.13843 19.7246 7.00837 19.5941L4.40714 16.9929L4.40591 16.9917C4.27539 16.8616 4.17184 16.7071 4.10117 16.5369C4.03051 16.3667 3.99414 16.1843 3.99414 16C3.99414 15.8157 4.03051 15.6333 4.10117 15.4631C4.17184 15.2929 4.27539 15.1384 4.40591 15.0083L6.00003 13.4142L6.78803 14.2022C6.78964 14.2038 6.79127 14.2055 6.79289 14.2071C6.79452 14.2087 6.79615 14.2104 6.79779 14.212L9.78806 17.2022C9.78966 17.2039 9.79128 17.2055 9.79289 17.2071C9.79451 17.2087 9.79614 17.2103 9.79776 17.2119ZM7.50002 12.0858L6.70714 11.2929C6.31662 10.9024 5.68345 10.9024 5.29293 11.2929L2.99416 13.5917C2.99392 13.5919 2.99439 13.5914 2.99416 13.5917C2.67751 13.9074 2.42556 14.2832 2.25408 14.6962C2.08248 15.1094 1.99414 15.5525 1.99414 16C1.99414 16.4475 2.08248 16.8906 2.25408 17.3039C2.42557 17.7169 2.67686 18.092 2.99354 18.4077C2.99334 18.4075 2.99375 18.4079 2.99354 18.4077L3.5858 19L1.29289 21.2929C0.902369 21.6834 0.902369 22.3166 1.29289 22.7071C1.68342 23.0976 2.31658 23.0976 2.70711 22.7071L5.00002 20.4142L5.5917 21.0059C5.5921 21.0063 5.5925 21.0067 5.5929 21.0071C5.59289 21.0071 5.59291 21.0071 5.5929 21.0071M7.50002 12.0858L9.29289 10.2929C9.68342 9.90237 10.3166 9.90237 10.7071 10.2929" fill="black" style="fill:black;fill-opacity:1;"/>
</svg>
