<svg width="24" height="24" viewBox="0 0 24 24" fill="none" xmlns="http://www.w3.org/2000/svg">
<path fill-rule="evenodd" clip-rule="evenodd" d="M9 4C7.34315 4 6 5.34315 6 7C6 8.65685 7.34315 10 9 10C10.6569 10 12 8.65685 12 7C12 5.34315 10.6569 4 9 4ZM4 7C4 4.23858 6.23858 2 9 2C11.7614 2 14 4.23858 14 7C14 9.76142 11.7614 12 9 12C6.23858 12 4 9.76142 4 7ZM19.7163 10.3514C20.2403 10.526 20.5234 11.0923 20.3488 11.6163L20.3096 11.7338C20.6293 11.9602 20.9143 12.2324 21.155 12.5409L21.3286 12.4714C21.8413 12.2663 22.4233 12.5157 22.6284 13.0285C22.8335 13.5413 22.5841 14.1233 22.0713 14.3284L21.9517 14.3763C21.9835 14.5795 22 14.7878 22 15C22 15.148 21.992 15.2942 21.9763 15.4381L22.0163 15.4514C22.5402 15.6261 22.8234 16.1924 22.6487 16.7163C22.4741 17.2403 21.9078 17.5234 21.3838 17.3488L21.2663 17.3096C21.0398 17.6293 20.7675 17.9143 20.459 18.1551L20.5284 18.3286C20.7335 18.8413 20.4841 19.4233 19.9713 19.6284C19.4586 19.8335 18.8766 19.5841 18.6715 19.0713L18.6236 18.9517C18.4204 18.9835 18.2121 19 18 19C17.852 19 17.7059 18.992 17.5621 18.9763L17.5488 19.0163C17.3741 19.5402 16.8078 19.8234 16.2839 19.6487C15.7599 19.4741 15.4768 18.9078 15.6514 18.3838L15.6906 18.2664C15.3708 18.0399 15.0857 17.7676 14.8449 17.459L14.6714 17.5284C14.1587 17.7335 13.5767 17.4841 13.3716 16.9713C13.1665 16.4586 13.4159 15.8766 13.9287 15.6715L14.0483 15.6236C14.0165 15.4204 14 15.2121 14 15C14 14.852 14.008 14.7059 14.0237 14.5621L13.9838 14.5488C13.4599 14.3741 13.1767 13.8078 13.3514 13.2839C13.526 12.7599 14.0923 12.4768 14.6163 12.6514L14.7337 12.6905C14.9601 12.3708 15.2324 12.0858 15.5408 11.845L15.4714 11.6714C15.2663 11.1587 15.5157 10.5767 16.0285 10.3716C16.5413 10.1665 17.1233 10.4159 17.3284 10.9287L17.3763 11.0483C17.5795 11.0165 17.7878 11 18 11C18.1481 11 18.2942 11.008 18.4381 11.0237L18.4514 10.9838C18.6261 10.4599 19.1924 10.1767 19.7163 10.3514ZM16.969 13.2858C17.037 13.2741 17.1047 13.2552 17.1713 13.2285C17.2626 13.192 17.3455 13.1436 17.419 13.0857C17.6029 13.03 17.7979 13 18 13C18.7274 13 19.3642 13.3884 19.7142 13.969C19.7259 14.037 19.7448 14.1047 19.7715 14.1713C19.808 14.2626 19.8564 14.3455 19.9143 14.419C19.97 14.6029 20 14.7979 20 15C20 15.7274 19.6117 16.3641 19.031 16.7141C18.963 16.7258 18.8952 16.7448 18.8286 16.7715C18.7373 16.808 18.6543 16.8565 18.5808 16.9144C18.397 16.9701 18.202 17 18 17C17.2726 17 16.6359 16.6117 16.2859 16.031C16.2742 15.963 16.2552 15.8952 16.2285 15.8286C16.192 15.7373 16.1435 15.6543 16.0856 15.5808C16.0299 15.397 16 15.202 16 15C16 14.2726 16.3884 13.6358 16.969 13.2858ZM2.46447 15.4645C3.40215 14.5268 4.67392 14 6 14H10C10.5523 14 11 14.4477 11 15C11 15.5523 10.5523 16 10 16H6C5.20435 16 4.44129 16.3161 3.87868 16.8787C3.31607 17.4413 3 18.2043 3 19V21C3 21.5523 2.55228 22 2 22C1.44772 22 1 21.5523 1 21V19C1 17.6739 1.52678 16.4021 2.46447 15.4645Z" fill="black" style="fill:black;fill-opacity:1;"/>
</svg>
