<svg width="24" height="24" viewBox="0 0 24 24" fill="none" xmlns="http://www.w3.org/2000/svg">
<path fill-rule="evenodd" clip-rule="evenodd" d="M10 4C7.79086 4 6 5.79086 6 8C6 10.2091 7.79086 12 10 12C12.2091 12 14 10.2091 14 8C14 5.79086 12.2091 4 10 4ZM4 8C4 4.68629 6.68629 2 10 2C13.3137 2 16 4.68629 16 8C16 10.0731 14.9486 11.9007 13.3499 12.9785C13.4443 13.1937 13.4637 13.4428 13.3866 13.6842C13.2186 14.2103 12.6559 14.5006 12.1298 14.3326C11.0803 13.9974 9.9666 13.9147 8.87916 14.0911C7.79171 14.2674 6.76126 14.698 5.8716 15.3477C4.98193 15.9975 4.25818 16.848 3.7592 17.8302C3.26022 18.8124 3.0001 19.8984 3 21.0001C2.99995 21.5524 2.55219 22 1.99991 22C1.44762 21.9999 0.999949 21.5522 1 20.9999C1.00013 19.5835 1.33457 18.1871 1.97611 16.9243C2.61766 15.6615 3.5482 14.568 4.69205 13.7326C5.21367 13.3517 5.77293 13.0293 6.35962 12.7698C4.92527 11.6735 4 9.94479 4 8ZM16.0939 13.3862C16.5985 13.1619 17.1895 13.3892 17.4138 13.8939L17.4761 14.034C17.6475 14.0116 17.8224 14 18 14C18.1776 14 18.3525 14.0116 18.524 14.034L18.5863 13.8939C18.8106 13.3892 19.4016 13.1619 19.9062 13.3862C20.4109 13.6105 20.6382 14.2015 20.4139 14.7062L20.3792 14.7842C20.6977 15.0202 20.9799 15.3024 21.2159 15.6209L21.2939 15.5862C21.7986 15.3619 22.3896 15.5892 22.6139 16.0939C22.8382 16.5985 22.6109 17.1895 22.1062 17.4138L21.966 17.4761C21.9884 17.6476 22 17.8224 22 18C22 18.1776 21.9884 18.3525 21.966 18.524L22.1062 18.5863C22.6109 18.8106 22.8382 19.4016 22.6139 19.9062C22.3896 20.4109 21.7986 20.6382 21.2939 20.4139L21.2158 20.3792C20.9798 20.6976 20.6976 20.9798 20.3792 21.2158L20.4139 21.2939C20.6382 21.7986 20.4109 22.3896 19.9062 22.6139C19.4016 22.8382 18.8106 22.6109 18.5863 22.1062L18.524 21.966C18.3525 21.9884 18.1776 22 18 22C17.8224 22 17.6476 21.9884 17.4761 21.966L17.4138 22.1062C17.1895 22.6109 16.5985 22.8382 16.0939 22.6139C15.5892 22.3896 15.3619 21.7986 15.5862 21.2939L15.6209 21.2159C15.3024 20.9799 15.0202 20.6977 14.7842 20.3792L14.7062 20.4139C14.2015 20.6382 13.6105 20.4109 13.3862 19.9062C13.1619 19.4016 13.3892 18.8106 13.8939 18.5863L14.034 18.524C14.0116 18.3525 14 18.1776 14 18C14 17.8224 14.0116 17.6475 14.034 17.4761L13.8939 17.4138C13.3892 17.1895 13.1619 16.5985 13.3862 16.0939C13.6105 15.5892 14.2015 15.3619 14.7062 15.5862L14.7842 15.6208C15.0202 15.3024 15.3024 15.0202 15.6208 14.7842L15.5862 14.7062C15.3619 14.2015 15.5892 13.6105 16.0939 13.3862ZM18 16C16.8954 16 16 16.8954 16 18C16 19.1046 16.8954 20 18 20C19.1046 20 20 19.1046 20 18C20 16.8954 19.1046 16 18 16Z" fill="black" style="fill:black;fill-opacity:1;"/>
</svg>
