<svg width="24" height="24" viewBox="0 0 24 24" fill="none" xmlns="http://www.w3.org/2000/svg">
<path fill-rule="evenodd" clip-rule="evenodd" d="M8.60071 3.79953C8.6007 3.79953 8.60071 3.79953 8.60071 3.79953L8.60228 3.79834L8.60314 3.79769C8.60301 3.79779 8.6022 3.79837 8.60071 3.79953L8.57977 3.81608C8.55893 3.83276 8.52468 3.86071 8.47892 3.89994C8.38733 3.97845 8.25004 4.10173 8.08211 4.26967C7.74575 4.60603 7.28979 5.11815 6.83205 5.80476C5.91914 7.17413 5 9.23437 5 12.0001C5 14.7658 5.91914 16.826 6.83205 18.1954C7.28979 18.882 7.74575 19.3941 8.08211 19.7305C8.25004 19.8984 8.38733 20.0217 8.47892 20.1002C8.52468 20.1394 8.55893 20.1674 8.57977 20.184L8.6007 20.2005C8.60209 20.2016 8.6029 20.2022 8.6031 20.2024L8.60228 20.2018L8.6007 20.2005M8.60071 3.79953C8.6007 3.79953 8.60071 3.79953 8.60071 3.79953C9.04166 3.46796 9.13112 2.84155 8.8 2.40006C8.46863 1.95823 7.84183 1.86869 7.4 2.20006L8 3.00006C7.4 2.20006 7.40041 2.19975 7.4 2.20006L7.39831 2.20133L7.39626 2.20288L7.39106 2.20682L7.37635 2.21812C7.36467 2.22717 7.34926 2.23924 7.33038 2.25435C7.29263 2.28455 7.24094 2.3269 7.17733 2.38143C7.05017 2.49042 6.87496 2.64838 6.66789 2.85545C6.25425 3.26909 5.71021 3.88197 5.16795 4.69536C4.08086 6.32599 3 8.76575 3 12.0001C3 15.2344 4.08086 17.6741 5.16795 19.3048C5.71021 20.1181 6.25425 20.731 6.66789 21.1447C6.87496 21.3517 7.05017 21.5097 7.17733 21.6187C7.24094 21.6732 7.29263 21.7156 7.33038 21.7458C7.34926 21.7609 7.36467 21.7729 7.37635 21.782L7.39106 21.7933L7.39626 21.7972L7.3992 21.7995C7.39961 21.7998 7.4 21.8001 8 21.0001M15.2 2.40006C15.5314 1.95823 16.1582 1.86869 16.6 2.20006L16 3.00006C16.6 2.20006 16.5996 2.19975 16.6 2.20006L16.6017 2.20133L16.6037 2.20288L16.6089 2.20682L16.6236 2.21812C16.6353 2.22717 16.6507 2.23924 16.6696 2.25435C16.7074 2.28455 16.7591 2.3269 16.8227 2.38143C16.9498 2.49042 17.125 2.64838 17.3321 2.85545C17.7457 3.26909 18.2898 3.88197 18.8321 4.69536C19.9191 6.32599 21 8.76575 21 12.0001C21 15.2344 19.9191 17.6741 18.8321 19.3048C18.2898 20.1181 17.7457 20.731 17.3321 21.1447C17.125 21.3517 16.9498 21.5097 16.8227 21.6187C16.7591 21.6732 16.7074 21.7156 16.6696 21.7458C16.6507 21.7609 16.6353 21.7729 16.6236 21.782L16.6089 21.7933L16.6037 21.7972L16.6008 21.7995C16.6004 21.7998 16.6 21.8001 16 21.0001L16.6008 21.7995C16.159 22.1308 15.5314 22.0419 15.2 21.6001C14.8693 21.1592 14.9578 20.5341 15.3972 20.2022C15.3978 20.2017 15.3983 20.2013 15.3989 20.2009L15.4202 20.184C15.4411 20.1674 15.4753 20.1394 15.5211 20.1002C15.6127 20.0217 15.75 19.8984 15.9179 19.7305C16.2543 19.3941 16.7102 18.882 17.1679 18.1954C18.0809 16.826 19 14.7658 19 12.0001C19 9.23437 18.0809 7.17413 17.1679 5.80476C16.7102 5.11815 16.2543 4.60603 15.9179 4.26967C15.75 4.10173 15.6127 3.97845 15.5211 3.89994C15.4753 3.86071 15.4411 3.83276 15.4202 3.81608L15.3993 3.79957C15.3976 3.79824 15.3967 3.79761 15.3969 3.79769L15.3977 3.79834L15.3993 3.79957C14.9581 3.46806 14.8688 2.84165 15.2 2.40006ZM15.3989 20.2009C15.3988 20.201 15.399 20.2008 15.3989 20.2009V20.2009ZM8.29289 8.29295C8.68342 7.90243 9.31658 7.90243 9.70711 8.29295L12 10.5858L14.2929 8.29295C14.6834 7.90243 15.3166 7.90243 15.7071 8.29295C16.0976 8.68348 16.0976 9.31664 15.7071 9.70717L13.4142 12.0001L15.7071 14.293C16.0976 14.6835 16.0976 15.3166 15.7071 15.7072C15.3166 16.0977 14.6834 16.0977 14.2929 15.7072L12 13.4143L9.70711 15.7072C9.31658 16.0977 8.68342 16.0977 8.29289 15.7072C7.90237 15.3166 7.90237 14.6835 8.29289 14.293L10.5858 12.0001L8.29289 9.70717C7.90237 9.31664 7.90237 8.68348 8.29289 8.29295Z" fill="black" style="fill:black;fill-opacity:1;"/>
</svg>
