<svg width="24" height="24" viewBox="0 0 24 24" fill="none" xmlns="http://www.w3.org/2000/svg">
<path fill-rule="evenodd" clip-rule="evenodd" d="M5 4C4.44772 4 4 4.44772 4 5V6.17157C4.3182 6.05906 4.65606 6 5 6H19C19.3439 6 19.6818 6.05906 20 6.17157V5C20 4.44771 19.5523 4 19 4H5ZM22 5C22 3.34315 20.6569 2 19 2H5C3.34315 2 2 3.34315 2 5V19C2 20.6569 3.34315 22 5 22H19C20.6569 22 22 20.6569 22 19V5ZM20 9C20 8.73478 19.8946 8.48043 19.7071 8.29289C19.5196 8.10536 19.2652 8 19 8H5C4.73478 8 4.48043 8.10536 4.29289 8.29289C4.10536 8.48043 4 8.73478 4 9V10H6C6.99491 10 8.06949 10.3597 8.8002 11.1808L9.83324 12.026C9.85896 12.0471 9.88361 12.0694 9.90711 12.0929C11.1166 13.3024 12.9834 13.3024 14.1929 12.0929C14.2164 12.0694 14.241 12.0471 14.2668 12.026L15.3313 11.1551C15.9904 10.5152 17.0161 10 18.1 10H20V9ZM20 12H18.1C17.6052 12 17.0499 12.2643 16.7071 12.6071C16.6836 12.6306 16.659 12.6529 16.6332 12.674L15.5698 13.544C13.5901 15.4853 10.5099 15.4853 8.53016 13.544L7.46676 12.674C7.41762 12.6338 7.37242 12.589 7.33178 12.5402C7.06272 12.2173 6.57375 12 6 12H4V19C4 19.5523 4.44771 20 5 20H19C19.5523 20 20 19.5523 20 19V12Z" fill="black" style="fill:black;fill-opacity:1;"/>
</svg>
