<svg width="24" height="24" viewBox="0 0 24 24" fill="none" xmlns="http://www.w3.org/2000/svg">
<path fill-rule="evenodd" clip-rule="evenodd" d="M11.63 4.22893C11.6298 4.22899 11.6302 4.22886 11.63 4.22893L3.62999 7.42893C3.44472 7.50272 3.28574 7.63022 3.17347 7.79504C3.06153 7.95941 3.00114 8.15341 3 8.35226V19.9999C3 20.2651 3.10536 20.5195 3.29289 20.707C3.48043 20.8945 3.73478 20.9999 4 20.9999H5V10C5 9.44772 5.44772 9 6 9H18C18.5523 9 19 9.44772 19 10V20.9999H20C20.2652 20.9999 20.5196 20.8945 20.7071 20.707C20.8946 20.5195 21 20.2651 21 19.9999V8.35235C20.9989 8.15348 20.9385 7.95944 20.8265 7.79504C20.7143 7.63022 20.5553 7.50272 20.37 7.42893L12.37 4.22893C12.3698 4.22886 12.3702 4.22899 12.37 4.22893C12.1327 4.13457 11.8673 4.13457 11.63 4.22893ZM5.98537 22.9999C5.99024 23 5.99511 23 6 23H18C18.0049 23 18.0098 23 18.0146 22.9999H20C20.7957 22.9999 21.5587 22.6838 22.1213 22.1212C22.6839 21.5586 23 20.7955 23 19.9999L23 8.3499L23 8.34586C22.9976 7.74758 22.8163 7.16369 22.4795 6.6692C22.143 6.17503 21.6664 5.79271 21.1111 5.57128C21.1107 5.57114 21.1103 5.571 21.11 5.57086L13.1114 2.37142L13.11 2.37086C12.3972 2.08699 11.6028 2.08699 10.89 2.37086L2.89001 5.57086C2.88977 5.57096 2.89025 5.57077 2.89001 5.57086C2.33449 5.79226 1.85709 6.17493 1.52045 6.6692C1.18367 7.16369 1.00242 7.74758 1.00001 8.34586L1 19.9999C1 20.7955 1.31607 21.5586 1.87868 22.1212C2.44129 22.6838 3.20435 22.9999 4 22.9999H5.98537ZM17 20.9999V19H7V20.9999H17ZM7 17H17V15H7V17ZM7 13H17V11H7V13Z" fill="black" style="fill:black;fill-opacity:1;"/>
</svg>
