<svg width="24" height="24" viewBox="0 0 24 24" fill="none" xmlns="http://www.w3.org/2000/svg">
<path fill-rule="evenodd" clip-rule="evenodd" d="M5 3C4.44772 3 4 3.44772 4 4V5H6C6.55228 5 7 5.44772 7 6C7 6.55228 6.55228 7 6 7H4V20C4 20.5523 4.44771 21 5 21H19C19.5523 21 20 20.5523 20 20V4C20 3.44771 19.5523 3 19 3H5ZM2 20C2 21.6569 3.34315 23 5 23H19C20.6569 23 22 21.6569 22 20V4C22 2.34315 20.6569 1 19 1H5C3.34315 1 2 2.34315 2 4V20ZM16 6C16 5.44772 16.4477 5 17 5H17.01C17.5623 5 18.01 5.44772 18.01 6C18.01 6.55228 17.5623 7 17.01 7H17C16.4477 7 16 6.55228 16 6ZM8.53574 10.999C8.19502 11.5875 8 12.271 8 13C8 15.2091 9.79086 17 12 17C12.3978 17 12.7794 16.842 13.0607 16.5607C13.342 16.2794 13.5 15.8978 13.5 15.5C13.5 15.1022 13.342 14.7206 13.0607 14.4393C12.7794 14.158 12.3978 14 12 14C11.0717 14 10.1815 13.6313 9.52513 12.9749C8.98751 12.4373 8.64285 11.7427 8.53574 10.999ZM12 7C8.68629 7 6 9.68629 6 13C6 16.3137 8.68629 19 12 19C15.3137 19 18 16.3137 18 13C18 9.68629 15.3137 7 12 7ZM15.4643 15.001C15.805 14.4125 16 13.729 16 13C16 10.7909 14.2091 9 12 9C11.6022 9 11.2206 9.15804 10.9393 9.43934C10.658 9.72064 10.5 10.1022 10.5 10.5C10.5 10.8978 10.658 11.2794 10.9393 11.5607C11.2206 11.842 11.6022 12 12 12C12.9283 12 13.8185 12.3687 14.4749 13.0251C15.0125 13.5627 15.3571 14.2573 15.4643 15.001Z" fill="black" style="fill:black;fill-opacity:1;"/>
</svg>
