<svg width="24" height="24" viewBox="0 0 24 24" fill="none" xmlns="http://www.w3.org/2000/svg">
<path fill-rule="evenodd" clip-rule="evenodd" d="M1.29289 1.29289C1.68342 0.902369 2.31658 0.902369 2.70711 1.29289L9.78845 8.37423C9.84105 8.41698 9.88962 8.46535 9.93314 8.51892L20.9944 19.5802C21.0025 19.588 21.0104 19.5959 21.0182 19.604L22.7071 21.2929C23.0976 21.6834 23.0976 22.3166 22.7071 22.7071C22.3166 23.0976 21.6834 23.0976 21.2929 22.7071L20.1286 21.5428C19.4614 21.8496 18.7315 22.0073 17.9902 22C17.4379 21.9946 16.9946 21.5425 17 20.9903C17.0055 20.438 17.4575 19.9947 18.0098 20.0001C18.1894 20.0019 18.368 19.9875 18.5434 19.9576L16.5858 18H12L11.9816 17.9998C11.7488 17.9956 11.4916 18.0888 11.1979 18.3378C10.8989 18.5912 10.6153 18.9642 10.3697 19.3936C10.0494 19.9617 9.62052 20.4614 9.10744 20.8642C8.59343 21.2677 8.00497 21.5659 7.37568 21.742C6.74638 21.9181 6.08857 21.9685 5.4398 21.8903C4.79103 21.8121 4.16401 21.607 3.59454 21.2865C3.02506 20.966 2.52429 20.5365 2.12081 20.0225C1.71733 19.5084 1.41904 18.92 1.24298 18.2907C1.06691 17.6614 1.01652 17.0036 1.09468 16.3548C1.17284 15.7061 1.37802 15.079 1.6985 14.5096C1.96937 14.0283 2.57912 13.8577 3.06042 14.1285C3.54172 14.3994 3.71232 15.0091 3.44145 15.4904C3.24978 15.831 3.12707 16.206 3.08032 16.594C3.03358 16.9821 3.06372 17.3755 3.16902 17.7518C3.27431 18.1282 3.45271 18.4801 3.69402 18.7876C3.93533 19.095 4.23483 19.3519 4.57542 19.5435C4.91601 19.7352 5.29101 19.8579 5.67902 19.9047C6.06703 19.9514 6.46045 19.9213 6.83681 19.816C7.21318 19.7107 7.56511 19.5323 7.87253 19.291C8.17995 19.0496 8.43683 18.7501 8.6285 18.4096L8.63172 18.4039L8.63174 18.4039C8.94576 17.8543 9.36664 17.2683 9.90457 16.8122C10.4462 16.353 11.1556 15.9873 12.0082 16H14.5858L10.0693 11.4835C10.0475 11.5345 10.0245 11.5852 10.0003 11.6353C9.9944 11.6474 9.98829 11.6594 9.98193 11.6713L6.88193 17.4713C6.6216 17.9584 6.0157 18.1422 5.52862 17.8818C5.04155 17.6215 4.85773 17.0156 5.11807 16.5285L8.20733 10.7486C8.29486 10.562 8.34303 10.3594 8.34877 10.1532C8.35295 10.0027 8.33444 9.85274 8.29415 9.70836L1.29289 2.70711C0.902369 2.31658 0.902369 1.68342 1.29289 1.29289ZM12.3311 3.02771C11.8512 2.97913 11.3668 3.04696 10.9187 3.22545C10.4707 3.40394 10.0722 3.68782 9.75724 4.05303C9.39651 4.47124 8.76507 4.51784 8.34686 4.15712C7.92865 3.7964 7.88204 3.16495 8.24276 2.74674C8.76777 2.13806 9.4318 1.66493 10.1786 1.36745C10.9253 1.06997 11.7328 0.956919 12.5325 1.03787C13.3322 1.11883 14.1007 1.39141 14.7727 1.8325C15.4446 2.27359 16.0004 2.87019 16.3928 3.57174C16.6624 4.05376 16.4902 4.66306 16.0081 4.93265C15.5261 5.20224 14.9168 5.03004 14.6472 4.54803C14.4118 4.1271 14.0784 3.76913 13.6752 3.50448C13.272 3.23982 12.8109 3.07628 12.3311 3.02771ZM11.4855 5.14251C11.9591 4.85836 12.5733 5.01192 12.8575 5.4855L13.4575 6.4855C13.7416 6.95908 13.5881 7.57334 13.1145 7.85749C12.6409 8.14164 12.0267 7.98808 11.7425 7.5145L11.1425 6.5145C10.8584 6.04092 11.0119 5.42666 11.4855 5.14251ZM17.6115 12.8484C17.6953 12.3025 18.2057 11.9278 18.7516 12.0116C19.8178 12.1751 20.8025 12.679 21.5587 13.4481C22.315 14.2172 22.8023 15.2103 22.9478 16.2791C23.0224 16.8263 22.6392 17.3303 22.0919 17.4049C21.5447 17.4794 21.0406 17.0962 20.9661 16.5489C20.8788 15.9077 20.5864 15.3118 20.1327 14.8504C19.6789 14.3889 19.0881 14.0866 18.4484 13.9884C17.9025 13.9047 17.5278 13.3943 17.6115 12.8484Z" fill="black" style="fill:black;fill-opacity:1;"/>
</svg>
