<svg width="24" height="24" viewBox="0 0 24 24" fill="none" xmlns="http://www.w3.org/2000/svg">
<g clip-path="url(#clip0_168_326)">
<path d="M2 23C1.74 23 1.49 22.9 1.29 22.71C0.899998 22.32 0.899998 21.69 1.29 21.3L3.58 19.01L2.76 18.19C1.91 17.34 1.45 16.21 1.45 15.01C1.45 13.81 1.92 12.68 2.76 11.83L4.29 10.3C4.48 10.11 4.73 10.01 5 10.01C5.19 10.01 5.37 10.06 5.53 10.16C5.7 9.28002 6.12 8.48002 6.76 7.83002L8.29 6.30002C8.48 6.11002 8.73 6.01002 9 6.01002C9.19 6.01002 9.37 6.06002 9.53 6.16002C9.7 5.28002 10.12 4.48002 10.76 3.83002L12.29 2.30002C12.48 2.11002 12.73 2.01002 13 2.01002C13.27 2.01002 13.52 2.12002 13.71 2.30002L15.24 3.83002C15.3 3.89002 15.36 3.95002 15.41 4.02002C15.66 3.45002 16.01 2.93002 16.46 2.48002C17.4 1.54002 18.66 1.02002 20 1.02002H22C22.55 1.02002 23 1.47002 23 2.02002V4.02002C23 5.35002 22.48 6.61002 21.54 7.56002C21.09 8.01002 20.57 8.37002 20 8.61002C20.06 8.67002 20.12 8.72002 20.18 8.78002L21.71 10.31C21.9 10.5 22 10.75 22 11.02C22 11.29 21.89 11.54 21.71 11.73L20.18 13.26C19.53 13.9 18.73 14.33 17.85 14.49C17.95 14.65 18 14.83 18 15.02C18 15.29 17.89 15.54 17.71 15.73L16.18 17.26C15.53 17.9 14.73 18.33 13.85 18.49C13.95 18.65 14 18.83 14 19.02C14 19.28 13.89 19.54 13.71 19.73L12.18 21.26C11.33 22.11 10.2 22.57 9 22.57C7.8 22.57 6.67 22.1 5.82 21.26L5 20.43L2.71 22.72C2.51 22.92 2.26 23.01 2 23.01V23ZM6.41 19L7.23 19.82C8.17 20.76 9.81 20.76 10.76 19.82L11.58 19L10.76 18.18C9.82 17.25 8.19 17.24 7.25 18.17L6.41 19.01V19ZM5 12.41L4.18 13.23C3.71 13.7 3.45 14.33 3.45 14.99C3.45 15.65 3.71 16.28 4.18 16.76L5 17.58L5.82 16.76C6.29 16.28 6.55 15.66 6.55 14.99C6.55 14.32 6.29 13.7 5.82 13.23L5 12.41ZM10.41 15L11.23 15.82C12.17 16.76 13.81 16.76 14.76 15.82L15.58 15L14.76 14.18C13.83 13.26 12.21 13.24 11.27 14.15L10.41 15ZM9 8.41002L8.18 9.23002C7.71 9.70002 7.45 10.33 7.45 10.99C7.45 11.65 7.71 12.28 8.18 12.75L9 13.57L9.82 12.75C10.29 12.28 10.55 11.65 10.55 10.99C10.55 10.33 10.29 9.70002 9.82 9.23002L9 8.41002ZM14.41 11L15.23 11.82C16.17 12.76 17.81 12.76 18.76 11.82L19.58 11L18.76 10.18C17.83 9.26002 16.22 9.24002 15.27 10.14L14.41 11ZM13 4.41002L12.18 5.23002C11.71 5.70002 11.45 6.33002 11.45 6.99002C11.45 7.65002 11.71 8.28002 12.18 8.75002L13 9.57002L13.82 8.75002C14.29 8.28002 14.55 7.65002 14.55 6.99002C14.55 6.33002 14.29 5.70002 13.82 5.23002L13 4.41002ZM17 7.00002H18C18.8 7.00002 19.55 6.69002 20.12 6.12002C20.68 5.56002 21 4.79002 21 4.00002V3.00002H20C19.2 3.00002 18.44 3.31002 17.88 3.88002C17.32 4.45002 17 5.20002 17 6.00002V7.00002Z" fill="black" style="fill:black;fill-opacity:1;"/>
</g>
<defs>
<clipPath id="clip0_168_326">
<rect width="22" height="22" fill="white" style="fill:white;fill-opacity:1;" transform="translate(1 1)"/>
</clipPath>
</defs>
</svg>
