<svg width="24" height="24" viewBox="0 0 24 24" fill="none" xmlns="http://www.w3.org/2000/svg">
<path fill-rule="evenodd" clip-rule="evenodd" d="M14 6C14.5523 6 15 6.44772 15 7V8.53513C15.5883 8.19479 16.2714 8 17 8C19.2091 8 21 9.79086 21 12C21 14.2091 19.2091 16 17 16C16.2346 16 15.5193 15.785 14.9114 15.4121C14.7544 15.7588 14.4054 16 14 16C13.4477 16 13 15.5523 13 15V7C13 6.44772 13.4477 6 14 6ZM15 12C15 13.1046 15.8954 14 17 14C18.1046 14 19 13.1046 19 12C19 10.8954 18.1046 10 17 10C15.8954 10 15 10.8954 15 12ZM7 10C5.89543 10 5 10.8954 5 12C5 13.1046 5.89543 14 7 14C8.10457 14 9 13.1046 9 12C9 10.8954 8.10457 10 7 10ZM9.08859 8.58791C8.48067 8.215 7.76544 8 7 8C4.79086 8 3 9.79086 3 12C3 14.2091 4.79086 16 7 16C7.76544 16 8.48067 15.785 9.08859 15.4121C9.2456 15.7588 9.59463 16 10 16C10.5523 16 11 15.5523 11 15V9C11 8.44772 10.5523 8 10 8C9.59463 8 9.2456 8.2412 9.08859 8.58791ZM2 16C2.55228 16 3 16.4477 3 17V17.9573C2.9999 17.9571 3.0001 17.9574 3 17.9573C3.005 17.9643 3.01181 17.9726 3.01961 17.9804C3.02741 17.9882 3.03524 17.9947 3.0423 17.9997C3.04215 17.9996 3.04244 17.9998 3.0423 17.9997L20.9573 18C20.9571 18.0001 20.9574 17.9999 20.9573 18C20.9643 17.995 20.9726 17.9882 20.9804 17.9804C20.9882 17.9726 20.9947 17.9648 20.9997 17.9577C20.9996 17.9578 20.9998 17.9576 20.9997 17.9577L21 17C21 16.4477 21.4477 16 22 16C22.5523 16 23 16.4477 23 17V18C23 18.5752 22.7225 19.0668 22.3946 19.3946C22.0668 19.7225 21.5752 20 21 20H3C2.42477 20 1.93324 19.7225 1.60539 19.3946C1.27755 19.0668 1 18.5752 1 18V17C1 16.4477 1.44772 16 2 16Z" fill="black" style="fill:black;fill-opacity:1;"/>
</svg>
