<svg width="24" height="24" viewBox="0 0 24 24" fill="none" xmlns="http://www.w3.org/2000/svg">
<path fill-rule="evenodd" clip-rule="evenodd" d="M1.29289 1.29289C1.68341 0.902369 2.31658 0.902369 2.7071 1.29289L6.86821 5.454C6.87919 5.46449 6.88996 5.47526 6.90049 5.48629L10.8482 9.43399C10.8683 9.4525 10.8876 9.47185 10.9062 9.49199L22.7071 21.2929C23.0976 21.6834 23.0976 22.3166 22.7071 22.7071C22.3166 23.0976 21.6834 23.0976 21.2929 22.7071L15.9218 17.336C15.5552 17.5065 15.1058 17.4429 14.8 17.1432C14.0523 16.4103 13.047 15.9998 12 15.9998C10.953 15.9998 9.94771 16.4103 9.19999 17.1432C8.80558 17.5298 8.17245 17.5235 7.78585 17.129C7.39925 16.7346 7.40558 16.1015 7.79999 15.7149C8.92157 14.6155 10.4295 13.9998 12 13.9998C12.2071 13.9998 12.4132 14.0105 12.6174 14.0316L9.84715 11.2614C8.28587 11.6461 6.85279 12.443 5.70003 13.5731C5.30564 13.9597 4.67251 13.9534 4.28589 13.559C3.89927 13.1646 3.90557 12.5315 4.29996 12.1448C5.42767 11.0393 6.77487 10.1947 8.24622 9.66044L5.95751 7.37173C4.76328 7.94305 3.65508 8.68138 2.66662 9.56539C2.25495 9.93356 1.62277 9.8983 1.2546 9.48663C0.886435 9.07496 0.9217 8.44278 1.33337 8.07461C2.28862 7.2203 3.34171 6.48505 4.46935 5.88357L1.29289 2.70711C0.902363 2.31658 0.902363 1.68342 1.29289 1.29289ZM10.626 4.05961C12.8007 3.87214 14.9908 4.13163 17.0614 4.82209C19.1321 5.51256 21.0396 6.61941 22.6666 8.07454C23.0782 8.44272 23.1135 9.0749 22.7453 9.48656C22.3771 9.89822 21.7449 9.93346 21.3333 9.56528C19.9097 8.29204 18.2406 7.32355 16.4288 6.71939C14.6169 6.11523 12.7006 5.88819 10.7978 6.05222C10.2475 6.09965 9.76304 5.69204 9.7156 5.1418C9.66817 4.59155 10.0758 4.10704 10.626 4.05961ZM16.1265 10.8366C16.4023 10.3581 17.0137 10.1938 17.4922 10.4695C18.2958 10.9327 19.0376 11.4956 19.6999 12.1448C20.0943 12.5314 20.1006 13.1646 19.714 13.559C19.3274 13.9534 18.6943 13.9597 18.2999 13.573C17.758 13.0418 17.1511 12.5813 16.4936 12.2023C16.0151 11.9266 15.8507 11.3151 16.1265 10.8366ZM11 20C11 19.4477 11.4477 19 12 19H12.01C12.5623 19 13.01 19.4477 13.01 20C13.01 20.5523 12.5623 21 12.01 21H12C11.4477 21 11 20.5523 11 20Z" fill="black" style="fill:black;fill-opacity:1;"/>
</svg>
