<svg width="24" height="24" viewBox="0 0 24 24" fill="none" xmlns="http://www.w3.org/2000/svg">
<path d="M12 6.375C11.5674 6.375 11.1444 6.2467 10.7847 6.00634C10.425 5.76597 10.1446 5.42433 9.97901 5.02462C9.81345 4.62491 9.77013 4.18507 9.85453 3.76074C9.93894 3.33641 10.1473 2.94663 10.4532 2.6407C10.7591 2.33478 11.1489 2.12644 11.5732 2.04203C11.9976 1.95763 12.4374 2.00095 12.8371 2.16651C13.2368 2.33208 13.5785 2.61246 13.8188 2.97219C14.0592 3.33192 14.1875 3.75485 14.1875 4.1875C14.1869 4.76747 13.9562 5.32351 13.5461 5.73361C13.136 6.14371 12.58 6.37438 12 6.375Z" fill="currentColor" style="fill="currentColor";fill-opacity:1;"/>
<path d="M18.875 6.40627L18.8574 6.41096L18.841 6.41604C18.802 6.42697 18.7629 6.43869 18.7239 6.4508C17.9969 6.66408 14.4688 7.65861 11.9832 7.65861C9.67347 7.65861 6.46449 6.79924 5.43793 6.50744C5.33576 6.46794 5.23142 6.43429 5.12543 6.40666C4.38324 6.21135 3.87543 6.96525 3.87543 7.65432C3.87543 8.33674 4.48871 8.66174 5.10785 8.89494V8.90588L8.82738 10.0676C9.20745 10.2133 9.30902 10.3621 9.35863 10.491C9.51995 10.9047 9.39105 11.7238 9.34534 12.0098L9.11878 13.7676L7.86136 20.65C7.85746 20.6688 7.85394 20.6879 7.85081 20.7074L7.84183 20.757C7.75121 21.3879 8.21449 22 9.09183 22C9.85745 22 10.1953 21.4715 10.3418 20.7524C10.4883 20.0332 11.4356 14.5973 11.9825 14.5973C12.5293 14.5973 13.6559 20.7524 13.6559 20.7524C13.8024 21.4715 14.1403 22 14.9059 22C15.7856 22 16.2489 21.3852 16.1559 20.7524C16.1479 20.6991 16.138 20.6462 16.1262 20.5938L14.8516 13.7684L14.6254 12.0106C14.4617 10.9867 14.5934 10.6485 14.6379 10.5692C14.6391 10.5673 14.6402 10.5653 14.641 10.5633C14.6832 10.4852 14.8754 10.3102 15.3239 10.1418L18.8113 8.92268C18.8328 8.91697 18.8539 8.91019 18.8746 8.90236C19.4996 8.66799 20.1246 8.34377 20.1246 7.6551C20.1246 6.96643 19.6172 6.21135 18.875 6.40627Z" fill="currentColor" style="fill="currentColor";fill-opacity:1;"/>
</svg>
