<svg width="24" height="24" viewBox="0 0 24 24" fill="none" xmlns="http://www.w3.org/2000/svg">
<path fill-rule="evenodd" clip-rule="evenodd" d="M6.49997 6C6.87875 6 7.22501 6.214 7.3944 6.55279L10.3854 12.5348C10.3919 12.5471 10.3981 12.5596 10.4041 12.5722L11.8944 15.5528C12.1414 16.0468 11.9412 16.6474 11.4472 16.8944C10.9532 17.1414 10.3525 16.9412 10.1055 16.4472L8.88194 14H4.11801L2.8944 16.4472C2.64741 16.9412 2.04674 17.1414 1.55276 16.8944C1.05878 16.6474 0.858558 16.0468 1.10555 15.5528L2.59586 12.5722C2.60183 12.5596 2.60807 12.5471 2.61455 12.5348L5.60555 6.55279C5.77494 6.214 6.1212 6 6.49997 6ZM5.11801 12H7.88194L6.49997 9.23607L5.11801 12ZM17.2929 6.29289C17.6834 5.90237 18.3166 5.90237 18.7071 6.29289L22.7071 10.2929C23.0976 10.6834 23.0976 11.3166 22.7071 11.7071C22.3166 12.0976 21.6834 12.0976 21.2929 11.7071L19 9.41421V16C19 16.5523 18.5523 17 18 17C17.4477 17 17 16.5523 17 16V9.41421L14.7071 11.7071C14.3166 12.0976 13.6834 12.0976 13.2929 11.7071C12.9023 11.3166 12.9023 10.6834 13.2929 10.2929L17.2929 6.29289Z" fill="currentColor" style="fill="currentColor";fill-opacity:1;"/>
</svg>
