<svg width="24" height="24" viewBox="0 0 24 24" fill="none" xmlns="http://www.w3.org/2000/svg">
<path fill-rule="evenodd" clip-rule="evenodd" d="M7.49997 6C7.87875 6 8.22501 6.214 8.3944 6.55279L11.3854 12.5348C11.3919 12.5471 11.3981 12.5596 11.4041 12.5722L12.8944 15.5528C13.1414 16.0468 12.9412 16.6474 12.4472 16.8944C11.9532 17.1414 11.3525 16.9412 11.1055 16.4472L9.88194 14H5.11801L3.8944 16.4472C3.64741 16.9412 3.04674 17.1414 2.55276 16.8944C2.05878 16.6474 1.85856 16.0468 2.10555 15.5528L3.59586 12.5722C3.60183 12.5596 3.60807 12.5471 3.61455 12.5348L6.60555 6.55279C6.77494 6.214 7.1212 6 7.49997 6ZM6.11801 12H8.88194L7.49997 9.23607L6.11801 12ZM18.5 11C18.1021 11 17.7206 11.158 17.4393 11.4393C17.158 11.7206 17 12.1022 17 12.5V13H20V12.5C20 12.1022 19.8419 11.7206 19.5606 11.4393C19.2793 11.158 18.8978 11 18.5 11ZM22 12.5C22 11.5717 21.6312 10.6815 20.9748 10.0251C20.3185 9.36875 19.4282 9 18.5 9C17.5717 9 16.6815 9.36875 16.0251 10.0251C15.3687 10.6815 15 11.5717 15 12.5V16C15 16.5523 15.4477 17 16 17C16.5523 17 17 16.5523 17 16V15H20V16C20 16.5523 20.4477 17 21 17C21.5523 17 22 16.5523 22 16V12.5Z" fill="currentColor" style="fill="currentColor";fill-opacity:1;"/>
</svg>
