<svg width="24" height="24" viewBox="0 0 24 24" fill="none" xmlns="http://www.w3.org/2000/svg">
<path fill-rule="evenodd" clip-rule="evenodd" d="M14 4C14 2.89543 14.8954 2 16 2C17.1046 2 18 2.89543 18 4C18 5.10457 17.1046 6 16 6C14.8954 6 14 5.10457 14 4ZM7.29289 4.29289C7.60657 3.97921 8.08941 3.90968 8.47885 4.1221L13.9789 7.1221C14.226 7.25691 14.4049 7.48966 14.4716 7.76318C14.5382 8.03669 14.4865 8.32565 14.3291 8.55907L12.5412 11.2106C12.6719 11.3071 12.7989 11.4091 12.922 11.5164C13.0716 11.6468 13.2142 11.7842 13.3493 11.928L18.8356 11.0136C19.1501 10.9612 19.4708 11.0619 19.6988 11.2847C19.9269 11.5075 20.035 11.8258 19.99 12.1414L18.9899 19.1414C18.9118 19.6882 18.4053 20.0681 17.8586 19.99C17.3118 19.9118 16.9319 19.4053 17.0101 18.8586L17.8168 13.211L14.5286 13.759C14.6129 13.9641 14.6859 14.1744 14.7473 14.389C15.0657 15.5026 15.0549 16.6846 14.7163 17.7923C14.5549 18.3205 13.9958 18.6177 13.4677 18.4563C12.9395 18.2948 12.6422 17.7358 12.8037 17.2076C13.0294 16.4692 13.0366 15.6812 12.8243 14.9388C12.6121 14.1963 12.1894 13.5312 11.6075 13.0237C11.0255 12.5162 10.3091 12.1879 9.54468 12.0786C8.78028 11.9693 8.00057 12.0836 7.29969 12.4076C6.79839 12.6394 6.20412 12.421 5.97233 11.9197C5.74055 11.4184 5.95903 10.8241 6.46032 10.5923C7.51165 10.1062 8.68121 9.93479 9.82781 10.0988C10.1383 10.1432 10.4436 10.2117 10.741 10.3031L12.0567 8.35182L8.17802 6.23619L5.70711 8.70711C5.31658 9.09763 4.68342 9.09763 4.29289 8.70711C3.90237 8.31658 3.90237 7.68342 4.29289 7.29289L7.29289 4.29289ZM4.53235 13.5437C5.06051 13.7051 5.35778 14.2642 5.19633 14.7923C4.9706 15.5308 4.96344 16.3188 5.17571 17.0612C5.38797 17.8036 5.81059 18.4688 6.39255 18.9763C6.97452 19.4838 7.69094 19.812 8.45534 19.9214C9.21975 20.0307 9.99945 19.9164 10.7003 19.5923C11.2016 19.3605 11.7959 19.579 12.0277 20.0803C12.2595 20.5816 12.041 21.1759 11.5397 21.4077C10.4884 21.8938 9.31882 22.0652 8.17221 21.9012C7.02561 21.7372 5.95097 21.2449 5.07803 20.4836C4.20509 19.7223 3.57115 18.7246 3.25276 17.611C2.93436 16.4973 2.9451 15.3153 3.2837 14.2077C3.44515 13.6795 4.00419 13.3822 4.53235 13.5437Z" fill="currentColor" style="fill="currentColor";fill-opacity:1;"/>
</svg>
