<svg width="24" height="24" viewBox="0 0 24 24" fill="none" xmlns="http://www.w3.org/2000/svg">
<path fill-rule="evenodd" clip-rule="evenodd" d="M5 4C4.44772 4 4 4.44772 4 5V19C4 19.5523 4.44771 20 5 20H19C19.5523 20 20 19.5523 20 19V5C20 4.44771 19.5523 4 19 4H5ZM2 5C2 3.34315 3.34315 2 5 2H19C20.6569 2 22 3.34315 22 5V19C22 20.6569 20.6569 22 19 22H5C3.34315 22 2 20.6569 2 19V5ZM11.0914 6.00419C11.5321 6.04465 11.8938 6.36994 11.9806 6.80388L13.3209 13.5053L14.0715 11.6286C14.2234 11.249 14.5911 11 15 11H17C17.5523 11 18 11.4477 18 12C18 12.5523 17.5523 13 17 13H15.677L13.9285 17.3714C13.7641 17.7823 13.3493 18.0363 12.9086 17.9958C12.4679 17.9554 12.1062 17.6301 12.0194 17.1961L10.6791 10.4947L9.92848 12.3714C9.77661 12.751 9.4089 13 9 13H7C6.44772 13 6 12.5523 6 12C6 11.4477 6.44772 11 7 11H8.32297L10.0715 6.62861C10.2359 6.21773 10.6507 5.96373 11.0914 6.00419Z" fill="currentColor" style="fill="currentColor";fill-opacity:1;"/>
</svg>
