<svg width="24" height="24" viewBox="0 0 24 24" fill="none" xmlns="http://www.w3.org/2000/svg">
<path fill-rule="evenodd" clip-rule="evenodd" d="M5.70711 2.29289C6.09763 2.68342 6.09763 3.31658 5.70711 3.70711L2.70711 6.70711C2.31658 7.09763 1.68342 7.09763 1.29289 6.70711C0.902369 6.31658 0.902369 5.68342 1.29289 5.29289L4.29289 2.29289C4.68342 1.90237 5.31658 1.90237 5.70711 2.29289ZM18.2929 2.29289C18.6834 1.90237 19.3166 1.90237 19.7071 2.29289L22.7071 5.29289C23.0976 5.68342 23.0976 6.31658 22.7071 6.70711C22.3166 7.09763 21.6834 7.09763 21.2929 6.70711L18.2929 3.70711C17.9024 3.31658 17.9024 2.68342 18.2929 2.29289ZM12 6C8.13401 6 5 9.13401 5 13C5 16.866 8.13401 20 12 20C13.9018 20 15.6264 19.2416 16.8879 18.0108C16.9009 17.996 16.9144 17.9815 16.9284 17.9674C16.9467 17.9488 16.9656 17.9311 16.985 17.9142C18.231 16.6504 19 14.915 19 13C19 9.13401 15.866 6 12 6ZM19.0224 18.6295C20.2598 17.088 21 15.1305 21 13C21 8.02944 16.9706 4 12 4C7.02944 4 3 8.02944 3 13C3 15.1396 3.74659 17.1047 4.99346 18.6492L3.30508 20.2809C2.90794 20.6647 2.89712 21.2977 3.28091 21.6949C3.6647 22.092 4.29778 22.1028 4.69492 21.719L6.41435 20.0574C7.94903 21.2737 9.8897 22 12 22C14.1195 22 16.068 21.2673 17.6058 20.0414L19.2974 21.7115C19.6905 22.0996 20.3236 22.0955 20.7116 21.7025C21.0996 21.3095 21.0956 20.6763 20.7026 20.2883L19.0224 18.6295ZM12 8C12.5523 8 13 8.44772 13 9V12.5858L14.7071 14.2929C15.0976 14.6834 15.0976 15.3166 14.7071 15.7071C14.3166 16.0976 13.6834 16.0976 13.2929 15.7071L11.2929 13.7071C11.1054 13.5196 11 13.2652 11 13V9C11 8.44772 11.4477 8 12 8Z" fill="black" style="fill:black;fill-opacity:1;"/>
</svg>
