<svg width="24" height="24" viewBox="0 0 24 24" fill="none" xmlns="http://www.w3.org/2000/svg">
<path fill-rule="evenodd" clip-rule="evenodd" d="M5 4C4.44772 4 4 4.44772 4 5V19C4 19.5523 4.44771 20 5 20H19C19.5523 20 20 19.5523 20 19V5C20 4.44771 19.5523 4 19 4H18V11C18 11.4045 17.7564 11.7691 17.3827 11.9239C17.009 12.0787 16.5789 11.9931 16.2929 11.7071L14 9.41421L11.7071 11.7071C11.4211 11.9931 10.991 12.0787 10.6173 11.9239C10.2436 11.7691 10 11.4045 10 11V4H5ZM5 2C3.34315 2 2 3.34315 2 5V19C2 20.6569 3.34315 22 5 22H19C20.6569 22 22 20.6569 22 19V5C22 3.34315 20.6569 2 19 2H5ZM12 4V8.58579L13.2929 7.29289C13.6834 6.90237 14.3166 6.90237 14.7071 7.29289L16 8.58579V4H12Z" fill="currentColor" style="fill="currentColor";fill-opacity:1;"/>
</svg>
