<svg width="24" height="24" viewBox="0 0 24 24" fill="none" xmlns="http://www.w3.org/2000/svg">
<path fill-rule="evenodd" clip-rule="evenodd" d="M6 3C5.44772 3 5 3.44772 5 4V16C5 16.5523 5.44772 17 6 17H8C8.55228 17 9 16.5523 9 16V4C9 3.44772 8.55228 3 8 3H6ZM3 4C3 2.34315 4.34315 1 6 1H8C9.65685 1 11 2.34315 11 4V16C11 17.6569 9.65685 19 8 19H6C4.34315 19 3 17.6569 3 16V4ZM16 10C15.4477 10 15 10.4477 15 11V16C15 16.5523 15.4477 17 16 17H18C18.5523 17 19 16.5523 19 16V11C19 10.4477 18.5523 10 18 10H16ZM13 11C13 9.34315 14.3431 8 16 8H18C19.6569 8 21 9.34315 21 11V16C21 17.6569 19.6569 19 18 19H16C14.3431 19 13 17.6569 13 16V11ZM1 22C1 21.4477 1.44772 21 2 21H22C22.5523 21 23 21.4477 23 22C23 22.5523 22.5523 23 22 23H2C1.44772 23 1 22.5523 1 22Z" fill="black" style="fill:black;fill-opacity:1;"/>
</svg>
