<svg width="24" height="24" viewBox="0 0 24 24" fill="none" xmlns="http://www.w3.org/2000/svg">
<path fill-rule="evenodd" clip-rule="evenodd" d="M1 4C1 3.44772 1.44772 3 2 3H22C22.5523 3 23 3.44772 23 4C23 4.55228 22.5523 5 22 5H2C1.44772 5 1 4.55228 1 4ZM9 10C8.44772 10 8 10.4477 8 11V13C8 13.5523 8.44772 14 9 14H15C15.5523 14 16 13.5523 16 13V11C16 10.4477 15.5523 10 15 10H9ZM6 11C6 9.34315 7.34315 8 9 8H15C16.6569 8 18 9.34315 18 11V13C18 14.6569 16.6569 16 15 16H9C7.34315 16 6 14.6569 6 13V11ZM1 20C1 19.4477 1.44772 19 2 19H22C22.5523 19 23 19.4477 23 20C23 20.5523 22.5523 21 22 21H2C1.44772 21 1 20.5523 1 20Z" fill="currentColor" style="fill="currentColor";fill-opacity:1;"/>
</svg>
