<svg width="24" height="24" viewBox="0 0 24 24" fill="none" xmlns="http://www.w3.org/2000/svg">
<path fill-rule="evenodd" clip-rule="evenodd" d="M9 3C8.44772 3 8 3.44772 8 4V6C8 6.55228 8.44772 7 9 7H15C15.5523 7 16 6.55228 16 6V4C16 3.44772 15.5523 3 15 3H9ZM6 4C6 2.34315 7.34315 1 9 1H15C16.6569 1 18 2.34315 18 4V6C18 7.65685 16.6569 9 15 9H9C7.34315 9 6 7.65685 6 6V4ZM7 13C6.44772 13 6 13.4477 6 14V16C6 16.5523 6.44772 17 7 17H17C17.5523 17 18 16.5523 18 16V14C18 13.4477 17.5523 13 17 13H7ZM4 14C4 12.3431 5.34315 11 7 11H17C18.6569 11 20 12.3431 20 14V16C20 17.6569 18.6569 19 17 19H7C5.34315 19 4 17.6569 4 16V14ZM1 22C1 21.4477 1.44772 21 2 21H22C22.5523 21 23 21.4477 23 22C23 22.5523 22.5523 23 22 23H2C1.44772 23 1 22.5523 1 22Z" fill="currentColor" style="fill="currentColor";fill-opacity:1;"/>
</svg>
