<svg width="24" height="24" viewBox="0 0 24 24" fill="none" xmlns="http://www.w3.org/2000/svg">
<path fill-rule="evenodd" clip-rule="evenodd" d="M7 1C7.55228 1 8 1.44772 8 2V4C9.65685 4 11 5.34315 11 7V17C11 18.6569 9.65685 20 8 20V22C8 22.5523 7.55228 23 7 23C6.44772 23 6 22.5523 6 22V20C4.34315 20 3 18.6569 3 17V7C3 5.34315 4.34315 4 6 4V2C6 1.44772 6.44772 1 7 1ZM6 6C5.44772 6 5 6.44772 5 7V17C5 17.5523 5.44772 18 6 18H8C8.55228 18 9 17.5523 9 17V7C9 6.44772 8.55228 6 8 6H6ZM17 1C17.5523 1 18 1.44772 18 2V6C19.6569 6 21 7.34315 21 9V15C21 16.6569 19.6569 18 18 18V22C18 22.5523 17.5523 23 17 23C16.4477 23 16 22.5523 16 22V18C14.3431 18 13 16.6569 13 15V9C13 7.34315 14.3431 6 16 6V2C16 1.44772 16.4477 1 17 1ZM16 8C15.4477 8 15 8.44772 15 9V15C15 15.5523 15.4477 16 16 16H18C18.5523 16 19 15.5523 19 15V9C19 8.44772 18.5523 8 18 8H16Z" fill="currentColor" style="fill="currentColor";fill-opacity:1;"/>
</svg>
