<svg width="24" height="24" viewBox="0 0 24 24" fill="none" xmlns="http://www.w3.org/2000/svg">
<path fill-rule="evenodd" clip-rule="evenodd" d="M10 1C10.5523 1 11 1.44772 11 2V22C11 22.5523 10.5523 23 10 23C9.44772 23 9 22.5523 9 22V19.8293C8.68722 19.9398 8.35064 20 8 20H6C4.34315 20 3 18.6569 3 17V7C3 5.34315 4.34315 4 6 4H8C8.35064 4 8.68722 4.06015 9 4.17071V2C9 1.44772 9.44772 1 10 1ZM9 7C9 6.44772 8.55228 6 8 6H6C5.44772 6 5 6.44772 5 7V17C5 17.5523 5.44772 18 6 18H8C8.55228 18 9 17.5523 9 17V7ZM20 1C20.5523 1 21 1.44772 21 2V22C21 22.5523 20.5523 23 20 23C19.4477 23 19 22.5523 19 22V17.8293C18.6872 17.9398 18.3506 18 18 18H16C14.3431 18 13 16.6569 13 15V9C13 7.34315 14.3431 6 16 6H18C18.3506 6 18.6872 6.06015 19 6.17071V2C19 1.44772 19.4477 1 20 1ZM19 9C19 8.44772 18.5523 8 18 8H16C15.4477 8 15 8.44772 15 9V15C15 15.5523 15.4477 16 16 16H18C18.5523 16 19 15.5523 19 15V9Z" fill="currentColor" style="fill="currentColor";fill-opacity:1;"/>
</svg>
