<svg width="24" height="24" viewBox="0 0 24 24" fill="none" xmlns="http://www.w3.org/2000/svg">
<path fill-rule="evenodd" clip-rule="evenodd" d="M3.87868 1.87868C4.44129 1.31607 5.20435 1 6 1H8C8.79565 1 9.55871 1.31607 10.1213 1.87868C10.6839 2.44129 11 3.20435 11 4V8C11 8.55228 10.5523 9 10 9C9.44772 9 9 8.55228 9 8V4C9 3.73478 8.89464 3.48043 8.70711 3.29289C8.51957 3.10536 8.26522 3 8 3H6C5.73478 3 5.48043 3.10536 5.29289 3.29289C5.10536 3.48043 5 3.73478 5 4V8C5 8.55228 4.55228 9 4 9C3.44772 9 3 8.55228 3 8V4C3 3.20435 3.31607 2.44129 3.87868 1.87868ZM16 6C15.4523 6 15 6.45228 15 7V8C15 8.55228 14.5523 9 14 9C13.4477 9 13 8.55228 13 8V7C13 5.34772 14.3477 4 16 4H18C18.7957 4 19.5587 4.31607 20.1213 4.87868C20.6839 5.44129 21 6.20435 21 7V8C21 8.55228 20.5523 9 20 9C19.4477 9 19 8.55228 19 8V7C19 6.73478 18.8946 6.48043 18.7071 6.29289C18.5196 6.10536 18.2652 6 18 6H16ZM1 12C1 11.4477 1.44772 11 2 11H22C22.5523 11 23 11.4477 23 12C23 12.5523 22.5523 13 22 13H2C1.44772 13 1 12.5523 1 12ZM4 15C4.55228 15 5 15.4477 5 16V20C5 20.2652 5.10536 20.5196 5.29289 20.7071C5.48043 20.8946 5.73478 21 6 21H8C8.26522 21 8.51957 20.8946 8.70711 20.7071C8.89464 20.5196 9 20.2652 9 20V16C9 15.4477 9.44772 15 10 15C10.5523 15 11 15.4477 11 16V20C11 20.7957 10.6839 21.5587 10.1213 22.1213C9.55871 22.6839 8.79565 23 8 23H6C5.20435 23 4.44129 22.6839 3.87868 22.1213C3.31607 21.5587 3 20.7957 3 20V16C3 15.4477 3.44772 15 4 15ZM14 15C14.5523 15 15 15.4477 15 16V17C15 17.2652 15.1054 17.5196 15.2929 17.7071C15.4804 17.8946 15.7348 18 16 18H18C18.2652 18 18.5196 17.8946 18.7071 17.7071C18.8946 17.5196 19 17.2652 19 17V16C19 15.4477 19.4477 15 20 15C20.5523 15 21 15.4477 21 16V17C21 17.7957 20.6839 18.5587 20.1213 19.1213C19.5587 19.6839 18.7957 20 18 20H16C15.2043 20 14.4413 19.6839 13.8787 19.1213C13.3161 18.5587 13 17.7957 13 17V16C13 15.4477 13.4477 15 14 15Z" fill="currentColor" style="fill="currentColor";fill-opacity:1;"/>
</svg>
