<svg width="24" height="24" viewBox="0 0 24 24" fill="none" xmlns="http://www.w3.org/2000/svg">
<path fill-rule="evenodd" clip-rule="evenodd" d="M12 1C12.5523 1 13 1.44772 13 2V22C13 22.5523 12.5523 23 12 23C11.4477 23 11 22.5523 11 22V2C11 1.44772 11.4477 1 12 1ZM4 6C3.44772 6 3 6.44772 3 7V17C3 17.5523 3.44772 18 4 18H6C6.55228 18 7 17.5523 7 17V7C7 6.44772 6.55228 6 6 6H4ZM1 7C1 5.34315 2.34315 4 4 4H6C7.65685 4 9 5.34315 9 7V17C9 18.6569 7.65685 20 6 20H4C2.34315 20 1 18.6569 1 17V7ZM18 8C17.4477 8 17 8.44772 17 9V15C17 15.5523 17.4477 16 18 16H20C20.5523 16 21 15.5523 21 15V9C21 8.44772 20.5523 8 20 8H18ZM15 9C15 7.34315 16.3431 6 18 6H20C21.6569 6 23 7.34315 23 9V15C23 16.6569 21.6569 18 20 18H18C16.3431 18 15 16.6569 15 15V9Z" fill="currentColor" style="fill="currentColor";fill-opacity:1;"/>
</svg>
