<svg width="24" height="24" viewBox="0 0 24 24" fill="none" xmlns="http://www.w3.org/2000/svg">
<path fill-rule="evenodd" clip-rule="evenodd" d="M12 1C12.5523 1 13 1.44772 13 2V22C13 22.5523 12.5523 23 12 23C11.4477 23 11 22.5523 11 22V2C11 1.44772 11.4477 1 12 1ZM4 5C3.45228 5 3 5.45228 3 6V8C3 8.26522 3.10536 8.51957 3.29289 8.70711C3.48043 8.89464 3.73478 9 4 9H8C8.55228 9 9 9.44772 9 10C9 10.5523 8.55228 11 8 11H4C3.20435 11 2.44129 10.6839 1.87868 10.1213C1.31607 9.55871 1 8.79565 1 8V6C1 4.34772 2.34772 3 4 3H8C8.55228 3 9 3.44772 9 4C9 4.55228 8.55228 5 8 5H4ZM15 4C15 3.44772 15.4477 3 16 3H20C20.7957 3 21.5587 3.31607 22.1213 3.87868C22.6839 4.44129 23 5.20435 23 6V8C23 8.79565 22.6839 9.55871 22.1213 10.1213C21.5587 10.6839 20.7957 11 20 11H16C15.4477 11 15 10.5523 15 10C15 9.44772 15.4477 9 16 9H20C20.2652 9 20.5196 8.89464 20.7071 8.70711C20.8946 8.51957 21 8.26522 21 8V6C21 5.73478 20.8946 5.48043 20.7071 5.29289C20.5196 5.10536 20.2652 5 20 5H16C15.4477 5 15 4.55228 15 4ZM7 15C6.45228 15 6 15.4523 6 16V18C6 18.2652 6.10536 18.5196 6.29289 18.7071C6.48043 18.8946 6.73478 19 7 19H8C8.55228 19 9 19.4477 9 20C9 20.5523 8.55228 21 8 21H7C6.20435 21 5.44129 20.6839 4.87868 20.1213C4.31607 19.5587 4 18.7957 4 18V16C4 14.3477 5.34772 13 7 13H8C8.55228 13 9 13.4477 9 14C9 14.5523 8.55228 15 8 15H7ZM15 14C15 13.4477 15.4477 13 16 13H17C17.7957 13 18.5587 13.3161 19.1213 13.8787C19.6839 14.4413 20 15.2043 20 16V18C20 18.7957 19.6839 19.5587 19.1213 20.1213C18.5587 20.6839 17.7957 21 17 21H16C15.4477 21 15 20.5523 15 20C15 19.4477 15.4477 19 16 19H17C17.2652 19 17.5196 18.8946 17.7071 18.7071C17.8946 18.5196 18 18.2652 18 18V16C18 15.7348 17.8946 15.4804 17.7071 15.2929C17.5196 15.1054 17.2652 15 17 15H16C15.4477 15 15 14.5523 15 14Z" fill="currentColor" style="fill="currentColor";fill-opacity:1;"/>
</svg>
