<svg width="24" height="24" viewBox="0 0 24 24" fill="none" xmlns="http://www.w3.org/2000/svg">
<path fill-rule="evenodd" clip-rule="evenodd" d="M9 3C8.44772 3 8 3.44772 8 4V6C8 6.55228 8.44772 7 9 7H15C15.5523 7 16 6.55228 16 6V4C16 3.44772 15.5523 3 15 3H9ZM6 4C6 2.34315 7.34315 1 9 1H15C16.6569 1 18 2.34315 18 4V6C18 7.65685 16.6569 9 15 9H9C7.34315 9 6 7.65685 6 6V4ZM1 12C1 11.4477 1.44772 11 2 11H22C22.5523 11 23 11.4477 23 12C23 12.5523 22.5523 13 22 13H2C1.44772 13 1 12.5523 1 12ZM7 17C6.44772 17 6 17.4477 6 18V20C6 20.5523 6.44772 21 7 21H17C17.5523 21 18 20.5523 18 20V18C18 17.4477 17.5523 17 17 17H7ZM4 18C4 16.3431 5.34315 15 7 15H17C18.6569 15 20 16.3431 20 18V20C20 21.6569 18.6569 23 17 23H7C5.34315 23 4 21.6569 4 20V18Z" fill="black" style="fill:black;fill-opacity:1;"/>
</svg>
