<svg width="24" height="24" viewBox="0 0 24 24" fill="none" xmlns="http://www.w3.org/2000/svg">
<path fill-rule="evenodd" clip-rule="evenodd" d="M22 1C22.5523 1 23 1.44772 23 2V22C23 22.5523 22.5523 23 22 23C21.4477 23 21 22.5523 21 22V2C21 1.44772 21.4477 1 22 1ZM4 5C3.44772 5 3 5.44772 3 6V8C3 8.55228 3.44772 9 4 9H16C16.5523 9 17 8.55228 17 8V6C17 5.44772 16.5523 5 16 5H4ZM1 6C1 4.34315 2.34315 3 4 3H16C17.6569 3 19 4.34315 19 6V8C19 9.65685 17.6569 11 16 11H4C2.34315 11 1 9.65685 1 8V6ZM11 15C10.4477 15 10 15.4477 10 16V18C10 18.5523 10.4477 19 11 19H16C16.5523 19 17 18.5523 17 18V16C17 15.4477 16.5523 15 16 15H11ZM8 16C8 14.3431 9.34315 13 11 13H16C17.6569 13 19 14.3431 19 16V18C19 19.6569 17.6569 21 16 21H11C9.34315 21 8 19.6569 8 18V16Z" fill="black" style="fill:black;fill-opacity:1;"/>
</svg>
