<svg width="24" height="24" viewBox="0 0 24 24" fill="none" xmlns="http://www.w3.org/2000/svg">
<path fill-rule="evenodd" clip-rule="evenodd" d="M1 2C1 1.44772 1.44772 1 2 1H22C22.5523 1 23 1.44772 23 2C23 2.55228 22.5523 3 22 3H2C1.44772 3 1 2.55228 1 2ZM9 7C8.44772 7 8 7.44772 8 8V10C8 10.5523 8.44772 11 9 11H15C15.5523 11 16 10.5523 16 10V8C16 7.44772 15.5523 7 15 7H9ZM6 8C6 6.34315 7.34315 5 9 5H15C16.6569 5 18 6.34315 18 8V10C18 11.6569 16.6569 13 15 13H9C7.34315 13 6 11.6569 6 10V8ZM7 17C6.44772 17 6 17.4477 6 18V20C6 20.5523 6.44772 21 7 21H17C17.5523 21 18 20.5523 18 20V18C18 17.4477 17.5523 17 17 17H7ZM4 18C4 16.3431 5.34315 15 7 15H17C18.6569 15 20 16.3431 20 18V20C20 21.6569 18.6569 23 17 23H7C5.34315 23 4 21.6569 4 20V18Z" fill="currentColor" style="fill="currentColor";fill-opacity:1;"/>
</svg>
