<svg width="24" height="24" viewBox="0 0 24 24" fill="none" xmlns="http://www.w3.org/2000/svg">
<path fill-rule="evenodd" clip-rule="evenodd" d="M4 1C4.55228 1 5 1.44772 5 2V22C5 22.5523 4.55228 23 4 23C3.44772 23 3 22.5523 3 22V2C3 1.44772 3.44772 1 4 1ZM20 1C20.5523 1 21 1.44772 21 2V22C21 22.5523 20.5523 23 20 23C19.4477 23 19 22.5523 19 22V2C19 1.44772 19.4477 1 20 1ZM11 8C10.4477 8 10 8.44772 10 9V15C10 15.5523 10.4477 16 11 16H13C13.5523 16 14 15.5523 14 15V9C14 8.44772 13.5523 8 13 8H11ZM8 9C8 7.34315 9.34315 6 11 6H13C14.6569 6 16 7.34315 16 9V15C16 16.6569 14.6569 18 13 18H11C9.34315 18 8 16.6569 8 15V9Z" fill="black" style="fill:black;fill-opacity:1;"/>
</svg>
