<svg width="24" height="24" viewBox="0 0 24 24" fill="none" xmlns="http://www.w3.org/2000/svg">
<path fill-rule="evenodd" clip-rule="evenodd" d="M4 1C4.55228 1 5 1.44772 5 2V4.17071C5.31278 4.06015 5.64936 4 6 4H8C9.65685 4 11 5.34315 11 7V17C11 18.6569 9.65685 20 8 20H6C5.64936 20 5.31278 19.9398 5 19.8293V22C5 22.5523 4.55228 23 4 23C3.44772 23 3 22.5523 3 22V2C3 1.44772 3.44772 1 4 1ZM5 17C5 17.5523 5.44772 18 6 18H8C8.55228 18 9 17.5523 9 17V7C9 6.44772 8.55228 6 8 6H6C5.44772 6 5 6.44772 5 7V17ZM14 1C14.5523 1 15 1.44772 15 2V6.17071C15.3128 6.06015 15.6494 6 16 6H18C19.6569 6 21 7.34315 21 9V15C21 16.6569 19.6569 18 18 18H16C15.6494 18 15.3128 17.9398 15 17.8293V22C15 22.5523 14.5523 23 14 23C13.4477 23 13 22.5523 13 22V2C13 1.44772 13.4477 1 14 1ZM15 15C15 15.5523 15.4477 16 16 16H18C18.5523 16 19 15.5523 19 15V9C19 8.44772 18.5523 8 18 8H16C15.4477 8 15 8.44772 15 9V15Z" fill="currentColor" style="fill="currentColor";fill-opacity:1;"/>
</svg>
