<svg width="24" height="24" viewBox="0 0 24 24" fill="none" xmlns="http://www.w3.org/2000/svg">
<path fill-rule="evenodd" clip-rule="evenodd" d="M1.87868 3.87868C2.44129 3.31607 3.20435 3 4 3H12C12.7956 3 13.5587 3.31607 14.1213 3.87868C14.6839 4.44129 15 5.20435 15 6V7H16.382C16.7533 7.0002 17.1178 7.10377 17.4336 7.2991C17.7492 7.49436 18.0043 7.77359 18.1703 8.10555C18.1702 8.1054 18.1704 8.1057 18.1703 8.10555L19.7098 11.1825L21.632 11.8232C21.6319 11.8232 21.6321 11.8233 21.632 11.8232C22.03 11.9559 22.3764 12.2103 22.6219 12.5505C22.8674 12.8908 22.9997 13.2997 23 13.7192V17C23 17.5304 22.7893 18.0391 22.4142 18.4142C22.0391 18.7893 21.5304 19 21 19H19.8293C19.4175 20.1652 18.3062 21 17 21C15.6938 21 14.5825 20.1652 14.1707 19H9.82929C9.41746 20.1652 8.30622 21 7 21C5.69378 21 4.58254 20.1652 4.17071 19H3C2.46957 19 1.96086 18.7893 1.58579 18.4142C1.21071 18.0391 1 17.5304 1 17V6C1 5.20435 1.31607 4.44129 1.87868 3.87868ZM4.17071 17C4.58254 15.8348 5.69378 15 7 15C8.30622 15 9.41746 15.8348 9.82929 17H13V6C13 5.73478 12.8946 5.48043 12.7071 5.29289C12.5196 5.10536 12.2652 5 12 5H4C3.73478 5 3.48043 5.10536 3.29289 5.29289C3.10536 5.48043 3 5.73478 3 6V17H4.17071ZM15 9V15.7639C15.5308 15.2889 16.2316 15 17 15C18.3062 15 19.4175 15.8348 19.8293 17H21V13.7208L19.0768 13.0797C18.8276 12.9965 18.5967 12.8648 18.3983 12.6925C18.2003 12.5205 18.038 12.3111 17.9207 12.0764M17.9202 12.0755L16.3817 9.00045L15 9M8 7C8.55228 7 9 7.44772 9 8V9H10C10.5523 9 11 9.44772 11 10C11 10.5523 10.5523 11 10 11H9V12C9 12.5523 8.55228 13 8 13C7.44772 13 7 12.5523 7 12V11H6C5.44772 11 5 10.5523 5 10C5 9.44772 5.44772 9 6 9H7V8C7 7.44772 7.44772 7 8 7ZM7 17C6.44772 17 6 17.4477 6 18C6 18.5523 6.44772 19 7 19C7.55228 19 8 18.5523 8 18C8 17.4477 7.55228 17 7 17ZM17 17C16.4477 17 16 17.4477 16 18C16 18.5523 16.4477 19 17 19C17.5523 19 18 18.5523 18 18C18 17.4477 17.5523 17 17 17Z" fill="currentColor" style="fill="currentColor";fill-opacity:1;"/>
</svg>
