<svg width="24" height="24" viewBox="0 0 24 24" fill="none" xmlns="http://www.w3.org/2000/svg">
<path fill-rule="evenodd" clip-rule="evenodd" d="M7.17157 4.17157C7.92172 3.42143 8.93913 3 10 3C11.0609 3 12.0783 3.42143 12.8284 4.17157C13.5786 4.92172 14 5.93913 14 7C14 8.50436 13.2946 9.50413 12.3336 10.1948C11.5826 10.7347 10.6232 11.1166 9.78065 11.452C9.73173 11.4714 9.6832 11.4908 9.63512 11.5099C10.6844 13.0706 12.334 14.7971 14.8453 16.5053C15.6719 15.5271 16.2367 14.3216 16.4281 13H16C15.4477 13 15 12.5523 15 12C15 11.4477 15.4477 11 16 11H19C19.5523 11 20 11.4477 20 12C20 12.5523 19.5523 13 19 13H18.4445C18.2527 14.7167 17.5736 16.2911 16.5495 17.5808C17.4227 18.0928 18.3798 18.5997 19.4281 19.0963C19.9272 19.3327 20.1402 19.929 19.9037 20.4281C19.6673 20.9272 19.071 21.1402 18.5719 20.9037C17.2977 20.3002 16.1412 19.6761 15.0936 19.0393C13.5552 20.2654 11.6097 21 9.5 21C8.04131 21 6.64236 20.4205 5.61091 19.3891C4.57946 18.3576 4 16.9587 4 15.5C4 13.7411 4.60144 12.4782 5.5542 11.5552C5.94566 11.176 6.38657 10.8647 6.84175 10.6008C6.24746 9.26503 6 8.03589 6 7C6 5.93913 6.42143 4.92172 7.17157 4.17157ZM8.65605 9.74787C8.80042 9.68932 8.94059 9.63313 9.07658 9.5786C9.9377 9.23337 10.6316 8.95518 11.1664 8.5708C11.7054 8.18337 12 7.74564 12 7C12 6.46957 11.7893 5.96086 11.4142 5.58579C11.0391 5.21071 10.5304 5 10 5C9.46957 5 8.96086 5.21071 8.58579 5.58579C8.21071 5.96086 8 6.46957 8 7C8 7.71419 8.1778 8.65896 8.65605 9.74787ZM7.79725 12.3585C7.47651 12.5476 7.19114 12.754 6.9458 12.9917C6.39856 13.5218 6 14.2589 6 15.5C6 16.4283 6.36875 17.3185 7.02513 17.9749C7.6815 18.6313 8.57174 19 9.5 19C10.8994 19 12.2068 18.583 13.3041 17.8673C10.7131 16.0362 8.9444 14.1416 7.79725 12.3585Z" fill="currentColor" style="fill="currentColor";fill-opacity:1;"/>
</svg>
