<svg width="24" height="24" viewBox="0 0 24 24" fill="none" xmlns="http://www.w3.org/2000/svg">
<path fill-rule="evenodd" clip-rule="evenodd" d="M5 7C4.73478 7 4.48043 7.10536 4.29289 7.29289C4.10536 7.48043 4 7.73478 4 8C4 8.37577 4.10469 8.90819 4.35423 9.54801C4.85705 9.24982 5.25295 9.01373 5.56382 8.74431C5.90806 8.44597 6 8.22963 6 8C6 7.73478 5.89464 7.48043 5.70711 7.29289C5.51957 7.10536 5.26522 7 5 7ZM5.2881 11.3201C5.29171 11.318 5.29534 11.3159 5.29896 11.3137C5.81356 11.01 6.40825 10.6591 6.87368 10.2557C7.46694 9.74153 8 9.02037 8 8C8 7.20435 7.68393 6.44129 7.12132 5.87868C6.55871 5.31607 5.79565 5 5 5C4.20435 5 3.44129 5.31607 2.87868 5.87868C2.31607 6.44129 2 7.20435 2 8C2 8.76835 2.22173 9.68889 2.65744 10.6746C1.77585 11.4041 1 12.4315 1 14C1 16.2523 2.74772 18 5 18C6.20648 18 7.32171 17.657 8.25508 17.0617C8.64497 17.3333 9.05494 17.5992 9.4855 17.8575C9.95908 18.1416 10.5733 17.9881 10.8575 17.5145C11.1416 17.0409 10.9881 16.4267 10.5145 16.1425C10.2576 15.9883 10.0092 15.8316 9.76932 15.6727C10.5434 14.6627 11 13.3921 11 12C11 11.4477 10.5523 11 10 11C9.44772 11 9 11.4477 9 12C9 12.9456 8.68989 13.8034 8.16326 14.4801C6.99654 13.5082 6.10254 12.5024 5.44719 11.5558C5.39237 11.4766 5.33936 11.398 5.2881 11.3201ZM3.65131 12.4708C3.22965 12.8952 3 13.3665 3 14C3 15.1477 3.85228 16 5 16C5.54315 16 6.05737 15.8977 6.52493 15.7108C5.39276 14.7191 4.49241 13.6903 3.80281 12.6942C3.75122 12.6197 3.70073 12.5452 3.65131 12.4708ZM17 7C16.7348 7 16.4804 7.10536 16.2929 7.29289C16.1054 7.48043 16 7.73478 16 8C16 8.37577 16.1047 8.90819 16.3542 9.54801C16.8571 9.24982 17.2529 9.01373 17.5638 8.74431C17.9081 8.44597 18 8.22963 18 8C18 7.73478 17.8946 7.48043 17.7071 7.29289C17.5196 7.10536 17.2652 7 17 7ZM17.2881 11.3201C17.2917 11.318 17.2953 11.3159 17.299 11.3137C17.8136 11.01 18.4082 10.6591 18.8737 10.2557C19.4669 9.74153 20 9.02037 20 8C20 7.20435 19.6839 6.44129 19.1213 5.87868C18.5587 5.31607 17.7957 5 17 5C16.2044 5 15.4413 5.31607 14.8787 5.87868C14.3161 6.44129 14 7.20435 14 8C14 8.76835 14.2217 9.68889 14.6574 10.6746C13.7758 11.4041 13 12.4315 13 14C13 16.2523 14.7477 18 17 18C18.2065 18 19.3217 17.657 20.2551 17.0617C20.645 17.3333 21.0549 17.5992 21.4855 17.8575C21.9591 18.1416 22.5733 17.9881 22.8575 17.5145C23.1416 17.0409 22.9881 16.4267 22.5145 16.1425C22.2576 15.9883 22.0092 15.8316 21.7693 15.6727C22.5434 14.6627 23 13.3921 23 12C23 11.4477 22.5523 11 22 11C21.4477 11 21 11.4477 21 12C21 12.9456 20.6899 13.8034 20.1633 14.4801C18.9965 13.5082 18.1025 12.5024 17.4472 11.5558C17.3924 11.4766 17.3394 11.398 17.2881 11.3201ZM15.6513 12.4708C15.2296 12.8952 15 13.3665 15 14C15 15.1477 15.8523 16 17 16C17.5432 16 18.0574 15.8977 18.5249 15.7108C17.3928 14.7191 16.4924 13.6903 15.8028 12.6942C15.7512 12.6197 15.7007 12.5452 15.6513 12.4708Z" fill="currentColor" style="fill="currentColor";fill-opacity:1;"/>
</svg>
