<svg width="24" height="24" viewBox="0 0 24 24" fill="none" xmlns="http://www.w3.org/2000/svg">
<path fill-rule="evenodd" clip-rule="evenodd" d="M7.44719 1.10557C7.94117 1.35256 8.14139 1.95323 7.8944 2.44721L6.11801 6H8.88194L11.1055 1.55279C11.3525 1.05881 11.9532 0.858583 12.4472 1.10557C12.9412 1.35256 13.1414 1.95323 12.8944 2.44721L11.118 6H13.8819L16.1055 1.55279C16.3525 1.05881 16.9532 0.858583 17.4472 1.10557C17.9412 1.35256 18.1414 1.95323 17.8944 2.44721L16.118 6H18.8819L21.1055 1.55279C21.3525 1.05881 21.9532 0.858583 22.4472 1.10557C22.9412 1.35256 23.1414 1.95323 22.8944 2.44721L20.4041 7.42782C20.3981 7.44043 20.3919 7.4529 20.3854 7.46522L17.8944 12.4472C17.6474 12.9412 17.0467 13.1414 16.5528 12.8944C16.0588 12.6474 15.8586 12.0468 16.1055 11.5528L17.8819 8H15.118L12.8944 12.4472C12.6474 12.9412 12.0467 13.1414 11.5528 12.8944C11.0588 12.6474 10.8586 12.0468 11.1055 11.5528L12.8819 8H10.118L7.8944 12.4472C7.64741 12.9412 7.04674 13.1414 6.55276 12.8944C6.05878 12.6474 5.85856 12.0468 6.10555 11.5528L7.88194 8H5.11801L2.8944 12.4472C2.64741 12.9412 2.04674 13.1414 1.55276 12.8944C1.05878 12.6474 0.858558 12.0468 1.10555 11.5528L3.59586 6.57216C3.60183 6.55956 3.60807 6.5471 3.61455 6.53479L6.10555 1.55279C6.35254 1.05881 6.95321 0.858583 7.44719 1.10557ZM12 15C12.5523 15 13 15.4477 13 16V22C13 22.5523 12.5523 23 12 23C11.4477 23 11 22.5523 11 22V16C11 15.4477 11.4477 15 12 15Z" fill="currentColor" style="fill="currentColor";fill-opacity:1;"/>
</svg>
