<svg width="24" height="24" viewBox="0 0 24 24" fill="none" xmlns="http://www.w3.org/2000/svg">
<path fill-rule="evenodd" clip-rule="evenodd" d="M3 2C3.55228 2 4 2.44772 4 3V20H21C21.5523 20 22 20.4477 22 21C22 21.5523 21.5523 22 21 22H3C2.44772 22 2 21.5523 2 21V3C2 2.44772 2.44772 2 3 2ZM19.3827 7.07612C19.7564 7.2309 20 7.59554 20 8V17C20 17.5523 19.5523 18 19 18H7C6.44772 18 6 17.5523 6 17V12C6 11.7348 6.10536 11.4804 6.29289 11.2929L9.29289 8.29289C9.68342 7.90237 10.3166 7.90237 10.7071 8.29289L14 11.5858L18.2929 7.29289C18.5789 7.0069 19.009 6.92134 19.3827 7.07612ZM18 10.4142L14.7071 13.7071C14.3166 14.0976 13.6834 14.0976 13.2929 13.7071L10 10.4142L8 12.4142V16H18V10.4142Z" fill="currentColor" style="fill="currentColor";fill-opacity:1;"/>
</svg>
