<svg width="24" height="24" viewBox="0 0 24 24" fill="none" xmlns="http://www.w3.org/2000/svg">
<path fill-rule="evenodd" clip-rule="evenodd" d="M4.87868 3.87868C5.44129 3.31607 6.20435 3 7 3H17C17.7956 3 18.5587 3.31607 19.1213 3.87868C19.6839 4.44129 20 5.20435 20 6V8.17157C20.4179 8.31933 20.8019 8.55928 21.1213 8.87868C21.6839 9.44129 22 10.2043 22 11V16C22 16.7957 21.6839 17.5587 21.1213 18.1213C20.8019 18.4407 20.4179 18.6807 20 18.8284V20C20 20.5523 19.5523 21 19 21C18.4477 21 18 20.5523 18 20V19H6V20C6 20.5523 5.55228 21 5 21C4.44772 21 4 20.5523 4 20V18.8284C3.5821 18.6807 3.19808 18.4407 2.87868 18.1213C2.31607 17.5587 2 16.7956 2 16V11C2 10.2044 2.31607 9.44129 2.87868 8.87868C3.19808 8.55928 3.5821 8.31933 4 8.17157V6C4 5.20435 4.31607 4.44129 4.87868 3.87868ZM6 8.17157C6.4179 8.31933 6.80192 8.55928 7.12132 8.87868C7.68393 9.44129 8 10.2044 8 11V12H16V11C16 10.2043 16.3161 9.44129 16.8787 8.87868C17.1981 8.55928 17.5821 8.31933 18 8.17157V6C18 5.73478 17.8946 5.48043 17.7071 5.29289C17.5196 5.10536 17.2652 5 17 5H7C6.73478 5 6.48043 5.10536 6.29289 5.29289C6.10536 5.48043 6 5.73478 6 6V8.17157ZM5 10C4.73478 10 4.48043 10.1054 4.29289 10.2929C4.10536 10.4804 4 10.7348 4 11V16C4 16.2652 4.10536 16.5196 4.29289 16.7071C4.48043 16.8946 4.73478 17 5 17H19C19.2652 17 19.5196 16.8946 19.7071 16.7071C19.8946 16.5196 20 16.2652 20 16V11C20 10.7348 19.8946 10.4804 19.7071 10.2929C19.5196 10.1054 19.2652 10 19 10C18.7348 10 18.4804 10.1054 18.2929 10.2929C18.1054 10.4804 18 10.7348 18 11V13C18 13.5523 17.5523 14 17 14H7C6.44772 14 6 13.5523 6 13V11C6 10.7348 5.89464 10.4804 5.70711 10.2929C5.51957 10.1054 5.26522 10 5 10Z" fill="currentColor" style="fill="currentColor";fill-opacity:1;"/>
</svg>
