<svg width="24" height="24" viewBox="0 0 24 24" fill="none" xmlns="http://www.w3.org/2000/svg">
<path fill-rule="evenodd" clip-rule="evenodd" d="M12 1C12.5523 1 13 1.44772 13 2V13.5858L18.2929 8.29289C18.6834 7.90237 19.3166 7.90237 19.7071 8.29289C20.0976 8.68342 20.0976 9.31658 19.7071 9.70711L12.7071 16.7071C12.3166 17.0976 11.6834 17.0976 11.2929 16.7071L4.29289 9.70711C3.90237 9.31658 3.90237 8.68342 4.29289 8.29289C4.68342 7.90237 5.31658 7.90237 5.70711 8.29289L11 13.5858V2C11 1.44772 11.4477 1 12 1ZM10 21C10 19.8954 10.8954 19 12 19C13.1046 19 14 19.8954 14 21C14 22.1046 13.1046 23 12 23C10.8954 23 10 22.1046 10 21Z" fill="currentColor" style="fill="currentColor";fill-opacity:1;"/>
</svg>
