<svg width="24" height="24" viewBox="0 0 24 24" fill="none" xmlns="http://www.w3.org/2000/svg">
<path fill-rule="evenodd" clip-rule="evenodd" d="M11.2929 4.29289C11.6834 3.90237 12.3166 3.90237 12.7071 4.29289L19.7071 11.2929C19.9931 11.5789 20.0787 12.009 19.9239 12.3827C19.7691 12.7564 19.4045 13 19 13H16V18C16 18.5523 15.5523 19 15 19H9C8.44771 19 8 18.5523 8 18V13H5C4.59554 13 4.2309 12.7564 4.07612 12.3827C3.92134 12.009 4.00689 11.5789 4.29289 11.2929L11.2929 4.29289ZM7.41421 11H9C9.55228 11 10 11.4477 10 12V17H14V12C14 11.4477 14.4477 11 15 11H16.5858L12 6.41421L7.41421 11Z" fill="currentColor" style="fill="currentColor";fill-opacity:1;"/>
</svg>
