<svg width="24" height="24" viewBox="0 0 24 24" fill="none" xmlns="http://www.w3.org/2000/svg">
<path fill-rule="evenodd" clip-rule="evenodd" d="M8 5C8 4.44772 8.44771 4 9 4H15C15.5523 4 16 4.44772 16 5C16 5.55228 15.5523 6 15 6H9C8.44771 6 8 5.55228 8 5ZM8 9C8 8.44772 8.44771 8 9 8H15C15.5523 8 16 8.44772 16 9V11H19C19.4045 11 19.7691 11.2436 19.9239 11.6173C20.0787 11.991 19.9931 12.4211 19.7071 12.7071L12.7071 19.7071C12.3166 20.0976 11.6834 20.0976 11.2929 19.7071L4.29289 12.7071C4.00689 12.4211 3.92134 11.991 4.07612 11.6173C4.2309 11.2436 4.59554 11 5 11H8V9ZM10 10V12C10 12.5523 9.55228 13 9 13H7.41421L12 17.5858L16.5858 13H15C14.4477 13 14 12.5523 14 12V10H10Z" fill="currentColor" style="fill="currentColor";fill-opacity:1;"/>
</svg>
