<svg width="24" height="24" viewBox="0 0 24 24" fill="none" xmlns="http://www.w3.org/2000/svg">
<path fill-rule="evenodd" clip-rule="evenodd" d="M7 3C7.55228 3 8 3.44772 8 4V17.5858L10.2929 15.2929C10.6834 14.9024 11.3166 14.9024 11.7071 15.2929C12.0976 15.6834 12.0976 16.3166 11.7071 16.7071L7.70711 20.7071C7.31658 21.0976 6.68342 21.0976 6.29289 20.7071L2.29289 16.7071C1.90237 16.3166 1.90237 15.6834 2.29289 15.2929C2.68342 14.9024 3.31658 14.9024 3.70711 15.2929L6 17.5858V4C6 3.44772 6.44772 3 7 3ZM14 4C14 3.44772 14.4477 3 15 3H17C17.5523 3 18 3.44772 18 4V9H19C19.5523 9 20 9.44772 20 10C20 10.5523 19.5523 11 19 11H15C14.4477 11 14 10.5523 14 10C14 9.44772 14.4477 9 15 9H16V5H15C14.4477 5 14 4.55228 14 4ZM17 15C16.4477 15 16 15.4477 16 16V18C16 18.5523 16.4477 19 17 19C17.5523 19 18 18.5523 18 18V16C18 15.4477 17.5523 15 17 15ZM14 16C14 14.3431 15.3431 13 17 13C18.6569 13 20 14.3431 20 16V18C20 19.6569 18.6569 21 17 21C15.3431 21 14 19.6569 14 18V16Z" fill="currentColor" style="fill="currentColor";fill-opacity:1;"/>
</svg>
