<svg width="24" height="24" viewBox="0 0 24 24" fill="none" xmlns="http://www.w3.org/2000/svg">
<path fill-rule="evenodd" clip-rule="evenodd" d="M6.29289 2.29289C6.68342 1.90237 7.31658 1.90237 7.70711 2.29289L10.7071 5.29289C11.0976 5.68342 11.0976 6.31658 10.7071 6.70711C10.3166 7.09763 9.68342 7.09763 9.29289 6.70711L8 5.41421V17C8 17.5523 7.55228 18 7 18C6.44772 18 6 17.5523 6 17V5.41421L4.70711 6.70711C4.31658 7.09763 3.68342 7.09763 3.29289 6.70711C2.90237 6.31658 2.90237 5.68342 3.29289 5.29289L6.29289 2.29289ZM16.2929 2.29289C16.6834 1.90237 17.3166 1.90237 17.7071 2.29289L20.7071 5.29289C21.0976 5.68342 21.0976 6.31658 20.7071 6.70711C20.3166 7.09763 19.6834 7.09763 19.2929 6.70711L18 5.41421V17C18 17.5523 17.5523 18 17 18C16.4477 18 16 17.5523 16 17V5.41421L14.7071 6.70711C14.3166 7.09763 13.6834 7.09763 13.2929 6.70711C12.9024 6.31658 12.9024 5.68342 13.2929 5.29289L16.2929 2.29289ZM3 21C3 20.4477 3.44772 20 4 20H20C20.5523 20 21 20.4477 21 21C21 21.5523 20.5523 22 20 22H4C3.44772 22 3 21.5523 3 21Z" fill="currentColor" style="fill="currentColor";fill-opacity:1;"/>
</svg>
