<svg width="24" height="24" viewBox="0 0 24 24" fill="none" xmlns="http://www.w3.org/2000/svg">
<path fill-rule="evenodd" clip-rule="evenodd" d="M11.2929 1.29289C11.6834 0.902369 12.3166 0.902369 12.7071 1.29289L19.7071 8.29289C20.0976 8.68342 20.0976 9.31658 19.7071 9.70711C19.3166 10.0976 18.6834 10.0976 18.2929 9.70711L13 4.41421V16C13 16.5523 12.5523 17 12 17C11.4477 17 11 16.5523 11 16V4.41421L5.70711 9.70711C5.31658 10.0976 4.68342 10.0976 4.29289 9.70711C3.90237 9.31658 3.90237 8.68342 4.29289 8.29289L11.2929 1.29289ZM10 21C10 19.8954 10.8954 19 12 19C13.1046 19 14 19.8954 14 21C14 22.1046 13.1046 23 12 23C10.8954 23 10 22.1046 10 21Z" fill="black" style="fill:black;fill-opacity:1;"/>
</svg>
