<svg width="24" height="24" viewBox="0 0 24 24" fill="none" xmlns="http://www.w3.org/2000/svg">
<path fill-rule="evenodd" clip-rule="evenodd" d="M2.87868 2.87868C3.44129 2.31607 4.20435 2 5 2H19C19.7957 2 20.5587 2.31607 21.1213 2.87868C21.6839 3.44129 22 4.20435 22 5V19C22 19.7957 21.6839 20.5587 21.1213 21.1213C20.5587 21.6839 19.7957 22 19 22H13C12.4477 22 12 21.5523 12 21C12 20.4477 12.4477 20 13 20H19C19.2652 20 19.5196 19.8946 19.7071 19.7071C19.8946 19.5196 20 19.2652 20 19V5C20 4.73478 19.8946 4.48043 19.7071 4.29289C19.5196 4.10536 19.2652 4 19 4H5C4.73478 4 4.48043 4.10536 4.29289 4.29289C4.10536 4.48043 4 4.73478 4 5V11C4 11.5523 3.55228 12 3 12C2.44772 12 2 11.5523 2 11V5C2 4.20435 2.31607 3.44129 2.87868 2.87868ZM11.2929 11.2929C11.6834 10.9024 12.3166 10.9024 12.7071 11.2929C13.0976 11.6834 13.0976 12.3166 12.7071 12.7071L5.41421 20H9C9.55228 20 10 20.4477 10 21C10 21.5523 9.55228 22 9 22H3C2.44772 22 2 21.5523 2 21V15C2 14.4477 2.44772 14 3 14C3.55228 14 4 14.4477 4 15V18.5858L11.2929 11.2929Z" fill="currentColor" style="fill="currentColor";fill-opacity:1;"/>
</svg>
