<svg width="24" height="24" viewBox="0 0 24 24" fill="none" xmlns="http://www.w3.org/2000/svg">
<path fill-rule="evenodd" clip-rule="evenodd" d="M1 2C1 1.44772 1.44772 1 2 1H8C8.55228 1 9 1.44772 9 2C9 2.55228 8.55228 3 8 3H4.41421L12.7071 11.2929C13.0976 11.6834 13.0976 12.3166 12.7071 12.7071C12.3166 13.0976 11.6834 13.0976 11.2929 12.7071L3 4.41421V8C3 8.55228 2.55228 9 2 9C1.44772 9 1 8.55228 1 8V2ZM17.0001 4.51677C15.5201 3.52784 13.78 3 12 3C11.4477 3 11 2.55228 11 2C11 1.44772 11.4477 1 12 1C14.1756 1 16.3023 1.64514 18.1113 2.85383C19.9202 4.06253 21.3301 5.78049 22.1627 7.79048C22.9952 9.80047 23.2131 12.0122 22.7886 14.146C22.3642 16.2798 21.3166 18.2398 19.7782 19.7782C18.2398 21.3166 16.2798 22.3642 14.146 22.7886C12.0122 23.2131 9.80047 22.9952 7.79048 22.1627C5.78049 21.3301 4.06253 19.9202 2.85383 18.1113C1.64514 16.3023 1 14.1756 1 12C1 11.4477 1.44772 11 2 11C2.55228 11 3 11.4477 3 12C3 13.78 3.52784 15.5201 4.51677 17.0001C5.50571 18.4802 6.91131 19.6337 8.55585 20.3149C10.2004 20.9961 12.01 21.1743 13.7558 20.8271C15.5016 20.4798 17.1053 19.6226 18.364 18.364C19.6226 17.1053 20.4798 15.5016 20.8271 13.7558C21.1743 12.01 20.9961 10.2004 20.3149 8.55585C19.6337 6.91131 18.4802 5.50571 17.0001 4.51677Z" fill="currentColor" style="fill="currentColor";fill-opacity:1;"/>
</svg>
