<svg width="24" height="24" viewBox="0 0 24 24" fill="none" xmlns="http://www.w3.org/2000/svg">
<path fill-rule="evenodd" clip-rule="evenodd" d="M2.87868 2.87868C3.44129 2.31607 4.20435 2 5 2H19C19.7957 2 20.5587 2.31607 21.1213 2.87868C21.6839 3.44129 22 4.20435 22 5V11C22 11.5523 21.5523 12 21 12C20.4477 12 20 11.5523 20 11V5C20 4.73478 19.8946 4.48043 19.7071 4.29289C19.5196 4.10536 19.2652 4 19 4H5C4.73478 4 4.48043 4.10536 4.29289 4.29289C4.10536 4.48043 4 4.73478 4 5V19C4 19.2652 4.10536 19.5196 4.29289 19.7071C4.48043 19.8946 4.73478 20 5 20H11C11.5523 20 12 20.4477 12 21C12 21.5523 11.5523 22 11 22H5C4.20435 22 3.44129 21.6839 2.87868 21.1213C2.31607 20.5587 2 19.7957 2 19V5C2 4.20435 2.31607 3.44129 2.87868 2.87868ZM11.2929 11.2929C11.6834 10.9024 12.3166 10.9024 12.7071 11.2929L20 18.5858V15C20 14.4477 20.4477 14 21 14C21.5523 14 22 14.4477 22 15V21C22 21.5523 21.5523 22 21 22H15C14.4477 22 14 21.5523 14 21C14 20.4477 14.4477 20 15 20H18.5858L11.2929 12.7071C10.9024 12.3166 10.9024 11.6834 11.2929 11.2929Z" fill="currentColor" style="fill="currentColor";fill-opacity:1;"/>
</svg>
