<svg width="24" height="24" viewBox="0 0 24 24" fill="none" xmlns="http://www.w3.org/2000/svg">
<path fill-rule="evenodd" clip-rule="evenodd" d="M7 3C7.55228 3 8 3.44772 8 4V17.5858L10.2929 15.2929C10.6834 14.9024 11.3166 14.9024 11.7071 15.2929C12.0976 15.6834 12.0976 16.3166 11.7071 16.7071L7.70711 20.7071C7.31658 21.0976 6.68342 21.0976 6.29289 20.7071L2.29289 16.7071C1.90237 16.3166 1.90237 15.6834 2.29289 15.2929C2.68342 14.9024 3.31658 14.9024 3.70711 15.2929L6 17.5858V4C6 3.44772 6.44772 3 7 3ZM10 4C10 3.44772 10.4477 3 11 3H15C15.5523 3 16 3.44772 16 4C16 4.55228 15.5523 5 15 5H11C10.4477 5 10 4.55228 10 4ZM10 8C10 7.44772 10.4477 7 11 7H18C18.5523 7 19 7.44772 19 8C19 8.55228 18.5523 9 18 9H11C10.4477 9 10 8.55228 10 8ZM10 12C10 11.4477 10.4477 11 11 11H21C21.5523 11 22 11.4477 22 12C22 12.5523 21.5523 13 21 13H11C10.4477 13 10 12.5523 10 12Z" fill="currentColor" style="fill="currentColor";fill-opacity:1;"/>
</svg>
