<svg width="24" height="24" viewBox="0 0 24 24" fill="none" xmlns="http://www.w3.org/2000/svg">
<path fill-rule="evenodd" clip-rule="evenodd" d="M3 4C3.55228 4 4 4.44772 4 5V19C4 19.5523 3.55228 20 3 20C2.44772 20 2 19.5523 2 19V5C2 4.44772 2.44772 4 3 4ZM13.7071 5.29289C14.0976 5.68342 14.0976 6.31658 13.7071 6.70711L9.41421 11H21C21.5523 11 22 11.4477 22 12C22 12.5523 21.5523 13 21 13H9.41421L13.7071 17.2929C14.0976 17.6834 14.0976 18.3166 13.7071 18.7071C13.3166 19.0976 12.6834 19.0976 12.2929 18.7071L6.29289 12.7071C5.90237 12.3166 5.90237 11.6834 6.29289 11.2929L12.2929 5.29289C12.6834 4.90237 13.3166 4.90237 13.7071 5.29289Z" fill="currentColor" style="fill="currentColor";fill-opacity:1;"/>
</svg>
