<svg width="24" height="24" viewBox="0 0 24 24" fill="none" xmlns="http://www.w3.org/2000/svg">
<path fill-rule="evenodd" clip-rule="evenodd" d="M6.29289 3.29289C6.68342 2.90237 7.31658 2.90237 7.70711 3.29289L11.7071 7.29289C12.0976 7.68342 12.0976 8.31658 11.7071 8.70711C11.3166 9.09763 10.6834 9.09763 10.2929 8.70711L8 6.41421V20C8 20.5523 7.55228 21 7 21C6.44772 21 6 20.5523 6 20V6.41421L3.70711 8.70711C3.31658 9.09763 2.68342 9.09763 2.29289 8.70711C1.90237 8.31658 1.90237 7.68342 2.29289 7.29289L6.29289 3.29289ZM21 13H11C10.4477 13 10 12.5523 10 12C10 11.4477 10.4477 11 11 11H21C21.5523 11 22 11.4477 22 12C22 12.5523 21.5523 13 21 13ZM18 17H11C10.4477 17 10 16.5523 10 16C10 15.4477 10.4477 15 11 15H18C18.5523 15 19 15.4477 19 16C19 16.5523 18.5523 17 18 17ZM11 21C10.4477 21 10 20.5523 10 20C10 19.4477 10.4477 19 11 19H15C15.5523 19 16 19.4477 16 20C16 20.5523 15.5523 21 15 21H11Z" fill="currentColor" style="fill="currentColor";fill-opacity:1;"/>
</svg>
