<svg width="24" height="24" viewBox="0 0 24 24" fill="none" xmlns="http://www.w3.org/2000/svg">
<path fill-rule="evenodd" clip-rule="evenodd" d="M15.4442 3.68509C13.7996 3.0039 11.99 2.82567 10.2442 3.17294C8.49836 3.5202 6.89472 4.37737 5.63604 5.63604C4.37737 6.89472 3.5202 8.49836 3.17294 10.2442C2.82567 11.99 3.0039 13.7996 3.68509 15.4442C4.36628 17.0887 5.51983 18.4943 6.99987 19.4832C8.47992 20.4722 10.22 21 12 21C12.5523 21 13 21.4477 13 22C13 22.5523 12.5523 23 12 23C9.82441 23 7.69767 22.3549 5.88873 21.1462C4.07979 19.9375 2.66989 18.2195 1.83733 16.2095C1.00477 14.1995 0.786929 11.9878 1.21137 9.85401C1.6358 7.72022 2.68345 5.76021 4.22183 4.22183C5.76021 2.68345 7.72022 1.6358 9.85401 1.21137C11.9878 0.786929 14.1995 1.00477 16.2095 1.83733C18.2195 2.66989 19.9375 4.07979 21.1462 5.88873C22.3549 7.69767 23 9.82441 23 12C23 12.5523 22.5523 13 22 13C21.4477 13 21 12.5523 21 12C21 10.22 20.4722 8.47992 19.4832 6.99987C18.4943 5.51983 17.0887 4.36628 15.4442 3.68509ZM11.2929 11.2929C11.6834 10.9024 12.3166 10.9024 12.7071 11.2929L21 19.5858V16C21 15.4477 21.4477 15 22 15C22.5523 15 23 15.4477 23 16V22C23 22.5523 22.5523 23 22 23H16C15.4477 23 15 22.5523 15 22C15 21.4477 15.4477 21 16 21H19.5858L11.2929 12.7071C10.9024 12.3166 10.9024 11.6834 11.2929 11.2929Z" fill="currentColor" style="fill="currentColor";fill-opacity:1;"/>
</svg>
