<svg width="24" height="24" viewBox="0 0 24 24" fill="none" xmlns="http://www.w3.org/2000/svg">
<path fill-rule="evenodd" clip-rule="evenodd" d="M7 3C7.55228 3 8 3.44772 8 4V17.5858L10.2929 15.2929C10.6834 14.9024 11.3166 14.9024 11.7071 15.2929C12.0976 15.6834 12.0976 16.3166 11.7071 16.7071L7.70711 20.7071C7.31658 21.0976 6.68342 21.0976 6.29289 20.7071L2.29289 16.7071C1.90237 16.3166 1.90237 15.6834 2.29289 15.2929C2.68342 14.9024 3.31658 14.9024 3.70711 15.2929L6 17.5858V4C6 3.44772 6.44772 3 7 3ZM17.5 5C17.1022 5 16.7206 5.15804 16.4393 5.43934C16.158 5.72064 16 6.10218 16 6.5V7H19V6.5C19 6.10218 18.842 5.72064 18.5607 5.43934C18.2794 5.15804 17.8978 5 17.5 5ZM21 6.5C21 5.57174 20.6313 4.6815 19.9749 4.02513C19.3185 3.36875 18.4283 3 17.5 3C16.5717 3 15.6815 3.36875 15.0251 4.02513C14.3687 4.6815 14 5.57174 14 6.5V10C14 10.5523 14.4477 11 15 11C15.5523 11 16 10.5523 16 10V9H19V10C19 10.5523 19.4477 11 20 11C20.5523 11 21 10.5523 21 10V6.5ZM14 14C14 13.4477 14.4477 13 15 13H20C20.388 13 20.741 13.2245 20.9056 13.5758C21.0702 13.9272 21.0166 14.3421 20.7682 14.6402L17.135 19H20C20.5523 19 21 19.4477 21 20C21 20.5523 20.5523 21 20 21H15C14.612 21 14.259 20.7755 14.0944 20.4242C13.9298 20.0728 13.9834 19.6579 14.2318 19.3598L17.865 15H15C14.4477 15 14 14.5523 14 14Z" fill="currentColor" style="fill="currentColor";fill-opacity:1;"/>
</svg>
