<svg width="24" height="24" viewBox="0 0 24 24" fill="none" xmlns="http://www.w3.org/2000/svg">
<path fill-rule="evenodd" clip-rule="evenodd" d="M5 4C4.44772 4 4 4.44772 4 5V19C4 19.5523 4.44771 20 5 20H19C19.5523 20 20 19.5523 20 19V5C20 4.44771 19.5523 4 19 4H5ZM2 5C2 3.34315 3.34315 2 5 2H19C20.6569 2 22 3.34315 22 5V19C22 20.6569 20.6569 22 19 22H5C3.34315 22 2 20.6569 2 19V5ZM12 7C12.5523 7 13 7.44772 13 8V10.2768L15.0039 9.13176C15.4834 8.85775 16.0942 9.02434 16.3682 9.50386C16.6423 9.98338 16.4757 10.5942 15.9961 10.8682L14.0156 12L15.9961 13.1318C16.4757 13.4058 16.6423 14.0166 16.3682 14.4961C16.0942 14.9757 15.4834 15.1423 15.0039 14.8682L13 13.7232V16C13 16.5523 12.5523 17 12 17C11.4477 17 11 16.5523 11 16V13.7232L8.99614 14.8682C8.51662 15.1423 7.90577 14.9757 7.63176 14.4961C7.35775 14.0166 7.52434 13.4058 8.00386 13.1318L9.98444 12L8.00386 10.8682C7.52434 10.5942 7.35775 9.98338 7.63176 9.50386C7.90577 9.02434 8.51662 8.85775 8.99614 9.13176L11 10.2768V8C11 7.44772 11.4477 7 12 7Z" fill="currentColor" style="fill="currentColor";fill-opacity:1;"/>
</svg>
