<svg width="24" height="24" viewBox="0 0 24 24" fill="none" xmlns="http://www.w3.org/2000/svg">
<path fill-rule="evenodd" clip-rule="evenodd" d="M12 5C12.5523 5 13 5.44772 13 6V10.2679L16.696 8.13398C17.1742 7.85783 17.7858 8.0217 18.062 8.49999C18.3381 8.97828 18.1743 9.58987 17.696 9.86602L13.9999 12L17.696 14.134C18.1743 14.4101 18.3381 15.0217 18.062 15.5C17.7858 15.9783 17.1742 16.1422 16.696 15.866L13 13.7321V18C13 18.5523 12.5523 19 12 19C11.4477 19 11 18.5523 11 18V13.732L7.30398 15.866C6.82569 16.1422 6.2141 15.9783 5.93795 15.5C5.6618 15.0217 5.82567 14.4101 6.30396 14.134L10 12L6.30396 9.86602C5.82567 9.58987 5.6618 8.97828 5.93795 8.49999C6.2141 8.0217 6.82569 7.85783 7.30398 8.13398L11 10.2679V6C11 5.44772 11.4477 5 12 5Z" fill="black" style="fill:black;fill-opacity:1;"/>
</svg>
