<svg width="24" height="24" viewBox="0 0 24 24" fill="none" xmlns="http://www.w3.org/2000/svg">
<path fill-rule="evenodd" clip-rule="evenodd" d="M13.8193 5.32942C14.6962 5.99789 15.566 6.75547 16.4054 7.59122L16.4086 7.59434C17.2443 8.43379 18.0019 9.30356 18.6704 10.1805C18.9968 9.58509 19.2659 9.0062 19.4746 8.45472C19.8523 7.45667 20.015 6.59317 19.9935 5.90861C19.9722 5.23142 19.776 4.78882 19.4945 4.50873L19.491 4.50525C19.211 4.22378 18.7684 4.02753 18.0912 4.00627C17.4066 3.98478 16.5431 4.14749 15.5451 4.52516C14.9936 4.73385 14.4147 5.003 13.8193 5.32942ZM11.9999 4.07556C12.9669 3.4791 13.9231 3.00053 14.8372 2.65461C15.9929 2.21728 17.1263 1.97499 18.1539 2.00725C19.1881 2.03972 20.1723 2.35549 20.907 3.09278C21.6443 3.8275 21.9601 4.81167 21.9925 5.84585C22.0248 6.87348 21.7825 8.00685 21.3452 9.16255C20.9992 10.0767 20.5207 11.0329 19.9242 11.9999C20.5207 12.9669 20.9992 13.9231 21.3452 14.8372C21.7825 15.9929 22.0248 17.1263 21.9925 18.1539C21.9601 19.1881 21.6443 20.1723 20.907 20.907C20.1723 21.6443 19.1881 21.9601 18.1539 21.9925C17.1263 22.0248 15.9929 21.7825 14.8372 21.3452C13.9231 20.9992 12.9669 20.5207 11.9999 19.9242C11.0329 20.5207 10.0767 20.9992 9.16255 21.3452C8.00685 21.7825 6.87348 22.0248 5.84585 21.9925C4.81157 21.9601 3.82732 21.6442 3.09257 20.9068C2.35544 20.1721 2.03972 19.188 2.00725 18.1539C1.97499 17.1263 2.21728 15.9929 2.65461 14.8372C3.00053 13.9231 3.4791 12.9669 4.07556 11.9999C3.4791 11.0329 3.00053 10.0767 2.65461 9.16255C2.21728 8.00685 1.97499 6.87348 2.00725 5.84585C2.03972 4.81167 2.35549 3.8275 3.09278 3.09278C3.8275 2.35549 4.81167 2.03972 5.84585 2.00725C6.87348 1.97499 8.00685 2.21728 9.16255 2.65461C10.0767 3.00053 11.0329 3.4791 11.9999 4.07556ZM5.32942 10.1805C5.003 9.58509 4.73385 9.0062 4.52516 8.45472C4.14749 7.45667 3.98478 6.59317 4.00627 5.90861C4.02753 5.23142 4.22378 4.78882 4.50525 4.50873L4.50526 4.50874L4.50873 4.50525C4.78882 4.22378 5.23142 4.02753 5.90861 4.00627C6.59317 3.98478 7.45667 4.14749 8.45472 4.52516C9.0062 4.73385 9.58509 5.003 10.1805 5.32942C9.30356 5.99789 8.43379 6.75547 7.59434 7.59122L7.59122 7.59434C6.75547 8.43379 5.99789 9.30356 5.32942 10.1805ZM5.32942 13.8193C5.003 14.4147 4.73385 14.9936 4.52516 15.5451C4.14749 16.5431 3.98478 17.4066 4.00627 18.0912C4.02753 18.7684 4.22378 19.211 4.50525 19.491L4.50873 19.4945C4.78882 19.776 5.23142 19.9722 5.90861 19.9935C6.59317 20.015 7.45667 19.8523 8.45472 19.4746C9.0062 19.2659 9.58509 18.9968 10.1805 18.6704C9.30356 18.0019 8.43379 17.2443 7.59434 16.4086L7.59122 16.4054C6.75547 15.566 5.99789 14.6962 5.32942 13.8193ZM13.8193 18.6704C14.4147 18.9968 14.9936 19.2659 15.5451 19.4746C16.5431 19.8523 17.4066 20.015 18.0912 19.9935C18.7684 19.9722 19.211 19.776 19.491 19.4945L19.4945 19.491C19.776 19.211 19.9722 18.7684 19.9935 18.0912C20.015 17.4066 19.8523 16.5431 19.4746 15.5451C19.2659 14.9936 18.9968 14.4147 18.6704 13.8193C18.0019 14.6962 17.2443 15.566 16.4086 16.4054L16.4054 16.4086C15.566 17.2443 14.6962 18.0019 13.8193 18.6704ZM17.5261 11.9999C16.8187 11.0015 15.9697 9.98844 14.9928 9.00705C14.0114 8.03011 12.9983 7.18113 11.9999 6.47363C11.0014 7.18112 9.9884 8.03008 9.007 9.007C8.03008 9.9884 7.18112 11.0014 6.47363 11.9999C7.18113 12.9983 8.03011 14.0114 9.00705 14.9928C9.98844 15.9697 11.0015 16.8187 11.9999 17.5261C12.9983 16.8187 14.0114 15.9697 14.9928 14.9928C15.9697 14.0114 16.8187 12.9983 17.5261 11.9999ZM10 12C10 10.8954 10.8954 10 12 10C13.1046 10 14 10.8954 14 12C14 13.1046 13.1046 14 12 14C10.8954 14 10 13.1046 10 12Z" fill="currentColor" style="fill="currentColor";fill-opacity:1;"/>
</svg>
