<svg width="24" height="24" viewBox="0 0 24 24" fill="none" xmlns="http://www.w3.org/2000/svg">
<path fill-rule="evenodd" clip-rule="evenodd" d="M14 3C13.7348 3 13.4804 3.10536 13.2929 3.29289C13.1054 3.48043 13 3.73478 13 4V20C13 20.7957 12.6839 21.5587 12.1213 22.1213C11.5587 22.6839 10.7957 23 10 23C9.20435 23 8.44129 22.6839 7.87868 22.1213C7.31607 21.5587 7 20.7957 7 20V7C7 6.73478 6.89464 6.48043 6.70711 6.29289C6.51957 6.10536 6.26522 6 6 6C5.73478 6 5.48043 6.10536 5.29289 6.29289C5.10536 6.48043 5 6.73478 5 7V11C5 11.7956 4.68393 12.5587 4.12132 13.1213C3.55871 13.6839 2.79565 14 2 14C1.44772 14 1 13.5523 1 13C1 12.4477 1.44772 12 2 12C2.26522 12 2.51957 11.8946 2.70711 11.7071C2.89464 11.5196 3 11.2652 3 11V7C3 6.20435 3.31607 5.44129 3.87868 4.87868C4.44129 4.31607 5.20435 4 6 4C6.79565 4 7.55871 4.31607 8.12132 4.87868C8.68393 5.44129 9 6.20435 9 7V20C9 20.2652 9.10536 20.5196 9.29289 20.7071C9.48043 20.8946 9.73478 21 10 21C10.2652 21 10.5196 20.8946 10.7071 20.7071C10.8946 20.5196 11 20.2652 11 20V4C11 3.20435 11.3161 2.44129 11.8787 1.87868C12.4413 1.31607 13.2044 1 14 1C14.7956 1 15.5587 1.31607 16.1213 1.87868C16.6839 2.44129 17 3.20435 17 4V17C17 17.2652 17.1054 17.5196 17.2929 17.7071C17.4804 17.8946 17.7348 18 18 18C18.2652 18 18.5196 17.8946 18.7071 17.7071C18.8946 17.5196 19 17.2652 19 17V13C19 12.2043 19.3161 11.4413 19.8787 10.8787C20.4413 10.3161 21.2043 10 22 10C22.5523 10 23 10.4477 23 11C23 11.5523 22.5523 12 22 12C21.7348 12 21.4804 12.1054 21.2929 12.2929C21.1054 12.4804 21 12.7348 21 13V17C21 17.7957 20.6839 18.5587 20.1213 19.1213C19.5587 19.6839 18.7957 20 18 20C17.2043 20 16.4413 19.6839 15.8787 19.1213C15.3161 18.5587 15 17.7957 15 17V4C15 3.73478 14.8946 3.48043 14.7071 3.29289C14.5196 3.10536 14.2652 3 14 3Z" fill="currentColor" style="fill="currentColor";fill-opacity:1;"/>
</svg>
