<svg width="24" height="24" viewBox="0 0 24 24" fill="none" xmlns="http://www.w3.org/2000/svg">
<path fill-rule="evenodd" clip-rule="evenodd" d="M12 3C9.23858 3 7 5.23858 7 8C7 9.67026 7.81898 11.1492 9.07727 12.0573C9.09445 12.0687 9.11123 12.0807 9.12759 12.0931C9.94035 12.6645 10.931 13 12 13C13.069 13 14.0597 12.6645 14.8724 12.0931C14.8888 12.0807 14.9055 12.0687 14.9227 12.0573C16.181 11.1492 17 9.67026 17 8C17 5.23858 14.7614 3 12 3ZM16.5611 13.3102C18.0543 12.0264 19 10.1236 19 8C19 4.13401 15.866 1 12 1C8.13401 1 5 4.13401 5 8C5 10.1236 5.94567 12.0264 7.43886 13.3102L6.01369 21.835C5.94937 22.2197 6.11463 22.6067 6.437 22.8263C6.75937 23.046 7.18002 23.0581 7.5145 22.8574L12 20.1661L16.4855 22.8574C16.82 23.0581 17.2406 23.046 17.563 22.8263C17.8854 22.6067 18.0506 22.2197 17.9863 21.835L16.5611 13.3102ZM14.724 14.4502C13.8867 14.8042 12.9662 15 12 15C11.0338 15 10.1133 14.8042 9.27602 14.4502L8.34361 20.0275L11.4855 18.1424C11.8022 17.9524 12.1978 17.9524 12.5145 18.1424L15.6564 20.0275L14.724 14.4502Z" fill="currentColor" style="fill="currentColor";fill-opacity:1;"/>
</svg>
