<svg width="24" height="24" viewBox="0 0 24 24" fill="none" xmlns="http://www.w3.org/2000/svg">
<path fill-rule="evenodd" clip-rule="evenodd" d="M12.2929 2.29289C12.6834 1.90237 13.3166 1.90237 13.7071 2.29289L19.4142 8H22C22.2858 8 22.5579 8.12226 22.7477 8.33593C22.9374 8.54959 23.0267 8.83424 22.993 9.11801C22.7546 11.124 21.8483 12.9914 20.4199 14.4199C18.9914 15.8483 17.124 16.7546 15.118 16.993C14.8342 17.0267 14.5496 16.9374 14.3359 16.7477C14.1223 16.5579 14 16.2858 14 16V13.4142L6.20709 21.2071C5.62173 21.7925 4.82781 22.1213 3.99998 22.1213C3.17216 22.1213 2.37824 21.7925 1.79288 21.2071C1.20751 20.6217 0.878662 19.8278 0.878662 19C0.878662 18.1722 1.20751 17.3783 1.79288 16.7929L9.58578 8.99999L8.29289 7.70711C7.90237 7.31658 7.90237 6.68342 8.29289 6.29289L12.2929 2.29289ZM11 10.4142L3.20709 18.2071C2.9968 18.4174 2.87866 18.7026 2.87866 19C2.87866 19.2974 2.9968 19.5826 3.20709 19.7929C3.41738 20.0032 3.70259 20.1213 3.99998 20.1213C4.29737 20.1213 4.58259 20.0032 4.79288 19.7929L12.5858 12L11 10.4142ZM10.4142 7L13 4.41421L18.2929 9.70711C18.4804 9.89464 18.7348 10 19 10H20.7805C20.4539 11.1298 19.8459 12.1654 19.0056 13.0057C18.1654 13.8459 17.1298 14.4539 16 14.7805V13C16 12.7348 15.8946 12.4804 15.7071 12.2929L10.4142 7Z" fill="currentColor" style="fill="currentColor";fill-opacity:1;"/>
</svg>
