<svg width="24" height="24" viewBox="0 0 24 24" fill="none" xmlns="http://www.w3.org/2000/svg">
<path fill-rule="evenodd" clip-rule="evenodd" d="M11 3C10.7348 3 10.4804 3.10536 10.2929 3.29289C10.1054 3.48043 10 3.73478 10 4V5H14V4C14 3.73478 13.8946 3.48043 13.7071 3.29289C13.5196 3.10536 13.2652 3 13 3H11ZM16 5V4C16 3.20435 15.6839 2.44129 15.1213 1.87868C14.5587 1.31607 13.7956 1 13 1H11C10.2044 1 9.44129 1.31607 8.87868 1.87868C8.31607 2.44129 8 3.20435 8 4V5C6.67392 5 5.40215 5.52678 4.46447 6.46447C3.52678 7.40215 3 8.67392 3 10V20C3 20.7957 3.31607 21.5587 3.87868 22.1213C4.44129 22.6839 5.20435 23 6 23H18C18.7957 23 19.5587 22.6839 20.1213 22.1213C20.6839 21.5587 21 20.7957 21 20V10C21 8.67392 20.4732 7.40215 19.5355 6.46447C18.5979 5.52678 17.3261 5 16 5ZM8 7C7.20435 7 6.44129 7.31607 5.87868 7.87868C5.31607 8.44129 5 9.20435 5 10V20C5 20.2652 5.10536 20.5196 5.29289 20.7071C5.48043 20.8946 5.73478 21 6 21H7V16C7 15.2043 7.31607 14.4413 7.87868 13.8787C8.44129 13.3161 9.20435 13 10 13H14C14.7957 13 15.5587 13.3161 16.1213 13.8787C16.6839 14.4413 17 15.2043 17 16V21H18C18.2652 21 18.5196 20.8946 18.7071 20.7071C18.8946 20.5196 19 20.2652 19 20V10C19 9.20435 18.6839 8.44129 18.1213 7.87868C17.5587 7.31607 16.7956 7 16 7H8ZM15 21V19H9V21H15ZM9 17H15V16C15 15.7348 14.8946 15.4804 14.7071 15.2929C14.5196 15.1054 14.2652 15 14 15H10C9.73478 15 9.48043 15.1054 9.29289 15.2929C9.10536 15.4804 9 15.7348 9 16V17ZM7 10C7 9.44772 7.44772 9 8 9H16C16.5523 9 17 9.44772 17 10C17 10.5523 16.5523 11 16 11H8C7.44772 11 7 10.5523 7 10Z" fill="currentColor" style="fill="currentColor";fill-opacity:1;"/>
</svg>
