<svg width="24" height="24" viewBox="0 0 24 24" fill="none" xmlns="http://www.w3.org/2000/svg">
<path fill-rule="evenodd" clip-rule="evenodd" d="M4.96815 6.38225C3.73649 7.92193 3 9.87496 3 12C3 16.9706 7.02944 21 12 21C14.125 21 16.0781 20.2635 17.6178 19.0318L4.96815 6.38225ZM4.01443 4.43487C2.14605 6.40642 1 9.06937 1 12C1 18.0751 5.92487 23 12 23C14.9308 23 17.5938 21.8538 19.5654 19.9853C19.6524 19.9396 19.734 19.8801 19.8071 19.807C19.8803 19.7339 19.9397 19.6522 19.9854 19.5653C21.8539 17.5937 23 14.9307 23 12C23 5.92487 18.0751 1 12 1C9.06944 1 6.40654 2.146 4.435 4.0143C4.34791 4.06007 4.26615 4.11957 4.19292 4.1928C4.11969 4.26602 4.0602 4.34778 4.01443 4.43487ZM6.38238 4.96805L19.032 17.6176C20.2635 16.078 21 14.125 21 12C21 7.02944 16.9706 3 12 3C9.87502 3 7.92204 3.73645 6.38238 4.96805Z" fill="currentColor" style="fill="currentColor";fill-opacity:1;"/>
</svg>
