<svg width="24" height="24" viewBox="0 0 24 24" fill="none" xmlns="http://www.w3.org/2000/svg">
<path fill-rule="evenodd" clip-rule="evenodd" d="M12.7784 3.37084C12.7076 3.89196 12.8209 4.69759 13.1024 5.58511C13.8254 7.82606 13.7221 10.0968 12.9668 12.1289C13.511 12.5608 14.0035 13.095 14.4265 13.7384C15.1165 13.506 15.8424 13.3907 16.5739 13.3989C16.8525 12.3304 17 11.1886 17 10C17 8.92277 16.5994 7.07549 15.8139 5.5113C14.9941 3.87901 13.9953 3 13 3C12.9244 3 12.8937 3.01233 12.8907 3.01358C12.8901 3.01382 12.8927 3.01168 12.8907 3.01391C12.8786 3.02721 12.813 3.11587 12.7784 3.37084ZM18.546 13.7286C18.8444 12.5352 19 11.2808 19 10C19 8.57723 18.5106 6.42451 17.6011 4.6137C16.7259 2.87099 15.2247 1 13 1C12.3796 1 11.8191 1.21842 11.4093 1.67015C11.0276 2.09092 10.862 2.62038 10.7966 3.10166C10.6674 4.05258 10.8789 5.19101 11.1969 6.19258L11.1969 6.19258L11.1984 6.19727C11.7356 7.86088 11.702 9.56884 11.1928 11.1315C10.7121 10.9531 10.2116 10.8301 9.69914 10.7594C7.61997 10.4726 5.39867 11.049 3.50386 12.1317C3.02434 12.4058 2.85775 13.0166 3.13176 13.4961C3.40577 13.9756 4.01662 14.1422 4.49614 13.8682C6.10133 12.951 7.88003 12.5274 9.42586 12.7406C9.73987 12.7839 10.0465 12.8535 10.3428 12.952C9.19558 14.7945 7.30586 16.2591 4.88452 16.9259L4.88161 16.9267C4.63975 16.9941 4.40958 17.0542 4.18685 17.1119C4.15976 17.1189 4.13269 17.1259 4.10567 17.1329C3.91355 17.1826 3.7237 17.2317 3.54525 17.2806C3.1473 17.3898 2.7344 17.5166 2.37154 17.6993C1.99454 17.8891 1.62223 18.1632 1.35822 18.5916C1.09554 19.0178 1 19.4995 1 20C1 20.802 1.32975 21.4515 1.87372 21.9164C2.37743 22.3469 3.01919 22.5826 3.62899 22.7241C4.81897 23.0002 6.28986 23.0001 7.44602 23L7.51 23C12.4921 23 16.2033 19.8997 17.9286 15.631C18.263 15.7428 18.5844 15.8941 18.8859 16.0825C19.5451 16.4945 20.0863 17.0701 20.4568 17.7534C20.8273 18.4367 21.0145 19.2044 21.0002 19.9815C20.99 20.5337 21.4294 20.9896 21.9815 20.9998C22.5337 21.01 22.9896 20.5706 22.9998 20.0184C23.0205 18.8959 22.7501 17.7871 22.2149 16.8001C21.6798 15.8131 20.898 14.9816 19.9459 14.3865C19.5053 14.1111 19.0352 13.8907 18.546 13.7286ZM15.8386 15.4475C15.3582 15.519 14.8907 15.6681 14.4547 15.8906C14.2172 16.0119 13.9411 16.0333 13.6878 15.95C13.4344 15.8667 13.2248 15.6857 13.1056 15.4472C12.8101 14.8563 12.4552 14.3732 12.0544 13.9858C10.6368 16.2657 8.3161 18.055 5.41693 18.8537C5.15684 18.9262 4.91219 18.99 4.68827 19.048C4.66045 19.0552 4.63304 19.0623 4.60601 19.0693C4.41205 19.1195 4.23768 19.1646 4.07443 19.2094C3.69333 19.3139 3.44435 19.3984 3.27096 19.4857C3.11171 19.5659 3.07339 19.6206 3.06084 19.6409C3.04696 19.6634 3 19.7505 3 20C3 20.198 3.059 20.2985 3.17316 20.3961C3.32758 20.5281 3.61331 20.6674 4.08101 20.7759C5.02397 20.9947 6.2755 21 7.51 21C11.2775 21 14.2832 18.7755 15.8386 15.4475Z" fill="black" style="fill:black;fill-opacity:1;"/>
</svg>
