<svg width="24" height="24" viewBox="0 0 24 24" fill="none" xmlns="http://www.w3.org/2000/svg">
<path fill-rule="evenodd" clip-rule="evenodd" d="M3 2C3.55228 2 4 2.44772 4 3V20H21C21.5523 20 22 20.4477 22 21C22 21.5523 21.5523 22 21 22H3C2.44772 22 2 21.5523 2 21V3C2 2.44772 2.44772 2 3 2ZM6 6C6 4.89543 6.89543 4 8 4H18C19.1046 4 20 4.89543 20 6V8C20 9.10457 19.1046 10 18 10H8C6.89543 10 6 9.10457 6 8V6ZM18 6H8V8H18V6ZM6 14C6 12.8954 6.89543 12 8 12H13C14.1046 12 15 12.8954 15 14V16C15 17.1046 14.1046 18 13 18H8C6.89543 18 6 17.1046 6 16V14ZM13 14H8V16H13V14Z" fill="currentColor" style="fill="currentColor";fill-opacity:1;"/>
</svg>
