<svg width="24" height="24" viewBox="0 0 24 24" fill="none" xmlns="http://www.w3.org/2000/svg">
<path fill-rule="evenodd" clip-rule="evenodd" d="M3 2C3.55228 2 4 2.44772 4 3V20H21C21.5523 20 22 20.4477 22 21C22 21.5523 21.5523 22 21 22H3C2.44772 22 2 21.5523 2 21V3C2 2.44772 2.44772 2 3 2ZM6 6C6 5.44772 6.44772 5 7 5H10C10.5523 5 11 5.44772 11 6C11 6.55228 10.5523 7 10 7H7C6.44772 7 6 6.55228 6 6ZM6 11C6 10.4477 6.44772 10 7 10H19C19.5523 10 20 10.4477 20 11C20 11.5523 19.5523 12 19 12H7C6.44772 12 6 11.5523 6 11ZM6 16C6 15.4477 6.44772 15 7 15H15C15.5523 15 16 15.4477 16 16C16 16.5523 15.5523 17 15 17H7C6.44772 17 6 16.5523 6 16Z" fill="currentColor" style="fill="currentColor";fill-opacity:1;"/>
</svg>
