<svg width="24" height="24" viewBox="0 0 24 24" fill="none" xmlns="http://www.w3.org/2000/svg">
<path fill-rule="evenodd" clip-rule="evenodd" d="M3 2C3.55228 2 4 2.44772 4 3V20H21C21.5523 20 22 20.4477 22 21C22 21.5523 21.5523 22 21 22H3C2.44772 22 2 21.5523 2 21V3C2 2.44772 2.44772 2 3 2ZM18 4C18.5523 4 19 4.44772 19 5V17C19 17.5523 18.5523 18 18 18C17.4477 18 17 17.5523 17 17V5C17 4.44772 17.4477 4 18 4ZM13 8C13.5523 8 14 8.44772 14 9V17C14 17.5523 13.5523 18 13 18C12.4477 18 12 17.5523 12 17V9C12 8.44772 12.4477 8 13 8ZM8 13C8.55228 13 9 13.4477 9 14V17C9 17.5523 8.55228 18 8 18C7.44772 18 7 17.5523 7 17V14C7 13.4477 7.44772 13 8 13Z" fill="currentColor" style="fill="currentColor";fill-opacity:1;"/>
</svg>
