<svg width="24" height="24" viewBox="0 0 24 24" fill="none" xmlns="http://www.w3.org/2000/svg">
<path fill-rule="evenodd" clip-rule="evenodd" d="M3 2C3.55228 2 4 2.44772 4 3V20H21C21.5523 20 22 20.4477 22 21C22 21.5523 21.5523 22 21 22H3C2.44772 22 2 21.5523 2 21V3C2 2.44772 2.44772 2 3 2ZM14 6C14 4.89543 14.8954 4 16 4H18C19.1046 4 20 4.89543 20 6V16C20 17.1046 19.1046 18 18 18H16C14.8954 18 14 17.1046 14 16V6ZM18 6H16V16H18V6ZM6 11C6 9.89543 6.89543 9 8 9H10C11.1046 9 12 9.89543 12 11V16C12 17.1046 11.1046 18 10 18H8C6.89543 18 6 17.1046 6 16V11ZM10 11H8V16H10V11Z" fill="currentColor" style="fill="currentColor";fill-opacity:1;"/>
</svg>
