<svg width="24" height="24" viewBox="0 0 24 24" fill="none" xmlns="http://www.w3.org/2000/svg">
<path fill-rule="evenodd" clip-rule="evenodd" d="M3 4.5C3 3.13072 4.13072 2 5.5 2C5.52726 2 5.5545 2.00111 5.58166 2.00334C6.21258 2.05504 6.79996 2.3441 7.22568 2.81147L9 4.58579L9.29289 4.29289C9.68342 3.90237 10.3166 3.90237 10.7071 4.29289C11.0976 4.68342 11.0976 5.31658 10.7071 5.70711L9.7074 6.70681L8.70711 7.70711C8.31658 8.09763 7.68342 8.09763 7.29289 7.70711C6.90237 7.31658 6.90237 6.68342 7.29289 6.29289L7.58579 6L5.79289 4.20711C5.77872 4.19293 5.76497 4.17833 5.75167 4.16333C5.67546 4.07735 5.57228 4.02057 5.45979 4.00181C5.21192 4.02406 5 4.24877 5 4.5V11H22C22.5523 11 23 11.4477 23 12C23 12.5523 22.5523 13 22 13H21V17C21 17.7957 20.6839 18.5587 20.1213 19.1213C19.5587 19.6839 18.7957 20 18 20V21C18 21.5523 17.5523 22 17 22C16.4477 22 16 21.5523 16 21V20H8V21C8 21.5523 7.55228 22 7 22C6.44772 22 6 21.5523 6 21V20C5.20435 20 4.44129 19.6839 3.87868 19.1213C3.31607 18.5587 3 17.7956 3 17V13H2C1.44772 13 1 12.5523 1 12C1 11.4477 1.44772 11 2 11H3V4.5ZM5 13V17C5 17.2652 5.10536 17.5196 5.29289 17.7071C5.48043 17.8946 5.73478 18 6 18H18C18.2652 18 18.5196 17.8946 18.7071 17.7071C18.8946 17.5196 19 17.2652 19 17V13H5Z" fill="currentColor" style="fill="currentColor";fill-opacity:1;"/>
</svg>
