<svg width="24" height="24" viewBox="0 0 24 24" fill="none" xmlns="http://www.w3.org/2000/svg">
<path fill-rule="evenodd" clip-rule="evenodd" d="M1.87868 6.87868C2.44129 6.31607 3.20435 6 4 6H6C6.55228 6 7 6.44772 7 7C7 7.55228 6.55228 8 6 8H4C3.73478 8 3.48043 8.10536 3.29289 8.29289C3.10536 8.48043 3 8.73478 3 9V15C3 15.1748 3.09745 15.4332 3.33211 15.6679C3.56676 15.9025 3.82523 16 4 16H6C6.55228 16 7 16.4477 7 17C7 17.5523 6.55228 18 6 18H4C3.17477 18 2.43324 17.5975 1.91789 17.0821C1.40255 16.5668 1 15.8252 1 15V9C1 8.20435 1.31607 7.44129 1.87868 6.87868ZM10 6C10.5523 6 11 6.44772 11 7V13C11 13.5523 10.5523 14 10 14C9.44772 14 9 13.5523 9 13V7C9 6.44772 9.44772 6 10 6ZM13 7C13 6.44772 13.4477 6 14 6H16C16.7956 6 17.5587 6.31607 18.1213 6.87868C18.6839 7.44129 19 8.20435 19 9V15C19 15.8252 18.5975 16.5668 18.0821 17.0821C17.5668 17.5975 16.8252 18 16 18H14C13.4477 18 13 17.5523 13 17C13 16.4477 13.4477 16 14 16H16C16.1748 16 16.4332 15.9025 16.6679 15.6679C16.9025 15.4332 17 15.1748 17 15V9C17 8.73478 16.8946 8.48043 16.7071 8.29289C16.5196 8.10536 16.2652 8 16 8H14C13.4477 8 13 7.55228 13 7ZM22 10C22.5523 10 23 10.4477 23 11V13C23 13.5523 22.5523 14 22 14C21.4477 14 21 13.5523 21 13V11C21 10.4477 21.4477 10 22 10ZM10 16C10.5523 16 11 16.4477 11 17V17.01C11 17.5623 10.5523 18.01 10 18.01C9.44772 18.01 9 17.5623 9 17.01V17C9 16.4477 9.44772 16 10 16Z" fill="currentColor" style="fill="currentColor";fill-opacity:1;"/>
</svg>
