<svg width="24" height="24" viewBox="0 0 24 24" fill="none" xmlns="http://www.w3.org/2000/svg">
<path fill-rule="evenodd" clip-rule="evenodd" d="M11.5145 6.14251C11.9881 6.42665 12.1416 7.04091 11.8575 7.51449L9.76619 11H12C12.3603 11 12.6927 11.1938 12.8702 11.5073C13.0477 11.8208 13.0429 12.2056 12.8575 12.5145L9.85749 17.5145C9.57334 17.9881 8.95908 18.1416 8.4855 17.8575C8.01192 17.5733 7.85836 16.9591 8.14251 16.4855L10.2338 13H8C7.63973 13 7.30731 12.8062 7.1298 12.4927C6.95229 12.1792 6.95715 11.7944 7.14251 11.4855L10.1425 6.4855C10.4267 6.01192 11.0409 5.85836 11.5145 6.14251ZM1.87868 6.87868C2.44129 6.31607 3.20435 6 4 6H6C6.55228 6 7 6.44771 7 7C7 7.55228 6.55228 8 6 8H4C3.73478 8 3.48043 8.10536 3.29289 8.29289C3.10536 8.48043 3 8.73478 3 9V15C3 15.2652 3.10536 15.5196 3.29289 15.7071C3.48043 15.8946 3.73478 16 4 16H5C5.55228 16 6 16.4477 6 17C6 17.5523 5.55228 18 5 18H4C3.20435 18 2.44129 17.6839 1.87868 17.1213C1.31607 16.5587 1 15.7956 1 15V9C1 8.20435 1.31607 7.44129 1.87868 6.87868ZM14 7C14 6.44771 14.4477 6 15 6H16C16.7956 6 17.5587 6.31607 18.1213 6.87868C18.6839 7.44129 19 8.20435 19 9V15C19 15.7956 18.6839 16.5587 18.1213 17.1213C17.5587 17.6839 16.7957 18 16 18H14C13.4477 18 13 17.5523 13 17C13 16.4477 13.4477 16 14 16H16C16.2652 16 16.5196 15.8946 16.7071 15.7071C16.8946 15.5196 17 15.2652 17 15V9C17 8.73478 16.8946 8.48043 16.7071 8.29289C16.5196 8.10536 16.2652 8 16 8H15C14.4477 8 14 7.55228 14 7ZM22 10C22.5523 10 23 10.4477 23 11V13C23 13.5523 22.5523 14 22 14C21.4477 14 21 13.5523 21 13V11C21 10.4477 21.4477 10 22 10Z" fill="currentColor" style="fill="currentColor";fill-opacity:1;"/>
</svg>
