<svg width="24" height="24" viewBox="0 0 24 24" fill="none" xmlns="http://www.w3.org/2000/svg">
<path fill-rule="evenodd" clip-rule="evenodd" d="M11.9961 2.25348C13.4028 1.27264 15.1205 0.842251 16.8234 1.04398C18.5264 1.24572 20.096 2.06553 21.2345 3.34788C22.3731 4.63023 23.0013 6.2859 23 8.00073L22 7.99997H23C23 8.00022 23 8.00048 23 8.00073C22.9996 16.2844 16.2844 22.9996 8.00073 23L7.99997 22V23C6.2854 23.0011 4.63004 22.3729 3.34788 21.2345C2.06553 20.096 1.24572 18.5264 1.04398 16.8234C0.842251 15.1205 1.27264 13.4028 2.25348 11.9961C3.23433 10.5895 4.69739 9.59186 6.36507 9.19247C7.20159 8.99212 7.85537 8.73035 8.29286 8.29286C8.73021 7.85551 8.99201 7.20099 9.19247 6.36507M16.5882 3.0301C15.3718 2.886 14.1448 3.19342 13.1401 3.89402C12.6996 4.20116 12.3153 4.57449 11.9985 4.99732C12.3422 5.2554 12.6525 5.55768 12.9208 5.89753C13.4237 6.53448 13.7639 7.28426 13.9122 8.08211C14.0605 8.87997 14.0124 9.70194 13.7719 10.477C13.5315 11.2521 13.106 11.957 12.5323 12.5309C11.9585 13.1048 11.2536 13.5304 10.4786 13.771C9.70356 14.0116 8.8816 14.0599 8.08371 13.9117C7.28583 13.7636 6.53599 13.4235 5.89894 12.9207C5.55883 12.6523 5.25633 12.3419 4.99807 11.998C4.57494 12.3148 4.20134 12.6994 3.89402 13.1401C3.19342 14.1448 2.886 15.3718 3.0301 16.5882C3.17419 17.8045 3.75977 18.9257 4.67574 19.739C5.5917 20.5522 6.77432 21.0009 7.9992 21H7.99997C15.1797 21 21 15.1797 21 7.99997V7.9992C21.0009 6.77432 20.5522 5.5917 19.739 4.67574C18.9257 3.75977 17.8045 3.17419 16.5882 3.0301ZM6.88295 11.1249C6.96338 11.2047 7.04848 11.2802 7.13792 11.3507C7.52015 11.6524 7.97006 11.8564 8.44879 11.9453C8.92752 12.0342 9.42069 12.0052 9.88572 11.8609C10.3507 11.7165 10.7737 11.4612 11.1179 11.1168C11.4622 10.7725 11.7175 10.3496 11.8617 9.88451C12.006 9.41945 12.0349 8.92628 11.9459 8.44756C11.8569 7.96884 11.6528 7.51898 11.3511 7.13681C11.2805 7.04738 11.205 6.96228 11.1251 6.88186C10.9024 7.79545 10.5343 8.87983 9.70708 9.70708C8.8803 10.5338 7.79767 10.902 6.88295 11.1249ZM11.9961 2.25348C10.5896 3.23427 9.59196 4.69723 9.19253 6.3648L11.9961 2.25348Z" fill="currentColor" style="fill="currentColor";fill-opacity:1;"/>
</svg>
