<svg width="24" height="24" viewBox="0 0 24 24" fill="none" xmlns="http://www.w3.org/2000/svg">
<path fill-rule="evenodd" clip-rule="evenodd" d="M6 5C5.73478 5 5.48043 5.10536 5.29289 5.29289C5.10536 5.48043 5 5.73478 5 6V9H11V5H6ZM6 3C5.20435 3 4.44129 3.31607 3.87868 3.87868C3.31607 4.44129 3 5.20435 3 6V9.17157C2.5821 9.31933 2.19808 9.55928 1.87868 9.87868C1.31607 10.4413 1 11.2044 1 12V20C1 20.5523 1.44772 21 2 21C2.55228 21 3 20.5523 3 20V19H21V20C21 20.5523 21.4477 21 22 21C22.5523 21 23 20.5523 23 20V12C23 11.2043 22.6839 10.4413 22.1213 9.87868C21.8019 9.55928 21.4179 9.31933 21 9.17157V6C21 5.20435 20.6839 4.44129 20.1213 3.87868C19.5587 3.31607 18.7957 3 18 3H6ZM13 5V9H19V6C19 5.73478 18.8946 5.48043 18.7071 5.29289C18.5196 5.10536 18.2652 5 18 5H13ZM4 11C3.73478 11 3.48043 11.1054 3.29289 11.2929C3.10536 11.4804 3 11.7348 3 12V17H21V12C21 11.7348 20.8946 11.4804 20.7071 11.2929C20.5196 11.1054 20.2652 11 20 11H4Z" fill="currentColor" style="fill="currentColor";fill-opacity:1;"/>
</svg>
