<svg width="24" height="24" viewBox="0 0 24 24" fill="none" xmlns="http://www.w3.org/2000/svg">
<path fill-rule="evenodd" clip-rule="evenodd" d="M7 5C6.73478 5 6.48043 5.10536 6.29289 5.29289C6.10536 5.48043 6 5.73478 6 6V9H18V6C18 5.73478 17.8946 5.48043 17.7071 5.29289C17.5196 5.10536 17.2652 5 17 5H7ZM20 9.17157V6C20 5.20435 19.6839 4.44129 19.1213 3.87868C18.5587 3.31607 17.7956 3 17 3H7C6.20435 3 5.44129 3.31607 4.87868 3.87868C4.31607 4.44129 4 5.20435 4 6V9.17157C3.5821 9.31933 3.19808 9.55928 2.87868 9.87868C2.31607 10.4413 2 11.2044 2 12V20C2 20.5523 2.44772 21 3 21C3.55228 21 4 20.5523 4 20V19H20V20C20 20.5523 20.4477 21 21 21C21.5523 21 22 20.5523 22 20V12C22 11.2043 21.6839 10.4413 21.1213 9.87868C20.8019 9.55928 20.4179 9.31933 20 9.17157ZM20 17V12C20 11.7348 19.8946 11.4804 19.7071 11.2929C19.5196 11.1054 19.2652 11 19 11H5C4.73478 11 4.48043 11.1054 4.29289 11.2929C4.10536 11.4804 4 11.7348 4 12V17H20Z" fill="black" style="fill:black;fill-opacity:1;"/>
</svg>
