<svg width="24" height="24" viewBox="0 0 24 24" fill="none" xmlns="http://www.w3.org/2000/svg">
<path fill-rule="evenodd" clip-rule="evenodd" d="M2 3C2.55228 3 3 3.44772 3 4V7H20C20.7957 7 21.5587 7.31607 22.1213 7.87868C22.6839 8.44129 23 9.20435 23 10V20C23 20.5523 22.5523 21 22 21C21.4477 21 21 20.5523 21 20V18H3V20C3 20.5523 2.55228 21 2 21C1.44772 21 1 20.5523 1 20V4C1 3.44772 1.44772 3 2 3ZM3 9V16H5V9H3ZM7 9V16H21V10C21 9.73478 20.8946 9.48043 20.7071 9.29289C20.5196 9.10536 20.2652 9 20 9H7Z" fill="currentColor" style="fill="currentColor";fill-opacity:1;"/>
</svg>
