<svg width="24" height="24" viewBox="0 0 24 24" fill="none" xmlns="http://www.w3.org/2000/svg">
<g clip-path="url(#clip0_168_2802)">
<path fill-rule="evenodd" clip-rule="evenodd" d="M13 7C12.17 7 11.5 7.67 11.5 8.5C11.5 9.33 12.17 10 13 10C13.83 10 14.5 9.33 14.5 8.5C14.5 7.67 13.83 7 13 7ZM9.5 8.5C9.5 6.57 11.07 5 13 5C14.93 5 16.5 6.57 16.5 8.5C16.5 10.43 14.93 12 13 12C11.07 12 9.5 10.43 9.5 8.5Z" fill="black" style="fill:black;fill-opacity:1;"/>
<path fill-rule="evenodd" clip-rule="evenodd" d="M13 1C11.39 1 9.83001 1.51 8.54001 2.47L13 1ZM13 3C11.82 3 10.67 3.38 9.73001 4.08C8.78001 4.78 8.09001 5.77 7.74001 6.89C7.74001 6.9 7.74001 6.92 7.73001 6.93C7.48001 7.65 7.30001 8.24 7.14001 8.77C7.14001 8.8 7.13001 8.82 7.12001 8.84C6.96001 9.38 6.81001 9.89 6.61001 10.37C6.18001 11.4 5.55001 12.25 4.28001 13.41C4.27001 13.42 4.25001 13.43 4.24001 13.44C3.92001 13.7 3.69001 14.05 3.58001 14.45C3.47001 14.85 3.49001 15.27 3.62001 15.66C3.76001 16.05 4.01001 16.38 4.35001 16.62C4.69001 16.86 5.09001 16.99 5.50001 16.99C9.24001 16.99 13.42 15.29 16.26 12.92C16.27 12.91 16.29 12.9 16.3 12.89C17.22 12.2 17.91 11.23 18.25 10.13C18.59 9.03 18.58 7.85 18.22 6.75C17.85 5.65 17.15 4.7 16.22 4.03C15.28 3.36 14.16 2.99 13 2.99V3ZM13 1C14.57 1 16.11 1.5 17.38 2.42C18.66 3.34 19.61 4.64 20.11 6.13C20.61 7.62 20.62 9.24 20.15 10.74C19.68 12.23 18.76 13.54 17.51 14.49C14.35 17.11 9.74001 19.01 5.49001 19.01C4.67001 19.01 3.86001 18.75 3.19001 18.28C2.52001 17.8 2.01001 17.13 1.73001 16.36C1.45001 15.58 1.42001 14.74 1.64001 13.95C1.86001 13.16 2.31001 12.46 2.94001 11.94C4.06001 10.92 4.47001 10.3 4.75001 9.63C4.90001 9.26 5.03001 8.85 5.19001 8.3C5.19001 8.27 5.21001 8.25 5.21001 8.22C5.37001 7.7 5.55001 7.07 5.82001 6.31C6.29001 4.78 7.24001 3.44 8.53001 2.49" fill="black" style="fill:black;fill-opacity:1;"/>
<path d="M7.49997 23C6.74997 23 6.02997 22.79 5.39997 22.4C4.76997 22.01 4.25997 21.45 3.92997 20.79L2.00997 16.95C1.75997 16.46 1.95997 15.86 2.45997 15.61C2.94997 15.36 3.55997 15.56 3.79997 16.06L5.71997 19.9C5.88997 20.23 6.13997 20.51 6.45997 20.71C6.77997 20.91 7.13997 21.01 7.50997 21.01C11.08 21.01 15.3 19.41 18.27 16.94C18.99 16.4 19.55 15.73 19.93 14.97C20.31 14.21 20.51 13.36 20.51 12.51C20.51 11.95 20.43 11.41 20.27 10.88L18.11 6.45C17.87 5.95 18.07 5.35 18.57 5.11C19.07 4.87 19.67 5.08 19.91 5.57L22.1 10.07C22.1 10.07 22.14 10.16 22.15 10.2C22.39 10.95 22.51 11.72 22.51 12.51C22.51 13.66 22.24 14.82 21.72 15.86C21.2 16.9 20.44 17.81 19.51 18.51C16.2 21.27 11.58 23.01 7.50997 23.01L7.49997 23Z" fill="black" style="fill:black;fill-opacity:1;"/>
</g>
<defs>
<clipPath id="clip0_168_2802">
<rect width="21" height="22" fill="white" style="fill:white;fill-opacity:1;" transform="translate(1.5 1)"/>
</clipPath>
</defs>
</svg>
