<svg width="24" height="24" viewBox="0 0 24 24" fill="none" xmlns="http://www.w3.org/2000/svg">
<path fill-rule="evenodd" clip-rule="evenodd" d="M9 3C5.68629 3 3 5.68629 3 9C3 12.3137 5.68629 15 9 15C12.3137 15 15 12.3137 15 9C15 5.68629 12.3137 3 9 3ZM13.6619 15.502C15.6834 14.0501 17 11.6788 17 9C17 4.58172 13.4183 1 9 1C4.58172 1 1 4.58172 1 9C1 11.6788 2.31664 14.0501 4.33808 15.502C3.53143 16.0398 3 16.9578 3 18V20C3 21.6569 4.34315 23 6 23H12C13.6569 23 15 21.6569 15 20V19.9456C16.2086 19.8124 17.1756 19.454 17.8836 19.0885C18.1679 18.9418 18.4104 18.794 18.6102 18.6594C19.0257 18.8769 19.4985 19 20 19C21.6569 19 23 17.6569 23 16C23 14.3431 21.6569 13 20 13C18.3431 13 17 14.3431 17 16C17 16.4126 17.0833 16.8058 17.234 17.1636C17.1521 17.2119 17.0629 17.2615 16.9664 17.3113C16.488 17.5582 15.8303 17.811 14.9992 17.9299C14.976 16.9168 14.4504 16.0277 13.6619 15.502ZM13 18C13 17.4477 12.5523 17 12 17H6C5.44772 17 5 17.4477 5 18V20C5 20.5523 5.44772 21 6 21H12C12.5523 21 13 20.5523 13 20V18ZM18.335 3.11472C18.8239 2.85788 19.4285 3.04602 19.6853 3.53495C20.5305 5.14391 20.9825 7.04931 21 8.99096C21.005 9.54322 20.5613 9.99497 20.0091 9.99996C19.4568 10.005 19.0051 9.5613 19.0001 9.00904C18.9851 7.35496 18.5986 5.76686 17.9148 4.46505C17.6579 3.97612 17.8461 3.37155 18.335 3.11472ZM8 9C8 8.44772 8.44772 8 9 8H9.01C9.56228 8 10.01 8.44772 10.01 9C10.01 9.55228 9.56228 10 9.01 10H9C8.44772 10 8 9.55228 8 9Z" fill="black" style="fill:black;fill-opacity:1;"/>
</svg>
