<svg width="24" height="24" viewBox="0 0 24 24" fill="none" xmlns="http://www.w3.org/2000/svg">
<path fill-rule="evenodd" clip-rule="evenodd" d="M1.29289 1.29289C1.68342 0.902369 2.31658 0.902369 2.70711 1.29289L6.99222 5.57801C7.0021 5.58749 7.01176 5.59715 7.02121 5.607L22.7071 21.2929C23.0976 21.6834 23.0976 22.3166 22.7071 22.7071C22.3166 23.0976 21.6834 23.0976 21.2929 22.7071L16.5858 18H3C2.55933 18 2.17061 17.7116 2.04291 17.2898C1.91657 16.8726 2.0752 16.4221 2.43369 16.1759C2.43439 16.1753 2.43534 16.1746 2.43655 16.1737C2.44425 16.168 2.4621 16.1544 2.48872 16.1322C2.54194 16.0879 2.63032 16.0092 2.7428 15.8904C2.96723 15.6535 3.29031 15.2545 3.6221 14.6462C4.28259 13.4353 4.99925 11.3549 5 8.00533C4.99511 7.52454 5.0514 7.04599 5.16685 6.58107L1.29289 2.70711C0.902369 2.31658 0.902369 1.68342 1.29289 1.29289ZM6.99664 8.41086C6.94037 11.83 6.18515 14.1239 5.3779 15.6039C5.3018 15.7434 5.22541 15.8754 5.14932 16H14.5858L6.99664 8.41086ZM2.44403 16.1688C2.44403 16.1688 2.44403 16.1688 2.44402 16.1689L2.44379 16.169C2.44387 16.169 2.44395 16.1689 2.44403 16.1688ZM14.3676 3.60711C13.5733 3.18006 12.6783 2.9758 11.7774 3.01594C10.8764 3.05609 10.0031 3.33916 9.24995 3.83517C8.78871 4.13893 8.16855 4.01126 7.86479 3.55001C7.56103 3.08876 7.6887 2.4686 8.14995 2.16484C9.2044 1.47043 10.427 1.07413 11.6883 1.01793C12.9496 0.96172 14.2027 1.2477 15.3147 1.84556C16.4267 2.44343 17.3564 3.33093 18.0051 4.41406C18.6539 5.49719 18.9976 6.73562 19 7.99818V7.99907C19.0015 9.60451 19.1934 11.2041 19.5718 12.7643C19.7019 13.3011 19.3724 13.8417 18.8356 13.9718C18.2989 14.102 17.7583 13.7724 17.6281 13.2357C17.2125 11.5218 17.0016 9.76456 17 8.00095L18 8.00001L17 8.00184C17 8.00154 17 8.00124 17 8.00095C16.9981 7.09943 16.7526 6.21516 16.2894 5.44175C15.826 4.66809 15.1619 4.03416 14.3676 3.60711ZM9.81826 20.1237C10.3022 19.8576 10.9103 20.0343 11.1763 20.5182C11.2574 20.6657 11.3767 20.7888 11.5216 20.8744C11.6665 20.9601 11.8317 21.0053 12 21.0053C12.1684 21.0053 12.3336 20.9601 12.4785 20.8744C12.6234 20.7888 12.7427 20.6657 12.8238 20.5182C13.0898 20.0343 13.6979 19.8576 14.1818 20.1237C14.6658 20.3898 14.8424 20.9978 14.5763 21.4818C14.3227 21.9432 13.9498 22.3279 13.4966 22.5959C13.0434 22.8639 12.5266 23.0053 12 23.0053C11.4735 23.0053 10.9567 22.8639 10.5035 22.5959C10.0503 22.3279 9.67742 21.9432 9.42376 21.4818C9.15768 20.9978 9.3343 20.3898 9.81826 20.1237Z" fill="currentColor" style="fill="currentColor";fill-opacity:1;"/>
</svg>
