<svg width="24" height="24" viewBox="0 0 24 24" fill="none" xmlns="http://www.w3.org/2000/svg">
<path fill-rule="evenodd" clip-rule="evenodd" d="M4.57668 1.18303C5.02788 1.50152 5.13546 2.12548 4.81697 2.57668C3.7113 4.14304 3 5.94566 3 8C3 8.55228 2.55228 9 2 9C1.44772 9 1 8.55228 1 8C1 5.45434 1.8887 3.25695 3.18303 1.42332C3.50153 0.972116 4.12548 0.864537 4.57668 1.18303ZM19.4233 1.18303C19.8745 0.864537 20.4985 0.972116 20.817 1.42332C22.1113 3.25695 23 5.45434 23 8C23 8.55228 22.5523 9 22 9C21.4477 9 21 8.55228 21 8C21 5.94566 20.2887 4.14304 19.183 2.57668C18.8645 2.12548 18.9721 1.50152 19.4233 1.18303ZM12 3C10.6739 3 9.40215 3.52678 8.46447 4.46446C7.52678 5.40215 7 6.67392 7 8C7 11.6473 6.21707 14.0654 5.3779 15.6039C5.3018 15.7434 5.22541 15.8753 5.14932 16H18.8507C18.7746 15.8753 18.6982 15.7434 18.6221 15.6039C17.7829 14.0654 17 11.6473 17 8C17 6.67392 16.4732 5.40215 15.5355 4.46446C14.5979 3.52678 13.3261 3 12 3ZM21.5663 16.1758C21.5656 16.1753 21.5647 16.1746 21.5635 16.1737C21.5558 16.168 21.5379 16.1544 21.5113 16.1322C21.4581 16.0878 21.3697 16.0091 21.2572 15.8904C21.0328 15.6535 20.7097 15.2544 20.3779 14.6461C19.7171 13.4346 19 11.3527 19 8C19 6.14348 18.2625 4.36301 16.9497 3.05025C15.637 1.7375 13.8565 0.999999 12 0.999999C10.1435 0.999999 8.36301 1.7375 7.05025 3.05025C5.7375 4.36301 5 6.14348 5 8C5 11.3527 4.28293 13.4346 3.6221 14.6461C3.29031 15.2544 2.96723 15.6535 2.7428 15.8904C2.63032 16.0091 2.54194 16.0878 2.48872 16.1322C2.4621 16.1544 2.44425 16.168 2.43655 16.1737C2.43534 16.1746 2.43439 16.1753 2.43369 16.1758C2.0752 16.4221 1.91657 16.8725 2.04291 17.2898C2.17061 17.7115 2.55933 18 3 18H21C21.4407 18 21.8294 17.7115 21.9571 17.2898C22.0834 16.8725 21.9248 16.4221 21.5663 16.1758ZM2.44379 16.169C2.44387 16.1689 2.44395 16.1688 2.44403 16.1688C2.44403 16.1688 2.44403 16.1688 2.44402 16.1688L2.44379 16.169ZM9.81826 20.1237C10.3022 19.8576 10.9103 20.0343 11.1763 20.5182C11.2574 20.6657 11.3767 20.7887 11.5216 20.8744C11.6665 20.9601 11.8317 21.0053 12 21.0053C12.1684 21.0053 12.3336 20.9601 12.4785 20.8744C12.6234 20.7887 12.7427 20.6657 12.8238 20.5182C13.0898 20.0343 13.6979 19.8576 14.1818 20.1237C14.6658 20.3898 14.8424 20.9978 14.5763 21.4818C14.3227 21.9432 13.9498 22.3279 13.4966 22.5959C13.0434 22.8639 12.5266 23.0053 12 23.0053C11.4735 23.0053 10.9567 22.8639 10.5035 22.5959C10.0503 22.3279 9.67742 21.9432 9.42376 21.4818C9.15768 20.9978 9.3343 20.3898 9.81826 20.1237Z" fill="currentColor" style="fill="currentColor";fill-opacity:1;"/>
</svg>
