<svg width="24" height="24" viewBox="0 0 24 24" fill="none" xmlns="http://www.w3.org/2000/svg">
<path fill-rule="evenodd" clip-rule="evenodd" d="M12 3C10.6739 3 9.40216 3.52678 8.46448 4.46447C7.5268 5.40215 7.00002 6.67392 7.00002 8C7.00002 11.6473 6.21708 14.0654 5.37791 15.6039C5.30181 15.7434 5.22543 15.8753 5.14934 16H18.8507C18.7746 15.8753 18.6982 15.7434 18.6221 15.6039C17.7829 14.0654 17 11.6473 17 8C17 6.67392 16.4732 5.40215 15.5356 4.46447C14.5979 3.52678 13.3261 3 12 3ZM21.5663 16.1758C21.5656 16.1753 21.5647 16.1746 21.5635 16.1737C21.5558 16.168 21.5379 16.1544 21.5113 16.1322C21.4581 16.0878 21.3697 16.0091 21.2572 15.8904C21.0328 15.6535 20.7097 15.2544 20.3779 14.6461C19.7171 13.4346 19 11.3527 19 8C19 6.14349 18.2625 4.36301 16.9498 3.05025C15.637 1.7375 13.8565 1 12 1C10.1435 1 8.36302 1.7375 7.05027 3.05025C5.73751 4.36301 5.00002 6.14348 5.00002 8C5.00002 11.3527 4.28295 13.4346 3.62212 14.6461C3.29033 15.2544 2.96724 15.6535 2.74281 15.8904C2.63034 16.0091 2.54195 16.0878 2.48874 16.1322C2.46212 16.1544 2.44426 16.168 2.43656 16.1737C2.43536 16.1746 2.43441 16.1753 2.43371 16.1758C2.07522 16.4221 1.91658 16.8725 2.04292 17.2898C2.17062 17.7115 2.55935 18 3.00002 18H21C21.4407 18 21.8294 17.7115 21.9571 17.2898C22.0835 16.8725 21.9248 16.4221 21.5663 16.1758ZM2.44381 16.169C2.44389 16.1689 2.44397 16.1688 2.44405 16.1688C2.44405 16.1688 2.44404 16.1688 2.44404 16.1688L2.44381 16.169ZM9.81828 20.1237C10.3022 19.8576 10.9103 20.0343 11.1764 20.5182C11.2575 20.6657 11.3767 20.7888 11.5216 20.8744C11.6665 20.9601 11.8317 21.0053 12.0001 21.0053C12.1684 21.0053 12.3336 20.9601 12.4785 20.8744C12.6234 20.7888 12.7427 20.6657 12.8238 20.5182C13.0899 20.0343 13.6979 19.8576 14.1819 20.1237C14.6658 20.3898 14.8424 20.9978 14.5764 21.4818C14.3227 21.9432 13.9498 22.3279 13.4966 22.5959C13.0434 22.8639 12.5266 23.0053 12.0001 23.0053C11.4736 23.0053 10.9567 22.8639 10.5035 22.5959C10.0503 22.3279 9.67744 21.9432 9.42378 21.4818C9.15769 20.9978 9.33432 20.3898 9.81828 20.1237Z" fill="currentColor" style="fill="currentColor";fill-opacity:1;"/>
</svg>
