<svg width="24" height="24" viewBox="0 0 24 24" fill="none" xmlns="http://www.w3.org/2000/svg">
<path fill-rule="evenodd" clip-rule="evenodd" d="M12 3C9.2523 3 7.00002 5.25229 7.00002 8C7.00002 11.6473 6.21708 14.0654 5.37791 15.6039C5.30181 15.7434 5.22543 15.8753 5.14934 16H18.8809C18.7607 15.8075 18.6389 15.598 18.5177 15.3706C18.2578 14.8833 18.4421 14.2775 18.9294 14.0176C19.4167 13.7577 20.0225 13.9421 20.2824 14.4294C20.643 15.1055 20.9966 15.566 21.2474 15.8481C21.373 15.9894 21.4731 16.0863 21.5358 16.1435C21.5672 16.172 21.5893 16.1907 21.6005 16.1999C21.6039 16.2028 21.6063 16.2047 21.6077 16.2058C21.9464 16.465 22.0838 16.9109 21.9487 17.3162C21.8126 17.7246 21.4304 18 21 18H3.00002C2.55935 18 2.17062 17.7115 2.04292 17.2898C1.91658 16.8725 2.07522 16.4221 2.43371 16.1758C2.43441 16.1753 2.43536 16.1746 2.43656 16.1737C2.44426 16.168 2.46212 16.1544 2.48874 16.1322C2.54195 16.0878 2.63034 16.0091 2.74281 15.8904C2.96724 15.6535 3.29033 15.2544 3.62212 14.6461C4.28295 13.4346 5.00002 11.3527 5.00002 8C5.00002 4.14772 8.14773 1 12 1C12.8045 1 13.5115 1.11639 14.2162 1.35132C14.7402 1.52596 15.0233 2.09228 14.8487 2.61623C14.6741 3.14017 14.1077 3.42333 13.5838 3.24868C13.0886 3.08361 12.5956 3 12 3ZM2.44381 16.169C2.44389 16.1689 2.44397 16.1688 2.44405 16.1688C2.44405 16.1688 2.44404 16.1688 2.44404 16.1688L2.44381 16.169ZM18 6C16.8954 6 16 6.89543 16 8C16 9.10457 16.8954 10 18 10C19.1046 10 20 9.10457 20 8C20 6.89543 19.1046 6 18 6ZM14 8C14 5.79086 15.7909 4 18 4C20.2092 4 22 5.79086 22 8C22 10.2091 20.2092 12 18 12C15.7909 12 14 10.2091 14 8ZM9.81828 20.1237C10.3022 19.8576 10.9103 20.0343 11.1764 20.5182C11.2575 20.6657 11.3767 20.7888 11.5216 20.8744C11.6665 20.9601 11.8317 21.0053 12.0001 21.0053C12.1684 21.0053 12.3336 20.9601 12.4785 20.8744C12.6234 20.7888 12.7427 20.6657 12.8238 20.5182C13.0899 20.0343 13.6979 19.8576 14.1819 20.1237C14.6658 20.3898 14.8424 20.9978 14.5764 21.4818C14.3227 21.9432 13.9498 22.3279 13.4966 22.5959C13.0434 22.8639 12.5266 23.0053 12.0001 23.0053C11.4736 23.0053 10.9567 22.8639 10.5035 22.5959C10.0503 22.3279 9.67744 21.9432 9.42378 21.4818C9.15769 20.9978 9.33432 20.3898 9.81828 20.1237Z" fill="black" style="fill:black;fill-opacity:1;"/>
</svg>
