<svg width="24" height="24" viewBox="0 0 24 24" fill="none" xmlns="http://www.w3.org/2000/svg">
<path fill-rule="evenodd" clip-rule="evenodd" d="M12 3C9.2523 3 7.00002 5.25229 7.00002 8C7.00002 11.6473 6.21708 14.0654 5.37791 15.6039C5.30181 15.7434 5.22543 15.8753 5.14934 16H18.8537C18.319 15.1207 17.7754 13.8873 17.4215 12.206C17.3077 11.6656 17.6536 11.1352 18.194 11.0215C18.7344 10.9077 19.2648 11.2536 19.3786 11.794C19.751 13.5629 20.3466 14.6855 20.8155 15.3463C21.0511 15.6781 21.2578 15.898 21.3944 16.0275C21.4627 16.0923 21.5137 16.1347 21.5421 16.1572C21.555 16.1674 21.5632 16.1735 21.5664 16.1759C21.9248 16.4221 22.0834 16.8725 21.9571 17.2898C21.8294 17.7115 21.4407 18 21 18H3.00002C2.55935 18 2.17062 17.7115 2.04292 17.2898C1.91658 16.8725 2.07522 16.4221 2.43371 16.1758C2.43441 16.1753 2.43536 16.1746 2.43656 16.1737C2.44426 16.168 2.46212 16.1544 2.48874 16.1322C2.54195 16.0878 2.63034 16.0091 2.74281 15.8904C2.96724 15.6535 3.29033 15.2544 3.62212 14.6461C4.28295 13.4346 5.00002 11.3527 5.00002 8C5.00002 4.14772 8.14773 1 12 1C14.1031 1 15.9637 1.93503 17.2372 3.32428C17.6104 3.73139 17.5829 4.36396 17.1757 4.73715C16.7686 5.11035 16.1361 5.08284 15.7629 4.67572C14.8363 3.66497 13.497 3 12 3ZM2.44381 16.169C2.44389 16.1689 2.44397 16.1688 2.44405 16.1688C2.44405 16.1688 2.44404 16.1688 2.44404 16.1688L2.44381 16.169ZM14 8C14 7.44772 14.4477 7 15 7H21C21.5523 7 22 7.44772 22 8C22 8.55228 21.5523 9 21 9H15C14.4477 9 14 8.55228 14 8ZM9.81828 20.1237C10.3022 19.8576 10.9103 20.0343 11.1764 20.5182C11.2575 20.6657 11.3767 20.7888 11.5216 20.8744C11.6665 20.9601 11.8317 21.0053 12.0001 21.0053C12.1684 21.0053 12.3336 20.9601 12.4785 20.8744C12.6234 20.7888 12.7427 20.6657 12.8238 20.5182C13.0899 20.0343 13.6979 19.8576 14.1819 20.1237C14.6658 20.3898 14.8424 20.9978 14.5764 21.4818C14.3227 21.9432 13.9498 22.3279 13.4966 22.5959C13.0434 22.8639 12.5266 23.0053 12.0001 23.0053C11.4736 23.0053 10.9567 22.8639 10.5035 22.5959C10.0503 22.3279 9.67744 21.9432 9.42378 21.4818C9.15769 20.9978 9.33432 20.3898 9.81828 20.1237Z" fill="currentColor" style="fill="currentColor";fill-opacity:1;"/>
</svg>
