<svg width="24" height="24" viewBox="0 0 24 24" fill="none" xmlns="http://www.w3.org/2000/svg">
<path fill-rule="evenodd" clip-rule="evenodd" d="M2 4C2 2.89543 2.89543 2 4 2H9C10.1046 2 11 2.89543 11 4V15C11 16.1046 10.1046 17 9 17H4C2.89543 17 2 16.1046 2 15V4ZM9 4H4V15H9V4ZM13 4C13 2.89543 13.8954 2 15 2H20C21.1046 2 22 2.89543 22 4V15C22 16.1046 21.1046 17 20 17H15C13.8954 17 13 16.1046 13 15V4ZM20 4H15V15H20V4ZM11.2929 18.2929C11.6834 17.9024 12.3166 17.9024 12.7071 18.2929L15.7071 21.2929C16.0976 21.6834 16.0976 22.3166 15.7071 22.7071C15.3166 23.0976 14.6834 23.0976 14.2929 22.7071L12 20.4142L9.70711 22.7071C9.31658 23.0976 8.68342 23.0976 8.29289 22.7071C7.90237 22.3166 7.90237 21.6834 8.29289 21.2929L11.2929 18.2929Z" fill="currentColor" style="fill="currentColor";fill-opacity:1;"/>
</svg>
