<svg width="24" height="24" viewBox="0 0 24 24" fill="none" xmlns="http://www.w3.org/2000/svg">
<path fill-rule="evenodd" clip-rule="evenodd" d="M7 4C7 2.89543 7.89543 2 9 2H20C21.1046 2 22 2.89543 22 4V9C22 10.1046 21.1046 11 20 11H9C7.89543 11 7 10.1046 7 9V4ZM20 4H9V9H20V4ZM1.29289 8.29289C1.68342 7.90237 2.31658 7.90237 2.70711 8.29289L5.70711 11.2929C6.09763 11.6834 6.09763 12.3166 5.70711 12.7071L2.70711 15.7071C2.31658 16.0976 1.68342 16.0976 1.29289 15.7071C0.902369 15.3166 0.902369 14.6834 1.29289 14.2929L3.58579 12L1.29289 9.70711C0.902369 9.31658 0.902369 8.68342 1.29289 8.29289ZM7 15C7 13.8954 7.89543 13 9 13H20C21.1046 13 22 13.8954 22 15V20C22 21.1046 21.1046 22 20 22H9C7.89543 22 7 21.1046 7 20V15ZM20 15H9V20H20V15Z" fill="currentColor" style="fill="currentColor";fill-opacity:1;"/>
</svg>
