<svg width="24" height="24" viewBox="0 0 24 24" fill="none" xmlns="http://www.w3.org/2000/svg">
<path fill-rule="evenodd" clip-rule="evenodd" d="M2 4C2 2.89543 2.89543 2 4 2H15C16.1046 2 17 2.89543 17 4V9C17 10.1046 16.1046 11 15 11H4C2.89543 11 2 10.1046 2 9V4ZM15 4H4V9H15V4ZM21.2929 8.29289C21.6834 7.90237 22.3166 7.90237 22.7071 8.29289C23.0976 8.68342 23.0976 9.31658 22.7071 9.70711L20.4142 12L22.7071 14.2929C23.0976 14.6834 23.0976 15.3166 22.7071 15.7071C22.3166 16.0976 21.6834 16.0976 21.2929 15.7071L18.2929 12.7071C17.9024 12.3166 17.9024 11.6834 18.2929 11.2929L21.2929 8.29289ZM2 15C2 13.8954 2.89543 13 4 13H15C16.1046 13 17 13.8954 17 15V20C17 21.1046 16.1046 22 15 22H4C2.89543 22 2 21.1046 2 20V15ZM15 15H4V20H15V15Z" fill="currentColor" style="fill="currentColor";fill-opacity:1;"/>
</svg>
