<svg width="24" height="24" viewBox="0 0 24 24" fill="none" xmlns="http://www.w3.org/2000/svg">
<path fill-rule="evenodd" clip-rule="evenodd" d="M8.29289 1.29289C8.68342 0.902369 9.31658 0.902369 9.70711 1.29289L12 3.58579L14.2929 1.29289C14.6834 0.902369 15.3166 0.902369 15.7071 1.29289C16.0976 1.68342 16.0976 2.31658 15.7071 2.70711L12.7071 5.70711C12.3166 6.09763 11.6834 6.09763 11.2929 5.70711L8.29289 2.70711C7.90237 2.31658 7.90237 1.68342 8.29289 1.29289ZM2 9C2 7.89543 2.89543 7 4 7H9C10.1046 7 11 7.89543 11 9V20C11 21.1046 10.1046 22 9 22H4C2.89543 22 2 21.1046 2 20V9ZM9 9H4V20H9V9ZM13 9C13 7.89543 13.8954 7 15 7H20C21.1046 7 22 7.89543 22 9V20C22 21.1046 21.1046 22 20 22H15C13.8954 22 13 21.1046 13 20V9ZM20 9H15V20H20V9Z" fill="currentColor" style="fill="currentColor";fill-opacity:1;"/>
</svg>
