<svg width="24" height="24" viewBox="0 0 24 24" fill="none" xmlns="http://www.w3.org/2000/svg">
<path fill-rule="evenodd" clip-rule="evenodd" d="M8 5C7.44772 5 7 5.44772 7 6V8C7 8.55228 7.44772 9 8 9C8.55228 9 9 8.55228 9 8V6C9 5.44772 8.55228 5 8 5ZM5 6C5 4.34315 6.34315 3 8 3C9.65685 3 11 4.34315 11 6V8C11 9.65685 9.65685 11 8 11C6.34315 11 5 9.65685 5 8V6ZM13 4C13 3.44772 13.4477 3 14 3H16C16.5523 3 17 3.44772 17 4V9H18C18.5523 9 19 9.44772 19 10C19 10.5523 18.5523 11 18 11H14C13.4477 11 13 10.5523 13 10C13 9.44772 13.4477 9 14 9H15V5H14C13.4477 5 13 4.55228 13 4ZM5 14C5 13.4477 5.44772 13 6 13H8C8.55228 13 9 13.4477 9 14V19H10C10.5523 19 11 19.4477 11 20C11 20.5523 10.5523 21 10 21H6C5.44772 21 5 20.5523 5 20C5 19.4477 5.44772 19 6 19H7V15H6C5.44772 15 5 14.5523 5 14ZM16 15C15.4477 15 15 15.4477 15 16V18C15 18.5523 15.4477 19 16 19C16.5523 19 17 18.5523 17 18V16C17 15.4477 16.5523 15 16 15ZM13 16C13 14.3431 14.3431 13 16 13C17.6569 13 19 14.3431 19 16V18C19 19.6569 17.6569 21 16 21C14.3431 21 13 19.6569 13 18V16Z" fill="black" style="fill:black;fill-opacity:1;"/>
</svg>
