<svg width="24" height="24" viewBox="0 0 24 24" fill="none" xmlns="http://www.w3.org/2000/svg">
<path fill-rule="evenodd" clip-rule="evenodd" d="M7.03874 2.45901C7.55838 2.64608 7.82798 3.21898 7.64091 3.73862C6.9025 5.78975 7.62454 8.00027 9.43217 9.25224L10.0603 9.61128C10.5833 9.16755 11.2604 8.8999 12 8.8999C12.7396 8.8999 13.4167 9.16755 13.9397 9.61127L14.568 9.25222C16.3756 8.00024 17.0976 5.78974 16.3592 3.73862C16.1722 3.21898 16.4418 2.64608 16.9614 2.45901C17.481 2.27194 18.0539 2.54154 18.241 3.06118C18.9086 4.91565 18.73 6.8653 17.8608 8.49163C19.7213 8.5516 21.5131 9.40891 22.7774 10.9707C23.1249 11.4 23.0586 12.0296 22.6293 12.3771C22.2001 12.7246 21.5704 12.6584 21.2229 12.2291C19.8239 10.501 17.546 10.0081 15.5711 10.9825L14.9476 11.3388C14.982 11.5206 15 11.7081 15 11.8999C15 13.2061 14.1652 14.3173 13 14.7292L13.0001 15.4806C13.0902 17.6906 14.7291 19.485 16.8521 19.8116C17.398 19.8956 17.7724 20.4062 17.6884 20.9521C17.6045 21.4979 17.0939 21.8723 16.548 21.7884C14.6 21.4887 12.9389 20.3344 11.9544 18.7182C10.9751 20.2625 9.38347 21.3912 7.45213 21.6884C6.90626 21.7724 6.39568 21.3979 6.3117 20.8521C6.22772 20.3062 6.60215 19.7956 7.14801 19.7116C9.24508 19.389 10.8184 17.613 11.0001 15.4598L11 14.7292C9.83484 14.3174 9.00002 13.2061 9.00002 11.8999C9.00002 11.7081 9.01801 11.5206 9.0524 11.3388L8.44439 10.9913C6.45271 10.0986 4.15736 10.6059 2.76196 12.2476C2.40427 12.6684 1.77318 12.7195 1.35237 12.3618C0.931564 12.0042 0.880394 11.3731 1.23808 10.9523C2.5126 9.45282 4.31265 8.62681 6.17637 8.55997C5.27535 6.9201 5.08215 4.9417 5.75913 3.06118C5.9462 2.54154 6.5191 2.27194 7.03874 2.45901ZM11.0652 11.5441C11.0231 11.6546 11 11.7746 11 11.8999C11 12.4522 11.4477 12.8999 12 12.8999C12.5523 12.8999 13 12.4522 13 11.8999C13 11.7747 12.977 11.6549 12.935 11.5444C12.8968 11.499 12.8622 11.4496 12.8318 11.3963C12.8057 11.3507 12.7836 11.3039 12.7654 11.2563C12.582 11.0384 12.3072 10.8999 12 10.8999C11.6927 10.8999 11.4178 11.0385 11.2344 11.2566C11.2162 11.3041 11.1941 11.3508 11.1681 11.3963C11.1377 11.4495 11.1032 11.4988 11.0652 11.5441ZM10.3039 4.41942C11.4334 4.19352 12.5667 4.19352 13.6961 4.41942C14.2377 4.52773 14.5889 5.05455 14.4806 5.59611C14.3723 6.13767 13.8455 6.48889 13.3039 6.38058C12.4334 6.20647 11.5667 6.20647 10.6961 6.38058C10.1546 6.48889 9.62775 6.13767 9.51944 5.59611C9.41113 5.05455 9.76234 4.52773 10.3039 4.41942ZM5.18379 12.9512C5.70774 12.7766 6.27406 13.0597 6.4487 13.5837C6.70951 14.3661 7.13709 15.1228 7.70713 15.6928C8.09765 16.0833 8.09765 16.7165 7.70713 17.107C7.3166 17.4975 6.68344 17.4975 6.29291 17.107C5.46295 16.277 4.89053 15.2337 4.55134 14.2161C4.37669 13.6922 4.65985 13.1259 5.18379 12.9512ZM18.8162 12.9512C19.3402 13.1259 19.6234 13.6922 19.4487 14.2161C19.1095 15.2337 18.5371 16.277 17.7071 17.107C17.3166 17.4975 16.6834 17.4975 16.2929 17.107C15.9024 16.7165 15.9024 16.0833 16.2929 15.6928C16.863 15.1228 17.2905 14.3661 17.5513 13.5837C17.726 13.0597 18.2923 12.7766 18.8162 12.9512Z" fill="black" style="fill:black;fill-opacity:1;"/>
</svg>
