<svg width="24" height="24" viewBox="0 0 24 24" fill="none" xmlns="http://www.w3.org/2000/svg">
<path fill-rule="evenodd" clip-rule="evenodd" d="M14.3906 2.25558C15.3991 1.91275 16.4906 1.90091 17.5063 2.22179C18.5219 2.54266 19.4085 3.17948 20.037 4.03945C20.5068 4.68235 20.8139 5.42485 20.9379 6.20374L22.2425 6.52985C22.6876 6.64113 23 7.04111 23 7.49998C23 7.95886 22.6877 8.35885 22.2425 8.47014L21 8.78078V10.0001C21 12.387 20.0518 14.6762 18.3639 16.364C17.4057 17.3222 16.2537 18.0421 15 18.4854V21C15 21.5523 14.5522 22 14 22C13.4477 22 13 21.5523 13 21V18.9444C12.6695 18.9813 12.3357 19.0001 12 19.0001H11V21C11 21.5523 10.5522 22 9.99996 22C9.44768 22 8.99996 21.5523 8.99996 21V19.0001H3.92165L2.81894 20.5739C2.50203 21.0262 1.87845 21.136 1.42614 20.819C0.973832 20.5021 0.86407 19.8786 1.18098 19.4262L2.55374 17.467C2.57091 17.4398 2.58936 17.4135 2.60899 17.3881L11.9 4.12771C11.8998 4.12795 11.9001 4.12747 11.9 4.12771C12.5096 3.25467 13.3825 2.59832 14.3906 2.25558ZM5.32296 17.0001H6.98109C6.98735 17 6.99363 16.9999 6.99991 16.9999C8.02751 16.9998 9.03014 16.6832 9.87135 16.093C10.7126 15.5028 11.3515 14.6678 11.7012 13.7015C12.0509 12.7352 12.0944 11.6847 11.8258 10.6928C11.6538 10.0579 11.3593 9.46678 10.9625 8.95103L5.32296 17.0001ZM12.1488 7.25792C12.9078 8.08205 13.461 9.07992 13.7562 10.17C14.1323 11.5586 14.0714 13.0294 13.5818 14.3821C13.2226 15.3746 12.6455 16.2682 11.8985 17.0001H12C13.8565 17.0001 15.637 16.2626 16.9497 14.9498C18.2625 13.6371 19 11.8566 19 10.0001V8.02092C18.9996 8.00643 18.9996 7.99198 19 7.97757V7.00007L19 6.99743C19.0017 6.35836 18.7992 5.73545 18.4222 5.21947C18.0451 4.70349 17.5131 4.3214 16.9037 4.12887C16.2944 3.93635 15.6394 3.94345 15.0344 4.14915C14.4293 4.35485 13.9057 4.74839 13.54 5.27243L12.1488 7.25792ZM15 7C15 6.44772 15.4477 6 16 6H16.01C16.5622 6 17.01 6.44772 17.01 7C17.01 7.55228 16.5622 8 16.01 8H16C15.4477 8 15 7.55228 15 7Z" fill="currentColor" style="fill="currentColor";fill-opacity:1;"/>
</svg>
