<svg width="24" height="24" viewBox="0 0 24 24" fill="none" xmlns="http://www.w3.org/2000/svg">
<path fill-rule="evenodd" clip-rule="evenodd" d="M10.7797 1.6522C11.3236 1.74811 11.6867 2.26677 11.5908 2.81066L11.4171 3.796L13.3872 4.14341L13.5613 3.15804C13.6573 2.61418 14.1761 2.25117 14.72 2.34725C15.2638 2.44332 15.6269 2.96209 15.5308 3.50596L15.3422 4.57364C16.3364 4.93387 17.1009 5.54461 17.6122 6.31391C18.2689 7.30195 18.462 8.48278 18.2697 9.57352C18.0774 10.6643 17.492 11.7078 16.5371 12.4116C16.3765 12.53 16.2073 12.6374 16.0301 12.733C16.1636 12.8832 16.2855 13.0416 16.3957 13.2075C17.0522 14.1956 17.2452 15.3764 17.0528 16.4671C16.8604 17.5578 16.275 18.6013 15.3201 19.3051C14.577 19.853 13.6502 20.1654 12.5935 20.1643L12.406 21.232C12.3104 21.7759 11.792 22.1395 11.248 22.0439C10.7041 21.9484 10.3406 21.43 10.4361 20.886L10.6092 19.9002L8.63855 19.5526L8.46484 20.5377C8.36893 21.0816 7.85026 21.4447 7.30637 21.3488C6.76248 21.2529 6.39931 20.7342 6.49523 20.1903L6.66896 19.2051L5.68631 19.0318C5.14242 18.9359 4.77929 18.4172 4.87524 17.8733C4.97118 17.3294 5.48986 16.9663 6.03375 17.0622L7.01628 17.2355L9.10015 5.41829L8.11637 5.24481C7.57248 5.1489 7.20931 4.63023 7.30523 4.08634C7.40114 3.54245 7.9198 3.17928 8.46369 3.2752L9.44747 3.44868L9.62122 2.46334C9.71714 1.91945 10.2358 1.55628 10.7797 1.6522ZM11.0698 5.76561L10.2015 10.6895L13.1575 11.2102C14.1441 11.3843 14.861 11.1624 15.3505 10.8017C15.8545 10.4302 16.1885 9.85887 16.3001 9.22623C16.4116 8.59359 16.2931 7.94249 15.9465 7.42093C15.6117 6.9172 15.0188 6.46564 14.0414 6.28966C14.0356 6.28874 14.0298 6.28777 14.0241 6.28675C14.018 6.28568 14.0119 6.28455 14.0058 6.28336L11.0698 5.76561ZM9.85415 12.6591L8.98587 17.583L11.9406 18.1042C11.9406 18.1042 11.9407 18.1042 11.9406 18.1042C12.9272 18.2781 13.6439 18.0561 14.1334 17.6953C14.6376 17.3237 14.9716 16.7523 15.0832 16.1197C15.1948 15.487 15.0764 14.8359 14.7298 14.3142C14.3933 13.8077 13.7958 13.3539 12.8092 13.1798C12.8032 13.1787 12.7971 13.1776 12.7911 13.1764L9.85415 12.6591Z" fill="currentColor" style="fill="currentColor";fill-opacity:1;"/>
</svg>
