<svg width="24" height="24" viewBox="0 0 24 24" fill="none" xmlns="http://www.w3.org/2000/svg">
<path fill-rule="evenodd" clip-rule="evenodd" d="M11.6173 1.07612C11.991 0.921338 12.4211 1.00689 12.7071 1.29289L17.7071 6.29289C18.0976 6.68342 18.0976 7.31658 17.7071 7.70711L13.4142 12L17.7071 16.2929C18.0976 16.6834 18.0976 17.3166 17.7071 17.7071L12.7071 22.7071C12.4211 22.9931 11.991 23.0787 11.6173 22.9239C11.2436 22.7691 11 22.4045 11 22V14.4142L7.70711 17.7071C7.31658 18.0976 6.68342 18.0976 6.29289 17.7071C5.90237 17.3166 5.90237 16.6834 6.29289 16.2929L10.5858 12L6.29289 7.70711C5.90237 7.31658 5.90237 6.68342 6.29289 6.29289C6.68342 5.90237 7.31658 5.90237 7.70711 6.29289L11 9.58579V2C11 1.59554 11.2436 1.2309 11.6173 1.07612ZM13 14.4142L15.5858 17L13 19.5858V14.4142ZM13 9.58579V4.41421L15.5858 7L13 9.58579ZM20.1225 8.46321C20.5128 8.07247 21.1459 8.07211 21.5367 8.46242C22.0016 8.92679 22.3703 9.47823 22.622 10.0852C22.8736 10.6922 23.0031 11.3428 23.0031 11.9999C23.0031 12.657 22.8736 13.3076 22.622 13.9146C22.3703 14.5216 22.0016 15.0731 21.5367 15.5374C21.1459 15.9277 20.5128 15.9274 20.1225 15.5366C19.7321 15.1459 19.7325 14.5127 20.1232 14.1224C20.4022 13.8438 20.6234 13.5129 20.7744 13.1487C20.9254 12.7845 21.0031 12.3942 21.0031 11.9999C21.0031 11.6057 20.9254 11.2153 20.7744 10.8511C20.6234 10.4869 20.4022 10.156 20.1232 9.87742C19.7325 9.48711 19.7321 8.85395 20.1225 8.46321ZM17 12C17 11.4477 17.4477 11 18 11H18.01C18.5623 11 19.01 11.4477 19.01 12C19.01 12.5523 18.5623 13 18.01 13H18C17.4477 13 17 12.5523 17 12Z" fill="currentColor" style="fill="currentColor";fill-opacity:1;"/>
</svg>
