<svg width="24" height="24" viewBox="0 0 24 24" fill="none" xmlns="http://www.w3.org/2000/svg">
<path fill-rule="evenodd" clip-rule="evenodd" d="M11.6173 1.07612C11.991 0.921338 12.4211 1.00689 12.7071 1.29289L17.7071 6.29289C18.0976 6.68342 18.0976 7.31658 17.7071 7.70711L13.4142 12L17.7071 16.2929C18.0976 16.6834 18.0976 17.3166 17.7071 17.7071L12.7071 22.7071C12.4211 22.9931 11.991 23.0787 11.6173 22.9239C11.2436 22.7691 11 22.4045 11 22V14.4142L7.70711 17.7071C7.31658 18.0976 6.68342 18.0976 6.29289 17.7071C5.90237 17.3166 5.90237 16.6834 6.29289 16.2929L10.5858 12L6.29289 7.70711C5.90237 7.31658 5.90237 6.68342 6.29289 6.29289C6.68342 5.90237 7.31658 5.90237 7.70711 6.29289L11 9.58579V2C11 1.59554 11.2436 1.2309 11.6173 1.07612ZM13 14.4142L15.5858 17L13 19.5858V14.4142ZM13 9.58579V4.41421L15.5858 7L13 9.58579Z" fill="currentColor" style="fill="currentColor";fill-opacity:1;"/>
</svg>
