<svg width="24" height="24" viewBox="0 0 24 24" fill="none" xmlns="http://www.w3.org/2000/svg">
<path fill-rule="evenodd" clip-rule="evenodd" d="M5 4C5 3.44772 5.44772 3 6 3H14C15.3261 3 16.5979 3.52678 17.5355 4.46447C18.4732 5.40215 19 6.67392 19 8C19 9.32608 18.4732 10.5979 17.5355 11.5355C17.5025 11.5686 17.4691 11.6011 17.4352 11.6331C17.8352 11.8561 18.206 12.1349 18.5355 12.4645C19.4732 13.4021 20 14.6739 20 16C20 17.3261 19.4732 18.5979 18.5355 19.5355C17.5979 20.4732 16.3261 21 15 21H6C5.44772 21 5 20.5523 5 20V4ZM14 11C14.7956 11 15.5587 10.6839 16.1213 10.1213C16.6839 9.55871 17 8.79565 17 8C17 7.20435 16.6839 6.44129 16.1213 5.87868C15.5587 5.31607 14.7956 5 14 5H7V11H14ZM7 13H15C15.7956 13 16.5587 13.3161 17.1213 13.8787C17.6839 14.4413 18 15.2044 18 16C18 16.7956 17.6839 17.5587 17.1213 18.1213C16.5587 18.6839 15.7956 19 15 19H7V13Z" fill="currentColor" style="fill="currentColor";fill-opacity:1;"/>
</svg>
