<svg width="24" height="24" viewBox="0 0 24 24" fill="none" xmlns="http://www.w3.org/2000/svg">
<path fill-rule="evenodd" clip-rule="evenodd" d="M14.0251 2.02513C14.6815 1.36875 15.5717 1 16.5 1C17.4283 1 18.3185 1.36875 18.9749 2.02513C19.5198 2.57007 19.8665 3.27622 19.9685 4.03149C20.7238 4.1335 21.4299 4.48018 21.9749 5.02513C22.6313 5.6815 23 6.57174 23 7.5C23 8.42826 22.6313 9.3185 21.9749 9.97487C21.3185 10.6313 20.4283 11 19.5 11C19.1675 11 18.8538 10.9296 18.6224 10.8714C18.5203 10.8458 18.4361 10.8233 18.3608 10.8032C18.2329 10.769 18.1311 10.7418 18.0121 10.718C17.844 10.6843 17.7642 10.6866 17.7309 10.692C17.7293 10.6922 17.7282 10.6923 17.7271 10.6923C17.7228 10.6926 17.7216 10.6926 17.7071 10.7071L10.7071 17.7071C10.6926 17.7216 10.6926 17.7228 10.6923 17.7271C10.6923 17.7282 10.6922 17.7293 10.692 17.7309C10.6866 17.7642 10.6843 17.844 10.718 18.0121C10.7418 18.1311 10.769 18.2329 10.8032 18.3608C10.8233 18.4361 10.8458 18.5203 10.8714 18.6224C10.9296 18.8538 11 19.1675 11 19.5C11 20.4283 10.6313 21.3185 9.97487 21.9749C9.3185 22.6313 8.42826 23 7.5 23C6.57174 23 5.6815 22.6313 5.02513 21.9749C4.48018 21.4299 4.1335 20.7238 4.03149 19.9685C3.27622 19.8665 2.57007 19.5198 2.02513 18.9749C1.36875 18.3185 1 17.4283 1 16.5C1 15.5717 1.36875 14.6815 2.02513 14.0251C2.6815 13.3687 3.57174 13 4.5 13C4.83247 13 5.1462 13.0704 5.37759 13.1286C5.47968 13.1542 5.56393 13.1767 5.63915 13.1968C5.76707 13.231 5.86888 13.2582 5.98791 13.282C6.156 13.3157 6.23578 13.3134 6.26909 13.308C6.27066 13.3078 6.27185 13.3077 6.27286 13.3077C6.2772 13.3074 6.2784 13.3074 6.29289 13.2929L13.2929 6.29289C13.3074 6.2784 13.3074 6.2772 13.3077 6.27286C13.3077 6.27185 13.3078 6.27066 13.308 6.26909C13.3134 6.23578 13.3157 6.156 13.282 5.98791C13.2582 5.86888 13.231 5.76707 13.1968 5.63915C13.1767 5.56393 13.1542 5.47968 13.1286 5.37759C13.0704 5.1462 13 4.83247 13 4.5C13 3.57174 13.3687 2.6815 14.0251 2.02513ZM16.5 3C16.1022 3 15.7206 3.15804 15.4393 3.43934C15.158 3.72064 15 4.10218 15 4.5C15 4.57253 15.0171 4.6863 15.0683 4.89022C15.0792 4.9338 15.0935 4.98765 15.1095 5.04796C15.1522 5.20854 15.2069 5.41486 15.243 5.59459C15.3515 6.13559 15.4188 6.99543 14.7071 7.70711L7.70711 14.7071C6.99543 15.4188 6.13559 15.3515 5.59459 15.243C5.41486 15.2069 5.20854 15.1522 5.04796 15.1095C4.98765 15.0935 4.9338 15.0792 4.89022 15.0683C4.6863 15.0171 4.57253 15 4.5 15C4.10218 15 3.72064 15.158 3.43934 15.4393C3.15804 15.7206 3 16.1022 3 16.5C3 16.8978 3.15804 17.2794 3.43934 17.5607C3.72064 17.842 4.10218 18 4.5 18C5.33228 18 6 18.6677 6 19.5C6 19.8978 6.15804 20.2794 6.43934 20.5607C6.72064 20.842 7.10218 21 7.5 21C7.89782 21 8.27936 20.842 8.56066 20.5607C8.84196 20.2794 9 19.8978 9 19.5C9 19.4275 8.98294 19.3137 8.93171 19.1098C8.92076 19.0662 8.90647 19.0124 8.89046 18.9521C8.84784 18.7915 8.79308 18.5851 8.75703 18.4054C8.64852 17.8644 8.58121 17.0046 9.29289 16.2929L16.2929 9.29289C17.0046 8.58121 17.8644 8.64852 18.4054 8.75703C18.5851 8.79308 18.7915 8.84784 18.9521 8.89046C19.0124 8.90647 19.0662 8.92076 19.1098 8.93171C19.3137 8.98294 19.4275 9 19.5 9C19.8978 9 20.2794 8.84196 20.5607 8.56066C20.842 8.27936 21 7.89782 21 7.5C21 7.10218 20.842 6.72064 20.5607 6.43934C20.2794 6.15804 19.8978 6 19.5 6C19.1022 6 18.7206 5.84197 18.4393 5.56066C18.158 5.27935 18 4.89782 18 4.5C18 4.10218 17.842 3.72064 17.5607 3.43934C17.2794 3.15804 16.8978 3 16.5 3Z" fill="currentColor" style="fill="currentColor";fill-opacity:1;"/>
</svg>
