<svg width="24" height="24" viewBox="0 0 24 24" fill="none" xmlns="http://www.w3.org/2000/svg">
<path fill-rule="evenodd" clip-rule="evenodd" d="M6.5 3C6.10218 3 5.72064 3.15804 5.43934 3.43934C5.15804 3.72064 5 4.10218 5 4.5V16.3377C5.46443 16.1174 5.97616 16 6.5 16H19V3H6.5ZM21 2C21 1.44772 20.5523 1 20 1H6.5C5.57174 1 4.6815 1.36875 4.02513 2.02513C3.36875 2.6815 3 3.57174 3 4.5V19.5C3 20.4283 3.36875 21.3185 4.02513 21.9749C4.6815 22.6313 5.57174 23 6.5 23H20C20.5523 23 21 22.5523 21 22V2ZM19 18H6.5C6.10218 18 5.72064 18.158 5.43934 18.4393C5.15804 18.7206 5 19.1022 5 19.5C5 19.8978 5.15804 20.2794 5.43934 20.5607C5.72064 20.842 6.10218 21 6.5 21H19V18ZM12 5C12.5523 5 13 5.44772 13 6V13C13 13.5523 12.5523 14 12 14C11.4477 14 11 13.5523 11 13V6C11 5.44772 11.4477 5 12 5ZM8 7C8.55228 7 9 7.44772 9 8V11C9 11.5523 8.55228 12 8 12C7.44772 12 7 11.5523 7 11V8C7 7.44772 7.44772 7 8 7ZM16 7C16.5523 7 17 7.44772 17 8V11C17 11.5523 16.5523 12 16 12C15.4477 12 15 11.5523 15 11V8C15 7.44772 15.4477 7 16 7Z" fill="currentColor" style="fill="currentColor";fill-opacity:1;"/>
</svg>
