<svg width="24" height="24" viewBox="0 0 24 24" fill="none" xmlns="http://www.w3.org/2000/svg">
<path fill-rule="evenodd" clip-rule="evenodd" d="M6.5 3C6.10218 3 5.72064 3.15804 5.43934 3.43934C5.15804 3.72064 5 4.10218 5 4.5V16.3377C5.46443 16.1174 5.97616 16 6.5 16H19V3H6.5ZM21 2C21 1.44772 20.5523 1 20 1H6.5C5.57174 1 4.6815 1.36875 4.02513 2.02513C3.36875 2.6815 3 3.57174 3 4.5V19.5C3 20.4283 3.36875 21.3185 4.02513 21.9749C4.6815 22.6313 5.57174 23 6.5 23H20C20.5523 23 21 22.5523 21 22V2ZM19 18H6.5C6.10218 18 5.72064 18.158 5.43934 18.4393C5.15804 18.7206 5 19.1022 5 19.5C5 19.8978 5.15804 20.2794 5.43934 20.5607C5.72064 20.842 6.10218 21 6.5 21H19V18ZM12 7C11.4477 7 11 7.44772 11 8C11 8.55228 11.4477 9 12 9C12.5523 9 13 8.55228 13 8C13 7.44772 12.5523 7 12 7ZM14.4001 9.80009C14.7768 9.29868 15 8.67541 15 8C15 6.34315 13.6569 5 12 5C10.3431 5 9 6.34315 9 8C9 8.67541 9.22319 9.29868 9.59985 9.80009C9.44935 9.91298 9.30616 10.037 9.17157 10.1716C8.42143 10.9217 8 11.9391 8 13C8 13.5523 8.44772 14 9 14C9.55228 14 10 13.5523 10 13C10 12.4696 10.2107 11.9609 10.5858 11.5858C10.9609 11.2107 11.4696 11 12 11C12.5304 11 13.0391 11.2107 13.4142 11.5858C13.7893 11.9609 14 12.4696 14 13C14 13.5523 14.4477 14 15 14C15.5523 14 16 13.5523 16 13C16 11.9391 15.5786 10.9217 14.8284 10.1716C14.6938 10.037 14.5507 9.91298 14.4001 9.80009Z" fill="currentColor" style="fill="currentColor";fill-opacity:1;"/>
</svg>
