<svg width="24" height="24" viewBox="0 0 24 24" fill="none" xmlns="http://www.w3.org/2000/svg">
<path fill-rule="evenodd" clip-rule="evenodd" d="M6.5 3C6.10218 3 5.72064 3.15804 5.43934 3.43934C5.15804 3.72064 5 4.10218 5 4.5V16.3377C5.46443 16.1174 5.97616 16 6.5 16H19V3H6.5ZM21 2C21 1.44772 20.5523 1 20 1H6.5C5.57174 1 4.6815 1.36875 4.02513 2.02513C3.36875 2.6815 3 3.57174 3 4.5V19.5C3 20.4283 3.36875 21.3185 4.02513 21.9749C4.6815 22.6313 5.57174 23 6.5 23H20C20.5523 23 21 22.5523 21 22V2ZM19 18H6.5C6.10218 18 5.72064 18.158 5.43934 18.4393C5.15804 18.7206 5 19.1022 5 19.5C5 19.8978 5.15804 20.2794 5.43934 20.5607C5.72064 20.842 6.10218 21 6.5 21H19V18ZM7 8.2C7 6.44771 8.44771 5 10.2 5C10.8734 5 11.4864 5.16491 12 5.50555C12.5136 5.16491 13.1266 5 13.8 5C15.5523 5 17 6.44771 17 8.2C17 9.18984 16.5765 10.0377 16.0071 10.6071C15.9977 10.6165 15.9881 10.6258 15.9783 10.6348C15.3325 11.2309 14.5107 12.0029 13.8487 12.6274C13.5181 12.9393 13.228 13.2138 13.0206 13.4103L12.6891 13.7247C12.6891 13.7247 12.6887 13.725 12 13L11.3112 13.725L11.2219 13.64L10.9766 13.406C10.7681 13.2069 10.4765 12.9279 10.1441 12.6081C9.48059 11.9696 8.64994 11.1642 7.99289 10.5071C7.44139 9.9556 7 9.11217 7 8.2ZM12 13L11.3112 13.725C11.6972 14.0916 12.3031 14.0913 12.6891 13.7247L12 13ZM12.0027 11.6199C12.146 11.4844 12.3058 11.3335 12.4763 11.1726C13.1336 10.5525 13.9534 9.78235 14.6049 9.18072C14.8296 8.94998 15 8.60301 15 8.2C15 7.55228 14.4477 7 13.8 7C13.2913 7 13.0239 7.16691 12.8321 7.4547C12.6466 7.7329 12.3344 7.9 12 7.9C11.6656 7.9 11.3534 7.7329 11.1679 7.4547C10.9761 7.16691 10.7087 7 10.2 7C9.55228 7 9 7.55228 9 8.2C9 8.48783 9.15861 8.8444 9.40711 9.09289C10.0501 9.73584 10.8694 10.5304 11.5309 11.1669C11.7008 11.3304 11.86 11.4832 12.0027 11.6199Z" fill="black" style="fill:black;fill-opacity:1;"/>
</svg>
