<svg width="24" height="24" viewBox="0 0 24 24" fill="none" xmlns="http://www.w3.org/2000/svg">
<path fill-rule="evenodd" clip-rule="evenodd" d="M7 4C6.73478 4 6.48043 4.10536 6.29289 4.29289C6.10536 4.48043 6 4.73478 6 5V19.2768L11.5039 16.1318C11.8113 15.9561 12.1887 15.9561 12.4961 16.1318L18 19.2768V5C18 4.73478 17.8946 4.48043 17.7071 4.29289C17.5196 4.10536 17.2652 4 17 4H7ZM4.87868 2.87868C5.44129 2.31607 6.20435 2 7 2H17C17.7956 2 18.5587 2.31607 19.1213 2.87868C19.6839 3.44129 20 4.20435 20 5V21C20 21.3565 19.8102 21.686 19.5019 21.8649C19.1936 22.0438 18.8134 22.0451 18.5039 21.8682L12 18.1518L5.49614 21.8682C5.18664 22.0451 4.80639 22.0438 4.49807 21.8649C4.18976 21.686 4 21.3565 4 21V5C4 4.20435 4.31607 3.44129 4.87868 2.87868ZM15.7071 7.29289C16.0976 7.68342 16.0976 8.31658 15.7071 8.70711L11.7071 12.7071C11.3166 13.0976 10.6834 13.0976 10.2929 12.7071L8.29289 10.7071C7.90237 10.3166 7.90237 9.68342 8.29289 9.29289C8.68342 8.90237 9.31658 8.90237 9.70711 9.29289L11 10.5858L14.2929 7.29289C14.6834 6.90237 15.3166 6.90237 15.7071 7.29289Z" fill="black" style="fill:black;fill-opacity:1;"/>
</svg>
