<svg width="24" height="24" viewBox="0 0 24 24" fill="none" xmlns="http://www.w3.org/2000/svg">
<path fill-rule="evenodd" clip-rule="evenodd" d="M6.5 3C6.10218 3 5.72064 3.15804 5.43934 3.43934C5.15804 3.72064 5 4.10218 5 4.5V16.3377C5.46443 16.1174 5.97616 16 6.5 16H19V3H6.5ZM21 2C21 1.44772 20.5523 1 20 1H6.5C5.57174 1 4.6815 1.36875 4.02513 2.02513C3.36875 2.6815 3 3.57174 3 4.5V19.5C3 20.4283 3.36875 21.3185 4.02513 21.9749C4.6815 22.6313 5.57174 23 6.5 23H20C20.5523 23 21 22.5523 21 22V2ZM19 18H6.5C6.10218 18 5.72064 18.158 5.43934 18.4393C5.15804 18.7206 5 19.1022 5 19.5C5 19.8978 5.15804 20.2794 5.43934 20.5607C5.72064 20.842 6.10218 21 6.5 21H19V18ZM12 7C11.2044 7 10.4413 7.31607 9.87868 7.87868C9.31607 8.44129 9 9.20435 9 10C10.1046 10 11 10.8954 11 12C11 13.1046 10.1046 14 9 14C7.89543 14 7 13.1046 7 12V10C7 8.67392 7.52678 7.40215 8.46447 6.46447C9.40215 5.52678 10.6739 5 12 5C13.3261 5 14.5979 5.52678 15.5355 6.46447C16.4732 7.40215 17 8.67392 17 10V12C17 13.1046 16.1046 14 15 14C13.8954 14 13 13.1046 13 12C13 10.8954 13.8954 10 15 10C15 9.20435 14.6839 8.44129 14.1213 7.87868C13.5587 7.31607 12.7956 7 12 7Z" fill="black" style="fill:black;fill-opacity:1;"/>
</svg>
