<svg width="24" height="24" viewBox="0 0 24 24" fill="none" xmlns="http://www.w3.org/2000/svg">
<path fill-rule="evenodd" clip-rule="evenodd" d="M7 2C7 1.44772 7.44772 1 8 1H12C12.5523 1 13 1.44772 13 2V5H18C18.7957 5 19.5587 5.31607 20.1213 5.87868C20.6839 6.44129 21 7.20435 21 8V11H22C22.5523 11 23 11.4477 23 12C23 12.5523 22.5523 13 22 13H21V16C21 16.7957 20.6839 17.5587 20.1213 18.1213C19.5587 18.6839 18.7957 19 18 19H8.41421L4.70711 22.7071C4.42111 22.9931 3.99099 23.0787 3.61732 22.9239C3.24364 22.7691 3 22.4045 3 22V13H2C1.44772 13 1 12.5523 1 12C1 11.4477 1.44772 11 2 11H3V8C3 7.20435 3.31607 6.44129 3.87868 5.87868C4.44129 5.31607 5.20435 5 6 5H11V3H8C7.44772 3 7 2.55228 7 2ZM6 7C5.73478 7 5.48043 7.10536 5.29289 7.29289C5.10536 7.48043 5 7.73478 5 8V19.5858L7.29289 17.2929C7.48043 17.1054 7.73478 17 8 17H18C18.2652 17 18.5196 16.8946 18.7071 16.7071C18.8946 16.5196 19 16.2652 19 16V8C19 7.73478 18.8946 7.48043 18.7071 7.29289C18.5196 7.10536 18.2652 7 18 7H6ZM9 10C9.55228 10 10 10.4477 10 11V13C10 13.5523 9.55228 14 9 14C8.44772 14 8 13.5523 8 13V11C8 10.4477 8.44772 10 9 10ZM15 10C15.5523 10 16 10.4477 16 11V13C16 13.5523 15.5523 14 15 14C14.4477 14 14 13.5523 14 13V11C14 10.4477 14.4477 10 15 10Z" fill="currentColor" style="fill="currentColor";fill-opacity:1;"/>
</svg>
