<svg width="24" height="24" viewBox="0 0 24 24" fill="none" xmlns="http://www.w3.org/2000/svg">
<path fill-rule="evenodd" clip-rule="evenodd" d="M10.455 1.7629C10.9216 1.48257 11.4557 1.33447 12 1.33447C12.5441 1.33447 13.078 1.48246 13.5445 1.7626L16.5445 3.5626C16.9874 3.82867 17.3545 4.2049 17.6094 4.65428C17.8643 5.10366 17.9989 5.61126 18 6.1279L18 6.13009L18 9.93405L21.5448 12.0627C21.9877 12.3288 22.3545 12.7048 22.6094 13.1542C22.8643 13.6036 22.9989 14.1112 23 14.6278L23 14.63L23 17.8722C22.9989 18.3888 22.8643 18.8964 22.6094 19.3458C22.3545 19.7952 21.9879 20.1711 21.545 20.4372L18.545 22.2372C18.1115 22.4976 17.6197 22.644 17.1156 22.6634C17.0777 22.6678 17.0391 22.67 17 22.67C16.9609 22.67 16.9223 22.6678 16.8844 22.6634C16.3803 22.644 15.8885 22.4976 15.455 22.2372L12 20.1659L8.545 22.2372C8.11148 22.4976 7.61971 22.644 7.11559 22.6634C7.07766 22.6678 7.03909 22.67 7 22.67C6.96091 22.67 6.92234 22.6678 6.88441 22.6634C6.38029 22.644 5.88852 22.4976 5.455 22.2372L2.4555 20.4375C2.01264 20.1714 1.64549 19.7952 1.39058 19.3458C1.13567 18.8964 1.00113 18.3888 1 17.8722L1 17.87V14.63L1 14.6278C1.00113 14.1112 1.13567 13.6036 1.39058 13.1542C1.64549 12.7048 2.01214 12.3289 2.455 12.0628L6 9.93405V6.13009L6 6.1279C6.00113 5.61126 6.13567 5.10366 6.39058 4.65428C6.64549 4.2049 7.01214 3.82897 7.455 3.5629L10.455 1.7629ZM7.00021 11.6663L3.94897 13.4986L7.00056 15.3334L10.0563 13.5L7.00021 11.6663ZM11 15.2662L8.00001 17.0661L8 20.2321L11 18.4336V15.2662ZM13 18.4336L16 20.2321V17.0662L13 15.2662V18.4336ZM13.9437 13.5L16.9994 15.3335L20.0511 13.4986L16.9998 11.6663L13.9437 13.5ZM16 9.93381V6.76168L13 8.56548L13 11.7338L16 9.93381ZM11 11.7338L11 8.56548L8 6.76168V9.93381L11 11.7338ZM8.94924 4.99874L11.4845 3.47759C11.64 3.38414 11.8186 3.33447 12 3.33447C12.1814 3.33447 12.3595 3.38384 12.515 3.47728L15.0508 4.99874L12 6.83306L8.94924 4.99874ZM21 15.2617L21 17.8678C21 17.8676 21 17.8681 21 17.8678C20.9995 18.0398 20.9547 18.2094 20.8698 18.359C20.7849 18.5086 20.6629 18.6338 20.5155 18.7225L18 20.2318V17.0656L21 15.2617ZM6 20.2318L6.00001 17.0655L3 15.2617V17.8687C3.00053 18.0406 3.04537 18.2095 3.13019 18.359C3.21513 18.5087 3.33728 18.634 3.48482 18.7227C3.48476 18.7227 3.48488 18.7227 3.48482 18.7227L6 20.2318Z" fill="currentColor" style="fill="currentColor";fill-opacity:1;"/>
</svg>
