<svg width="24" height="24" viewBox="0 0 24 24" fill="none" xmlns="http://www.w3.org/2000/svg">
<path fill-rule="evenodd" clip-rule="evenodd" d="M4.87868 2.87868C5.44129 2.31607 6.20435 2 7 2H8C8.55228 2 9 2.44772 9 3C9 3.55228 8.55228 4 8 4H7C6.73478 4 6.48043 4.10536 6.29289 4.29289C6.10536 4.48043 6 4.73478 6 5V10C6 10.7398 5.72672 11.4515 5.23607 12C5.72672 12.5485 6 13.2602 6 14V19C6 19.5477 6.45228 20 7 20H8C8.55228 20 9 20.4477 9 21C9 21.5523 8.55228 22 8 22H7C5.34772 22 4 20.6523 4 19V14C4 13.7348 3.89464 13.4804 3.70711 13.2929C3.51957 13.1054 3.26522 13 3 13C2.44772 13 2 12.5523 2 12C2 11.4477 2.44772 11 3 11C3.26522 11 3.51957 10.8946 3.70711 10.7071C3.89464 10.5196 4 10.2652 4 10V5C4 4.20435 4.31607 3.44129 4.87868 2.87868ZM15 3C15 2.44772 15.4477 2 16 2H17C17.7956 2 18.5587 2.31607 19.1213 2.87868C19.6839 3.44129 20 4.20435 20 5V10C20 10.2652 20.1054 10.5196 20.2929 10.7071C20.4804 10.8946 20.7348 11 21 11C21.5523 11 22 11.4477 22 12C22 12.5523 21.5523 13 21 13C20.4523 13 20 13.4523 20 14V19C20 19.7957 19.6839 20.5587 19.1213 21.1213C18.5587 21.6839 17.7957 22 17 22H16C15.4477 22 15 21.5523 15 21C15 20.4477 15.4477 20 16 20H17C17.2652 20 17.5196 19.8946 17.7071 19.7071C17.8946 19.5196 18 19.2652 18 19V14C18 13.2337 18.2899 12.533 18.7655 12.0018C18.2739 11.453 18 10.7406 18 10V5C18 4.73478 17.8946 4.48043 17.7071 4.29289C17.5196 4.10536 17.2652 4 17 4H16C15.4477 4 15 3.55228 15 3Z" fill="currentColor" style="fill="currentColor";fill-opacity:1;"/>
</svg>
