<svg width="24" height="24" viewBox="0 0 24 24" fill="none" xmlns="http://www.w3.org/2000/svg">
<path d="M8.75427 23C8.64427 23 8.53427 23 8.42427 22.99C7.73427 22.94 7.07427 22.76 6.46427 22.45C5.85427 22.14 5.32427 21.71 4.88427 21.18C4.44427 20.65 4.13427 20.04 3.93427 19.38C3.80427 18.93 3.73427 18.47 3.73427 18C3.25427 17.64 2.84427 17.2 2.52427 16.7C2.08427 16.02 1.81427 15.23 1.75427 14.42C1.68427 13.61 1.81427 12.79 2.13427 12.04C2.35427 11.53 2.65427 11.06 3.01427 10.65C2.85427 10.18 2.75427 9.69 2.73427 9.2C2.70427 8.45 2.84427 7.68 3.15427 6.99C3.45427 6.3 3.92427 5.68 4.49427 5.19C4.87427 4.86 5.31427 4.6 5.77427 4.4C5.81427 4.13 5.88427 3.87 5.97427 3.61C6.16427 3.11 6.44427 2.65 6.80427 2.26C7.17427 1.87 7.60427 1.56 8.09427 1.34C8.61427 1.13 9.13427 1.01 9.67427 1C10.2043 1 10.7343 1.08 11.2343 1.28C11.7343 1.48 12.1743 1.77 12.5643 2.14C12.9443 2.51 13.2443 2.96 13.4543 3.45C13.6643 3.94 13.7643 4.47 13.7643 5V7H15.7643V5C15.7643 4.2 16.0743 3.45 16.6443 2.88C16.8743 2.65 17.1443 2.45 17.4343 2.31C17.6843 1.83 18.1843 1.5 18.7643 1.5C19.5943 1.5 20.2643 2.17 20.2643 3C20.2643 3.83 19.5943 4.5 18.7643 4.5C18.5043 4.5 18.2543 4.43 18.0343 4.31C17.8643 4.49 17.7643 4.74 17.7643 5V7H19.6443C19.9243 6.69 20.3143 6.5 20.7643 6.5C21.5943 6.5 22.2643 7.17 22.2643 8C22.2643 8.83 21.5943 9.5 20.7643 9.5C20.3243 9.5 19.9243 9.31 19.6443 9H13.7643V11.99H15.6443C15.9243 11.68 16.3143 11.49 16.7643 11.49C17.5943 11.49 18.2643 12.16 18.2643 12.99C18.2643 13.82 17.5943 14.49 16.7643 14.49C16.3243 14.49 15.9243 14.3 15.6443 13.99H13.7643V16.99H18.7643C19.5643 16.99 20.3243 17.3 20.8843 17.87C21.4443 18.44 21.7343 19.12 21.7643 19.87C22.0743 20.14 22.2643 20.54 22.2643 20.99C22.2643 21.82 21.5943 22.49 20.7643 22.49C19.9343 22.49 19.2643 21.82 19.2643 20.99C19.2643 20.55 19.4543 20.15 19.7543 19.88C19.7243 19.65 19.6343 19.45 19.4643 19.28C19.2743 19.09 19.0243 18.99 18.7543 18.99H13.6543C13.5843 19.33 13.4843 19.66 13.3443 19.98C13.0743 20.61 12.6743 21.17 12.1743 21.64C11.6743 22.11 11.0943 22.47 10.4443 22.7C9.89427 22.89 9.33427 22.99 8.76427 22.99L8.75427 23ZM5.90427 18.94C6.02427 19.3 6.20427 19.62 6.44427 19.92C6.70427 20.24 7.02427 20.49 7.39427 20.68C7.76427 20.87 8.15427 20.98 8.56427 21C8.97427 21.03 9.38427 20.97 9.77427 20.83C10.1643 20.69 10.5143 20.48 10.8143 20.2C11.1143 19.92 11.3543 19.58 11.5143 19.2C11.6743 18.82 11.7643 18.42 11.7643 18.01V13.01C11.2743 13.42 10.7043 13.73 10.0943 13.95C9.57427 14.13 9.00427 13.86 8.81427 13.34C8.63427 12.82 8.90427 12.25 9.42427 12.07C10.0843 11.84 10.6443 11.42 11.0643 10.87C11.4743 10.32 11.7143 9.67 11.7543 8.99V5.02C11.7543 4.75 11.7043 4.49 11.6043 4.24C11.5043 3.99 11.3543 3.77 11.1643 3.58C10.9743 3.39 10.7543 3.25 10.5043 3.15C10.2543 3.05 9.98427 3 9.72427 3.01C9.45427 3.01 9.19427 3.07 8.95427 3.18C8.71427 3.29 8.49427 3.44 8.30427 3.64C8.12427 3.84 7.98427 4.06 7.88427 4.31C7.79427 4.56 7.75427 4.81 7.76427 5.08V5.12C7.78427 5.43 7.87427 5.74 8.03427 6.02C8.31427 6.5 8.14427 7.11 7.66427 7.39C7.18427 7.67 6.57427 7.5 6.29427 7.02C6.20427 6.87 6.12427 6.71 6.06427 6.55C5.97427 6.61 5.89427 6.67 5.81427 6.74C5.47427 7.03 5.19427 7.41 5.01427 7.82C4.83427 8.24 4.74427 8.69 4.76427 9.15C4.76427 9.28 4.78427 9.4 4.80427 9.53C5.17427 9.53 5.51427 9.71 5.69427 10.04C5.96427 10.52 5.78427 11.13 5.30427 11.4C5.15427 11.48 5.01427 11.58 4.87427 11.69C4.87427 11.69 4.85427 11.7 4.84427 11.71C4.47427 12.02 4.17427 12.41 3.98427 12.85C3.79427 13.3 3.71427 13.79 3.75427 14.28C3.79427 14.76 3.95427 15.24 4.21427 15.65C4.47427 16.05 4.83427 16.39 5.24427 16.63C5.25427 16.63 5.26427 16.64 5.27427 16.65C5.72427 16.9 6.22427 17.03 6.73427 17.03C7.28427 17.03 7.73427 17.48 7.73427 18.03C7.73427 18.58 7.28427 19.03 6.73427 19.03C6.44427 19.03 6.16427 19.01 5.88427 18.96L5.90427 18.94Z" fill="currentColor" style="fill="currentColor";fill-opacity:1;"/>
</svg>
