<svg width="24" height="24" viewBox="0 0 24 24" fill="none" xmlns="http://www.w3.org/2000/svg">
<path fill-rule="evenodd" clip-rule="evenodd" d="M8.9054 1.00918C9.43759 0.996576 9.96695 1.09033 10.4624 1.28495C10.9579 1.47957 11.4096 1.77114 11.791 2.14257C11.8635 2.21325 11.9333 2.28655 12.0001 2.3623C12.0669 2.28655 12.1366 2.21325 12.2092 2.14257C12.5905 1.77114 13.0422 1.47957 13.5377 1.28495C14.0332 1.09033 14.5626 0.996576 15.0948 1.00918C15.6269 1.02178 16.1513 1.14049 16.637 1.35834C17.1227 1.57619 17.5601 1.88881 17.9234 2.27788C18.2868 2.66694 18.5688 3.12462 18.753 3.62408C18.8475 3.88038 18.9153 4.14504 18.9557 4.41385C19.4205 4.61126 19.854 4.87852 20.2408 5.20758C20.8186 5.69916 21.2771 6.31579 21.5813 7.01076C21.8855 7.70572 22.0276 8.46081 21.9969 9.21884C21.9767 9.7161 21.8824 10.2061 21.7184 10.6729C22.0862 11.0819 22.3853 11.5501 22.6019 12.0595C22.9208 12.8091 23.0517 13.6253 22.9832 14.437C22.9147 15.2488 22.6489 16.0315 22.2089 16.7171C21.8858 17.2205 21.4759 17.6604 21.0001 18.0171C20.9992 18.9956 20.7111 19.9575 20.1643 20.7802C19.4975 21.7836 18.4908 22.5124 17.3294 22.8327C16.1681 23.153 14.9301 23.0433 13.8432 22.5236C13.1109 22.1734 12.4803 21.653 12.0001 21.0127C11.5198 21.653 10.8893 22.1734 10.1569 22.5236C9.07003 23.0433 7.83207 23.153 6.67071 22.8327C5.50935 22.5124 4.50269 21.7836 3.83586 20.7802C3.28906 19.9575 3.00093 18.9956 3.00007 18.0171C2.5242 17.6604 2.11437 17.2205 1.79128 16.7171C1.3513 16.0315 1.08549 15.2488 1.01698 14.437C0.948473 13.6253 1.07934 12.8091 1.3982 12.0595C1.61488 11.5501 1.91391 11.0819 2.28171 10.6729C2.11774 10.2061 2.02348 9.7161 2.00329 9.21884C1.9725 8.46081 2.11461 7.70572 2.41886 7.01076C2.7231 6.31579 3.1815 5.69916 3.75934 5.20758C4.14615 4.87852 4.57969 4.61126 5.04447 4.41385C5.08485 4.14504 5.15262 3.88038 5.24714 3.62408C5.43133 3.12461 5.71336 2.66694 6.07671 2.27788C6.44006 1.88881 6.87742 1.5762 7.36315 1.35834C7.84887 1.14049 8.3732 1.02178 8.9054 1.00918ZM5.30716 6.53861C5.22007 6.5981 5.13597 6.66227 5.05527 6.73092C4.70857 7.02587 4.43353 7.39584 4.25098 7.81283C4.06843 8.22981 3.98317 8.68286 4.00164 9.13767C4.00658 9.25942 4.01893 9.38043 4.03849 9.50008C4.398 9.49191 4.74981 9.67849 4.93643 10.0147C5.20442 10.4977 5.03021 11.1064 4.5473 11.3744C4.43013 11.4394 4.31749 11.5122 4.21012 11.5922C4.17861 11.6261 4.14442 11.6582 4.10762 11.6881C3.72826 11.9963 3.42994 12.3925 3.23863 12.8423C3.04731 13.2921 2.96879 13.7818 3.0099 14.2688C3.051 14.7559 3.21049 15.2255 3.47448 15.6369C3.71126 16.0058 4.02568 16.3179 4.39511 16.5516C4.43893 16.5687 4.48208 16.5891 4.52424 16.6129C4.97444 16.8668 5.48262 17.0001 5.99949 16.9999C6.55178 16.9996 6.9997 17.4471 6.99996 17.9994C7.00022 18.5517 6.55271 18.9996 6.00043 18.9999C5.7118 19 5.4248 18.9752 5.14252 18.9261C5.22642 19.1886 5.34669 19.4402 5.50155 19.6732C5.90164 20.2752 6.50564 20.7125 7.20246 20.9047C7.89927 21.0969 8.64205 21.031 9.29417 20.7192C9.94189 20.4095 10.4569 19.8779 10.746 19.2211C10.7921 19.1036 10.8281 18.9824 10.8535 18.8587L10.8554 18.8494L10.8555 18.8494C10.941 18.4524 11.211 18.2174 11.4224 18.1046C11.6266 17.9956 11.8339 17.9624 12.0002 17.9624C12.1667 17.9624 12.3733 17.9957 12.5767 18.1038C12.7868 18.2154 13.0561 18.448 13.1441 18.8422L13.148 18.8603C13.1731 18.9837 13.2087 19.1046 13.2545 19.2219C13.5437 19.8783 14.0585 20.4097 14.706 20.7192C15.3581 21.031 16.1009 21.0969 16.7977 20.9047C17.4945 20.7125 18.0985 20.2752 18.4986 19.6732C18.6535 19.4402 18.7737 19.1886 18.8576 18.9261C18.5753 18.9752 18.2882 19 17.9995 18.9999C17.4472 18.9996 16.9997 18.5517 17 17.9994C17.0003 17.4471 17.4482 16.9996 18.0005 16.9999C18.5173 17.0001 19.0255 16.8668 19.4757 16.6129C19.518 16.589 19.5613 16.5686 19.6053 16.5514C19.9746 16.3177 20.289 16.0057 20.5257 15.6369C20.7897 15.2255 20.9492 14.7559 20.9903 14.2688C21.0314 13.7818 20.9528 13.2921 20.7615 12.8423C20.5702 12.3925 20.2719 11.9963 19.8925 11.6881C19.8558 11.6583 19.8217 11.6263 19.7903 11.5925C19.6828 11.5123 19.57 11.4395 19.4527 11.3744C18.9698 11.1064 18.7956 10.4977 19.0636 10.0147C19.2502 9.67846 19.6021 9.49188 19.9617 9.50008C19.9812 9.38044 19.9936 9.25942 19.9985 9.13767C20.017 8.68286 19.9317 8.22981 19.7492 7.81283C19.5666 7.39584 19.2916 7.02587 18.9449 6.73092C18.8642 6.66231 18.7802 6.59818 18.6931 6.53872C18.6273 6.69669 18.5513 6.85073 18.4653 6.9998C18.1892 7.47816 17.5777 7.64217 17.0993 7.36614C16.621 7.09011 16.4569 6.47855 16.733 6.0002C16.8891 5.72959 16.9796 5.42629 16.9974 5.11465C16.9976 5.10888 16.9978 5.1031 16.9981 5.09731C17.0099 4.83141 16.9686 4.5658 16.8765 4.31607C16.7844 4.06633 16.6434 3.8375 16.4618 3.64297C16.2801 3.44844 16.0614 3.29213 15.8185 3.1832C15.5757 3.07427 15.3135 3.01492 15.0474 3.00862C14.7813 3.00232 14.5166 3.0492 14.2689 3.14651C14.0211 3.24382 13.7953 3.3896 13.6046 3.57531C13.4139 3.76103 13.2623 3.98293 13.1584 4.22803C13.0546 4.47312 13.0008 4.73648 13.0001 5.00265C12.9986 5.55387 12.5513 5.99994 12.0001 5.99994C11.4488 5.99994 11.0016 5.55387 11.0001 5.00265C10.9994 4.73648 10.9455 4.47312 10.8417 4.22803C10.7379 3.98293 10.5862 3.76103 10.3955 3.57531C10.2048 3.3896 9.97901 3.24382 9.73127 3.14651C9.48352 3.0492 9.21884 3.00232 8.95274 3.00862C8.68664 3.01492 8.42448 3.07427 8.18162 3.1832C7.93875 3.29213 7.72007 3.44844 7.5384 3.64297C7.35672 3.8375 7.21571 4.06634 7.12361 4.31607C7.036 4.55364 6.99434 4.80558 7.00072 5.05847C7.00129 5.067 7.00174 5.07556 7.0021 5.08415C7.01528 5.40664 7.10631 5.72115 7.26743 6.00082C7.54312 6.47937 7.37866 7.09081 6.90011 7.3665C6.42156 7.64219 5.81012 7.47773 5.53443 6.99918C5.44864 6.85026 5.37278 6.6964 5.30716 6.53861ZM9.99376 7.38624C10.4984 7.16193 11.0894 7.38923 11.3137 7.89391L11.382 8.04746C11.5834 8.01621 11.7898 8 12 8C12.1776 8 12.3525 8.01158 12.524 8.03402L12.5863 7.89391C12.8106 7.38923 13.4016 7.16193 13.9062 7.38624C14.4109 7.61054 14.6382 8.2015 14.4139 8.70619L14.3792 8.78421C14.6725 9.00156 14.935 9.25808 15.159 9.54603L15.2939 9.48609C15.7986 9.26179 16.3896 9.48908 16.6139 9.99376C16.8382 10.4984 16.6109 11.0894 16.1062 11.3137L15.9525 11.382C15.9838 11.5834 16 11.7898 16 12C16 12.1776 15.9884 12.3525 15.966 12.524L16.1062 12.5863C16.6109 12.8106 16.8382 13.4016 16.6139 13.9062C16.3896 14.4109 15.7986 14.6382 15.2939 14.4139L15.2158 14.3792C14.9984 14.6725 14.7419 14.9351 14.4539 15.1591L14.5138 15.2939C14.7381 15.7986 14.5108 16.3896 14.0061 16.6139C13.5014 16.8382 12.9104 16.6109 12.6861 16.1062L12.6179 15.9526C12.4165 15.9838 12.2101 16 12 16C11.8224 16 11.6476 15.9884 11.4761 15.966L11.4138 16.1062C11.1895 16.6109 10.5985 16.8382 10.0939 16.6139C9.58918 16.3896 9.36189 15.7986 9.58619 15.2939L9.62087 15.2159C9.32752 14.9985 9.06495 14.7419 8.8409 14.4539L8.70619 14.5138C8.2015 14.7381 7.61054 14.5108 7.38624 14.0061C7.16193 13.5014 7.38923 12.9104 7.89391 12.6861L8.04744 12.6179C8.01621 12.4165 8 12.2101 8 12C8 11.8224 8.01157 11.6475 8.034 11.4761L7.89391 11.4138C7.38923 11.1895 7.16193 10.5985 7.38624 10.0939C7.61054 9.58918 8.2015 9.36189 8.70619 9.58619L8.78416 9.62084C9.00151 9.32754 9.25804 9.06501 9.546 8.84099L9.48609 8.70619C9.26179 8.2015 9.48908 7.61054 9.99376 7.38624ZM12 10C10.8954 10 10 10.8954 10 12C10 13.1046 10.8954 14 12 14C13.1046 14 14 13.1046 14 12C14 10.8954 13.1046 10 12 10Z" fill="currentColor" style="fill="currentColor";fill-opacity:1;"/>
</svg>
