<svg width="24" height="24" viewBox="0 0 24 24" fill="none" xmlns="http://www.w3.org/2000/svg">
<path fill-rule="evenodd" clip-rule="evenodd" d="M19.8783 4.11093C19.6511 4.01791 19.4078 3.97101 19.1624 3.97296C18.917 3.97491 18.6744 4.02567 18.4488 4.12228C18.2232 4.21889 18.0191 4.35943 17.8483 4.5357L17.8367 4.54746L9.76674 12.6075C9.37597 12.9977 8.7428 12.9974 8.35252 12.6066C7.96224 12.2158 7.96263 11.5827 8.3534 11.1924L16.418 3.13778C16.7721 2.77392 17.1947 2.48367 17.6615 2.28377C18.131 2.08271 18.6358 1.97708 19.1465 1.97302C19.6572 1.96896 20.1636 2.06657 20.6363 2.26014C21.1089 2.45371 21.5383 2.73939 21.8994 3.10054C22.2606 3.46169 22.5463 3.89108 22.7398 4.36371C22.9334 4.83634 23.031 5.34276 23.027 5.85348C23.0229 6.3642 22.9173 6.86901 22.7162 7.33851C22.5164 7.80517 22.2262 8.22767 21.8625 8.58172L13.808 16.6561C13.418 17.0472 12.7848 17.0479 12.3938 16.6579C12.0028 16.2679 12.002 15.6347 12.3921 15.2437L20.4521 7.16369L20.4643 7.15166C20.6406 6.98091 20.7811 6.77678 20.8777 6.55118C20.9743 6.32558 21.0251 6.08301 21.027 5.8376C21.029 5.59219 20.9821 5.34884 20.8891 5.12173C20.796 4.89462 20.6588 4.68829 20.4852 4.51475C20.3117 4.34122 20.1054 4.20394 19.8783 4.11093ZM3.07003 17.9591C3.07051 15.7437 4.85156 13.9399 7.07003 13.9399H7.07335C7.59995 13.9417 8.12105 14.0471 8.6069 14.2503C9.09275 14.4534 9.53382 14.7503 9.90495 15.1239C10.2761 15.4975 10.57 15.9405 10.7699 16.4277C10.9696 16.9143 11.0715 17.4355 11.07 17.9615C11.07 17.9621 11.07 17.9627 11.07 17.9633L10.07 17.9599H11.07C11.07 17.9605 11.07 17.961 11.07 17.9615C11.0692 20.7466 8.82827 22.9999 6.07003 22.9999C4.16394 22.9999 2.51068 21.8561 1.35647 20.6805C1.35863 20.6827 1.36078 20.6849 1.36292 20.687L2.07003 19.9799L1.35647 20.6805C1.25244 20.5751 1.1264 20.4134 1.05595 20.1888C0.977879 19.94 0.990661 19.6847 1.07411 19.4583C1.21324 19.0808 1.51404 18.8766 1.61854 18.8073C1.76256 18.7117 1.92433 18.6311 2.0484 18.5712C2.11935 18.5369 2.17533 18.5106 2.22873 18.4855C2.29565 18.454 2.35851 18.4245 2.44171 18.3836C2.709 18.2523 2.89138 18.1418 3.00284 18.0372C3.04861 17.9943 3.0654 17.9675 3.07003 17.9591ZM3.07003 17.9591C3.07003 17.9593 3.07003 17.9596 3.07003 17.9599C3.07003 17.9608 3.0702 17.9606 3.07039 17.9599C3.07069 17.959 3.07105 17.9571 3.07092 17.9574C3.07069 17.9578 3.0704 17.9584 3.07003 17.9591ZM7.06842 15.9399C5.96792 15.9408 5.07003 16.8363 5.07003 17.9599C5.07003 18.6485 4.73277 19.1565 4.37159 19.4955C4.13451 19.718 3.86387 19.8909 3.62176 20.0244C4.41021 20.6266 5.25428 20.9999 6.07003 20.9999C7.71128 20.9999 9.07003 19.6541 9.07003 17.9599L9.07004 17.9566C9.07091 17.6927 9.01979 17.4311 8.91959 17.1869C8.81939 16.9427 8.67207 16.7206 8.48605 16.5334C8.30002 16.3461 8.07893 16.1973 7.8354 16.0955C7.59239 15.9939 7.3318 15.941 7.06842 15.9399ZM2.72464 20.4736C2.72663 20.4722 2.72894 20.4708 2.73161 20.4691C2.71168 20.4849 2.70581 20.4861 2.72464 20.4736Z" fill="currentColor" style="fill="currentColor";fill-opacity:1;"/>
</svg>
