<svg width="24" height="24" viewBox="0 0 24 24" fill="none" xmlns="http://www.w3.org/2000/svg">
<path fill-rule="evenodd" clip-rule="evenodd" d="M7.30046 1.28541C7.69511 0.899064 8.32824 0.905799 8.71459 1.30046L9.95327 2.56578C10.3347 2.33862 10.7533 2.17531 11.1928 2.08476C11.9704 1.92457 12.778 1.99935 13.5128 2.2996C13.6919 2.37275 13.8646 2.45847 14.0299 2.55583L15.2929 1.29289C15.6834 0.902369 16.3166 0.902369 16.7071 1.29289C17.0976 1.68342 17.0976 2.31658 16.7071 2.70711L15.4448 3.96941C15.807 4.58308 15.9994 5.28376 16 5.99918V6.41745C16.5674 6.66508 17.0893 7.01825 17.5355 7.46447C17.6699 7.59893 17.796 7.74027 17.9132 7.88765C19.057 7.51291 19.97 6.37922 19.97 5C19.97 4.44772 20.4177 4 20.97 4C21.5223 4 21.97 4.44772 21.97 5C21.97 7.13853 20.6363 8.95917 18.8237 9.68417C18.9397 10.1094 19 10.5516 19 11V12H22C22.5522 12 23 12.4477 23 13C23 13.5523 22.5522 14 22 14H18C17.4477 14 17 13.5523 17 13V11C17 10.2044 16.6839 9.44129 16.1213 8.87868C15.7555 8.51291 15.305 8.25135 14.8159 8.11309C14.7707 8.10468 14.7266 8.09323 14.6838 8.07896C14.4614 8.0269 14.232 8 14 8H12.7C12.1477 8 11.7 7.55229 11.7 7C11.7 6.44772 12.1477 6 12.7 6H14C13.9999 6 14 6 14 6C13.9995 5.60336 13.8811 5.21581 13.6598 4.88663C13.5896 4.78223 13.5101 4.6852 13.4225 4.59657C13.4193 4.59344 13.4161 4.59029 13.4129 4.58711C13.41 4.58421 13.4071 4.5813 13.4043 4.57837C13.2192 4.39589 12.9994 4.2503 12.7564 4.15104C12.389 4.00091 11.9852 3.96352 11.5964 4.04362C11.2076 4.12372 10.8515 4.31768 10.5733 4.60083C10.3851 4.79242 10.1277 4.90024 9.8591 4.9C9.59051 4.89976 9.33331 4.79148 9.14541 4.59955L7.28541 2.69955C6.89906 2.30489 6.9058 1.67176 7.30046 1.28541ZM1.29289 1.29289C1.68342 0.902369 2.31658 0.902369 2.70711 1.29289L8.39289 6.97868C8.40193 6.98738 8.41083 6.99628 8.41959 7.00537L17.822 16.4078C17.8327 16.418 17.8431 16.4284 17.8533 16.439L22.7071 21.2929C23.0976 21.6834 23.0976 22.3166 22.7071 22.7071C22.3166 23.0976 21.6834 23.0976 21.2929 22.7071L17.2425 18.6567C16.5151 19.4788 15.6005 20.1229 14.5685 20.53C13.1454 21.0913 11.5776 21.171 10.1049 20.7568C8.63222 20.3427 7.33577 19.4575 6.41385 18.2367C6.37459 18.1847 6.3361 18.1322 6.29839 18.0793C4.99542 18.402 4 19.6175 4 21C4 21.5523 3.55228 22 3 22C2.44772 22 2 21.5523 2 21C2 18.8503 3.41394 16.9575 5.37213 16.2704C5.12532 15.544 4.99794 14.7773 4.99997 14H2C1.44772 14 1 13.5523 1 13C1 12.4477 1.44772 12 2 12H4.99997V11.0032C4.99504 10.1963 5.18547 9.40019 5.55501 8.68285C5.74464 8.31474 5.97854 7.97299 6.25051 7.66472L1.29289 2.70711C0.902369 2.31658 0.902369 1.68342 1.29289 1.29289ZM7.66934 9.08356C7.54031 9.24274 7.42747 9.4153 7.33295 9.59876C7.1109 10.0298 6.99664 10.5083 6.99995 10.9931L6.99999 11L6.99997 12.9924C6.99999 12.9949 7 12.9974 7 13C7 13.0026 6.99999 13.0051 6.99997 13.0076V14L6.99997 14.003C6.99738 14.8511 7.21048 15.6817 7.6139 16.4188C7.65251 16.4728 7.68593 16.5308 7.71336 16.5922C7.80403 16.7432 7.90295 16.8898 8.00987 17.0314C8.66839 17.9034 9.59443 18.5357 10.6463 18.8315C10.7635 18.8645 10.8814 18.893 11 18.9172V12.4142L7.66934 9.08356ZM13 14.4142V18.9172C13.2834 18.8594 13.5627 18.7767 13.8346 18.6695C14.6101 18.3636 15.2928 17.8703 15.8246 17.2388L13 14.4142Z" fill="currentColor" style="fill="currentColor";fill-opacity:1;"/>
</svg>
