<svg width="24" height="24" viewBox="0 0 24 24" fill="none" xmlns="http://www.w3.org/2000/svg">
<path fill-rule="evenodd" clip-rule="evenodd" d="M7.29289 1.29289C7.68342 0.902369 8.31658 0.902369 8.70711 1.29289L9.96372 2.5495C10.1125 2.46159 10.2672 2.38321 10.4268 2.31498C10.9241 2.10248 11.4592 1.99292 11.9999 1.99292C12.5407 1.99292 13.0758 2.10248 13.5731 2.31498C13.7327 2.38321 13.8874 2.46161 14.0362 2.54954L15.2929 1.29289C15.6834 0.902369 16.3166 0.902369 16.7071 1.29289C17.0976 1.68342 17.0976 2.31658 16.7071 2.70711L15.4494 3.96482C15.5663 4.16335 15.6661 4.3721 15.7475 4.58887C15.9348 5.08762 16.0206 5.61867 15.9999 6.15086V6.4174C16.5674 6.66503 17.0893 7.01822 17.5355 7.46447C17.67 7.59893 17.796 7.74026 17.9132 7.88764C19.057 7.51289 19.97 6.3792 19.97 5C19.97 4.44772 20.4177 4 20.97 4C21.5223 4 21.97 4.44772 21.97 5C21.97 7.13852 20.6363 8.95914 18.8238 9.68415C18.9398 10.1093 19 10.5516 19 11C19 11.5523 18.5523 12 18 12C17.4477 12 17 11.5523 17 11C17 10.2044 16.6839 9.44129 16.1213 8.87868C15.7559 8.51326 15.3059 8.25184 14.8174 8.11349C14.7711 8.10496 14.726 8.09325 14.6823 8.0786C14.4604 8.02677 14.2316 8 14 8H10C9.76832 8 9.5394 8.0268 9.3174 8.07868C9.2738 8.09326 9.22887 8.10493 9.18283 8.11343C8.6942 8.25178 8.24415 8.51321 7.87868 8.87868C7.31607 9.44129 7 10.2044 7 11V13.9986C7.00212 14.707 7.15181 15.4073 7.43954 16.0547C7.50073 16.1923 7.56787 16.327 7.64072 16.4582C7.66078 16.4893 7.67917 16.5215 7.69576 16.5549C7.95736 17.0029 8.28636 17.4094 8.67213 17.7596C9.08106 18.1308 9.11164 18.7632 8.74044 19.1721C8.36923 19.5811 7.7368 19.6116 7.32787 19.2404C6.9429 18.891 6.59854 18.5013 6.30024 18.0788C4.99636 18.4009 4 19.6168 4 21C4 21.5523 3.55228 22 3 22C2.44772 22 2 21.5523 2 21C2 18.8482 3.41664 16.9538 5.37773 16.2684C5.13015 15.54 5.00211 14.7749 5 14.0027L5 14H2C1.44772 14 1 13.5523 1 13C1 12.4477 1.44772 12 2 12H5V11C5 10.5532 5.0598 10.1126 5.17496 9.68886C3.34151 8.96769 2 7.14587 2 5C2 4.44772 2.44772 4 3 4C3.55228 4 4 4.44772 4 5C4 6.37966 4.91513 7.51791 6.08458 7.8904C6.20242 7.74203 6.32917 7.59977 6.46447 7.46447C6.91069 7.01825 7.43256 6.66508 7.99995 6.41745V6.15087C7.97933 5.61867 8.06512 5.08763 8.25239 4.58887C8.33378 4.37208 8.43363 4.16331 8.55054 3.96476L7.29289 2.70711C6.90237 2.31658 6.90237 1.68342 7.29289 1.29289ZM10.5118 4.65519C10.3443 4.84121 10.2129 5.05714 10.1248 5.29187C10.0397 5.51848 9.99646 5.75841 9.99695 6C9.99797 6 9.99899 6 10 6H14C14.001 6 14.002 6 14.0029 6C14.0034 5.75841 13.9602 5.51848 13.8751 5.29187C13.787 5.05701 13.6555 4.84098 13.4878 4.6549C13.462 4.63379 13.437 4.61119 13.4129 4.58711C13.3883 4.56255 13.3653 4.53704 13.3439 4.51069C13.1796 4.36202 12.9915 4.24141 12.7871 4.15407C12.5383 4.04774 12.2705 3.99292 11.9999 3.99292C11.7294 3.99292 11.4616 4.04774 11.2128 4.15407C11.0086 4.24134 10.8206 4.36183 10.6564 4.51035C10.6349 4.53682 10.6118 4.56245 10.5871 4.58711C10.5629 4.6113 10.5378 4.634 10.5118 4.65519ZM11.5152 11.1254C11.8332 10.9491 12.2217 10.9593 12.53 11.152L20.53 16.152C20.8224 16.3347 21 16.6552 21 17C21 17.3448 20.8224 17.6653 20.53 17.848L12.53 22.848C12.2217 23.0407 11.8332 23.0509 11.5152 22.8746C11.1973 22.6984 11 22.3635 11 22V12C11 11.6365 11.1973 11.3016 11.5152 11.1254ZM13 13.8042V20.1958L18.1132 17L13 13.8042Z" fill="black" style="fill:black;fill-opacity:1;"/>
</svg>
