<svg width="24" height="24" viewBox="0 0 24 24" fill="none" xmlns="http://www.w3.org/2000/svg">
<path fill-rule="evenodd" clip-rule="evenodd" d="M1.87868 5.87868C2.44129 5.31607 3.20435 5 4 5H18C19.5633 5 20.9373 6.11083 21.3578 7.51265L21.363 7.53037L22.4828 11.5299C22.5491 11.6541 22.59 11.794 22.5984 11.9426L22.763 12.5304C22.7655 12.5394 22.7679 12.5484 22.7701 12.5575C22.7735 12.5711 22.777 12.5848 22.7805 12.5988C22.8739 12.9717 23 13.4751 23 14C23 14.5249 22.8739 15.0283 22.7805 15.4012C22.777 15.4152 22.7735 15.4289 22.7701 15.4425L22.7648 15.4631C22.6127 16.0207 22.411 16.7266 22.2482 17.29C22.1666 17.5724 22.0945 17.8202 22.0427 17.9975L21.9595 18.2818C21.8343 18.7074 21.4436 19 21 19H18.8293C18.4175 20.1652 17.3062 21 16 21C14.6938 21 13.5825 20.1652 13.1707 19H9.82929C9.41746 20.1652 8.30622 21 7 21C5.69378 21 4.58254 20.1652 4.17071 19H2C1.44772 19 1 18.5523 1 18V8C1 7.20435 1.31607 6.44129 1.87868 5.87868ZM3 13V17H4.17071C4.58254 15.8348 5.69378 15 7 15C8.30622 15 9.41746 15.8348 9.82929 17H13.1707C13.5825 15.8348 14.6938 15 16 15C17.3062 15 18.4175 15.8348 18.8293 17H20.2501C20.2744 16.9162 20.3001 16.8275 20.3268 16.735C20.488 16.1769 20.6848 15.488 20.8324 14.9471C20.9368 14.5295 21 14.2533 21 14C21 13.7473 20.9371 13.4719 20.8332 13.056L20.8175 13H3ZM7 11H3V8C3 7.73478 3.10536 7.48043 3.29289 7.29289C3.48043 7.10536 3.73478 7 4 7H7V11ZM9 11H14V7H9V11ZM16 7V11H20.2575L19.4399 8.07983C19.2575 7.48508 18.634 7 18 7H16ZM7 17C6.44772 17 6 17.4477 6 18C6 18.5523 6.44772 19 7 19C7.55228 19 8 18.5523 8 18C8 17.4477 7.55228 17 7 17ZM16 17C15.4477 17 15 17.4477 15 18C15 18.5523 15.4477 19 16 19C16.5523 19 17 18.5523 17 18C17 17.4477 16.5523 17 16 17Z" fill="currentColor" style="fill="currentColor";fill-opacity:1;"/>
</svg>
