<svg width="24" height="24" viewBox="0 0 24 24" fill="none" xmlns="http://www.w3.org/2000/svg">
<path fill-rule="evenodd" clip-rule="evenodd" d="M3 2C3.55228 2 4 2.44772 4 3V4H6V3C6 2.44772 6.44772 2 7 2C7.55228 2 8 2.44772 8 3V4C8.55228 4 9 4.44772 9 5V7C9 7.79565 8.68393 8.55871 8.12132 9.12132C7.55871 9.68393 6.79565 10 6 10V17.5C6 18.163 6.26339 18.7989 6.73223 19.2678C7.20107 19.7366 7.83696 20 8.5 20C9.16304 20 9.79893 19.7366 10.2678 19.2678C10.7366 18.7989 11 18.163 11 17.5V6.5C11 5.30653 11.4741 4.16193 12.318 3.31802C13.1619 2.47411 14.3065 2 15.5 2C16.6935 2 17.8381 2.47411 18.682 3.31802C19.5259 4.16193 20 5.30653 20 6.5V14C20.7957 14 21.5587 14.3161 22.1213 14.8787C22.6839 15.4413 23 16.2043 23 17V19C23 19.5523 22.5523 20 22 20V21C22 21.5523 21.5523 22 21 22C20.4477 22 20 21.5523 20 21V20H18V21C18 21.5523 17.5523 22 17 22C16.4477 22 16 21.5523 16 21V20C15.4477 20 15 19.5523 15 19V17C15 16.2043 15.3161 15.4413 15.8787 14.8787C16.4413 14.3161 17.2043 14 18 14V6.5C18 5.83696 17.7366 5.20107 17.2678 4.73223C16.7989 4.26339 16.163 4 15.5 4C14.837 4 14.2011 4.26339 13.7322 4.73223C13.2634 5.20107 13 5.83696 13 6.5V17.5C13 18.6935 12.5259 19.8381 11.682 20.682C10.8381 21.5259 9.69347 22 8.5 22C7.30653 22 6.16193 21.5259 5.31802 20.682C4.47411 19.8381 4 18.6935 4 17.5V10C3.20435 10 2.44129 9.68393 1.87868 9.12132C1.31607 8.55871 1 7.79565 1 7V5C1 4.44772 1.44772 4 2 4V3C2 2.44772 2.44772 2 3 2ZM3 6V7C3 7.26522 3.10536 7.51957 3.29289 7.70711C3.48043 7.89464 3.73478 8 4 8H6C6.26522 8 6.51957 7.89464 6.70711 7.70711C6.89464 7.51957 7 7.26522 7 7V6H3ZM18 16C17.7348 16 17.4804 16.1054 17.2929 16.2929C17.1054 16.4804 17 16.7348 17 17V18H21V17C21 16.7348 20.8946 16.4804 20.7071 16.2929C20.5196 16.1054 20.2652 16 20 16H18Z" fill="currentColor" style="fill="currentColor";fill-opacity:1;"/>
</svg>
