<svg width="24" height="24" viewBox="0 0 24 24" fill="none" xmlns="http://www.w3.org/2000/svg">
<path fill-rule="evenodd" clip-rule="evenodd" d="M13 2C13 1.44772 13.4477 1 14 1H14.01C14.5623 1 15.01 1.44772 15.01 2C15.01 2.55228 14.5623 3 14.01 3H14C13.4477 3 13 2.55228 13 2ZM8.99999 3C8.99999 2.44772 9.44771 2 9.99999 2H10.01C10.5623 2 11.01 2.44772 11.01 3C11.01 3.55228 10.5623 4 10.01 4H9.99999C9.44771 4 8.99999 3.55228 8.99999 3ZM22.9701 3.75746C23.1041 4.29326 22.7783 4.83619 22.2425 4.97014L13 7.28078V11H17C19.2091 11 21 12.7909 21 15V19C21 21.2091 19.2091 23 17 23H6.99999C4.79085 23 2.99999 21.2091 2.99999 19V15C2.99999 12.7909 4.79085 11 6.99999 11H11V7.78078L2.24253 9.97014C1.70673 10.1041 1.1638 9.77833 1.02985 9.24254C0.895901 8.70674 1.22166 8.16381 1.75746 8.02986L11.7357 5.5353C11.7496 5.5315 11.7636 5.52799 11.7778 5.52478L21.7575 3.02986C22.2933 2.89591 22.8362 3.22167 22.9701 3.75746ZM9.99999 13V16H14V13H9.99999ZM16 13V16H19V15C19 13.8954 18.1046 13 17 13H16ZM19 18H4.99999V19C4.99999 20.1046 5.89542 21 6.99999 21H17C18.1046 21 19 20.1046 19 19V18ZM4.99999 16H7.99999V13H6.99999C5.89542 13 4.99999 13.8954 4.99999 15V16Z" fill="currentColor" style="fill="currentColor";fill-opacity:1;"/>
</svg>
