<svg width="24" height="24" viewBox="0 0 24 24" fill="none" xmlns="http://www.w3.org/2000/svg">
<path fill-rule="evenodd" clip-rule="evenodd" d="M13.4145 2.18933C13.7163 1.97135 14.1142 1.93908 14.4472 2.10558C16.5869 3.17544 18.4424 4.76882 19.7682 6.35982C20.4324 7.15689 20.9785 7.97095 21.3632 8.74029C21.7388 9.49156 22 10.2783 22 11V20C22 20.5273 21.8199 21.0443 21.4321 21.4321C21.0443 21.8199 20.5272 22 20 22H4C3.47275 22 2.95567 21.8199 2.56789 21.4321C2.18011 21.0443 2 20.5273 2 20V11C2 10.6825 2.15073 10.384 2.40615 10.1954L6.04332 7.51085C6.01484 7.34483 6 7.17415 6 7C6 5.34315 7.34315 4 9 4C9.51222 4 9.99446 4.12838 10.4163 4.3547L13.4145 2.18933ZM9.59986 6.19983C9.65838 6.27794 9.72623 6.3451 9.80073 6.40088C9.92587 6.56787 10 6.77528 10 7C10 7.55229 9.55228 8 9 8C8.44772 8 8 7.55229 8 7C8 6.44772 8.44772 6 9 6C9.22506 6 9.43275 6.07435 9.59986 6.19983ZM11.7694 5.84453L14.0816 4.17463C15.724 5.09426 17.1702 6.36625 18.2318 7.64019C18.8176 8.34312 19.2715 9.02906 19.5743 9.63472C19.8862 10.2585 20 10.7217 20 11V20H4V18H16C16.5523 18 17 17.5523 17 17C17 16.4477 16.5523 16 16 16H4V14H16C16.5523 14 17 13.5523 17 13C17 12.4477 16.5523 12 16 12H4V11.5048L7.03359 9.26573C7.56016 9.72313 8.24775 10 9 10C10.6569 10 12 8.65686 12 7C12 6.5905 11.918 6.20016 11.7694 5.84453Z" fill="currentColor" style="fill="currentColor";fill-opacity:1;"/>
</svg>
