<svg width="24" height="24" viewBox="0 0 24 24" fill="none" xmlns="http://www.w3.org/2000/svg">
<path fill-rule="evenodd" clip-rule="evenodd" d="M6 4C6 3.44772 6.44772 3 7 3H7.01C7.56228 3 8.01 3.44772 8.01 4C8.01 4.55228 7.56228 5 7.01 5H7C6.44772 5 6 4.55228 6 4ZM11 4C11 3.44772 11.4477 3 12 3H12.01C12.5623 3 13.01 3.44772 13.01 4C13.01 4.55228 12.5623 5 12.01 5H12C11.4477 5 11 4.55228 11 4ZM16 4C16 3.44772 16.4477 3 17 3H17.01C17.5623 3 18.01 3.44772 18.01 4C18.01 4.55228 17.5623 5 17.01 5H17C16.4477 5 16 4.55228 16 4ZM7 7C7.55228 7 8 7.44772 8 8V10H11V8C11 7.44772 11.4477 7 12 7C12.5523 7 13 7.44772 13 8V10H16V8C16 7.44772 16.4477 7 17 7C17.5523 7 18 7.44772 18 8V10C18.7957 10 19.5587 10.3161 20.1213 10.8787C20.6839 11.4413 21 12.2043 21 13V15.9799C21.0003 15.9938 21.0003 16.0077 21 16.0217V20H22C22.5523 20 23 20.4477 23 21C23 21.5523 22.5523 22 22 22H2C1.44772 22 1 21.5523 1 21C1 20.4477 1.44772 20 2 20H3V16.0201C2.99971 16.0062 2.99971 15.9923 3 15.9783V13C3 12.2044 3.31607 11.4413 3.87868 10.8787C4.44129 10.3161 5.20435 10 6 10V8C6 7.44772 6.44772 7 7 7ZM6 12C5.73478 12 5.48043 12.1054 5.29289 12.2929C5.10536 12.4804 5 12.7348 5 13V14.1262C5.29603 14.0472 5.62874 14 6 14C7.10915 14 7.98434 14.7041 8.54136 15.1522C8.56998 15.1752 8.59776 15.1976 8.62469 15.2191C9.32367 15.7783 9.66614 16 10 16C10.3339 16 10.6763 15.7783 11.3753 15.2191C11.4022 15.1976 11.43 15.1752 11.4586 15.1522C12.0157 14.7041 12.8909 14 14 14C15.1091 14 15.9843 14.7041 16.5414 15.1522C16.57 15.1752 16.5978 15.1976 16.6247 15.2191C17.3237 15.7783 17.6661 16 18 16C18.5071 16 18.7898 15.8375 18.9378 15.7191C18.9608 15.7007 18.9815 15.6826 19 15.6652V13C19 12.7348 18.8946 12.4804 18.7071 12.2929C18.5196 12.1054 18.2652 12 18 12H6ZM19 17.8738C18.704 17.9528 18.3713 18 18 18C16.8909 18 16.0157 17.2959 15.4586 16.8478C15.43 16.8248 15.4022 16.8024 15.3753 16.7809C14.6763 16.2217 14.3339 16 14 16C13.6661 16 13.3237 16.2217 12.6247 16.7809C12.5978 16.8024 12.57 16.8248 12.5414 16.8478C11.9843 17.2959 11.1091 18 10 18C8.89085 18 8.01566 17.2959 7.45864 16.8478C7.43002 16.8248 7.40224 16.8024 7.37531 16.7809C6.67633 16.2217 6.33386 16 6 16C5.49292 16 5.21017 16.1625 5.06219 16.2809C5.03919 16.2993 5.01849 16.3174 5 16.3348V20H19V17.8738Z" fill="black" style="fill:black;fill-opacity:1;"/>
</svg>
