<svg width="24" height="24" viewBox="0 0 24 24" fill="none" xmlns="http://www.w3.org/2000/svg">
<path fill-rule="evenodd" clip-rule="evenodd" d="M8 1C8.55228 1 9 1.44772 9 2V3H15V2C15 1.44772 15.4477 1 16 1C16.5523 1 17 1.44772 17 2V3H19C19.7957 3 20.5587 3.31607 21.1213 3.87868C21.6839 4.44129 22 5.20435 22 6V12C22 12.5523 21.5523 13 21 13C20.4477 13 20 12.5523 20 12V11H4V20C4 20.2652 4.10536 20.5196 4.29289 20.7071C4.48043 20.8946 4.73478 21 5 21H12.5C13.0523 21 13.5 21.4477 13.5 22C13.5 22.5523 13.0523 23 12.5 23H5C4.20435 23 3.44129 22.6839 2.87868 22.1213C2.31607 21.5587 2 20.7957 2 20V6C2 5.20435 2.31607 4.44129 2.87868 3.87868C3.44129 3.31607 4.20435 3 5 3H7V2C7 1.44772 7.44772 1 8 1ZM7 5H5C4.73478 5 4.48043 5.10536 4.29289 5.29289C4.10536 5.48043 4 5.73478 4 6V9H20V6C20 5.73478 19.8946 5.48043 19.7071 5.29289C19.5196 5.10536 19.2652 5 19 5H17V6C17 6.55228 16.5523 7 16 7C15.4477 7 15 6.55228 15 6V5H9V6C9 6.55228 8.55228 7 8 7C7.44772 7 7 6.55228 7 6V5ZM18 16C16.8954 16 16 16.8954 16 18C16 19.1046 16.8954 20 18 20C19.1046 20 20 19.1046 20 18C20 16.8954 19.1046 16 18 16ZM14 18C14 15.7909 15.7909 14 18 14C20.2091 14 22 15.7909 22 18C22 18.7418 21.7981 19.4365 21.4462 20.032L22.7071 21.2929C23.0976 21.6834 23.0976 22.3166 22.7071 22.7071C22.3166 23.0976 21.6834 23.0976 21.2929 22.7071L20.032 21.4462C19.4365 21.7981 18.7418 22 18 22C15.7909 22 14 20.2091 14 18Z" fill="currentColor" style="fill="currentColor";fill-opacity:1;"/>
</svg>
