<svg width="24" height="24" viewBox="0 0 24 24" fill="none" xmlns="http://www.w3.org/2000/svg">
<path fill-rule="evenodd" clip-rule="evenodd" d="M1.29289 1.29289C1.68342 0.902369 2.31658 0.902369 2.70711 1.29289L4.88994 3.47573C4.90175 3.48697 4.9133 3.49852 4.92459 3.51038L21.5096 20.0954C21.5215 20.1067 21.5331 20.1183 21.5443 20.1301L22.7071 21.2929C23.0976 21.6834 23.0976 22.3166 22.7071 22.7071C22.3166 23.0976 21.6834 23.0976 21.2929 22.7071L20.9022 22.3164C20.8149 22.3882 20.7233 22.4553 20.6279 22.5172C20.1437 22.8311 19.5792 22.9987 19.0021 22.9999L5 23C4.20435 23 3.44129 22.6839 2.87868 22.1213C2.31607 21.5587 2 20.7956 2 20V5.99995L2.00014 5.98338C2.00967 5.40811 2.18443 4.84772 2.50357 4.369C2.56341 4.27924 2.62786 4.19306 2.69655 4.11076L1.29289 2.70711C0.902369 2.31658 0.902369 1.68342 1.29289 1.29289ZM4.12832 5.54253C4.04808 5.68507 4.00385 5.84545 4 6.00966V9H7.58579L4.12832 5.54253ZM9.58579 11H4V20C4 20.2652 4.10536 20.5195 4.29289 20.7071C4.48043 20.8946 4.73478 21 5 21L18.9979 21C18.9977 21 18.9982 21 18.9979 21C19.1619 20.9995 19.3236 20.9587 19.4675 20.8817L9.58579 11ZM15 3V2C15 1.44772 15.4477 1 16 1C16.5523 1 17 1.44772 17 2V3H19C19.7957 3 20.5587 3.31607 21.1213 3.87868C21.6839 4.44129 22 5.20435 22 6V15.5C22 16.0523 21.5523 16.5 21 16.5C20.4477 16.5 20 16.0523 20 15.5V11H15.5C14.9477 11 14.5 10.5523 14.5 10C14.5 9.44772 14.9477 9 15.5 9H20V6C20 5.73478 19.8946 5.48043 19.7071 5.29289C19.5196 5.10536 19.2652 5 19 5H17V6C17 6.55228 16.5523 7 16 7C15.4477 7 15 6.55228 15 6V5H9.5C8.94772 5 8.5 4.55228 8.5 4C8.5 3.44772 8.94772 3 9.5 3H15Z" fill="currentColor" style="fill="currentColor";fill-opacity:1;"/>
</svg>
