<svg width="24" height="24" viewBox="0 0 24 24" fill="none" xmlns="http://www.w3.org/2000/svg">
<path fill-rule="evenodd" clip-rule="evenodd" d="M1.29289 1.29289C1.68342 0.902369 2.31658 0.902369 2.70711 1.29289L22.7071 21.2929C23.0976 21.6834 23.0976 22.3166 22.7071 22.7071C22.3166 23.0976 21.6834 23.0976 21.2929 22.7071L19.5858 21H4C3.20435 21 2.44129 20.6839 1.87868 20.1213C1.31607 19.5587 1 18.7957 1 18V9C1 8.20435 1.31607 7.44129 1.87868 6.87868C2.44129 6.31607 3.20435 6 4 6H4.58579L1.29289 2.70711C0.902369 2.31658 0.902369 1.68342 1.29289 1.29289ZM6.58579 8H4C3.73478 8 3.48043 8.10536 3.29289 8.29289C3.10536 8.48043 3 8.73478 3 9V18C3 18.2652 3.10536 18.5196 3.29289 18.7071C3.48043 18.8946 3.73478 19 4 19H17.5858L14.6178 16.032C14.3011 16.3172 13.9404 16.5504 13.5489 16.7222C13.0593 16.937 12.5316 17.0516 11.997 17.059C11.4624 17.0664 10.9318 16.9666 10.4364 16.7654C9.94104 16.5643 9.49103 16.2659 9.11298 15.8878C8.73492 15.5097 8.4365 15.0597 8.23533 14.5644C8.03417 14.069 7.93436 13.5383 7.94179 13.0038C7.94923 12.4692 8.06376 11.9415 8.27862 11.4519C8.45043 11.0604 8.6836 10.6997 8.96874 10.3829L6.58579 8ZM10.3868 11.8011C10.275 11.9393 10.1818 12.0921 10.11 12.2556C10.0026 12.5004 9.94532 12.7643 9.9416 13.0316C9.93788 13.2989 9.98779 13.5642 10.0884 13.8119C10.189 14.0596 10.3382 14.2846 10.5272 14.4736C10.7162 14.6626 10.9412 14.8118 11.1889 14.9124C11.4366 15.013 11.7019 15.0629 11.9692 15.0592C12.2365 15.0555 12.5004 14.9982 12.7451 14.8908C12.9087 14.819 13.0615 14.7258 13.1997 14.6139L10.3868 11.8011ZM8.5 4C8.5 3.44772 8.94772 3 9.5 3H14.5C14.7968 3 15.0782 3.13182 15.2682 3.35982L17.4684 6H20C20.7957 6 21.5587 6.31607 22.1213 6.87868C22.6839 7.44129 23 8.20435 23 9V16.5C23 17.0523 22.5523 17.5 22 17.5C21.4477 17.5 21 17.0523 21 16.5V9C21 8.73478 20.8946 8.48043 20.7071 8.29289C20.5196 8.10536 20.2652 8 20 8H17C16.7032 8 16.4218 7.86818 16.2318 7.64018L14.0316 5H9.5C8.94772 5 8.5 4.55228 8.5 4Z" fill="currentColor" style="fill="currentColor";fill-opacity:1;"/>
</svg>
