<svg width="24" height="24" viewBox="0 0 24 24" fill="none" xmlns="http://www.w3.org/2000/svg">
<path fill-rule="evenodd" clip-rule="evenodd" d="M16.5593 1.10233C16.8387 0.965212 17.1659 0.965929 17.4446 1.10427L18.8194 1.78667C19.0938 1.92471 19.3963 1.99771 19.7034 2H21C21.5523 2 22 2.44772 22 3V4.3C22 4.61737 22.0691 4.91108 22.2012 5.15718C22.2062 5.16651 22.211 5.17592 22.2157 5.1854L22.8957 6.5554C23.0341 6.83412 23.0348 7.16135 22.8977 7.44066C22.7606 7.71998 22.5012 7.91956 22.1961 7.98058L18.5422 8.71137C18.8387 9.43588 18.9892 10.2118 18.9853 10.9947C18.9813 11.7811 18.8215 12.5589 18.515 13.2832C18.2093 14.0058 17.7636 14.6609 17.2037 15.2106L15.2106 17.2037C14.6609 17.7636 14.0058 18.2093 13.2832 18.515C12.5589 18.8215 11.7811 18.9813 10.9947 18.9853C10.2118 18.9892 9.43588 18.8387 8.71137 18.5422L7.98058 22.1961C7.91956 22.5012 7.71998 22.7606 7.44066 22.8977C7.16135 23.0348 6.83412 23.0341 6.5554 22.8957L5.1854 22.2157L5.18057 22.2133C4.90622 22.0753 4.60378 22.0023 4.29671 22H3C2.44772 22 2 21.5523 2 21V19.7034C1.99771 19.3963 1.92472 19.0938 1.78669 18.8194L1.78426 18.8146L1.10427 17.4446C0.965929 17.1659 0.965212 16.8387 1.10233 16.5593C1.23944 16.28 1.49877 16.0804 1.80388 16.0194L5.45781 15.2886C5.16136 14.5641 5.01077 13.7882 5.01472 13.0053C5.0187 12.2189 5.17853 11.4411 5.48497 10.7168C5.79074 9.99416 6.23642 9.33914 6.79634 8.78946L8.78946 6.79634C9.33914 6.23642 9.99416 5.79074 10.7168 5.48497C11.4411 5.17853 12.2189 5.0187 13.0053 5.01472C13.7882 5.01077 14.5641 5.16136 15.2886 5.45781L16.0194 1.80388C16.0804 1.49877 16.28 1.23944 16.5593 1.10233ZM17.3838 6.90343C17.3376 6.85398 17.2906 6.80528 17.2426 6.75736C17.1947 6.70944 17.146 6.66238 17.0966 6.61619L17.7246 3.47606L17.9206 3.57331C17.9214 3.57375 17.9223 3.57419 17.9232 3.57463C18.4729 3.85067 19.0788 3.99623 19.6939 3.99998L20 4V4.3C20 4.89732 20.1286 5.51789 20.4307 6.08765L20.5239 6.27541L17.3838 6.90343ZM13 7.01481C12.4832 7.01943 11.9722 7.12544 11.4962 7.32688C11.3247 7.39945 11.1589 7.48388 11 7.57941V16.9852C11.5168 16.9806 12.0278 16.8746 12.5039 16.6731C12.6754 16.6006 12.8411 16.5161 13 16.4206V7.01481ZM15 14.5858V7.53789C15.3023 7.7112 15.581 7.92412 15.8284 8.17158C16.1976 8.54074 16.4899 8.97943 16.6885 9.46227C16.8871 9.94511 16.9879 10.4625 16.9853 10.9846C16.9827 11.5067 16.8766 12.023 16.6731 12.5039C16.4697 12.9847 16.173 13.4204 15.8001 13.7858L15 14.5858ZM9 16.4621V9.41422L8.19997 10.2143C7.82709 10.5797 7.53032 11.0153 7.32688 11.4962C7.12344 11.977 7.01734 12.4933 7.0147 13.0154C7.01206 13.5375 7.11295 14.0549 7.31152 14.5377C7.51009 15.0206 7.80241 15.4593 8.17158 15.8284C8.41903 16.0759 8.69772 16.2888 9 16.4621ZM6.61619 17.0966L3.47606 17.7246L3.57331 17.9206C3.57375 17.9214 3.57419 17.9223 3.57463 17.9232C3.85067 18.4729 3.99623 19.0788 3.99998 19.6939L4.00002 19.7L4 20H4.3061C4.92117 20.0038 5.52709 20.1493 6.07674 20.4253C6.07764 20.4258 6.07853 20.4262 6.07943 20.4267L6.27541 20.5239L6.90343 17.3838C6.85398 17.3376 6.80528 17.2906 6.75736 17.2426C6.70944 17.1947 6.66238 17.146 6.61619 17.0966Z" fill="currentColor" style="fill="currentColor";fill-opacity:1;"/>
</svg>
