<svg width="24" height="24" viewBox="0 0 24 24" fill="none" xmlns="http://www.w3.org/2000/svg">
<path fill-rule="evenodd" clip-rule="evenodd" d="M8.41032 4.00004H15.6558C16.2621 4.00596 16.8524 4.19551 17.3488 4.54362C17.8411 4.88881 18.2182 5.37389 18.4314 5.93583L19.3598 8.22598L20.2929 7.29293C20.6834 6.90241 21.3166 6.90241 21.7071 7.29293C22.0976 7.68346 22.0976 8.31662 21.7071 8.70715L20.8082 9.60602C21.5322 10.1537 22 11.0222 22 12V16C22 17.3062 21.1652 18.4175 20 18.8293V20C20 20.5523 19.5523 21 19 21C18.4477 21 18 20.5523 18 20V19H6V20C6 20.5523 5.55228 21 5 21C4.44772 21 4 20.5523 4 20V18.8293C2.83481 18.4175 2 17.3062 2 16V12C2 11.0222 2.46779 10.1537 3.19176 9.60602L2.29289 8.70715C1.90237 8.31662 1.90237 7.68346 2.29289 7.29293C2.68342 6.90241 3.31658 6.90241 3.70711 7.29293L4.6347 8.22052L5.56846 5.8858C5.56845 5.88584 5.56848 5.88577 5.56846 5.8858C5.79544 5.31814 6.19049 4.83326 6.70062 4.4963C7.20726 4.16165 7.80343 3.98866 8.41032 4.00004ZM6.47696 9.00004L7.42549 6.62839C7.50115 6.43915 7.63287 6.27743 7.80292 6.16511C7.97298 6.05278 8.17329 5.9951 8.37704 5.99978L8.4 6.00004H15.6403C15.841 6.00281 16.0362 6.06591 16.2006 6.18117C16.3661 6.2972 16.4925 6.46066 16.5632 6.64999C16.5665 6.65862 16.5698 6.66721 16.5733 6.67574L17.5155 9.00004H6.47696ZM5 11C4.44769 11 4 11.4477 4 12V16C4 16.5523 4.44772 17 5 17H19C19.5523 17 20 16.5523 20 16V12C20 11.4477 19.5523 11 19 11H5ZM6 14C6 13.4477 6.44772 13 7 13H7.01C7.56228 13 8.01 13.4477 8.01 14C8.01 14.5523 7.56228 15 7.01 15H7C6.44772 15 6 14.5523 6 14ZM16 14C16 13.4477 16.4477 13 17 13H17.01C17.5623 13 18.01 13.4477 18.01 14C18.01 14.5523 17.5623 15 17.01 15H17C16.4477 15 16 14.5523 16 14Z" fill="black" style="fill:black;fill-opacity:1;"/>
</svg>
