<svg width="24" height="24" viewBox="0 0 24 24" fill="none" xmlns="http://www.w3.org/2000/svg">
<path fill-rule="evenodd" clip-rule="evenodd" d="M2.46447 5.46447C3.40215 4.52678 4.67392 4 6 4H14C15.3261 4 16.5979 4.52678 17.5355 5.46447C18.4732 6.40215 19 7.67392 19 9V18H21V17C21 16.4477 21.4477 16 22 16C22.5523 16 23 16.4477 23 17V19C23 19.5523 22.5523 20 22 20H10.8293C10.4175 21.1652 9.30622 22 8 22C6.69378 22 5.58254 21.1652 5.17071 20H4C3.20435 20 2.44129 19.6839 1.87868 19.1213C1.31607 18.5587 1 17.7956 1 17V9C1 7.67392 1.52678 6.40215 2.46447 5.46447ZM3 14V17C3 17.2652 3.10536 17.5196 3.29289 17.7071C3.48043 17.8946 3.73478 18 4 18H5.17071C5.58254 16.8348 6.69378 16 8 16C8.35064 16 8.68722 16.0602 9 16.1707V9C9 8.44772 9.44772 8 10 8H14C14.5523 8 15 8.44772 15 9V18H17V9C17 8.20435 16.6839 7.44129 16.1213 6.87868C15.5587 6.31607 14.7956 6 14 6H6C5.20435 6 4.44129 6.31607 3.87868 6.87868C3.55927 7.19808 3.31933 7.5821 3.17157 8H6C6.55228 8 7 8.44772 7 9V13C7 13.5523 6.55228 14 6 14H3ZM13 18V10H11V18H13ZM9 19C9 18.4477 8.55228 18 8 18C7.44772 18 7 18.4477 7 19C7 19.5523 7.44772 20 8 20C8.55228 20 9 19.5523 9 19ZM5 10H3V12H5V10Z" fill="currentColor" style="fill="currentColor";fill-opacity:1;"/>
</svg>
