<svg width="24" height="24" viewBox="0 0 24 24" fill="none" xmlns="http://www.w3.org/2000/svg">
<path fill-rule="evenodd" clip-rule="evenodd" d="M9.71893 7.07133C10.3865 6.79542 11.1019 6.6537 11.8243 6.65427C12.5467 6.65484 13.2618 6.79768 13.929 7.07464C14.5962 7.3516 15.2022 7.75726 15.7126 8.26845C16.223 8.77964 16.6277 9.38636 16.9036 10.054C17.1796 10.7216 17.3213 11.437 17.3207 12.1593C17.3201 12.8817 17.1773 13.5969 16.9003 14.264C16.7301 14.6741 16.5113 15.061 16.2493 15.4168C16.2011 15.522 16.1337 15.6205 16.0471 15.7071C16.0127 15.7415 15.9765 15.7728 15.9387 15.8011C15.864 15.8855 15.7865 15.9678 15.7065 16.0477C14.8873 16.8667 13.6311 17.6767 12.2864 18.4165C10.9221 19.167 9.38996 19.8862 7.96236 20.5091C6.53254 21.1329 5.19502 21.6654 4.21561 22.0419C3.72553 22.2302 3.32423 22.3798 3.04477 22.4826C2.90502 22.534 2.79568 22.5737 2.72089 22.6006L2.6351 22.6315L2.6126 22.6395L2.60495 22.6422C2.6048 22.6423 2.60419 22.6425 2.26997 21.7C1.32758 21.3655 1.32763 21.3654 1.32768 21.3652L1.33057 21.3571L1.33861 21.3346L1.36944 21.2489C1.39643 21.1741 1.43613 21.0649 1.48753 20.9253C1.59031 20.6461 1.73997 20.2451 1.92841 19.7554C2.30501 18.7767 2.83791 17.4401 3.46237 16.0109C4.08586 14.5839 4.80606 13.052 5.55804 11.6873C6.29956 10.3415 7.11152 9.08425 7.93287 8.2629C8.44406 7.75251 9.05133 7.34725 9.71893 7.07133ZM2.26997 21.7L1.32768 21.3652C1.19866 21.7287 1.29007 22.1342 1.56275 22.407C1.83544 22.6798 2.24144 22.7711 2.60495 22.6422L2.26997 21.7ZM3.9839 19.9868C4.87891 19.6371 5.99023 19.1874 7.16259 18.6759C8.55999 18.0663 10.0316 17.3743 11.3223 16.6642C12.3888 16.0774 13.2829 15.5045 13.908 14.9822L12.1729 13.2471C11.7823 12.8566 11.7823 12.2234 12.1729 11.8329C12.5634 11.4424 13.1966 11.4424 13.5871 11.8329L15.1088 13.3546C15.2485 12.9714 15.3204 12.5664 15.3207 12.1578C15.3211 11.698 15.2309 11.2427 15.0553 10.8179C14.8797 10.393 14.6221 10.0069 14.2973 9.68155C13.9725 9.35623 13.5868 9.09806 13.1622 8.9218C12.7376 8.74554 12.2824 8.65463 11.8227 8.65427C11.363 8.65391 10.9077 8.7441 10.4828 8.91969C10.0581 9.09526 9.67199 9.35276 9.3467 9.67749C9.34664 9.67755 9.34676 9.67743 9.3467 9.67749M7.81679 11.7701C8.35789 10.8705 8.87808 10.1463 9.3467 9.67749L7.81679 11.7701ZM6.8112 13.5909C6.27661 14.6322 5.76168 15.7437 5.29508 16.8116C4.78338 17.9828 4.33362 19.0927 3.9839 19.9868M6.8112 13.5909L7.9346 14.7088C8.32608 15.0984 8.95924 15.0969 9.34881 14.7054C9.73838 14.3139 9.73683 13.6807 9.34535 13.2912L7.81679 11.7701" fill="currentColor" style="fill="currentColor";fill-opacity:1;"/>
<path fill-rule="evenodd" clip-rule="evenodd" d="M15.5369 7.19857C16.231 6.68057 17.333 6 18.5 6C19.9022 6 20.9964 6.64581 21.7016 7.22982C22.0586 7.52552 22.3342 7.81987 22.5218 8.0417C22.6161 8.15322 22.6896 8.24808 22.7415 8.31792C22.7675 8.35289 22.7881 8.38174 22.8033 8.40344L22.8221 8.43054L22.8284 8.43987L22.8308 8.44344L22.8318 8.44494C22.832 8.44526 22.8327 8.44626 22 9C22.8327 9.55374 22.8325 9.55405 22.8323 9.55437L22.8308 9.55656L22.8284 9.56013L22.8221 9.56946L22.8033 9.59656C22.7881 9.61826 22.7675 9.64711 22.7415 9.68208C22.6896 9.75192 22.6161 9.84678 22.5218 9.9583C22.3342 10.1801 22.0586 10.4745 21.7016 10.7702C20.9964 11.3542 19.9022 12 18.5 12C17.0978 12 16.0036 11.3542 15.2984 10.7702C14.9414 10.4745 14.6658 10.1801 14.4782 9.9583C14.3839 9.84678 14.3104 9.75192 14.2585 9.68208C14.2325 9.64711 14.2119 9.61826 14.1967 9.59656L14.1779 9.56946L14.1716 9.56013L14.1692 9.55656L14.1682 9.55506C14.168 9.55474 14.1673 9.55374 15 9C14.2677 8.31899 14.2679 8.31882 14.268 8.31865L14.2693 8.31736L14.2715 8.31499L14.2779 8.30811L14.2989 8.28601C14.3165 8.26771 14.341 8.24238 14.372 8.21103C14.4339 8.1484 14.522 8.06134 14.6323 7.95796C14.8517 7.75228 15.1644 7.47654 15.5369 7.19857ZM15 9L14.268 8.31865C13.953 8.65745 13.9111 9.16848 14.1673 9.55374L15 9ZM16.3922 9.0706C16.449 9.12313 16.5097 9.17652 16.5741 9.22982C17.0764 9.64581 17.7322 10 18.5 10C19.2678 10 19.9236 9.64581 20.4259 9.22982C20.5194 9.15243 20.6051 9.07485 20.6825 9C20.6051 8.92515 20.5194 8.84757 20.4259 8.77018C19.9236 8.35419 19.2678 8 18.5 8C18.027 8 17.379 8.31943 16.7331 8.80143C16.6116 8.89208 16.4973 8.9831 16.3922 9.0706ZM22 9L22.8323 9.55437C23.0554 9.21892 23.0558 8.78172 22.8327 8.44626L22 9Z" fill="currentColor" style="fill="currentColor";fill-opacity:1;"/>
<path fill-rule="evenodd" clip-rule="evenodd" d="M15.5537 1.16731L15 2L14.4463 1.16731C14.7817 0.94423 15.2183 0.94423 15.5537 1.16731ZM15 9C14.4463 9.83269 14.4459 9.83248 14.4456 9.83227L14.4434 9.83081L14.4399 9.82841L14.4305 9.82208L14.4034 9.80332C14.3817 9.78811 14.3529 9.76746 14.3179 9.74149C14.2481 9.68963 14.1532 9.61611 14.0417 9.52179C13.8199 9.33416 13.5255 9.05864 13.2298 8.70158C12.6458 7.99639 12 6.9022 12 5.5C12 4.0978 12.6458 3.00361 13.2298 2.29842C13.5255 1.94136 13.8199 1.66584 14.0417 1.47821C14.1532 1.38389 14.2481 1.31037 14.3179 1.25851C14.3529 1.23254 14.3817 1.2119 14.4034 1.19668L14.4305 1.17792L14.4399 1.17159L14.4434 1.16919L14.4449 1.16819C14.4453 1.16797 14.4463 1.16731 15 2C15.5537 1.16731 15.5534 1.1671 15.5537 1.16731L15.5551 1.16819L15.5566 1.16919L15.5601 1.17159L15.5695 1.17792L15.5966 1.19668C15.6183 1.2119 15.6471 1.23254 15.6821 1.25851C15.7519 1.31037 15.8468 1.38389 15.9583 1.47821C16.1801 1.66584 16.4745 1.94136 16.7702 2.29842C17.3542 3.00361 18 4.0978 18 5.5C18 6.6761 17.3208 7.77726 16.8004 8.47202C16.5218 8.84387 16.2455 9.15518 16.0394 9.37335C15.9357 9.48302 15.8484 9.57063 15.7856 9.63216C15.7542 9.66297 15.7287 9.68734 15.7103 9.70478L15.6881 9.72571L15.6811 9.73218L15.6787 9.7344L15.6778 9.73525C15.6776 9.73541 15.6771 9.73593 15 9ZM15 9L14.4456 9.83227C14.8292 10.0873 15.338 10.0478 15.6771 9.73593L15 9ZM14.9319 7.61052C15.019 7.50654 15.1095 7.39334 15.1996 7.27298C15.6792 6.63274 16 5.9839 16 5.5C16 4.7322 15.6458 4.07639 15.2298 3.57408C15.1524 3.48063 15.0749 3.39495 15 3.31751C14.9251 3.39495 14.8476 3.48063 14.7702 3.57408C14.3542 4.07639 14 4.7322 14 5.5C14 6.2678 14.3542 6.92361 14.7702 7.42592C14.8243 7.49131 14.8786 7.5529 14.9319 7.61052Z" fill="currentColor" style="fill="currentColor";fill-opacity:1;"/>
</svg>
