<svg width="24" height="24" viewBox="0 0 24 24" fill="none" xmlns="http://www.w3.org/2000/svg">
<path fill-rule="evenodd" clip-rule="evenodd" d="M6.99997 6C7.37875 6 7.72501 6.214 7.8944 6.55279L10.8854 12.5348C10.8919 12.5471 10.8981 12.5596 10.9041 12.5722L11.8944 14.5528C12.1414 15.0468 11.9412 15.6474 11.4472 15.8944C10.9532 16.1414 10.3525 15.9412 10.1055 15.4472L9.38194 14H4.61801L3.8944 15.4472C3.64741 15.9412 3.04674 16.1414 2.55276 15.8944C2.05878 15.6474 1.85856 15.0468 2.10555 14.5528L3.09586 12.5722C3.10183 12.5596 3.10806 12.5471 3.11454 12.5348L6.10555 6.55279C6.27494 6.214 6.6212 6 6.99997 6ZM5.61801 12H8.38194L6.99997 9.23607L5.61801 12ZM18 10C16.8954 10 16 10.8954 16 12C16 13.1046 16.8954 14 18 14C19.1045 14 20 13.1046 20 12C20 10.8954 19.1045 10 18 10ZM20.0886 8.58791C19.4806 8.215 18.7654 8 18 8C15.7908 8 14 9.79086 14 12C14 14.2091 15.7908 16 18 16C18.7654 16 19.4806 15.785 20.0886 15.4121C20.2456 15.7588 20.5946 16 21 16C21.5523 16 22 15.5523 22 15V9C22 8.44772 21.5523 8 21 8C20.5946 8 20.2456 8.2412 20.0886 8.58791Z" fill="currentColor" style="fill="currentColor";fill-opacity:1;"/>
</svg>
