<svg width="24" height="24" viewBox="0 0 24 24" fill="none" xmlns="http://www.w3.org/2000/svg">
<path fill-rule="evenodd" clip-rule="evenodd" d="M14 6C14.5523 6 15 6.44772 15 7V8.53513C15.5883 8.19479 16.2714 8 17 8C19.2091 8 21 9.79086 21 12C21 14.2091 19.2091 16 17 16C16.2346 16 15.5193 15.785 14.9114 15.4121C14.7544 15.7588 14.4054 16 14 16C13.4477 16 13 15.5523 13 15V7C13 6.44772 13.4477 6 14 6ZM15 12C15 13.1046 15.8954 14 17 14C18.1046 14 19 13.1046 19 12C19 10.8954 18.1046 10 17 10C15.8954 10 15 10.8954 15 12ZM7 10C5.89543 10 5 10.8954 5 12C5 13.1046 5.89543 14 7 14C8.10457 14 9 13.1046 9 12C9 10.8954 8.10457 10 7 10ZM9.08859 8.58791C8.48067 8.215 7.76544 8 7 8C4.79086 8 3 9.79086 3 12C3 14.2091 4.79086 16 7 16C7.76544 16 8.48067 15.785 9.08859 15.4121C9.2456 15.7588 9.59463 16 10 16C10.5523 16 11 15.5523 11 15V9C11 8.44772 10.5523 8 10 8C9.59463 8 9.2456 8.2412 9.08859 8.58791Z" fill="currentColor" style="fill="currentColor";fill-opacity:1;"/>
</svg>
