<svg width="24" height="24" viewBox="0 0 24 24" fill="none" xmlns="http://www.w3.org/2000/svg">
<path fill-rule="evenodd" clip-rule="evenodd" d="M4.00006 5C3.73484 5 3.48049 5.10536 3.29295 5.29289C3.10541 5.48043 3.00006 5.73478 3.00006 6V8C3.00006 8.55228 2.55234 9 2.00006 9C1.44777 9 1.00006 8.55228 1.00006 8V6C1.00006 5.20435 1.31613 4.44129 1.87874 3.87868C2.44134 3.31607 3.20441 3 4.00006 3H20.0001C20.7957 3 21.5588 3.31607 22.1214 3.87868C22.684 4.44129 23.0001 5.20435 23.0001 6V18C23.0001 18.7957 22.684 19.5587 22.1214 20.1213C21.5588 20.6839 20.7957 21 20.0001 21H14.0001C13.4478 21 13.0001 20.5523 13.0001 20C13.0001 19.4477 13.4478 19 14.0001 19H20.0001C20.2653 19 20.5196 18.8946 20.7072 18.7071C20.8947 18.5196 21.0001 18.2652 21.0001 18V6C21.0001 5.73478 20.8947 5.48043 20.7072 5.29289C20.5196 5.10536 20.2653 5 20.0001 5H4.00006ZM1.00564 11.8945C1.06392 11.3453 1.55638 10.9473 2.10558 11.0056C4.38045 11.247 6.50377 12.2611 8.12138 13.8787C9.73898 15.4963 10.7531 17.6196 10.9945 19.8945C11.0528 20.4437 10.6548 20.9361 10.1056 20.9944C9.55638 21.0527 9.06392 20.6547 9.00564 20.1055C8.81251 18.2856 8.00125 16.587 6.70716 15.2929C5.41308 13.9988 3.71442 13.1875 1.89453 12.9944C1.34533 12.9361 0.947359 12.4437 1.00564 11.8945ZM1.01696 15.8169C1.11808 15.274 1.6402 14.9158 2.18315 15.0169C3.37434 15.2388 4.47044 15.8161 5.32722 16.6728C6.184 17.5296 6.7613 18.6257 6.98315 19.8169C7.08427 20.3599 6.7261 20.882 6.18315 20.9831C5.6402 21.0842 5.11808 20.726 5.01696 20.1831C4.86906 19.389 4.48419 18.6582 3.91301 18.087C3.34182 17.5159 2.61108 17.131 1.81696 16.9831C1.27401 16.882 0.91584 16.3599 1.01696 15.8169ZM1.00006 20C1.00006 19.4477 1.44777 19 2.00006 19H2.01006C2.56234 19 3.01006 19.4477 3.01006 20C3.01006 20.5523 2.56234 21 2.01006 21H2.00006C1.44777 21 1.00006 20.5523 1.00006 20Z" fill="currentColor" style="fill="currentColor";fill-opacity:1;"/>
</svg>
