<svg width="24" height="24" viewBox="0 0 24 24" fill="none" xmlns="http://www.w3.org/2000/svg">
<path fill-rule="evenodd" clip-rule="evenodd" d="M4.04451 3.87288C4.01985 3.97544 3.99756 4.13582 3.99142 4.3652C3.97589 4.94588 4.06748 5.72326 4.21332 6.54219C4.35694 7.34862 4.54356 8.14383 4.69558 8.74122C4.77132 9.03886 4.83787 9.28501 4.88524 9.45596C4.90892 9.54138 4.92777 9.6079 4.94055 9.65253L4.95499 9.70264L4.95849 9.71466L4.95926 9.71729C5.02914 9.95477 5.00858 10.2102 4.90132 10.4333C4.40106 11.4738 4.00006 12.4401 4.00006 13.44C4.00006 17.2616 7.37573 20 12.0001 20C16.6148 20 20.0001 17.1694 20.0001 13.44C20.0001 12.4723 19.6506 11.471 19.1175 10.4702C18.996 10.2422 18.9675 9.97598 19.0379 9.72741M21.0664 9.8876C21.1121 9.7139 21.17 9.48804 21.2342 9.2244C21.3863 8.59976 21.576 7.7535 21.7214 6.88216C21.8648 6.0233 21.9745 5.08654 21.9443 4.30008C21.9294 3.91062 21.8785 3.49513 21.7435 3.12487C21.6102 2.75922 21.3411 2.30019 20.8051 2.07714C20.2684 1.85316 19.6387 1.79571 19.0271 1.82866C18.4017 1.86234 17.7247 1.99428 17.051 2.21026C15.8874 2.58331 14.6565 3.23255 13.6744 4.1614C13.1237 4.05547 12.56 4.00002 12.0001 4.00002L11.9971 4.00003C11.4404 4.00165 10.8851 4.04958 10.3369 4.14316C9.34335 3.20458 8.08404 2.55856 6.89927 2.19216C6.21589 1.98083 5.53024 1.85385 4.89958 1.82366C4.28356 1.79418 3.65045 1.85371 3.11498 2.07714C2.5745 2.30266 2.30844 2.7682 2.17922 3.13524C2.04847 3.50659 2.00255 3.92259 1.99214 4.31172C1.97111 5.09791 2.0914 6.03428 2.2443 6.89286C2.39944 7.76392 2.59844 8.60996 2.75736 9.23445C2.82609 9.50454 2.88778 9.73497 2.93588 9.91027C2.47776 10.8935 2.00006 12.1004 2.00006 13.44C2.00006 18.7384 6.68439 22 12.0001 22C17.3253 22 22.0001 18.6306 22.0001 13.44C22.0001 12.155 21.5891 10.9454 21.0664 9.8876ZM19.0379 9.72741L19.0388 9.72435L19.0422 9.71235L19.0561 9.66227C19.0683 9.61767 19.0865 9.55119 19.1092 9.46579C19.1547 9.29491 19.2185 9.04882 19.2909 8.75127C19.4364 8.15403 19.6141 7.35905 19.7487 6.55288C19.8854 5.73425 19.9681 4.95726 19.9458 4.37684C19.9367 4.14116 19.9114 3.97795 19.8845 3.87516C19.7133 3.83373 19.4643 3.80801 19.1346 3.82576C18.704 3.84896 18.1966 3.94326 17.6616 4.11479C16.5811 4.46115 15.4919 5.08791 14.7471 5.92485C14.4971 6.20569 14.1108 6.32261 13.747 6.22748C13.1775 6.07854 12.583 6.00015 12.0015 6.00002C11.4033 6.00188 10.8072 6.07049 10.2242 6.20458C9.86823 6.28646 9.49592 6.16772 9.25307 5.89485C8.51393 5.06436 7.41113 4.44392 6.30836 4.10288C5.76298 3.93422 5.24427 3.84245 4.80398 3.82138C4.47084 3.80544 4.21843 3.83159 4.04451 3.87288M20.0373 3.92388C20.0365 3.92355 20.0358 3.92323 20.035 3.9229L20.0373 3.92388ZM7.99999 13C8.55227 13 8.99999 13.4477 8.99999 14V14.5C8.99999 15.0523 8.55227 15.5 7.99999 15.5C7.4477 15.5 6.99999 15.0523 6.99999 14.5V14C6.99999 13.4477 7.4477 13 7.99999 13ZM16 13C16.5523 13 17 13.4477 17 14V14.5C17 15.0523 16.5523 15.5 16 15.5C15.4477 15.5 15 15.0523 15 14.5V14C15 13.4477 15.4477 13 16 13ZM10.3261 15.8673C10.4809 15.4936 10.8455 15.25 11.25 15.25H12.75C13.1544 15.25 13.5191 15.4936 13.6739 15.8673C13.8286 16.241 13.7431 16.6711 13.4571 16.9571L12.7071 17.7071C12.3166 18.0976 11.6834 18.0976 11.2929 17.7071L10.5429 16.9571C10.2569 16.6711 10.1713 16.241 10.3261 15.8673Z" fill="currentColor" style="fill="currentColor";fill-opacity:1;"/>
</svg>
