<svg width="24" height="24" viewBox="0 0 24 24" fill="none" xmlns="http://www.w3.org/2000/svg">
<path fill-rule="evenodd" clip-rule="evenodd" d="M12 3.99097C11.4738 3.99097 10.9528 4.09477 10.4669 4.29642C9.98125 4.49793 9.54011 4.79322 9.1687 5.16538C8.81405 5.52279 8.52809 5.94233 8.32507 6.40311C8.1441 6.81383 7.71164 7.05367 7.2674 6.98969C6.49748 6.8788 5.71459 7.0713 5.08387 7.52658C4.45316 7.98186 4.02394 8.66432 3.88676 9.42999C3.74958 10.1957 3.91516 10.9847 4.34859 11.6306C4.78201 12.2766 5.44937 12.7289 6.2099 12.8922C6.67077 12.9912 6.99996 13.3985 6.99996 13.8699V16H17V13.8699C17 13.3985 17.3291 12.9912 17.79 12.8922C18.5505 12.7289 19.2179 12.2766 19.6513 11.6306C20.0847 10.9847 20.2503 10.1957 20.1132 9.42999C19.976 8.66432 19.5468 7.98186 18.916 7.52658C18.2853 7.0713 17.5024 6.8788 16.7325 6.98969C16.2883 7.05367 15.8558 6.81383 15.6748 6.40311C15.4718 5.9423 15.1858 5.52273 14.8311 5.1653C14.4597 4.79318 14.0186 4.49792 13.533 4.29642C13.0471 4.09477 12.5261 3.99097 12 3.99097ZM19 17.0099C19 17.0066 19 17.0033 19 17C19 16.9967 19 16.9934 19 16.9901V14.6083C19.9356 14.238 20.7443 13.5912 21.3121 12.745C22.0345 11.6685 22.3104 10.3534 22.0818 9.07729C21.8532 7.80116 21.1378 6.66373 20.0866 5.90493C19.2349 5.29009 18.2166 4.96281 17.1782 4.95907C16.9205 4.52153 16.6087 4.11701 16.2496 3.75533L16.248 3.75369C15.6906 3.19493 15.0285 2.75162 14.2996 2.44914C13.5706 2.14666 12.7892 1.99097 12 1.99097C11.2107 1.99097 10.4293 2.14666 9.70035 2.44914C8.97141 2.75162 8.3093 3.19493 7.75196 3.75369L7.75033 3.75533C7.39122 4.11701 7.07945 4.52153 6.8217 4.95907C5.78333 4.96281 4.76505 5.29009 3.91329 5.90493C2.8621 6.66373 2.14674 7.80116 1.91811 9.07729C1.68947 10.3534 1.96545 11.6685 2.68782 12.745C3.25561 13.5912 4.06431 14.238 4.99996 14.6083V20.9999C4.99996 21.5522 5.44767 21.9999 5.99996 21.9999H18C18.5522 21.9999 19 21.5522 19 20.9999V17.0099ZM17 18H6.99996V19.9999H17V18Z" fill="currentColor" style="fill="currentColor";fill-opacity:1;"/>
</svg>
