<svg width="24" height="24" viewBox="0 0 24 24" fill="none" xmlns="http://www.w3.org/2000/svg">
<path fill-rule="evenodd" clip-rule="evenodd" d="M11.023 1.78657C11.1234 1.32736 11.53 1 12 1C15.1294 1 17.8462 2.27754 19.7738 3.85171C20.739 4.63994 21.5274 5.5192 22.082 6.38305C22.622 7.22423 23 8.14488 23 9C23 9.55228 22.5523 10 22 10C19.9184 10 18.1163 9.49333 16.4914 8.476C16.8298 9.29829 17.1349 10.1174 17.3802 10.8921C17.5457 11.4146 17.6888 11.9318 17.7958 12.4263C18.1231 12.317 18.455 12.2539 18.788 12.2379C19.6166 12.1981 20.3788 12.454 21.0102 12.8952C22.2526 13.7632 23 15.3413 23 16.9999C23 18.5912 22.3679 20.1173 21.2426 21.2425C20.1174 22.3678 18.5913 22.9999 17 22.9999C15.4087 22.9999 13.8826 22.3678 12.7574 21.2425C12.4726 20.9577 12.2194 20.6473 12 20.3166C11.7806 20.6473 11.5274 20.9577 11.2426 21.2425C10.1174 22.3678 8.5913 22.9999 7 22.9999C5.4087 22.9999 3.88258 22.3678 2.75736 21.2425C1.63214 20.1173 1 18.5912 1 16.9999C1 15.3413 1.7474 13.7632 2.98977 12.8952C3.62125 12.454 4.38336 12.1981 5.21201 12.2379C5.77293 12.2648 6.33069 12.4254 6.86898 12.7156C8.00998 11.4462 8.85195 9.69394 9.49455 7.80533C10.1332 5.92847 10.5425 4.02131 10.8756 2.46954C10.9263 2.23319 10.9753 2.00508 11.023 1.78657ZM9.64387 12.3027C10.1421 12.4035 10.6033 12.6108 11.0102 12.8952C11.3884 13.1594 11.7207 13.4894 12 13.8674C12.2793 13.4894 12.6116 13.1594 12.9898 12.8952C13.6212 12.454 14.3834 12.1981 15.212 12.2379C15.3775 12.2459 15.5428 12.2655 15.7073 12.2966C15.6404 12.0437 15.5623 11.7763 15.4735 11.4958C15.1461 10.4619 14.6937 9.31487 14.1863 8.17377C13.6271 6.91631 13.0121 5.69051 12.4419 4.65507C12.1681 5.8392 11.8296 7.15153 11.388 8.44956C10.9436 9.75559 10.3806 11.0929 9.64387 12.3027ZM13.9959 3.21124C15.7537 3.58472 17.3027 4.41592 18.5087 5.40079C19.3298 6.07131 19.9707 6.79642 20.399 7.46351C20.4997 7.62043 20.5857 7.76944 20.6585 7.90966C19.3074 7.71964 18.1365 7.22996 17.0513 6.44205C15.9961 5.67589 14.9981 4.61032 13.9959 3.21124ZM13 16.9999C13 18.0608 13.4214 19.0782 14.1716 19.8283C14.9217 20.5785 15.9391 20.9999 17 20.9999C18.0609 20.9999 19.0783 20.5785 19.8284 19.8283C20.5786 19.0782 21 18.0608 21 16.9999C21 15.8985 20.4974 14.9766 19.8648 14.5346C19.5587 14.3208 19.2271 14.2191 18.8839 14.2356C18.5407 14.2521 18.1124 14.3906 17.6247 14.7808C17.2595 15.0729 16.7405 15.0729 16.3753 14.7808C15.8876 14.3906 15.4593 14.2521 15.1161 14.2356C14.7729 14.2191 14.4413 14.3208 14.1352 14.5346C13.5026 14.9766 13 15.8985 13 16.9999ZM11 16.9999C11 15.8985 10.4974 14.9766 9.86477 14.5346C9.55875 14.3208 9.22711 14.2191 8.88388 14.2356C8.54066 14.2521 8.11239 14.3906 7.62469 14.7808C7.25948 15.0729 6.74052 15.0729 6.37531 14.7808C5.8876 14.3906 5.45934 14.2521 5.11612 14.2356C4.77289 14.2191 4.44125 14.3208 4.13523 14.5346C3.5026 14.9766 3 15.8985 3 16.9999C3 18.0608 3.42143 19.0782 4.17157 19.8283C4.92172 20.5785 5.93913 20.9999 7 20.9999C8.06087 20.9999 9.07828 20.5785 9.82843 19.8283C10.5786 19.0782 11 18.0608 11 16.9999Z" fill="currentColor" style="fill="currentColor";fill-opacity:1;"/>
</svg>
