<svg width="24" height="24" viewBox="0 0 24 24" fill="none" xmlns="http://www.w3.org/2000/svg">
<path fill-rule="evenodd" clip-rule="evenodd" d="M7 5C7.55228 5 8 5.44772 8 6V18C8 18.5523 7.55228 19 7 19C6.44772 19 6 18.5523 6 18V6C6 5.44772 6.44772 5 7 5ZM16.2929 5.29289C16.6834 4.90237 17.3166 4.90237 17.7071 5.29289C18.0976 5.68342 18.0976 6.31658 17.7071 6.70711L12.4142 12L17.7071 17.2929C18.0976 17.6834 18.0976 18.3166 17.7071 18.7071C17.3166 19.0976 16.6834 19.0976 16.2929 18.7071L10.2929 12.7071C9.90237 12.3166 9.90237 11.6834 10.2929 11.2929L16.2929 5.29289Z" fill="currentColor" style="fill="currentColor";fill-opacity:1;"/>
</svg>
