<svg width="24" height="24" viewBox="0 0 24 24" fill="none" xmlns="http://www.w3.org/2000/svg">
<path fill-rule="evenodd" clip-rule="evenodd" d="M6.29289 3.29289C6.68342 2.90237 7.31658 2.90237 7.70711 3.29289L12 7.58579L16.2929 3.29289C16.6834 2.90237 17.3166 2.90237 17.7071 3.29289C18.0976 3.68342 18.0976 4.31658 17.7071 4.70711L12.7071 9.70711C12.3166 10.0976 11.6834 10.0976 11.2929 9.70711L6.29289 4.70711C5.90237 4.31658 5.90237 3.68342 6.29289 3.29289ZM12 16.4142L7.70711 20.7071C7.31658 21.0976 6.68342 21.0976 6.29289 20.7071C5.90237 20.3166 5.90237 19.6834 6.29289 19.2929L11.2929 14.2929C11.6834 13.9024 12.3166 13.9024 12.7071 14.2929L17.7071 19.2929C18.0976 19.6834 18.0976 20.3166 17.7071 20.7071C17.3166 21.0976 16.6834 21.0976 16.2929 20.7071L12 16.4142Z" fill="currentColor" style="fill="currentColor";fill-opacity:1;"/>
</svg>
