<svg width="24" height="24" viewBox="0 0 24 24" fill="none" xmlns="http://www.w3.org/2000/svg">
<path fill-rule="evenodd" clip-rule="evenodd" d="M6.29289 5.29289C6.68342 4.90237 7.31658 4.90237 7.70711 5.29289L13.7071 11.2929C14.0976 11.6834 14.0976 12.3166 13.7071 12.7071L7.70711 18.7071C7.31658 19.0976 6.68342 19.0976 6.29289 18.7071C5.90237 18.3166 5.90237 17.6834 6.29289 17.2929L11.5858 12L6.29289 6.70711C5.90237 6.31658 5.90237 5.68342 6.29289 5.29289ZM17 19C16.4477 19 16 18.5523 16 18V6C16 5.44772 16.4477 5 17 5C17.5523 5 18 5.44772 18 6V18C18 18.5523 17.5523 19 17 19Z" fill="currentColor" style="fill="currentColor";fill-opacity:1;"/>
</svg>
