<svg width="24" height="24" viewBox="0 0 24 24" fill="none" xmlns="http://www.w3.org/2000/svg">
<path fill-rule="evenodd" clip-rule="evenodd" d="M3.92666 8.01787C3.33339 9.21838 3 10.5703 3 12C3 16.4085 6.16962 20.0766 10.3543 20.8499L12.5952 16.9649C12.4 16.9881 12.2014 17 12 17C10.0747 17 8.40362 15.9119 7.56811 14.317L3.92666 8.01787ZM3.09483 5.54127C1.77715 7.35493 1 9.58671 1 12C1 17.6354 5.23773 22.281 10.7003 22.924C10.7459 22.9323 10.7918 22.9374 10.8376 22.9393C11.2196 22.9794 11.6074 23 12 23C18.0751 23 23 18.0751 23 12C23 10.4588 22.683 8.99164 22.1108 7.66014C22.096 7.61934 22.0787 7.57978 22.059 7.54165C20.3484 3.68785 16.4881 1 12 1C8.40394 1 5.21092 2.72558 3.20379 5.39389C3.16269 5.43991 3.1263 5.48929 3.09483 5.54127ZM5.15837 6.15234L7.40175 10.033C8.16567 8.24951 9.93691 7 12 7H19.4845C17.8699 4.58803 15.1204 3 12 3C9.26172 3 6.80906 4.2229 5.15837 6.15234ZM20.4879 9H16.0004C16.6281 9.83566 17 10.8744 17 12C17 12.9843 16.7156 13.9022 16.2244 14.6759L12.5874 20.9811C17.2842 20.6785 21 16.7732 21 12C21 10.9481 20.8195 9.93834 20.4879 9ZM14.6369 13.4318C14.8685 13.0063 15 12.5185 15 12C15 10.3431 13.6569 9 12 9C10.3431 9 9 10.3431 9 12C9 12.491 9.11797 12.9545 9.32712 13.3636L9.4057 13.4996C9.41867 13.522 9.43067 13.5447 9.44171 13.5677C9.96937 14.4269 10.9178 15 12 15C13.0552 15 13.9832 14.4552 14.518 13.6315L14.5937 13.5003C14.6073 13.4767 14.6217 13.4539 14.6369 13.4318Z" fill="currentColor" style="fill="currentColor";fill-opacity:1;"/>
</svg>
