<svg width="24" height="24" viewBox="0 0 24 24" fill="none" xmlns="http://www.w3.org/2000/svg">
<path fill-rule="evenodd" clip-rule="evenodd" d="M1.29289 1.29289C1.68342 0.902369 2.31658 0.902369 2.70711 1.29289L22.7071 21.2929C23.0976 21.6834 23.0976 22.3166 22.7071 22.7071C22.3166 23.0976 21.6834 23.0976 21.2929 22.7071L15.5858 17H2C1.44772 17 1 16.5523 1 16V12C1 11.4477 1.44772 11 2 11H9.58579L1.29289 2.70711C0.902369 2.31658 0.902369 1.68342 1.29289 1.29289ZM11.5858 13H8V15H13.5858L11.5858 13ZM6 15V13H3V15H6ZM16 2C16.5523 2 17 2.44772 17 3C17 3.47988 17.0933 3.80022 17.214 4.05164C17.3449 4.32437 17.5229 4.55278 17.7809 4.8753C17.7876 4.88368 17.7943 4.89212 17.8011 4.90064C18.0406 5.19983 18.3517 5.58845 18.589 6.08289C18.8433 6.61272 19 7.22988 19 8C19 8.55228 18.5523 9 18 9C17.4477 9 17 8.55228 17 8C17 7.52012 16.9067 7.19978 16.786 6.94836C16.6551 6.67563 16.4771 6.44722 16.2191 6.12469C16.2124 6.11633 16.2057 6.10788 16.1989 6.09937C15.9594 5.80018 15.6483 5.41156 15.411 4.91711C15.1567 4.38728 15 3.77012 15 3C15 2.44772 15.4477 2 16 2ZM20 2C20.5523 2 21 2.44772 21 3C21 3.47988 21.0933 3.80022 21.214 4.05164C21.3449 4.32437 21.5229 4.55278 21.7809 4.8753L21.8011 4.90064C22.0406 5.19983 22.3517 5.58845 22.589 6.08289C22.8433 6.61272 23 7.22988 23 8C23 8.55228 22.5523 9 22 9C21.4477 9 21 8.55228 21 8C21 7.52012 20.9067 7.19978 20.786 6.94836C20.6551 6.67563 20.4771 6.44722 20.2191 6.12469L20.1989 6.09936C19.9594 5.80017 19.6483 5.41155 19.411 4.91711C19.1567 4.38728 19 3.77012 19 3C19 2.44772 19.4477 2 20 2ZM16.5 12C16.5 11.4477 16.9477 11 17.5 11H18C18.5523 11 19 11.4477 19 12C19 12.5523 18.5523 13 18 13H17.5C16.9477 13 16.5 12.5523 16.5 12ZM21 12C21 11.4477 21.4477 11 22 11C22.5523 11 23 11.4477 23 12V16C23 16.5523 22.5523 17 22 17C21.4477 17 21 16.5523 21 16V12Z" fill="currentColor" style="fill="currentColor";fill-opacity:1;"/>
</svg>
