<svg width="24" height="24" viewBox="0 0 24 24" fill="none" xmlns="http://www.w3.org/2000/svg">
<path fill-rule="evenodd" clip-rule="evenodd" d="M5 4C4.44772 4 4 4.44772 4 5V19C4 19.5523 4.44771 20 5 20H6V17C6 16.2044 6.31607 15.4413 6.87868 14.8787C7.44129 14.3161 8.20435 14 9 14H12.1707C12.5825 12.8348 13.6938 12 15 12C16.6569 12 18 13.3431 18 15C18 16.6569 16.6569 18 15 18C13.6938 18 12.5825 17.1652 12.1707 16H9C8.73478 16 8.48043 16.1054 8.29289 16.2929C8.10536 16.4804 8 16.7348 8 17V20H19C19.5523 20 20 19.5523 20 19V5C20 4.44771 19.5523 4 19 4H18V7C18 7.79565 17.6839 8.55871 17.1213 9.12132C16.5587 9.68393 15.7957 10 15 10H11.8293C11.4175 11.1652 10.3062 12 9 12C7.34315 12 6 10.6569 6 9C6 7.34315 7.34315 6 9 6C10.3062 6 11.4175 6.83481 11.8293 8H15C15.2652 8 15.5196 7.89464 15.7071 7.70711C15.8946 7.51957 16 7.26522 16 7V4H5ZM5 2C3.34315 2 2 3.34315 2 5V19C2 20.6569 3.34315 22 5 22H19C20.6569 22 22 20.6569 22 19V5C22 3.34315 20.6569 2 19 2H5ZM9 8C8.44772 8 8 8.44772 8 9C8 9.55228 8.44772 10 9 10C9.55228 10 10 9.55228 10 9C10 8.44772 9.55228 8 9 8ZM15 14C14.4477 14 14 14.4477 14 15C14 15.5523 14.4477 16 15 16C15.5523 16 16 15.5523 16 15C16 14.4477 15.5523 14 15 14Z" fill="currentColor" style="fill="currentColor";fill-opacity:1;"/>
</svg>
