<svg width="24" height="24" viewBox="0 0 24 24" fill="none" xmlns="http://www.w3.org/2000/svg">
<path fill-rule="evenodd" clip-rule="evenodd" d="M1.29289 1.29289C1.68342 0.902369 2.31658 0.902369 2.70711 1.29289L5.62375 4.20954C5.62485 4.21063 5.62595 4.21172 5.62704 4.21282C5.62814 4.21391 5.62923 4.21501 5.63032 4.2161L19.7837 18.3695C19.7848 18.3706 19.7859 18.3717 19.787 18.3728C19.7882 18.3739 19.7893 18.375 19.7904 18.3762L22.7071 21.2929C23.0976 21.6834 23.0976 22.3166 22.7071 22.7071C22.3166 23.0976 21.6834 23.0976 21.2929 22.7071L19.0478 20.462C18.1964 21.171 17.2414 21.7488 16.2143 22.1743C14.8782 22.7277 13.4461 23.0126 11.9999 23.0126C10.5537 23.0126 9.1217 22.7277 7.78558 22.1743C6.44947 21.6208 5.23545 20.8096 4.21283 19.787C3.19021 18.7644 2.37903 17.5504 1.82559 16.2143C1.27215 14.8782 0.987305 13.4461 0.987305 11.9999C0.987305 10.5537 1.27215 9.12168 1.82559 7.78557C2.25105 6.75843 2.82883 5.80344 3.53789 4.9521L1.29289 2.70711C0.902369 2.31658 0.902369 1.68342 1.29289 1.29289ZM4.95928 6.37349C4.43147 7.03397 3.99817 7.76676 3.67335 8.55094C3.22042 9.6444 2.9873 10.8164 2.9873 11.9999C2.9873 13.1835 3.22042 14.3554 3.67335 15.4489C4.12628 16.5424 4.79014 17.5359 5.62704 18.3728C6.46394 19.2097 7.45749 19.8736 8.55095 20.3265C9.64441 20.7794 10.8164 21.0126 11.9999 21.0126C13.1835 21.0126 14.3555 20.7794 15.4489 20.3265C16.2331 20.0017 16.9659 19.5684 17.6264 19.0406L4.95928 6.37349ZM13.8354 3.19625C12.1232 2.83718 10.3435 2.98491 8.7139 3.62137C8.19947 3.8223 7.61955 3.56814 7.41862 3.0537C7.2177 2.53926 7.47185 1.95935 7.98629 1.75842C9.97798 0.980529 12.1532 0.799969 14.2459 1.23883C16.3386 1.67769 18.258 2.71695 19.7693 4.22947C21.2807 5.74199 22.3185 7.66221 22.7557 9.75523C23.193 11.8483 23.0107 14.0233 22.2313 16.0144C22.03 16.5287 21.4499 16.7824 20.9356 16.5811C20.4213 16.3798 20.1676 15.7997 20.3689 15.2854C21.0066 13.6563 21.1557 11.8767 20.798 10.1642C20.4402 8.45174 19.5911 6.88066 18.3546 5.64314C17.118 4.40562 15.5476 3.55532 13.8354 3.19625Z" fill="currentColor" style="fill="currentColor";fill-opacity:1;"/>
</svg>
