<svg width="24" height="24" viewBox="0 0 24 24" fill="none" xmlns="http://www.w3.org/2000/svg">
<path fill-rule="evenodd" clip-rule="evenodd" d="M12 3C7.02944 3 3 7.02944 3 12C3 14.125 3.73647 16.078 4.9681 17.6177L17.6177 4.9681C16.078 3.73647 14.125 3 12 3ZM19.0391 3.54673C17.1316 1.95662 14.6775 1 12 1C5.92487 1 1 5.92487 1 12C1 14.6775 1.95662 17.1316 3.54673 19.0391L1.29289 21.2929C0.902369 21.6834 0.902369 22.3166 1.29289 22.7071C1.68342 23.0976 2.31658 23.0976 2.70711 22.7071L4.96094 20.4533C6.86844 22.0434 9.3225 23 12 23C18.0751 23 23 18.0751 23 12C23 9.3225 22.0434 6.86844 20.4533 4.96094L22.7071 2.70711C23.0976 2.31658 23.0976 1.68342 22.7071 1.29289C22.3166 0.902369 21.6834 0.902369 21.2929 1.29289L19.0391 3.54673ZM19.0319 6.38231L6.38231 19.0319C7.92199 20.2635 9.87499 21 12 21C16.9706 21 21 16.9706 21 12C21 9.87499 20.2635 7.92199 19.0319 6.38231Z" fill="currentColor" style="fill="currentColor";fill-opacity:1;"/>
</svg>
