<svg width="24" height="24" viewBox="0 0 24 24" fill="none" xmlns="http://www.w3.org/2000/svg">
<path fill-rule="evenodd" clip-rule="evenodd" d="M13.7101 3.1637C12.5806 2.94511 11.4196 2.94511 10.2901 3.1637C9.74787 3.26863 9.22325 2.91414 9.11831 2.37191C9.01338 1.82969 9.36787 1.30506 9.9101 1.20013C11.2906 0.932964 12.7096 0.932964 14.0901 1.20013C14.6323 1.30506 14.9868 1.82969 14.8819 2.37191C14.7769 2.91414 14.2523 3.26863 13.7101 3.1637ZM7.25088 3.14307C7.55898 3.60143 7.43717 4.22277 6.97881 4.53086C6.02109 5.17461 5.19611 5.99654 4.54881 6.95186C4.23901 7.40908 3.61723 7.52858 3.16001 7.21879C2.7028 6.90899 2.58329 6.28721 2.89309 5.82999C3.68423 4.66237 4.69254 3.6578 5.86309 2.87099C6.32145 2.5629 6.94279 2.68471 7.25088 3.14307ZM16.781 3.16001C17.0908 2.7028 17.7126 2.58329 18.1698 2.89309C19.3374 3.68423 20.342 4.69254 21.1288 5.86309C21.4369 6.32145 21.3151 6.94279 20.8567 7.25088C20.3984 7.55898 19.7771 7.43717 19.469 6.97881C18.8252 6.02109 18.0033 5.19611 17.048 4.54881C16.5907 4.23901 16.4712 3.61723 16.781 3.16001ZM2.37191 9.11831C2.91414 9.22325 3.26863 9.74787 3.1637 10.2901C2.94511 11.4196 2.94511 12.5806 3.1637 13.7101C3.26863 14.2523 2.91414 14.7769 2.37191 14.8819C1.82969 14.9868 1.30506 14.6323 1.20013 14.0901C0.932964 12.7096 0.932964 11.2906 1.20013 9.9101C1.30506 9.36787 1.82969 9.01338 2.37191 9.11831ZM21.6281 9.11831C22.1703 9.01338 22.695 9.36787 22.7999 9.9101C23.0671 11.2906 23.0671 12.7096 22.7999 14.0901C22.695 14.6323 22.1703 14.9868 21.6281 14.8819C21.0859 14.7769 20.7314 14.2523 20.8363 13.7101C21.0549 12.5806 21.0549 11.4196 20.8363 10.2901C20.7314 9.74787 21.0859 9.22325 21.6281 9.11831ZM3.14307 16.7492C3.60143 16.4411 4.22277 16.5629 4.53086 17.0212C5.17461 17.979 5.99654 18.8039 6.95186 19.4512C7.40908 19.761 7.52858 20.3828 7.21879 20.84C6.90899 21.2973 6.28721 21.4168 5.82999 21.107C4.66238 20.3158 3.6578 19.3075 2.87099 18.137C2.5629 17.6786 2.68471 17.0573 3.14307 16.7492ZM20.84 16.781C21.2973 17.0908 21.4168 17.7126 21.107 18.1698C20.3158 19.3374 19.3075 20.342 18.137 21.1288C17.6786 21.4369 17.0573 21.3151 16.7492 20.8567C16.4411 20.3984 16.5629 19.7771 17.0212 19.469C17.979 18.8252 18.8039 18.0033 19.4512 17.048C19.761 16.5907 20.3828 16.4712 20.84 16.781ZM9.11831 21.6281C9.22325 21.0859 9.74787 20.7314 10.2901 20.8363C11.4196 21.0549 12.5806 21.0549 13.7101 20.8363C14.2523 20.7314 14.7769 21.0859 14.8819 21.6281C14.9868 22.1703 14.6323 22.695 14.0901 22.7999C12.7096 23.0671 11.2906 23.0671 9.9101 22.7999C9.36787 22.695 9.01338 22.1703 9.11831 21.6281Z" fill="currentColor" style="fill="currentColor";fill-opacity:1;"/>
</svg>
