<svg width="24" height="24" viewBox="0 0 24 24" fill="none" xmlns="http://www.w3.org/2000/svg">
<path fill-rule="evenodd" clip-rule="evenodd" d="M16.9175 4.46102C15.4548 3.50731 13.7463 2.99968 12.0002 3C11.4479 3.0001 11.0001 2.55247 11 2.00018C10.9999 1.4479 11.4475 1.0001 11.9998 1C14.134 0.999611 16.2222 1.62005 18.0099 2.78569C19.7976 3.95134 21.2076 5.61185 22.0681 7.56484C22.9286 9.51784 23.2023 11.679 22.8561 13.7848C22.5098 15.8907 21.5584 17.8504 20.1178 19.425C19.745 19.8325 19.1125 19.8606 18.705 19.4878C18.2975 19.115 18.2694 18.4825 18.6422 18.075C19.8208 16.7867 20.5992 15.1833 20.8826 13.4603C21.1659 11.7373 20.9419 9.96914 20.2378 8.37123C19.5338 6.77333 18.3802 5.41473 16.9175 4.46102ZM6.28918 3.73058C6.6467 4.15153 6.59528 4.78261 6.17433 5.14013C5.89138 5.38044 5.62357 5.63803 5.37243 5.91143C4.99882 6.31815 4.36622 6.34499 3.95949 5.97138C3.55276 5.59776 3.52592 4.96516 3.89954 4.55843C4.20649 4.22429 4.53381 3.90945 4.87964 3.61573C5.30059 3.25821 5.93166 3.30963 6.28918 3.73058ZM12 7C12.5523 7 13 7.44772 13 8V11H16C16.5523 11 17 11.4477 17 12C17 12.5523 16.5523 13 16 13H13V16C13 16.5523 12.5523 17 12 17C11.4477 17 11 16.5523 11 16V13H8C7.44772 13 7 12.5523 7 12C7 11.4477 7.44772 11 8 11H11V8C11 7.44772 11.4477 7 12 7ZM2.81249 7.92508C3.33712 8.09766 3.62251 8.66286 3.44992 9.18749C3.16314 10.0593 3.01138 10.9698 2.99992 11.8875C2.99303 12.4397 2.53976 12.8818 1.98751 12.8749C1.43527 12.868 0.993183 12.4148 1.00008 11.8625C1.01409 10.7409 1.19956 9.62804 1.55008 8.56251C1.72266 8.03789 2.28786 7.7525 2.81249 7.92508ZM2.43145 15.0829C2.93796 14.8627 3.52704 15.0949 3.74719 15.6014C4.25254 16.764 4.99782 17.8068 5.93419 18.6614C6.34213 19.0337 6.37101 19.6662 5.99871 20.0741C5.62641 20.482 4.9939 20.5109 4.58597 20.1386C3.44151 19.0941 2.53062 17.8196 1.91297 16.3986C1.69281 15.8921 1.92494 15.303 2.43145 15.0829ZM17.1791 20.6125C17.4152 21.1118 17.2018 21.7079 16.7026 21.944C14.0701 23.1889 11.0515 23.3393 8.30846 22.362C7.7882 22.1767 7.5167 21.6047 7.70204 21.0845C7.88737 20.5642 8.45937 20.2927 8.97963 20.478C11.224 21.2776 13.6937 21.1546 15.8475 20.136C16.3468 19.8999 16.9429 20.1133 17.1791 20.6125Z" fill="currentColor" style="fill="currentColor";fill-opacity:1;"/>
</svg>
