<svg width="24" height="24" viewBox="0 0 24 24" fill="none" xmlns="http://www.w3.org/2000/svg">
<path fill-rule="evenodd" clip-rule="evenodd" d="M5.59117 3.01638C5.57844 3.01121 5.56479 3.00872 5.55105 3.00906C5.53732 3.00941 5.52381 3.01257 5.51135 3.01837C5.50156 3.02292 5.49259 3.02902 5.48478 3.03642C3.7618 5.14378 2.88116 7.81549 3.01381 10.535C3.14691 13.2638 4.29072 15.8454 6.22257 17.7772C8.15441 19.7091 10.736 20.8529 13.4648 20.986C16.1876 21.1188 18.8624 20.2359 20.9709 18.5089C20.9776 18.5023 20.9832 18.4945 20.9872 18.486C20.992 18.4759 20.9946 18.4649 20.9949 18.4538C20.9951 18.4426 20.9931 18.4315 20.9888 18.4212C20.9845 18.4109 20.9782 18.4015 20.9701 18.3938C20.9642 18.3882 20.9583 18.3825 20.9526 18.3768L19.5946 17.0179C18.0018 18.2299 16.0415 18.8823 14.0217 18.8546C11.6748 18.8225 9.43335 17.8749 7.77519 16.2138C6.11703 14.5527 5.17337 12.3096 5.14542 9.96267C5.1214 7.94618 5.77502 5.99018 6.98593 4.40099L5.62499 3.03915C5.61538 3.02933 5.6039 3.02155 5.59117 3.01638ZM9.14081 3.72792C9.1103 3.68861 9.07647 3.65108 9.03933 3.61573C9.01471 3.5923 8.98922 3.57037 8.96295 3.54994L7.05045 1.6362C6.84962 1.43208 6.60915 1.27118 6.34381 1.1634C6.07654 1.05484 5.78977 1.00252 5.50138 1.00968C5.21299 1.01685 4.92918 1.08335 4.66763 1.20505C4.40608 1.32674 4.17241 1.50102 3.98119 1.71702C3.97307 1.72618 3.96513 1.73549 3.95736 1.74495C1.90731 4.2394 0.858877 7.40748 1.01618 10.6324C1.17349 13.8574 2.52527 16.9084 4.80836 19.1915C7.09145 21.4745 10.1424 22.8263 13.3674 22.9836C16.5923 23.1409 19.7604 22.0925 22.2549 20.0424L22.2727 20.0274C22.4927 19.8379 22.6705 19.6044 22.7948 19.3419C22.919 19.0795 22.987 18.794 22.9942 18.5037C23.0015 18.2135 22.9479 17.9249 22.8369 17.6566C22.7277 17.3927 22.5654 17.1541 22.36 16.9558L14.764 9.35478C14.746 9.33344 14.727 9.31279 14.7071 9.2929C14.6874 9.27315 14.6669 9.25432 14.6457 9.23642L9.14081 3.72792ZM8.41636 5.83234C7.75665 6.77167 7.3376 7.8598 7.19722 9H11.5819L8.41636 5.83234ZM11.5858 11H7.23895C7.42201 12.1046 7.86769 13.15 8.53856 14.0472L11.5858 11ZM9.95274 15.4615C10.8499 16.1323 11.8952 16.5781 12.9999 16.7612L13 12.4142L9.95274 15.4615ZM15 12.4203L14.9999 16.8031C16.1386 16.6629 17.2255 16.2448 18.1642 15.5865L15 12.4203Z" fill="currentColor" style="fill="currentColor";fill-opacity:1;"/>
</svg>
