<svg width="24" height="24" viewBox="0 0 24 24" fill="none" xmlns="http://www.w3.org/2000/svg">
<path fill-rule="evenodd" clip-rule="evenodd" d="M17.1721 3.06229L14.1072 3.97041L15.8525 6.22236L18.9455 5.32324L18.4421 3.68731C18.3097 3.24599 17.7829 2.90048 17.1721 3.06229ZM15.5276 8.39959C15.6947 8.39509 15.8619 8.3488 16.0126 8.25862L20.4791 6.9602C20.7364 6.88542 20.9529 6.71052 21.0801 6.47472C21.2073 6.23892 21.2345 5.96194 21.1557 5.70587L20.3578 3.11261C20.3574 3.11142 20.3571 3.11024 20.3567 3.10906C19.8883 1.55481 18.221 0.703147 16.6368 1.13519L16.6159 1.14116L12.3659 2.40041C12.1996 2.40593 12.0335 2.45284 11.8839 2.54323L3.11587 5.14116L3.11261 5.14213C1.5561 5.60908 0.702819 7.27771 1.13519 8.86307C1.14331 8.89283 1.15279 8.9222 1.16363 8.95108L1.99996 11.1813L2 19C2 19.7957 2.31607 20.5587 2.87868 21.1213C3.44129 21.6839 4.20435 22 5 22H19C19.7957 22 20.5587 21.6839 21.1213 21.1213C21.6839 20.5587 22 19.7957 22 19V11C22 10.4477 21.5523 10 21 10L10.0223 9.99997L15.5276 8.39959ZM13.7874 6.82268L12.0494 4.58012L7.88575 5.8138L9.64487 8.0269L13.7874 6.82268ZM7.56956 8.63019L5.81791 6.4265L3.6873 7.05778C3.68687 7.05791 3.68644 7.05804 3.68601 7.05817C3.2524 7.18907 2.91176 7.70077 3.05488 8.29843L3.61084 9.78098L7.56956 8.63019ZM3.99996 12L4 19C4 19.2652 4.10536 19.5196 4.29289 19.7071C4.48043 19.8946 4.73479 20 5 20H19C19.2652 20 19.5196 19.8946 19.7071 19.7071C19.8946 19.5196 20 19.2652 20 19V12L3.99996 12Z" fill="currentColor" style="fill="currentColor";fill-opacity:1;"/>
</svg>
