<svg width="24" height="24" viewBox="0 0 24 24" fill="none" xmlns="http://www.w3.org/2000/svg">
<path fill-rule="evenodd" clip-rule="evenodd" d="M12 3C7.02944 3 3 7.02944 3 12C3 16.9706 7.02944 21 12 21C16.9706 21 21 16.9706 21 12C21 7.02944 16.9706 3 12 3ZM1 12C1 5.92487 5.92487 1 12 1C18.0751 1 23 5.92487 23 12C23 18.0751 18.0751 23 12 23C5.92487 23 1 18.0751 1 12ZM12 5C12.5523 5 13 5.44772 13 6V12C13 12.4461 12.7045 12.8383 12.2757 12.9612C11.8469 13.0842 11.3884 12.9083 11.152 12.53L8.652 8.53C8.35929 8.06166 8.50166 7.44471 8.97 7.152C9.43834 6.85929 10.0553 7.00166 10.348 7.47L11 8.5132V6C11 5.44772 11.4477 5 12 5Z" fill="currentColor" style="fill="currentColor";fill-opacity:1;"/>
</svg>
