<svg width="24" height="24" viewBox="0 0 24 24" fill="none" xmlns="http://www.w3.org/2000/svg">
<path fill-rule="evenodd" clip-rule="evenodd" d="M12 3C7.02944 3 3 7.02944 3 12C3 16.9706 7.02944 21 12 21C16.9706 21 21 16.9706 21 12C21 7.02944 16.9706 3 12 3ZM1 12C1 5.92487 5.92487 1 12 1C18.0751 1 23 5.92487 23 12C23 18.0751 18.0751 23 12 23C5.92487 23 1 18.0751 1 12ZM12 5C12.5523 5 13 5.44772 13 6V12C13 12.3466 12.8205 12.6684 12.5257 12.8507C12.2309 13.0329 11.8628 13.0494 11.5528 12.8944L7.55279 10.8944C7.05881 10.6474 6.85858 10.0468 7.10557 9.55279C7.35256 9.05881 7.95324 8.85858 8.44721 9.10557L11 10.382V6C11 5.44772 11.4477 5 12 5Z" fill="currentColor" style="fill="currentColor";fill-opacity:1;"/>
</svg>
