<svg width="24" height="24" viewBox="0 0 24 24" fill="none" xmlns="http://www.w3.org/2000/svg">
<path fill-rule="evenodd" clip-rule="evenodd" d="M14.0327 5.40343C13.5797 5.59732 13.1544 5.85853 12.7723 6.18141C11.8697 6.94414 11.2663 8.00181 11.069 9.16694C10.9768 9.71148 10.4606 10.0782 9.91606 9.98597C9.37153 9.89377 9.00484 9.37759 9.09704 8.83306C9.37321 7.20205 10.2179 5.72149 11.4814 4.65379C12.7449 3.58609 14.3457 3.00021 15.9999 3C16.402 2.99995 16.765 3.24076 16.9214 3.61125C17.0777 3.98174 16.9969 4.40983 16.7163 4.69784C16.1211 5.30865 15.7906 6.12929 15.7961 6.98206C15.8017 7.83483 16.1429 8.65109 16.7459 9.2541C17.3489 9.85711 18.1652 10.1983 19.018 10.2039C19.8707 10.2094 20.6914 9.87886 21.3022 9.28375C21.5902 9.00315 22.0182 8.92234 22.3887 9.07863C22.7592 9.23492 23 9.59791 23 10C23 12.5911 21.5913 14.8542 19.5005 16.0628C19.0223 16.3392 18.4106 16.1756 18.1342 15.6974C17.8579 15.2193 18.0214 14.6076 18.4996 14.3312C19.4316 13.7925 20.1722 12.9625 20.5985 11.9667C20.0873 12.1259 19.5502 12.2074 19.0049 12.2038C17.6263 12.1949 16.3066 11.6432 15.3317 10.6683C14.3568 9.69342 13.8051 8.37375 13.7962 6.99507C13.7926 6.45052 13.8739 5.91407 14.0327 5.40343ZM7.10335 13.0033C6.50389 12.988 5.90866 13.1077 5.36171 13.3535C4.81476 13.5993 4.33007 13.965 3.94351 14.4234C3.55695 14.8818 3.27841 15.4213 3.12849 16.0019C2.97857 16.5825 2.96111 17.1894 3.07741 17.7777C3.1937 18.366 3.44077 18.9206 3.80034 19.4005C4.13151 19.8424 4.04167 20.4692 3.59969 20.8004C3.15771 21.1315 2.53095 21.0417 2.19978 20.5997C1.66043 19.8799 1.28982 19.048 1.11538 18.1656C0.940938 17.2832 0.967124 16.3728 1.192 15.5019C1.41688 14.631 1.83469 13.8218 2.41453 13.1341C2.99437 12.4465 3.7214 11.898 4.54183 11.5293C5.36226 11.1605 6.2551 10.981 7.15429 11.0039C8.05348 11.0268 8.93602 11.2516 9.73661 11.6616C10.5372 12.0717 11.2353 12.6565 11.7794 13.3727C12.1555 13.8679 12.4513 14.4171 12.6577 15.0001L12.9986 15.0001C12.9988 15.0001 12.9991 15.0001 12.9993 15.0001M7 18C7.55228 18 8 18.4477 8 19V21C8 21.5523 7.55228 22 7 22C6.44772 22 6 21.5523 6 21V19C6 18.4477 6.44772 18 7 18ZM11 19C11.5523 19 12 19.4477 12 20V22C12 22.5523 11.5523 23 11 23C10.4477 23 10 22.5523 10 22V20C10 19.4477 10.4477 19 11 19Z" fill="currentColor" style="fill="currentColor";fill-opacity:1;"/>
</svg>
