<svg width="24" height="24" viewBox="0 0 24 24" fill="none" xmlns="http://www.w3.org/2000/svg">
<path fill-rule="evenodd" clip-rule="evenodd" d="M10.0491 6.09211C8.95353 5.89789 7.8255 6.01216 6.7911 6.42213C5.75669 6.83211 4.85667 7.52165 4.19159 8.4137C3.52652 9.30575 3.1226 10.3652 3.02497 11.4736C2.92735 12.582 3.13986 13.6957 3.63876 14.6902C4.13766 15.6848 4.90329 16.5211 5.8501 17.1055C6.79684 17.69 7.88744 17.9997 9.00004 18C8.99995 18 9.00012 18 9.00004 18H17.5C18.4283 18 19.3185 17.6313 19.9749 16.9749C20.6313 16.3185 21 15.4283 21 14.5C21 13.5717 20.6313 12.6815 19.9749 12.0251C19.3185 11.3688 18.4283 11 17.5 11H15.71C15.2678 11 14.8781 10.7095 14.7517 10.2857C14.4338 9.21941 13.8257 8.26251 12.9952 7.52195C12.1648 6.78139 11.1447 6.28633 10.0491 6.09211ZM6.05418 4.56284C7.43339 4.01621 8.93743 3.86386 10.3982 4.12282C11.859 4.38178 13.2191 5.04185 14.3263 6.02926C15.2447 6.84821 15.9591 7.86557 16.418 9H17.5C18.9587 9 20.3577 9.57947 21.3891 10.6109C22.4206 11.6424 23 13.0413 23 14.5C23 15.9587 22.4206 17.3576 21.3891 18.3891C20.3577 19.4205 18.9587 20 17.5 20H9.00004C7.51645 19.9996 6.06194 19.5867 4.79953 18.8074C3.53711 18.0281 2.51626 16.9131 1.85106 15.587C1.18586 14.2609 0.902518 12.7759 1.03269 11.2981C1.16286 9.82022 1.70141 8.40767 2.58818 7.21827C3.47494 6.02887 4.67498 5.10948 6.05418 4.56284Z" fill="currentColor" style="fill="currentColor";fill-opacity:1;"/>
</svg>
