<svg width="24" height="24" viewBox="0 0 24 24" fill="none" xmlns="http://www.w3.org/2000/svg">
<path fill-rule="evenodd" clip-rule="evenodd" d="M11.1954 4.41771C10.348 4.08499 9.4359 3.94949 8.52832 4.02147C7.62075 4.09345 6.74145 4.37102 5.95704 4.83316C5.17262 5.2953 4.50366 5.92989 4.00083 6.68886C3.498 7.44783 3.17448 8.31128 3.05477 9.2138C2.93507 10.1163 3.02232 11.0343 3.30992 11.8981C3.59752 12.7619 4.07793 13.5489 4.71475 14.1995C5.10106 14.5942 5.09426 15.2274 4.69957 15.6137C4.30488 16 3.67175 15.9932 3.28544 15.5985C2.43634 14.731 1.7958 13.6816 1.41234 12.5299C1.02887 11.3781 0.912532 10.1542 1.07214 8.95084C1.23174 7.74748 1.6631 6.59621 2.33355 5.58425C3.00399 4.57229 3.89594 3.72617 4.94182 3.10998C5.9877 2.4938 7.1601 2.1237 8.3702 2.02773C9.5803 1.93176 10.7964 2.11243 11.9263 2.55605C13.0563 2.99968 14.0704 3.69462 14.892 4.58825C15.5424 5.29573 16.0586 6.11304 16.4178 7.00002H17.5C17.4999 7.00002 17.5 7.00002 17.5 7.00002C18.68 6.99991 19.8289 7.37933 20.7767 8.08222C21.7246 8.78515 22.4213 9.7743 22.7638 10.9036C23.1063 12.0328 23.0766 13.2423 22.6789 14.3534C22.2813 15.4644 21.5368 16.4181 20.5555 17.0736C20.0963 17.3803 19.4753 17.2567 19.1685 16.7975C18.8618 16.3382 18.9854 15.7172 19.4447 15.4105C20.0691 14.9934 20.5429 14.3865 20.7959 13.6794C21.049 12.9724 21.0679 12.2027 20.8499 11.4841C20.6319 10.7655 20.1886 10.136 19.5854 9.6887C18.9822 9.24138 18.2512 8.99993 17.5002 9.00002H15.7101C15.268 9.00002 14.8784 8.70973 14.7519 8.28611C14.4914 7.41374 14.0358 6.61208 13.4197 5.94186C12.8035 5.27164 12.0429 4.75043 11.1954 4.41771ZM8 13C8.55228 13 9 13.4477 9 14V16C9 16.5523 8.55228 17 8 17C7.44772 17 7 16.5523 7 16V14C7 13.4477 7.44772 13 8 13ZM16 13C16.5523 13 17 13.4477 17 14V16C17 16.5523 16.5523 17 16 17C15.4477 17 15 16.5523 15 16V14C15 13.4477 15.4477 13 16 13ZM12 15C12.5523 15 13 15.4477 13 16V18C13 18.5523 12.5523 19 12 19C11.4477 19 11 18.5523 11 18V16C11 15.4477 11.4477 15 12 15ZM7 20C7 19.4477 7.44772 19 8 19H8.01C8.56228 19 9.01 19.4477 9.01 20C9.01 20.5523 8.56228 21 8.01 21H8C7.44772 21 7 20.5523 7 20ZM15 20C15 19.4477 15.4477 19 16 19H16.01C16.5623 19 17.01 19.4477 17.01 20C17.01 20.5523 16.5623 21 16.01 21H16C15.4477 21 15 20.5523 15 20ZM11 22C11 21.4477 11.4477 21 12 21H12.01C12.5623 21 13.01 21.4477 13.01 22C13.01 22.5523 12.5623 23 12.01 23H12C11.4477 23 11 22.5523 11 22Z" fill="black" style="fill:black;fill-opacity:1;"/>
</svg>
