<svg width="24" height="24" viewBox="0 0 24 24" fill="none" xmlns="http://www.w3.org/2000/svg">
<path fill-rule="evenodd" clip-rule="evenodd" d="M16.9235 3.61608C17.0789 3.99 16.9935 4.42076 16.7072 4.70711C16.0991 5.31522 15.7575 6.14 15.7575 7C15.7575 7.42583 15.8413 7.84749 16.0043 8.24091C16.1672 8.63432 16.4061 8.99179 16.7072 9.29289C17.0083 9.594 17.3658 9.83285 17.7592 9.99581C18.1526 10.1588 18.5743 10.2426 19.0001 10.2426C19.8601 10.2426 20.6849 9.90101 21.293 9.29289C21.579 9.00691 22.0091 8.92135 22.3827 9.07609C22.7564 9.23084 23 9.59542 23.0001 9.99986C23.0003 11.2288 22.6769 12.4361 22.0625 13.5004C21.4481 14.5647 20.5644 15.4486 19.5001 16.063C19.0218 16.3392 18.4102 16.1753 18.1341 15.697C17.8579 15.2187 18.0218 14.6071 18.5001 14.331C19.2603 13.8921 19.8916 13.2608 20.3304 12.5005C20.4246 12.3373 20.5093 12.1694 20.5841 11.9976C20.0764 12.1586 19.5426 12.2426 19.0001 12.2426C18.3116 12.2426 17.6299 12.107 16.9938 11.8436C16.3578 11.5801 15.7798 11.1939 15.293 10.7071C14.8062 10.2203 14.42 9.64234 14.1565 9.00627C13.8931 8.3702 13.7575 7.68847 13.7575 7C13.7575 6.46059 13.8406 5.92975 13.9998 5.42461C13.5631 5.61704 13.153 5.87239 12.7836 6.1855C11.8839 6.94794 11.2827 8.00386 11.0861 9.16666C10.9941 9.71122 10.478 10.0781 9.93344 9.98601C9.38888 9.89397 9.02204 9.3779 9.11408 8.83334C9.38925 7.20541 10.231 5.72713 11.4905 4.65971C12.7501 3.59229 14.3464 3.00443 15.9974 3C16.4024 2.99892 16.768 3.24216 16.9235 3.61608ZM7.95852 13.1163C7.2237 12.9351 6.45256 12.9661 5.73466 13.2057C5.01676 13.4453 4.38157 13.8837 3.90285 14.4699C3.42413 15.056 3.12154 15.766 3.03021 16.5173C2.93888 17.2686 3.06257 18.0304 3.3869 18.7142C3.71124 19.398 4.22292 19.9758 4.8625 20.3804C5.50203 20.7849 6.24321 20.9998 6.99996 21C6.99989 21 7.00003 21 6.99996 21H13C13.5304 21 14.0391 20.7893 14.4142 20.4142C14.7892 20.0391 15 19.5304 15 19C15 18.4696 14.7892 17.9609 14.4142 17.5858C14.0391 17.2107 13.5304 17 13 17H11.9C11.4248 17 11.0152 16.6656 10.9202 16.2C10.7688 15.4585 10.4102 14.7751 9.88592 14.2292C9.36168 13.6834 8.69334 13.2975 7.95852 13.1163ZM5.1015 11.3086C6.17835 10.9492 7.33506 10.9027 8.43729 11.1745C9.53951 11.4462 10.542 12.0251 11.3284 12.8439C11.9221 13.4621 12.3742 14.1979 12.6578 15H13C14.0608 15 15.0782 15.4214 15.8284 16.1716C16.5785 16.9217 17 17.9391 17 19C17 20.0609 16.5785 21.0783 15.8284 21.8284C15.0782 22.5786 14.0608 23 13 23H6.99996C5.86472 22.9998 4.75264 22.6775 3.79326 22.0706C2.83388 21.4636 2.06637 20.597 1.57987 19.5713C1.09336 18.5456 0.907834 17.4029 1.04483 16.276C1.18182 15.149 1.63571 14.0841 2.35379 13.2048C3.07186 12.3255 4.02466 11.668 5.1015 11.3086Z" fill="black" style="fill:black;fill-opacity:1;"/>
</svg>
