<svg width="24" height="24" viewBox="0 0 24 24" fill="none" xmlns="http://www.w3.org/2000/svg">
<path fill-rule="evenodd" clip-rule="evenodd" d="M10.6949 4.24626C9.73561 3.96426 8.72105 3.92647 7.74343 4.13632C6.76581 4.34617 5.85614 4.79701 5.09709 5.44787C4.33804 6.09873 3.75368 6.92897 3.39713 7.86313C3.04058 8.79728 2.92313 9.80573 3.05547 10.7968C3.18782 11.7879 3.56575 12.7302 4.15491 13.5381C4.74408 14.346 5.5258 14.9938 6.42903 15.4227C6.92793 15.6596 7.14032 16.2561 6.90342 16.755C6.66653 17.2538 6.07005 17.4662 5.57115 17.2293C4.36684 16.6575 3.32454 15.7937 2.53899 14.7166C1.75343 13.6394 1.24952 12.383 1.07307 11.0615C0.896615 9.74008 1.05321 8.39548 1.52861 7.14994C2.00401 5.9044 2.78316 4.79742 3.79522 3.9296C4.80729 3.06179 6.02019 2.46067 7.32368 2.18086C8.62717 1.90106 9.97992 1.95145 11.259 2.32746C12.538 2.70346 13.7029 3.39316 14.6476 4.33387C15.413 5.0961 16.0143 6.00354 16.4178 7.00001H17.4992M13.5145 11.1425C13.9881 11.4267 14.1416 12.0409 13.8575 12.5145L11.7662 16H14C14.3603 16 14.6927 16.1938 14.8702 16.5073C15.0477 16.8208 15.0429 17.2056 14.8575 17.5145L11.8575 22.5145C11.5733 22.9881 10.9591 23.1416 10.4855 22.8575C10.0119 22.5733 9.85836 21.9591 10.1425 21.4855L12.2338 18H10C9.63973 18 9.30731 17.8062 9.1298 17.4927C8.95229 17.1792 8.95715 16.7944 9.14251 16.4855L12.1425 11.4855C12.4267 11.0119 13.0409 10.8584 13.5145 11.1425Z" fill="currentColor" style="fill="currentColor";fill-opacity:1;"/>
</svg>
