<svg width="24" height="24" viewBox="0 0 24 24" fill="none" xmlns="http://www.w3.org/2000/svg">
<path fill-rule="evenodd" clip-rule="evenodd" d="M1.29289 1.29289C1.68342 0.902369 2.31658 0.902369 2.70711 1.29289L6.47147 5.05726C6.48337 5.06858 6.49502 5.08023 6.50641 5.09219L19.4994 18.0852C19.5098 18.0952 19.52 18.1054 19.53 18.1158L22.7071 21.2929C23.0976 21.6834 23.0976 22.3166 22.7071 22.7071C22.3166 23.0976 21.6834 23.0976 21.2929 22.7071L18.4955 19.9097C18.1673 19.9699 17.8339 20.0002 17.4993 20H9.00046C7.20745 20.0006 5.46577 19.399 4.05568 18.2915C2.64548 17.1839 1.64828 15.6346 1.22412 13.8924C0.79995 12.1501 0.97342 10.3158 1.71669 8.68397C2.27392 7.46055 3.12719 6.40408 4.19061 5.60482L5.6238 7.03801C4.71829 7.6536 3.99442 8.50822 3.53678 9.51298C2.97933 10.7369 2.84923 12.1126 3.16736 13.4193C3.48548 14.726 4.23338 15.8879 5.29103 16.7186C6.34868 17.5493 7.65475 18.0006 8.99962 18H16.5858L5.6238 7.03801M4.19061 5.60482L1.29289 2.70711C0.90237 2.31658 0.90237 1.68342 1.29289 1.29289M9.01033 4.92668C9.08953 4.3801 9.59682 4.00121 10.1434 4.0804C11.655 4.29941 13.0724 4.94614 14.2285 5.94429C15.193 6.7771 15.9421 7.82555 16.4177 9.00007H17.4998C17.4997 9.00007 17.4999 9.00007 17.4998 9.00007C18.4359 8.99992 19.3567 9.2387 20.1748 9.69379C20.9928 10.1489 21.6812 10.8053 22.1747 11.6009C22.6682 12.3964 22.9504 13.3047 22.9947 14.2398C23.039 15.175 22.8439 16.1059 22.4278 16.9445C22.1823 17.4393 21.5823 17.6413 21.0876 17.3959C20.5928 17.1504 20.3907 16.5504 20.6362 16.0556C20.901 15.522 21.0251 14.9295 20.997 14.3345C20.9688 13.7394 20.7892 13.1614 20.4751 12.6551C20.1611 12.1489 19.723 11.7312 19.2024 11.4415C18.6818 11.1519 18.0959 11 17.5002 11.0001H15.71C15.2679 11.0001 14.8783 10.7098 14.7518 10.2863C14.4239 9.18828 13.7888 8.20698 12.9214 7.45812C12.0541 6.70925 10.9907 6.22405 9.85661 6.05973C9.31003 5.98054 8.93114 5.47325 9.01033 4.92668Z" fill="currentColor" style="fill="currentColor";fill-opacity:1;"/>
</svg>
