<svg width="24" height="24" viewBox="0 0 24 24" fill="none" xmlns="http://www.w3.org/2000/svg">
<path fill-rule="evenodd" clip-rule="evenodd" d="M12 1C12.5523 1 13 1.44772 13 2V4C13 4.55228 12.5523 5 12 5C11.4477 5 11 4.55228 11 4V2C11 1.44772 11.4477 1 12 1ZM4.22282 4.22282C4.61335 3.8323 5.24651 3.8323 5.63704 4.22282L7.04704 5.63282C7.43756 6.02335 7.43756 6.65651 7.04704 7.04704C6.65651 7.43756 6.02335 7.43756 5.63283 7.04704L4.22282 5.63704C3.8323 5.24651 3.8323 4.61335 4.22282 4.22282ZM19.777 4.22282C20.1675 4.61335 20.1675 5.24651 19.777 5.63704L18.367 7.04704C17.9765 7.43756 17.3433 7.43756 16.9528 7.04704C16.5623 6.65651 16.5623 6.02335 16.9528 5.63283L18.3628 4.22283C18.7533 3.8323 19.3865 3.8323 19.777 4.22282ZM9.52737 7.65295C10.3482 7.1858 11.2846 6.9607 12.2281 7.00373C13.1717 7.04675 14.0837 7.35613 14.8586 7.89604C15.6336 8.43596 16.2398 9.18433 16.607 10.0545C16.9742 10.9247 17.0875 11.8811 16.9336 12.8129C16.8437 13.3579 16.329 13.7267 15.7841 13.6367C15.2392 13.5468 14.8704 13.0321 14.9603 12.4872C15.0526 11.9281 14.9847 11.3542 14.7643 10.8321C14.544 10.31 14.1803 9.86099 13.7153 9.53704C13.2504 9.21309 12.7031 9.02746 12.137 9.00165C11.5709 8.97584 11.0091 9.11089 10.5166 9.39118C10.0366 9.66434 9.42602 9.49667 9.15285 9.01667C8.87969 8.53667 9.04737 7.92611 9.52737 7.65295ZM19 12C19 11.4477 19.4477 11 20 11H22C22.5523 11 23 11.4477 23 12C23 12.5523 22.5523 13 22 13H20C19.4477 13 19 12.5523 19 12ZM7.10335 13.0033C6.50389 12.988 5.90866 13.1077 5.36171 13.3535C4.81476 13.5993 4.33007 13.965 3.94351 14.4234C3.55695 14.8818 3.27841 15.4213 3.12849 16.0019C2.97857 16.5825 2.96111 17.1894 3.07741 17.7777C3.1937 18.366 3.44077 18.9206 3.80034 19.4005C4.13151 19.8424 4.04167 20.4692 3.59969 20.8004C3.15771 21.1315 2.53095 21.0417 2.19978 20.5997C1.66043 19.8799 1.28982 19.048 1.11538 18.1656C0.940938 17.2832 0.967124 16.3728 1.192 15.5019C1.41688 14.631 1.83469 13.8218 2.41453 13.1341C2.99437 12.4465 3.7214 11.898 4.54183 11.5293C5.36226 11.1605 6.2551 10.981 7.15429 11.0039C8.05348 11.0268 8.93602 11.2516 9.73661 11.6616C10.5372 12.0717 11.2353 12.6565 11.7794 13.3727C12.1555 13.8679 12.4513 14.4171 12.6577 15.0001L12.9986 15.0001C12.9988 15.0001 12.9991 15.0001 12.9993 15.0001M7 18C7.55228 18 8 18.4477 8 19V21C8 21.5523 7.55228 22 7 22C6.44772 22 6 21.5523 6 21V19C6 18.4477 6.44772 18 7 18ZM11 19C11.5523 19 12 19.4477 12 20V22C12 22.5523 11.5523 23 11 23C10.4477 23 10 22.5523 10 22V20C10 19.4477 10.4477 19 11 19Z" fill="currentColor" style="fill="currentColor";fill-opacity:1;"/>
</svg>
