<svg width="24" height="24" viewBox="0 0 24 24" fill="none" xmlns="http://www.w3.org/2000/svg">
<path fill-rule="evenodd" clip-rule="evenodd" d="M9.95334 4.00974C9.70716 3.99317 9.46018 4.02663 9.22728 4.1081C8.99438 4.18958 8.7804 4.31739 8.59825 4.48382C8.41609 4.65025 8.26953 4.85186 8.16741 5.07647C8.0653 5.30108 8.00973 5.54406 8.00408 5.79073C7.99842 6.0374 8.04279 6.28267 8.1345 6.51172C8.22621 6.74078 8.36338 6.94889 8.53771 7.1235L12 10.5858L15.4623 7.12352C15.4624 7.12343 15.4625 7.12334 15.4626 7.12325C15.6369 6.94865 15.774 6.74061 15.8656 6.51172C15.9573 6.28266 16.0017 6.0374 15.996 5.79073C15.9904 5.54406 15.9348 5.30108 15.8327 5.07647C15.7306 4.85186 15.584 4.65025 15.4019 4.48382C15.2197 4.31739 15.0057 4.18958 14.7728 4.1081C14.5399 4.02663 14.293 3.99317 14.0468 4.00974C13.8006 4.02632 13.5603 4.09259 13.3404 4.20456C13.1206 4.31653 12.9257 4.47187 12.7675 4.66122C12.5775 4.88863 12.2964 5.02006 12.0001 5.02006C11.7037 5.02006 11.4226 4.88863 11.2326 4.66122C11.0745 4.47187 10.8795 4.31653 10.6597 4.20456C10.4398 4.09259 10.1995 4.02632 9.95334 4.00974ZM16.8766 8.53773L13.4143 12L16.8766 15.4624C16.8768 15.4626 16.877 15.4628 16.8772 15.463C17.0517 15.637 17.2596 15.774 17.4884 15.8656C17.7175 15.9573 17.9627 16.0017 18.2094 15.996C18.4561 15.9904 18.699 15.9348 18.9236 15.8327C19.1483 15.7306 19.3499 15.584 19.5163 15.4019C19.6827 15.2197 19.8105 15.0057 19.892 14.7728C19.9735 14.5399 20.0069 14.293 19.9904 14.0468C19.9738 13.8006 19.9075 13.5603 19.7956 13.3404C19.6836 13.1206 19.5282 12.9257 19.3389 12.7675C19.1115 12.5775 18.9801 12.2964 18.9801 12.0001C18.9801 11.7037 19.1115 11.4226 19.3389 11.2326C19.5282 11.0745 19.6836 10.8795 19.7956 10.6597C19.9075 10.4398 19.9738 10.1995 19.9904 9.95334C20.0069 9.70716 19.9735 9.46018 19.892 9.22728C19.8105 8.99438 19.6827 8.7804 19.5163 8.59825C19.3499 8.41609 19.1483 8.26953 18.9236 8.16741C18.699 8.0653 18.4561 8.00973 18.2094 8.00408C17.9627 7.99842 17.7174 8.04279 17.4884 8.1345C17.2594 8.22618 17.0514 8.36327 16.8768 8.53746C16.8767 8.53755 16.8766 8.53764 16.8766 8.53773ZM15.4624 16.8766L12 13.4143L8.54216 16.8721C8.54068 16.8736 8.5392 16.8751 8.53771 16.8766C8.36338 17.0512 8.22621 17.2593 8.1345 17.4884C8.04279 17.7174 7.99842 17.9627 8.00408 18.2094C8.00973 18.4561 8.0653 18.699 8.16741 18.9236C8.26953 19.1483 8.41609 19.3499 8.59825 19.5163C8.7804 19.6827 8.99438 19.8105 9.22728 19.892C9.46018 19.9735 9.70716 20.0069 9.95334 19.9904C10.1995 19.9738 10.4398 19.9075 10.6597 19.7956C10.8795 19.6836 11.0745 19.5282 11.2326 19.3389C11.4226 19.1115 11.7037 18.9801 12.0001 18.9801C12.2964 18.9801 12.5775 19.1115 12.7675 19.3389C12.9257 19.5282 13.1206 19.6836 13.3404 19.7956C13.5603 19.9075 13.8006 19.9738 14.0468 19.9904C14.293 20.0069 14.5399 19.9735 14.7728 19.892C15.0057 19.8105 15.2197 19.6827 15.4019 19.5163C15.584 19.3499 15.7306 19.1483 15.8327 18.9236C15.9348 18.699 15.9904 18.4561 15.996 18.2094C16.0017 17.9627 15.9573 17.7175 15.8656 17.4884C15.774 17.2595 15.637 17.0516 15.4629 16.8771C15.4627 16.8769 15.4626 16.8768 15.4624 16.8766ZM7.13924 15.4466L10.5858 12L7.1235 8.53771C6.94889 8.36338 6.74078 8.22621 6.51172 8.1345C6.28267 8.04279 6.0374 7.99842 5.79073 8.00408C5.54406 8.00973 5.30108 8.0653 5.07647 8.16741C4.85186 8.26953 4.65025 8.41609 4.48382 8.59825C4.31739 8.7804 4.18958 8.99438 4.1081 9.22728C4.02663 9.46018 3.99317 9.70716 4.00974 9.95334C4.02632 10.1995 4.09259 10.4398 4.20456 10.6597C4.31652 10.8795 4.47187 11.0745 4.66122 11.2326C5.08504 11.5868 5.14157 12.2174 4.78746 12.6412C4.72809 12.7123 4.66095 12.773 4.58831 12.8232C4.28405 13.1431 4.10459 13.5635 4.08573 14.0073C4.06511 14.4925 4.23807 14.966 4.56655 15.3236C4.89504 15.6813 5.35214 15.8938 5.83731 15.9144C6.31601 15.9347 6.78333 15.7666 7.13924 15.4466ZM2.69091 12.0159C2.59149 11.873 2.50171 11.7231 2.42234 11.5672C2.1878 11.1067 2.04899 10.6034 2.01426 10.0877C1.97954 9.57204 2.04963 9.05468 2.2203 8.56683C2.39097 8.07898 2.65869 7.63076 3.00731 7.2492C3.35593 6.86764 3.77823 6.56065 4.24872 6.34675C4.71922 6.13284 5.22817 6.01645 5.74488 6.0046C5.83259 6.00259 5.92021 6.0036 6.0076 6.0076C6.0036 5.92021 6.00259 5.83259 6.0046 5.74488C6.01645 5.22817 6.13284 4.71922 6.34675 4.24872C6.56065 3.77823 6.86764 3.35593 7.2492 3.00731C7.63076 2.65869 8.07898 2.39097 8.56683 2.2203C9.05468 2.04963 9.57204 1.97954 10.0877 2.01426C10.6034 2.04899 11.1067 2.1878 11.5672 2.42234C11.7174 2.49878 11.8619 2.58487 12.0001 2.67994C12.1382 2.58487 12.2828 2.49878 12.4329 2.42234C12.8934 2.1878 13.3967 2.04899 13.9124 2.01426C14.4281 1.97954 14.9454 2.04963 15.4333 2.2203C15.9211 2.39097 16.3694 2.65869 16.7509 3.00731C17.1325 3.35593 17.4395 3.77822 17.6534 4.24872C17.8673 4.71922 17.9837 5.22817 17.9955 5.74488C17.9975 5.83259 17.9965 5.92021 17.9925 6.0076C18.0799 6.0036 18.1675 6.00259 18.2552 6.0046C18.7719 6.01645 19.2809 6.13284 19.7514 6.34675C20.2219 6.56065 20.6442 6.86764 20.9928 7.2492C21.3414 7.63076 21.6091 8.07898 21.7798 8.56683C21.9505 9.05468 22.0206 9.57204 21.9859 10.0877C21.9511 10.6034 21.8123 11.1067 21.5778 11.5672C21.5013 11.7174 21.4152 11.8619 21.3202 12.0001C21.4152 12.1382 21.5013 12.2828 21.5778 12.4329C21.8123 12.8934 21.9511 13.3967 21.9859 13.9124C22.0206 14.4281 21.9505 14.9454 21.7798 15.4333C21.6091 15.9211 21.3414 16.3694 20.9928 16.7509C20.6442 17.1325 20.2219 17.4395 19.7514 17.6534C19.2809 17.8673 18.7719 17.9837 18.2552 17.9955C18.1675 17.9975 18.0799 17.9965 17.9925 17.9925C17.9965 18.0799 17.9975 18.1675 17.9955 18.2552C17.9837 18.7719 17.8673 19.2809 17.6534 19.7514C17.4395 20.2219 17.1325 20.6442 16.7509 20.9928C16.3694 21.3414 15.9211 21.6091 15.4333 21.7798C14.9454 21.9505 14.4281 22.0206 13.9124 21.9859C13.3967 21.9511 12.8934 21.8123 12.4329 21.5778C12.2828 21.5013 12.1382 21.4152 12.0001 21.3202C11.8619 21.4152 11.7174 21.5013 11.5672 21.5778C11.1067 21.8123 10.6034 21.9511 10.0877 21.9859C9.57204 22.0206 9.05468 21.9505 8.56683 21.7798C8.07898 21.6091 7.63076 21.3414 7.2492 20.9928C6.86764 20.6442 6.56065 20.2219 6.34675 19.7514C6.27316 19.5895 6.21111 19.4231 6.16089 19.2534L2.70711 22.7072C2.31658 23.0977 1.68342 23.0977 1.29289 22.7072C0.902369 22.3167 0.902369 21.6835 1.29289 21.293L4.82744 17.7584C4.16768 17.5631 3.56682 17.1918 3.09356 16.6765C2.40627 15.9282 2.04439 14.9375 2.08753 13.9224C2.11658 13.2389 2.32766 12.582 2.69091 12.0159Z" fill="currentColor" style="fill="currentColor";fill-opacity:1;"/>
</svg>
