<svg width="24" height="24" viewBox="0 0 24 24" fill="none" xmlns="http://www.w3.org/2000/svg">
<path fill-rule="evenodd" clip-rule="evenodd" d="M5 4C4.44772 4 4 4.44772 4 5V19C4 19.5523 4.44771 20 5 20H19C19.5523 20 20 19.5523 20 19V5C20 4.44771 19.5523 4 19 4H5ZM2 5C2 3.34315 3.34315 2 5 2H19C20.6569 2 22 3.34315 22 5V19C22 20.6569 20.6569 22 19 22H5C3.34315 22 2 20.6569 2 19V5ZM10.7071 9.29289C11.0976 9.68342 11.0976 10.3166 10.7071 10.7071L9.41421 12L10.7071 13.2929C11.0976 13.6834 11.0976 14.3166 10.7071 14.7071C10.3166 15.0976 9.68342 15.0976 9.29289 14.7071L7.29289 12.7071C6.90237 12.3166 6.90237 11.6834 7.29289 11.2929L9.29289 9.29289C9.68342 8.90237 10.3166 8.90237 10.7071 9.29289ZM13.2929 9.29289C13.6834 8.90237 14.3166 8.90237 14.7071 9.29289L16.7071 11.2929C17.0976 11.6834 17.0976 12.3166 16.7071 12.7071L14.7071 14.7071C14.3166 15.0976 13.6834 15.0976 13.2929 14.7071C12.9024 14.3166 12.9024 13.6834 13.2929 13.2929L14.5858 12L13.2929 10.7071C12.9024 10.3166 12.9024 9.68342 13.2929 9.29289Z" fill="currentColor" style="fill="currentColor";fill-opacity:1;"/>
</svg>
