<svg width="24" height="24" viewBox="0 0 24 24" fill="none" xmlns="http://www.w3.org/2000/svg">
<path fill-rule="evenodd" clip-rule="evenodd" d="M5.21964 2.07686C5.99556 1.92252 6.79983 2.00173 7.53074 2.30448C8.26164 2.60723 8.88635 3.11992 9.32588 3.77772C9.76541 4.43552 10 5.20888 10 6V8H14V6C14 5.20888 14.2346 4.43552 14.6741 3.77772C15.1136 3.11992 15.7384 2.60723 16.4693 2.30448C17.2002 2.00173 18.0044 1.92252 18.7804 2.07686C19.5563 2.2312 20.269 2.61216 20.8284 3.17157C21.3878 3.73098 21.7688 4.44372 21.9231 5.21964C22.0775 5.99556 21.9983 6.79983 21.6955 7.53074C21.3928 8.26164 20.8801 8.88635 20.2223 9.32588C19.5645 9.76541 18.7911 10 18 10H16V14H18C18.7911 14 19.5645 14.2346 20.2223 14.6741C20.8801 15.1136 21.3928 15.7384 21.6955 16.4693C21.9983 17.2002 22.0775 18.0044 21.9231 18.7804C21.7688 19.5563 21.3878 20.269 20.8284 20.8284C20.269 21.3878 19.5563 21.7688 18.7804 21.9231C18.0044 22.0775 17.2002 21.9983 16.4693 21.6955C15.7384 21.3928 15.1136 20.8801 14.6741 20.2223C14.2346 19.5645 14 18.7911 14 18V16H10V18C10 18.7911 9.76541 19.5645 9.32588 20.2223C8.88635 20.8801 8.26164 21.3928 7.53074 21.6955C6.79983 21.9983 5.99556 22.0775 5.21964 21.9231C4.44372 21.7688 3.73098 21.3878 3.17157 20.8284C2.61216 20.269 2.2312 19.5563 2.07686 18.7804C1.92252 18.0044 2.00173 17.2002 2.30448 16.4693C2.60723 15.7384 3.11992 15.1136 3.77772 14.6741C4.43552 14.2346 5.20888 14 6 14H8V10H6C5.20888 10 4.43552 9.76541 3.77772 9.32588C3.11992 8.88635 2.60723 8.26164 2.30448 7.53074C2.00173 6.79983 1.92252 5.99556 2.07686 5.21964C2.2312 4.44372 2.61216 3.73098 3.17157 3.17157C3.73098 2.61216 4.44372 2.2312 5.21964 2.07686ZM8 8V6C8 5.60444 7.8827 5.21776 7.66294 4.88886C7.44318 4.55996 7.13082 4.30362 6.76537 4.15224C6.39992 4.00087 5.99778 3.96126 5.60982 4.03843C5.22186 4.1156 4.86549 4.30608 4.58579 4.58579C4.30608 4.86549 4.1156 5.22186 4.03843 5.60982C3.96126 5.99778 4.00087 6.39992 4.15224 6.76537C4.30362 7.13082 4.55996 7.44318 4.88886 7.66294C5.21776 7.8827 5.60444 8 6 8H8ZM10 10V14H14V10H10ZM8 16H6C5.60444 16 5.21776 16.1173 4.88886 16.3371C4.55996 16.5568 4.30362 16.8692 4.15224 17.2346C4.00087 17.6001 3.96126 18.0022 4.03843 18.3902C4.1156 18.7781 4.30608 19.1345 4.58579 19.4142C4.86549 19.6939 5.22186 19.8844 5.60982 19.9616C5.99778 20.0387 6.39992 19.9991 6.76537 19.8478C7.13082 19.6964 7.44318 19.44 7.66294 19.1111C7.8827 18.7822 8 18.3956 8 18V16ZM16 16V18C16 18.3956 16.1173 18.7822 16.3371 19.1111C16.5568 19.44 16.8692 19.6964 17.2346 19.8478C17.6001 19.9991 18.0022 20.0387 18.3902 19.9616C18.7781 19.8844 19.1345 19.6939 19.4142 19.4142C19.6939 19.1345 19.8844 18.7781 19.9616 18.3902C20.0387 18.0022 19.9991 17.6001 19.8478 17.2346C19.6964 16.8692 19.44 16.5568 19.1111 16.3371C18.7822 16.1173 18.3956 16 18 16H16ZM16 8H18C18.3956 8 18.7822 7.8827 19.1111 7.66294C19.44 7.44318 19.6964 7.13082 19.8478 6.76537C19.9991 6.39992 20.0387 5.99778 19.9616 5.60982C19.8844 5.22186 19.6939 4.86549 19.4142 4.58579C19.1345 4.30608 18.7781 4.1156 18.3902 4.03843C18.0022 3.96126 17.6001 4.00087 17.2346 4.15224C16.8692 4.30362 16.5568 4.55996 16.3371 4.88886C16.1173 5.21776 16 5.60444 16 6V8Z" fill="black" style="fill:black;fill-opacity:1;"/>
</svg>
