<svg width="24" height="24" viewBox="0 0 24 24" fill="none" xmlns="http://www.w3.org/2000/svg">
<path fill-rule="evenodd" clip-rule="evenodd" d="M11.2929 1.29289C11.6834 0.902369 12.3166 0.902369 12.7071 1.29289L16.2071 4.79289C16.5976 5.18342 16.5976 5.81658 16.2071 6.20711L12.7071 9.70711C12.3166 10.0976 11.6834 10.0976 11.2929 9.70711L7.79289 6.20711C7.40237 5.81658 7.40237 5.18342 7.79289 4.79289L11.2929 1.29289ZM9.91421 5.5L12 7.58579L14.0858 5.5L12 3.41421L9.91421 5.5ZM4.79289 7.79289C5.18342 7.40237 5.81658 7.40237 6.20711 7.79289L9.70711 11.2929C10.0976 11.6834 10.0976 12.3166 9.70711 12.7071L6.20711 16.2071C5.81658 16.5976 5.18342 16.5976 4.79289 16.2071L1.29289 12.7071C0.902369 12.3166 0.902369 11.6834 1.29289 11.2929L4.79289 7.79289ZM17.7929 7.79289C18.1834 7.40237 18.8166 7.40237 19.2071 7.79289L22.7071 11.2929C23.0976 11.6834 23.0976 12.3166 22.7071 12.7071L19.2071 16.2071C18.8166 16.5976 18.1834 16.5976 17.7929 16.2071L14.2929 12.7071C13.9024 12.3166 13.9024 11.6834 14.2929 11.2929L17.7929 7.79289ZM3.41421 12L5.5 14.0858L7.58579 12L5.5 9.91421L3.41421 12ZM16.4142 12L18.5 14.0858L20.5858 12L18.5 9.91421L16.4142 12ZM9.91421 18.5L12 20.5858L14.0858 18.5L12 16.4142L9.91421 18.5ZM11.2929 14.2929C11.6834 13.9024 12.3166 13.9024 12.7071 14.2929L16.2071 17.7929C16.5976 18.1834 16.5976 18.8166 16.2071 19.2071L12.7071 22.7071C12.3166 23.0976 11.6834 23.0976 11.2929 22.7071L7.79289 19.2071C7.40237 18.8166 7.40237 18.1834 7.79289 17.7929L11.2929 14.2929Z" fill="currentColor" style="fill="currentColor";fill-opacity:1;"/>
</svg>
