<svg width="24" height="24" viewBox="0 0 24 24" fill="none" xmlns="http://www.w3.org/2000/svg">
<path fill-rule="evenodd" clip-rule="evenodd" d="M7 2C7.55228 2 8 2.44772 8 3V5C7.99992 5 8.00008 5 8 5H13.9998C13.9996 5 13.9999 5 13.9998 5H16V3C16 2.44772 16.4477 2 17 2C17.5523 2 18 2.44772 18 3V5H21C22.1046 5 23 5.89543 23 7V13C23 14.1046 22.1046 15 21 15H18V21C18 21.5523 17.5523 22 17 22C16.4477 22 16 21.5523 16 21V15C15.9998 15 16.0002 15 16 15H10.01C10.0034 15.0001 9.99674 15.0001 9.99013 15H8V21C8 21.5523 7.55228 22 7 22C6.44772 22 6 21.5523 6 21V15H3C1.89543 15 1 14.1046 1 13V7C1 5.89543 1.89543 5 3 5H6V3C6 2.44772 6.44772 2 7 2ZM4.41421 7L10.4142 13H13.5858L7.58579 7H4.41421ZM10.4142 7L16.4142 13H19.5858L13.5858 7H10.4142ZM16.4142 7L21 11.5858V7H16.4142ZM7.58579 13L3 8.41421V13H7.58579Z" fill="currentColor" style="fill="currentColor";fill-opacity:1;"/>
</svg>
