<svg width="24" height="24" viewBox="0 0 24 24" fill="none" xmlns="http://www.w3.org/2000/svg">
<path fill-rule="evenodd" clip-rule="evenodd" d="M8 1C8.55228 1 9 1.44772 9 2V3H15V2C15 1.44772 15.4477 1 16 1C16.5523 1 17 1.44772 17 2V3H19C20.6569 3 22 4.34315 22 6V20C22 21.6569 20.6569 23 19 23H5C3.34315 23 2 21.6569 2 20V6C2 4.34315 3.34315 3 5 3H7V2C7 1.44772 7.44772 1 8 1ZM5 5C4.44772 5 4 5.44772 4 6V20C4 20.5523 4.44771 21 5 21H19C19.5523 21 20 20.5523 20 20V6C20 5.44771 19.5523 5 19 5H5ZM12 9C10.8954 9 10 9.89543 10 11C10 12.1046 10.8954 13 12 13C13.1046 13 14 12.1046 14 11C14 9.89543 13.1046 9 12 9ZM14.7994 13.8571C15.5403 13.1311 16 12.1192 16 11C16 8.79086 14.2091 7 12 7C9.79086 7 8 8.79086 8 11C8 12.1192 8.45969 13.1311 9.20057 13.8571C8.93825 14.0344 8.69156 14.2374 8.46447 14.4645C7.52678 15.4021 7 16.6739 7 18C7 18.5523 7.44772 19 8 19C8.55228 19 9 18.5523 9 18C9 17.2043 9.31607 16.4413 9.87868 15.8787C10.4413 15.3161 11.2044 15 12 15C12.7956 15 13.5587 15.3161 14.1213 15.8787C14.6839 16.4413 15 17.2043 15 18C15 18.5523 15.4477 19 16 19C16.5523 19 17 18.5523 17 18C17 16.6739 16.4732 15.4021 15.5355 14.4645C15.3084 14.2374 15.0617 14.0344 14.7994 13.8571Z" fill="currentColor" style="fill="currentColor";fill-opacity:1;"/>
</svg>
