<svg width="24" height="24" viewBox="0 0 24 24" fill="none" xmlns="http://www.w3.org/2000/svg">
<path fill-rule="evenodd" clip-rule="evenodd" d="M12 3C7.02944 3 3 7.02944 3 12C3 16.9706 7.02944 21 12 21C16.9706 21 21 16.9706 21 12C21 7.02944 16.9706 3 12 3ZM1 12C1 5.92487 5.92487 1 12 1C18.0751 1 23 5.92487 23 12C23 18.0751 18.0751 23 12 23C5.92487 23 1 18.0751 1 12ZM12.5872 9.0574C12.0054 8.94192 11.4023 9.00152 10.8544 9.22868C10.3064 9.45584 9.83803 9.84036 9.50853 10.3336C9.17904 10.8269 9.00317 11.4068 9.00317 12C9.00317 12.5932 9.17904 13.1731 9.50853 13.6664C9.83803 14.1596 10.3064 14.5442 10.8544 14.7713C11.4023 14.9985 12.0054 15.0581 12.5872 14.9426C13.1691 14.8271 13.7036 14.5417 14.1233 14.1225C14.5141 13.7322 15.1472 13.7325 15.5375 14.1233C15.9278 14.514 15.9275 15.1472 15.5367 15.5375C14.8373 16.2362 13.9463 16.7119 12.9766 16.9043C12.0068 17.0968 11.0018 16.9975 10.0885 16.6189C9.17517 16.2403 8.3946 15.5994 7.84544 14.7773C7.29628 13.9551 7.00317 12.9887 7.00317 12C7.00317 11.0113 7.29628 10.0449 7.84544 9.22273C8.3946 8.4006 9.17517 7.75974 10.0885 7.38114C11.0018 7.00254 12.0068 6.90319 12.9766 7.09567C13.9463 7.28814 14.8373 7.7638 15.5367 8.4625C15.9275 8.85281 15.9278 9.48597 15.5375 9.87671C15.1472 10.2675 14.5141 10.2678 14.1233 9.8775C13.7036 9.45828 13.1691 9.17289 12.5872 9.0574Z" fill="currentColor" style="fill="currentColor";fill-opacity:1;"/>
</svg>
