<svg width="24" height="24" viewBox="0 0 24 24" fill="none" xmlns="http://www.w3.org/2000/svg">
<path fill-rule="evenodd" clip-rule="evenodd" d="M12 3C7.02944 3 3 7.02944 3 12C3 16.9706 7.02944 21 12 21C16.9706 21 21 16.9706 21 12C21 7.02944 16.9706 3 12 3ZM1 12C1 5.92487 5.92487 1 12 1C18.0751 1 23 5.92487 23 12C23 18.0751 18.0751 23 12 23C5.92487 23 1 18.0751 1 12ZM11.0234 7.09567C11.9931 6.90319 12.9982 7.00254 13.9115 7.38114C14.8248 7.75974 15.6053 8.4006 16.1545 9.22273C16.7037 10.0449 16.9968 11.0113 16.9968 12C16.9968 12.9887 16.7037 13.9551 16.1545 14.7773C15.6053 15.5994 14.8248 16.2403 13.9115 16.6189C12.9982 16.9975 11.9931 17.0968 11.0234 16.9043C10.0536 16.7119 9.16269 16.2362 8.46321 15.5375C8.07247 15.1472 8.07211 14.514 8.46242 14.1233C8.85273 13.7325 9.48589 13.7322 9.87663 14.1225C10.2963 14.5417 10.8309 14.8271 11.4127 14.9426C11.9946 15.0581 12.5976 14.9985 13.1456 14.7713C13.6936 14.5442 14.1619 14.1596 14.4914 13.6664C14.8209 13.1731 14.9968 12.5932 14.9968 12C14.9968 11.4068 14.8209 10.8269 14.4914 10.3336C14.1619 9.84036 13.6936 9.45584 13.1456 9.22868C12.5976 9.00152 11.9946 8.94192 11.4127 9.0574C10.8309 9.17289 10.2963 9.45828 9.87663 9.8775C9.48589 10.2678 8.85273 10.2675 8.46242 9.87671C8.07211 9.48597 8.07247 8.85281 8.46321 8.4625C9.16269 7.7638 10.0536 7.28814 11.0234 7.09567Z" fill="currentColor" style="fill="currentColor";fill-opacity:1;"/>
</svg>
