<svg width="24" height="24" viewBox="0 0 24 24" fill="none" xmlns="http://www.w3.org/2000/svg">
<path fill-rule="evenodd" clip-rule="evenodd" d="M8.87868 1.87868C9.44129 1.31607 10.2044 1 11 1H13C13.7956 1 14.5587 1.31607 15.1213 1.87868C15.6839 2.44129 16 3.20435 16 4V8H20C20.7957 8 21.5587 8.31607 22.1213 8.87868C22.6839 9.44129 23 10.2043 23 11V13C23 13.7957 22.6839 14.5587 22.1213 15.1213C21.5587 15.6839 20.7957 16 20 16H16V20C16 20.7957 15.6839 21.5587 15.1213 22.1213C14.5587 22.6839 13.7957 23 13 23H11C9.34772 23 8 21.6523 8 20V16H4C2.34772 16 1 14.6523 1 13V11C1 10.2044 1.31607 9.44129 1.87868 8.87868C2.44129 8.31607 3.20435 8 4 8H8V4C8 3.20435 8.31607 2.44129 8.87868 1.87868ZM11 3C10.7348 3 10.4804 3.10536 10.2929 3.29289C10.1054 3.48043 10 3.73478 10 4V9C10 9.55228 9.55228 10 9 10H4C3.73478 10 3.48043 10.1054 3.29289 10.2929C3.10536 10.4804 3 10.7348 3 11V13C3 13.5477 3.45228 14 4 14H9C9.55228 14 10 14.4477 10 15V20C10 20.5477 10.4523 21 11 21H13C13.2652 21 13.5196 20.8946 13.7071 20.7071C13.8946 20.5196 14 20.2652 14 20V15C14 14.4477 14.4477 14 15 14H20C20.2652 14 20.5196 13.8946 20.7071 13.7071C20.8946 13.5196 21 13.2652 21 13V11C21 10.7348 20.8946 10.4804 20.7071 10.2929C20.5196 10.1054 20.2652 10 20 10H15C14.4477 10 14 9.55228 14 9V4C14 3.73478 13.8946 3.48043 13.7071 3.29289C13.5196 3.10536 13.2652 3 13 3H11Z" fill="currentColor" style="fill="currentColor";fill-opacity:1;"/>
</svg>
