<svg width="24" height="24" viewBox="0 0 24 24" fill="none" xmlns="http://www.w3.org/2000/svg">
<path fill-rule="evenodd" clip-rule="evenodd" d="M1.54104 3.11152C1.95309 2.89868 2.45741 2.99707 2.75924 3.3492L7.83576 9.27181L11.1317 3.50385C11.3098 3.19228 11.6411 2.99999 12 2.99999C12.3588 2.99999 12.6902 3.19228 12.8682 3.50385L16.1642 9.27181L21.2407 3.3492C21.5425 2.99707 22.0469 2.89868 22.4589 3.11152C22.871 3.32437 23.0826 3.79259 22.9701 4.24253L19.9701 16.2425C19.8588 16.6877 19.4588 17 19 17H4.99998C4.54111 17 4.14113 16.6877 4.02984 16.2425L1.02984 4.24253C0.917353 3.79259 1.12899 3.32437 1.54104 3.11152ZM3.99752 7.86704L5.78076 15H18.2192L20.0024 7.86704L16.7592 11.6508C16.5476 11.8977 16.2291 12.0263 15.9054 11.9955C15.5816 11.9647 15.2931 11.7785 15.1317 11.4961L12 6.01555L8.86822 11.4961C8.70688 11.7785 8.41832 11.9647 8.09458 11.9955C7.77084 12.0263 7.45236 11.8977 7.24072 11.6508L3.99752 7.86704ZM3.99998 20C3.99998 19.4477 4.44769 19 4.99998 19H19C19.5523 19 20 19.4477 20 20C20 20.5523 19.5523 21 19 21H4.99998C4.44769 21 3.99998 20.5523 3.99998 20Z" fill="currentColor" style="fill="currentColor";fill-opacity:1;"/>
</svg>
