<svg width="24" height="24" viewBox="0 0 24 24" fill="none" xmlns="http://www.w3.org/2000/svg">
<path fill-rule="evenodd" clip-rule="evenodd" d="M22 7.05991C22.5523 7.05991 23 7.50762 23 8.05991V13.891C22.9994 14.4023 22.8682 14.9049 22.6188 15.3512C22.3694 15.7975 22.0101 16.1726 21.575 16.441L11.6239 22.5617C11.1317 22.8638 10.562 23.0179 9.98459 23.0046C9.40803 22.9913 8.84754 22.8122 8.37022 22.4885C8.36953 22.4881 8.36884 22.4876 8.36815 22.4871L2.32183 18.4196L2.32 18.4184C1.91287 18.1432 1.57958 17.7722 1.34941 17.3381C1.11938 16.9041 0.999398 16.4204 1 15.9292C1 15.9295 1 15.929 1 15.9292L1 10.1088C1.00057 9.59756 1.13177 9.09494 1.38117 8.64865C1.65059 8.16653 2.25982 7.99411 2.74194 8.26352C3.22405 8.53294 3.39647 9.14218 3.12706 9.62429C3.044 9.77292 3.00027 9.9403 3 10.1106C3 10.1107 3 10.1104 3 10.1106L3 15.9314C2.99975 16.0952 3.03975 16.2566 3.11647 16.4013C3.19303 16.5457 3.30383 16.6692 3.43915 16.7608L3.43818 16.7602L2.88001 17.5899L3.44 16.7614L9.49186 20.8327C9.65111 20.9408 9.8382 21.0007 10.0307 21.0052C10.2229 21.0096 10.4123 20.9585 10.5762 20.858L20.525 14.7388L21.05 15.5899L20.5261 14.7381C20.6709 14.6487 20.7899 14.5241 20.8729 14.3755C20.9561 14.2268 20.9998 14.0592 21 13.8888V13.8899H22L21 13.8888V8.05991C21 7.50762 21.4477 7.05991 22 7.05991Z" fill="currentColor" style="fill="currentColor";fill-opacity:1;"/>
<path fill-rule="evenodd" clip-rule="evenodd" d="M12.3768 1.43767C12.8691 1.13552 13.438 0.981877 14.0154 0.995181C14.5918 1.00846 15.1521 1.18754 15.6293 1.51096C15.6302 1.51153 15.631 1.5121 15.6318 1.51267L21.68 5.57141C22.0871 5.8466 22.4204 6.21759 22.6506 6.65176C22.8808 7.08593 23.0007 7.57 23 8.06141C22.9992 8.6137 22.5508 9.06074 21.9985 9.05991C21.6596 9.05939 21.3603 8.89037 21.1799 8.63222L11 14.5741V21.9999C11 22.5522 10.5523 22.9999 10 22.9999C9.44771 22.9999 9 22.5522 9 21.9999V14.5538L2.81811 10.6851C2.63691 10.9424 2.33746 11.1103 1.9989 11.1099C1.44661 11.1093 0.999394 10.6611 1 10.1088C1.00057 9.59756 1.13177 9.09494 1.38117 8.64865C1.63057 8.20236 1.98988 7.82721 2.425 7.5588L12.3768 1.43767ZM3.89741 9.00119L13.4232 3.14215C13.423 3.14221 13.4233 3.14208 13.4232 3.14215C13.5871 3.04156 13.777 2.99022 13.9693 2.99465C14.1618 2.99908 14.3489 3.05898 14.5082 3.16715L20.1216 6.93418L10.018 12.8315L3.89741 9.00119Z" fill="currentColor" style="fill="currentColor";fill-opacity:1;"/>
</svg>
