<svg width="24" height="24" viewBox="0 0 24 24" fill="none" xmlns="http://www.w3.org/2000/svg">
<path fill-rule="evenodd" clip-rule="evenodd" d="M12.0136 1.8356C12.094 1.35341 12.5112 1 13 1H15C15.5523 1 16 1.44772 16 2C16 2.55228 15.5523 3 15 3H13.8471L13.1805 7H17.9831C17.9935 6.99984 18.0039 6.99984 18.0144 7H19C19.5523 7 20 7.44772 20 8C20 8.55228 19.5523 9 19 9H18.8704L17.2804 20.4179L17.2802 20.42C17.1783 21.1408 16.8178 21.8 16.2658 22.2747C15.7152 22.7482 15.0116 23.0059 14.2855 23H9.75452C9.02844 23.0059 8.32481 22.7482 7.7742 22.2747C7.22242 21.8001 6.86196 21.1412 6.75994 20.4207C6.75991 20.4204 6.75997 20.4209 6.75994 20.4207L5.1324 9H5C4.44772 9 4 8.55228 4 8C4 7.44772 4.44772 7 5 7H5.98532C5.99597 6.99983 6.00659 6.99983 6.01718 7H11.1529L12.0136 1.8356ZM11.9836 9H7.15261L7.8208 13.6887C8.37018 13.562 8.93347 13.4976 9.5 13.4976C10.4911 13.4976 11.4723 13.6948 12.3864 14.0777C13.0558 14.3582 13.7743 14.5026 14.5 14.5026C15.0499 14.5026 15.5956 14.4197 16.119 14.2575L16.8511 9H12.0188C12.0071 9.00021 11.9954 9.00021 11.9836 9ZM15.8228 16.3845C15.3873 16.4629 14.9446 16.5026 14.5 16.5026C13.5089 16.5026 12.5277 16.3054 11.6136 15.9224C10.9442 15.642 10.2257 15.4976 9.5 15.4976C9.02788 15.4976 8.55883 15.5587 8.10437 15.6786L8.74016 20.14C8.77412 20.3803 8.89429 20.6001 9.07828 20.7583C9.26226 20.9165 9.4975 21.0024 9.74016 21L9.75 21L14.2998 21C14.5425 21.0024 14.7777 20.9165 14.9617 20.7583C15.1455 20.6003 15.2656 20.3809 15.2997 20.1409C15.2997 20.1412 15.2998 20.1406 15.2997 20.1409L15.8228 16.3845Z" fill="currentColor" style="fill="currentColor";fill-opacity:1;"/>
</svg>
