<svg width="24" height="24" viewBox="0 0 24 24" fill="none" xmlns="http://www.w3.org/2000/svg">
<path fill-rule="evenodd" clip-rule="evenodd" d="M2.29289 2.29289C2.68342 1.90237 3.31658 1.90237 3.70711 2.29289L6.38231 4.9681C7.92199 3.73647 9.87499 3 12 3C14.125 3 16.078 3.73647 17.6177 4.9681L20.2929 2.29289C20.6834 1.90237 21.3166 1.90237 21.7071 2.29289C22.0976 2.68342 22.0976 3.31658 21.7071 3.70711L19.0319 6.38231C20.2635 7.92199 21 9.87499 21 12C21 14.125 20.2635 16.078 19.0319 17.6177L21.7071 20.2929C22.0976 20.6834 22.0976 21.3166 21.7071 21.7071C21.3166 22.0976 20.6834 22.0976 20.2929 21.7071L17.6177 19.0319C16.078 20.2635 14.125 21 12 21C9.87499 21 7.92199 20.2635 6.38231 19.0319L3.70711 21.7071C3.31658 22.0976 2.68342 22.0976 2.29289 21.7071C1.90237 21.3166 1.90237 20.6834 2.29289 20.2929L4.9681 17.6177C3.73647 16.078 3 14.125 3 12C3 9.87499 3.73647 7.92199 4.9681 6.38231L2.29289 3.70711C1.90237 3.31658 1.90237 2.68342 2.29289 2.29289ZM12 5C8.13401 5 5 8.13401 5 12C5 15.866 8.13401 19 12 19C15.866 19 19 15.866 19 12C19 8.13401 15.866 5 12 5Z" fill="currentColor" style="fill="currentColor";fill-opacity:1;"/>
</svg>
