<svg width="24" height="24" viewBox="0 0 24 24" fill="none" xmlns="http://www.w3.org/2000/svg">
<path fill-rule="evenodd" clip-rule="evenodd" d="M4.00001 5C4.00001 5.00124 4.00018 5.00585 4.00306 5.01529C4.00646 5.02644 4.01483 5.04845 4.03508 5.08143C4.07753 5.15057 4.16409 5.25453 4.32625 5.38232C4.65642 5.64253 5.19617 5.9206 5.95227 6.17264C7.45403 6.67322 9.5923 7 12 7C14.4077 7 16.546 6.67322 18.0477 6.17264C18.8038 5.9206 19.3436 5.64253 19.6738 5.38232C19.8359 5.25453 19.9225 5.15057 19.9649 5.08143C19.9852 5.04845 19.9936 5.02644 19.997 5.01529C19.9999 5.00571 20 5.00139 20 5.00022C20 5.00016 20 5.00027 20 5.00022C20 4.99949 20.0001 4.99506 19.997 4.98471C19.9936 4.97356 19.9852 4.95155 19.9649 4.91857C19.9225 4.84943 19.8359 4.74547 19.6738 4.61768C19.3436 4.35747 18.8038 4.0794 18.0477 3.82736C16.546 3.32678 14.4077 3 12 3C9.5923 3 7.45403 3.32678 5.95227 3.82736C5.19617 4.0794 4.65642 4.35747 4.32625 4.61768C4.16409 4.74547 4.07753 4.84943 4.03508 4.91857C4.01483 4.95155 4.00646 4.97356 4.00306 4.98471C3.99999 4.99479 4 4.99911 4.00001 5ZM20 7.5266V8C20 8.55228 20.4477 9 21 9C21.5523 9 22 8.55228 22 8V5C22 4.14805 21.4811 3.49559 20.9117 3.04685C20.331 2.58923 19.5528 2.22085 18.6802 1.93C16.9246 1.3448 14.5629 1 12 1C9.43715 1 7.07542 1.3448 5.31982 1.93C4.44724 2.22085 3.66897 2.58923 3.0883 3.04685C2.5189 3.49559 2.00001 4.14805 2.00001 5C2.00001 5 2.00001 5 2.00001 5L2.00004 11.9917C2.00001 11.9955 2 11.9993 2.00001 12.0031C2.00002 12.0052 2.00003 12.0073 2.00004 12.0094L2.00007 18.9951C1.99171 19.9918 2.69381 20.7307 3.45128 21.222C4.24419 21.7362 5.32489 22.1387 6.5594 22.4308C7.80591 22.7259 9.22855 22.9128 10.7085 22.9817C12.1896 23.0506 13.7003 23.0001 15.1171 22.8331C15.6656 22.7685 16.0578 22.2714 15.9932 21.723C15.9286 21.1745 15.4315 20.7822 14.883 20.8469C13.5794 21.0005 12.1782 21.0479 10.8015 20.9838C9.42363 20.9197 8.12632 20.7464 7.02001 20.4846C5.90171 20.2199 5.06568 19.8852 4.53953 19.544C4.27893 19.375 4.13353 19.2295 4.05997 19.1273C4.02483 19.0785 4.01025 19.0453 4.00447 19.0288C4.00159 19.0206 4.0006 19.0156 4.00027 19.0137L4.00002 19.0118L4.00005 14.5229C4.67483 14.8686 5.49086 15.1525 6.3926 15.3758C7.58833 15.6719 8.95633 15.8665 10.3879 15.9502C11.8208 16.0339 13.2926 16.005 14.6897 15.865C15.2392 15.81 15.6401 15.3199 15.585 14.7703C15.53 14.2208 15.0399 13.8199 14.4903 13.875C13.2009 14.0041 11.8347 14.0313 10.5045 13.9536C9.17306 13.8758 7.92943 13.6959 6.87334 13.4344C5.80563 13.17 5.01227 12.8424 4.51348 12.5122C4.26669 12.3488 4.12871 12.2089 4.05848 12.1105C4.02486 12.0635 4.01055 12.0313 4.00471 12.0148C4.00179 12.0066 4.00072 12.0015 4.00033 11.9994L4.00004 11.9974L4.00002 7.5266C4.40124 7.73178 4.84667 7.91229 5.31982 8.07C7.07542 8.6552 9.43715 9 12 9C14.5629 9 16.9246 8.6552 18.6802 8.07C19.1534 7.91229 19.5988 7.73177 20 7.5266ZM21.5145 11.1425C21.9881 11.4267 22.1416 12.0409 21.8575 12.5145L19.7662 16H22C22.3603 16 22.6927 16.1938 22.8702 16.5073C23.0477 16.8208 23.0429 17.2056 22.8575 17.5145L19.8575 22.5145C19.5734 22.9881 18.9591 23.1416 18.4855 22.8575C18.0119 22.5733 17.8584 21.9591 18.1425 21.4855L20.2338 18H18C17.6397 18 17.3073 17.8062 17.1298 17.4927C16.9523 17.1792 16.9572 16.7944 17.1425 16.4855L20.1425 11.4855C20.4267 11.0119 21.0409 10.8584 21.5145 11.1425Z" fill="currentColor" style="fill="currentColor";fill-opacity:1;"/>
</svg>
