<svg width="24" height="24" viewBox="0 0 24 24" fill="none" xmlns="http://www.w3.org/2000/svg">
<path fill-rule="evenodd" clip-rule="evenodd" d="M3.00258 11C3.55487 11.0014 4.00143 11.4503 4 12.0026L4.00059 12.0064C4.00131 12.0099 4.00331 12.0179 4.00872 12.0309C4.01978 12.0573 4.04579 12.1059 4.10381 12.1739C4.22458 12.3156 4.44913 12.5007 4.82322 12.702C5.57317 13.1055 6.71885 13.4645 8.16317 13.7034C8.70805 13.7935 9.07672 14.3083 8.9866 14.8532C8.89649 15.398 8.38172 15.7667 7.83684 15.6766C6.27581 15.4184 4.89266 15.0104 3.87565 14.4633C2.92956 13.9543 1.99703 13.1497 2.00001 11.9974C2.00143 11.4451 2.4503 10.9986 3.00258 11ZM3.00098 18C3.55326 18.0005 4.00054 18.4487 4 19.001C4.00008 19.0017 4.0004 19.0042 4.00109 19.007C4.00242 19.0125 4.00599 19.0247 4.01534 19.0439C4.03466 19.0835 4.07779 19.1512 4.16807 19.2417C4.35445 19.4284 4.68471 19.6551 5.20266 19.8856C6.23662 20.3459 7.76112 20.7084 9.56718 20.8847C10.1169 20.9384 10.5189 21.4275 10.4653 21.9772C10.4116 22.5268 9.92249 22.9289 9.37282 22.8753C7.44374 22.6869 5.68833 22.291 4.38934 21.7128C3.74082 21.4241 3.17276 21.0755 2.7526 20.6546C2.32927 20.2305 1.99935 19.6707 2 18.999C2.00054 18.4467 2.44869 17.9995 3.00098 18Z" fill="currentColor" style="fill="currentColor";fill-opacity:1;"/>
<path fill-rule="evenodd" clip-rule="evenodd" d="M4 5C4.00001 5.00124 4.00018 5.00585 4.00306 5.01529C4.00645 5.02644 4.01483 5.04845 4.03508 5.08143C4.07752 5.15057 4.16408 5.25453 4.32624 5.38232C4.65642 5.64253 5.19616 5.9206 5.95227 6.17264C7.45402 6.67322 9.59229 7 12 7C14.4077 7 16.546 6.67322 18.0477 6.17264C18.8038 5.9206 19.3436 5.64253 19.6738 5.38232C19.8359 5.25453 19.9225 5.15057 19.9649 5.08143C19.9852 5.04845 19.9935 5.02644 19.9969 5.01529C19.9999 5.00571 20 5.00139 20 5.00022C20 5.00016 20 5.00027 20 5.00022C20 4.99949 20.0001 4.99506 19.9969 4.98471C19.9935 4.97356 19.9852 4.95155 19.9649 4.91857C19.9225 4.84943 19.8359 4.74547 19.6738 4.61768C19.3436 4.35747 18.8038 4.0794 18.0477 3.82736C16.546 3.32678 14.4077 3 12 3C9.59229 3 7.45402 3.32678 5.95227 3.82736C5.19616 4.0794 4.65642 4.35747 4.32624 4.61768C4.16408 4.74547 4.07752 4.84943 4.03508 4.91857C4.01483 4.95155 4.00645 4.97356 4.00306 4.98471C3.99998 4.99479 4 4.99911 4 5ZM20 7.5266V9.3C20 9.85229 20.4477 10.3 21 10.3C21.5523 10.3 22 9.85229 22 9.3V5C22 4.14805 21.4811 3.49559 20.9117 3.04685C20.331 2.58923 19.5528 2.22085 18.6802 1.93C16.9246 1.3448 14.5629 1 12 1C9.43715 1 7.07541 1.3448 5.31981 1.93C4.44724 2.22085 3.66896 2.58923 3.08829 3.04685C2.51889 3.49559 2 4.14805 2 5L2 18.999C2 19.5513 2.44772 20 3 20C3.55229 20 4 19.5533 4 19.001V7.5266C4.40123 7.73177 4.84666 7.91229 5.31981 8.07C7.07541 8.6552 9.43715 9 12 9C14.5629 9 16.9246 8.6552 18.6802 8.07C19.1533 7.91229 19.5988 7.73177 20 7.5266ZM12 11C12.5523 11 13 11.4477 13 12V13.5858L13.3829 13.2029C14.4335 12.1522 15.8952 11.5 17.5 11.5C18.9587 11.5 20.3576 12.0795 21.3891 13.1109C22.4205 14.1424 23 15.5413 23 17C23 18.2593 22.6038 19.4867 21.8675 20.5083C21.1311 21.5299 20.092 22.2939 18.8974 22.6921C17.7027 23.0903 16.413 23.1026 15.211 22.7271C14.009 22.3516 12.9556 21.6074 12.2 20.6C11.8686 20.1582 11.9582 19.5314 12.4 19.2C12.8418 18.8686 13.4686 18.9582 13.8 19.4C14.3037 20.0716 15.006 20.5677 15.8073 20.8181C16.6087 21.0684 17.4685 21.0602 18.2649 20.7947C19.0614 20.5292 19.7541 20.0199 20.245 19.3388C20.7359 18.6578 21 17.8395 21 17C21 16.0717 20.6313 15.1815 19.9749 14.5251C19.3185 13.8687 18.4283 13.5 17.5 13.5C16.4448 13.5 15.4865 13.9278 14.7971 14.6171L14.4142 15H16C16.5523 15 17 15.4477 17 16C17 16.5523 16.5523 17 16 17H12C11.4477 17 11 16.5523 11 16V12C11 11.4477 11.4477 11 12 11Z" fill="currentColor" style="fill="currentColor";fill-opacity:1;"/>
</svg>
