<svg width="24" height="24" viewBox="0 0 24 24" fill="none" xmlns="http://www.w3.org/2000/svg">
<path fill-rule="evenodd" clip-rule="evenodd" d="M8.29289 4.29289C8.48043 4.10536 8.73478 4 9 4H20C20.7957 4 21.5587 4.31607 22.1213 4.87868C22.6839 5.44129 23 6.20435 23 7V17C23 17.7957 22.6839 18.5587 22.1213 19.1213C21.5587 19.6839 20.7957 20 20 20H9C8.73478 20 8.48043 19.8946 8.29289 19.7071L1.29289 12.7071C0.902369 12.3166 0.902369 11.6834 1.29289 11.2929L8.29289 4.29289ZM9.41421 6L3.41421 12L9.41421 18H20C20.2652 18 20.5196 17.8946 20.7071 17.7071C20.8946 17.5196 21 17.2652 21 17V7C21 6.73478 20.8946 6.48043 20.7071 6.29289C20.5196 6.10536 20.2652 6 20 6H9.41421ZM11.2929 8.29289C11.6834 7.90237 12.3166 7.90237 12.7071 8.29289L15 10.5858L17.2929 8.29289C17.6834 7.90237 18.3166 7.90237 18.7071 8.29289C19.0976 8.68342 19.0976 9.31658 18.7071 9.70711L16.4142 12L18.7071 14.2929C19.0976 14.6834 19.0976 15.3166 18.7071 15.7071C18.3166 16.0976 17.6834 16.0976 17.2929 15.7071L15 13.4142L12.7071 15.7071C12.3166 16.0976 11.6834 16.0976 11.2929 15.7071C10.9024 15.3166 10.9024 14.6834 11.2929 14.2929L13.5858 12L11.2929 9.70711C10.9024 9.31658 10.9024 8.68342 11.2929 8.29289Z" fill="currentColor" style="fill="currentColor";fill-opacity:1;"/>
</svg>
