<svg width="24" height="24" viewBox="0 0 24 24" fill="none" xmlns="http://www.w3.org/2000/svg">
<path fill-rule="evenodd" clip-rule="evenodd" d="M11.0293 3.75877C11.0102 3.83603 11 3.91683 11 4C11 4.55228 11.4477 5 12 5C12.5523 5 13 4.55228 13 4C13 3.91683 12.9898 3.83603 12.9707 3.75877C12.9059 3.66256 12.8576 3.55505 12.8292 3.44085C12.6495 3.17487 12.3452 3 12 3C11.6548 3 11.3505 3.17487 11.1708 3.44085C11.1424 3.55505 11.0941 3.66256 11.0293 3.75877ZM9.04459 4.51817C5.50853 5.70531 3 9.06064 3 13C3 13.2652 3.10536 13.5195 3.29289 13.7071C3.33869 13.7529 3.38847 13.7938 3.44143 13.8294C3.55488 13.8577 3.66197 13.9057 3.75798 13.9702C3.83649 13.9898 3.91772 14 4 14C4.26522 14 4.51957 13.8946 4.70711 13.7071C4.89464 13.5195 5 13.2652 5 13V12C5 11.2043 5.31607 10.4412 5.87868 9.87863C6.44129 9.31602 7.20435 8.99995 8 8.99995C8.79565 8.99995 9.55871 9.31602 10.1213 9.87863C10.6839 10.4412 11 11.2043 11 12V16C11 16.2652 11.1054 16.5195 11.2929 16.7071C11.4804 16.8946 11.7348 17 12 17C12.2652 17 12.5196 16.8946 12.7071 16.7071C12.8946 16.5195 13 16.2652 13 16V12C13 11.2043 13.3161 10.4412 13.8787 9.87863C14.4413 9.31602 15.2043 8.99995 16 8.99995C16.7957 8.99995 17.5587 9.31602 18.1213 9.87863C18.6839 10.4412 19 11.2043 19 12V13C19 13.2652 19.1054 13.5195 19.2929 13.7071C19.4804 13.8946 19.7348 14 20 14C20.0822 14 20.1634 13.9898 20.2419 13.9703C20.3379 13.9057 20.4451 13.8577 20.5586 13.8294C20.6116 13.7937 20.6613 13.7528 20.7071 13.7071C20.8946 13.5195 21 13.2652 21 13C21 9.06064 18.4915 5.70531 14.9554 4.51817C14.7099 5.92808 13.4801 7 12 7C10.5199 7 9.29007 5.92808 9.04459 4.51817ZM14.4821 2.31449C19.4035 3.39887 23 7.7946 23 13C23 13.7956 22.6839 14.5587 22.1213 15.1213C21.9794 15.2632 21.8247 15.3895 21.6599 15.4989C21.114 17.5385 19.935 19.3576 18.2863 20.6903C16.5068 22.1286 14.288 22.9133 12 22.9133C9.7119 22.9133 7.49305 22.1286 5.71363 20.6903C4.06493 19.3576 2.88586 17.5384 2.33999 15.4988C2.17526 15.3894 2.02059 15.2632 1.87868 15.1213C1.31607 14.5587 1 13.7956 1 13C1 7.7946 4.59653 3.39887 9.5179 2.31449C10.0577 1.52108 10.968 1 12 1C13.032 1 13.9423 1.52108 14.4821 2.31449ZM4.59478 15.9404C5.10213 17.1815 5.91645 18.2825 6.9709 19.1349C8.39443 20.2855 10.1695 20.9133 12 20.9133C13.8304 20.9133 15.6055 20.2855 17.029 19.1349C18.0835 18.2825 18.8978 17.1815 19.4051 15.9404C18.8311 15.8243 18.299 15.5416 17.8787 15.1213C17.3161 14.5587 17 13.7956 17 13V12C17 11.7347 16.8946 11.4804 16.7071 11.2928C16.5196 11.1053 16.2652 11 16 11C15.7348 11 15.4804 11.1053 15.2929 11.2928C15.1054 11.4804 15 11.7347 15 12V16C15 16.7956 14.6839 17.5587 14.1213 18.1213C13.5587 18.6839 12.7957 19 12 19C11.2043 19 10.4413 18.6839 9.87868 18.1213C9.31607 17.5587 9 16.7956 9 16V12C9 11.7347 8.89464 11.4804 8.70711 11.2928C8.51957 11.1053 8.26522 11 8 11C7.73478 11 7.48043 11.1053 7.29289 11.2928C7.10536 11.4804 7 11.7347 7 12V13C7 13.7956 6.68393 14.5587 6.12132 15.1213C5.70102 15.5416 5.16884 15.8243 4.59478 15.9404Z" fill="currentColor" style="fill="currentColor";fill-opacity:1;"/>
</svg>
