<svg width="24" height="24" viewBox="0 0 24 24" fill="none" xmlns="http://www.w3.org/2000/svg">
<path fill-rule="evenodd" clip-rule="evenodd" d="M10.696 1.25991C11.1099 1.08832 11.5536 1 12.0017 1C12.292 1 12.6276 1.07437 12.8155 1.11952C12.9257 1.14598 13.0234 1.17218 13.0935 1.19171C13.1287 1.20155 13.1576 1.20987 13.1783 1.21592L13.2032 1.22323L13.2106 1.22547L13.2143 1.22657C13.2144 1.2266 13.2146 1.22667 12.9246 2.18369L13.2143 1.22657C13.2458 1.23612 13.2771 1.2473 13.3075 1.25991C13.5757 1.37106 13.8572 1.56828 14.0135 1.68193C14.1051 1.74855 14.1853 1.81016 14.2426 1.85504C14.2714 1.87764 14.2949 1.89639 14.3117 1.90991L14.3319 1.92617L14.3379 1.93109L14.3399 1.9327L14.3409 1.93352C14.3409 1.93357 14.3411 1.93372 13.7067 2.70675L14.3409 1.93352C14.3662 1.95429 14.3907 1.97649 14.4139 1.99964L22.0035 9.58928C22.0034 9.58916 22.0036 9.5894 22.0035 9.58928C22.3203 9.9059 22.5721 10.2822 22.7436 10.696C22.7562 10.7264 22.7673 10.7574 22.7768 10.7889L21.8198 11.0789C22.7768 10.7889 22.7768 10.7888 22.7768 10.7889L22.7773 10.7904L22.778 10.7929L22.7803 10.8003L22.7876 10.8252C22.7936 10.8459 22.8019 10.8748 22.8118 10.91C22.8313 10.9801 22.8575 11.0778 22.884 11.1879C22.9291 11.3758 23.0035 11.7115 23.0035 12.0017C23.0035 12.4498 22.9152 12.8936 22.7436 13.3075C22.6324 13.5757 22.4352 13.8572 22.3216 14.0135C22.2549 14.1051 22.1933 14.1853 22.1485 14.2426C22.1259 14.2714 22.1071 14.2949 22.0936 14.3117L22.0773 14.3319L22.0724 14.3379L22.0708 14.3399L22.07 14.3409C22.0699 14.3409 22.0698 14.3411 21.2967 13.7067L22.07 14.3409C22.0492 14.3662 22.027 14.3907 22.0039 14.4139L14.4142 22.0035C14.4141 22.0036 14.4143 22.0034 14.4142 22.0035C14.0976 22.3203 13.7213 22.5721 13.3075 22.7436C12.8936 22.9152 12.4498 23.0035 12.0017 23.0035C11.5536 23.0035 11.1099 22.9152 10.696 22.7436C10.2822 22.5721 9.90626 22.3207 9.58964 22.0039C9.58952 22.0037 9.58976 22.004 9.58964 22.0039L2 14.4142C1.68298 14.0975 1.43149 13.7215 1.25991 13.3075C1.08832 12.8936 1 12.4498 1 12.0017C1 11.5536 1.08832 11.1099 1.25991 10.696C1.43149 10.282 1.68298 9.90597 2 9.58928L9.58928 2C9.90597 1.68298 10.282 1.43149 10.696 1.25991ZM20.5515 13.0378C20.5581 13.0294 20.5658 13.0197 20.5744 13.0088C20.6086 12.9651 20.6551 12.9046 20.704 12.8372C20.7538 12.7689 20.8015 12.6998 20.8403 12.638C20.8773 12.5791 20.8928 12.5482 20.8956 12.5424C20.8958 12.542 20.8961 12.5415 20.8956 12.5424C20.9665 12.3713 21.0035 12.187 21.0035 12.0017C21.0035 12.0022 21.0036 12.0028 21.0035 12.0017C21.003 11.9953 21.0006 11.96 20.9889 11.8914C20.9767 11.8195 20.9591 11.7374 20.9393 11.6552C20.9199 11.5742 20.9001 11.5006 20.8852 11.4471C20.8823 11.4366 20.8796 11.427 20.8771 11.4184C20.8071 11.2643 20.7099 11.124 20.59 11.0042L13.0378 3.45203C13.0294 3.44535 13.0197 3.43766 13.0088 3.4291C12.9651 3.39486 12.9046 3.34844 12.8372 3.29945C12.7689 3.24974 12.6998 3.20202 12.638 3.16317C12.6072 3.14384 12.5841 3.1304 12.5682 3.12156C12.5644 3.12049 12.5605 3.11939 12.5564 3.11826C12.5029 3.10335 12.4293 3.08363 12.3483 3.06417C12.2661 3.04442 12.184 3.0268 12.1121 3.01457C12.0435 3.00293 12.009 3.00054 12.0026 3.00009C12.0016 3.00002 12.0022 3.00009 12.0026 3.00009C11.8174 3.00009 11.633 3.03652 11.4618 3.10747C11.2907 3.17842 11.1352 3.28241 11.0042 3.41349L3.41385 11.0039C3.28277 11.1348 3.17842 11.2907 3.10747 11.4618C3.03652 11.633 3 11.8165 3 12.0017C3 12.187 3.03652 12.3705 3.10747 12.5417C3.17842 12.7128 3.28241 12.8683 3.41349 12.9993L11.0039 20.5896C11.1348 20.7207 11.2907 20.8251 11.4618 20.896C11.633 20.967 11.8165 21.0035 12.0017 21.0035C12.187 21.0035 12.3705 20.967 12.5417 20.896C12.7128 20.8251 12.8683 20.7211 12.9993 20.59L20.5515 13.0378Z" fill="currentColor" style="fill="currentColor";fill-opacity:1;"/>
</svg>
