<svg width="24" height="24" viewBox="0 0 24 24" fill="none" xmlns="http://www.w3.org/2000/svg">
<g clip-path="url(#clip0_168_2260)">
<path fill-rule="evenodd" clip-rule="evenodd" d="M5.69984 4.2857C5.72534 4.31757 5.75248 4.34751 5.78106 4.37548C5.91806 4.54661 6 4.76374 6 5C6 5.24793 5.90977 5.47479 5.76037 5.64953C5.74066 5.6664 5.72146 5.68416 5.70281 5.70281C5.68416 5.72146 5.6664 5.74066 5.64953 5.76037C5.47479 5.90977 5.24793 6 5 6C4.76374 6 4.54661 5.91806 4.37548 5.78106C4.34751 5.75248 4.31757 5.72534 4.2857 5.69984C4.10897 5.51948 4 5.27246 4 5C4 4.44772 4.44772 4 5 4C5.27246 4 5.51948 4.10897 5.69984 4.2857ZM7.83594 4.01901C7.94225 4.3264 8 4.65646 8 5C8 5.46315 7.89505 5.90178 7.70763 6.29342L17.7066 16.2924C18.0982 16.105 18.5369 16 19 16C19.3435 16 19.6736 16.0577 19.981 16.1641C20.7918 14.6127 21.1358 12.8517 20.9596 11.0965C20.7522 9.03046 19.8368 7.09967 18.3686 5.63142C16.9003 4.16316 14.9695 3.24776 12.9035 3.04038C11.1483 2.8642 9.38731 3.2082 7.83594 4.01901ZM21.5628 17.4397C22.69 15.4609 23.1783 13.1748 22.9496 10.8968C22.6961 8.37159 21.5773 6.01174 19.7828 4.2172C17.9882 2.42267 15.6284 1.30385 13.1032 1.05038C10.8252 0.821717 8.53905 1.31001 6.56027 2.43716C6.10567 2.1598 5.5715 2 5 2C3.34315 2 2 3.34315 2 5C2 5.5715 2.1598 6.10567 2.43716 6.56027C1.31001 8.53905 0.821717 10.8252 1.05038 13.1032C1.30385 15.6284 2.42267 17.9882 4.2172 19.7828C6.01174 21.5773 8.37159 22.6961 10.8968 22.9496C13.1748 23.1783 15.4609 22.69 17.4397 21.5628C17.8943 21.8402 18.4285 22 19 22C20.6569 22 22 20.6569 22 19C22 18.4285 21.8402 17.8943 21.5628 17.4397ZM19.6246 18.219C19.6525 18.2475 19.6824 18.2746 19.7143 18.3001C19.891 18.4805 20 18.7275 20 19C20 19.5523 19.5523 20 19 20C18.7275 20 18.4805 19.891 18.3001 19.7143C18.2746 19.6824 18.2475 19.6525 18.219 19.6246C18.0819 19.4534 18 19.2363 18 19C18 18.7515 18.0907 18.5242 18.2407 18.3493C18.26 18.3327 18.2788 18.3153 18.297 18.297C18.3153 18.2788 18.3327 18.26 18.3493 18.2407C18.5242 18.0907 18.7515 18 19 18C19.2363 18 19.4534 18.0819 19.6246 18.219ZM16.2924 17.7066L6.29342 7.70763C5.90178 7.89505 5.46315 8 5 8C4.65646 8 4.3264 7.94226 4.01901 7.83594C3.20819 9.38731 2.8642 11.1483 3.04038 12.9035C3.24776 14.9695 4.16316 16.9003 5.63142 18.3686C7.09967 19.8368 9.03046 20.7522 11.0965 20.9596C12.8517 21.1358 14.6127 20.7918 16.1641 19.981C16.0577 19.6736 16 19.3435 16 19C16 18.5369 16.105 18.0982 16.2924 17.7066Z" fill="currentColor" style="fill="currentColor";fill-opacity:1;"/>
</g>
<defs>
<clipPath id="clip0_168_2260">
<rect width="24" height="24" fill="white" style="fill:white;fill-opacity:1;"/>
</clipPath>
</defs>
</svg>
