<svg width="24" height="24" viewBox="0 0 24 24" fill="none" xmlns="http://www.w3.org/2000/svg">
<path fill-rule="evenodd" clip-rule="evenodd" d="M12.7504 1.83737C13.3456 1.30069 14.1186 1.00366 14.92 1.00366C15.7214 1.00366 16.4944 1.30069 17.0896 1.83737C17.1004 1.8471 17.111 1.85707 17.1214 1.86727L22.1214 6.78727C22.1356 6.80123 22.1493 6.81562 22.1627 6.83041C22.6994 7.42562 22.9964 8.19862 22.9964 9.00005C22.9964 9.80149 22.6994 10.5745 22.1627 11.1697C22.1511 11.1825 22.1393 11.195 22.1271 11.2072L18.6271 14.7072C18.2366 15.0977 17.6034 15.0977 17.2129 14.7072C16.8224 14.3166 16.8224 13.6835 17.2129 13.2929L20.6919 9.8139C20.8881 9.58841 20.9964 9.29941 20.9964 9.00005C20.9964 8.70184 20.8889 8.41391 20.6942 8.18881L15.7364 3.31037C15.5106 3.11278 15.2205 3.00366 14.92 3.00366C14.6206 3.00366 14.3316 3.11195 14.1062 3.30811L10.7071 6.70716C10.3166 7.09768 9.68342 7.09768 9.29289 6.70716C8.90237 6.31663 8.90237 5.68347 9.29289 5.29294L12.7129 1.87294C12.7251 1.86077 12.7376 1.8489 12.7504 1.83737ZM14 6C14 5.44772 14.4477 5 15 5H15.01C15.5623 5 16.01 5.44772 16.01 6C16.01 6.55228 15.5623 7 15.01 7H15C14.4477 7 14 6.55228 14 6ZM17 9C17 8.44772 17.4477 8 18 8H18.01C18.5623 8 19.01 8.44772 19.01 9C19.01 9.55228 18.5623 10 18.01 10H18C17.4477 10 17 9.55228 17 9ZM4 11C3.44772 11 3 11.4477 3 12V20C3 20.5523 3.44772 21 4 21H12C12.5523 21 13 20.5523 13 20V12C13 11.4477 12.5523 11 12 11H4ZM1 12C1 10.3431 2.34315 9 4 9H12C13.6569 9 15 10.3431 15 12V20C15 21.6569 13.6569 23 12 23H4C2.34315 23 1 21.6569 1 20V12ZM10.01 15H10C9.44772 15 9 14.5523 9 14C9 13.4477 9.44772 13 10 13H10.01C10.5623 13 11.01 13.4477 11.01 14C11.01 14.5523 10.5623 15 10.01 15ZM5 18C5 17.4477 5.44772 17 6 17H6.01C6.56228 17 7.01 17.4477 7.01 18C7.01 18.5523 6.56228 19 6.01 19H6C5.44772 19 5 18.5523 5 18Z" fill="currentColor" style="fill="currentColor";fill-opacity:1;"/>
</svg>
