<svg width="24" height="24" viewBox="0 0 24 24" fill="none" xmlns="http://www.w3.org/2000/svg">
<path fill-rule="evenodd" clip-rule="evenodd" d="M5 4C4.44772 4 4 4.44772 4 5V19C4 19.5523 4.44771 20 5 20H19C19.5523 20 20 19.5523 20 19V5C20 4.44771 19.5523 4 19 4H5ZM2 5C2 3.34315 3.34315 2 5 2H19C20.6569 2 22 3.34315 22 5V19C22 20.6569 20.6569 22 19 22H5C3.34315 22 2 20.6569 2 19V5ZM7 8C7 7.44772 7.44772 7 8 7H8.01C8.56228 7 9.01 7.44772 9.01 8C9.01 8.55228 8.56228 9 8.01 9H8C7.44772 9 7 8.55228 7 8ZM15 8C15 7.44772 15.4477 7 16 7H16.01C16.5623 7 17.01 7.44772 17.01 8C17.01 8.55228 16.5623 9 16.01 9H16C15.4477 9 15 8.55228 15 8ZM11 12C11 11.4477 11.4477 11 12 11H12.01C12.5623 11 13.01 11.4477 13.01 12C13.01 12.5523 12.5623 13 12.01 13H12C11.4477 13 11 12.5523 11 12ZM7 16C7 15.4477 7.44772 15 8 15H8.01C8.56228 15 9.01 15.4477 9.01 16C9.01 16.5523 8.56228 17 8.01 17H8C7.44772 17 7 16.5523 7 16ZM15 16C15 15.4477 15.4477 15 16 15H16.01C16.5623 15 17.01 15.4477 17.01 16C17.01 16.5523 16.5623 17 16.01 17H16C15.4477 17 15 16.5523 15 16Z" fill="currentColor" style="fill="currentColor";fill-opacity:1;"/>
</svg>
