<svg width="24" height="24" viewBox="0 0 24 24" fill="none" xmlns="http://www.w3.org/2000/svg">
<path fill-rule="evenodd" clip-rule="evenodd" d="M15.669 1.25671C16.0795 1.62617 16.1128 2.25846 15.7433 2.66897C15.637 2.78704 15.535 2.90496 15.4369 3.02274L17.7071 5.2929C18.0976 5.68343 18.0976 6.31659 17.7071 6.70712C17.3166 7.09764 16.6834 7.09764 16.2929 6.70712L14.2887 4.70293C14.0136 5.20887 13.7988 5.71303 13.6304 6.21616L14.7071 7.2929C15.0976 7.68343 15.0976 8.31659 14.7071 8.70712C14.3166 9.09764 13.6834 9.09764 13.2929 8.70712L11.7929 7.20712C11.5393 6.95354 11.4409 6.58359 11.5351 6.23754C11.9827 4.59164 12.7986 2.95118 14.2567 1.33104C14.6262 0.920534 15.2585 0.887255 15.669 1.25671ZM1.29289 1.2929C1.68342 0.902378 2.31658 0.902378 2.70711 1.2929L22.7071 21.2929C23.0976 21.6834 23.0976 22.3166 22.7071 22.7071C22.3166 23.0976 21.6834 23.0976 21.2929 22.7071L11.5861 13.0003C10.5038 13.0024 9.45809 13.0187 8.43454 13.1435C8.57048 13.5004 8.49468 13.9195 8.20711 14.2071C7.81658 14.5976 7.18342 14.5976 6.79289 14.2071L6.21537 13.6296C5.70867 13.7993 5.20498 14.0147 4.70242 14.2882L4.70711 14.2929C5.09763 14.6834 5.09763 15.3166 4.70711 15.7071C4.31658 16.0976 3.68342 16.0976 3.29289 15.7071L3.02269 15.4369C2.90485 15.535 2.78697 15.6371 2.669 15.7433C2.25851 16.1127 1.62622 16.0795 1.25674 15.669C0.887261 15.2585 0.920508 14.6262 1.331 14.2567C4.1265 11.7405 6.95294 11.1683 9.62402 11.0382L1.29289 2.70712C0.90237 2.31659 0.90237 1.68343 1.29289 1.2929ZM22.7433 8.33104C23.1128 8.74155 23.0795 9.37384 22.669 9.7433C21.0488 11.2014 19.4084 12.0173 17.7625 12.465C17.4164 12.5591 17.0465 12.4607 16.7929 12.2071L15.7929 11.2071C15.4024 10.8166 15.4024 10.1834 15.7929 9.7929C16.1834 9.40238 16.8166 9.40238 17.2071 9.7929L17.7839 10.3696C18.287 10.2012 18.7911 9.98644 19.2971 9.7113L19.2929 9.70712C18.9024 9.31659 18.9024 8.68343 19.2929 8.2929C19.6834 7.90238 20.3166 7.90238 20.7071 8.2929L20.9773 8.56307C21.0951 8.46503 21.213 8.36297 21.331 8.25671C21.7415 7.88726 22.3738 7.92053 22.7433 8.33104ZM9.29289 15.2929C9.68342 14.9024 10.3166 14.9024 10.7071 15.2929L12.2071 16.7929C12.4607 17.0465 12.5591 17.4164 12.4649 17.7625C12.0173 19.4084 11.2014 21.0488 9.7433 22.669C9.37384 23.0795 8.74155 23.1128 8.33104 22.7433C7.92053 22.3738 7.88725 21.7416 8.25671 21.331C8.36297 21.213 8.46503 21.0951 8.56306 20.9773L6.29289 18.7071C5.90237 18.3166 5.90237 17.6834 6.29289 17.2929C6.68342 16.9024 7.31658 16.9024 7.70711 17.2929L9.7113 19.2971C9.98643 18.7911 10.2012 18.287 10.3696 17.7839L9.29289 16.7071C8.90237 16.3166 8.90237 15.6834 9.29289 15.2929Z" fill="currentColor" style="fill="currentColor";fill-opacity:1;"/>
</svg>
