<svg width="24" height="24" viewBox="0 0 24 24" fill="none" xmlns="http://www.w3.org/2000/svg">
<path fill-rule="evenodd" clip-rule="evenodd" d="M5.87868 3.87868C6.44129 3.31607 7.20435 3 8 3H16C16.7956 3 17.5587 3.31607 18.1213 3.87868C18.6839 4.44129 19 5.20435 19 6V19H22C22.5523 19 23 19.4477 23 20C23 20.5523 22.5523 21 22 21H2C1.44772 21 1 20.5523 1 20C1 19.4477 1.44772 19 2 19H5V6C5 5.20435 5.31607 4.44129 5.87868 3.87868ZM7 19H17V6C17 5.73478 16.8946 5.48043 16.7071 5.29289C16.5196 5.10536 16.2652 5 16 5H8C7.73478 5 7.48043 5.10536 7.29289 5.29289C7.10536 5.48043 7 5.73478 7 6V19ZM14 11C14.5523 11 15 11.4477 15 12V12.01C15 12.5623 14.5523 13.01 14 13.01C13.4477 13.01 13 12.5623 13 12.01V12C13 11.4477 13.4477 11 14 11Z" fill="currentColor" style="fill="currentColor";fill-opacity:1;"/>
</svg>
