<svg width="24" height="24" viewBox="0 0 24 24" fill="none" xmlns="http://www.w3.org/2000/svg">
<path fill-rule="evenodd" clip-rule="evenodd" d="M11.2071 4.2422C11.0784 4.4352 11 4.67498 11 5C11 5.63986 11.0209 6.24597 11.0601 6.81974C11.0778 6.88061 11.0899 6.94406 11.0959 7.00956C11.1027 7.0847 11.101 7.15866 11.0916 7.23048C11.3581 10.3387 12.1716 12.4546 13.0821 13.8203C13.9403 15.1077 14.8505 15.6937 15.4833 15.9035C15.5943 15.9127 15.7002 15.94 15.7979 15.9824C15.8725 15.9945 15.9402 16 16 16C16.5539 16 17.7814 15.5251 18.918 13.8203C20.0315 12.15 21 9.35753 21 5C21 4.67498 20.9216 4.4352 20.793 4.2422C20.6601 4.04294 20.4342 3.83511 20.0528 3.64443C19.2618 3.24891 17.9489 3 16 3C14.0511 3 12.7383 3.24891 11.9472 3.64443C11.5659 3.83511 11.3399 4.04294 11.2071 4.2422ZM16.3441 17.9813C17.7202 17.8338 19.325 16.8153 20.5821 14.9297C21.9685 12.85 23 9.64247 23 5C23 4.32502 22.8284 3.6898 22.4571 3.1328C22.0899 2.58206 21.5659 2.16489 20.9472 1.85557C19.7383 1.25109 18.0511 1 16 1C13.9489 1 12.2618 1.25109 11.0528 1.85557C10.4342 2.16489 9.91012 2.58206 9.54296 3.1328C9.17163 3.6898 9.00001 4.32502 9.00001 5C9.00001 5.43644 9.00913 5.86019 9.0268 6.27152C7.98118 6.5257 6.8364 7.02578 5.53207 7.71631C5.52257 7.72134 5.51316 7.72652 5.50382 7.73185C3.70538 8.75954 2.36704 9.83033 1.6253 10.9656C1.24613 11.546 1.00481 12.1711 0.965774 12.83C0.926379 13.4951 1.09736 14.1265 1.43574 14.7032C3.75711 18.7258 6.26278 20.9884 8.50718 22.0967C10.7043 23.1817 12.7531 23.1928 13.9965 22.4682C15.1533 21.8188 16.1084 20.2099 16.3441 17.9813ZM14.3712 17.6135C13.6141 17.2665 12.842 16.686 12.135 15.8726C11.8864 16.0766 11.544 16.1571 11.2128 16.0577C10.7741 15.9261 10.2233 16.182 10.0649 16.763C9.91956 17.2959 9.36982 17.61 8.83699 17.4647C8.30417 17.3194 7.99003 16.7696 8.13535 16.2368C8.49108 14.9324 9.63074 14.0661 10.8768 14.0236C10.5563 13.4242 10.2638 12.7513 10.0101 12C10.0101 12 10.0101 12 10.01 12H10C9.44773 12 9.00001 11.5523 9.00001 11C9.00001 10.6298 9.2012 10.3065 9.50021 10.1337C9.37627 9.55762 9.27269 8.94592 9.19254 8.29719C8.46643 8.51088 7.58807 8.89155 6.48215 9.47632C4.78901 10.4455 3.78156 11.3219 3.29963 12.0595C3.0663 12.4167 2.97637 12.7104 2.96227 12.9483C2.94863 13.1786 3.00179 13.4209 3.1619 13.6931L3.16618 13.7004L3.16615 13.7004C5.34423 17.4757 7.58777 19.4121 9.39274 20.3035C11.2394 21.2154 12.5353 21.0074 12.9929 20.7382C13 20.734 13.0071 20.7299 13.0143 20.7259C13.4249 20.4978 14.2114 19.5389 14.3712 17.6135ZM13 6C13 5.44772 13.4477 5 14 5H14.01C14.5623 5 15.01 5.44772 15.01 6C15.01 6.55228 14.5623 7 14.01 7H14C13.4477 7 13 6.55228 13 6ZM17 6C17 5.44772 17.4477 5 18 5H18.01C18.5623 5 19.01 5.44772 19.01 6C19.01 6.55228 18.5623 7 18.01 7H18C17.4477 7 17 6.55228 17 6ZM13.893 9.1928C14.2835 8.80227 14.9167 8.80227 15.3072 9.1928C15.7167 9.60227 16.2835 9.60227 16.693 9.1928C17.0835 8.80227 17.7167 8.80227 18.1072 9.1928C18.4977 9.58332 18.4977 10.2165 18.1072 10.607C16.9167 11.7975 15.0835 11.7975 13.893 10.607C13.5025 10.2165 13.5025 9.58332 13.893 9.1928ZM5.50001 13.1001C5.50001 12.5478 5.94773 12.1001 6.50001 12.1001H6.51001C7.0623 12.1001 7.51001 12.5478 7.51001 13.1001C7.51001 13.6524 7.0623 14.1001 6.51001 14.1001H6.50001C5.94773 14.1001 5.50001 13.6524 5.50001 13.1001Z" fill="black" style="fill:black;fill-opacity:1;"/>
</svg>
