<svg width="24" height="24" viewBox="0 0 24 24" fill="none" xmlns="http://www.w3.org/2000/svg">
<path fill-rule="evenodd" clip-rule="evenodd" d="M4 3C3.73478 3 3.48043 3.10536 3.29289 3.29289C3.10536 3.48043 3 3.73478 3 4V8C3 8.26522 3.10536 8.51957 3.29289 8.70711C3.48043 8.89464 3.73478 9 4 9H4.97758C4.99198 8.99969 5.00643 8.99968 5.02091 9H8.97758C8.99198 8.99969 9.00643 8.99968 9.02091 9H13V3H4ZM15 5V7H17V5H15ZM19 7C19 7.53043 18.7893 8.03914 18.4142 8.41421C18.0391 8.78929 17.5304 9 17 9H15C15 9.52725 14.8199 10.0443 14.4321 10.4321C14.0443 10.8199 13.5272 11 13 11V13C13 13.5272 12.8199 14.0443 12.4321 14.4321C12.0443 14.8199 11.5272 15 11 15H8.78078L8.28078 17H10C10.5272 17 11.0443 17.1801 11.4321 17.5679C11.8199 17.9557 12 18.4728 12 19V21C12 21.5272 11.8199 22.0443 11.4321 22.4321C11.0443 22.8199 10.5272 23 10 23H5C2.74772 23 1 21.2523 1 19C1 18.4728 1.18011 17.9557 1.56789 17.5679C1.74784 17.3879 1.95563 17.2527 2.17936 17.1595L3.72244 10.9871C3.0286 10.9227 2.37549 10.6181 1.87868 10.1213C1.31607 9.55871 1 8.79565 1 8V4C1 3.20435 1.31607 2.44129 1.87868 1.87868C2.44129 1.31607 3.20435 1 4 1H13C13.5272 1 14.0443 1.18011 14.4321 1.56789C14.8199 1.95567 15 2.47275 15 3H17C17.5304 3 18.0391 3.21071 18.4142 3.58579C18.7893 3.96086 19 4.46957 19 5H22C22.5523 5 23 5.44772 23 6C23 6.55228 22.5523 7 22 7H19ZM5.78078 11L4.28078 17H6.21922L7.02478 13.7778C7.02799 13.7636 7.0315 13.7496 7.0353 13.7357L7.71922 11H5.78078ZM9.78078 11L9.28078 13H11V11H9.78078ZM6.97908 19H3C3 20.1477 3.85228 21 5 21H10V19H7.02243C7.00802 19.0003 6.99357 19.0003 6.97908 19Z" fill="currentColor" style="fill="currentColor";fill-opacity:1;"/>
</svg>
