<svg width="24" height="24" viewBox="0 0 24 24" fill="none" xmlns="http://www.w3.org/2000/svg">
<path fill-rule="evenodd" clip-rule="evenodd" d="M14.0042 2.02003C14.4793 2.02199 14.8875 2.358 14.9807 2.8239C15.4326 5.0838 16.8009 7.28004 18.6248 8.73915C20.8037 10.4823 21.9993 12.648 22.0001 15.0177C22.0001 15.0185 22.0001 15.0192 22.0001 15.02H21.0001L22.0001 15.0159C22.0001 15.0165 22.0001 15.0171 22.0001 15.0177C22.0063 16.5974 21.5434 18.1434 20.6702 19.4599C19.7967 20.7768 18.5518 21.8048 17.0933 22.4134C15.6349 23.022 14.0286 23.1838 12.478 22.8784C10.9275 22.573 9.5025 21.8141 8.38378 20.6979C7.99281 20.3078 7.9921 19.6747 8.38219 19.2837C8.77227 18.8927 9.40544 18.892 9.7964 19.2821C10.6347 20.1186 11.7026 20.6873 12.8645 20.9161C14.0265 21.145 15.2302 21.0237 16.3231 20.5676C17.416 20.1116 18.3489 19.3413 19.0035 18.3544C19.6581 17.3675 20.005 16.2084 20.0001 15.0242L20.0001 15.02C20.0001 13.3906 19.1958 11.7572 17.3754 10.3009C15.9775 9.1826 14.8043 7.70827 13.9987 6.07047C14.4432 5.16819 14.773 4.21202 14.979 3.22421L14.0001 3.02002L13.0195 3.21614C13.2155 4.19609 13.5501 5.15862 13.9987 6.07047C13.82 6.43301 13.6229 6.78686 13.4078 7.13055C13.1147 7.5987 12.4977 7.74069 12.0296 7.44768C11.5614 7.15468 11.4194 6.53764 11.7124 6.06949C12.3375 5.07078 12.7806 3.96919 13.0212 2.81583C13.1182 2.35071 13.5291 2.01807 14.0042 2.02003ZM7 4.30005C7.47668 4.30005 7.8871 4.63651 7.98058 5.10393C8.22292 6.31564 8.95318 7.49472 9.92213 8.28518C11.2407 9.36088 12 10.726 12 12.25C12 15.0094 9.76516 17.3 7 17.3C4.23484 17.3 2 15.0094 2 12.25C2 10.744 2.74214 9.35371 4.0853 8.27918C5.05247 7.50545 5.77579 6.3221 6.01942 5.10393C6.1129 4.63651 6.52332 4.30005 7 4.30005ZM7.0031 7.94528C6.55461 8.66949 5.98735 9.31879 5.3347 9.84092C4.37786 10.6064 4 11.4561 4 12.25C4 13.9307 5.36516 15.3 7 15.3C8.63484 15.3 10 13.9307 10 12.25C10 11.4541 9.61928 10.6192 8.65787 9.83491C8.01647 9.31166 7.45197 8.66602 7.0031 7.94528Z" fill="currentColor" style="fill="currentColor";fill-opacity:1;"/>
</svg>
