<svg width="24" height="24" viewBox="0 0 24 24" fill="none" xmlns="http://www.w3.org/2000/svg">
<path fill-rule="evenodd" clip-rule="evenodd" d="M1.29289 1.29289C1.68342 0.902369 2.31658 0.902369 2.70711 1.29289L5.5248 4.11059C7.35048 3.40422 9.59765 3 12 3C14.4024 3 16.6495 3.40422 18.4752 4.11059L21.2929 1.29289C21.6834 0.902369 22.3166 0.902369 22.7071 1.29289C23.0976 1.68342 23.0976 2.31658 22.7071 2.70711L20.3672 5.04706C21.8759 5.99931 23 7.33629 23 9V17C23 18.8967 21.5176 20.4303 19.5183 21.43C17.4722 22.453 14.7674 23 12 23C9.23261 23 6.52778 22.453 4.48172 21.43C2.48244 20.4303 1 18.8967 1 17V9C1 7.33629 2.12409 5.99931 3.63284 5.04706L1.29289 2.70711C0.902369 2.31658 0.902369 1.68342 1.29289 1.29289ZM5.09276 6.50697C3.59773 7.32383 3 8.24795 3 9C3 9.79788 3.67281 10.7894 5.37615 11.6411C7.01967 12.4629 9.36016 13 12 13C14.6398 13 16.9803 12.4629 18.6239 11.6411C20.3272 10.7894 21 9.79788 21 9C21 8.24795 20.4023 7.32383 18.9072 6.50697L14.7071 10.7071C14.3166 11.0976 13.6834 11.0976 13.2929 10.7071C12.9024 10.3166 12.9024 9.68342 13.2929 9.29289L16.9027 5.68313C15.4976 5.25529 13.8199 5 12 5C10.1801 5 8.50243 5.25529 7.09734 5.68313L10.7071 9.29289C11.0976 9.68342 11.0976 10.3166 10.7071 10.7071C10.3166 11.0976 9.68342 11.0976 9.29289 10.7071L5.09276 6.50697ZM21 12.5123C20.5499 12.8588 20.0474 13.1654 19.5183 13.43C19.0487 13.6647 18.5406 13.8766 18 14.0632V19.9252C18.2166 19.8354 18.4249 19.7406 18.6239 19.6411C20.3753 18.7654 21 17.7555 21 17V12.5123ZM16 20.5574V14.6061C15.0536 14.8006 14.0458 14.927 13 14.9765V20.9736C14.0535 20.9179 15.0667 20.7751 16 20.5574ZM11 20.9736V14.9765C9.95421 14.927 8.94642 14.8006 8 14.6061V20.5574C8.93329 20.7751 9.94654 20.9179 11 20.9736ZM6 19.9252V14.0632C5.45941 13.8766 4.95126 13.6647 4.48172 13.43C3.95257 13.1654 3.45012 12.8588 3 12.5123V17C3 17.7555 3.6247 18.7654 5.37615 19.6411C5.57514 19.7406 5.78337 19.8354 6 19.9252Z" fill="currentColor" style="fill="currentColor";fill-opacity:1;"/>
</svg>
