<svg width="24" height="24" viewBox="0 0 24 24" fill="none" xmlns="http://www.w3.org/2000/svg">
<path fill-rule="evenodd" clip-rule="evenodd" d="M5.29289 1.29289C5.68342 0.902369 6.31658 0.902369 6.70711 1.29289C7.09763 1.68342 7.09763 2.31658 6.70711 2.70711L4.70757 4.70664C4.70742 4.7068 4.70726 4.70695 4.70711 4.70711C4.70695 4.70726 4.7068 4.70742 4.70664 4.70757L2.70711 6.70711C2.31658 7.09763 1.68342 7.09763 1.29289 6.70711C0.902369 6.31658 0.902369 5.68342 1.29289 5.29289L2.58579 4L2.29289 3.70711C1.90237 3.31658 1.90237 2.68342 2.29289 2.29289C2.68342 1.90237 3.31658 1.90237 3.70711 2.29289L4 2.58579L5.29289 1.29289ZM10.7071 2.29289C11.0976 2.68342 11.0976 3.31658 10.7071 3.70711L7.91421 6.5L17.5 16.0858L20.2929 13.2929C20.6834 12.9024 21.3166 12.9024 21.7071 13.2929C22.0976 13.6834 22.0976 14.3166 21.7071 14.7071L18.2079 18.2063C18.2077 18.2066 18.2074 18.2068 18.2071 18.2071C18.2068 18.2074 18.2066 18.2077 18.2063 18.2079L14.7071 21.7071C14.3166 22.0976 13.6834 22.0976 13.2929 21.7071C12.9024 21.3166 12.9024 20.6834 13.2929 20.2929L16.0858 17.5L6.5 7.91421L3.70711 10.7071C3.31658 11.0976 2.68342 11.0976 2.29289 10.7071C1.90237 10.3166 1.90237 9.68342 2.29289 9.29289L5.79243 5.79336C5.79258 5.7932 5.79274 5.79305 5.79289 5.79289C5.79305 5.79274 5.7932 5.79258 5.79336 5.79243L9.29289 2.29289C9.68342 1.90237 10.3166 1.90237 10.7071 2.29289ZM22.7071 17.2929C23.0976 17.6834 23.0976 18.3166 22.7071 18.7071L21.4142 20L21.7071 20.2929C22.0976 20.6834 22.0976 21.3166 21.7071 21.7071C21.3166 22.0976 20.6834 22.0976 20.2929 21.7071L20 21.4142L18.7071 22.7071C18.3166 23.0976 17.6834 23.0976 17.2929 22.7071C16.9024 22.3166 16.9024 21.6834 17.2929 21.2929L19.2921 19.2937C19.2923 19.2934 19.2926 19.2932 19.2929 19.2929C19.2932 19.2926 19.2934 19.2923 19.2937 19.2921L21.2929 17.2929C21.6834 16.9024 22.3166 16.9024 22.7071 17.2929Z" fill="currentColor" style="fill="currentColor";fill-opacity:1;"/>
</svg>
