<svg width="24" height="24" viewBox="0 0 24 24" fill="none" xmlns="http://www.w3.org/2000/svg">
<path fill-rule="evenodd" clip-rule="evenodd" d="M15.0548 3.62347C14.1655 3.15707 13.1656 2.94299 12.1634 3.00446C11.1611 3.06593 10.1948 3.40059 9.36928 3.97217C8.9152 4.28654 8.29225 4.1733 7.97787 3.71922C7.66349 3.26514 7.77674 2.64219 8.23082 2.32781C9.35659 1.54839 10.6742 1.09203 12.0409 1.00821C13.4076 0.924389 14.7712 1.21631 15.9838 1.85232C17.1963 2.48833 18.2117 3.44416 18.9197 4.61616C19.6276 5.78817 20.0013 7.13164 20 8.50089L19 8.49999H20C20 8.50029 20 8.50059 20 8.50089C19.9999 10.3324 19.4988 11.7089 18.7354 12.8247C18.4235 13.2805 17.8012 13.3972 17.3454 13.0853C16.8896 12.7734 16.7729 12.1511 17.0847 11.6953C17.6212 10.9113 18 9.92801 18 8.49999V8.49909C18.001 7.49497 17.727 6.50977 17.2078 5.65029C16.6886 4.79082 15.944 4.08988 15.0548 3.62347ZM1.29289 1.29289C1.68342 0.902369 2.31658 0.902369 2.70711 1.29289L7.05443 5.64022C7.06272 5.64822 7.07086 5.65636 7.07885 5.66463L12.5106 11.0964C12.5218 11.1071 12.5327 11.118 12.5433 11.1291L15.7407 14.3265C15.7445 14.3302 15.7482 14.3339 15.7519 14.3377L22.7071 21.2929C23.0976 21.6834 23.0976 22.3166 22.7071 22.7071C22.3166 23.0976 21.6834 23.0976 21.2929 22.7071L15.0029 16.4171C14.3459 17.0671 14 17.6666 14 18.5C14 19.091 13.8836 19.6761 13.6575 20.2221C13.4313 20.7681 13.0998 21.2642 12.682 21.682C12.2641 22.0999 11.768 22.4314 11.2221 22.6575C10.6761 22.8836 10.0909 23 9.5 23C8.90905 23 8.32389 22.8836 7.77793 22.6575C7.23196 22.4314 6.73588 22.0999 6.31802 21.682C5.90016 21.2642 5.56869 20.7681 5.34254 20.2221C5.1164 19.6761 5 19.091 5 18.5C5 17.9478 5.44772 17.5 6 17.5C6.55228 17.5 7 17.9478 7 18.5C7 18.8283 7.06466 19.1534 7.1903 19.4567C7.31594 19.7601 7.50009 20.0357 7.73223 20.2678C7.96438 20.5 8.23998 20.6841 8.54329 20.8097C8.84661 20.9354 9.1717 21 9.5 21C9.8283 21 10.1534 20.9354 10.4567 20.8097C10.76 20.6841 11.0356 20.5 11.2678 20.2678C11.4999 20.0357 11.6841 19.7601 11.8097 19.4567C11.9353 19.1534 12 18.8283 12 18.5C12 16.9296 12.7323 15.8517 13.5881 15.0023L11.9022 13.3164C11.8149 13.3882 11.7234 13.4553 11.6279 13.5172C11.1437 13.8312 10.5792 13.9988 10.0021 14C9.4498 14.0012 9.00115 13.5544 9 13.0021C8.99885 12.4498 9.44563 12.0012 9.99791 12C10.1622 11.9997 10.3234 11.9589 10.4675 11.8818L7.00066 8.41488C7.00022 8.44324 7 8.47165 7 8.50011C7 9.05239 6.55228 9.50011 6 9.50011C5.44772 9.50011 5 9.05239 5 8.50011C5 7.85884 5.08233 7.23769 5.23217 6.64638L1.29289 2.70711C0.902369 2.31658 0.902369 1.68342 1.29289 1.29289ZM11.5 6C11.5 5.44772 11.9477 5 12.5 5C13.4283 5 14.3185 5.36875 14.9749 6.02513C15.6313 6.6815 16 7.57174 16 8.5C16 9.05229 15.5523 9.5 15 9.5C14.4477 9.5 14 9.05229 14 8.5C14 8.10218 13.842 7.72064 13.5607 7.43934C13.2794 7.15804 12.8978 7 12.5 7C11.9477 7 11.5 6.55229 11.5 6Z" fill="currentColor" style="fill="currentColor";fill-opacity:1;"/>
</svg>
