<svg width="24" height="24" viewBox="0 0 24 24" fill="none" xmlns="http://www.w3.org/2000/svg">
<path fill-rule="evenodd" clip-rule="evenodd" d="M12.5 3C11.0413 3 9.64236 3.57946 8.61091 4.61091C7.57946 5.64236 7 7.04131 7 8.5C7 9.05228 6.55228 9.5 6 9.5C5.44772 9.5 5 9.05228 5 8.5C5 6.51088 5.79018 4.60322 7.1967 3.1967C8.60322 1.79018 10.5109 1 12.5 1C14.4891 1 16.3968 1.79018 17.8033 3.1967C19.2098 4.60322 20 6.51088 20 8.5C20 10.1822 19.5751 11.4905 18.9121 12.5586C18.2615 13.6068 17.4082 14.3782 16.6402 15.0182C16.4667 15.1628 16.3008 15.2984 16.1426 15.4278C15.5616 15.9028 15.0823 16.2948 14.6968 16.7445C14.2508 17.2648 14 17.7922 14 18.5C14 19.0909 13.8836 19.6761 13.6575 20.2221C13.4313 20.768 13.0998 21.2641 12.682 21.682C12.2641 22.0998 11.768 22.4313 11.2221 22.6575C10.6761 22.8836 10.0909 23 9.5 23C8.90905 23 8.32389 22.8836 7.77793 22.6575C7.23196 22.4313 6.73588 22.0998 6.31802 21.682C5.90016 21.2641 5.56869 20.768 5.34254 20.2221C5.1164 19.6761 5 19.0909 5 18.5C5 17.9477 5.44772 17.5 6 17.5C6.55228 17.5 7 17.9477 7 18.5C7 18.8283 7.06466 19.1534 7.1903 19.4567C7.31594 19.76 7.50009 20.0356 7.73223 20.2678C7.96438 20.4999 8.23998 20.6841 8.54329 20.8097C8.84661 20.9353 9.1717 21 9.5 21C9.8283 21 10.1534 20.9353 10.4567 20.8097C10.76 20.6841 11.0356 20.4999 11.2678 20.2678C11.4999 20.0356 11.6841 19.76 11.8097 19.4567C11.9353 19.1534 12 18.8283 12 18.5C12 17.2078 12.4992 16.2352 13.1782 15.443C13.6913 14.8444 14.3502 14.3072 14.9483 13.8197C15.0898 13.7043 15.2279 13.5917 15.3598 13.4818C16.0918 12.8718 16.7385 12.2682 17.2129 11.5039C17.6749 10.7595 18 9.81781 18 8.5C18 7.04131 17.4205 5.64236 16.3891 4.61091C15.3576 3.57946 13.9587 3 12.5 3ZM10.0251 6.02513C10.6815 5.36875 11.5717 5 12.5 5C13.4283 5 14.3185 5.36875 14.9749 6.02513C15.6313 6.6815 16 7.57174 16 8.5C16 9.05228 15.5523 9.5 15 9.5C14.4477 9.5 14 9.05228 14 8.5C14 8.10218 13.842 7.72064 13.5607 7.43934C13.2794 7.15804 12.8978 7 12.5 7C12.1022 7 11.7206 7.15804 11.4393 7.43934C11.158 7.72064 11 8.10218 11 8.5V8.67157C11.4179 8.81933 11.8019 9.05928 12.1213 9.37868C12.6839 9.94129 13 10.7043 13 11.5C13 12.2957 12.6839 13.0587 12.1213 13.6213C11.5587 14.1839 10.7957 14.5 10 14.5C9.44772 14.5 9 14.0523 9 13.5C9 12.9477 9.44772 12.5 10 12.5C10.2652 12.5 10.5196 12.3946 10.7071 12.2071C10.8946 12.0196 11 11.7652 11 11.5C11 11.2348 10.8946 10.9804 10.7071 10.7929C10.5196 10.6054 10.2652 10.5 10 10.5C9.44772 10.5 9 10.0523 9 9.5V8.5C9 7.57174 9.36875 6.6815 10.0251 6.02513Z" fill="currentColor" style="fill="currentColor";fill-opacity:1;"/>
</svg>
