<svg width="24" height="24" viewBox="0 0 24 24" fill="none" xmlns="http://www.w3.org/2000/svg">
<path fill-rule="evenodd" clip-rule="evenodd" d="M6.51464 2.46557C8.18165 1.5064 10.0729 1.00012 11.9998 1C12.5521 0.999966 12.9999 1.44765 12.9999 1.99994C12.9999 2.55222 12.5522 2.99997 11.9999 3C10.6085 3.00008 9.23988 3.32273 8 3.93798V5.00009C8 5.53052 8.21071 6.03923 8.58579 6.4143C8.96086 6.78937 9.46957 7.00009 10 7.00009C10.5523 7.00009 11 7.4478 11 8.00009C11 8.55237 10.5523 9.00009 10 9.00009C8.93913 9.00009 7.92172 8.57866 7.17157 7.82852C6.48846 7.1454 6.07794 6.24065 6.01003 5.28328C5.17446 6.0285 4.4817 6.92631 3.9716 7.93344C3.63788 8.59234 3.38813 9.28658 3.22553 10H5.00005C5.7957 10 6.55876 10.3161 7.12137 10.8787C7.68398 11.4413 8.00005 12.2044 8.00005 13V14C8.00005 14.2652 8.10541 14.5196 8.29294 14.7071C8.48048 14.8946 8.73483 15 9.00005 15C9.7957 15 10.5588 15.3161 11.1214 15.8787C11.684 16.4413 12 17.2043 12 18V21C12.4911 21 12.9833 20.9599 13.4716 20.879C13.6491 20.8496 13.8253 20.8149 14 20.7751V17C14 16.2043 14.3161 15.4413 14.8787 14.8787C15.4413 14.3161 16.2043 14 17 14H21.54C21.8584 14 22.1578 14.1517 22.3462 14.4084C22.5346 14.6651 22.5895 14.9962 22.4939 15.3C21.884 17.2394 20.7484 18.9718 19.2135 20.3049C18.0789 21.2904 16.7588 22.0292 15.3372 22.4817C15.3129 22.4904 15.2881 22.4982 15.2629 22.5051C14.785 22.6535 14.2958 22.7697 13.7985 22.8521C12.8434 23.0103 11.8763 23.041 10.9219 22.947C10.9063 22.9458 10.8909 22.9442 10.8756 22.9423C9.84167 22.836 8.82314 22.5833 7.85141 22.1875C5.96854 21.4207 4.33502 20.147 3.13221 18.508C1.9294 16.8689 1.20435 14.9286 1.03757 12.9024C0.983466 12.2451 0.988797 11.5871 1.05205 10.9361C1.05364 10.911 1.05616 10.886 1.05958 10.8614C1.19796 9.53172 1.5782 8.23256 2.1874 7.02976C3.10601 5.21609 4.50928 3.69248 6.24142 2.62807C6.3227 2.57812 6.40457 2.52927 6.48698 2.48153C6.49611 2.47607 6.50533 2.47074 6.51464 2.46557ZM3.00049 12C3.00049 12.2458 3.01056 12.4921 3.03083 12.7383C3.16729 14.3961 3.7605 15.9836 4.74462 17.3247C5.72874 18.6657 7.06526 19.7078 8.60579 20.3352C9.05966 20.5201 9.52601 20.6668 10 20.7749V18C10 17.7348 9.89469 17.4804 9.70716 17.2929C9.51962 17.1054 9.26526 17 9.00005 17C8.2044 17 7.44134 16.6839 6.87873 16.1213C6.31612 15.5587 6.00005 14.7957 6.00005 14V13C6.00005 12.7348 5.89469 12.4804 5.70716 12.2929C5.51962 12.1054 5.26527 12 5.00005 12H3.00049ZM16 20.0625C16.6821 19.7241 17.3217 19.299 17.9021 18.795C18.8034 18.0122 19.5363 17.0611 20.0628 16H17C16.7348 16 16.4804 16.1054 16.2929 16.2929C16.1054 16.4804 16 16.7348 16 17V20.0625ZM15.8787 1.87868C16.4413 1.31607 17.2043 1 18 1C18.7957 1 19.5587 1.31607 20.1213 1.87868C20.6839 2.44129 21 3.20435 21 4V5C22.1046 5 23 5.89543 23 7V10C23 11.1046 22.1046 12 21 12H15C13.8954 12 13 11.1046 13 10V7C13 5.89543 13.8954 5 15 5V4C15 3.20435 15.3161 2.44129 15.8787 1.87868ZM15 7V10H21V7H15ZM19 5H17V4C17 3.73478 17.1054 3.48043 17.2929 3.29289C17.4804 3.10536 17.7348 3 18 3C18.2652 3 18.5196 3.10536 18.7071 3.29289C18.8946 3.48043 19 3.73478 19 4V5Z" fill="currentColor" style="fill="currentColor";fill-opacity:1;"/>
</svg>
