<svg width="24" height="24" viewBox="0 0 24 24" fill="none" xmlns="http://www.w3.org/2000/svg">
<path fill-rule="evenodd" clip-rule="evenodd" d="M9.84838 3.25881C5.9168 4.22328 3 7.77101 3 12C3 16.9706 7.02944 21 12 21C16.229 21 19.7767 18.0832 20.7412 14.1516C19.597 14.7501 18.3151 15.0711 17 15.0711C14.8594 15.0711 12.8065 14.2207 11.2929 12.7071C9.7793 11.1935 8.92896 9.14058 8.92896 7C8.92896 5.68495 9.24988 4.40298 9.84838 3.25881ZM12.4244 3.00983C11.4632 4.1119 10.929 5.5284 10.929 7C10.929 8.61015 11.5686 10.1543 12.7071 11.2929C13.8457 12.4314 15.3899 13.0711 17 13.0711C18.4716 13.0711 19.8881 12.5368 20.9902 11.5756C20.7751 6.94274 17.0573 3.22487 12.4244 3.00983ZM1 12C1 5.92487 5.92487 1 12 1C18.0751 1 23 5.92487 23 12C23 18.0751 18.0751 23 12 23C5.92487 23 1 18.0751 1 12Z" fill="currentColor" style="fill="currentColor";fill-opacity:1;"/>
</svg>
