<svg width="24" height="24" viewBox="0 0 24 24" fill="none" xmlns="http://www.w3.org/2000/svg">
<path fill-rule="evenodd" clip-rule="evenodd" d="M5.43662 4.41451C4.53134 5.2695 4 6.49681 4 8C4 8.33251 4.07549 8.67055 4.19295 9.1965C4.20369 9.24458 4.21478 9.29422 4.22619 9.34557C4.35483 9.92448 4.5 10.6367 4.5 11.5C4.5 12.6911 4.05899 13.406 3.71612 13.9618C3.67849 14.0228 3.64204 14.0819 3.60749 14.1395C3.30267 14.6475 3 15.2214 3 16.5C3 17.8727 3.67141 18.965 4.76874 19.7488C5.88633 20.547 7.425 21 9 21C9.74888 21 10.2661 20.8678 10.6589 20.6945C11.0597 20.5176 11.3798 20.2777 11.7348 19.9818C11.7955 19.9312 11.8577 19.8782 11.922 19.8234C12.5912 19.2531 13.4748 18.5 15 18.5C17.1231 18.5 18.5893 18.0257 19.5207 17.1923C20.4308 16.378 21 15.067 21 13C21 12.0942 20.8677 11.4899 20.6783 11.0576C20.4938 10.6365 20.2297 10.32 19.8678 10.0238C19.4843 9.70985 19.0181 9.43813 18.4067 9.08423L18.4062 9.08395C17.8148 8.74162 17.1209 8.34003 16.4005 7.80036C15.6305 7.22359 15.0772 6.58236 14.6156 5.98908C14.456 5.78401 14.3147 5.59534 14.182 5.41814C13.9084 5.05291 13.6713 4.73642 13.3864 4.42556C12.9981 4.00167 12.5789 3.66224 12.0117 3.41909C11.4367 3.17257 10.6507 3 9.5 3C7.71 3 6.34547 3.55616 5.43662 4.41451ZM4.06338 2.96049C5.40453 1.69384 7.29 1 9.5 1C10.8493 1 11.917 1.20243 12.7998 1.58091C13.6905 1.96276 14.3332 2.49833 14.8611 3.07444C15.2147 3.46045 15.5477 3.90436 15.8504 4.30799C15.9699 4.46725 16.0846 4.62023 16.1941 4.76092C16.6078 5.29264 17.0345 5.77641 17.5995 6.19964C18.2139 6.65982 18.8123 7.00816 19.4086 7.35327L19.4576 7.38163C20.0198 7.70693 20.617 8.05249 21.1347 8.47618C21.689 8.92996 22.1743 9.48847 22.5102 10.2549C22.841 11.0101 23 11.9058 23 13C23 15.433 22.3192 17.372 20.8543 18.6827C19.4107 19.9743 17.3769 20.5 15 20.5C14.2301 20.5 13.8742 20.7984 13.1797 21.3806C13.1269 21.4248 13.0722 21.4707 13.0152 21.5182C12.6202 21.8473 12.1278 22.2324 11.4661 22.5243C10.7964 22.8197 10.0011 23 9 23C7.075 23 5.11367 22.453 3.60626 21.3762C2.07859 20.285 1 18.6273 1 16.5C1 14.7786 1.44733 13.8525 1.89251 13.1105C1.93279 13.0434 1.97111 12.9803 2.00747 12.9205C2.33263 12.3854 2.5 12.11 2.5 11.5C2.5 10.8633 2.39517 10.3255 2.27381 9.77943C2.26158 9.72437 2.24881 9.66794 2.23575 9.61027C2.12749 9.13188 2 8.56856 2 8C2 6.00319 2.71866 4.2305 4.06338 2.96049ZM11.5 10C10.1193 10 9 11.1193 9 12.5C9 13.8807 10.1193 15 11.5 15C12.8807 15 14 13.8807 14 12.5C14 11.1193 12.8807 10 11.5 10ZM7 12.5C7 10.0147 9.01472 8 11.5 8C13.9853 8 16 10.0147 16 12.5C16 14.9853 13.9853 17 11.5 17C9.01472 17 7 14.9853 7 12.5Z" fill="currentColor" style="fill="currentColor";fill-opacity:1;"/>
</svg>
