<svg width="24" height="24" viewBox="0 0 24 24" fill="none" xmlns="http://www.w3.org/2000/svg">
<path fill-rule="evenodd" clip-rule="evenodd" d="M13.7969 3L13.7969 3.00005C15.9688 2.99353 18.0645 3.79959 19.6722 5.25979C20.0811 5.6311 20.1115 6.26354 19.7402 6.67237C19.3688 7.0812 18.7364 7.11161 18.3276 6.7403C17.0906 5.61685 15.4786 4.99621 13.8077 5.00002C12.9032 5.01203 12.0099 5.20177 11.1785 5.55847C10.3457 5.9158 9.5915 6.43368 8.95887 7.08253C8.41252 7.64289 7.96611 8.29145 7.638 9.00001H16C16.5523 9.00001 17 9.44772 17 10C17 10.5523 16.5523 11 16 11H7.05814C7.0152 11.3266 6.99561 11.6565 6.99983 11.9873L6.99999 12H6.99991C6.99991 12.3396 7.02357 12.6735 7.06925 13H13C13.5523 13 14 13.4477 14 14C14 14.5523 13.5523 15 13 15H7.65836C8.75672 17.3671 11.1096 19 13.7999 19C15.5253 19 17.1011 18.3105 18.3491 17.2408C18.7684 16.8814 19.3997 16.9299 19.7592 17.3492C20.1186 17.7686 20.07 18.3999 19.6507 18.7593C18.0987 20.0896 16.0745 21 13.7999 21C9.9614 21 6.71369 18.477 5.50476 15H4C3.44772 15 3 14.5523 3 14C3 13.4477 3.44772 13 4 13H5.05423C5.01856 12.6735 5.00014 12.3419 4.99991 12.0064C4.99586 11.6697 5.01093 11.3337 5.04483 11H4C3.44772 11 3 10.5523 3 10C3 9.44772 3.44772 9.00001 4 9.00001H5.48479C5.5313 8.86504 5.58109 8.73106 5.63416 8.59821C6.06772 7.51271 6.71087 6.52325 7.52687 5.68633C8.34286 4.8494 9.31573 4.18142 10.3899 3.72052C11.4641 3.25961 12.6185 3.01482 13.7873 3.00012L13.7969 3Z" fill="currentColor" style="fill="currentColor";fill-opacity:1;"/>
</svg>
