<svg width="24" height="24" viewBox="0 0 24 24" fill="none" xmlns="http://www.w3.org/2000/svg">
<path fill-rule="evenodd" clip-rule="evenodd" d="M1.50306 11.1323C1.98227 10.8578 2.59331 11.0237 2.86786 11.5029C3.10596 11.9185 4.17786 13.5829 5.83444 15.129C7.50335 16.6866 9.63077 18.0001 12.0002 18.0001C12.5525 18.0001 13.0002 18.4478 13.0002 19.0001C13.0002 19.5524 12.5525 20.0001 12.0002 20.0001C8.89146 20.0001 6.29388 18.2935 4.46982 16.5911C2.63343 14.8772 1.44438 13.0415 1.13248 12.4971C0.857936 12.0179 1.02385 11.4069 1.50306 11.1323Z" fill="currentColor" style="fill="currentColor";fill-opacity:1;"/>
<path fill-rule="evenodd" clip-rule="evenodd" d="M18.2249 16.8394C18.529 17.3004 18.4019 17.9207 17.9409 18.2248C16.1775 19.3882 14.1101 20.0058 11.9975 20.0001C11.4452 19.9986 10.9987 19.5497 11.0002 18.9974C11.0017 18.4451 11.4506 17.9986 12.0029 18.0001C13.7221 18.0047 15.4044 17.5022 16.8395 16.5554C17.3005 16.2513 17.9207 16.3784 18.2249 16.8394Z" fill="currentColor" style="fill="currentColor";fill-opacity:1;"/>
<path fill-rule="evenodd" clip-rule="evenodd" d="M7.43666 6.04715C7.74757 6.50361 7.62958 7.12568 7.17313 7.43659C6.05554 8.19783 4.98556 9.44485 4.16777 10.5576C3.76624 11.104 3.43924 11.5988 3.21162 11.9555C3.10347 12.125 3.01813 12.2628 2.95618 12.3628L2.9467 12.378C2.91714 12.4258 2.8883 12.4723 2.86672 12.5059C2.85817 12.5192 2.83893 12.5491 2.81695 12.5795L2.81632 12.5803C2.81022 12.5888 2.77246 12.6415 2.71796 12.6974C2.70067 12.7152 2.66935 12.7461 2.62659 12.7803C2.59401 12.8064 2.5012 12.8788 2.3624 12.9326C2.23794 12.9809 1.86321 13.0922 1.473 12.85C1.10085 12.619 1.02732 12.2563 1.01109 12.1474C0.970305 11.8737 1.04457 11.6094 1.19755 11.4035C1.20885 11.3855 1.22465 11.3601 1.24667 11.3245L1.25659 11.3085C1.31888 11.208 1.41016 11.0607 1.52558 10.8798C1.76894 10.4983 2.12122 9.96504 2.55618 9.37321C3.41136 8.20958 4.64316 6.73998 6.04721 5.78362C6.50367 5.47271 7.12575 5.5907 7.43666 6.04715Z" fill="currentColor" style="fill="currentColor";fill-opacity:1;"/>
<path fill-rule="evenodd" clip-rule="evenodd" d="M1.29306 1.29289C1.68359 0.902369 2.31675 0.902369 2.70728 1.29289L10.5768 9.16246C10.5835 9.16897 10.5902 9.17559 10.5967 9.18233L14.8177 13.4033C14.8245 13.4099 14.8311 13.4165 14.8376 13.4233L22.7073 21.2929C23.0978 21.6834 23.0978 22.3166 22.7073 22.7071C22.3168 23.0976 21.6836 23.0976 21.2931 22.7071L14.0498 15.4639C13.8911 15.5634 13.7252 15.6518 13.5533 15.7284C13.0627 15.9471 12.533 16.0646 11.9959 16.0741C11.4588 16.0836 10.9253 15.9848 10.4273 15.7836C9.9292 15.5824 9.47675 15.283 9.09691 14.9031C8.71708 14.5233 8.41764 14.0709 8.21646 13.5728C8.01529 13.0747 7.91649 12.5412 7.92596 12.0042C7.93544 11.4671 8.053 10.9374 8.27162 10.4467C8.34822 10.2748 8.43667 10.1089 8.53617 9.95021L1.29306 2.70711C0.902539 2.31658 0.902539 1.68342 1.29306 1.29289ZM10.028 11.4421C9.96388 11.6345 9.92924 11.8359 9.92565 12.0394C9.92091 12.308 9.97031 12.5747 10.0709 12.8238C10.1715 13.0728 10.3212 13.299 10.5111 13.4889C10.701 13.6788 10.9273 13.8286 11.1763 13.9292C11.4253 14.0297 11.6921 14.0791 11.9606 14.0744C12.1642 14.0708 12.3656 14.0362 12.558 13.972L10.028 11.4421ZM11.9983 4L12.0002 4C15.8683 4 18.6153 5.94281 20.3579 7.81955C21.2296 8.75824 21.8641 9.69378 22.2813 10.3948C22.4905 10.7462 22.6467 11.0413 22.752 11.252C22.8047 11.3574 22.8448 11.4419 22.8726 11.5021C22.8865 11.5321 22.8973 11.5561 22.9051 11.5736L22.9144 11.5949L22.9174 11.6018L22.9189 11.6052C22.9189 11.6052 22.9193 11.6061 22.0002 12L22.9189 11.6052C23.0311 11.8671 23.0267 12.1651 22.9062 12.4232C22.4251 13.4531 21.8218 14.4213 21.1093 15.3069C20.7631 15.7372 20.1336 15.8053 19.7033 15.4591C19.273 15.1129 19.2048 14.4834 19.551 14.0531C20.0648 13.4146 20.5124 12.726 20.8873 11.9981C20.8054 11.8411 20.6975 11.6441 20.5627 11.4177C20.1987 10.8062 19.6457 9.99176 18.8924 9.18045C17.3852 7.55736 15.1325 6.00032 12.0011 6C11.6176 6.00075 11.2344 6.02491 10.8538 6.07233C10.3057 6.14061 9.8061 5.75168 9.73782 5.20363C9.66954 4.65558 10.0585 4.15595 10.6065 4.08767C11.0682 4.03015 11.533 4.00087 11.9983 4Z" fill="currentColor" style="fill="currentColor";fill-opacity:1;"/>
</svg>
