<svg width="24" height="24" viewBox="0 0 24 24" fill="none" xmlns="http://www.w3.org/2000/svg">
<path fill-rule="evenodd" clip-rule="evenodd" d="M1.87868 1.87868C2.44129 1.31607 3.20435 1 4 1H6C6.79565 1 7.55871 1.31607 8.12132 1.87868C8.68393 2.44129 9 3.20435 9 4V11.0568L14.4188 7.18627C14.7236 6.96854 15.1245 6.93943 15.4576 7.11083C15.7907 7.28224 16 7.62541 16 8V11.0568L21.4188 7.18627C21.7236 6.96854 22.1245 6.93943 22.4576 7.11083C22.7907 7.28224 23 7.62541 23 8V20C23 20.7957 22.6839 21.5587 22.1213 22.1213C21.5587 22.6839 20.7957 23 20 23H4C3.20435 23 2.44129 22.6839 1.87868 22.1213C1.31607 21.5587 1 20.7957 1 20V4C1 3.20435 1.31607 2.44129 1.87868 1.87868ZM4 3C3.73478 3 3.48043 3.10536 3.29289 3.29289C3.10536 3.48043 3 3.73478 3 4V20C3 20.2652 3.10536 20.5196 3.29289 20.7071C3.48043 20.8946 3.73478 21 4 21H20C20.2652 21 20.5196 20.8946 20.7071 20.7071C20.8946 20.5196 21 20.2652 21 20V9.94319L15.5812 13.8137C15.2764 14.0315 14.8755 14.0606 14.5424 13.8892C14.2093 13.7178 14 13.3746 14 13V9.94319L8.58124 13.8137C8.27642 14.0315 7.87549 14.0606 7.54242 13.8892C7.20935 13.7178 7 13.3746 7 13V4C7 3.73478 6.89464 3.48043 6.70711 3.29289C6.51957 3.10536 6.26522 3 6 3H4ZM6 18C6 17.4477 6.44772 17 7 17H8C8.55228 17 9 17.4477 9 18C9 18.5523 8.55228 19 8 19H7C6.44772 19 6 18.5523 6 18ZM11 18C11 17.4477 11.4477 17 12 17H13C13.5523 17 14 17.4477 14 18C14 18.5523 13.5523 19 13 19H12C11.4477 19 11 18.5523 11 18ZM16 18C16 17.4477 16.4477 17 17 17H18C18.5523 17 19 17.4477 19 18C19 18.5523 18.5523 19 18 19H17C16.4477 19 16 18.5523 16 18Z" fill="currentColor" style="fill="currentColor";fill-opacity:1;"/>
</svg>
