<svg width="24" height="24" viewBox="0 0 24 24" fill="none" xmlns="http://www.w3.org/2000/svg">
<path fill-rule="evenodd" clip-rule="evenodd" d="M12 1C12.5523 1 13 1.44772 13 2V2.04182C14.6711 2.20976 16.2787 2.79663 17.6709 3.75513C18.6306 4.4159 19.4619 5.23537 20.1325 6.17252L20.2038 6.13176C20.6833 5.85775 21.2942 6.02434 21.5682 6.50386C21.8422 6.98338 21.6756 7.59423 21.1961 7.86824L21.1278 7.90725C21.2038 8.07697 21.2751 8.2491 21.3417 8.42348C22.0644 10.3154 22.1955 12.3822 21.7179 14.3503C21.5723 14.95 21.3723 15.5319 21.1219 16.0894L21.1961 16.1318C21.6756 16.4058 21.8422 17.0166 21.5682 17.4961C21.2942 17.9757 20.6833 18.1423 20.2038 17.8682L20.124 17.8227C19.7011 18.412 19.2131 18.9566 18.6667 19.4453C18.255 19.8134 17.6228 19.7782 17.2546 19.3666C16.8865 18.9549 16.9217 18.3227 17.3333 17.9545C17.7183 17.6102 18.067 17.2313 18.3759 16.8237L16.7038 15.8682C16.2243 15.5942 16.0577 14.9834 16.3317 14.5039C16.6057 14.0243 17.2166 13.8577 17.6961 14.1318L19.3752 15.0912C19.5396 14.7 19.6733 14.2946 19.7743 13.8786C20.1564 12.3041 20.0515 10.6507 19.4734 9.13712C19.4437 9.05937 19.4128 8.98218 19.3808 8.90557L17.6961 9.86824C17.2166 10.1423 16.6057 9.97566 16.3317 9.49614C16.0577 9.01662 16.2243 8.40577 16.7038 8.13176L18.3846 7.17128C17.8704 6.4902 17.2476 5.8919 16.5367 5.40244C15.4786 4.67396 14.2649 4.21381 13 4.05444V6C13 6.55228 12.5523 7 12 7C11.4477 7 11 6.55228 11 6V4.05444C9.73505 4.21381 8.52137 4.67396 7.4633 5.40244C6.7524 5.8919 6.12959 6.4902 5.61536 7.17129L7.29619 8.13176C7.77571 8.40577 7.9423 9.01662 7.66829 9.49614C7.39428 9.97566 6.78343 10.1423 6.30391 9.86824L4.61923 8.90557C4.5872 8.98218 4.55632 9.05937 4.52662 9.13712C3.9485 10.6507 3.84357 12.3041 4.2257 13.8786C4.32669 14.2946 4.46042 14.7 4.62484 15.0912L6.30391 14.1318C6.78343 13.8577 7.39428 14.0243 7.66829 14.5039C7.9423 14.9834 7.77571 15.5942 7.29619 15.8682L5.62413 16.8237C5.93299 17.2313 6.28172 17.6102 6.66667 17.9545C7.07832 18.3227 7.11355 18.9549 6.74536 19.3666C6.37717 19.7782 5.74498 19.8134 5.33334 19.4453C4.78695 18.9566 4.29893 18.412 3.87596 17.8227L3.79619 17.8682C3.31667 18.1423 2.70582 17.9757 2.43181 17.4961C2.1578 17.0166 2.32439 16.4058 2.80391 16.1318L2.87809 16.0894C2.62766 15.5319 2.42768 14.95 2.28213 14.3503C1.80446 12.3822 1.93562 10.3154 2.65828 8.42348C2.72488 8.2491 2.79623 8.07697 2.87217 7.90725L2.80391 7.86824C2.32439 7.59423 2.1578 6.98338 2.43181 6.50386C2.70582 6.02434 3.31667 5.85775 3.79619 6.13176L3.86753 6.17252C4.53811 5.23538 5.36939 4.4159 6.32912 3.75513C7.72128 2.79663 9.32894 2.20976 11 2.04182V2C11 1.44772 11.4477 1 12 1ZM12 11C11.4477 11 11 11.4477 11 12C11 12.5523 11.4477 13 12 13C12.5523 13 13 12.5523 13 12C13 11.4477 12.5523 11 12 11ZM9 12C9 10.3431 10.3431 9 12 9C13.6569 9 15 10.3431 15 12C15 13.1803 14.3183 14.2015 13.3272 14.6912L15.693 21H16C16.5523 21 17 21.4477 17 22C17 22.5523 16.5523 23 16 23H15.0233C15.0078 23.0004 14.9924 23.0004 14.977 23H9.02304C9.00762 23.0004 8.99216 23.0004 8.97666 23H8C7.44772 23 7 22.5523 7 22C7 21.4477 7.44772 21 8 21H8.307L10.6728 14.6912C9.68167 14.2015 9 13.1803 9 12ZM12 16.848L10.443 21H13.557L12 16.848Z" fill="black" style="fill:black;fill-opacity:1;"/>
</svg>
