<svg width="24" height="24" viewBox="0 0 24 24" fill="none" xmlns="http://www.w3.org/2000/svg">
<path fill-rule="evenodd" clip-rule="evenodd" d="M3.8787 1.87868C4.44131 1.31607 5.20437 1 6.00002 1H15C15.2652 1 15.5196 1.10536 15.7071 1.29289L20.7071 6.29289C20.8947 6.48043 21 6.73478 21 7V20C21 20.7957 20.684 21.5587 20.1213 22.1213C19.5587 22.6839 18.7957 23 18 23H12C11.4477 23 11 22.5523 11 22C11 21.4477 11.4477 21 12 21H18C18.2652 21 18.5196 20.8946 18.7071 20.7071C18.8947 20.5196 19 20.2652 19 20V9H16C15.2044 9 14.4413 8.68393 13.8787 8.12132C13.3161 7.55871 13 6.79565 13 6V3H6.00002C5.7348 3 5.48045 3.10536 5.29291 3.29289C5.10538 3.48043 5.00002 3.73478 5.00002 4V14C5.00002 14.5523 4.55231 15 4.00002 15C3.44774 15 3.00002 14.5523 3.00002 14V4C3.00002 3.20435 3.31609 2.44129 3.8787 1.87868ZM15 3.41421V6C15 6.26522 15.1054 6.51957 15.2929 6.70711C15.4805 6.89464 15.7348 7 16 7H18.5858L15 3.41421ZM11.9 12.9788C11.6026 12.9788 11.3174 13.0969 11.1071 13.3072L5.90299 18.5113L5.37439 20.6257L7.48877 20.0971L12.6929 14.893C12.9032 14.6827 13.0213 14.3975 13.0213 14.1001C13.0213 13.8027 12.9032 13.5175 12.6929 13.3072C12.4826 13.0969 12.1974 12.9788 11.9 12.9788ZM9.69291 11.893C10.2783 11.3076 11.0722 10.9788 11.9 10.9788C12.7278 10.9788 13.5218 11.3076 14.1071 11.893C14.6925 12.4783 15.0213 13.2723 15.0213 14.1001C15.0213 14.9279 14.6925 15.7218 14.1071 16.3072L8.70713 21.7072C8.57897 21.8353 8.41839 21.9263 8.24256 21.9702L4.24256 22.9702C3.90178 23.0554 3.54129 22.9556 3.29291 22.7072C3.04453 22.4588 2.94468 22.0983 3.02988 21.7575L4.02988 17.7575C4.07384 17.5817 4.16476 17.4211 4.29291 17.293L9.69291 11.893Z" fill="currentColor" style="fill="currentColor";fill-opacity:1;"/>
</svg>
