<svg width="24" height="24" viewBox="0 0 24 24" fill="none" xmlns="http://www.w3.org/2000/svg">
<path fill-rule="evenodd" clip-rule="evenodd" d="M3.87868 1.87868C4.44129 1.31607 5.20435 1 6 1H15C15.2652 1 15.5196 1.10536 15.7071 1.29289L20.7071 6.29289C20.8946 6.48043 21 6.73478 21 7V20C21 20.7957 20.6839 21.5587 20.1213 22.1213C19.5587 22.6839 18.7957 23 18 23H4C3.44772 23 3 22.5523 3 22C3 21.4477 3.44772 21 4 21H18C18.2652 21 18.5196 20.8946 18.7071 20.7071C18.8946 20.5196 19 20.2652 19 20V9H16C15.2044 9 14.4413 8.68393 13.8787 8.12132C13.3161 7.55871 13 6.79565 13 6V3H6C5.73478 3 5.48043 3.10536 5.29289 3.29289C5.10536 3.48043 5 3.73478 5 4V8C5 8.55228 4.55228 9 4 9C3.44772 9 3 8.55228 3 8V4C3 3.20435 3.31607 2.44129 3.87868 1.87868ZM15 3.41421V6C15 6.26522 15.1054 6.51957 15.2929 6.70711C15.4804 6.89464 15.7348 7 16 7H18.5858L15 3.41421ZM2.29289 13.2071C1.90237 12.8166 1.90237 12.1834 2.29289 11.7929C2.68342 11.4024 3.31658 11.4024 3.70711 11.7929L5.5 13.5858L7.29289 11.7929C7.68342 11.4024 8.31658 11.4024 8.70711 11.7929C9.09763 12.1834 9.09763 12.8166 8.70711 13.2071L6.91421 15L8.70711 16.7929C9.09763 17.1834 9.09763 17.8166 8.70711 18.2071C8.31658 18.5976 7.68342 18.5976 7.29289 18.2071L5.5 16.4142L3.70711 18.2071C3.31658 18.5976 2.68342 18.5976 2.29289 18.2071C1.90237 17.8166 1.90237 17.1834 2.29289 16.7929L4.08579 15L2.29289 13.2071Z" fill="black" style="fill:black;fill-opacity:1;"/>
</svg>
