<svg width="24" height="24" viewBox="0 0 24 24" fill="none" xmlns="http://www.w3.org/2000/svg">
<path fill-rule="evenodd" clip-rule="evenodd" d="M6 3C5.73478 3 5.48043 3.10536 5.29289 3.29289C5.10536 3.48043 5 3.73478 5 4V12.4C5 12.9523 4.55228 13.4 4 13.4C3.44772 13.4 3 12.9523 3 12.4V4C3 3.20435 3.31607 2.44129 3.87868 1.87868C4.44129 1.31607 5.20435 1 6 1H14.5C14.7652 1 15.0196 1.10536 15.2071 1.29289L20.7071 6.79289C20.8946 6.98043 21 7.23478 21 7.5V20C21 20.7957 20.6839 21.5587 20.1213 22.1213C19.5587 22.6839 18.7957 23 18 23H10.5C9.94772 23 9.5 22.5523 9.5 22C9.5 21.4477 9.94772 21 10.5 21H18C18.2652 21 18.5196 20.8946 18.7071 20.7071C18.8946 20.5196 19 20.2652 19 20V7.91421L14.0858 3H6ZM16.6479 8.23829C16.8713 8.42829 17 8.70676 17 9V16C17 17.6569 15.6569 19 14 19C12.3431 19 11 17.6569 11 16C11 14.3431 12.3431 13 14 13C14.3506 13 14.6872 13.0602 15 13.1707V10.1756L9 11.1506V18C9 19.6569 7.65685 21 6 21C4.34315 21 3 19.6569 3 18C3 16.3431 4.34315 15 6 15C6.35064 15 6.68722 15.0602 7 15.1707V10.3C7 9.80963 7.35558 9.3916 7.8396 9.31295L15.8396 8.01295C16.1291 7.96591 16.4246 8.04829 16.6479 8.23829ZM7 18C7 17.4477 6.55228 17 6 17C5.44772 17 5 17.4477 5 18C5 18.5523 5.44772 19 6 19C6.55228 19 7 18.5523 7 18ZM15 16C15 15.4477 14.5523 15 14 15C13.4477 15 13 15.4477 13 16C13 16.5523 13.4477 17 14 17C14.5523 17 15 16.5523 15 16Z" fill="currentColor" style="fill="currentColor";fill-opacity:1;"/>
</svg>
