<svg width="24" height="24" viewBox="0 0 24 24" fill="none" xmlns="http://www.w3.org/2000/svg">
<path fill-rule="evenodd" clip-rule="evenodd" d="M3.87868 1.87868C4.44129 1.31607 5.20435 1 6 1H15C15.2652 1 15.5196 1.10536 15.7071 1.29289L20.7071 6.29289C20.8946 6.48043 21 6.73478 21 7V20C21 20.7957 20.6839 21.5587 20.1213 22.1213C19.5587 22.6839 18.7957 23 18 23H16C15.4477 23 15 22.5523 15 22C15 21.4477 15.4477 21 16 21H18C18.2652 21 18.5196 20.8946 18.7071 20.7071C18.8946 20.5196 19 20.2652 19 20V9H16C15.2044 9 14.4413 8.68393 13.8787 8.12132C13.3161 7.55871 13 6.79565 13 6V3H6C5.73478 3 5.48043 3.10536 5.29289 3.29289C5.10536 3.48043 5 3.73478 5 4V7C5 7.55228 4.55228 8 4 8C3.44772 8 3 7.55228 3 7V4C3 3.20435 3.31607 2.44129 3.87868 1.87868ZM15 3.41421V6C15 6.26522 15.1054 6.51957 15.2929 6.70711C15.4804 6.89464 15.7348 7 16 7H18.5858L15 3.41421ZM8 11C5.23858 11 3 13.2386 3 16C3 18.7614 5.23858 21 8 21C10.7614 21 13 18.7614 13 16C13 13.2386 10.7614 11 8 11ZM1 16C1 12.134 4.13401 9 8 9C11.866 9 15 12.134 15 16C15 19.866 11.866 23 8 23C4.13401 23 1 19.866 1 16ZM8 13C8.55228 13 9 13.4477 9 14V15.7816L10.1402 16.7318C10.5645 17.0853 10.6218 17.7159 10.2682 18.1402C9.91466 18.5645 9.28409 18.6218 8.85982 18.2682L7.35982 17.0182C7.13182 16.8282 7 16.5468 7 16.25V14C7 13.4477 7.44772 13 8 13Z" fill="currentColor" style="fill="currentColor";fill-opacity:1;"/>
</svg>
