<svg width="24" height="24" viewBox="0 0 24 24" fill="none" xmlns="http://www.w3.org/2000/svg">
<path fill-rule="evenodd" clip-rule="evenodd" d="M3.87868 1.87868C4.44129 1.31607 5.20435 1 6 1H15C15.2652 1 15.5196 1.10536 15.7071 1.29289L20.7071 6.29289C20.8946 6.48043 21 6.73478 21 7V20C21 20.7957 20.6839 21.5587 20.1213 22.1213C19.5587 22.6839 18.7957 23 18 23H4C3.44772 23 3 22.5523 3 22C3 21.4477 3.44772 21 4 21H18C18.2652 21 18.5196 20.8946 18.7071 20.7071C18.8946 20.5196 19 20.2652 19 20V9H16C15.2044 9 14.4413 8.68393 13.8787 8.12132C13.3161 7.55871 13 6.79565 13 6V3H6C5.73478 3 5.48043 3.10536 5.29289 3.29289C5.10536 3.48043 5 3.73478 5 4V6C5 6.55228 4.55228 7 4 7C3.44772 7 3 6.55228 3 6V4C3 3.20435 3.31607 2.44129 3.87868 1.87868ZM15 3.41421V6C15 6.26522 15.1054 6.51957 15.2929 6.70711C15.4804 6.89464 15.7348 7 16 7H18.5858L15 3.41421ZM6 9C6.55228 9 7 9.44772 7 10V10.126C7.36705 10.2205 7.71371 10.3658 8.03204 10.5539L8.29301 10.2929C8.68353 9.90237 9.3167 9.90237 9.70722 10.2929C10.0977 10.6834 10.0977 11.3166 9.70722 11.7071L9.44622 11.9681C9.63429 12.2864 9.77952 12.633 9.87398 13H10C10.5523 13 11 13.4477 11 14C11 14.5523 10.5523 15 10 15H9.87398C9.77952 15.367 9.63427 15.7137 9.44618 16.032L9.70722 16.293C10.0977 16.6835 10.0977 17.3167 9.70722 17.7072C9.3167 18.0977 8.68354 18.0977 8.29301 17.7072L8.03197 17.4462C7.71366 17.6343 7.36702 17.7795 7 17.874V18C7 18.5523 6.55228 19 6 19C5.44772 19 5 18.5523 5 18V17.874C4.63301 17.7795 4.2864 17.6343 3.96811 17.4462L3.70711 17.7072C3.31658 18.0977 2.68342 18.0977 2.29289 17.7072C1.90237 17.3167 1.90237 16.6835 2.29289 16.293L2.55386 16.032C2.36575 15.7137 2.22049 15.367 2.12602 15H2C1.44772 15 1 14.5523 1 14C1 13.4477 1.44772 13 2 13H2.12602C2.22048 12.633 2.36573 12.2863 2.55382 11.968L2.29289 11.7071C1.90237 11.3166 1.90237 10.6834 2.29289 10.2929C2.68342 9.90237 3.31658 9.90237 3.70711 10.2929L3.96803 10.5538C4.28634 10.3657 4.63298 10.2205 5 10.126V10C5 9.44772 5.44772 9 6 9ZM4.5507 12.6218C4.56306 12.6106 4.57519 12.599 4.58711 12.5871C4.59902 12.5752 4.61057 12.5631 4.62176 12.5507C4.98049 12.2094 5.46579 12 6 12C6.53464 12 7.02028 12.2098 7.3791 12.5515C7.39006 12.5636 7.40136 12.5755 7.41301 12.5871C7.42465 12.5987 7.4365 12.61 7.44855 12.621C7.79025 12.9798 8 13.4654 8 14C8 14.535 7.78991 15.021 7.44772 15.3799C7.43595 15.3906 7.42438 15.4016 7.41301 15.413C7.40164 15.4244 7.3906 15.436 7.3799 15.4477C7.021 15.7899 6.53503 16 6 16C5.4654 16 4.97979 15.7902 4.62098 15.4486C4.61004 15.4365 4.59874 15.4246 4.58711 15.413C4.57546 15.4014 4.56359 15.3901 4.55152 15.3791C4.20978 15.0203 4 14.5346 4 14C4 13.4658 4.20945 12.9805 4.5507 12.6218Z" fill="currentColor" style="fill="currentColor";fill-opacity:1;"/>
</svg>
