<svg width="24" height="24" viewBox="0 0 24 24" fill="none" xmlns="http://www.w3.org/2000/svg">
<path fill-rule="evenodd" clip-rule="evenodd" d="M6 3C5.73478 3 5.48043 3.10536 5.29289 3.29289C5.10536 3.48043 5 3.73478 5 4V11C5 11.5523 4.55228 12 4 12C3.44772 12 3 11.5523 3 11V4C3 3.20435 3.31607 2.44129 3.87868 1.87868C4.44129 1.31607 5.20435 1 6 1H15C15.2652 1 15.5196 1.10536 15.7071 1.29289L20.7071 6.29289C20.8946 6.48043 21 6.73478 21 7V20C21 20.7957 20.6839 21.5587 20.1213 22.1213C19.5587 22.6839 18.7957 23 18 23H6C5.20435 23 4.44129 22.6839 3.87868 22.1213C3.31607 21.5587 3 20.7957 3 20V17C3 16.2044 3.31607 15.4413 3.87868 14.8787C4.44129 14.3161 5.20435 14 6 14H10.5858L9.29289 12.7071C8.90237 12.3166 8.90237 11.6834 9.29289 11.2929C9.68342 10.9024 10.3166 10.9024 10.7071 11.2929L13.7071 14.2929C14.0976 14.6834 14.0976 15.3166 13.7071 15.7071L10.7071 18.7071C10.3166 19.0976 9.68342 19.0976 9.29289 18.7071C8.90237 18.3166 8.90237 17.6834 9.29289 17.2929L10.5858 16H6C5.73478 16 5.48043 16.1054 5.29289 16.2929C5.10536 16.4804 5 16.7348 5 17V20C5 20.2652 5.10536 20.5196 5.29289 20.7071C5.48043 20.8946 5.73478 21 6 21H18C18.2652 21 18.5196 20.8946 18.7071 20.7071C18.8946 20.5196 19 20.2652 19 20V9H16C15.2044 9 14.4413 8.68393 13.8787 8.12132C13.3161 7.55871 13 6.79565 13 6V3H6ZM15 3.41421V6C15 6.26522 15.1054 6.51957 15.2929 6.70711C15.4804 6.89464 15.7348 7 16 7H18.5858L15 3.41421Z" fill="currentColor" style="fill="currentColor";fill-opacity:1;"/>
</svg>
