<svg width="24" height="24" viewBox="0 0 24 24" fill="none" xmlns="http://www.w3.org/2000/svg">
<path fill-rule="evenodd" clip-rule="evenodd" d="M3.87868 1.87868C4.44129 1.31607 5.20435 1 6 1H15C15.2652 1 15.5196 1.10536 15.7071 1.29289L20.7071 6.29289C20.8946 6.48043 21 6.73478 21 7V20C21 20.7957 20.6839 21.5587 20.1213 22.1213C19.5587 22.6839 18.7957 23 18 23H4C3.44772 23 3 22.5523 3 22C3 21.4477 3.44772 21 4 21H18C18.2652 21 18.5196 20.8946 18.7071 20.7071C18.8946 20.5196 19 20.2652 19 20V9H16C15.2044 9 14.4413 8.68393 13.8787 8.12132C13.3161 7.55871 13 6.79565 13 6V3H6C5.73478 3 5.48043 3.10536 5.29289 3.29289C5.10536 3.48043 5 3.73478 5 4V7C5 7.55228 4.55228 8 4 8C3.44772 8 3 7.55228 3 7V4C3 3.20435 3.31607 2.44129 3.87868 1.87868ZM15 3.41421V6C15 6.26522 15.1054 6.51957 15.2929 6.70711C15.4804 6.89464 15.7348 7 16 7H18.5858L15 3.41421ZM5 12C3.89543 12 3 12.8954 3 14C3 15.1046 3.89543 16 5 16C6.10457 16 7 15.1046 7 14C7 12.8954 6.10457 12 5 12ZM1 14C1 11.7909 2.79086 10 5 10C7.20914 10 9 11.7909 9 14C9 14.7418 8.79807 15.4365 8.44618 16.032L9.70711 17.2929C10.0976 17.6834 10.0976 18.3166 9.70711 18.7071C9.31658 19.0976 8.68342 19.0976 8.29289 18.7071L7.03197 17.4462C6.43645 17.7981 5.74181 18 5 18C2.79086 18 1 16.2091 1 14Z" fill="currentColor" style="fill="currentColor";fill-opacity:1;"/>
</svg>
