<svg width="24" height="24" viewBox="0 0 24 24" fill="none" xmlns="http://www.w3.org/2000/svg">
<path fill-rule="evenodd" clip-rule="evenodd" d="M3.87868 1.87868C4.44129 1.31607 5.20435 1 6 1H15C15.2652 1 15.5196 1.10536 15.7071 1.29289L20.7071 6.29289C20.8946 6.48043 21 6.73478 21 7V10C21 10.5523 20.5523 11 20 11C19.4477 11 19 10.5523 19 10V9H16C15.2044 9 14.4413 8.68393 13.8787 8.12132C13.3161 7.55871 13 6.79565 13 6V3H6C5.73478 3 5.48043 3.10536 5.29289 3.29289C5.10536 3.48043 5 3.73478 5 4V20C5 20.2652 5.10536 20.5196 5.29289 20.7071C5.48043 20.8946 5.73478 21 6 21H10C10.5523 21 11 21.4477 11 22C11 22.5523 10.5523 23 10 23H6C5.20435 23 4.44129 22.6839 3.87868 22.1213C3.31607 21.5587 3 20.7957 3 20V4C3 3.20435 3.31607 2.44129 3.87868 1.87868ZM15 3.41421V6C15 6.26522 15.1054 6.51957 15.2929 6.70711C15.4804 6.89464 15.7348 7 16 7H18.5858L15 3.41421ZM13.8787 13.8787C14.4413 13.3161 15.2043 13 16 13C16.5523 13 17 13.4477 17 14C17 14.5523 16.5523 15 16 15C15.7348 15 15.4804 15.1054 15.2929 15.2929C15.1054 15.4804 15 15.7348 15 16C15 16.5523 14.5523 17 14 17C13.4477 17 13 16.5523 13 16C13 15.2043 13.3161 14.4413 13.8787 13.8787ZM20.7071 15.2929C20.5196 15.1054 20.2652 15 20 15C19.4477 15 19 14.5523 19 14C19 13.4477 19.4477 13 20 13C20.7957 13 21.5587 13.3161 22.1213 13.8787C22.6839 14.4413 23 15.2043 23 16C23 16.5523 22.5523 17 22 17C21.4477 17 21 16.5523 21 16C21 15.7348 20.8946 15.4804 20.7071 15.2929ZM14 19C14.5523 19 15 19.4477 15 20C15 20.2652 15.1054 20.5196 15.2929 20.7071C15.4804 20.8946 15.7348 21 16 21C16.5523 21 17 21.4477 17 22C17 22.5523 16.5523 23 16 23C15.2043 23 14.4413 22.6839 13.8787 22.1213C13.3161 21.5587 13 20.7957 13 20C13 19.4477 13.4477 19 14 19ZM22 19C22.5523 19 23 19.4477 23 20C23 20.7957 22.6839 21.5587 22.1213 22.1213C21.5587 22.6839 20.7957 23 20 23C19.4477 23 19 22.5523 19 22C19 21.4477 19.4477 21 20 21C20.2652 21 20.5196 20.8946 20.7071 20.7071C20.8946 20.5196 21 20.2652 21 20C21 19.4477 21.4477 19 22 19Z" fill="currentColor" style="fill="currentColor";fill-opacity:1;"/>
</svg>
