<svg width="24" height="24" viewBox="0 0 24 24" fill="none" xmlns="http://www.w3.org/2000/svg">
<path fill-rule="evenodd" clip-rule="evenodd" d="M3.87868 1.87868C4.44129 1.31607 5.20435 1 6 1H15C15.2652 1 15.5196 1.10536 15.7071 1.29289L20.7071 6.29289C20.8946 6.48043 21 6.73478 21 7V20C21 20.7957 20.6839 21.5587 20.1213 22.1213C19.5587 22.6839 18.7957 23 18 23H4C3.44772 23 3 22.5523 3 22C3 21.4477 3.44772 21 4 21H18C18.2652 21 18.5196 20.8946 18.7071 20.7071C18.8946 20.5196 19 20.2652 19 20V9H16C15.2044 9 14.4413 8.68393 13.8787 8.12132C13.3161 7.55871 13 6.79565 13 6V3H6C5.73478 3 5.48043 3.10536 5.29289 3.29289C5.10536 3.48043 5 3.73478 5 4V7C5 7.55228 4.55228 8 4 8C3.44772 8 3 7.55228 3 7V4C3 3.20435 3.31607 2.44129 3.87868 1.87868ZM15 3.41421V6C15 6.26522 15.1054 6.51957 15.2929 6.70711C15.4804 6.89464 15.7348 7 16 7H18.5858L15 3.41421ZM7.47186 9.11833C7.79702 9.29235 8 9.6312 8 10V18C8 18.3688 7.79702 18.7077 7.47186 18.8817C7.1467 19.0557 6.75216 19.0366 6.4453 18.8321L3.69722 17H2C1.44772 17 1 16.5523 1 16V12C1 11.4477 1.44772 11 2 11H3.69722L6.4453 9.16795C6.75216 8.96338 7.1467 8.94431 7.47186 9.11833ZM6 11.8685L4.5547 12.8321C4.39043 12.9416 4.19742 13 4 13H3V15H4C4.19742 15 4.39043 15.0584 4.5547 15.1679L6 16.1315V11.8685ZM10.4 10.2C10.8418 9.86863 11.4686 9.95817 11.8 10.4C12.5789 11.4386 13 12.7018 13 14C13 15.2982 12.5789 16.5614 11.8 17.6C11.4686 18.0418 10.8418 18.1314 10.4 17.8C9.95817 17.4686 9.86863 16.8418 10.2 16.4C10.7193 15.7076 11 14.8655 11 14C11 13.1345 10.7193 12.2924 10.2 11.6C9.86863 11.1582 9.95817 10.5314 10.4 10.2Z" fill="currentColor" style="fill="currentColor";fill-opacity:1;"/>
</svg>
