<svg width="24" height="24" viewBox="0 0 24 24" fill="none" xmlns="http://www.w3.org/2000/svg">
<path fill-rule="evenodd" clip-rule="evenodd" d="M3.87867 1.87868C4.44128 1.31607 5.20435 1 6 1H15C15.2652 1 15.5196 1.10536 15.7071 1.29289L20.7071 6.29289C20.8946 6.48043 21 6.73478 21 7V20C21 20.7957 20.6839 21.5587 20.1213 22.1213C19.5587 22.6839 18.7956 23 18 23H4C3.44771 23 3 22.5523 3 22C3 21.4477 3.44771 21 4 21H18C18.2652 21 18.5196 20.8946 18.7071 20.7071C18.8946 20.5196 19 20.2652 19 20V9H16C15.2043 9 14.4413 8.68393 13.8787 8.12132C13.3161 7.55871 13 6.79565 13 6V3H6C5.73478 3 5.48042 3.10536 5.29289 3.29289C5.10535 3.48043 5 3.73478 5 4V6C5 6.55228 4.55228 7 4 7C3.44771 7 3 6.55228 3 6V4C3 3.20435 3.31607 2.44129 3.87867 1.87868ZM15 3.41421V6C15 6.26522 15.1054 6.51957 15.2929 6.70711C15.4804 6.89464 15.7348 7 16 7H18.5858L15 3.41421ZM7.24472 9.25711C7.87192 8.99368 8.56332 8.9227 9.231 9.05322C9.89971 9.18395 10.5143 9.51087 10.9965 9.99231C11.0282 10.024 11.0575 10.0575 11.0844 10.0927C12.3732 11.4658 12.325 13.6264 10.8099 15.1541L10.8021 15.162L7.20206 18.712C6.81231 19.0963 6.18599 19.0959 5.79678 18.711L2.19985 15.1541C0.655674 13.5971 0.620355 11.3727 2.00472 10.0009C2.31727 9.68882 2.68632 9.42929 3.12303 9.25367C3.7491 8.99592 4.43751 8.9292 5.1015 9.062C5.60965 9.16363 6.08604 9.37861 6.49627 9.6885C6.72854 9.51068 6.98176 9.3662 7.24472 9.25711ZM8.84729 11.0161C8.5685 10.9616 8.27979 10.9913 8.01799 11.1016L8.01227 11.104C7.84374 11.1737 7.6915 11.2768 7.57256 11.4012C7.5641 11.41 7.55548 11.4187 7.5467 11.4272L7.1967 11.7672C6.80865 12.1442 6.19118 12.1442 5.80313 11.7672L5.45313 11.4272L5.44165 11.4159C5.24178 11.2154 4.98689 11.0787 4.70927 11.0232C4.43165 10.9676 4.1438 10.9958 3.88218 11.104L3.87133 11.1085C3.71133 11.1725 3.56275 11.2713 3.41702 11.4171L3.41328 11.4208C2.90015 11.9285 2.76514 12.8811 3.61677 13.7426L6.50089 16.5946L9.3935 13.7421C10.2395 12.886 10.1045 11.9332 9.58656 11.4208C9.56306 11.3975 9.54083 11.3732 9.51991 11.348C9.32963 11.1798 9.09755 11.065 8.84729 11.0161Z" fill="currentColor" style="fill="currentColor";fill-opacity:1;"/>
</svg>
