<svg width="24" height="24" viewBox="0 0 24 24" fill="none" xmlns="http://www.w3.org/2000/svg">
<path fill-rule="evenodd" clip-rule="evenodd" d="M3.87868 1.87868C4.44129 1.31607 5.20435 1 6 1H15C15.2652 1 15.5196 1.10536 15.7071 1.29289L20.7071 6.29289C20.8946 6.48043 21 6.73478 21 7V20C21 20.7957 20.6839 21.5587 20.1213 22.1213C19.5587 22.6839 18.7957 23 18 23H4C3.44772 23 3 22.5523 3 22C3 21.4477 3.44772 21 4 21H18C18.2652 21 18.5196 20.8946 18.7071 20.7071C18.8946 20.5196 19 20.2652 19 20V9H16C15.2044 9 14.4413 8.68393 13.8787 8.12132C13.3161 7.55871 13 6.79565 13 6V3H6C5.73478 3 5.48043 3.10536 5.29289 3.29289C5.10536 3.48043 5 3.73478 5 4V8C5 8.55228 4.55228 9 4 9C3.44772 9 3 8.55228 3 8V4C3 3.20435 3.31607 2.44129 3.87868 1.87868ZM15 3.41421V6C15 6.26522 15.1054 6.51957 15.2929 6.70711C15.4804 6.89464 15.7348 7 16 7H18.5858L15 3.41421ZM2.58579 11.5858C2.96086 11.2107 3.46957 11 4 11C4.55228 11 5 11.4477 5 12C5 12.5523 4.55228 13 4 13V14C4 14.3541 3.90609 14.6985 3.73206 15C3.90609 15.3015 4 15.6459 4 16V17C4.55228 17 5 17.4477 5 18C5 18.5523 4.55228 19 4 19C3.46957 19 2.96086 18.7893 2.58579 18.4142C2.21071 18.0391 2 17.5304 2 17V16C1.44772 16 1 15.5523 1 15C1 14.4477 1.44772 14 2 14V13C2 12.4696 2.21071 11.9609 2.58579 11.5858ZM7 12C7 11.4477 7.44772 11 8 11C8.53043 11 9.03914 11.2107 9.41421 11.5858C9.78929 11.9609 10 12.4696 10 13V14C10.5523 14 11 14.4477 11 15C11 15.5523 10.5523 16 10 16V17C10 17.5304 9.78929 18.0391 9.41421 18.4142C9.03914 18.7893 8.53043 19 8 19C7.44772 19 7 18.5523 7 18C7 17.4477 7.44772 17 8 17V16C8 15.6459 8.09391 15.3015 8.26794 15C8.09391 14.6985 8 14.3541 8 14V13C7.44772 13 7 12.5523 7 12Z" fill="currentColor" style="fill="currentColor";fill-opacity:1;"/>
</svg>
