<svg width="24" height="24" viewBox="0 0 24 24" fill="none" xmlns="http://www.w3.org/2000/svg">
<path fill-rule="evenodd" clip-rule="evenodd" d="M3.87868 1.87868C4.44129 1.31607 5.20435 1 6 1H15C15.2652 1 15.5196 1.10536 15.7071 1.29289L20.7071 6.29289C20.8946 6.48043 21 6.73478 21 7V20C21 20.7957 20.6839 21.5587 20.1213 22.1213C19.5587 22.6839 18.7957 23 18 23H17.5C16.9477 23 16.5 22.5523 16.5 22C16.5 21.4477 16.9477 21 17.5 21H18C18.2652 21 18.5196 20.8946 18.7071 20.7071C18.8946 20.5196 19 20.2652 19 20V9H16C15.2044 9 14.4413 8.68393 13.8787 8.12132C13.3161 7.55871 13 6.79565 13 6V3H6C5.73478 3 5.48043 3.10536 5.29289 3.29289C5.10536 3.48043 5 3.73478 5 4V7C5 7.55228 4.55228 8 4 8C3.44772 8 3 7.55228 3 7V4C3 3.20435 3.31607 2.44129 3.87868 1.87868ZM15 3.41421V6C15 6.26522 15.1054 6.51957 15.2929 6.70711C15.4804 6.89464 15.7348 7 16 7H18.5858L15 3.41421ZM8 11C6.67392 11 5.40215 11.5268 4.46447 12.4645C3.52678 13.4021 3 14.6739 3 16V16.1716C3.3182 16.0591 3.65606 16 4 16C4.79565 16 5.55871 16.3161 6.12132 16.8787C6.68393 17.4413 7 18.2043 7 19V20C7 20.7957 6.68393 21.5587 6.12132 22.1213C5.55871 22.6839 4.79565 23 4 23C3.20435 23 2.44129 22.6839 1.87868 22.1213C1.31607 21.5587 1 20.7957 1 20V16C1 14.1435 1.7375 12.363 3.05025 11.0503C4.36301 9.7375 6.14348 9 8 9C9.85652 9 11.637 9.7375 12.9497 11.0503C14.2625 12.363 15 14.1435 15 16V20C15 20.7957 14.6839 21.5587 14.1213 22.1213C13.5587 22.6839 12.7957 23 12 23C11.2043 23 10.4413 22.6839 9.87868 22.1213C9.31607 21.5587 9 20.7957 9 20V19C9 18.2043 9.31607 17.4413 9.87868 16.8787C10.4413 16.3161 11.2043 16 12 16C12.3439 16 12.6818 16.0591 13 16.1716V16C13 14.6739 12.4732 13.4021 11.5355 12.4645C10.5979 11.5268 9.32608 11 8 11ZM13 19C13 18.7348 12.8946 18.4804 12.7071 18.2929C12.5196 18.1054 12.2652 18 12 18C11.7348 18 11.4804 18.1054 11.2929 18.2929C11.1054 18.4804 11 18.7348 11 19V20C11 20.2652 11.1054 20.5196 11.2929 20.7071C11.4804 20.8946 11.7348 21 12 21C12.2652 21 12.5196 20.8946 12.7071 20.7071C12.8946 20.5196 13 20.2652 13 20V19ZM3 19V20C3 20.2652 3.10536 20.5196 3.29289 20.7071C3.48043 20.8946 3.73478 21 4 21C4.26522 21 4.51957 20.8946 4.70711 20.7071C4.89464 20.5196 5 20.2652 5 20V19C5 18.7348 4.89464 18.4804 4.70711 18.2929C4.51957 18.1054 4.26522 18 4 18C3.73478 18 3.48043 18.1054 3.29289 18.2929C3.10536 18.4804 3 18.7348 3 19Z" fill="currentColor" style="fill="currentColor";fill-opacity:1;"/>
</svg>
