<svg width="24" height="24" viewBox="0 0 24 24" fill="none" xmlns="http://www.w3.org/2000/svg">
<path fill-rule="evenodd" clip-rule="evenodd" d="M3.87868 1.87868C4.44129 1.31607 5.20435 1 6 1H15C15.2652 1 15.5196 1.10536 15.7071 1.29289L20.7071 6.29289C20.8946 6.48043 21 6.73478 21 7V20C21 20.7957 20.6839 21.5587 20.1213 22.1213C19.5587 22.6839 18.7957 23 18 23H6C5.20435 23 4.44129 22.6839 3.87868 22.1213C3.31607 21.5587 3 20.7957 3 20V4C3 3.20435 3.31607 2.44129 3.87868 1.87868ZM18.5858 7H16C15.7348 7 15.4804 6.89464 15.2929 6.70711C15.1054 6.51957 15 6.26522 15 6V3.41421L18.5858 7ZM13 3V6C13 6.79565 13.3161 7.55871 13.8787 8.12132C14.4413 8.68393 15.2044 9 16 9H19V20C19 20.2652 18.8946 20.5196 18.7071 20.7071C18.5196 20.8946 18.2652 21 18 21H6C5.73478 21 5.48043 20.8946 5.29289 20.7071C5.10536 20.5196 5 20.2652 5 20V4C5 3.73478 5.10536 3.48043 5.29289 3.29289C5.48043 3.10536 5.73478 3 6 3H13ZM9.5073 10.1298C9.82081 9.95229 10.2056 9.95715 10.5145 10.1425L15.5145 13.1425C15.8157 13.3232 16 13.6487 16 14C16 14.3513 15.8157 14.6768 15.5145 14.8575L10.5145 17.8575C10.2056 18.0429 9.82081 18.0477 9.5073 17.8702C9.19379 17.6927 9 17.3603 9 17V11C9 10.6397 9.19379 10.3073 9.5073 10.1298ZM11 12.7662V15.2338L13.0563 14L11 12.7662Z" fill="currentColor" style="fill="currentColor";fill-opacity:1;"/>
</svg>
