<svg width="24" height="24" viewBox="0 0 24 24" fill="none" xmlns="http://www.w3.org/2000/svg">
<path fill-rule="evenodd" clip-rule="evenodd" d="M3.87868 1.87868C4.44129 1.31607 5.20435 1 6 1H15C15.2652 1 15.5196 1.10536 15.7071 1.29289L20.7071 6.29289C20.8946 6.48043 21 6.73478 21 7V20C21 20.7957 20.6839 21.5587 20.1213 22.1213C19.5587 22.6839 18.7957 23 18 23H4C3.44772 23 3 22.5523 3 22C3 21.4477 3.44772 21 4 21H18C18.2652 21 18.5196 20.8946 18.7071 20.7071C18.8946 20.5196 19 20.2652 19 20V9H16C15.2044 9 14.4413 8.68393 13.8787 8.12132C13.3161 7.55871 13 6.79565 13 6V3H6C5.73478 3 5.48043 3.10536 5.29289 3.29289C5.10536 3.48043 5 3.73478 5 4V10C5 10.5523 4.55228 11 4 11C3.44772 11 3 10.5523 3 10V4C3 3.20435 3.31607 2.44129 3.87868 1.87868ZM15 3.41421V6C15 6.26522 15.1054 6.51957 15.2929 6.70711C15.4804 6.89464 15.7348 7 16 7H18.5858L15 3.41421ZM9.29289 9.29289C9.68342 8.90237 10.3166 8.90237 10.7071 9.29289C11.0976 9.68342 11.0976 10.3166 10.7071 10.7071L10.4142 11L10.7071 11.2929C11.0976 11.6834 11.0976 12.3166 10.7071 12.7071C10.3166 13.0976 9.68342 13.0976 9.29289 12.7071L9 12.4142L6.70763 14.7066C6.89505 15.0982 7 15.5369 7 16C7 17.6569 5.65685 19 4 19C2.34315 19 1 17.6569 1 16C1 14.3431 2.34315 13 4 13C4.46315 13 4.90178 13.105 5.29342 13.2924L9.29289 9.29289ZM4 15C3.44772 15 3 15.4477 3 16C3 16.5523 3.44772 17 4 17C4.55228 17 5 16.5523 5 16C5 15.4477 4.55228 15 4 15Z" fill="currentColor" style="fill="currentColor";fill-opacity:1;"/>
</svg>
