<svg width="24" height="24" viewBox="0 0 24 24" fill="none" xmlns="http://www.w3.org/2000/svg">
<path fill-rule="evenodd" clip-rule="evenodd" d="M1.0929 2.57912C1.25675 2.22596 1.61069 2 2.00001 2H13.013C13.5653 2 14.013 2.44772 14.013 3C14.013 3.55228 13.5653 4 13.013 4H4.15532L10.7636 11.8143C10.9162 11.9948 11 12.2236 11 12.46V18.382L13 19.382V12.46C13 12.2221 13.0848 11.992 13.2392 11.811L14.1392 10.756C14.4977 10.3358 15.1289 10.2858 15.549 10.6442C15.9692 11.0027 16.0192 11.6338 15.6608 12.054L15 12.8286V21C15 21.3466 14.8206 21.6684 14.5257 21.8507C14.2309 22.0329 13.8628 22.0494 13.5528 21.8944L9.5528 19.8944C9.21402 19.725 9.00001 19.3788 9.00001 19V12.8261L1.23644 3.64573C0.985046 3.34845 0.929037 2.93229 1.0929 2.57912ZM16.2929 2.29289C16.6834 1.90237 17.3166 1.90237 17.7071 2.29289L19.5 4.08579L21.2929 2.29289C21.6834 1.90237 22.3166 1.90237 22.7071 2.29289C23.0976 2.68342 23.0976 3.31658 22.7071 3.70711L20.9142 5.5L22.7071 7.29289C23.0976 7.68342 23.0976 8.31658 22.7071 8.70711C22.3166 9.09763 21.6834 9.09763 21.2929 8.70711L19.5 6.91421L17.7071 8.70711C17.3166 9.09763 16.6834 9.09763 16.2929 8.70711C15.9024 8.31658 15.9024 7.68342 16.2929 7.29289L18.0858 5.5L16.2929 3.70711C15.9024 3.31658 15.9024 2.68342 16.2929 2.29289Z" fill="currentColor" style="fill="currentColor";fill-opacity:1;"/>
</svg>
