<svg width="24" height="24" viewBox="0 0 24 24" fill="none" xmlns="http://www.w3.org/2000/svg">
<path fill-rule="evenodd" clip-rule="evenodd" d="M10.5858 1.58579C10.9609 1.21071 11.4696 1 12 1H14C14.5304 1 15.0391 1.21071 15.4142 1.58579C15.5389 1.71046 15.6454 1.8499 15.7321 2H18C18.5523 2 19 2.44772 19 3C19 3.55228 18.5523 4 18 4H16V5.99997C16.1882 6.14112 16.3672 6.29618 16.5355 6.46447C17.4732 7.40215 18 8.67392 18 10V20C18 20.7957 17.6839 21.5587 17.1213 22.1213C16.5587 22.6839 15.7957 23 15 23H11C10.2043 23 9.44129 22.6839 8.87868 22.1213C8.31607 21.5587 8 20.7957 8 20V14H6V20C6 20.5523 5.55228 21 5 21C4.44772 21 4 20.5523 4 20V9C4 7.14348 4.7375 5.36301 6.05025 4.05025C7.18382 2.91669 8.66614 2.21205 10.245 2.04081C10.3356 1.87514 10.4499 1.72169 10.5858 1.58579ZM10 4.101C9.04656 4.29564 8.16285 4.76608 7.46447 5.46447C6.52678 6.40215 6 7.67392 6 9V12H8V10C8 8.67392 8.52678 7.40215 9.46447 6.46447C9.63276 6.29618 9.81181 6.14112 10 5.99997V4.101ZM12 5.101C12.3267 5.03431 12.6616 5 13 5C13.3384 5 13.6733 5.03431 14 5.101V3H12V5.101ZM10 17H16V10C16 9.20435 15.6839 8.44129 15.1213 7.87868C14.5587 7.31607 13.7956 7 13 7C12.2044 7 11.4413 7.31607 10.8787 7.87868C10.3161 8.44129 10 9.20435 10 10V17ZM16 19H10V20C10 20.2652 10.1054 20.5196 10.2929 20.7071C10.4804 20.8946 10.7348 21 11 21H15C15.2652 21 15.5196 20.8946 15.7071 20.7071C15.8946 20.5196 16 20.2652 16 20V19Z" fill="currentColor" style="fill="currentColor";fill-opacity:1;"/>
</svg>
