<svg width="24" height="24" viewBox="0 0 24 24" fill="none" xmlns="http://www.w3.org/2000/svg">
<g clip-path="url(#clip0_168_2006)">
<path d="M15.05 19C10.79 19.01 6.55 15.99 5.54 12.26C5.49 12.09 5.49 11.91 5.54 11.74C5.92 10.34 6.75 9.01 7.94 7.89C8.34 7.51 8.98 7.53 9.35 7.93C9.73 8.33 9.71 8.97 9.31 9.34C8.47 10.13 7.86 11.05 7.55 11.99C8.46 14.73 11.8 16.99 15.01 16.99C15.76 17 16.48 16.86 17.17 16.59C17.68 16.39 18.26 16.64 18.47 17.15C18.68 17.66 18.42 18.24 17.91 18.45C17 18.81 16.04 18.99 15.06 18.99L15.05 19ZM20.59 16.06C20.39 16.06 20.19 16 20.01 15.87C19.56 15.55 19.46 14.93 19.78 14.48C20.29 13.76 20.69 12.93 20.97 12C20.03 8.86 17.82 7 15.01 7C14.13 7 13.25 7.17 12.42 7.47C11.9 7.66 11.33 7.39 11.14 6.87C10.95 6.35 11.22 5.78 11.74 5.59C12.79 5.21 13.89 5.01 15.01 5C18.8 5 21.86 7.58 22.98 11.74C23.03 11.91 23.03 12.09 22.98 12.26C22.64 13.52 22.11 14.66 21.42 15.64C21.23 15.91 20.92 16.06 20.6 16.06H20.59ZM18.01 13.48C17.46 13.48 17.01 13.05 17.01 12.5V12C17.01 11.45 17.46 11 18.01 11C18.56 11 19.01 11.45 19.01 12V12.47C19.01 13.02 18.56 13.49 18.01 13.49V13.48Z" fill="black" style="fill:black;fill-opacity:1;"/>
<path d="M2.73999 19.5C2.40999 19.5 2.09999 19.34 1.90999 19.06C0.829988 17.45 0.639988 14.07 1.76999 12C0.639988 9.93 0.829988 6.55 1.89999 4.95C2.11999 4.62 2.49999 4.45 2.88999 4.52C6.08999 5.05 7.99999 7.35 7.99999 10.68C7.99999 11.23 7.54999 11.68 6.99999 11.68C6.44999 11.68 5.99999 11.23 5.99999 10.68C5.99999 9.45 5.62999 7.38 3.27999 6.66C2.82999 8.02 2.91999 10.38 3.72999 11.37C4.02999 11.74 4.02999 12.27 3.72999 12.64C2.90999 13.63 2.81999 15.99 3.27999 17.35C5.62999 16.63 5.99999 14.57 5.99999 13.33C5.99999 12.78 6.44999 12.33 6.99999 12.33C7.54999 12.33 7.99999 12.78 7.99999 13.33C7.99999 16.66 6.08999 18.96 2.88999 19.49C2.83999 19.49 2.77999 19.5 2.72999 19.5H2.73999ZM16.01 18.93C15.71 18.93 15.41 18.79 15.21 18.54C14.3 17.35 13.66 16.01 13.31 14.55C13.18 14.01 13.51 13.47 14.05 13.34C14.59 13.21 15.13 13.54 15.26 14.08C15.55 15.27 16.07 16.36 16.81 17.33C17.14 17.77 17.06 18.4 16.62 18.73C16.44 18.87 16.23 18.94 16.01 18.94V18.93ZM14.49 9.96C14.39 9.96 14.28 9.94 14.18 9.91C13.65 9.74 13.37 9.17 13.54 8.65C13.92 7.5 14.48 6.42999 15.21 5.46999C15.55 5.02999 16.17 4.95 16.61 5.28C17.05 5.61 17.13 6.24 16.8 6.68C16.2 7.46 15.74 8.34 15.44 9.27C15.3 9.69 14.91 9.96 14.49 9.96Z" fill="black" style="fill:black;fill-opacity:1;"/>
<path d="M22.01 23C21.75 23 21.5 22.9 21.3 22.71L16.96 18.37L16.78 19.5C16.66 20.21 16.3 20.84 15.75 21.3C15.21 21.75 14.52 22.01 13.82 22.01H9.51001C9.12001 22.01 8.76001 21.78 8.60001 21.42C8.44001 21.06 8.50001 20.64 8.76001 20.35C9.57001 19.43 10.01 18.26 10 17.04C10 16.49 10.44 16.04 10.99 16.03C11.55 15.99 11.99 16.47 12 17.02C12 18.06 11.78 19.08 11.35 20.01H13.82C14.06 20.01 14.29 19.93 14.47 19.77C14.65 19.62 14.77 19.4 14.81 19.17L15.04 17.77C15.1 17.43 15.32 17.15 15.62 17.02L1.30001 2.71C0.910007 2.32 0.910007 1.68 1.30001 1.29C1.69001 0.899998 2.32001 0.899998 2.71001 1.29L22.71 21.29C23.1 21.68 23.1 22.31 22.71 22.7C22.51 22.9 22.26 22.99 22 22.99L22.01 23ZM16.01 7.07C15.53 7.07 15.1 6.72 15.02 6.23L14.79 4.83C14.75 4.6 14.63 4.39 14.45 4.23C14.27 4.08 14.04 3.99 13.8 3.99H8.52001C7.97001 3.99 7.52001 3.54 7.52001 2.99C7.52001 2.44 7.97001 1.99 8.52001 1.99H13.79C14.47 2.01 15.19 2.24 15.73 2.7C16.27 3.16 16.64 3.8 16.75 4.5L16.98 5.9C17.07 6.44 16.7 6.96 16.15 7.05C16.1 7.05 16.04 7.06 15.99 7.06L16.01 7.07Z" fill="black" style="fill:black;fill-opacity:1;"/>
</g>
<defs>
<clipPath id="clip0_168_2006">
<rect width="22.01" height="22" fill="white" style="fill:white;fill-opacity:1;" transform="translate(1 1)"/>
</clipPath>
</defs>
</svg>
