<svg width="24" height="24" viewBox="0 0 24 24" fill="none" xmlns="http://www.w3.org/2000/svg">
<g clip-path="url(#clip0_168_2008)">
<path d="M13.81 22H9.49999C9.10999 22 8.74999 21.77 8.58999 21.41C8.42999 21.05 8.48999 20.63 8.74999 20.34C9.42999 19.57 9.84999 18.61 9.95999 17.6C9.07999 17.1 8.27999 16.48 7.59999 15.77C6.87999 17.77 5.22999 19.1 2.88999 19.49C2.49999 19.56 2.11999 19.39 1.89999 19.06C0.819991 17.45 0.629991 14.07 1.75999 12C0.639991 9.93001 0.829991 6.55001 1.89999 4.95001C2.11999 4.62001 2.49999 4.45001 2.88999 4.52001C5.22999 4.91001 6.87999 6.24001 7.59999 8.24001C8.10999 7.72001 8.67999 7.24001 9.29999 6.82001C8.94999 5.84001 8.19999 4.67001 7.26999 3.69001C6.99999 3.40001 6.91999 2.97001 7.07999 2.61001C7.23999 2.24001 7.59999 2.01001 7.99999 2.01001H13.8C14.48 2.03001 15.2 2.26001 15.74 2.72001C16.28 3.18001 16.65 3.82001 16.76 4.52001L16.88 5.24001C19.77 5.95001 22.03 8.31001 22.96 11.75C23.01 11.92 23.01 12.1 22.96 12.27C22.03 15.71 19.78 18.07 16.88 18.78L16.76 19.5C16.64 20.21 16.28 20.84 15.73 21.3C15.19 21.75 14.5 22.01 13.8 22.01L13.81 22ZM11.34 20H13.81C14.05 20 14.28 19.92 14.46 19.76C14.64 19.61 14.76 19.39 14.8 19.16L14.83 18.99C13.82 18.97 12.82 18.78 11.86 18.45C11.75 18.98 11.58 19.5 11.35 19.99L11.34 20ZM3.28999 6.65001C2.83999 8.01001 2.92999 10.37 3.73999 11.36C4.03999 11.73 4.03999 12.26 3.73999 12.63C2.91999 13.62 2.82999 15.98 3.28999 17.34C5.52999 16.65 5.96999 14.74 6.00999 13.49C5.81999 13.09 5.65999 12.68 5.54999 12.26C5.49999 12.09 5.49999 11.91 5.54999 11.74C5.65999 11.32 5.81999 10.91 6.00999 10.51C5.97999 9.26001 5.53999 7.35001 3.29999 6.66001L3.28999 6.65001ZM7.54999 12C8.37999 14.51 11.26 16.62 14.21 16.95C13.42 15.43 13 13.72 13 12C13 10.28 13.42 8.57001 14.21 7.05001C11.26 7.38001 8.37999 9.49001 7.54999 12.01V12ZM16.45 7.17001C15.51 8.59001 15 10.29 15 12C15 13.71 15.51 15.4 16.45 16.83C18.57 16.3 20.2 14.58 20.97 12C20.2 9.42001 18.57 7.71001 16.45 7.17001ZM10.08 4.00001C10.49 4.62001 10.83 5.24001 11.08 5.85001C12.27 5.34001 13.55 5.03001 14.83 5.01001L14.8 4.84001C14.76 4.61001 14.64 4.40001 14.46 4.24001C14.28 4.09001 14.05 4.00001 13.81 4.00001H10.08ZM18.01 13.5C17.46 13.5 17.01 13.05 17.01 12.5V12C17.01 11.45 17.46 11 18.01 11C18.56 11 19.01 11.45 19.01 12V12.5C19.01 13.05 18.56 13.5 18.01 13.5Z" fill="black" style="fill:black;fill-opacity:1;"/>
</g>
<defs>
<clipPath id="clip0_168_2008">
<rect width="22.01" height="20" fill="white" style="fill:white;fill-opacity:1;" transform="translate(1 2)"/>
</clipPath>
</defs>
</svg>
