<svg width="24" height="24" viewBox="0 0 24 24" fill="none" xmlns="http://www.w3.org/2000/svg">
<path fill-rule="evenodd" clip-rule="evenodd" d="M6.47424 1.14935C6.76906 0.967144 7.1372 0.95058 7.44719 1.10557L17.4472 6.10557C17.786 6.27497 18 6.62123 18 7C18 7.37877 17.786 7.72504 17.4472 7.89443L7.99997 12.618V22C7.99997 22.5523 7.55226 23 6.99997 23C6.44769 23 5.99997 22.5523 5.99997 22V12.0217C5.99968 12.0077 5.99968 11.9938 5.99997 11.9799V2C5.99997 1.65342 6.17943 1.33156 6.47424 1.14935ZM7.99997 10.382L14.7639 7L7.99997 3.61804V10.382Z" fill="currentColor" style="fill="currentColor";fill-opacity:1;"/>
</svg>
