<svg width="24" height="24" viewBox="0 0 24 24" fill="none" xmlns="http://www.w3.org/2000/svg">
<path fill-rule="evenodd" clip-rule="evenodd" d="M11.116 6.40124C11.4372 6.714 11.6843 7.09489 11.839 7.51599C11.9981 7.94905 12.0552 8.41297 12.0058 8.87169C11.9564 9.3304 11.8019 9.77153 11.5542 10.1608C11.3066 10.5501 10.9725 10.877 10.578 11.1161C10.1834 11.3552 9.739 11.5001 9.27933 11.5395C8.94109 11.5685 8.60129 11.5398 8.27424 11.4555C8.47343 11.9654 8.77704 12.4339 9.17159 12.8284C9.92173 13.5786 10.9391 14 12 14C13.0609 14 14.0783 13.5786 14.8284 12.8284C15.5769 12.08 15.9981 11.0654 16 10.0071C15.9831 8.95465 15.5521 7.95111 14.8001 7.21424L14.7929 7.20714L14.7929 7.20711C14.6307 7.04489 14.4211 6.88104 14.1811 6.69334C13.4 6.08266 12.2961 5.21949 11.4487 3.33844C11.2018 3.53662 10.9595 3.79709 10.7805 4.0928C10.574 4.43393 10.4708 4.78785 10.4946 5.1387C10.5173 5.4737 10.6617 5.90176 11.116 6.40124ZM10.4088 1.61796C10.8449 1.30591 11.4323 1 12 1C12.4304 1 12.8126 1.27543 12.9487 1.68377C13.6116 3.67241 14.4018 4.29745 15.2603 4.97657C15.5669 5.21907 15.8822 5.46847 16.2035 5.78931C17.3318 6.89677 17.9774 8.40483 17.9999 9.98576L18 10C18 11.5913 17.3679 13.1174 16.2427 14.2426C15.1174 15.3679 13.5913 16 12 16C10.4087 16 8.88259 15.3679 7.75737 14.2426C6.63215 13.1174 6.00001 11.5913 6.00001 10C6.00001 9.98782 6 9.97529 5.99998 9.96242C5.99964 9.68204 5.99911 9.24044 6.15133 8.78377C6.28998 8.36784 6.68339 8.09072 7.12172 8.10024C7.56006 8.10975 7.94107 8.40369 8.06153 8.82525C8.10378 8.97312 8.17957 9.10925 8.283 9.22306C8.38643 9.33687 8.51472 9.42529 8.65789 9.48145C8.80105 9.53761 8.95525 9.55999 9.10847 9.54685C9.2617 9.53371 9.40983 9.48541 9.54135 9.4057C9.67287 9.32599 9.78423 9.21703 9.86678 9.08727C9.94933 8.95751 10.0008 8.81047 10.0173 8.65756C10.0338 8.50466 10.0147 8.35002 9.96171 8.20566C9.90868 8.06131 9.82306 7.93113 9.71153 7.82525C9.69558 7.81011 9.68013 7.79444 9.66521 7.77828C8.93437 6.98654 8.55743 6.13423 8.49917 5.2738C8.44168 4.42465 8.70098 3.66607 9.06951 3.0572C9.43566 2.45226 9.92812 1.96184 10.4088 1.61796ZM4.03849 17.7253C4.19021 17.1942 4.7437 16.8868 5.27473 17.0385L12 18.96L18.7253 17.0385C19.2563 16.8868 19.8098 17.1942 19.9615 17.7253C20.1133 18.2563 19.8058 18.8098 19.2747 18.9615L15.6401 20L19.2747 21.0385C19.8058 21.1902 20.1133 21.7437 19.9615 22.2747C19.8098 22.8058 19.2563 23.1132 18.7253 22.9615L12 21.04L5.27473 22.9615C4.7437 23.1132 4.19021 22.8058 4.03849 22.2747C3.88677 21.7437 4.19426 21.1902 4.72529 21.0385L8.35996 20L4.72529 18.9615C4.19426 18.8098 3.88677 18.2563 4.03849 17.7253Z" fill="currentColor" style="fill="currentColor";fill-opacity:1;"/>
</svg>
