<svg width="24" height="24" viewBox="0 0 24 24" fill="none" xmlns="http://www.w3.org/2000/svg">
<path fill-rule="evenodd" clip-rule="evenodd" d="M14.142 1C14.0956 0.993403 14.0482 0.98999 14 0.98999C13.9518 0.98999 13.9044 0.993403 13.858 1H8.5C7.94772 1 7.5 1.44772 7.5 2C7.5 2.55228 7.94772 3 8.5 3H9V8.61084C7.60044 9.22163 6.4147 10.2481 5.60931 11.5593C4.78103 12.9078 4.40324 14.4789 4.5211 16.0468C4.52214 16.0694 4.52394 16.0919 4.52647 16.1142C4.54161 16.2939 4.56328 16.4736 4.59154 16.6528C4.86981 18.4177 5.76898 20.0252 7.12717 21.1861C8.48536 22.3469 10.2133 22.9847 12 22.9847C13.7867 22.9847 15.5147 22.3469 16.8729 21.1861C18.2311 20.0252 19.1302 18.4177 19.4085 16.6528C19.4367 16.4737 19.4584 16.2941 19.4735 16.1145C19.4761 16.092 19.4779 16.0693 19.479 16.0465C19.5967 14.4787 19.219 12.9077 18.3907 11.5593C17.5853 10.2481 16.3996 9.22158 15 8.61077V3H15.5C16.0523 3 16.5 2.55228 16.5 2C16.5 1.44772 16.0523 1 15.5 1H14.142ZM17.4786 15C17.4041 14.1574 17.1356 13.3371 16.6865 12.6061C16.0008 11.4896 14.939 10.6546 13.6923 10.2515C13.2796 10.118 13 9.73373 13 9.29999V3H11V9.2765C11.0005 9.29551 11.0004 9.31447 10.9997 9.33335C10.9888 9.81222 10.6412 10.2079 10.1844 10.293C8.99107 10.7103 7.97653 11.5266 7.3135 12.6061C6.86446 13.3371 6.59597 14.1574 6.52141 15H17.4786ZM6.71286 17C7.00882 18.0327 7.60248 18.9613 8.4266 19.6657C9.4226 20.517 10.6898 20.9847 12 20.9847C13.3102 20.9847 14.5774 20.517 15.5734 19.6657C16.3976 18.9613 16.9912 18.0327 17.2872 17H6.71286Z" fill="currentColor" style="fill="currentColor";fill-opacity:1;"/>
</svg>
