<svg width="24" height="24" viewBox="0 0 24 24" fill="none" xmlns="http://www.w3.org/2000/svg">
<path fill-rule="evenodd" clip-rule="evenodd" d="M5 2C5 1.44772 5.44772 1 6 1H18C18.5523 1 19 1.44772 19 2V6C19 7.41529 18.2439 8.17075 17.7333 8.68094C17.7245 8.68974 17.7158 8.69846 17.7071 8.70711C17.2176 9.1966 17 9.43968 17 10V20C17 20.7957 16.6839 21.5587 16.1213 22.1213C15.5587 22.6839 14.7956 23 14 23H10C9.20435 23 8.44129 22.6839 7.87868 22.1213C7.31607 21.5587 7 20.7957 7 20V10C7 9.43968 6.78239 9.1966 6.29289 8.70711C6.28424 8.69846 6.27551 8.68974 6.26671 8.68094C5.7561 8.17075 5 7.41529 5 6V2ZM7 3V6C7 6.56032 7.21761 6.8034 7.70711 7.29289C7.71576 7.30154 7.72449 7.31026 7.73329 7.31906C8.2439 7.82925 9 8.58471 9 10V20C9 20.2652 9.10536 20.5196 9.29289 20.7071C9.48043 20.8946 9.73478 21 10 21H14C14.2652 21 14.5196 20.8946 14.7071 20.7071C14.8946 20.5196 15 20.2652 15 20V10C15 8.58471 15.7561 7.82925 16.2667 7.31906C16.2755 7.31026 16.2842 7.30154 16.2929 7.29289C16.7824 6.8034 17 6.56032 17 6V3H7ZM10 12C10 10.8954 10.8954 10 12 10C13.1046 10 14 10.8954 14 12C14 13.1046 13.1046 14 12 14C10.8954 14 10 13.1046 10 12Z" fill="currentColor" style="fill="currentColor";fill-opacity:1;"/>
</svg>
