<svg width="24" height="24" viewBox="0 0 24 24" fill="none" xmlns="http://www.w3.org/2000/svg">
<g clip-path="url(#clip0_168_1986)">
<path d="M5.99996 23C5.66996 23 5.33996 22.92 5.03996 22.75C4.73996 22.58 4.47996 22.34 4.29996 22.05C4.11996 21.76 4.01996 21.43 3.99996 21.08C3.98996 20.74 4.05996 20.4 4.20996 20.09L9.27996 9.96C9.34996 9.82 9.37996 9.67 9.37996 9.51V3H8.87996C8.32996 3 7.87996 2.55 7.87996 2C7.87996 1.45 8.32996 1 8.87996 1H15.88C16.43 1 16.88 1.45 16.88 2C16.88 2.55 16.43 3 15.88 3H15.38V9.53C15.38 9.69 15.42 9.84 15.49 9.98L20.56 20.11C20.71 20.41 20.79 20.76 20.77 21.1C20.75 21.44 20.65 21.78 20.47 22.07C20.29 22.36 20.04 22.6 19.74 22.77C19.44 22.94 19.1 23.02 18.76 23.02H5.99996V23ZM7.99996 17L5.99996 21H18.77L16.77 17H7.99996ZM8.99996 15H15.76L13.7 10.87C13.49 10.45 13.38 9.99 13.38 9.53V3H11.38V9.53C11.38 9.99 11.27 10.46 11.06 10.87L8.98996 15H8.99996Z" fill="currentColor" style="fill="currentColor";fill-opacity:1;"/>
</g>
<defs>
<clipPath id="clip0_168_1986">
<rect width="16.77" height="22" fill="white" style="fill:white;fill-opacity:1;" transform="translate(4 1)"/>
</clipPath>
</defs>
</svg>
