<svg width="24" height="24" viewBox="0 0 24 24" fill="none" xmlns="http://www.w3.org/2000/svg">
<path fill-rule="evenodd" clip-rule="evenodd" d="M12 1C12.5523 1 13 1.44772 13 2V4C13 4.55228 12.5523 5 12 5C11.4477 5 11 4.55228 11 4V2C11 1.44772 11.4477 1 12 1ZM2.61732 6.07612C2.99099 5.92134 3.42111 6.0069 3.70711 6.29289L8.70711 11.2929C9.09763 11.6834 9.09763 12.3166 8.70711 12.7071L3.70711 17.7071C3.42111 17.9931 2.99099 18.0787 2.61732 17.9239C2.24364 17.7691 2 17.4045 2 17V7C2 6.59554 2.24364 6.2309 2.61732 6.07612ZM21.3827 6.07612C21.7564 6.2309 22 6.59554 22 7V17C22 17.4045 21.7564 17.7691 21.3827 17.9239C21.009 18.0787 20.5789 17.9931 20.2929 17.7071L15.2929 12.7071C14.9024 12.3166 14.9024 11.6834 15.2929 11.2929L20.2929 6.29289C20.5789 6.0069 21.009 5.92134 21.3827 6.07612ZM4 9.41421V14.5858L6.58579 12L4 9.41421ZM17.4142 12L20 14.5858V9.41421L17.4142 12ZM12 7C12.5523 7 13 7.44772 13 8V10C13 10.5523 12.5523 11 12 11C11.4477 11 11 10.5523 11 10V8C11 7.44772 11.4477 7 12 7ZM12 13C12.5523 13 13 13.4477 13 14V16C13 16.5523 12.5523 17 12 17C11.4477 17 11 16.5523 11 16V14C11 13.4477 11.4477 13 12 13ZM12 19C12.5523 19 13 19.4477 13 20V22C13 22.5523 12.5523 23 12 23C11.4477 23 11 22.5523 11 22V20C11 19.4477 11.4477 19 12 19Z" fill="currentColor" style="fill="currentColor";fill-opacity:1;"/>
</svg>
