<svg width="24" height="24" viewBox="0 0 24 24" fill="none" xmlns="http://www.w3.org/2000/svg">
<path fill-rule="evenodd" clip-rule="evenodd" d="M6.07612 2.61732C6.2309 2.24364 6.59554 2 7 2H17C17.4045 2 17.7691 2.24364 17.9239 2.61732C18.0787 2.99099 17.9931 3.42111 17.7071 3.70711L12.7071 8.70711C12.3166 9.09763 11.6834 9.09763 11.2929 8.70711L6.29289 3.70711C6.0069 3.42111 5.92134 2.99099 6.07612 2.61732ZM9.41421 4L12 6.58579L14.5858 4H9.41421ZM1 12C1 11.4477 1.44772 11 2 11H4C4.55228 11 5 11.4477 5 12C5 12.5523 4.55228 13 4 13H2C1.44772 13 1 12.5523 1 12ZM7 12C7 11.4477 7.44772 11 8 11H10C10.5523 11 11 11.4477 11 12C11 12.5523 10.5523 13 10 13H8C7.44772 13 7 12.5523 7 12ZM13 12C13 11.4477 13.4477 11 14 11H16C16.5523 11 17 11.4477 17 12C17 12.5523 16.5523 13 16 13H14C13.4477 13 13 12.5523 13 12ZM19 12C19 11.4477 19.4477 11 20 11H22C22.5523 11 23 11.4477 23 12C23 12.5523 22.5523 13 22 13H20C19.4477 13 19 12.5523 19 12ZM6.29289 20.2929L11.2929 15.2929C11.6834 14.9024 12.3166 14.9024 12.7071 15.2929L17.7071 20.2929C17.9931 20.5789 18.0787 21.009 17.9239 21.3827C17.7691 21.7564 17.4045 22 17 22H7C6.59554 22 6.2309 21.7564 6.07612 21.3827C5.92134 21.009 6.0069 20.5789 6.29289 20.2929ZM9.41421 20H14.5858L12 17.4142L9.41421 20Z" fill="currentColor" style="fill="currentColor";fill-opacity:1;"/>
</svg>
