<svg width="24" height="24" viewBox="0 0 24 24" fill="none" xmlns="http://www.w3.org/2000/svg">
<path fill-rule="evenodd" clip-rule="evenodd" d="M8.83939 4.26642C8.19985 4.00152 7.49612 3.93221 6.81719 4.06725C6.13825 4.2023 5.51461 4.53565 5.02513 5.02513C4.53565 5.51461 4.2023 6.13825 4.06725 6.81719C3.93221 7.49612 4.00152 8.19985 4.26642 8.83939C4.53133 9.47894 4.97993 10.0256 5.55551 10.4101C6.13108 10.7947 6.80777 11 7.5 11L8.12602 11C8.22048 10.633 8.36573 10.2863 8.55382 9.96803L7.29289 8.70711C6.90237 8.31658 6.90237 7.68342 7.29289 7.29289C7.68342 6.90237 8.31658 6.90237 8.70711 7.29289L9.96803 8.55382C10.2863 8.36573 10.633 8.22048 11 8.12602L11 7.5C11 6.80777 10.7947 6.13108 10.4101 5.55551C10.0256 4.97993 9.47894 4.53133 8.83939 4.26642ZM12 4.33773C11.4004 3.48445 10.5699 2.81844 9.60476 2.41867C8.59977 2.00238 7.4939 1.89346 6.42701 2.10568C5.36011 2.3179 4.3801 2.84173 3.61091 3.61091C2.84173 4.3801 2.3179 5.36011 2.10568 6.42701C1.89346 7.4939 2.00238 8.59977 2.41867 9.60476C2.81844 10.5699 3.48445 11.4004 4.33773 12C3.48445 12.5996 2.81844 13.4301 2.41867 14.3952C2.00238 15.4002 1.89346 16.5061 2.10568 17.573C2.3179 18.6399 2.84173 19.6199 3.61091 20.3891C4.3801 21.1583 5.36011 21.6821 6.42701 21.8943C7.4939 22.1065 8.59977 21.9976 9.60476 21.5813C10.5699 21.1816 11.4004 20.5156 12 19.6623C12.5996 20.5156 13.4301 21.1816 14.3952 21.5813C15.4002 21.9976 16.5061 22.1065 17.573 21.8943C18.6399 21.6821 19.6199 21.1583 20.3891 20.3891C21.1583 19.6199 21.6821 18.6399 21.8943 17.573C22.1065 16.5061 21.9976 15.4002 21.5813 14.3952C21.1816 13.4301 20.5156 12.5996 19.6623 12C20.5156 11.4004 21.1816 10.5699 21.5813 9.60476C21.9976 8.59977 22.1065 7.4939 21.8943 6.42701C21.6821 5.36011 21.1583 4.3801 20.3891 3.61091C19.6199 2.84173 18.6399 2.3179 17.573 2.10568C16.5061 1.89346 15.4002 2.00238 14.3952 2.41867C13.4301 2.81844 12.5996 3.48445 12 4.33773ZM16.5 11C17.1922 11 17.8689 10.7947 18.4445 10.4101C19.0201 10.0256 19.4687 9.47894 19.7336 8.83939C19.9985 8.19985 20.0678 7.49612 19.9328 6.81719C19.7977 6.13825 19.4644 5.51461 18.9749 5.02513C18.4854 4.53564 17.8618 4.2023 17.1828 4.06725C16.5039 3.93221 15.8002 4.00152 15.1606 4.26642C14.5211 4.53133 13.9744 4.97993 13.5899 5.55551C13.2053 6.13108 13 6.80777 13 7.5L13 8.12602C13.3671 8.22049 13.7137 8.36575 14.032 8.55386L15.293 7.29289C15.6835 6.90237 16.3167 6.90237 16.7072 7.29289C17.0977 7.68342 17.0977 8.31658 16.7072 8.70711L15.4462 9.96811C15.6343 10.2864 15.7795 10.633 15.874 11L16.5 11ZM15.874 13L16.5 13C17.1922 13 17.8689 13.2053 18.4445 13.5899C19.0201 13.9744 19.4687 14.5211 19.7336 15.1606C19.9985 15.8002 20.0678 16.5039 19.9328 17.1828C19.7977 17.8618 19.4644 18.4854 18.9749 18.9749C18.4854 19.4644 17.8618 19.7977 17.1828 19.9328C16.5039 20.0678 15.8002 19.9985 15.1606 19.7336C14.5211 19.4687 13.9744 19.0201 13.5899 18.4445C13.2053 17.8689 13 17.1922 13 16.5L13 15.874C13.367 15.7795 13.7137 15.6343 14.032 15.4462L15.293 16.7072C15.6835 17.0977 16.3167 17.0977 16.7072 16.7072C17.0977 16.3167 17.0977 15.6835 16.7072 15.293L15.4462 14.032C15.6343 13.7137 15.7795 13.367 15.874 13ZM13.4477 13.3799C13.7899 13.021 14 12.535 14 12C14 11.4654 13.7902 10.9798 13.4486 10.621C13.4365 10.61 13.4246 10.5987 13.413 10.5871C13.4014 10.5755 13.3901 10.5636 13.3791 10.5515C13.0203 10.2098 12.5346 10 12 10C11.4658 10 10.9805 10.2094 10.6218 10.5507C10.6106 10.5631 10.599 10.5752 10.5871 10.5871C10.5752 10.599 10.5631 10.6106 10.5507 10.6218C10.2094 10.9805 10 11.4658 10 12C10 12.5346 10.2098 13.0203 10.5515 13.3791C10.5636 13.3901 10.5755 13.4014 10.5871 13.413C10.5987 13.4246 10.61 13.4365 10.621 13.4486C10.9798 13.7902 11.4654 14 12 14C12.535 14 13.021 13.7899 13.3799 13.4477C13.3906 13.436 13.4016 13.4244 13.413 13.413C13.4244 13.4016 13.436 13.3906 13.4477 13.3799ZM8.55386 14.032L7.29289 15.293C6.90237 15.6835 6.90237 16.3167 7.29289 16.7072C7.68342 17.0977 8.31658 17.0977 8.70711 16.7072L9.96811 15.4462C10.2864 15.6343 10.633 15.7795 11 15.874L11 16.5C11 17.1922 10.7947 17.8689 10.4101 18.4445C10.0256 19.0201 9.47894 19.4687 8.83939 19.7336C8.19985 19.9985 7.49612 20.0678 6.81719 19.9328C6.13825 19.7977 5.51461 19.4644 5.02513 18.9749C4.53564 18.4854 4.2023 17.8618 4.06725 17.1828C3.93221 16.5039 4.00152 15.8002 4.26642 15.1606C4.53133 14.5211 4.97993 13.9744 5.55551 13.5899C6.13108 13.2053 6.80777 13 7.5 13L8.12602 13C8.22049 13.3671 8.36575 13.7137 8.55386 14.032Z" fill="currentColor" style="fill="currentColor";fill-opacity:1;"/>
</svg>
