<svg width="24" height="24" viewBox="0 0 24 24" fill="none" xmlns="http://www.w3.org/2000/svg">
<path fill-rule="evenodd" clip-rule="evenodd" d="M8.38965 4.11736C8.24203 4.03874 8.07705 3.99841 7.9098 4.00005L7.9 4.00014L4 4.0001C3.73478 4.0001 3.48043 4.10545 3.29289 4.29299C3.10536 4.48053 3 4.73488 3 5.0001V18.0001C3 18.2653 3.10536 18.5197 3.29289 18.7072C3.48043 18.8947 3.73478 19.0001 4 19.0001H9C9.55228 19.0001 10 19.4478 10 20.0001C10 20.5524 9.55228 21.0001 9 21.0001H4C3.20435 21.0001 2.44129 20.684 1.87868 20.1214C1.31607 19.5588 1 18.7957 1 18.0001V5.0001C1 4.20445 1.31607 3.44138 1.87868 2.87878C2.44129 2.31617 3.20435 2.0001 4 2.0001H7.89559C8.39547 1.99609 8.88846 2.11707 9.32975 2.35207C9.77076 2.58694 10.1461 2.92822 10.4217 3.3449L11.2352 4.55006C11.3263 4.68832 11.4502 4.80186 11.5959 4.8804C11.7416 4.95891 11.9045 5.00004 12.07 5.0001C12.0699 5.0001 12.0701 5.0001 12.07 5.0001H20C20.7957 5.0001 21.5587 5.31617 22.1213 5.87878C22.6839 6.44138 23 7.20445 23 8.0001V13.0001C23 13.5524 22.5523 14.0001 22 14.0001C21.4477 14.0001 21 13.5524 21 13.0001V8.0001C21 7.73488 20.8946 7.48053 20.7071 7.29299C20.5196 7.10545 20.2652 7.0001 20 7.0001H12.07C11.5733 7.00001 11.0843 6.87663 10.6471 6.641C10.2117 6.40637 9.84114 6.06777 9.5683 5.65535L8.75475 4.45008C8.66277 4.3104 8.53728 4.19597 8.38965 4.11736ZM13 11C12.4477 11 12 11.4477 12 12C12 12.5523 12.4477 13 13 13C13.5523 13 14 12.5523 14 12C14 11.4477 13.5523 11 13 11ZM10 12C10 10.3431 11.3431 9 13 9C14.6569 9 16 10.3431 16 12C16 13.2774 15.2016 14.3684 14.0765 14.8011C14.3863 16.3925 15.6075 17.6137 17.1989 17.9235C17.6316 16.7984 18.7226 16 20 16C21.6569 16 23 17.3431 23 19C23 20.6569 21.6569 22 20 22C18.6723 22 17.5461 21.1376 17.151 19.9424C15.9435 19.7766 14.8589 19.2613 14 18.4993V22C14 22.5523 13.5523 23 13 23C12.4477 23 12 22.5523 12 22V14.8293C10.8348 14.4175 10 13.3062 10 12ZM20 18C19.4477 18 19 18.4477 19 19C19 19.5523 19.4477 20 20 20C20.5523 20 21 19.5523 21 19C21 18.4477 20.5523 18 20 18Z" fill="currentColor" style="fill="currentColor";fill-opacity:1;"/>
</svg>
