<svg width="24" height="24" viewBox="0 0 24 24" fill="none" xmlns="http://www.w3.org/2000/svg">
<path fill-rule="evenodd" clip-rule="evenodd" d="M4 4C3.73478 4 3.48043 4.10536 3.29289 4.29289C3.10536 4.48043 3 4.73478 3 5V11.5C3 12.0523 2.55228 12.5 2 12.5C1.44771 12.5 0.999998 12.0523 0.999998 11.5V5C0.999998 4.20435 1.31607 3.44129 1.87868 2.87868C2.44129 2.31607 3.20435 2 4 2H7.9C8.9183 2 9.83785 2.45401 10.432 3.3453L11.232 4.5453C11.4379 4.85401 11.7183 5 12.1 5H20C20.7956 5 21.5587 5.31607 22.1213 5.87868C22.6839 6.44129 23 7.20435 23 8V18C23 18.7957 22.6839 19.5587 22.1213 20.1213C21.5587 20.6839 20.7956 21 20 21H10.5C9.94771 21 9.5 20.5523 9.5 20C9.5 19.4477 9.94771 19 10.5 19H20C20.2652 19 20.5196 18.8946 20.7071 18.7071C20.8946 18.5196 21 18.2652 21 18V8C21 7.73478 20.8946 7.48043 20.7071 7.29289C20.5196 7.10536 20.2652 7 20 7H12.1C11.0817 7 10.1621 6.54599 9.56795 5.6547L8.76795 4.4547C8.56214 4.14599 8.28169 4 7.9 4H4ZM9.9 10.9788C9.60261 10.9788 9.31739 11.0969 9.1071 11.3072L3.90296 16.5113L3.37437 18.6257L5.48875 18.0971L10.6929 12.893C10.797 12.7888 10.8796 12.6652 10.936 12.5292C10.9923 12.3931 11.0213 12.2473 11.0213 12.1001C11.0213 11.9528 10.9923 11.807 10.936 11.671C10.8796 11.5349 10.797 11.4113 10.6929 11.3072C10.5888 11.2031 10.4652 11.1205 10.3291 11.0641C10.1931 11.0078 10.0473 10.9788 9.9 10.9788ZM7.69289 9.89297C8.27825 9.30761 9.07217 8.97876 9.9 8.97876C10.3099 8.97876 10.7158 9.0595 11.0945 9.21636C11.4732 9.37322 11.8173 9.60313 12.1071 9.89297C12.3969 10.1828 12.6269 10.5269 12.7837 10.9056C12.9406 11.2843 13.0213 11.6902 13.0213 12.1001C13.0213 12.51 12.9406 12.9159 12.7837 13.2946C12.6269 13.6733 12.3969 14.0173 12.1071 14.3072L6.7071 19.7072C6.57895 19.8353 6.41837 19.9263 6.24253 19.9702L2.24253 20.9702C1.90176 21.0554 1.54127 20.9556 1.29289 20.7072C1.04451 20.4588 0.944662 20.0983 1.02986 19.7575L2.02986 15.7575C2.07381 15.5817 2.16473 15.4211 2.29289 15.293L7.69289 9.89297Z" fill="black" style="fill:black;fill-opacity:1;"/>
</svg>
