<svg width="24" height="24" viewBox="0 0 24 24" fill="none" xmlns="http://www.w3.org/2000/svg">
<path fill-rule="evenodd" clip-rule="evenodd" d="M8.38965 4.11736C8.24203 4.03874 8.07705 3.99841 7.9098 4.00005L7.9 4.00014L4 4.0001C3.73478 4.0001 3.48043 4.10545 3.29289 4.29299C3.10536 4.48053 3 4.73488 3 5.0001V9.0001C3 9.55238 2.55228 10.0001 2 10.0001C1.44772 10.0001 1 9.55238 1 9.0001V5.0001C1 4.20445 1.31607 3.44138 1.87868 2.87878C2.44129 2.31617 3.20435 2.0001 4 2.0001H7.89559C8.39547 1.99609 8.88846 2.11707 9.32975 2.35207C9.77076 2.58694 10.1461 2.92822 10.4217 3.3449L11.2352 4.55006C11.3263 4.68832 11.4502 4.80186 11.5959 4.8804C11.7416 4.95891 11.9045 5.00004 12.07 5.0001C12.0699 5.0001 12.0701 5.0001 12.07 5.0001H20C20.7957 5.0001 21.5587 5.31617 22.1213 5.87878C22.6839 6.44138 23 7.20445 23 8.0001V18.0001C23 18.7957 22.6839 19.5588 22.1213 20.1214C21.5587 20.684 20.7957 21.0001 20 21.0001H4C3.20435 21.0001 2.44129 20.684 1.87868 20.1214C1.31607 19.5588 1 18.7957 1 18.0001V15.0001C1 14.2044 1.31607 13.4414 1.87868 12.8788C2.44129 12.3162 3.20435 12.0001 4 12.0001H8.58584L7.29288 10.7071C6.90236 10.3166 6.90237 9.6834 7.2929 9.29288C7.68343 8.90236 8.3166 8.90237 8.70712 9.2929L11.7071 12.293C11.8947 12.4805 12 12.7349 12 13.0001C12 13.2653 11.8946 13.5197 11.7071 13.7072L8.7071 16.7071C8.31657 17.0976 7.6834 17.0976 7.29288 16.7071C6.90236 16.3166 6.90237 15.6834 7.2929 15.2929L8.58573 14.0001H4C3.73478 14.0001 3.48043 14.1055 3.29289 14.293C3.10536 14.4805 3 14.7349 3 15.0001V18.0001C3 18.2653 3.10536 18.5197 3.29289 18.7072C3.48043 18.8947 3.73478 19.0001 4 19.0001H20C20.2652 19.0001 20.5196 18.8947 20.7071 18.7072C20.8946 18.5197 21 18.2653 21 18.0001V8.0001C21 7.73488 20.8946 7.48053 20.7071 7.29299C20.5196 7.10545 20.2652 7.0001 20 7.0001H12.07C11.5733 7.00001 11.0843 6.87663 10.6471 6.641C10.2117 6.40637 9.84114 6.06777 9.5683 5.65535L8.75475 4.45008C8.66277 4.3104 8.53728 4.19597 8.38965 4.11736Z" fill="black" style="fill:black;fill-opacity:1;"/>
</svg>
