<svg width="24" height="24" viewBox="0 0 24 24" fill="none" xmlns="http://www.w3.org/2000/svg">
<path fill-rule="evenodd" clip-rule="evenodd" d="M3 2C3.55228 2 4 2.44772 4 3V5C4 5.26522 4.10536 5.51957 4.29289 5.70711C4.48043 5.89464 4.73478 6 5 6H8C8.55228 6 9 6.44772 9 7C9 7.55228 8.55228 8 8 8H5C4.65606 8 4.3182 7.94094 4 7.82843V16C4 16.2652 4.10536 16.5196 4.29289 16.7071C4.48043 16.8946 4.73478 17 5 17H8C8.55228 17 9 17.4477 9 18C9 18.5523 8.55228 19 8 19H5C4.20435 19 3.44129 18.6839 2.87868 18.1213C2.31607 17.5587 2 16.7956 2 16V3C2 2.44772 2.44772 2 3 2ZM11.5858 2.58579C11.9609 2.21071 12.4696 2 13 2H15C15.3105 2 15.6167 2.07229 15.8944 2.21115C16.1721 2.35 16.4137 2.55161 16.6 2.8L17.5 4L20 4C20.5304 4 21.0391 4.21071 21.4142 4.58579C21.7893 4.96086 22 5.46957 22 6V9C22 9.53043 21.7893 10.0391 21.4142 10.4142C21.0391 10.7893 20.5304 11 20 11H13C12.4696 11 11.9609 10.7893 11.5858 10.4142C11.2107 10.0391 11 9.53043 11 9V4C11 3.46957 11.2107 2.96086 11.5858 2.58579ZM15 4H13V9H20V6H17.5C17.1895 6 16.8833 5.92771 16.6056 5.78885C16.3279 5.65 16.0863 5.44839 15.9 5.2L15 4ZM14.8784 13C15.2681 12.999 15.6496 13.1119 15.976 13.3248C16.2952 13.5329 16.5481 13.8279 16.7052 14.1746L17.1131 15H20C20.5304 15 21.0391 15.2107 21.4142 15.5858C21.7893 15.9609 22 16.4696 22 17V20C22 20.5304 21.7893 21.0391 21.4142 21.4142C21.0391 21.7893 20.5304 22 20 22H13C12.4696 22 11.9609 21.7893 11.5858 21.4142C11.2107 21.0391 11 20.5304 11 20V15C11 14.4696 11.2107 13.9609 11.5858 13.5858C11.9609 13.2107 12.4696 13 13 13H14.8784ZM14.88 15H13V20H20V17H17.0869C16.721 16.9952 16.3634 16.89 16.0531 16.6961C15.7427 16.5021 15.4916 16.2267 15.3269 15.8999L15.3234 15.893L14.9035 15.043C14.8965 15.0288 14.8898 15.0145 14.8835 15L14.88 15Z" fill="currentColor" style="fill="currentColor";fill-opacity:1;"/>
</svg>
