<svg width="24" height="24" viewBox="0 0 24 24" fill="none" xmlns="http://www.w3.org/2000/svg">
<g clip-path="url(#clip0_168_1928)">
<path d="M18.4496 21.5H3.99963C3.19963 21.5 2.44963 21.19 1.87963 20.62C1.30963 20.05 0.999626 19.3 0.999626 18.5V5.5C0.999626 3.85 2.34963 2.5 3.99963 2.5H7.92963C8.42963 2.5 8.91963 2.63 9.34963 2.86C9.77963 3.09 10.1496 3.43 10.4296 3.85L11.2396 5.04C11.3396 5.19 11.4596 5.31 11.6096 5.38C11.7496 5.46 11.9196 5.5 12.0796 5.5H17.9996C18.7996 5.5 19.5496 5.81 20.1196 6.38C20.6896 6.95 20.9996 7.7 20.9996 8.5V9.67C21.1096 9.71 21.2196 9.75 21.3196 9.8C21.7296 10 22.0896 10.3 22.3696 10.66C22.6496 11.02 22.8496 11.45 22.9396 11.89C23.0296 12.33 23.0196 12.8 22.9096 13.24L21.3596 19.24C21.1896 19.88 20.8096 20.46 20.2896 20.86C19.7696 21.26 19.1196 21.49 18.4596 21.49L18.4496 21.5ZM7.91963 4.5H3.99963C3.44963 4.5 2.99963 4.95 2.99963 5.5V18.5C2.99963 18.77 3.09963 19.02 3.28963 19.21C3.47963 19.4 3.72963 19.5 3.99963 19.5H18.4496C18.6696 19.5 18.8896 19.43 19.0596 19.29C19.2296 19.16 19.3596 18.96 19.4196 18.75L20.9696 12.75C21.0096 12.6 21.0096 12.45 20.9796 12.3C20.9496 12.15 20.8796 12.01 20.7896 11.89C20.6896 11.77 20.5796 11.67 20.4396 11.6C20.2996 11.53 20.1496 11.5 19.9996 11.5H9.23963C9.04963 11.5 8.86963 11.55 8.71963 11.65C8.55963 11.75 8.42963 11.89 8.34963 12.05L6.89963 14.95C6.64963 15.44 6.04963 15.64 5.55963 15.4C5.06963 15.15 4.86963 14.55 5.10963 14.06L6.55963 11.16C6.80963 10.66 7.19963 10.24 7.66963 9.95C8.13963 9.66 8.67963 9.51 9.23963 9.51H19.0096V8.51C19.0096 8.25 18.8996 7.99 18.7196 7.8C18.5296 7.61 18.2796 7.51 18.0096 7.51H12.0796C11.5796 7.51 11.0896 7.38 10.6596 7.15C10.2296 6.91 9.84963 6.57 9.57963 6.16L8.76963 4.97C8.66963 4.82 8.54963 4.7 8.39963 4.63C8.24963 4.55 8.08963 4.51 7.92963 4.51L7.91963 4.5ZM13.9996 17.5C12.8996 17.5 11.9996 16.6 11.9996 15.5C11.9996 14.4 12.8996 13.5 13.9996 13.5C15.0996 13.5 15.9996 14.4 15.9996 15.5C15.9996 16.6 15.0996 17.5 13.9996 17.5Z" fill="currentColor" style="fill="currentColor";fill-opacity:1;"/>
</g>
<defs>
<clipPath id="clip0_168_1928">
<rect width="24" height="24" fill="white" style="fill:white;fill-opacity:1;"/>
</clipPath>
</defs>
</svg>
