<svg width="24" height="24" viewBox="0 0 24 24" fill="none" xmlns="http://www.w3.org/2000/svg">
<path fill-rule="evenodd" clip-rule="evenodd" d="M8.38965 4.11736C8.24203 4.03874 8.07705 3.99841 7.9098 4.00005L7.9 4.00014L4 4.0001C3.73478 4.0001 3.48043 4.10545 3.29289 4.29299C3.10536 4.48053 3 4.73488 3 5.0001V7.5001C3 8.05238 2.55228 8.5001 2 8.5001C1.44772 8.5001 1 8.05238 1 7.5001V5.0001C1 4.20445 1.31607 3.44138 1.87868 2.87878C2.44129 2.31617 3.20435 2.0001 4 2.0001H7.89559C8.39547 1.99609 8.88846 2.11707 9.32975 2.35207C9.77076 2.58694 10.1461 2.92822 10.4217 3.3449L11.2352 4.55006C11.3263 4.68832 11.4502 4.80186 11.5959 4.8804C11.7416 4.95891 11.9045 5.00004 12.07 5.0001C12.0699 5.0001 12.0701 5.0001 12.07 5.0001H20C20.7957 5.0001 21.5587 5.31617 22.1213 5.87878C22.6839 6.44138 23 7.20445 23 8.0001V18.0001C23 18.7957 22.6839 19.5588 22.1213 20.1214C21.5587 20.684 20.7957 21.0001 20 21.0001H4.01424C3.33898 21.0175 2.6774 20.8066 2.13675 20.4011C1.59146 19.9921 1.20169 19.4097 1.03163 18.7496C0.89383 18.2148 1.21568 17.6695 1.7505 17.5317C2.28532 17.3939 2.83058 17.7158 2.96837 18.2506C3.02506 18.4706 3.15498 18.6648 3.33675 18.8011C3.51851 18.9374 3.74128 19.0078 3.96837 19.0006C3.97891 19.0003 3.98946 19.0001 4 19.0001H20C20.2652 19.0001 20.5196 18.8947 20.7071 18.7072C20.8946 18.5197 21 18.2653 21 18.0001V8.0001C21 7.73488 20.8946 7.48053 20.7071 7.29299C20.5196 7.10545 20.2652 7.0001 20 7.0001H12.07C11.5733 7.00001 11.0843 6.87663 10.6471 6.641C10.2117 6.40637 9.84114 6.06777 9.5683 5.65535L8.75475 4.45008C8.66277 4.3104 8.53728 4.19597 8.38965 4.11736ZM5.70711 9.29289C6.09763 9.68342 6.09763 10.3166 5.70711 10.7071L4.41421 12H12C12.5523 12 13 12.4477 13 13C13 13.5523 12.5523 14 12 14H4.41421L5.70711 15.2929C6.09763 15.6834 6.09763 16.3166 5.70711 16.7071C5.31658 17.0976 4.68342 17.0976 4.29289 16.7071L1.29289 13.7071C0.902369 13.3166 0.902369 12.6834 1.29289 12.2929L4.29289 9.29289C4.68342 8.90237 5.31658 8.90237 5.70711 9.29289Z" fill="currentColor" style="fill="currentColor";fill-opacity:1;"/>
</svg>
