<svg width="24" height="24" viewBox="0 0 24 24" fill="none" xmlns="http://www.w3.org/2000/svg">
<path fill-rule="evenodd" clip-rule="evenodd" d="M8.38965 4.11736C8.24203 4.03874 8.07705 3.99841 7.9098 4.00005L7.9 4.00014L4 4.0001C3.73478 4.0001 3.48043 4.10545 3.29289 4.29299C3.10536 4.48053 3 4.73488 3 5.0001V18.0001C3 18.2653 3.10536 18.5197 3.29289 18.7072C3.48043 18.8947 3.73478 19.0001 4 19.0001H9C9.55228 19.0001 10 19.4478 10 20.0001C10 20.5524 9.55228 21.0001 9 21.0001H4C3.20435 21.0001 2.44129 20.684 1.87868 20.1214C1.31607 19.5588 1 18.7957 1 18.0001V5.0001C1 4.20445 1.31607 3.44138 1.87868 2.87878C2.44129 2.31617 3.20435 2.0001 4 2.0001H7.89559C8.39547 1.99609 8.88846 2.11707 9.32975 2.35207C9.77076 2.58694 10.1461 2.92822 10.4217 3.3449L11.2352 4.55006C11.3263 4.68832 11.4502 4.80186 11.5959 4.8804C11.7416 4.95891 11.9045 5.00004 12.07 5.0001C12.0699 5.0001 12.0701 5.0001 12.07 5.0001H20C20.7957 5.0001 21.5587 5.31617 22.1213 5.87878C22.6839 6.44138 23 7.20445 23 8.0001V8.5001C23 9.05238 22.5523 9.5001 22 9.5001C21.4477 9.5001 21 9.05238 21 8.5001V8.0001C21 7.73488 20.8946 7.48053 20.7071 7.29299C20.5196 7.10545 20.2652 7.0001 20 7.0001H12.07C11.5733 7.00001 11.0843 6.87663 10.6471 6.641C10.2117 6.40637 9.84114 6.06777 9.5683 5.65535L8.75475 4.45008C8.66277 4.3104 8.53728 4.19597 8.38965 4.11736ZM12 9C12.5523 9 13 9.44772 13 10V11.5276C13.6573 10.9398 14.4368 10.5035 15.2834 10.2507C16.1989 9.97742 17.1664 9.9267 18.1054 10.1028C19.0445 10.2788 19.9279 10.6766 20.6822 11.263C21.4365 11.8494 22.0398 12.6074 22.4421 13.474C22.6746 13.975 22.457 14.5696 21.956 14.8021C21.455 15.0346 20.8604 14.817 20.6279 14.316C20.3598 13.7383 19.9575 13.2329 19.4547 12.842C18.9518 12.4511 18.3629 12.1859 17.7368 12.0685C17.1108 11.9511 16.4658 11.9849 15.8555 12.1671C15.2999 12.333 14.7877 12.6174 14.3539 13H16C16.5523 13 17 13.4477 17 14C17 14.5523 16.5523 15 16 15H12C11.4477 15 11 14.5523 11 14V10C11 9.44772 11.4477 9 12 9ZM17 18C17 17.4477 17.4477 17 18 17H22C22.5523 17 23 17.4477 23 18V22C23 22.5523 22.5523 23 22 23C21.4477 23 21 22.5523 21 22V20.4725C20.3427 21.0603 19.5633 21.4966 18.7167 21.7493C17.8012 22.0226 16.8337 22.0733 15.8947 21.8972C14.9556 21.7212 14.0722 21.3234 13.3179 20.737C12.5636 20.1506 11.9602 19.3926 11.558 18.526C11.3255 18.025 11.5431 17.4304 12.0441 17.1979C12.545 16.9654 13.1396 17.183 13.3721 17.684C13.6403 18.2617 14.0425 18.7671 14.5454 19.158C15.0483 19.5489 15.6372 19.8141 16.2632 19.9315C16.8893 20.0489 17.5343 20.0151 18.1446 19.8329C18.7002 19.667 19.2124 19.3826 19.6462 19H18C17.4477 19 17 18.5523 17 18Z" fill="currentColor" style="fill="currentColor";fill-opacity:1;"/>
</svg>
