<svg width="24" height="24" viewBox="0 0 24 24" fill="none" xmlns="http://www.w3.org/2000/svg">
<path fill-rule="evenodd" clip-rule="evenodd" d="M16 1C16.5523 1 17 1.44772 17 2V9.99931C17 9.99977 17 10.0002 17 10.0007V18H22C22.5523 18 23 18.4477 23 19C23 19.5523 22.5523 20 22 20H16C15.9435 20 15.8881 19.9953 15.8341 19.9863C15.4262 21.1586 14.3113 22 13 22C11.6938 22 10.5825 21.1652 10.1707 20H8C7.94348 20 7.88806 19.9953 7.8341 19.9863C7.42615 21.1586 6.31133 22 5 22C3.34315 22 2 20.6569 2 19V14C2 13.2044 2.31607 12.4413 2.87868 11.8787C3.44129 11.3161 4.20435 11 5 11V7C5 5.34772 6.34772 4 8 4H11C11.2652 4 11.5196 4.10536 11.7071 4.29289L15 7.58579V2C15 1.44772 15.4477 1 16 1ZM15 10.4142L10.5858 6H8C7.45228 6 7 6.45228 7 7V11H12C12.5523 11 13 11.4477 13 12C13 12.5523 12.5523 13 12 13H5C4.73478 13 4.48043 13.1054 4.29289 13.2929C4.10536 13.4804 4 13.7348 4 14V16.1707C4.31278 16.0602 4.64936 16 5 16C6.31133 16 7.42616 16.8414 7.8341 18.0137C7.88806 18.0047 7.94348 18 8 18H10.1707C10.5825 16.8348 11.6938 16 13 16C13.7684 16 14.4692 16.2889 15 16.7639V10.4142ZM4 19C4 19.5523 4.44772 20 5 20C5.55228 20 6 19.5523 6 19C6 18.4477 5.55228 18 5 18C4.44772 18 4 18.4477 4 19ZM13 18C12.4477 18 12 18.4477 12 19C12 19.5523 12.4477 20 13 20C13.5523 20 14 19.5523 14 19C14 18.4477 13.5523 18 13 18Z" fill="currentColor" style="fill="currentColor";fill-opacity:1;"/>
</svg>
