<svg width="24" height="24" viewBox="0 0 24 24" fill="none" xmlns="http://www.w3.org/2000/svg">
<path fill-rule="evenodd" clip-rule="evenodd" d="M14.2929 6.29289C14.6834 5.90237 15.3166 5.90237 15.7071 6.29289L20.7071 11.2929C21.0976 11.6834 21.0976 12.3166 20.7071 12.7071L15.7071 17.7071C15.3166 18.0976 14.6834 18.0976 14.2929 17.7071C13.9024 17.3166 13.9024 16.6834 14.2929 16.2929L17.5858 13H8C7.20435 13 6.44129 13.3161 5.87868 13.8787C5.31607 14.4413 5 15.2044 5 16V18C5 18.5523 4.55228 19 4 19C3.44772 19 3 18.5523 3 18V16C3 14.6739 3.52678 13.4021 4.46447 12.4645C5.40215 11.5268 6.67392 11 8 11H17.5858L14.2929 7.70711C13.9024 7.31658 13.9024 6.68342 14.2929 6.29289Z" fill="currentColor" style="fill="currentColor";fill-opacity:1;"/>
</svg>
