<svg width="24" height="24" viewBox="0 0 24 24" fill="none" xmlns="http://www.w3.org/2000/svg">
<path fill-rule="evenodd" clip-rule="evenodd" d="M3.87868 1.87868C4.44129 1.31607 5.20435 1 6 1H12C12.7956 1 13.5587 1.31607 14.1213 1.87868C14.6839 2.44129 15 3.20435 15 4V12H16C16.7957 12 17.5587 12.3161 18.1213 12.8787C18.6839 13.4413 19 14.2043 19 15V17C19 17.2652 19.1054 17.5196 19.2929 17.7071C19.4804 17.8946 19.7348 18 20 18C20.2652 18 20.5196 17.8946 20.7071 17.7071C20.8946 17.5196 21 17.2652 21 17V9.83C21.0001 9.69804 20.9741 9.56658 20.9235 9.44472C20.8728 9.32287 20.7986 9.21224 20.705 9.11921L20.7029 9.11711L17.2929 5.70711C16.9024 5.31658 16.9024 4.68342 17.2929 4.29289C17.6834 3.90237 18.3166 3.90237 18.7071 4.29289L22.115 7.70079C22.1154 7.70121 22.1158 7.70162 22.1162 7.70203C22.3964 7.98086 22.6187 8.31231 22.7704 8.67734C22.9223 9.04291 23.0003 9.43493 23 9.83079V17C23 17.7957 22.6839 18.5587 22.1213 19.1213C21.5587 19.6839 20.7957 20 20 20C19.2043 20 18.4413 19.6839 17.8787 19.1213C17.3161 18.5587 17 17.7957 17 17V15C17 14.7348 16.8946 14.4804 16.7071 14.2929C16.5196 14.1054 16.2652 14 16 14H15V21C15.5523 21 16 21.4477 16 22C16 22.5523 15.5523 23 15 23H3C2.44772 23 2 22.5523 2 22C2 21.4477 2.44772 21 3 21V4C3 3.20435 3.31607 2.44129 3.87868 1.87868ZM5 10V21H13V10H5ZM13 8H5V4C5 3.73478 5.10536 3.48043 5.29289 3.29289C5.48043 3.10536 5.73478 3 6 3H12C12.2652 3 12.5196 3.10536 12.7071 3.29289C12.8946 3.48043 13 3.73478 13 4V8Z" fill="currentColor" style="fill="currentColor";fill-opacity:1;"/>
</svg>
