<svg width="24" height="24" viewBox="0 0 24 24" fill="none" xmlns="http://www.w3.org/2000/svg">
<path fill-rule="evenodd" clip-rule="evenodd" d="M5 4C4.44772 4 4 4.44772 4 5V19C4 19.5523 4.44771 20 5 20H19C19.5523 20 20 19.5523 20 19V5C20 4.44771 19.5523 4 19 4H5ZM2 5C2 3.34315 3.34315 2 5 2H19C20.6569 2 22 3.34315 22 5V19C22 20.6569 20.6569 22 19 22H5C3.34315 22 2 20.6569 2 19V5ZM13.2904 8.33623C13.0168 8.61627 12.8 9.14214 12.8 9.99999V10.2H14.7C15.2523 10.2 15.7 10.6477 15.7 11.2C15.7 11.7522 15.2523 12.2 14.7 12.2H12.8V14.2C12.8 15.2263 12.5744 16.2255 11.876 16.9627C11.1675 17.7105 10.1537 18 9 18C8.44772 18 8 17.5523 8 17C8 16.4477 8.44772 16 9 16C9.84635 16 10.2325 15.7895 10.424 15.5872C10.6256 15.3745 10.8 14.9737 10.8 14.2V12.2H9C8.44772 12.2 8 11.7522 8 11.2C8 10.6477 8.44772 10.2 9 10.2H10.8V9.99999C10.8 8.85784 11.0832 7.73371 11.8596 6.93875C12.6668 6.11238 13.8191 5.8297 15.1351 6.00916C15.6823 6.08378 16.0655 6.58788 15.9908 7.1351C15.9162 7.68232 15.4121 8.06544 14.8649 7.99082C13.9809 7.87028 13.5332 8.0876 13.2904 8.33623Z" fill="currentColor" style="fill="currentColor";fill-opacity:1;"/>
</svg>
