<svg width="24" height="24" viewBox="0 0 24 24" fill="none" xmlns="http://www.w3.org/2000/svg">
<path fill-rule="evenodd" clip-rule="evenodd" d="M3.33106 5.28808C4.2495 4.45922 5.44262 4.00029 6.67977 4H17.32C18.5573 4.00032 19.7509 4.45943 20.6694 5.28854C21.586 6.11597 22.1639 7.25325 22.292 8.48124C22.2983 8.53537 22.2999 8.55386 22.301 8.56598C22.3019 8.57668 22.3024 8.58241 22.3053 8.60335L22.3079 8.62268L22.3084 8.62751C22.3869 9.28061 23 14.3818 23 16C23 17.0609 22.5786 18.0783 21.8284 18.8284C21.0783 19.5786 20.0609 20 19 20C17.5847 20 16.8292 19.2439 16.3191 18.7333C16.3103 18.7245 16.3015 18.7158 16.2929 18.7071L14.8789 17.2931C14.6915 17.1056 14.4371 17.0001 14.172 17M6.68 6C5.93779 6.00023 5.22202 6.27558 4.67101 6.77285C4.11994 7.27016 3.77282 7.95412 3.69673 8.6925L3.69548 8.70463C3.69546 8.70484 3.69525 8.70616 3.69501 8.70844C3.69304 8.72754 3.68414 8.81356 3.67713 8.86736C3.58858 9.60434 3 14.5373 3 16C3 16.5304 3.21071 17.0391 3.58579 17.4142C3.96086 17.7893 4.46957 18 5 18C5.56032 18 5.8034 17.7824 6.29289 17.2929L7.70679 15.879C7.70675 15.879 7.70682 15.879 7.70679 15.879C8.26925 15.3164 9.03225 15.0002 9.82779 15H14.172C14.9675 15.0002 15.7306 15.3163 16.2931 15.8789C16.2931 15.8789 16.2931 15.8789 16.2931 15.8789L17.7071 17.2929C18.1966 17.7824 18.4397 18 19 18C19.5304 18 20.0391 17.7893 20.4142 17.4142C20.7893 17.0391 21 16.5304 21 16C21 14.5378 20.4126 9.61442 20.3231 8.86963C20.3179 8.83085 20.3142 8.79582 20.3115 8.77079C20.3106 8.7617 20.3098 8.75408 20.3091 8.74744C20.3074 8.73053 20.3063 8.71999 20.3048 8.70784L20.3032 8.69325C20.2273 7.95473 19.8803 7.2706 19.3292 6.77313C18.7782 6.2757 18.0623 6.00024 17.3199 6C17.3199 6 17.32 6 17.3199 6H6.68C6.68008 6 6.67992 6 6.68 6ZM3.33106 5.28808C2.41417 6.11554 1.83603 7.25302 1.70791 8.48127L3.33106 5.28808ZM1.70791 8.48127C1.70234 8.52984 1.70044 8.55014 1.69914 8.56403C1.69789 8.57744 1.69719 8.58487 1.69429 8.60602L1.69214 8.62268L1.69169 8.62648C1.61371 9.2753 1 14.3819 1 16C1 17.0609 1.42143 18.0783 2.17157 18.8284C2.92172 19.5786 3.93913 20 5 20C6.41529 20 7.17075 19.2439 7.68094 18.7333C7.68974 18.7245 7.69846 18.7158 7.70711 18.7071L9.12111 17.2931C9.30855 17.1056 9.56288 17.0001 9.828 17C9.82793 17 9.82807 17 9.828 17H14.172M8 8C8.55228 8 9 8.44772 9 9V10H10C10.5523 10 11 10.4477 11 11C11 11.5523 10.5523 12 10 12H9V13C9 13.5523 8.55228 14 8 14C7.44772 14 7 13.5523 7 13V12H6C5.44772 12 5 11.5523 5 11C5 10.4477 5.44772 10 6 10H7V9C7 8.44772 7.44772 8 8 8ZM17 10C17 9.44772 17.4477 9 18 9H18.01C18.5623 9 19.01 9.44772 19.01 10C19.01 10.5523 18.5623 11 18.01 11H18C17.4477 11 17 10.5523 17 10ZM14 12C14 11.4477 14.4477 11 15 11H15.01C15.5623 11 16.01 11.4477 16.01 12C16.01 12.5523 15.5623 13 15.01 13H15C14.4477 13 14 12.5523 14 12Z" fill="currentColor" style="fill="currentColor";fill-opacity:1;"/>
</svg>
