<svg width="24" height="24" viewBox="0 0 24 24" fill="none" xmlns="http://www.w3.org/2000/svg">
<path fill-rule="evenodd" clip-rule="evenodd" d="M7 6C7 5.44772 7.44772 5 8 5H18C18.5523 5 19 5.44772 19 6C19 6.55228 18.5523 7 18 7H8C7.44772 7 7 6.55228 7 6ZM5 12C5 11.4477 5.44772 11 6 11H15C15.5523 11 16 11.4477 16 12C16 12.5523 15.5523 13 15 13H6C5.44772 13 5 12.5523 5 12ZM10 18C10 17.4477 10.4477 17 11 17H18C18.5523 17 19 17.4477 19 18C19 18.5523 18.5523 19 18 19H11C10.4477 19 10 18.5523 10 18Z" fill="currentColor" style="fill="currentColor";fill-opacity:1;"/>
</svg>
