<svg width="24" height="24" viewBox="0 0 24 24" fill="none" xmlns="http://www.w3.org/2000/svg">
<path fill-rule="evenodd" clip-rule="evenodd" d="M8.61123 1.54939C11.014 0.776693 13.6095 0.853819 15.9622 1.76783C16.477 1.96783 16.7322 2.54729 16.5322 3.06209C16.3322 3.57689 15.7527 3.83208 15.2379 3.63209C13.313 2.88426 11.1895 2.82116 9.22351 3.45336C7.25758 4.08557 5.56885 5.37463 4.44064 7.10429C3.31242 8.83395 2.81335 10.899 3.02714 12.953C3.24093 15.007 4.15458 16.925 5.61482 18.3852C7.07506 19.8454 8.99305 20.7591 11.047 20.9729C13.101 21.1867 15.1661 20.6876 16.8957 19.5594C18.6254 18.4312 19.9144 16.7424 20.5467 14.7765C21.1789 12.8106 21.1158 10.687 20.3679 8.76209C20.1679 8.24729 20.4231 7.66783 20.9379 7.46783C21.4527 7.26783 22.0322 7.52303 22.2322 8.03783C23.1462 10.3905 23.2233 12.986 22.4506 15.3888C21.6779 17.7916 20.1024 19.8556 17.9884 21.2345C15.8744 22.6135 13.3504 23.2234 10.84 22.9621C8.32955 22.7008 5.98534 21.5842 4.2006 19.7994C2.41587 18.0147 1.29918 15.6705 1.03788 13.16C0.776583 10.6496 1.38656 8.12566 2.76549 6.01163C4.14443 3.8976 6.20842 2.32209 8.61123 1.54939ZM19.707 4.29289C20.0975 4.68342 20.0975 5.31658 19.707 5.70711L14.7076 10.7065C14.895 11.0982 15 11.5368 15 12C15 13.6569 13.6569 15 12 15C10.3431 15 9 13.6569 9 12C9 10.3431 10.3431 9 12 9C12.4631 9 12.9017 9.10494 13.2934 9.29234L18.2928 4.29289C18.6833 3.90237 19.3165 3.90237 19.707 4.29289ZM12.5993 11.1994C12.4323 11.0742 12.2248 11 12 11C11.4477 11 11 11.4477 11 12C11 12.5523 11.4477 13 12 13C12.5523 13 13 12.5523 13 12C13 11.7752 12.9258 11.5677 12.8006 11.4006C12.763 11.3725 12.727 11.3413 12.6928 11.3071C12.6586 11.2729 12.6275 11.2369 12.5993 11.1994Z" fill="currentColor" style="fill="currentColor";fill-opacity:1;"/>
</svg>
