<svg width="24" height="24" viewBox="0 0 24 24" fill="none" xmlns="http://www.w3.org/2000/svg">
<path fill-rule="evenodd" clip-rule="evenodd" d="M12 4.99951C10.4201 4.99951 8.8681 5.41539 7.4999 6.20534C6.1317 6.99529 4.99556 8.13148 4.20566 9.49971C3.41576 10.8679 2.99994 12.42 3 13.9999C3.00006 15.5797 3.416 17.1317 4.206 18.4999C4.48217 18.9782 4.31832 19.5898 3.84004 19.866C3.36177 20.1421 2.75017 19.9783 2.474 19.5C1.50844 17.8278 1.00007 15.9309 1 13.9999C0.999926 12.069 1.50815 10.172 2.47358 8.49975C3.43901 6.82748 4.82764 5.4388 6.49988 4.4733C8.17212 3.50781 10.069 2.99951 12 2.99951C13.931 2.99951 15.8279 3.50781 17.5001 4.4733C19.1724 5.4388 20.561 6.82748 21.5264 8.49975C22.4919 10.172 23.0001 12.069 23 13.9999C22.9999 15.9309 22.4916 17.8278 21.526 19.5C21.2498 19.9783 20.6382 20.1421 20.16 19.866C19.6817 19.5898 19.5178 18.9782 19.794 18.4999C20.584 17.1317 20.9999 15.5797 21 13.9999C21.0001 12.42 20.5842 10.8679 19.7943 9.49971C19.0044 8.13148 17.8683 6.99529 16.5001 6.20534C15.1319 5.41539 13.5799 4.99951 12 4.99951ZM16.7071 9.29289C17.0976 9.68342 17.0976 10.3166 16.7071 10.7071L12.7071 14.7071C12.3166 15.0976 11.6834 15.0976 11.2929 14.7071C10.9024 14.3166 10.9024 13.6834 11.2929 13.2929L15.2929 9.29289C15.6834 8.90237 16.3166 8.90237 16.7071 9.29289Z" fill="currentColor" style="fill="currentColor";fill-opacity:1;"/>
</svg>
