<svg width="24" height="24" viewBox="0 0 24 24" fill="none" xmlns="http://www.w3.org/2000/svg">
<path fill-rule="evenodd" clip-rule="evenodd" d="M13.2929 1.29289C13.6834 0.902369 14.3166 0.902369 14.7071 1.29289C15.0976 1.68342 15.0976 2.31658 14.7071 2.70711L14.4142 3L21 9.58579L21.2929 9.29289C21.6834 8.90237 22.3166 8.90237 22.7071 9.29289C23.0976 9.68342 23.0976 10.3166 22.7071 10.7071L21.7074 11.7068L16.7071 16.7071C16.3166 17.0976 15.6834 17.0976 15.2929 16.7071C14.9024 16.3166 14.9024 15.6834 15.2929 15.2929L15.5858 15L14.5 13.9142L7.20709 21.2071C6.62173 21.7925 5.82781 22.1213 4.99998 22.1213C4.17216 22.1213 3.37824 21.7925 2.79288 21.2071C2.20751 20.6217 1.87866 19.8278 1.87866 19C1.87866 18.1722 2.20751 17.3783 2.79288 16.7929L10.0858 9.49999L9 8.41421L8.70711 8.70711C8.31658 9.09763 7.68342 9.09763 7.29289 8.70711C6.90237 8.31658 6.90237 7.68342 7.29289 7.29289L12.2927 2.29304L13.2929 1.29289ZM13 4.41421L10.4142 7L17 13.5858L19.5858 11L13 4.41421ZM13.0858 12.5L11.5 10.9142L4.20709 18.2071C3.9968 18.4174 3.87866 18.7026 3.87866 19C3.87866 19.2974 3.9968 19.5826 4.20709 19.7929C4.41738 20.0032 4.70259 20.1213 4.99998 20.1213C5.29737 20.1213 5.58259 20.0032 5.79288 19.7929L13.0858 12.5Z" fill="currentColor" style="fill="currentColor";fill-opacity:1;"/>
</svg>
