<svg width="24" height="24" viewBox="0 0 24 24" fill="none" xmlns="http://www.w3.org/2000/svg">
<path fill-rule="evenodd" clip-rule="evenodd" d="M10.9799 2.00001H6C5.66565 2.00001 5.35342 2.16711 5.16795 2.44531L1.16795 8.4453C0.930283 8.80181 0.946139 9.27011 1.20738 9.60972L11.2074 22.6097C11.3967 22.8558 11.6895 23 12 23C12.3105 23 12.6033 22.8558 12.7926 22.6097L22.7926 9.60972C23.0539 9.27011 23.0697 8.80181 22.8321 8.4453L18.8321 2.44531C18.6466 2.16711 18.3344 2.00001 18 2.00001H13.0201C13.0062 1.99971 12.9923 1.99971 12.9783 2.00001H11.0217C11.0077 1.99971 10.9938 1.99971 10.9799 2.00001ZM12.382 4.00001H11.618L9.61804 8.00001H14.382L12.382 4.00001ZM14.618 4.00001L16.618 8.00001H20.1315L17.4648 4.00001H14.618ZM19.9691 10H16.7386L14.5849 16.9996L19.9691 10ZM12 18.5996L14.646 10H9.35396L12 18.5996ZM7.38197 8.00001L9.38197 4.00001H6.53519L3.86852 8.00001H7.38197ZM4.03086 10H7.26143L9.41513 16.9996L4.03086 10Z" fill="currentColor" style="fill="currentColor";fill-opacity:1;"/>
</svg>
