<svg width="24" height="24" viewBox="0 0 24 24" fill="none" xmlns="http://www.w3.org/2000/svg">
<path fill-rule="evenodd" clip-rule="evenodd" d="M5 4C3.89543 4 3 4.89543 3 6C3 7.10457 3.89543 8 5 8C6.10457 8 7 7.10457 7 6C7 4.89543 6.10457 4 5 4ZM1 6C1 3.79086 2.79086 2 5 2C7.20914 2 9 3.79086 9 6C9 7.86384 7.72523 9.42994 6 9.87398V14.126C7.72523 14.5701 9 16.1362 9 18C9 20.2091 7.20914 22 5 22C2.79086 22 1 20.2091 1 18C1 16.1362 2.27477 14.5701 4 14.126V9.87398C2.27477 9.42994 1 7.86384 1 6ZM12 2C12.5523 2 13 2.44772 13 3V21C13 21.5523 12.5523 22 12 22C11.4477 22 11 21.5523 11 21V3C11 2.44772 11.4477 2 12 2ZM19 4C17.8954 4 17 4.89543 17 6C17 7.10457 17.8954 8 19 8C20.1046 8 21 7.10457 21 6C21 4.89543 20.1046 4 19 4ZM15 6C15 3.79086 16.7909 2 19 2C21.2091 2 23 3.79086 23 6C23 7.87817 21.7055 9.45401 19.9601 9.88403C19.8614 10.9856 19.5805 12.0653 19.1269 13.0784C18.5525 14.3612 17.7142 15.5084 16.6667 16.4454C16.255 16.8135 15.6228 16.7783 15.2546 16.3667C14.8865 15.955 14.9217 15.3228 15.3333 14.9546C16.1714 14.2051 16.842 13.2873 17.3015 12.2611C17.643 11.4984 17.8621 10.6886 17.9526 9.86147C16.2515 9.40115 15 7.84673 15 6ZM5 16C3.89543 16 3 16.8954 3 18C3 19.1046 3.89543 20 5 20C6.10457 20 7 19.1046 7 18C7 16.8954 6.10457 16 5 16Z" fill="black" style="fill:black;fill-opacity:1;"/>
</svg>
