<svg width="24" height="24" viewBox="0 0 24 24" fill="none" xmlns="http://www.w3.org/2000/svg">
<path fill-rule="evenodd" clip-rule="evenodd" d="M6 4C4.89543 4 4 4.89543 4 6C4 7.10457 4.89543 8 6 8C7.10457 8 8 7.10457 8 6C8 4.89543 7.10457 4 6 4ZM2 6C2 3.79086 3.79086 2 6 2C8.20914 2 10 3.79086 10 6C10 7.86384 8.72523 9.42994 7 9.87398V11H17V9.87398C15.2748 9.42994 14 7.86384 14 6C14 3.79086 15.7909 2 18 2C20.2091 2 22 3.79086 22 6C22 7.86384 20.7252 9.42994 19 9.87398V11C19 11.5272 18.8199 12.0443 18.4321 12.4321C18.0443 12.8199 17.5272 13 17 13H13V14.126C14.7252 14.5701 16 16.1362 16 18C16 20.2091 14.2091 22 12 22C9.79086 22 8 20.2091 8 18C8 16.1362 9.27477 14.5701 11 14.126V13H7C6.47275 13 5.95567 12.8199 5.56789 12.4321C5.18011 12.0443 5 11.5272 5 11V9.87398C3.27477 9.42994 2 7.86384 2 6ZM18 4C16.8954 4 16 4.89543 16 6C16 7.10457 16.8954 8 18 8C19.1046 8 20 7.10457 20 6C20 4.89543 19.1046 4 18 4ZM12 16C10.8954 16 10 16.8954 10 18C10 19.1046 10.8954 20 12 20C13.1046 20 14 19.1046 14 18C14 16.8954 13.1046 16 12 16Z" fill="currentColor" style="fill="currentColor";fill-opacity:1;"/>
</svg>
