<svg width="24" height="24" viewBox="0 0 24 24" fill="none" xmlns="http://www.w3.org/2000/svg">
<path fill-rule="evenodd" clip-rule="evenodd" d="M5 4C3.89543 4 3 4.89543 3 6C3 7.10457 3.89543 8 5 8C6.10457 8 7 7.10457 7 6C7 4.89543 6.10457 4 5 4ZM1 6C1 3.79086 2.79086 2 5 2C7.20914 2 9 3.79086 9 6C9 7.86384 7.72523 9.42994 6 9.87398V21C6 21.5523 5.55228 22 5 22C4.44772 22 4 21.5523 4 21V9.87398C2.27477 9.42994 1 7.86384 1 6ZM15.7071 2.29289C16.0976 2.68342 16.0976 3.31658 15.7071 3.70711L14.4142 5H17C17.7957 5 18.5587 5.31607 19.1213 5.87868C19.6839 6.44129 20 7.20435 20 8V14.126C21.7252 14.5701 23 16.1362 23 18C23 20.2091 21.2091 22 19 22C16.7909 22 15 20.2091 15 18C15 16.1362 16.2748 14.5701 18 14.126V8C18 7.73478 17.8946 7.48043 17.7071 7.29289C17.5196 7.10536 17.2652 7 17 7H14.4142L15.7071 8.29289C16.0976 8.68342 16.0976 9.31658 15.7071 9.70711C15.3166 10.0976 14.6834 10.0976 14.2929 9.70711L11.2929 6.70711C10.9024 6.31658 10.9024 5.68342 11.2929 5.29289L14.2929 2.29289C14.6834 1.90237 15.3166 1.90237 15.7071 2.29289ZM19 16C17.8954 16 17 16.8954 17 18C17 19.1046 17.8954 20 19 20C20.1046 20 21 19.1046 21 18C21 16.8954 20.1046 16 19 16Z" fill="currentColor" style="fill="currentColor";fill-opacity:1;"/>
</svg>
