<svg width="24" height="24" viewBox="0 0 24 24" fill="none" xmlns="http://www.w3.org/2000/svg">
<path fill-rule="evenodd" clip-rule="evenodd" d="M6 4C4.89543 4 4 4.89543 4 6C4 7.10457 4.89543 8 6 8C7.10457 8 8 7.10457 8 6C8 4.89543 7.10457 4 6 4ZM2 6C2 3.79086 3.79086 2 6 2C8.20914 2 10 3.79086 10 6C10 7.86384 8.72523 9.42994 7 9.87398V21C7 21.5523 6.55228 22 6 22C5.44772 22 5 21.5523 5 21V9.87398C3.27477 9.42994 2 7.86384 2 6ZM14.2929 2.29289C14.6834 1.90237 15.3166 1.90237 15.7071 2.29289L18 4.58579L20.2929 2.29289C20.6834 1.90237 21.3166 1.90237 21.7071 2.29289C22.0976 2.68342 22.0976 3.31658 21.7071 3.70711L19.4142 6L21.7071 8.29289C22.0976 8.68342 22.0976 9.31658 21.7071 9.70711C21.3166 10.0976 20.6834 10.0976 20.2929 9.70711L18 7.41421L15.7071 9.70711C15.3166 10.0976 14.6834 10.0976 14.2929 9.70711C13.9024 9.31658 13.9024 8.68342 14.2929 8.29289L16.5858 6L14.2929 3.70711C13.9024 3.31658 13.9024 2.68342 14.2929 2.29289ZM18 10.5C18.5523 10.5 19 10.9477 19 11.5V14.126C20.7252 14.5701 22 16.1362 22 18C22 20.2091 20.2091 22 18 22C15.7909 22 14 20.2091 14 18C14 16.1362 15.2748 14.5701 17 14.126V11.5C17 10.9477 17.4477 10.5 18 10.5ZM16 18C16 19.1046 16.8954 20 18 20C19.1046 20 20 19.1046 20 18C20 16.8954 19.1046 16 18 16C16.8954 16 16 16.8954 16 18Z" fill="currentColor" style="fill="currentColor";fill-opacity:1;"/>
</svg>
