<svg width="24" height="24" viewBox="0 0 24 24" fill="none" xmlns="http://www.w3.org/2000/svg">
<path fill-rule="evenodd" clip-rule="evenodd" d="M5.71535 2.00006C6.04047 1.9882 6.35988 2.09162 6.6167 2.29282C6.65647 2.32398 6.69382 2.3581 6.72843 2.3949C6.88066 2.55676 6.99265 2.75193 7.05562 2.96462L9.04076 8.92001H14.963L16.9929 2.9291C16.9992 2.91034 17.0062 2.89177 17.0136 2.87341C17.1123 2.63079 17.2761 2.42017 17.487 2.26484C17.4939 2.25969 17.501 2.25463 17.5081 2.24966C17.7483 2.08225 18.0352 1.99494 18.3279 2.00017C18.3666 2.00087 18.4053 2.00381 18.4437 2.00899C18.7202 2.04629 18.9783 2.16644 19.1844 2.35269C19.3658 2.50228 19.5075 2.69486 19.5964 2.91341C19.6045 2.93339 19.612 2.95362 19.6188 2.97407L22.9504 12.9789C23.071 13.3474 23.0628 13.746 22.9271 14.1092C22.797 14.4576 22.557 14.7537 22.244 14.9531L12.5789 21.8154C12.2328 22.0611 11.7692 22.0616 11.4227 21.8165L1.68442 14.9307C1.38538 14.7147 1.16276 14.4092 1.04865 14.0584C0.934536 13.7076 0.934862 13.3296 1.04958 12.979L1.05195 12.9718L4.42198 2.9318C4.42858 2.91212 4.4358 2.89265 4.44362 2.87341C4.54226 2.63079 4.70607 2.42017 4.91695 2.26484C4.92395 2.25969 4.93101 2.25463 4.93814 2.24966C5.16665 2.09037 5.43747 2.00359 5.71535 2.00006ZM5.7313 5.3162L7.37131 10.2362C7.50743 10.6446 7.88956 10.92 8.32 10.92H15.68C16.1086 10.92 16.4896 10.6469 16.6271 10.2409L18.2932 5.32368L20.9815 13.3966L11.9988 19.7744L3.01136 13.4195L5.7313 5.3162Z" fill="currentColor" style="fill="currentColor";fill-opacity:1;"/>
</svg>
