<svg width="24" height="24" viewBox="0 0 24 24" fill="none" xmlns="http://www.w3.org/2000/svg">
<path fill-rule="evenodd" clip-rule="evenodd" d="M5.90354 7.43151C6.22155 6.84782 6.4795 6.51912 6.75197 6.32029C7.00319 6.13697 7.35615 6 8 6C8.55228 6 9 5.55228 9 5C9 4.44772 8.55228 4 8 4C7.04385 4 6.24681 4.21303 5.57303 4.70471C4.92705 5.1761 4.49086 5.83629 4.11953 6.5259C4.10386 6.55501 4.08964 6.58487 4.07692 6.61538L1.57692 12.6154C1.55732 12.6624 1.54157 12.7101 1.52955 12.7581C1.19074 13.4324 1 14.1939 1 15C1 17.7614 3.23858 20 6 20C8.76142 20 11 17.7614 11 15C11 14.7348 11.1054 14.4804 11.2929 14.2929C11.4804 14.1054 11.7348 14 12 14C12.2652 14 12.5196 14.1054 12.7071 14.2929C12.8946 14.4804 13 14.7348 13 15C13 17.7614 15.2386 20 18 20C20.7614 20 23 17.7614 23 15C23 14.1939 22.8093 13.4324 22.4705 12.7581C22.4584 12.7101 22.4427 12.6624 22.4231 12.6154L19.9231 6.61538C19.9104 6.58487 19.8961 6.55501 19.8805 6.5259C19.4962 5.81222 19.0322 5.16132 18.3792 4.69732C17.7054 4.21856 16.918 4 16 4C15.4477 4 15 4.44772 15 5C15 5.55228 15.4477 6 16 6C16.582 6 16.9446 6.13144 17.2208 6.32768C17.5105 6.53356 17.7899 6.87092 18.0966 7.43183L19.2302 10.1525C18.8366 10.0529 18.4245 10 18 10C16.1472 10 14.5298 11.0078 13.666 12.5051C13.1764 12.1782 12.5974 12 12 12C11.4026 12 10.8236 12.1782 10.334 12.5051C9.47023 11.0078 7.8528 10 6 10C5.5755 10 5.16336 10.0529 4.7698 10.1525L5.90354 7.43151ZM9 15C9 13.3431 7.65685 12 6 12C4.34315 12 3 13.3431 3 15C3 16.6569 4.34315 18 6 18C7.65685 18 9 16.6569 9 15ZM15 15C15 16.6569 16.3431 18 18 18C19.6569 18 21 16.6569 21 15C21 13.3431 19.6569 12 18 12C16.3431 12 15 13.3431 15 15Z" fill="currentColor" style="fill="currentColor";fill-opacity:1;"/>
</svg>
