<svg width="24" height="24" viewBox="0 0 24 24" fill="none" xmlns="http://www.w3.org/2000/svg">
<path fill-rule="evenodd" clip-rule="evenodd" d="M4.25702 2.33068C4.44665 2.12018 4.71667 2 4.99999 2H19C19.2834 2 19.5535 2.12027 19.7432 2.33089C19.9328 2.54152 20.0242 2.82273 19.9945 3.10459L18.1845 20.3146C18.1067 21.0519 17.7585 21.7346 17.2073 22.2304C16.6563 22.7261 15.9412 23.0003 15.2 23C15.1998 23 15.2002 23 15.2 23H8.80248M6.11004 4L6.78203 10.425C7.48341 10.146 8.23563 10 8.99999 10C10.2982 10 11.5614 10.4211 12.6 11.2C13.2924 11.7193 14.1345 12 15 12C15.7485 12 16.4795 11.7901 17.1113 11.3974L17.8893 4H6.11004ZM16.869 13.7015C16.2695 13.898 15.639 14 15 14C13.7018 14 12.4386 13.5789 11.4 12.8C10.7076 12.2807 9.86547 12 8.99999 12C8.2961 12 7.60766 12.1857 7.00265 12.5344L7.79447 20.105C7.79446 20.1049 7.79448 20.1051 7.79447 20.105C7.82056 20.3515 7.93732 20.5798 8.12204 20.7452C8.30683 20.9106 8.54648 21.0014 8.79447 21L8.79999 21L15.2 21C15.4471 21.0001 15.6861 20.9087 15.8698 20.7435C16.0534 20.5783 16.1694 20.351 16.1955 20.1054M16.1955 20.1054L16.869 13.7015L16.1955 20.1054Z" fill="black" style="fill:black;fill-opacity:1;"/>
</svg>
