<svg width="24" height="24" viewBox="0 0 24 24" fill="none" xmlns="http://www.w3.org/2000/svg">
<path fill-rule="evenodd" clip-rule="evenodd" d="M12.9192 1.60596C13.0768 1.97367 13.0001 2.39995 12.7242 2.68966C10.5644 4.95744 9.2675 7.89729 9.03714 11H10.5C11.0523 11 11.5 11.4477 11.5 12C11.5 12.5523 11.0523 13 10.5 13H9.03714C9.24048 15.7387 10.2748 18.3505 12 20.4853C13.3359 18.8322 14.2659 16.8826 14.7077 14.7931C14.822 14.2528 15.3526 13.9074 15.893 14.0216C16.4333 14.1359 16.7787 14.6665 16.6644 15.2069C16.2478 17.1772 15.4531 19.0391 14.3327 20.6932C15.6482 20.3406 16.8705 19.6929 17.9044 18.7948C19.1602 17.7041 20.0891 16.2867 20.5881 14.7C20.7538 14.1732 21.3152 13.8804 21.8421 14.0461C22.3689 14.2117 22.6617 14.7732 22.496 15.3C21.8861 17.2393 20.7508 18.9717 19.2159 20.3048C17.6811 21.6379 15.8069 22.5196 13.8013 22.852C11.7957 23.1844 9.73721 22.9545 7.85437 22.1878C5.97153 21.4211 4.33798 20.1477 3.13506 18.5088C1.93213 16.87 1.20691 14.9298 1.03988 12.9038C1.01717 12.6283 1.0049 12.3527 1.00296 12.0775C1.001 12.0519 1 12.0261 1 12C1 11.9739 1.001 11.9481 1.00296 11.9225C1.0149 10.2268 1.41887 8.55203 2.18885 7.03123C3.10715 5.21751 4.5101 3.69374 6.24197 2.62908C7.97384 1.56442 9.96688 1.00053 11.9998 1C12.3999 0.999896 12.7615 1.23825 12.9192 1.60596ZM3.05842 13C3.23318 14.5632 3.81483 16.055 4.74735 17.3254C5.73156 18.6663 7.0681 19.7082 8.60861 20.3355C8.95456 20.4763 9.30776 20.5951 9.66609 20.6914C8.12485 18.4155 7.21078 15.7614 7.03235 13H3.05842ZM7.03235 11H3.05842C3.17734 9.93639 3.48555 8.89778 3.97319 7.93465C4.72452 6.45069 5.87239 5.20397 7.28938 4.33288C8.03165 3.87657 8.83256 3.53269 9.66609 3.30861C8.12485 5.58447 7.21078 8.23865 7.03235 11ZM15.8787 1.87868C16.4413 1.31607 17.2043 1 18 1C18.7957 1 19.5587 1.31607 20.1213 1.87868C20.6839 2.44129 21 3.20435 21 4V5C22.1046 5 23 5.89543 23 7V10C23 11.1046 22.1046 12 21 12H15C13.8954 12 13 11.1046 13 10V7C13 5.89543 13.8954 5 15 5V4C15 3.20435 15.3161 2.44129 15.8787 1.87868ZM15 7V10H21V7H15ZM19 5H17V4C17 3.73478 17.1054 3.48043 17.2929 3.29289C17.4804 3.10536 17.7348 3 18 3C18.2652 3 18.5196 3.10536 18.7071 3.29289C18.8946 3.48043 19 3.73478 19 4V5Z" fill="currentColor" style="fill="currentColor";fill-opacity:1;"/>
</svg>
