<svg width="24" height="24" viewBox="0 0 24 24" fill="none" xmlns="http://www.w3.org/2000/svg">
<path fill-rule="evenodd" clip-rule="evenodd" d="M11.4743 1.14935C11.7691 0.967144 12.1372 0.95058 12.4472 1.10557L20.4472 5.10557C20.786 5.27497 21 5.62123 21 6C21 6.37877 20.786 6.72504 20.4472 6.89443L13 10.618V13C13 13.5523 12.5523 14 12 14C11.4477 14 11 13.5523 11 13V10.0217C10.9997 10.0077 10.9997 9.99379 11 9.97988V2C11 1.65342 11.1795 1.33156 11.4743 1.14935ZM13 8.38197L17.7639 6L13 3.61803V8.38197ZM8.90732 4.48863C9.15212 4.98369 8.94925 5.58348 8.45418 5.82828C7.08026 6.50767 5.93043 7.56744 5.14147 8.88151C4.35252 10.1956 3.95767 11.7086 4.00388 13.2407C4.0501 14.7727 4.53544 16.2592 5.40217 17.5233C6.2689 18.7874 7.48053 19.776 8.8929 20.3713C10.3053 20.9666 11.8589 21.1437 13.3691 20.8815C14.8792 20.6192 16.2822 19.9287 17.4111 18.892C18.5401 17.8553 19.3475 16.5162 19.7372 15.0338C20.127 13.5515 20.0828 11.9884 19.6097 10.5305C19.4393 10.0052 19.727 9.44114 20.2523 9.2707C20.7776 9.10026 21.3417 9.38794 21.5121 9.91327C22.1034 11.7356 22.1587 13.6895 21.6715 15.5424C21.1843 17.3953 20.175 19.0693 18.7638 20.3651C17.3527 21.661 15.5989 22.5242 13.7113 22.852C11.8236 23.1798 9.88153 22.9584 8.11607 22.2143C6.3506 21.4701 4.83606 20.2344 3.75265 18.6543C2.66924 17.0741 2.06256 15.216 2.00479 13.301C1.94702 11.3859 2.44059 9.49462 3.42678 7.85203C4.41297 6.20944 5.85027 4.88473 7.56767 4.03549C8.06273 3.79069 8.66251 3.99356 8.90732 4.48863ZM8.60253 9.19755C9.0441 9.52927 9.13314 10.1561 8.80142 10.5977C8.40054 11.1313 8.13956 11.7568 8.04225 12.4171C7.94495 13.0773 8.0144 13.7515 8.2443 14.3781C8.4742 15.0046 8.85722 15.5637 9.35848 16.0044C9.85974 16.4451 10.4633 16.7533 11.1142 16.901C11.765 17.0488 12.4425 17.0313 13.0849 16.8502C13.7273 16.6691 14.3141 16.3301 14.792 15.8642C15.2699 15.3982 15.6235 14.8201 15.8208 14.1825C16.0181 13.5449 16.0527 12.8681 15.9214 12.2137C15.8128 11.6722 16.1638 11.1452 16.7053 11.0366C17.2468 10.928 17.7738 11.2789 17.8824 11.8204C18.0792 12.802 18.0273 13.8173 17.7314 14.7737C17.4355 15.7301 16.905 16.5972 16.1882 17.2961C15.4714 17.995 14.5912 18.5035 13.6276 18.7751C12.664 19.0468 11.6478 19.073 10.6715 18.8514C9.69519 18.6298 8.78985 18.1675 8.03797 17.5065C7.28608 16.8455 6.71154 16.0068 6.3667 15.067C6.02185 14.1271 5.91766 13.1159 6.06363 12.1255C6.20959 11.135 6.60106 10.1969 7.20237 9.39644C7.53409 8.95487 8.16097 8.86583 8.60253 9.19755Z" fill="currentColor" style="fill="currentColor";fill-opacity:1;"/>
</svg>
