<svg width="24" height="24" viewBox="0 0 24 24" fill="none" xmlns="http://www.w3.org/2000/svg">
<path fill-rule="evenodd" clip-rule="evenodd" d="M22.3828 1.07615C22.7565 1.23093 23.0001 1.59557 23.0001 2.00003V5.00003C23.0001 5.55231 22.5524 6.00003 22.0001 6.00003C21.4478 6.00003 21.0001 5.55231 21.0001 5.00003V4.41424L19.1882 6.22619C20.8939 6.68339 22.1499 8.24008 22.1499 10.0901C22.1499 11.6597 21.2459 13.0181 19.9301 13.6731C20.3534 14.3076 20.6001 15.07 20.6001 15.8899C20.6001 18.0991 18.8092 19.8899 16.6001 19.8899C15.7801 19.8899 15.0177 19.6432 14.3832 19.2199C13.7282 20.5358 12.3697 21.44 10.8 21.44C9.98166 21.44 9.22067 21.1942 8.58687 20.7724C7.93337 22.0924 6.57268 23 5 23C2.79086 23 1 21.2092 1 19C1 17.4273 1.9076 16.0667 3.2276 15.4132C2.80583 14.7794 2.56006 14.0184 2.56006 13.2C2.56006 11.6303 3.46421 10.2718 4.78013 9.61684C4.35685 8.9823 4.11011 8.21993 4.11011 7.39993C4.11011 5.19079 5.90097 3.39993 8.11011 3.39993C8.93006 3.39993 9.69239 3.64665 10.3269 4.0699C10.9819 2.75414 12.3403 1.85013 13.9099 1.85013C15.76 1.85013 17.3167 3.10617 17.7739 4.81203L21.293 1.29292C21.579 1.00692 22.0091 0.921369 22.3828 1.07615ZM15.3933 7.19167C15.7143 6.83687 15.9099 6.36634 15.9099 5.85013C15.9099 4.74556 15.0145 3.85013 13.9099 3.85013C12.8053 3.85013 11.9099 4.74556 11.9099 5.85013C11.9099 6.9547 12.8053 7.85013 13.9099 7.85013C14.4261 7.85013 14.8967 7.65456 15.2515 7.33347C15.2975 7.28504 15.3448 7.23775 15.3933 7.19167ZM8.45117 12.5474C8.18063 11.7632 7.43612 11.2 6.56006 11.2C5.45549 11.2 4.56006 12.0954 4.56006 13.2C4.56006 14.3046 5.45549 15.2 6.56006 15.2C7.07627 15.2 7.5468 15.0044 7.90161 14.6833C7.94769 14.6349 7.99497 14.5876 8.0434 14.5415C8.36449 14.1867 8.56006 13.7162 8.56006 13.2C8.56006 13.0702 8.54771 12.9434 8.52411 12.8205C8.49669 12.7308 8.47233 12.6397 8.45117 12.5474ZM9.3167 16.0984C9.36514 16.0523 9.41242 16.0051 9.4585 15.9566C9.81331 15.6355 10.2838 15.44 10.8 15.44C10.9298 15.44 11.0566 15.4523 11.1795 15.4759C11.2692 15.5033 11.3603 15.5277 11.4526 15.5489C12.2368 15.8194 12.8 16.5639 12.8 17.44C12.8 18.5445 11.9046 19.44 10.8 19.44C9.69548 19.44 8.80005 18.5445 8.80005 17.44C8.80005 16.9238 8.99562 16.4532 9.3167 16.0984ZM10.459 12.3025C10.4378 12.2102 10.4135 12.1191 10.386 12.0294C10.3625 11.9065 10.3501 11.7797 10.3501 11.6499C10.3501 10.5454 11.2455 9.64993 12.3501 9.64993C13.4547 9.64993 14.3501 10.5454 14.3501 11.6499C14.3501 12.7545 13.4547 13.6499 12.3501 13.6499C12.2204 13.6499 12.0935 13.6376 11.9707 13.614C11.8809 13.5866 11.7898 13.5622 11.6975 13.541C11.1179 13.3411 10.659 12.8821 10.459 12.3025ZM16.6666 8.74857C16.3455 9.10337 16.1499 9.57391 16.1499 10.0901C16.1499 11.1947 17.0453 12.0901 18.1499 12.0901C19.2545 12.0901 20.1499 11.1947 20.1499 10.0901C20.1499 8.98555 19.2545 8.09012 18.1499 8.09012C17.6337 8.09012 17.1632 8.28569 16.8084 8.60677C16.7623 8.65521 16.715 8.70249 16.6666 8.74857ZM8.11011 5.39993C7.00554 5.39993 6.11011 6.29536 6.11011 7.39993C6.11011 8.5045 7.00554 9.39993 8.11011 9.39993C9.21468 9.39993 10.1101 8.5045 10.1101 7.39993C10.1101 6.29536 9.21468 5.39993 8.11011 5.39993ZM16.6001 13.8899C15.4955 13.8899 14.6001 14.7854 14.6001 15.8899C14.6001 16.9945 15.4955 17.8899 16.6001 17.8899C17.7047 17.8899 18.6001 16.9945 18.6001 15.8899C18.6001 14.7854 17.7047 13.8899 16.6001 13.8899ZM5 17C3.89543 17 3 17.8955 3 19C3 20.1046 3.89543 21 5 21C6.10457 21 7 20.1046 7 19C7 17.8955 6.10457 17 5 17Z" fill="currentColor" style="fill="currentColor";fill-opacity:1;"/>
</svg>
