<svg width="24" height="24" viewBox="0 0 24 24" fill="none" xmlns="http://www.w3.org/2000/svg">
<path fill-rule="evenodd" clip-rule="evenodd" d="M5 4C4.45228 4 4 4.45228 4 5V7C4 7.55228 3.55228 8 3 8C2.44772 8 2 7.55228 2 7V5C2 3.34772 3.34772 2 5 2H7C7.55228 2 8 2.44772 8 3C8 3.55228 7.55228 4 7 4H5ZM16 3C16 2.44772 16.4477 2 17 2H19C20.6523 2 22 3.34772 22 5V7C22 7.55228 21.5523 8 21 8C20.4477 8 20 7.55228 20 7V5C20 4.45228 19.5477 4 19 4H17C16.4477 4 16 3.55228 16 3ZM6 8C6 6.89543 6.89543 6 8 6H13C14.1046 6 15 6.89543 15 8V11H16C17.1046 11 18 11.8954 18 13V16C18 17.1046 17.1046 18 16 18H11C9.89543 18 9 17.1046 9 16V13H8C6.89543 13 6 12.1046 6 11V8ZM13 11V8H8V11H13ZM11 13V16H16V13H11ZM3 16C3.55228 16 4 16.4477 4 17V19C4 19.5477 4.45228 20 5 20H7C7.55228 20 8 20.4477 8 21C8 21.5523 7.55228 22 7 22H5C3.34772 22 2 20.6523 2 19V17C2 16.4477 2.44772 16 3 16ZM21 16C21.5523 16 22 16.4477 22 17V19C22 20.6523 20.6523 22 19 22H17C16.4477 22 16 21.5523 16 21C16 20.4477 16.4477 20 17 20H19C19.5477 20 20 19.5477 20 19V17C20 16.4477 20.4477 16 21 16Z" fill="currentColor" style="fill="currentColor";fill-opacity:1;"/>
</svg>
