<svg width="24" height="24" viewBox="0 0 24 24" fill="none" xmlns="http://www.w3.org/2000/svg">
<path fill-rule="evenodd" clip-rule="evenodd" d="M18 1.58587C18.3739 1.21942 18.8765 1.01416 19.4 1.01416C19.9235 1.01416 20.4261 1.21942 20.8 1.58587L20.8071 1.59288L22.4142 3.19998C22.7806 3.57384 22.9859 4.07651 22.9859 4.60002C22.9859 5.12352 22.7806 5.62616 22.4141 6.00002L22.4071 6.00716L20.7071 7.70712C20.5196 7.89466 20.2652 8.00002 20 8.00002H17.4142L15.904 9.51019C16.5961 10.4888 17 11.6906 17 13C17 14.6438 15.9212 16.0706 14.5138 16.7104L14.5062 16.7138L13.5999 17.1166C13.4241 17.1933 13.2741 17.3189 13.1677 17.4785C13.0625 17.6362 13.0043 17.8207 13 18.0102C12.9973 19.3326 12.4708 20.6002 11.5355 21.5355C10.5979 22.4732 9.32608 23 8 23C4.14772 23 1 19.8523 1 16C1 14.6739 1.52678 13.4021 2.46447 12.4645C3.39975 11.5292 4.66743 11.0027 5.98984 11C6.17935 10.9957 6.36376 10.9375 6.52155 10.8323C6.68112 10.7259 6.80674 10.5759 6.88343 10.4001L6.88617 10.3939L7.2896 9.48618C7.92935 8.07874 9.35618 7 11 7C12.3093 7 13.5112 7.40392 14.4898 8.09598L16 6.5858V4.00002C16 3.7348 16.1054 3.48045 16.2929 3.29291L18 1.58587ZM18 6.00002H19.5858L20.9858 4.60002L19.4 3.01423L18 4.41423V6.00002ZM13.0437 9.54201C12.4494 9.19639 11.7525 9 11 9C10.2449 9 9.47286 9.51973 9.11194 10.3104L8.71507 11.2033C8.48487 11.7292 8.10862 12.178 7.63095 12.4964C7.15223 12.8156 6.59184 12.9903 6.01657 12.9999L6 13C5.20435 13 4.44129 13.3161 3.87868 13.8787C3.31607 14.4413 3 15.2044 3 16C3 18.7477 5.25229 21 8 21C8.79565 21 9.55871 20.6839 10.1213 20.1213C10.6839 19.5587 11 18.7956 11 18L11.0001 17.9834C11.0097 17.4082 11.1844 16.8478 11.5036 16.3691C11.822 15.8914 12.2708 15.5151 12.7967 15.2849L13.6897 14.888C14.4803 14.5271 15 13.7551 15 13C15 12.2475 14.8036 11.5505 14.4579 10.9562L12.9977 12.4164C12.9992 12.4441 13 12.472 13 12.5C13 13.3284 12.3284 14 11.5 14C10.6716 14 10 13.3284 10 12.5C10 11.6716 10.6716 11 11.5 11C11.528 11 11.5558 11.0008 11.5834 11.0023L13.0437 9.54201ZM11.0016 12.5399C11.0209 12.7843 11.2158 12.9792 11.4602 12.9984C11.3636 12.9512 11.2731 12.8874 11.1928 12.8071C11.1126 12.7269 11.0488 12.6364 11.0016 12.5399ZM7.29289 18.7071L5.29289 16.7071C4.90237 16.3166 4.90237 15.6834 5.29289 15.2929C5.68342 14.9024 6.31658 14.9024 6.70711 15.2929L8.70711 17.2929C9.09763 17.6834 9.09763 18.3166 8.70711 18.7071C8.31658 19.0976 7.68342 19.0976 7.29289 18.7071Z" fill="currentColor" style="fill="currentColor";fill-opacity:1;"/>
</svg>
