<svg width="24" height="24" viewBox="0 0 24 24" fill="none" xmlns="http://www.w3.org/2000/svg">
<path fill-rule="evenodd" clip-rule="evenodd" d="M8.06673 2.60078C8.21621 2.21238 8.59062 1.95716 9.00678 1.95998L12.5446 1.98398C12.5445 1.98398 12.5446 1.98398 12.5446 1.98398C14.3843 1.99612 16.1456 2.73208 17.4469 4.03265L19.7071 6.29285C19.8946 6.48039 20 6.73474 20 6.99996V8.17175C20 8.17168 20 8.17182 20 8.17175C20.0001 8.43686 20.1055 8.69131 20.293 8.87875L21.5308 10.1166C21.9088 9.91567 22.3887 9.97444 22.7071 10.2929C23.0976 10.6834 23.0976 11.3166 22.7071 11.7071L18.7071 15.7071C18.3166 16.0976 17.6834 16.0976 17.2929 15.7071C16.9744 15.3886 16.9157 14.9088 17.1166 14.5308L15.8789 13.2931C15.7437 13.1579 15.5737 13.0652 15.39 13.0241L7.33404 21.0801C6.74868 21.6655 5.95476 21.9943 5.12694 21.9943C4.29911 21.9943 3.50519 21.6655 2.91983 21.0801C2.33447 20.4947 2.00562 19.7008 2.00562 18.873C2.00562 18.0452 2.33447 17.2513 2.91983 16.6659L11 8.58572V8.40063C10.9995 7.66861 10.8439 6.94502 10.5434 6.27753C10.2429 5.61005 9.80429 5.01384 9.25657 4.5282L9.25463 4.52647L8.33463 3.70647C8.02395 3.42956 7.91725 2.98919 8.06673 2.60078ZM11.5 10.9142L4.33404 18.0801C4.12375 18.2904 4.00562 18.5756 4.00562 18.873C4.00562 19.1704 4.12375 19.4556 4.33404 19.6659C4.54433 19.8762 4.82954 19.9943 5.12694 19.9943C5.42433 19.9943 5.70954 19.8762 5.91983 19.6659L13.0858 12.4999L11.5 10.9142ZM14.4142 11H15.172C15.9675 11.0001 16.7306 11.3163 17.2931 11.8789C17.2931 11.8788 17.2931 11.8789 17.2931 11.8789L18.5 13.0858L20.0858 11.5L18.879 10.2932C18.879 10.2931 18.879 10.2932 18.879 10.2932C18.3164 9.73071 18.0002 8.96771 18 8.17217V7.41417L16.0331 5.44727C16.033 5.4472 16.0332 5.44734 16.0331 5.44727C15.1036 4.51839 13.8455 3.99257 12.5314 3.98394L11.4725 3.97676C11.8283 4.43092 12.1289 4.92756 12.3671 5.45648C12.7836 6.38168 12.9993 7.38465 13 8.3993V9.58575L14.4142 11Z" fill="black" style="fill:black;fill-opacity:1;"/>
</svg>
