<svg width="24" height="24" viewBox="0 0 24 24" fill="none" xmlns="http://www.w3.org/2000/svg">
<path fill-rule="evenodd" clip-rule="evenodd" d="M17.1001 1.95385C17.8967 1.68631 18.7603 1.69561 19.551 1.98026C20.3417 2.2649 21.0131 2.8082 21.4564 3.52212C21.8898 4.22011 22.0804 5.04119 21.9994 5.85774C21.9834 6.76533 21.5914 7.53885 21.1367 8.15655C21.5382 8.31662 21.9042 8.56302 22.2068 8.88318C22.7536 9.46183 23.0482 10.234 23.0257 11.0299C23.0032 11.8246 22.6664 12.5779 22.0892 13.1246C22.0884 13.1253 22.0876 13.1261 22.0868 13.1268L17.5213 17.4939C16.6078 18.516 15.3317 19 14 19H10C9.61142 19 9.45673 19.1244 9.4 19.2C9.35827 19.2557 9.31085 19.3068 9.2585 19.3526L8.46294 20.0487L8.70711 20.2929C9.09763 20.6834 9.09763 21.3166 8.70711 21.7071C8.31658 22.0976 7.68342 22.0976 7.29289 21.7071L6.30125 20.7155C6.29611 20.7104 6.29102 20.7053 6.28597 20.7002L2.29505 16.7093C2.29378 16.708 2.29251 16.7067 2.29125 16.7055L1.29289 15.7071C0.902369 15.3166 0.902369 14.6834 1.29289 14.2929C1.68342 13.9024 2.31658 13.9024 2.70711 14.2929L3.01274 14.5985L7.85592 9.92832C8.40018 9.25738 9.21591 9 10 9H11.5171C10.8926 8.30172 10.0095 7.2751 9.99998 5.82363C9.9673 5.02414 10.1892 4.23466 10.634 3.56904C11.0831 2.89692 11.7359 2.38649 12.4965 2.11268C13.2571 1.83886 14.0854 1.81609 14.8599 2.04771C15.2536 2.16545 15.6228 2.34577 15.9545 2.57953C16.2942 2.30714 16.6815 2.09444 17.1001 1.95385ZM15.051 14.1893C14.496 14.7093 13.763 15 13 15H11C10.4477 15 10 14.5523 10 14C10 13.4477 10.4477 13 11 13H13C13.2652 13 13.5196 12.8946 13.7071 12.7071C13.8946 12.5196 14 12.2652 14 12C14 11.7348 13.8946 11.4804 13.7071 11.2929C13.5196 11.1054 13.2652 11 13 11H10C9.61142 11 9.45673 11.1244 9.4 11.2C9.36797 11.2427 9.33257 11.2828 9.29414 11.3198L4.42719 16.013L7.04559 18.6314L7.87344 17.907C8.4176 17.2519 9.22428 17 10 17H14C14.8531 17 15.563 16.6952 16.0474 16.1415C16.0669 16.1192 16.0874 16.0978 16.1088 16.0774L20.7131 11.6732C20.9063 11.4907 21.019 11.239 21.0265 10.9733C21.034 10.7077 20.9357 10.45 20.7532 10.2569C20.5707 10.0637 20.3189 9.95103 20.0533 9.94352C19.7877 9.93601 19.53 10.0343 19.3368 10.2168L19.3305 10.2228L17.3823 12.0318L16.707 12.7071C16.6325 12.7816 16.5491 12.842 16.4602 12.8881L15.1305 14.1228C15.1049 14.1466 15.0783 14.1688 15.051 14.1893ZM15.9943 10.5914L15.9896 10.5958L13.2257 7.9109C13.2006 7.88227 13.1759 7.85405 13.1515 7.82622C12.4236 6.99572 11.9999 6.51235 11.9999 5.8C11.9999 5.78432 11.9995 5.76863 11.9988 5.75296C11.9809 5.37272 12.0854 4.99675 12.2969 4.68025C12.5084 4.36375 12.8157 4.12339 13.1739 3.99445C13.5321 3.86551 13.9221 3.85479 14.2868 3.96386C14.6515 4.07293 14.9717 4.29604 15.2002 4.60044C15.3962 4.86141 15.7072 5.01035 16.0333 4.99944C16.3595 4.98854 16.6598 4.81917 16.8379 4.5457C17.0506 4.21909 17.3673 3.97387 17.7368 3.84978C18.1063 3.72569 18.5069 3.73001 18.8736 3.86203C19.2403 3.99405 19.5517 4.24604 19.7573 4.57716C19.9629 4.90828 20.0507 5.29912 20.0064 5.68636C20.0021 5.72409 19.9999 5.76203 19.9999 5.8C19.9999 6.43606 19.5217 7.06394 18.7928 7.79289L15.9943 10.5914Z" fill="currentColor" style="fill="currentColor";fill-opacity:1;"/>
</svg>
