<svg width="24" height="24" viewBox="0 0 24 24" fill="none" xmlns="http://www.w3.org/2000/svg">
<path fill-rule="evenodd" clip-rule="evenodd" d="M16.8568 4.67831C15.942 4.13133 14.8708 3.90512 13.8129 4.03548C12.7552 4.16583 11.7712 4.64519 11.0165 5.3977C11.0164 5.39782 11.0166 5.39758 11.0165 5.3977L8.20709 8.20712C7.99681 8.41741 7.87867 8.70262 7.87867 9.00002C7.87867 9.29741 7.99681 9.58262 8.20709 9.79291C8.41738 10.0032 8.70259 10.1213 8.99999 10.1213C9.29738 10.1213 9.58259 10.0032 9.79288 9.79291L10.6729 8.91291C11.4229 8.16384 12.44 7.74266 13.5 7.74266C14.56 7.74266 15.5767 8.1634 16.3267 8.91247L20.2071 12.7929C20.2735 12.8593 20.3366 12.9285 20.3964 13H20.905L20.1943 5.18212L19.4572 5.33038L19.4533 5.33116C18.7224 5.47513 17.9641 5.34202 17.326 4.95781L16.8568 4.67831ZM20.0121 3.17869L20.0041 3.09054C19.9541 2.54052 20.3595 2.05411 20.9095 2.00411C21.4595 1.95411 21.9459 2.35945 21.9959 2.90947L22.9959 13.9095C23.0213 14.1893 22.9279 14.4669 22.7384 14.6743C22.549 14.8818 22.281 15 22 15H21.1213C21.1213 15 21.1213 15 21.1213 15C21.1213 15.8278 20.7925 16.6218 20.2071 17.2071C19.6217 17.7925 18.8278 18.1213 18 18.1213C17.8536 18.1213 17.7082 18.111 17.5649 18.0909C17.5251 18.2972 17.4645 18.4994 17.3837 18.6945C17.2269 19.0732 16.997 19.4173 16.7071 19.7071C16.4173 19.997 16.0732 20.2269 15.6945 20.3837C15.3158 20.5406 14.9099 20.6213 14.5 20.6213C14.0901 20.6213 13.6842 20.5406 13.3055 20.3837C13.1623 20.3244 13.024 20.2546 12.8917 20.1751C12.7362 20.5577 12.5048 20.9094 12.2071 21.2071C11.6218 21.7925 10.8278 22.1213 10 22.1213C9.17218 22.1213 8.37826 21.7925 7.7929 21.2071L1.2929 14.7071C1.08304 14.4973 0.977242 14.205 1.00411 13.9095L2.00411 2.90947C2.05411 2.35945 2.54052 1.95411 3.09054 2.00411C3.61016 2.05135 4.00066 2.4881 4.00007 3H10.8511C11.6735 2.49612 12.5991 2.16994 13.5683 2.0505C15.0677 1.86573 16.5859 2.18627 17.8826 2.96137C17.8824 2.96125 17.8828 2.96149 17.8826 2.96137L18.3567 3.24386C18.5692 3.37206 18.8216 3.41673 19.0651 3.36919C19.0656 3.36908 19.0662 3.36898 19.0667 3.36887L20.0121 3.17869ZM8.58579 5H3.82231L3.0383 13.6241L9.20711 19.7929C9.4174 20.0032 9.70261 20.1213 10 20.1213C10.2974 20.1213 10.5826 20.0032 10.7929 19.7929C11.0032 19.5826 11.1213 19.2974 11.1213 19C11.1213 18.7028 11.0033 18.4178 10.7933 18.2075C10.7932 18.2074 10.7935 18.2077 10.7933 18.2075L10.2929 17.7071C9.90237 17.3166 9.90237 16.6834 10.2929 16.2929C10.6834 15.9024 11.3166 15.9024 11.7071 16.2929L13.7071 18.2929C13.8112 18.397 13.9348 18.4796 14.0709 18.536C14.2069 18.5923 14.3528 18.6213 14.5 18.6213C14.6473 18.6213 14.7931 18.5923 14.9291 18.536C15.0652 18.4796 15.1888 18.397 15.2929 18.2929C15.397 18.1888 15.4796 18.0652 15.536 17.9291C15.5923 17.7931 15.6213 17.6473 15.6213 17.5C15.6213 17.3527 15.5923 17.2069 15.536 17.0709C15.4805 16.9371 15.3997 16.8152 15.2979 16.7122L13.2929 14.7071C12.9024 14.3166 12.9024 13.6834 13.2929 13.2929C13.6834 12.9024 14.3166 12.9024 14.7071 13.2929L16.7023 15.2881C16.7039 15.2897 16.7055 15.2913 16.7071 15.2929C16.7099 15.2957 16.7127 15.2985 16.7156 15.3014L17.2071 15.7929C17.4174 16.0032 17.7026 16.1213 18 16.1213C18.2974 16.1213 18.5826 16.0032 18.7929 15.7929C19.0032 15.5826 19.1213 15.2974 19.1213 15C19.1213 14.7026 19.0032 14.4174 18.7929 14.2071L14.9133 10.3276C14.5383 9.95303 14.03 9.74266 13.5 9.74266C12.9702 9.74266 12.4621 9.95286 12.0871 10.3271L11.2071 11.2071C10.6217 11.7925 9.82781 12.1213 8.99999 12.1213C8.17216 12.1213 7.37824 11.7925 6.79288 11.2071C6.20752 10.6218 5.87867 9.82784 5.87867 9.00002C5.87867 8.17219 6.20752 7.37827 6.79288 6.79291L8.58579 5Z" fill="currentColor" style="fill="currentColor";fill-opacity:1;"/>
</svg>
