<svg width="24" height="24" viewBox="0 0 24 24" fill="none" xmlns="http://www.w3.org/2000/svg">
<path fill-rule="evenodd" clip-rule="evenodd" d="M9.87868 1.87868C10.4413 1.31607 11.2044 1 12 1C12.7956 1 13.5587 1.31607 14.1213 1.87868C14.4938 2.2512 14.7583 2.71159 14.8944 3.21114C15.243 3.07295 15.6178 3 16 3C16.7956 3 17.5587 3.31607 18.1213 3.87868C18.4938 4.25121 18.7583 4.71162 18.8944 5.21118C19.2431 5.07296 19.6178 5 20.0001 5C20.7958 5 21.5588 5.31607 22.1214 5.87868C22.684 6.44129 23.0001 7.20435 23.0001 8V14C23.0001 16.3869 22.0519 18.6761 20.3641 20.364C18.6762 22.0518 16.3871 23 14.0001 23H12.0001C8.93129 23 6.97932 22.0322 5.30538 20.3695L5.303 20.3671L1.703 16.7671C1.69098 16.7551 1.67928 16.7428 1.66789 16.7302C1.15179 16.1586 0.87527 15.4104 0.895575 14.6406C0.915881 13.8707 1.23146 13.1382 1.77697 12.5946C2.32248 12.051 3.05614 11.738 3.82605 11.7205C4.23117 11.7112 4.63 11.7841 5 11.9308V6C5 5.20435 5.31607 4.44129 5.87868 3.87868C6.44129 3.31607 7.20435 3 8 3C8.38225 3 8.75697 3.07295 9.10557 3.21114C9.24173 2.71159 9.50616 2.2512 9.87868 1.87868ZM9 6V10.5C9 11.0523 9.44772 11.5 10 11.5C10.5523 11.5 11 11.0523 11 10.5V4C11 3.73478 11.1054 3.48043 11.2929 3.29289C11.4804 3.10536 11.7348 3 12 3C12.2652 3 12.5196 3.10536 12.7071 3.29289C12.8946 3.48043 13 3.73478 13 4V10C13 10.5523 13.4477 11 14 11C14.5523 11 15 10.5523 15 10V6C15 5.73478 15.1054 5.48043 15.2929 5.29289C15.4804 5.10536 15.7348 5 16 5C16.2652 5 16.5196 5.10536 16.7071 5.29289C16.8946 5.48043 17 5.73478 17 6V11C17 11.5523 17.4477 12 18 12C18.5523 12 19 11.5523 19 11V8.0145C19.0001 8.00968 19.0001 8.00484 19.0001 8C19.0001 7.73478 19.1055 7.48043 19.293 7.29289C19.4805 7.10536 19.7349 7 20.0001 7C20.2653 7 20.5197 7.10536 20.7072 7.29289C20.8947 7.48043 21.0001 7.73478 21.0001 8V14C21.0001 15.8565 20.2626 17.637 18.9499 18.9497C17.6371 20.2625 15.8566 21 14.0001 21H12.0001C9.46968 21 8.02176 20.2483 6.71601 18.9517C6.71561 18.9513 6.71522 18.9509 6.71483 18.9505L3.13833 15.374C2.9753 15.1856 2.8883 14.9429 2.89488 14.6933C2.90165 14.4367 3.00684 14.1925 3.18868 14.0113C3.37051 13.8301 3.61507 13.7258 3.8717 13.7199C4.12178 13.7142 4.36467 13.8024 4.55265 13.9668L5.28437 14.6985C5.29002 14.7043 5.29574 14.71 5.30152 14.7156L6.293 15.7071C6.68352 16.0976 7.31669 16.0976 7.70721 15.7071C8.09773 15.3166 8.09773 14.6834 7.70721 14.2929L7 13.5857V6C7 5.73478 7.10536 5.48043 7.29289 5.29289C7.48043 5.10536 7.73478 5 8 5C8.26522 5 8.51957 5.10536 8.70711 5.29289C8.89464 5.48043 9 5.73478 9 6Z" fill="currentColor" style="fill="currentColor";fill-opacity:1;"/>
</svg>
