<svg width="24" height="24" viewBox="0 0 24 24" fill="none" xmlns="http://www.w3.org/2000/svg">
<path fill-rule="evenodd" clip-rule="evenodd" d="M12 1C12.5523 1 13 1.44772 13 2V3C13 3.05029 12.9963 3.09971 12.9891 3.14801C14.5445 3.33935 16.0187 3.97906 17.2267 4.99939C18.4701 6.04961 19.3631 7.44539 19.7991 9H20C20.5523 9 21 9.44772 21 10C21 10.5523 20.5523 11 20 11H19.0148C19.0041 11.0002 18.9935 11.0002 18.9829 11H5.01715C5.00654 11.0002 4.9959 11.0002 4.98524 11H4C3.44772 11 3 10.5523 3 10C3 9.44772 3.44772 9 4 9H4.20093C4.63692 7.44539 5.52991 6.04961 6.77328 4.99939C7.98128 3.97906 9.45553 3.33935 11.0109 3.14801C11.0037 3.09971 11 3.05029 11 3V2C11 1.44772 11.4477 1 12 1ZM6.30567 9H17.6943C17.3282 8.04686 16.7261 7.19448 15.9362 6.5273C14.8354 5.5975 13.4409 5.0874 12 5.0874C10.5591 5.0874 9.16464 5.5975 8.06383 6.5273C7.27394 7.19448 6.67182 8.04686 6.30567 9ZM1 14C1 13.4477 1.44772 13 2 13H14C14.7957 13 15.5587 13.3161 16.1213 13.8787C16.4063 14.1636 16.628 14.5 16.7774 14.866L17.9249 13.8619C18.4981 13.3183 19.2622 13.021 20.0529 13.0349C20.8525 13.0489 21.6139 13.38 22.1694 13.9554C22.7249 14.5308 23.0291 15.3032 23.0151 16.1029C23.0011 16.9025 22.67 17.6639 22.0946 18.2194C22.0896 18.2242 22.0846 18.2289 22.0795 18.2336C22.0783 18.2348 22.077 18.236 22.0757 18.2371L18.5138 21.5023C17.6007 22.5187 16.328 23 15 23H11C9.67598 23 8.40691 22.5216 7.49449 21.5114L6 20.2038V21C6 21.5523 5.55228 22 5 22H2C1.44772 22 1 21.5523 1 21C1 20.4477 1.44772 20 2 20H4V18.0048C3.99998 18.0013 3.99998 17.9978 4 17.9943V15H2C1.44772 15 1 14.5523 1 14ZM6 15V17.5462L8.8585 20.0474C8.89192 20.0766 8.92334 20.1081 8.95258 20.1415C9.43702 20.6951 10.1469 21 11 21H15C15.8531 21 16.563 20.6951 17.0474 20.1415C17.0716 20.1139 17.0972 20.0876 17.1243 20.0628L20.7131 16.7731C20.9021 16.5867 21.0107 16.3335 21.0154 16.0678C21.0201 15.7985 20.9177 15.5383 20.7306 15.3446C20.5435 15.1508 20.2871 15.0393 20.0178 15.0346C19.7485 15.0299 19.4884 15.1323 19.2946 15.3194C19.2828 15.3307 19.2708 15.3418 19.2585 15.3526L16.2473 17.9873C16.2068 18.0331 16.1648 18.0778 16.1213 18.1213C15.5587 18.6839 14.7957 19 14 19H12C11.4477 19 11 18.5523 11 18C11 17.4477 11.4477 17 12 17H14C14.2174 17 14.4274 16.9292 14.5994 16.8005C14.6405 16.7457 14.6879 16.6943 14.7415 16.6474L14.8079 16.5893C14.932 16.4192 15 16.2131 15 16C15 15.7348 14.8946 15.4804 14.7071 15.2929C14.5196 15.1054 14.2652 15 14 15H6Z" fill="currentColor" style="fill="currentColor";fill-opacity:1;"/>
</svg>
