<svg width="24" height="24" viewBox="0 0 24 24" fill="none" xmlns="http://www.w3.org/2000/svg">
<path fill-rule="evenodd" clip-rule="evenodd" d="M17.9667 6.75992C18.5449 6.2152 19.3156 5.92186 20.1098 5.94432C20.9057 5.96681 21.66 6.30453 22.2068 6.88318C22.7536 7.46184 23.0482 8.23402 23.0257 9.02985C23.0032 9.82459 22.6664 10.5779 22.0892 11.1246C22.0884 11.1253 22.0876 11.1261 22.0868 11.1268L17.5213 15.4939C16.6078 16.516 15.3317 17 14 17H10C9.61142 17 9.45673 17.1244 9.4 17.2C9.35827 17.2557 9.31085 17.3068 9.2585 17.3526L8.46294 18.0487L8.70711 18.2929C9.09763 18.6834 9.09763 19.3166 8.70711 19.7071C8.31658 20.0976 7.68342 20.0976 7.29289 19.7071L6.30125 18.7155C6.29611 18.7104 6.29102 18.7053 6.28597 18.7002L2.29508 14.7093C2.29379 14.708 2.2925 14.7067 2.29122 14.7054L1.29289 13.7071C0.902369 13.3166 0.902369 12.6834 1.29289 12.2929C1.68342 11.9024 2.31658 11.9024 2.70711 12.2929L3.01274 12.5985L7.85592 7.92832C8.40018 7.25738 9.21591 7 10 7H13C13.7957 7 14.5587 7.31607 15.1213 7.87868C15.3925 8.14991 15.6065 8.46772 15.7553 8.81331L17.9667 6.75992ZM15.051 12.1893C14.496 12.7093 13.763 13 13 13H11C10.4477 13 10 12.5523 10 12C10 11.4477 10.4477 11 11 11H13C13.2652 11 13.5196 10.8946 13.7071 10.7071C13.8946 10.5196 14 10.2652 14 10C14 9.73478 13.8946 9.48043 13.7071 9.29289C13.5196 9.10536 13.2652 9 13 9H10C9.61142 9 9.45673 9.12436 9.4 9.2C9.36797 9.24271 9.33257 9.28279 9.29414 9.31985L4.42719 14.013L7.04559 16.6314L7.87344 15.907C8.4176 15.2519 9.22428 15 10 15H14C14.8531 15 15.563 14.6952 16.0474 14.1415C16.0669 14.1192 16.0874 14.0978 16.1088 14.0774L20.7131 9.67321C20.9063 9.4907 21.019 9.23896 21.0265 8.97334C21.034 8.70772 20.9357 8.45 20.7532 8.25687C20.5707 8.06374 20.3189 7.95103 20.0533 7.94352C19.7877 7.93601 19.53 8.03432 19.3368 8.21683L19.3305 8.22285L15.1305 12.1228C15.1049 12.1466 15.0783 12.1688 15.051 12.1893Z" fill="black" style="fill:black;fill-opacity:1;"/>
</svg>
