<svg width="24" height="24" viewBox="0 0 24 24" fill="none" xmlns="http://www.w3.org/2000/svg">
<path fill-rule="evenodd" clip-rule="evenodd" d="M1.58579 7.58579C1.96086 7.21071 2.46957 7 3 7H21C21.5304 7 22.0391 7.21071 22.4142 7.58579C22.7893 7.96086 23 8.46957 23 9V13C23 13.5304 22.7893 14.0391 22.4142 14.4142C22.0391 14.7893 21.5304 15 21 15H20.4142L18.7071 16.7071C18.5196 16.8946 18.2652 17 18 17H6C5.73478 17 5.48043 16.8946 5.29289 16.7071L3.58579 15H3C2.46957 15 1.96086 14.7893 1.58579 14.4142C1.21071 14.0391 1 13.5304 1 13V9C1 8.46957 1.21071 7.96086 1.58579 7.58579ZM21 9L3 9V13H4C4.26522 13 4.51957 13.1054 4.70711 13.2929L6.41421 15H17.5858L19.2929 13.2929C19.4804 13.1054 19.7348 13 20 13H21V9ZM6.5 12C6.5 11.4477 6.94772 11 7.5 11H16.5C17.0523 11 17.5 11.4477 17.5 12C17.5 12.5523 17.0523 13 16.5 13H7.5C6.94772 13 6.5 12.5523 6.5 12Z" fill="black" style="fill:black;fill-opacity:1;"/>
</svg>
