<svg width="24" height="24" viewBox="0 0 24 24" fill="none" xmlns="http://www.w3.org/2000/svg">
<path fill-rule="evenodd" clip-rule="evenodd" d="M4 5C4.55228 5 5 5.44772 5 6V11H11V6C11 5.44772 11.4477 5 12 5C12.5523 5 13 5.44772 13 6V18C13 18.5523 12.5523 19 12 19C11.4477 19 11 18.5523 11 18V13H5V18C5 18.5523 4.55228 19 4 19C3.44772 19 3 18.5523 3 18V6C3 5.44772 3.44772 5 4 5ZM20.0662 9.42638C21.1662 9.79304 22 10.7611 22 12.0001C22 13.0161 21.6446 13.7622 21.0964 14.3332C20.6782 14.7688 20.1391 15.0991 19.7206 15.3555C19.6537 15.3966 19.5898 15.4357 19.53 15.4731C19.0428 15.7775 18.6873 16.0365 18.4337 16.3851C18.3175 16.5449 18.2099 16.7421 18.131 17.0001H21C21.5523 17.0001 22 17.4478 22 18.0001C22 18.5524 21.5523 19.0001 21 19.0001H17C16.4477 19.0001 16 18.5524 16 18.0001C16 16.8183 16.3006 15.9178 16.8163 15.2088C17.3127 14.5262 17.9572 14.0976 18.47 13.7771C18.5529 13.7252 18.6313 13.6767 18.7054 13.6308C19.1378 13.3631 19.4275 13.1837 19.6536 12.9482C19.8554 12.738 20 12.484 20 12.0001C20 11.739 19.8338 11.4571 19.4338 11.3238C19.0454 11.1943 18.383 11.2128 17.6 11.8001C17.1582 12.1314 16.5314 12.0419 16.2 11.6001C15.8686 11.1582 15.9582 10.5314 16.4 10.2001C17.617 9.28731 18.9546 9.05584 20.0662 9.42638Z" fill="currentColor" style="fill="currentColor";fill-opacity:1;"/>
</svg>
