<svg width="24" height="24" viewBox="0 0 24 24" fill="none" xmlns="http://www.w3.org/2000/svg">
<path fill-rule="evenodd" clip-rule="evenodd" d="M4 5C4.55228 5 5 5.44772 5 6V11H11V6C11 5.44772 11.4477 5 12 5C12.5523 5 13 5.44772 13 6V18C13 18.5523 12.5523 19 12 19C11.4477 19 11 18.5523 11 18V13H5V18C5 18.5523 4.55228 19 4 19C3.44772 19 3 18.5523 3 18V6C3 5.44772 3.44772 5 4 5ZM19.4609 11.2169C19.1136 11.053 18.5877 11.0203 18.007 11.3619C17.531 11.6419 16.9181 11.483 16.6381 11.007C16.358 10.5309 16.5169 9.91803 16.993 9.63801C18.1123 8.97956 19.3364 8.94685 20.3141 9.40801C21.284 9.86552 22 10.8179 22 11.9999C22 12.7398 21.7267 13.4514 21.236 14C21.7267 14.5485 22 15.2602 22 16C22 17.2853 21.2767 18.3971 20.1604 18.8994C19.0257 19.41 17.642 19.2315 16.4 18.3C15.9582 17.9686 15.8686 17.3418 16.2 16.9C16.5314 16.4582 17.1582 16.3686 17.6 16.7C18.358 17.2685 18.9743 17.24 19.3396 17.0756C19.7233 16.9029 20 16.5147 20 16C20 15.7348 19.8946 15.4804 19.7071 15.2929C19.5195 15.1053 19.2651 14.9999 19 14.9999C18.4477 14.9999 18 14.5522 18 13.9999C18 13.4477 18.4477 12.9999 19 12.9999C19.2652 12.9999 19.5196 12.8946 19.7071 12.707C19.8946 12.5195 20 12.2652 20 11.9999C20 11.682 19.816 11.3844 19.4609 11.2169Z" fill="currentColor" style="fill="currentColor";fill-opacity:1;"/>
</svg>
