<svg width="24" height="24" viewBox="0 0 24 24" fill="none" xmlns="http://www.w3.org/2000/svg">
<path fill-rule="evenodd" clip-rule="evenodd" d="M1.29289 1.29289C1.68342 0.902369 2.31658 0.902369 2.70711 1.29289L17.1987 15.7845C17.2015 15.7873 17.2043 15.79 17.2071 15.7928C17.2099 15.7956 17.2126 15.7984 17.2154 15.8012L22.7071 21.2929C23.0976 21.6834 23.0976 22.3166 22.7071 22.7071C22.3166 23.0976 21.6834 23.0976 21.2929 22.7071L16.5 17.9142L12.7071 21.707C12.3166 22.0975 11.6834 22.0975 11.2929 21.707L4.29885 14.713C2.79442 13.2579 1 11.2493 1 8.4999L1 8.49911C1.00079 7.50593 1.22916 6.52615 1.66757 5.63497C1.9401 5.081 2.28929 4.57042 2.7034 4.11761L1.29289 2.70711C0.902369 2.31658 0.902369 1.68342 1.29289 1.29289ZM4.11965 5.53386C3.85895 5.83054 3.63761 6.16119 3.46216 6.51783C3.1587 7.13468 3.0006 7.81286 3 8.50031C3.00018 10.347 4.20081 11.8365 5.69502 13.2809L5.70711 13.2928L12 19.5857L15.0857 16.5L4.11965 5.53386ZM14.5518 4.35432C13.984 4.60163 13.4001 5.0141 12.7071 5.70711C12.519 5.89519 12.2638 6.00059 11.9978 6C11.7318 5.9994 11.477 5.89286 11.2897 5.70393C10.2818 4.68693 9.47462 4.25484 8.57211 4.08219C8.02966 3.97842 7.67405 3.45455 7.77782 2.9121C7.88159 2.36966 8.40546 2.01404 8.94791 2.11781C10.0715 2.33275 11.0368 2.81953 12.002 3.63766C12.5693 3.1585 13.141 2.78731 13.7532 2.52068C14.6268 2.14018 15.5198 2 16.5 2C18.2239 2 19.8772 2.68482 21.0962 3.90381C22.3152 5.12279 23 6.77609 23 8.5C23 11.047 21.4348 12.9591 20.0422 14.372C19.6545 14.7653 19.0214 14.7699 18.628 14.3822C18.2347 13.9945 18.2301 13.3614 18.6178 12.968C19.9653 11.6009 21 10.193 21 8.5C21 7.30653 20.5259 6.16193 19.682 5.31802C18.8381 4.47411 17.6935 4 16.5 4C15.7202 4 15.1132 4.10982 14.5518 4.35432Z" fill="currentColor" style="fill="currentColor";fill-opacity:1;"/>
</svg>
