<svg width="24" height="24" viewBox="0 0 24 24" fill="none" xmlns="http://www.w3.org/2000/svg">
<path fill-rule="evenodd" clip-rule="evenodd" d="M11.5547 1.16793C12.0142 1.47429 12.1384 2.09516 11.832 2.55468C11.4177 3.17612 11.4083 3.4961 11.4287 3.64907C11.4558 3.8523 11.5621 4.04046 11.832 4.44528C11.842 4.46022 11.8522 4.47556 11.8628 4.4913C12.0956 4.8394 12.46 5.38407 12.5537 6.08657C12.6583 6.8711 12.4177 7.67612 11.832 8.55468C11.5257 9.01421 10.9048 9.13839 10.4453 8.83203C9.98573 8.52568 9.86156 7.90481 10.1679 7.44528C10.5822 6.82385 10.5916 6.50387 10.5712 6.3509C10.5441 6.14767 10.4378 5.95951 10.1679 5.55468C10.158 5.53975 10.1477 5.52441 10.1372 5.50867C9.90428 5.16057 9.5399 4.6159 9.44623 3.9134C9.34163 3.12887 9.5822 2.32385 10.1679 1.44528C10.4743 0.985755 11.0951 0.861582 11.5547 1.16793ZM16.0547 1.16793C16.5142 1.47429 16.6384 2.09516 16.332 2.55468C15.9177 3.17612 15.9083 3.4961 15.9287 3.64907C15.9558 3.8523 16.0621 4.04046 16.332 4.44528C16.342 4.46022 16.3522 4.47556 16.3628 4.4913C16.5956 4.8394 16.96 5.38407 17.0537 6.08657C17.1583 6.8711 16.9177 7.67612 16.332 8.55468C16.0257 9.01421 15.4048 9.13839 14.9453 8.83203C14.4857 8.52568 14.3616 7.90481 14.6679 7.44528C15.0822 6.82385 15.0916 6.50387 15.0712 6.3509C15.0441 6.14767 14.9378 5.95951 14.6679 5.55468C14.658 5.53975 14.6477 5.52441 14.6372 5.50867C14.4043 5.16057 14.0399 4.6159 13.9462 3.9134C13.8416 3.12887 14.0822 2.32385 14.6679 1.44528C14.9743 0.985755 15.5951 0.861582 16.0547 1.16793ZM4 6.99998C3.73478 6.99998 3.48043 7.10534 3.29289 7.29288C3.10536 7.48041 3 7.73477 3 7.99998V18C3 18.2652 3.10536 18.5196 3.29289 18.7071C3.48043 18.8946 3.73478 19 4 19H20C20.2652 19 20.5196 18.8946 20.7071 18.7071C20.8946 18.5196 21 18.2652 21 18V7.99998C21 7.73477 20.8946 7.48041 20.7071 7.29288C20.5196 7.10534 20.2652 6.99998 20 6.99998C19.4477 6.99998 19 6.55227 19 5.99998C19 5.4477 19.4477 4.99998 20 4.99998C20.7957 4.99998 21.5587 5.31605 22.1213 5.87866C22.6839 6.44127 23 7.20433 23 7.99998V18C23 18.7956 22.6839 19.5587 22.1213 20.1213C21.5587 20.6839 20.7957 21 20 21V22C20 22.5523 19.5523 23 19 23C18.4477 23 18 22.5523 18 22V21H6V22C6 22.5523 5.55228 23 5 23C4.44772 23 4 22.5523 4 22V21C3.20435 21 2.44129 20.6839 1.87868 20.1213C1.31607 19.5587 1 18.7956 1 18V7.99998C1 7.20433 1.31607 6.44127 1.87868 5.87866C2.44129 5.31605 3.20435 4.99998 4 4.99998H7C7.55228 4.99998 8 5.4477 8 5.99998C8 6.55227 7.55228 6.99998 7 6.99998H4ZM5 9.99998C5 9.4477 5.44772 8.99998 6 8.99998H6.01C6.56228 8.99998 7.01 9.4477 7.01 9.99998C7.01 10.5523 6.56228 11 6.01 11H6C5.44772 11 5 10.5523 5 9.99998ZM10 11C10.5523 11 11 11.4477 11 12V16C11 16.5523 10.5523 17 10 17C9.44772 17 9 16.5523 9 16V12C9 11.4477 9.44772 11 10 11ZM14 11C14.5523 11 15 11.4477 15 12V16C15 16.5523 14.5523 17 14 17C13.4477 17 13 16.5523 13 16V12C13 11.4477 13.4477 11 14 11ZM18 11C18.5523 11 19 11.4477 19 12V16C19 16.5523 18.5523 17 18 17C17.4477 17 17 16.5523 17 16V12C17 11.4477 17.4477 11 18 11ZM5 14C5 13.4477 5.44772 13 6 13H6.01C6.56228 13 7.01 13.4477 7.01 14C7.01 14.5523 6.56228 15 6.01 15H6C5.44772 15 5 14.5523 5 14Z" fill="black" style="fill:black;fill-opacity:1;"/>
</svg>
