<svg width="24" height="24" viewBox="0 0 24 24" fill="none" xmlns="http://www.w3.org/2000/svg">
<path fill-rule="evenodd" clip-rule="evenodd" d="M14.7072 3.29289C15.0977 3.68342 15.0977 4.31658 14.7072 4.70711L10.1113 9.30296C9.92992 9.48958 9.82837 9.73963 9.82837 10C9.82837 10.2604 9.92992 10.5104 10.1113 10.697L15.303 15.8887C15.4897 16.0702 15.7397 16.1717 16.0001 16.1717C16.2605 16.1717 16.5105 16.0702 16.6971 15.8887L21.293 11.2929C21.6835 10.9024 22.3167 10.9024 22.7072 11.2929C23.0977 11.6834 23.0977 12.3166 22.7072 12.7071L18.1001 17.3142C17.5393 17.8639 16.7853 18.1717 16.0001 18.1717C15.7695 18.1717 15.5416 18.1452 15.3205 18.0937L12.7071 20.7071C12.5196 20.8946 12.2652 21 12 21H3C2.44772 21 2 20.5523 2 20V17C2 16.7348 2.10536 16.4804 2.29289 16.2929L7.90632 10.6795C7.85491 10.4584 7.82837 10.2306 7.82837 10C7.82837 9.21474 8.13626 8.46079 8.68594 7.9L8.69294 7.89286L13.293 3.29289C13.6835 2.90237 14.3167 2.90237 14.7072 3.29289ZM9.00004 12.4142L4 17.4142V19H11.5858L13.5858 17L9.00004 12.4142Z" fill="currentColor" style="fill="currentColor";fill-opacity:1;"/>
</svg>
