<svg width="24" height="24" viewBox="0 0 24 24" fill="none" xmlns="http://www.w3.org/2000/svg">
<path fill-rule="evenodd" clip-rule="evenodd" d="M13.398 3.10437C11.8194 2.85445 10.2027 3.02941 8.71415 3.61126C8.19977 3.81232 7.61978 3.55832 7.41872 3.04393C7.21766 2.52955 7.47166 1.94956 7.98604 1.7485C9.8054 1.03735 11.7813 0.823517 13.7107 1.12897C15.6401 1.43442 17.4533 2.24815 18.964 3.4865C19.407 3.84835 19.672 4.39785 19.6228 4.98135C19.603 5.21666 19.5331 5.43885 19.4207 5.63691C20.428 6.84583 21.3023 8.16091 22.0278 9.55958C22.0356 9.57476 22.0431 9.59015 22.0502 9.60571C22.1712 9.87156 22.2257 10.1629 22.209 10.4545C22.1923 10.7461 22.1048 11.0293 21.9542 11.2796C21.9123 11.3492 21.8659 11.4157 21.8153 11.4787C22.1913 12.3626 22.7319 13.7783 22.9286 15.0692L22.9313 15.0877C23.0159 15.7225 22.7678 16.3966 22.2011 16.7908C21.7478 17.1062 21.1246 16.9943 20.8092 16.541C20.5255 16.1333 20.5874 15.5882 20.9325 15.2532C20.7482 14.1762 20.2729 12.956 19.9406 12.1829C18.8266 12.2231 17.6176 12.1224 16.3707 11.8819C15.8284 11.7773 15.4736 11.2529 15.5782 10.7107C15.6827 10.1684 16.2071 9.81353 16.7494 9.91811C17.9568 10.151 19.0918 10.2307 20.0899 10.1739C19.4114 8.91986 18.5997 7.7429 17.669 6.66335C15.986 7.14058 13.6885 7.41942 12.1796 7.4791C11.6278 7.50092 11.1627 7.07125 11.1409 6.5194C11.1191 5.96754 11.5487 5.50249 12.1006 5.48066C13.6121 5.42088 15.8305 5.12857 17.2626 4.69936C16.1195 3.87321 14.796 3.3257 13.398 3.10437ZM1.29289 1.29289C1.68342 0.902369 2.31658 0.902369 2.70711 1.29289L22.7071 21.2929C23.0976 21.6834 23.0976 22.3166 22.7071 22.7071C22.3962 23.018 21.9315 23.0814 21.5579 22.8973C21.3556 22.9516 21.1454 22.9723 20.9357 22.958C19.9302 22.8986 18.2795 22.74 16.7212 22.297C16.3388 22.7625 15.7286 23.0148 15.0906 22.9316L15.0692 22.9285C13.7783 22.7317 12.3626 22.1912 11.4787 21.8151C11.4157 21.8657 11.3492 21.9122 11.2796 21.9541C11.0293 22.1047 10.7461 22.1922 10.4545 22.2089C10.1629 22.2256 9.87156 22.1711 9.60571 22.0501L9.60277 22.0487C8.24085 21.4234 6.74242 20.3287 5.64269 19.4173C5.44318 19.5316 5.21898 19.6026 4.9814 19.6226C4.39709 19.6719 3.84688 19.4061 3.48505 18.962C1.75939 16.851 0.87928 14.1742 1.01544 11.451C1.13489 9.062 2.02895 6.78666 3.54797 4.96219L1.29289 2.70711C0.902369 2.31658 0.902369 1.68342 1.29289 1.29289ZM4.9694 6.38361C3.79684 7.85165 3.10761 9.65764 3.01295 11.5508C2.91066 13.5965 3.50928 15.6101 4.70069 17.2629C4.91384 16.5551 5.09638 15.6411 5.23388 14.6862C5.41024 13.4614 5.49992 12.2605 5.49992 11.4999C5.49992 11.1781 5.65482 10.8759 5.91612 10.688C6.17742 10.5001 6.51318 10.4495 6.81827 10.552C7.66499 10.8363 8.62562 11.0984 9.61611 11.1803C9.64327 11.1813 9.67029 11.1834 9.69713 11.1866C9.72402 11.1886 9.75094 11.1904 9.77787 11.1921L4.9694 6.38361ZM8.87567 13.1097C8.37389 13.0407 7.89407 12.9401 7.446 12.8253C7.39841 13.4895 7.31999 14.2314 7.21346 14.9712C7.08209 15.8836 6.90148 16.8399 6.66652 17.6654C7.63726 18.4922 8.98685 19.506 10.173 20.1038C10.287 18.1396 9.86471 15.6695 8.87567 13.1097ZM12.1827 19.9405C12.2104 19.1678 12.17 18.3487 12.0636 17.499C13.0156 17.7026 13.986 17.822 14.8047 17.8926C14.9826 18.7535 15.1735 19.9204 15.1368 20.9114C14.0892 20.7141 12.9282 20.2608 12.1827 19.9405ZM17.1354 20.3348C17.8712 20.5543 18.659 20.7019 19.3864 20.8007L16.9231 18.3373C17.0258 18.952 17.1131 19.6483 17.1354 20.3348ZM14.4329 15.8471L11.6685 13.0827C11.6227 13.0931 11.5764 13.1018 11.5297 13.1087C11.3619 13.1349 11.1946 13.1555 11.0282 13.1708C11.2818 13.9002 11.495 14.6265 11.6668 15.3413C12.5441 15.5937 13.5364 15.7505 14.4329 15.8471Z" fill="black" style="fill:black;fill-opacity:1;"/>
</svg>
