<svg width="24" height="24" viewBox="0 0 24 24" fill="none" xmlns="http://www.w3.org/2000/svg">
<path fill-rule="evenodd" clip-rule="evenodd" d="M7.75736 2.75736C8.88258 1.63214 10.4087 1 12 1C13.5913 1 15.1174 1.63214 16.2426 2.75736C17.1658 3.68051 17.7571 4.87351 17.9396 6.15095C18.3809 6.2965 18.7866 6.54396 19.1213 6.87868C19.6839 7.44129 20 8.20435 20 9C20 9.79565 19.6839 10.5587 19.1213 11.1213C18.7304 11.5122 18.2428 11.7841 17.7147 11.9136L13.8503 21.7167C13.847 21.7252 13.8436 21.7336 13.84 21.7419C13.6863 22.1027 13.4299 22.4103 13.1028 22.6266C12.7756 22.8428 12.3921 22.9581 12 22.9581C11.6079 22.9581 11.2244 22.8428 10.8972 22.6266C10.5701 22.4103 10.3137 22.1027 10.16 21.7419C10.1564 21.7336 10.153 21.7252 10.1497 21.7167L6.28526 11.9136C5.75717 11.7841 5.26955 11.5122 4.87868 11.1213C4.31607 10.5587 4 9.79565 4 9C4 8.20435 4.31607 7.44129 4.87868 6.87868C5.2134 6.54396 5.61908 6.2965 6.06035 6.15095C6.24294 4.87351 6.83421 3.68051 7.75736 2.75736ZM8.4691 12L12 20.9571L15.5309 12H8.4691ZM12 3C10.9391 3 9.92172 3.42143 9.17157 4.17157C8.42143 4.92172 8 5.93913 8 7C8 7.55228 7.55228 8 7 8C6.73478 8 6.48043 8.10536 6.29289 8.29289C6.10536 8.48043 6 8.73478 6 9C6 9.26522 6.10536 9.51957 6.29289 9.70711C6.48043 9.89464 6.73478 10 7 10H17C17.2652 10 17.5196 9.89464 17.7071 9.70711C17.8946 9.51957 18 9.26522 18 9C18 8.73478 17.8946 8.48043 17.7071 8.29289C17.5196 8.10536 17.2652 8 17 8C16.7348 8 16.4804 7.89464 16.2929 7.70711C16.1054 7.51957 16 7.26522 16 7C16 5.93913 15.5786 4.92172 14.8284 4.17157C14.0783 3.42143 13.0609 3 12 3Z" fill="currentColor" style="fill="currentColor";fill-opacity:1;"/>
</svg>
