<svg width="24" height="24" viewBox="0 0 24 24" fill="none" xmlns="http://www.w3.org/2000/svg">
<path fill-rule="evenodd" clip-rule="evenodd" d="M10.2779 2.34254C10.8239 2.1164 11.4091 2 12 2C12.5909 2 13.1761 2.1164 13.7221 2.34254C14.268 2.56869 14.7641 2.90016 15.182 3.31802C15.5998 3.73588 15.9313 4.23196 16.1575 4.77792C16.2672 5.04285 16.3511 5.31701 16.4084 5.59658C16.7903 5.67574 17.1617 5.8045 17.5127 5.98056C18.1388 6.29463 18.683 6.75056 19.1019 7.31204C19.5208 7.87353 19.8029 8.52505 19.9256 9.21475C19.9718 9.47476 19.9949 9.73749 19.9951 9.99991H20C20.5523 9.99991 21 10.4476 21 10.9999C21 14.809 17.7751 17.6206 12.9994 17.9645C12.9998 17.9762 13 17.988 13 17.9999V19.9999H16C16.5523 19.9999 17 20.4476 17 20.9999C17 21.5522 16.5523 21.9999 16 21.9999H8C7.44772 21.9999 7 21.5522 7 20.9999C7 20.4476 7.44772 19.9999 8 19.9999H11V17.9999C11 17.988 11.0002 17.9762 11.0006 17.9645C6.22487 17.6206 3 14.809 3 10.9999C3 10.4493 3.44502 10.0026 3.995 9.99993C3.99518 9.7375 4.01831 9.47476 4.06456 9.21475C4.18726 8.52505 4.46929 7.87352 4.88818 7.31204C5.30708 6.75056 5.85128 6.29463 6.47745 5.98056C6.83161 5.80291 7.20646 5.67343 7.59205 5.59445C7.64934 5.31562 7.73308 5.04218 7.84254 4.77792C8.06869 4.23196 8.40016 3.73588 8.81802 3.31802C9.23588 2.90016 9.73196 2.56869 10.2779 2.34254ZM9.64782 5.6531C9.94555 5.73201 10.2354 5.84154 10.5125 5.98056C11.0868 6.26859 11.5921 6.67593 11.9951 7.17458C12.398 6.67593 12.9033 6.26859 13.4776 5.98056C13.7575 5.84013 14.0504 5.7298 14.3513 5.65072C14.3383 5.61463 14.3244 5.57881 14.3097 5.54329C14.1841 5.23998 13.9999 4.96438 13.7678 4.73223C13.5356 4.50009 13.26 4.31594 12.9567 4.1903C12.6534 4.06466 12.3283 4 12 4C11.6717 4 11.3466 4.06466 11.0433 4.1903C10.74 4.31594 10.4644 4.50009 10.2322 4.73223C10.0001 4.96438 9.81594 5.23998 9.6903 5.54329C9.67526 5.57959 9.6611 5.61621 9.64782 5.6531ZM10.995 9.99991C10.9948 9.85457 10.982 9.70906 10.9564 9.56505C10.8882 9.18189 10.7315 8.81993 10.4988 8.50799C10.2661 8.19606 9.96373 7.94276 9.61586 7.76828C9.26799 7.59379 8.88418 7.50293 8.495 7.50293C8.10582 7.50293 7.72201 7.59379 7.37414 7.76828C7.02627 7.94276 6.72393 8.19606 6.49121 8.50799C6.25849 8.81993 6.10181 9.18189 6.03365 9.56505C6.00803 9.70906 5.99518 9.85457 5.995 9.99991H10.995ZM5.12152 12C5.13511 12.0003 5.14875 12.0002 5.16241 11.9999H11.8276C11.8428 12.0003 11.8581 12.0003 11.8732 11.9999H12.1169C12.1321 12.0003 12.1473 12.0003 12.1625 11.9999H18.8277C18.843 12.0003 18.8582 12.0003 18.8733 11.9999H18.8785C18.3461 14.155 16.0621 15.9999 12 15.9999C7.93795 15.9999 5.65402 14.1551 5.12152 12ZM17.9951 9.99991C17.9949 9.85457 17.9821 9.70906 17.9565 9.56505C17.8883 9.18189 17.7316 8.81993 17.4989 8.50799C17.2662 8.19606 16.9639 7.94276 16.616 7.76828C16.2681 7.59379 15.8843 7.50293 15.4951 7.50293C15.1059 7.50293 14.7221 7.59379 14.3743 7.76828C14.0264 7.94276 13.7241 8.19606 13.4913 8.50799C13.2586 8.81993 13.1019 9.18189 13.0338 9.56505C13.0081 9.70906 12.9953 9.85457 12.9951 9.99991H17.9951Z" fill="currentColor" style="fill="currentColor";fill-opacity:1;"/>
</svg>
