<svg width="24" height="24" viewBox="0 0 24 24" fill="none" xmlns="http://www.w3.org/2000/svg">
<path fill-rule="evenodd" clip-rule="evenodd" d="M5 4C4.44772 4 4 4.44772 4 5V19C4 19.5523 4.44771 20 5 20H5.58573L14.3789 11.2068C14.9415 10.6444 15.7045 10.3284 16.5 10.3284C17.2955 10.3284 18.0584 10.6443 18.621 11.2067L20 12.5857V5C20 4.44771 19.5523 4 19 4H5ZM22 14.999V5C22 3.34315 20.6569 2 19 2H5C3.34315 2 2 3.34315 2 5V19C2 20.6569 3.34315 22 5 22H19C20.6569 22 22 20.6569 22 19V15.0009C22 15.0003 22 14.9996 22 14.999ZM20 15.4142L17.207 12.6212C17.207 12.6211 17.207 12.6212 17.207 12.6212C17.0195 12.4338 16.7651 12.3284 16.5 12.3284C16.2349 12.3284 15.9806 12.4336 15.7931 12.621C15.7931 12.6211 15.7931 12.621 15.7931 12.621L8.41416 20H19C19.5523 20 20 19.5523 20 19V15.4142ZM9 8C8.44772 8 8 8.44772 8 9C8 9.55228 8.44772 10 9 10C9.55228 10 10 9.55228 10 9C10 8.44772 9.55228 8 9 8ZM6 9C6 7.34315 7.34315 6 9 6C10.6569 6 12 7.34315 12 9C12 10.6569 10.6569 12 9 12C7.34315 12 6 10.6569 6 9Z" fill="currentColor" style="fill="currentColor";fill-opacity:1;"/>
</svg>
