<svg width="24" height="24" viewBox="0 0 24 24" fill="none" xmlns="http://www.w3.org/2000/svg">
<path fill-rule="evenodd" clip-rule="evenodd" d="M5 4C4.73478 4 4.48043 4.10536 4.29289 4.29289C4.10536 4.48043 4 4.73478 4 5V19C4 19.2652 4.10536 19.5196 4.29289 19.7071C4.48043 19.8946 4.73478 20 5 20H5.58579L14.3789 11.2069L14.379 11.2068C14.9379 10.648 15.6948 10.3323 16.4851 10.3284C17.2755 10.3245 18.0355 10.6326 18.6 11.1858L18.6071 11.1929L18.6071 11.1929L20 12.5858V5C20 4.73478 19.8946 4.48043 19.7071 4.29289C19.5196 4.10536 19.2652 4 19 4H5ZM6.00098 22H10.3C10.8523 22 11.3 21.5523 11.3 21C11.3 20.4477 10.8523 20 10.3 20H8.41421L15.793 12.6212C15.9793 12.4349 16.2316 12.3297 16.4951 12.3284C16.7572 12.3271 17.0092 12.4287 17.1971 12.6113L20.2929 15.7071C20.5789 15.9931 21.009 16.0787 21.3827 15.9239C21.7564 15.7691 22 15.4045 22 15V5C22 4.20435 21.6839 3.44129 21.1213 2.87868C20.5587 2.31607 19.7957 2 19 2H5C4.20435 2 3.44129 2.31607 2.87868 2.87868C2.31607 3.44129 2 4.20435 2 5V19C2 19.7957 2.31607 20.5587 2.87868 21.1213C3.44129 21.6839 4.20435 22 5 22H5.99902C5.99967 22 6.00033 22 6.00098 22ZM9 8C8.44772 8 8 8.44772 8 9C8 9.55228 8.44772 10 9 10C9.55228 10 10 9.55228 10 9C10 8.44772 9.55228 8 9 8ZM6 9C6 7.34315 7.34315 6 9 6C10.6569 6 12 7.34315 12 9C12 10.6569 10.6569 12 9 12C7.34315 12 6 10.6569 6 9ZM16.2929 15.7929C16.6834 15.4024 17.3166 15.4024 17.7071 15.7929L20.7071 18.7929C21.0976 19.1834 21.0976 19.8166 20.7071 20.2071C20.3166 20.5976 19.6834 20.5976 19.2929 20.2071L18 18.9142V22C18 22.5523 17.5523 23 17 23C16.4477 23 16 22.5523 16 22V18.9142L14.7071 20.2071C14.3166 20.5976 13.6834 20.5976 13.2929 20.2071C12.9024 19.8166 12.9024 19.1834 13.2929 18.7929L16.2929 15.7929Z" fill="currentColor" style="fill="currentColor";fill-opacity:1;"/>
</svg>
