<svg width="24" height="24" viewBox="0 0 24 24" fill="none" xmlns="http://www.w3.org/2000/svg">
<path fill-rule="evenodd" clip-rule="evenodd" d="M1.29289 1.29289C1.68342 0.902369 2.31658 0.902369 2.70711 1.29289L22.7071 21.2929C23.0976 21.6834 23.0976 22.3166 22.7071 22.7071C22.3166 23.0976 21.6834 23.0976 21.2929 22.7071L20.2934 21.7076C19.8988 21.8971 19.4587 22.0001 19 22.0001H5C4.20435 22.0001 3.44129 21.684 2.87868 21.1214C2.31607 20.5588 2 19.7957 2 19.0001V4.99795C2.00084 4.60383 2.0796 4.21376 2.23173 3.85018C2.25164 3.80261 2.27275 3.75562 2.29503 3.70925L1.29289 2.70711C0.902369 2.31658 0.902369 1.68342 1.29289 1.29289ZM4 5.41421V19.0001C4 19.2653 4.10536 19.5197 4.29289 19.7072C4.48043 19.8947 4.73478 20.0001 5 20.0001H5.5857L12.0858 13.5L10.2888 11.703C10.241 11.7258 10.1925 11.7474 10.1435 11.7677C9.77937 11.9186 9.38912 11.9962 8.99501 11.9962C8.6009 11.9962 8.21064 11.9186 7.84653 11.7677C7.48242 11.6169 7.15158 11.3959 6.8729 11.1172C6.59422 10.8385 6.37316 10.5077 6.22234 10.1436C6.07152 9.77944 5.9939 9.38919 5.9939 8.99508C5.9939 8.60097 6.07152 8.21071 6.22234 7.8466C6.24266 7.79755 6.26425 7.7491 6.28709 7.7013L4 5.41421ZM8.25385 9.66807C8.26465 9.67995 8.27574 9.69159 8.28712 9.70297C8.29849 9.71435 8.31013 9.72544 8.32202 9.73624L8.25385 9.66807ZM13.5 14.9142L8.41413 20.0001H18.5859L13.5 14.9142ZM8 3C8 2.44772 8.44772 2 9 2H19C19.7957 2 20.5587 2.31607 21.1213 2.87868C21.6839 3.44129 22 4.20435 22 5V15C22 15.4045 21.7564 15.7691 21.3827 15.9239C21.009 16.0787 20.5789 15.9931 20.2929 15.7071L17.2929 12.7071C16.9024 12.3166 16.9024 11.6834 17.2929 11.2929C17.6834 10.9024 18.3166 10.9024 18.7071 11.2929L20 12.5858V5C20 4.73478 19.8946 4.48043 19.7071 4.29289C19.5196 4.10536 19.2652 4 19 4H9C8.44772 4 8 3.55228 8 3Z" fill="black" style="fill:black;fill-opacity:1;"/>
</svg>
