<svg width="24" height="24" viewBox="0 0 24 24" fill="none" xmlns="http://www.w3.org/2000/svg">
<path fill-rule="evenodd" clip-rule="evenodd" d="M5 4C4.44772 4 4 4.44772 4 5V19C4 19.5523 4.44771 20 5 20H19C19.5523 20 20 19.5523 20 19V5C20 4.44771 19.5523 4 19 4H5ZM2 5C2 3.34315 3.34315 2 5 2H19C20.6569 2 22 3.34315 22 5V19C22 20.6569 20.6569 22 19 22H5C3.34315 22 2 20.6569 2 19V5ZM6 7C6 6.44772 6.44772 6 7 6H7.01C7.56228 6 8.01 6.44772 8.01 7C8.01 7.55228 7.56228 8 7.01 8H7C6.44772 8 6 7.55228 6 7ZM16 7C16 6.44772 16.4477 6 17 6H17.01C17.5623 6 18.01 6.44772 18.01 7C18.01 7.55228 17.5623 8 17.01 8H17C16.4477 8 16 7.55228 16 7ZM6 17C6 16.4477 6.44772 16 7 16H7.01C7.56228 16 8.01 16.4477 8.01 17C8.01 17.5523 7.56228 18 7.01 18H7C6.44772 18 6 17.5523 6 17ZM16 17C16 16.4477 16.4477 16 17 16H17.01C17.5623 16 18.01 16.4477 18.01 17C18.01 17.5523 17.5623 18 17.01 18H17C16.4477 18 16 17.5523 16 17Z" fill="currentColor" style="fill="currentColor";fill-opacity:1;"/>
</svg>
