<svg width="24" height="24" viewBox="0 0 24 24" fill="none" xmlns="http://www.w3.org/2000/svg">
<path fill-rule="evenodd" clip-rule="evenodd" d="M14.977 3.00003H10C9.44772 3.00003 9 3.44774 9 4.00003C9 4.55231 9.44772 5.00003 10 5.00003H13.557L8.307 19H5C4.44772 19 4 19.4477 4 20C4 20.5523 4.44772 21 5 21H8.97666C8.99216 21.0004 9.00762 21.0004 9.02304 21H14C14.5523 21 15 20.5523 15 20C15 19.4477 14.5523 19 14 19H10.443L15.693 5.00003H19C19.5523 5.00003 20 4.55231 20 4.00003C20 3.44774 19.5523 3.00003 19 3.00003H15.0233C15.0078 2.99966 14.9924 2.99967 14.977 3.00003Z" fill="currentColor" style="fill="currentColor";fill-opacity:1;"/>
</svg>
