<svg width="24" height="24" viewBox="0 0 24 24" fill="none" xmlns="http://www.w3.org/2000/svg">
<path fill-rule="evenodd" clip-rule="evenodd" d="M12 3C8.15228 3 5 6.15228 5 10C5 10.5523 4.55228 11 4 11C3.44772 11 3 10.5523 3 10C3 5.04772 7.04772 1 12 1C16.9523 1 21 5.04772 21 10C21 14.9523 16.9523 19 12 19H6.41421L8.70711 21.2929C9.09763 21.6834 9.09763 22.3166 8.70711 22.7071C8.31658 23.0976 7.68342 23.0976 7.29289 22.7071L3.29289 18.7071C2.90237 18.3166 2.90237 17.6834 3.29289 17.2929L7.29289 13.2929C7.68342 12.9024 8.31658 12.9024 8.70711 13.2929C9.09763 13.6834 9.09763 14.3166 8.70711 14.7071L6.41421 17H12C15.8477 17 19 13.8477 19 10C19 6.15228 15.8477 3 12 3Z" fill="currentColor" style="fill="currentColor";fill-opacity:1;"/>
</svg>
