<svg width="24" height="24" viewBox="0 0 24 24" fill="none" xmlns="http://www.w3.org/2000/svg">
<path fill-rule="evenodd" clip-rule="evenodd" d="M4 5C3.44772 5 3 5.44772 3 6V11H21V6C21 5.44771 20.5523 5 20 5H4ZM23 6C23 4.34315 21.6569 3 20 3H4C2.34315 3 1 4.34315 1 6V18C1 19.6569 2.34315 21 4 21H20C21.6569 21 23 19.6569 23 18V6ZM21 13H19V16C19 16.5523 18.5523 17 18 17C17.4477 17 17 16.5523 17 16V13H15V16C15 16.5523 14.5523 17 14 17C13.4477 17 13 16.5523 13 16V13H11V16C11 16.5523 10.5523 17 10 17C9.44772 17 9 16.5523 9 16V13H7V16C7 16.5523 6.55228 17 6 17C5.44772 17 5 16.5523 5 16V13H3V18C3 18.5523 3.44772 19 4 19H20C20.5523 19 21 18.5523 21 18V13ZM5 8C5 7.44772 5.44772 7 6 7H10C10.5523 7 11 7.44772 11 8C11 8.55228 10.5523 9 10 9H6C5.44772 9 5 8.55228 5 8ZM13 8C13 7.44772 13.4477 7 14 7H14.01C14.5623 7 15.01 7.44772 15.01 8C15.01 8.55228 14.5623 9 14.01 9H14C13.4477 9 13 8.55228 13 8ZM17 8C17 7.44772 17.4477 7 18 7H18.01C18.5623 7 19.01 7.44772 19.01 8C19.01 8.55228 18.5623 9 18.01 9H18C17.4477 9 17 8.55228 17 8Z" fill="black" style="fill:black;fill-opacity:1;"/>
</svg>
