<svg width="24" height="24" viewBox="0 0 24 24" fill="none" xmlns="http://www.w3.org/2000/svg">
<path fill-rule="evenodd" clip-rule="evenodd" d="M3 3C3 2.44772 3.44772 2 4 2H6C6.79565 2 7.55871 2.31607 8.12132 2.87868C8.68393 3.44129 9 4.20435 9 5H12C12.7956 5 13.5587 5.31607 14.1213 5.87868C14.6839 6.44129 15 7.20435 15 8V12H17C17.4 12 17.7616 12.2384 17.9191 12.6061L20.9191 19.6061C21.0516 19.915 21.0199 20.2699 20.8348 20.5505C20.6498 20.8311 20.3361 21 20 21H8C7.66386 21 7.3502 20.8311 7.16516 20.5505C6.98012 20.2699 6.94844 19.915 7.08085 19.6061L10.0809 12.6061C10.2384 12.2384 10.6 12 11 12H13V8C13 7.73478 12.8946 7.48043 12.7071 7.29289C12.5196 7.10536 12.2652 7 12 7H9C9 7.79565 8.68393 8.55871 8.12132 9.12132C7.55871 9.68393 6.79565 10 6 10H4C3.44772 10 3 9.55228 3 9V3ZM7 5C7 4.73478 6.89464 4.48043 6.70711 4.29289C6.51957 4.10536 6.26522 4 6 4H5V8H6C6.26522 8 6.51957 7.89464 6.70711 7.70711C6.89464 7.51957 7 7.26522 7 7V5ZM11.6594 14L9.51654 19H18.4835L16.3406 14H11.6594Z" fill="currentColor" style="fill="currentColor";fill-opacity:1;"/>
</svg>
