<svg width="24" height="24" viewBox="0 0 24 24" fill="none" xmlns="http://www.w3.org/2000/svg">
<path fill-rule="evenodd" clip-rule="evenodd" d="M12 1C12.5523 1 13 1.44772 13 2V6H18C18.3952 6 18.7533 6.23273 18.9138 6.59386L22.9138 15.5939C23.0513 15.9032 23.023 16.2611 22.8385 16.5449C22.654 16.8287 22.3385 17 22 17H16C15.9998 17.1834 15.987 17.3671 15.9614 17.5498C15.8728 18.183 15.6337 18.7857 15.2642 19.3075C14.8946 19.8293 14.4053 20.2549 13.8374 20.5486C13.2695 20.8423 12.6394 20.9955 12 20.9955C11.3606 20.9955 10.7305 20.8423 10.1626 20.5486C9.59466 20.2549 9.1054 19.8293 8.73584 19.3075C8.36627 18.7857 8.12718 18.183 8.03859 17.5498C8.01303 17.3671 8.00021 17.1834 8.00001 17H2C1.6615 17 1.34597 16.8287 1.16151 16.5449C0.977053 16.2611 0.94871 15.9032 1.08619 15.5939L5.08619 6.59386C5.24669 6.23273 5.60481 6 6 6H11V2C11 1.44772 11.4477 1 12 1ZM6.64988 8L3.53876 15H9.14674C9.1622 14.9996 9.17771 14.9996 9.19325 15H14.8068C14.8223 14.9996 14.8378 14.9996 14.8533 15H20.4612L17.3501 8H6.64988ZM14 17H10C10.0002 17.091 10.0066 17.182 10.0193 17.2727C10.0636 17.5893 10.1831 17.8906 10.3679 18.1515C10.5527 18.4124 10.7973 18.6252 11.0813 18.7721C11.3653 18.9189 11.6803 18.9955 12 18.9955C12.3197 18.9955 12.6347 18.9189 12.9187 18.7721C13.2027 18.6252 13.4473 18.4124 13.6321 18.1515C13.8169 17.8906 13.9364 17.5893 13.9807 17.2727C13.9934 17.182 13.9998 17.091 14 17Z" fill="currentColor" style="fill="currentColor";fill-opacity:1;"/>
</svg>
