<svg width="24" height="24" viewBox="0 0 24 24" fill="none" xmlns="http://www.w3.org/2000/svg">
<path fill-rule="evenodd" clip-rule="evenodd" d="M10.2929 1.29289C10.6834 0.902369 11.3166 0.902369 11.7071 1.29289L14.5239 4.10966L21.2747 6.03848C21.6154 6.13582 21.8792 6.40617 21.968 6.74916C22.0569 7.09215 21.9576 7.45656 21.7071 7.70711L13.7071 15.7071C13.4566 15.9576 13.0921 16.0569 12.7492 15.968C12.4062 15.8792 12.1358 15.6154 12.0385 15.2747L10.1097 8.52388L9.5 7.91421L5.21676 12.1975L7.61803 17H9C9.79565 17 10.5587 17.3161 11.1213 17.8787C11.6839 18.4413 12 19.2043 12 20V22C12 22.5523 11.5523 23 11 23H3C2.44772 23 2 22.5523 2 22V20C2 18.3477 3.34772 17 5 17H5.38197L3.10557 12.4472C2.91308 12.0622 2.98853 11.5973 3.29289 11.2929L8.08579 6.5L7.29289 5.70711C6.90237 5.31658 6.90237 4.68342 7.29289 4.29289L10.2929 1.29289ZM10.2068 5.7926C10.2069 5.7927 10.207 5.7928 10.2071 5.79289C10.2072 5.79299 10.2073 5.79309 10.2074 5.79319L11 6.58579L12.5858 5L11 3.41421L9.41421 5L10.2068 5.7926ZM14.291 6.12317L12.1232 8.29104L13.4946 13.0912L19.0912 7.49463L14.291 6.12317ZM6.97989 19H5C4.45228 19 4 19.4523 4 20V21H10V20C10 19.7348 9.89464 19.4804 9.70711 19.2929C9.51957 19.1054 9.26522 19 9 19H7.02166C7.00772 19.0003 6.99379 19.0003 6.97989 19Z" fill="currentColor" style="fill="currentColor";fill-opacity:1;"/>
</svg>
