<svg width="24" height="24" viewBox="0 0 24 24" fill="none" xmlns="http://www.w3.org/2000/svg">
<path fill-rule="evenodd" clip-rule="evenodd" d="M7.07153 1.62861C7.22339 1.24895 7.5911 1 8 1H16C16.4089 1 16.7766 1.24895 16.9285 1.62861L20.9285 11.6286C21.0517 11.9367 21.0141 12.2859 20.8281 12.5606C20.642 12.8354 20.3318 13 20 13H13V17H14C14.7957 17 15.5587 17.3161 16.1213 17.8787C16.6839 18.4413 17 19.2043 17 20V22C17 22.5523 16.5523 23 16 23H8C7.44772 23 7 22.5523 7 22V20C7 18.3477 8.34772 17 10 17H11V13H4C3.66818 13 3.35797 12.8354 3.17194 12.5606C2.98591 12.2859 2.94829 11.9367 3.07153 11.6286L7.07153 1.62861ZM18.523 11L15.323 3H8.67704L5.47704 11H18.523ZM10 19C9.45229 19 9 19.4523 9 20V21H15V20C15 19.7348 14.8946 19.4804 14.7071 19.2929C14.5196 19.1054 14.2652 19 14 19H10Z" fill="currentColor" style="fill="currentColor";fill-opacity:1;"/>
</svg>
