<svg width="24" height="24" viewBox="0 0 24 24" fill="none" xmlns="http://www.w3.org/2000/svg">
<path fill-rule="evenodd" clip-rule="evenodd" d="M11.4743 1.14935C11.7691 0.967144 12.1372 0.95058 12.4472 1.10557L18.4472 4.10557C18.786 4.27497 19 4.62123 19 5C19 5.37877 18.786 5.72504 18.4472 5.89443L13 8.61803V12C13 12.5523 12.5523 13 12 13C11.4477 13 11 12.5523 11 12V8.02167C10.9997 8.00772 10.9997 7.99379 11 7.97988V2C11 1.65342 11.1795 1.33156 11.4743 1.14935ZM13 6.38197L15.7639 5L13 3.61803V6.38197ZM6.04724 11.9533C6.01082 11.9713 5.97542 11.9915 5.94125 12.0139L2.00694 14.26C2.00634 14.2603 2.00575 14.2607 2.00516 14.261C1.69815 14.4354 1.44278 14.688 1.26501 14.9931C1.08689 15.2987 0.993042 15.6462 0.993042 16C0.993042 16.3538 1.08689 16.7012 1.26501 17.0069C1.44275 17.312 1.69807 17.5645 2.005 17.7389C2.00565 17.7393 2.00629 17.7396 2.00694 17.74L10.5 22.596C10.5007 22.5964 10.5014 22.5968 10.5021 22.5972C10.9576 22.8597 11.4742 22.9979 12 22.9979C12.5258 22.9979 13.0424 22.8597 13.4979 22.5972C13.4986 22.5968 13.4993 22.5964 13.5 22.596L21.993 17.74C21.9937 17.7396 21.9944 17.7392 21.995 17.7389C22.3019 17.5645 22.5572 17.3119 22.735 17.0069C22.9131 16.7012 23.0069 16.3538 23.0069 16C23.0069 15.6462 22.9131 15.2987 22.735 14.9931C22.557 14.6876 22.3012 14.4348 21.9938 14.2604C21.9935 14.2603 21.994 14.2606 21.9938 14.2604L18.1122 12.0515C18.0436 11.9997 17.969 11.9575 17.8905 11.9253L16.4946 11.1309C16.0146 10.8577 15.404 11.0254 15.1309 11.5054C14.8617 11.9784 15.0206 12.5781 15.4846 12.8569L12.0023 14.8495L8.50753 12.8516C8.97812 12.5746 9.14 11.9699 8.86843 11.4942C8.59461 11.0146 7.98382 10.8477 7.50419 11.1216L6.04724 11.9533ZM9.98831 16.0019L6.49137 14.0028L2.99579 15.9984L2.99304 16L2.99635 16.0019L6.49373 18.0016L9.98831 16.0019ZM8.508 19.1532L12.0027 17.1535L15.4963 19.1508L12.5036 20.8619L12.5 20.864C12.348 20.9517 12.1755 20.9979 12 20.9979C11.8245 20.9979 11.652 20.9517 11.5 20.864L8.508 19.1532ZM17.511 17.9988L14.0167 16.0011L17.5033 14.0061L21.0069 16L21.0036 16.0019L17.511 17.9988Z" fill="currentColor" style="fill="currentColor";fill-opacity:1;"/>
</svg>
