<svg width="24" height="24" viewBox="0 0 24 24" fill="none" xmlns="http://www.w3.org/2000/svg">
<path fill-rule="evenodd" clip-rule="evenodd" d="M6 2C6 1.44772 6.44772 1 7 1H8C8.55228 1 9 1.44772 9 2C9 2.55228 8.55228 3 8 3H7C6.44772 3 6 2.55228 6 2ZM11.9863 4H2C1.44772 4 1 4.44772 1 5C1 5.55228 1.44772 6 2 6H10.1315L9.22287 7.36291L7.5 9.08579L5.70711 7.29289C5.31658 6.90237 4.68342 6.90237 4.29289 7.29289C3.90237 7.68342 3.90237 8.31658 4.29289 8.70711L6.08579 10.5L3.29289 13.2929C2.90237 13.6834 2.90237 14.3166 3.29289 14.7071C3.68342 15.0976 4.31658 15.0976 4.70711 14.7071L7.5 11.9142L10.2929 14.7071C10.6834 15.0976 11.3166 15.0976 11.7071 14.7071C12.0976 14.3166 12.0976 13.6834 11.7071 13.2929L8.91421 10.5L10.7071 8.70711C10.7537 8.66054 10.7955 8.60949 10.8321 8.5547L12.5352 6H14C14.5523 6 15 5.55228 15 5C15 4.44772 14.5523 4 14 4H12.0155C12.0058 3.99986 11.996 3.99986 11.9863 4ZM17 11C17.3788 11 17.725 11.214 17.8944 11.5528L20.8854 17.5348C20.8919 17.5471 20.8981 17.5596 20.9041 17.5722L22.8944 21.5528C23.1414 22.0468 22.9412 22.6474 22.4472 22.8944C21.9532 23.1414 21.3526 22.9412 21.1056 22.4472L19.382 19H14.618L12.8944 22.4472C12.6474 22.9412 12.0468 23.1414 11.5528 22.8944C11.0588 22.6474 10.8586 22.0468 11.1056 21.5528L13.0959 17.5722C13.1019 17.5596 13.1081 17.5471 13.1146 17.5348L16.1056 11.5528C16.275 11.214 16.6212 11 17 11ZM15.618 17H18.382L17 14.2361L15.618 17Z" fill="currentColor" style="fill="currentColor";fill-opacity:1;"/>
</svg>
