<svg width="24" height="24" viewBox="0 0 24 24" fill="none" xmlns="http://www.w3.org/2000/svg">
<path fill-rule="evenodd" clip-rule="evenodd" d="M12 3C6.83252 3 3 6.34898 3 10V10.0002C2.99979 11.1352 3.33255 12.2432 3.95406 13.1882C4.2856 13.0649 4.63946 13 5 13C5.79565 13 6.55871 13.3161 7.12132 13.8787C7.68393 14.4413 8 15.2044 8 16C8 16.1068 7.9943 16.2131 7.98307 16.3183C9.26095 16.7911 10.6173 17.0229 11.9833 17.0001L12 17C17.1675 17 21 13.651 21 10C21 6.34898 17.1675 3 12 3ZM7.11454 18.1281C6.81718 18.4236 6.46432 18.6505 6.08054 18.7986C6.15033 19.1411 6.26494 19.4742 6.42229 19.7889C6.7 20.3443 7.10322 20.8274 7.6 21.2C8.04183 21.5314 8.13137 22.1582 7.8 22.6C7.46863 23.0418 6.84183 23.1314 6.4 22.8C5.65482 22.2411 5.05 21.5164 4.63344 20.6833C4.34429 20.105 4.15135 19.4855 4.06038 18.8491C3.61909 18.7035 3.21341 18.456 2.87868 18.1213C2.31607 17.5587 2 16.7956 2 16C2 15.4608 2.14514 14.9367 2.41377 14.4797C1.49401 13.1681 0.999743 11.6041 1 10M7.11454 18.1281C8.67294 18.7302 10.3345 19.0269 12.0084 19C17.8375 18.9963 23 15.1465 23 10C23 4.85102 17.8325 1 12 1C6.16755 1 1.00012 4.85092 1 9.99982M5 15C4.73478 15 4.48043 15.1054 4.29289 15.2929C4.10536 15.4804 4 15.7348 4 16C4 16.2652 4.10536 16.5196 4.29289 16.7071C4.48043 16.8946 4.73478 17 5 17C5.26522 17 5.51957 16.8946 5.70711 16.7071C5.89464 16.5196 6 16.2652 6 16C6 15.7348 5.89464 15.4804 5.70711 15.2929C5.51957 15.1054 5.26522 15 5 15Z" fill="currentColor" style="fill="currentColor";fill-opacity:1;"/>
</svg>
