<svg width="24" height="24" viewBox="0 0 24 24" fill="none" xmlns="http://www.w3.org/2000/svg">
<path fill-rule="evenodd" clip-rule="evenodd" d="M10.7553 1.27016C11.146 1.09197 11.5705 0.999756 12 0.999756C12.4293 0.999756 12.8536 1.0919 13.2442 1.26996L21.8298 5.17793C22.1819 5.33467 22.4813 5.58985 22.6919 5.91283C22.9037 6.23774 23.0165 6.61725 23.0165 7.00511C23.0165 7.39298 22.9037 7.77248 22.6919 8.0974C22.4813 8.42046 22.1818 8.67569 21.8295 8.83242L20.3443 9.50752L21.8194 10.1776C22.1717 10.3344 22.4712 10.5896 22.6819 10.9127C22.8937 11.2376 23.0065 11.6171 23.0065 12.005C23.0065 12.3929 22.8937 12.7724 22.6819 13.0973C22.4713 13.4204 22.1717 13.6756 21.8195 13.8323L20.3391 14.5052L21.8194 15.1776C22.1717 15.3344 22.4712 15.5896 22.6819 15.9127C22.8937 16.2376 23.0065 16.6171 23.0065 17.005C23.0065 17.3929 22.8937 17.7724 22.6819 18.0973C22.4712 18.4204 22.1717 18.6756 21.8194 18.8324L13.2425 22.731C12.8537 22.907 12.4318 22.9981 12.005 22.9981C11.5782 22.9981 11.1563 22.907 10.7675 22.731L2.15451 18.8151C1.81092 18.6536 1.52043 18.3975 1.31693 18.077C1.11343 17.7565 1.00537 17.3847 1.00537 17.005C1.00537 16.6253 1.11344 16.2535 1.31693 15.933C1.52043 15.6125 1.81096 15.3565 2.15455 15.195L2.16418 15.1905L3.66788 14.5031L2.15451 13.8151C1.81092 13.6536 1.52043 13.3975 1.31693 13.077C1.11343 12.7565 1.00537 12.3847 1.00537 12.005C1.00537 11.6253 1.11343 11.2535 1.31693 10.933C1.52043 10.6125 1.81096 10.3565 2.15455 10.195L2.16418 10.1905L3.676 9.49942L2.18992 8.8222C1.83788 8.66545 1.53856 8.41031 1.32804 8.0874C1.1162 7.76249 1.00342 7.38298 1.00342 6.99511C1.00342 6.60724 1.1162 6.22774 1.32804 5.90283C1.53861 5.57984 1.83803 5.32465 2.19019 5.16791L10.7553 1.27016C10.7554 1.27011 10.7552 1.2702 10.7553 1.27016ZM6.08501 10.5972L3.00554 12.005L6.44941 13.5707C6.47958 13.5827 6.50917 13.5962 6.53807 13.6111L11.5925 15.909C11.5923 15.909 11.5926 15.9091 11.5925 15.909C11.722 15.9676 11.8628 15.9981 12.005 15.9981C12.1471 15.9981 12.2875 15.9678 12.417 15.9092C12.4169 15.9093 12.4172 15.9092 12.417 15.9092L17.3715 13.6572C17.4513 13.6063 17.5379 13.567 17.6284 13.5405L21.0064 12.005L20.9963 12.0005L17.9272 10.6062L13.255 12.7299C13.2548 12.73 13.2551 12.7299 13.255 12.7299C12.8642 12.9081 12.4394 13.0005 12.01 13.0005C11.5804 13.0005 11.1558 12.9082 10.765 12.7299L6.08501 10.5972ZM17.6549 8.53304C17.546 8.56184 17.4422 8.60887 17.3485 8.67231L12.425 10.9103C12.2947 10.9697 12.1532 11.0005 12.01 11.0005C11.8668 11.0005 11.7252 10.9697 11.595 10.9103L3.01465 7.00015L3.0035 6.99515L11.5842 3.0903C11.7144 3.03087 11.8568 2.99976 12 2.99976C12.1432 2.99976 12.2847 3.03051 12.415 3.08993L21.0057 7.00026L21.0164 7.00508L17.6549 8.53304ZM17.9221 15.6039L13.2425 17.731C12.8537 17.907 12.4318 17.9981 12.005 17.9981C11.5782 17.9981 11.1563 17.907 10.7675 17.731L6.07969 15.5997L3.00554 17.005L11.5925 20.909C11.5923 20.909 11.5926 20.9091 11.5925 20.909C11.722 20.9676 11.8628 20.9981 12.005 20.9981C12.1471 20.9981 12.2875 20.9678 12.417 20.9092C12.4169 20.9093 12.4172 20.9092 12.417 20.9092L21.0064 17.005L20.9963 17.0005L17.9221 15.6039Z" fill="currentColor" style="fill="currentColor";fill-opacity:1;"/>
</svg>
