<svg width="24" height="24" viewBox="0 0 24 24" fill="none" xmlns="http://www.w3.org/2000/svg">
<path fill-rule="evenodd" clip-rule="evenodd" d="M10.7553 1.27016C11.146 1.09197 11.5705 0.999756 12 0.999756C12.4293 0.999756 12.8536 1.0919 13.2442 1.26996L21.8298 5.17793C22.1819 5.33467 22.4813 5.58985 22.6919 5.91283C22.9037 6.23774 23.0165 6.61725 23.0165 7.00511C23.0165 7.39298 22.9037 7.77248 22.6919 8.0974C22.4813 8.42046 22.1818 8.67569 21.8295 8.83242L13.255 12.7299C12.8642 12.9081 12.4394 13.0005 12.01 13.0005C11.5804 13.0005 11.1558 12.9082 10.765 12.7299L2.18993 8.8222C1.83788 8.66545 1.53856 8.41031 1.32804 8.0874C1.1162 7.76249 1.00342 7.38298 1.00342 6.99511C1.00342 6.60724 1.1162 6.22774 1.32804 5.90283C1.53861 5.57984 1.83803 5.32465 2.19019 5.16791L10.7553 1.27016ZM12 2.99976C11.8568 2.99976 11.7152 3.03051 11.585 3.08993L3.0035 6.99515L3.01468 7.00008L11.5946 10.9101C11.7249 10.9696 11.8668 11.0005 12.01 11.0005C12.1532 11.0005 12.2947 10.9697 12.425 10.9103L21.0164 7.00508L21.0057 7.00033L12.4157 3.09026C12.2854 3.03084 12.1432 2.99976 12 2.99976ZM1.08933 12.2368C1.31749 11.7338 1.91018 11.5111 2.41313 11.7392L11.585 15.9001C11.7153 15.9595 11.8568 15.9903 12 15.9903C12.1432 15.9903 12.2847 15.9595 12.415 15.9001L12.4169 15.8992L21.5869 11.7392C22.0898 11.5111 22.6825 11.7338 22.9107 12.2368C23.1388 12.7397 22.9161 13.3324 22.4131 13.5606L13.245 17.7197L13.244 17.7202C12.8534 17.8982 12.4292 17.9903 12 17.9903C11.5708 17.9903 11.1466 17.8982 10.756 17.7202L10.755 17.7197L1.58687 13.5606C1.08392 13.3324 0.861164 12.7397 1.08933 12.2368Z" fill="currentColor" style="fill="currentColor";fill-opacity:1;"/>
<path fill-rule="evenodd" clip-rule="evenodd" d="M1.08118 17.2326C1.30935 16.7296 1.90203 16.5069 2.40498 16.735L11.5769 20.8959C11.7071 20.9553 11.8487 20.986 11.9919 20.986C12.135 20.986 12.2766 20.9553 12.4069 20.8959L12.4087 20.895L21.5787 16.735C22.0817 16.5069 22.6744 16.7296 22.9025 17.2326C23.1307 17.7355 22.9079 18.3282 22.405 18.5564L13.2369 22.7155L13.2358 22.716C12.8453 22.8939 12.4211 22.986 11.9919 22.986C11.5626 22.986 11.1384 22.8939 10.7479 22.716L10.7469 22.7155L1.57872 18.5564C1.07577 18.3282 0.853015 17.7355 1.08118 17.2326Z" fill="currentColor" style="fill="currentColor";fill-opacity:1;"/>
</svg>
