<svg width="24" height="24" viewBox="0 0 24 24" fill="none" xmlns="http://www.w3.org/2000/svg">
<path fill-rule="evenodd" clip-rule="evenodd" d="M2 4C2 2.89543 2.89543 2 4 2H20C21.1046 2 22 2.89543 22 4V9C22 10.1046 21.1046 11 20 11H4C2.89543 11 2 10.1046 2 9V4ZM20 4H4V9H20V4ZM2 15C2 13.8954 2.89543 13 4 13H11C12.1046 13 13 13.8954 13 15V20C13 21.1046 12.1046 22 11 22H4C2.89543 22 2 21.1046 2 20V15ZM11 15H4V20H11V15ZM15 15C15 13.8954 15.8954 13 17 13H20C21.1046 13 22 13.8954 22 15V20C22 21.1046 21.1046 22 20 22H17C15.8954 22 15 21.1046 15 20V15ZM20 15H17V20H20V15Z" fill="black" style="fill:black;fill-opacity:1;"/>
</svg>
