<svg width="24" height="24" viewBox="0 0 24 24" fill="none" xmlns="http://www.w3.org/2000/svg">
<path fill-rule="evenodd" clip-rule="evenodd" d="M2 4C2 2.89543 2.89543 2 4 2H9C10.1046 2 11 2.89543 11 4V9C11 10.1046 10.1046 11 9 11H4C2.89543 11 2 10.1046 2 9V4ZM9 4H4V9H9V4ZM13 4C13 3.44772 13.4477 3 14 3H21C21.5523 3 22 3.44772 22 4C22 4.55228 21.5523 5 21 5H14C13.4477 5 13 4.55228 13 4ZM13 9C13 8.44772 13.4477 8 14 8H21C21.5523 8 22 8.44772 22 9C22 9.55228 21.5523 10 21 10H14C13.4477 10 13 9.55228 13 9ZM2 15C2 13.8954 2.89543 13 4 13H9C10.1046 13 11 13.8954 11 15V20C11 21.1046 10.1046 22 9 22H4C2.89543 22 2 21.1046 2 20V15ZM9 15H4V20H9V15ZM13 15C13 14.4477 13.4477 14 14 14H21C21.5523 14 22 14.4477 22 15C22 15.5523 21.5523 16 21 16H14C13.4477 16 13 15.5523 13 15ZM13 20C13 19.4477 13.4477 19 14 19H21C21.5523 19 22 19.4477 22 20C22 20.5523 21.5523 21 21 21H14C13.4477 21 13 20.5523 13 20Z" fill="currentColor" style="fill="currentColor";fill-opacity:1;"/>
</svg>
