<svg width="24" height="24" viewBox="0 0 24 24" fill="none" xmlns="http://www.w3.org/2000/svg">
<path fill-rule="evenodd" clip-rule="evenodd" d="M19.1073 1.00578C19.4456 1.0423 19.7422 1.2484 19.8944 1.5528C20.9264 3.61681 22 5.95848 22 10C22 16.0696 16.7552 20.999 11.0018 21C11.0012 21 11.0006 21 11 21V20L11.003 21C11.0026 21 11.0022 21 11.0018 21C8.99542 21.0058 7.06014 20.2574 5.5796 18.9033C5.11072 18.4745 4.6983 17.9948 4.34811 17.476C4.79578 17.0177 5.35142 16.6404 6.00972 16.3629C6.27151 16.7497 6.57949 17.1075 6.92939 17.4275C8.04002 18.4433 9.49186 19.0046 10.997 19L11 19C15.6858 19 20 14.9298 20 10C20 7.20994 19.443 5.3698 18.7416 3.78144C19.0929 3.43936 19.4317 3.0576 19.7784 2.62776L19 2.00001L18.1056 2.44722C18.323 2.88215 18.5384 3.32123 18.7416 3.78144C18.0059 4.49783 17.2155 5.04018 16.1839 5.48559C14.7292 6.1137 12.8193 6.53578 9.98947 7.08189L9.96838 7.08573C8.48477 7.33919 7.15061 8.14098 6.23051 9.33208C5.3104 10.5232 4.87155 12.0166 5.00101 13.5161C5.03114 13.8651 5.09154 14.2085 5.18048 14.5428C4.52185 14.8264 3.93247 15.188 3.41858 15.6161C3.20452 14.9975 3.06559 14.3504 3.00842 13.6881C2.83581 11.6888 3.42094 9.69756 4.64775 8.10943C5.8723 6.52421 7.6469 5.45617 9.62066 5.11617C9.61727 5.11682 9.61388 5.11747 9.61049 5.11813L9.79998 6.10001L9.63158 5.11429C9.62794 5.11491 9.6243 5.11554 9.62066 5.11617C12.4846 4.56332 14.1722 4.1757 15.3911 3.64943C16.5419 3.15253 17.2942 2.52224 18.2216 1.37226C18.4352 1.10734 18.7689 0.969267 19.1073 1.00578ZM6.88544 14.0191C6.27518 14.1401 5.7058 14.3166 5.18048 14.5428C5.35331 15.1923 5.63393 15.8076 6.00972 16.3629C6.39623 16.1999 6.81814 16.0713 7.27436 15.9809L7.27456 15.9809C8.60744 15.7165 9.93211 15.1738 11.0455 14.5761C12.151 13.9826 13.1157 13.2985 13.7071 12.7071C14.0976 12.3166 14.0976 11.6834 13.7071 11.2929C13.3166 10.9024 12.6834 10.9024 12.2929 11.2929C11.8843 11.7015 11.099 12.2774 10.0995 12.8139C9.10795 13.3462 7.9727 13.8034 6.88564 14.0191M3.41858 15.6161C3.64615 16.2737 3.95864 16.8991 4.34811 17.476C3.46304 18.3822 3 19.605 3 21C3 21.5523 2.55228 22 2 22C1.44772 22 1 21.5523 1 21C1 18.8138 1.86376 16.9111 3.41858 15.6161Z" fill="currentColor" style="fill="currentColor";fill-opacity:1;"/>
</svg>
