<svg width="24" height="24" viewBox="0 0 24 24" fill="none" xmlns="http://www.w3.org/2000/svg">
<path fill-rule="evenodd" clip-rule="evenodd" d="M1.29289 1.29289C1.68342 0.902369 2.31658 0.902369 2.70711 1.29289L6.99461 5.58039C7.00285 5.58836 7.01095 5.59646 7.01889 5.60468L22.7071 21.2929C23.0976 21.6834 23.0976 22.3166 22.7071 22.7071C22.3166 23.0976 21.6834 23.0976 21.2929 22.7071L6.98184 8.39605C6.99719 8.55274 7.02266 8.70888 7.05834 8.86348C7.22694 9.59408 7.61527 10.2555 8.17109 10.7588C8.18334 10.7699 8.19531 10.7813 8.207 10.7929C8.96324 11.5492 9.72375 12.5203 9.98048 13.8039C10.0888 14.3455 9.73757 14.8723 9.19601 14.9806C8.65445 15.0889 8.12763 14.7377 8.01931 14.1962C7.87724 13.4858 7.44392 12.8615 6.80899 12.2234C5.96081 11.4481 5.36804 10.4333 5.10956 9.3132C4.90017 8.40585 4.91823 7.46444 5.15734 6.57155L1.29289 2.70711C0.902369 2.31658 0.902369 1.68342 1.29289 1.29289ZM11.6883 1.01793C12.9496 0.96172 14.2027 1.2477 15.3147 1.84556C16.4267 2.44343 17.3564 3.33093 18.0051 4.41406C18.6539 5.49719 18.9976 6.73562 19 7.99818L19 8.00001C19 9.4347 18.5167 10.7738 17.5474 11.8644C17.1804 12.2772 16.5484 12.3143 16.1356 11.9474C15.7228 11.5805 15.6856 10.9484 16.0525 10.5356C16.683 9.82639 16.9998 8.9658 17 8.00081C16.9981 7.09934 16.7526 6.21512 16.2894 5.44175C15.826 4.66809 15.1619 4.03416 14.3676 3.60711C13.5733 3.18006 12.6783 2.9758 11.7774 3.01594C10.8764 3.05609 10.0031 3.33916 9.24995 3.83517C8.78871 4.13893 8.16855 4.01126 7.86479 3.55001C7.56103 3.08876 7.6887 2.4686 8.14995 2.16484C9.2044 1.47043 10.427 1.07413 11.6883 1.01793ZM8 18C8 17.4477 8.44772 17 9 17H15C15.5523 17 16 17.4477 16 18C16 18.5523 15.5523 19 15 19H9C8.44772 19 8 18.5523 8 18ZM10 23C9.44772 23 9 22.5523 9 22C9 21.4477 9.44772 21 10 21H14C14.5523 21 15 21.4477 15 22C15 22.5523 14.5523 23 14 23H10Z" fill="currentColor" style="fill="currentColor";fill-opacity:1;"/>
</svg>
