<svg width="24" height="24" viewBox="0 0 24 24" fill="none" xmlns="http://www.w3.org/2000/svg">
<path fill-rule="evenodd" clip-rule="evenodd" d="M16.7071 3.29289C17.0976 3.68342 17.0976 4.31658 16.7071 4.70711L16.4142 5H19C19.7957 5 20.5587 5.31607 21.1213 5.87868C21.6839 6.44129 22 7.20435 22 8V18C22 18.5523 21.5523 19 21 19C20.4477 19 20 18.5523 20 18V8C20 7.73478 19.8946 7.48043 19.7071 7.29289C19.5196 7.10536 19.2652 7 19 7H16.4142L16.7071 7.29289C17.0976 7.68342 17.0976 8.31658 16.7071 8.70711C16.3166 9.09763 15.6834 9.09763 15.2929 8.70711L13.2929 6.70711C12.9024 6.31658 12.9024 5.68342 13.2929 5.29289L15.2929 3.29289C15.6834 2.90237 16.3166 2.90237 16.7071 3.29289ZM2 6C2 5.44772 2.44772 5 3 5H10C10.5523 5 11 5.44772 11 6C11 6.55228 10.5523 7 10 7H3C2.44772 7 2 6.55228 2 6ZM2 12C2 11.4477 2.44772 11 3 11H16C16.5523 11 17 11.4477 17 12C17 12.5523 16.5523 13 16 13H3C2.44772 13 2 12.5523 2 12ZM2 18C2 17.4477 2.44772 17 3 17H16C16.5523 17 17 17.4477 17 18C17 18.5523 16.5523 19 16 19H3C2.44772 19 2 18.5523 2 18Z" fill="currentColor" style="fill="currentColor";fill-opacity:1;"/>
</svg>
