<svg width="24" height="24" viewBox="0 0 24 24" fill="none" xmlns="http://www.w3.org/2000/svg">
<path fill-rule="evenodd" clip-rule="evenodd" d="M2.29289 4.29289C2.68342 3.90237 3.31658 3.90237 3.70711 4.29289L6.20711 6.79289C6.59763 7.18342 6.59763 7.81658 6.20711 8.20711L3.70711 10.7071C3.31658 11.0976 2.68342 11.0976 2.29289 10.7071C1.90237 10.3166 1.90237 9.68342 2.29289 9.29289L4.08579 7.5L2.29289 5.70711C1.90237 5.31658 1.90237 4.68342 2.29289 4.29289ZM9 6C9 5.44772 9.44772 5 10 5H21C21.5523 5 22 5.44772 22 6C22 6.55228 21.5523 7 21 7H10C9.44772 7 9 6.55228 9 6ZM9 12C9 11.4477 9.44772 11 10 11H21C21.5523 11 22 11.4477 22 12C22 12.5523 21.5523 13 21 13H10C9.44772 13 9 12.5523 9 12ZM2.29289 13.2929C2.68342 12.9024 3.31658 12.9024 3.70711 13.2929L6.20711 15.7929C6.59763 16.1834 6.59763 16.8166 6.20711 17.2071L3.70711 19.7071C3.31658 20.0976 2.68342 20.0976 2.29289 19.7071C1.90237 19.3166 1.90237 18.6834 2.29289 18.2929L4.08579 16.5L2.29289 14.7071C1.90237 14.3166 1.90237 13.6834 2.29289 13.2929ZM9 18C9 17.4477 9.44772 17 10 17H21C21.5523 17 22 17.4477 22 18C22 18.5523 21.5523 19 21 19H10C9.44772 19 9 18.5523 9 18Z" fill="currentColor" style="fill="currentColor";fill-opacity:1;"/>
</svg>
