<svg width="24" height="24" viewBox="0 0 24 24" fill="none" xmlns="http://www.w3.org/2000/svg">
<path fill-rule="evenodd" clip-rule="evenodd" d="M3 5C3.55228 5 4 5.44772 4 6V10C4 10.5477 4.45228 11 5 11H8C8.55228 11 9 11.4477 9 12C9 12.5523 8.55228 13 8 13H5C4.64966 13 4.31301 12.9394 4 12.8282V16C4 16.5477 4.45228 17 5 17H8C8.55228 17 9 17.4477 9 18C9 18.5523 8.55228 19 8 19H5C3.34772 19 2 17.6523 2 16V6C2 5.44772 2.44772 5 3 5ZM7 6C7 5.44772 7.44772 5 8 5H21C21.5523 5 22 5.44772 22 6C22 6.55228 21.5523 7 21 7H8C7.44772 7 7 6.55228 7 6ZM12 12C12 11.4477 12.4477 11 13 11H21C21.5523 11 22 11.4477 22 12C22 12.5523 21.5523 13 21 13H13C12.4477 13 12 12.5523 12 12ZM12 18C12 17.4477 12.4477 17 13 17H21C21.5523 17 22 17.4477 22 18C22 18.5523 21.5523 19 21 19H13C12.4477 19 12 18.5523 12 18Z" fill="currentColor" style="fill="currentColor";fill-opacity:1;"/>
</svg>
