<svg width="24" height="24" viewBox="0 0 24 24" fill="none" xmlns="http://www.w3.org/2000/svg">
<path fill-rule="evenodd" clip-rule="evenodd" d="M2 6C2 5.44772 2.44772 5 3 5H16C16.5523 5 17 5.44772 17 6C17 6.55228 16.5523 7 16 7H3C2.44772 7 2 6.55228 2 6ZM14.2929 9.29289C14.6834 8.90237 15.3166 8.90237 15.7071 9.29289L17 10.5858L18.2929 9.29289C18.6834 8.90237 19.3166 8.90237 19.7071 9.29289C20.0976 9.68342 20.0976 10.3166 19.7071 10.7071L18.4142 12L19.7071 13.2929C20.0976 13.6834 20.0976 14.3166 19.7071 14.7071C19.3166 15.0976 18.6834 15.0976 18.2929 14.7071L17 13.4142L15.7071 14.7071C15.3166 15.0976 14.6834 15.0976 14.2929 14.7071C13.9024 14.3166 13.9024 13.6834 14.2929 13.2929L15.5858 12L14.2929 10.7071C13.9024 10.3166 13.9024 9.68342 14.2929 9.29289ZM2 12C2 11.4477 2.44772 11 3 11H11C11.5523 11 12 11.4477 12 12C12 12.5523 11.5523 13 11 13H3C2.44772 13 2 12.5523 2 12ZM2 18C2 17.4477 2.44772 17 3 17H16C16.5523 17 17 17.4477 17 18C17 18.5523 16.5523 19 16 19H3C2.44772 19 2 18.5523 2 18Z" fill="currentColor" style="fill="currentColor";fill-opacity:1;"/>
</svg>
