<svg width="24" height="24" viewBox="0 0 24 24" fill="none" xmlns="http://www.w3.org/2000/svg">
<path fill-rule="evenodd" clip-rule="evenodd" d="M12 1C12.5523 1 13 1.44772 13 2V6C13 6.55228 12.5523 7 12 7C11.4477 7 11 6.55228 11 6V2C11 1.44772 11.4477 1 12 1ZM4.22295 4.22282C4.61347 3.8323 5.24664 3.8323 5.63716 4.22282L8.46716 7.05283C8.85769 7.44335 8.85769 8.07651 8.46716 8.46704C8.07664 8.85756 7.44347 8.85756 7.05295 8.46704L4.22295 5.63704C3.83242 5.24651 3.83242 4.61335 4.22295 4.22282ZM19.7771 4.22282C20.1676 4.61335 20.1676 5.24651 19.7771 5.63704L16.9471 8.46704C16.5566 8.85756 15.9234 8.85756 15.5329 8.46704C15.1424 8.07651 15.1424 7.44335 15.5329 7.05283L18.3629 4.22282C18.7534 3.8323 19.3866 3.8323 19.7771 4.22282ZM1 12C1 11.4477 1.44772 11 2 11H6C6.55228 11 7 11.4477 7 12C7 12.5523 6.55228 13 6 13H2C1.44772 13 1 12.5523 1 12ZM17 12C17 11.4477 17.4477 11 18 11H22C22.5523 11 23 11.4477 23 12C23 12.5523 22.5523 13 22 13H18C17.4477 13 17 12.5523 17 12ZM8.46716 15.5329C8.85769 15.9234 8.85769 16.5566 8.46716 16.9471L5.63716 19.7771C5.24664 20.1676 4.61347 20.1676 4.22295 19.7771C3.83242 19.3866 3.83242 18.7534 4.22295 18.3629L7.05295 15.5329C7.44347 15.1424 8.07664 15.1424 8.46716 15.5329ZM15.5329 15.5329C15.9234 15.1424 16.5566 15.1424 16.9471 15.5329L19.7771 18.3629C20.1676 18.7534 20.1676 19.3866 19.7771 19.7771C19.3866 20.1676 18.7534 20.1676 18.3629 19.7771L15.5329 16.9471C15.1424 16.5566 15.1424 15.9234 15.5329 15.5329ZM12 17C12.5523 17 13 17.4477 13 18V22C13 22.5523 12.5523 23 12 23C11.4477 23 11 22.5523 11 22V18C11 17.4477 11.4477 17 12 17Z" fill="currentColor" style="fill="currentColor";fill-opacity:1;"/>
</svg>
