<svg width="24" height="24" viewBox="0 0 24 24" fill="none" xmlns="http://www.w3.org/2000/svg">
<path fill-rule="evenodd" clip-rule="evenodd" d="M11 4C7.13401 4 4 7.13401 4 11C4 14.866 7.13401 18 11 18C11.3406 18 11.6755 17.9757 12.0031 17.9287C10.5151 17.7146 9.12572 17.0252 8.05025 15.9497C6.7375 14.637 6 12.8565 6 11C6 9.67392 6.52678 8.40215 7.46447 7.46447C8.40215 6.52678 9.67392 6 11 6C12.3261 6 13.5979 6.52678 14.5355 7.46447C15.4732 8.40215 16 9.67392 16 11C16 11.7957 15.6839 12.5587 15.1213 13.1213C14.5587 13.6839 13.7957 14 13 14C12.2043 14 11.4413 13.6839 10.8787 13.1213C10.3161 12.5587 10 11.7957 10 11C10 10.4477 10.4477 10 11 10C11.5523 10 12 10.4477 12 11C12 11.2652 12.1054 11.5196 12.2929 11.7071C12.4804 11.8946 12.7348 12 13 12C13.2652 12 13.5196 11.8946 13.7071 11.7071C13.8946 11.5196 14 11.2652 14 11C14 10.2044 13.6839 9.44129 13.1213 8.87868C12.5587 8.31607 11.7956 8 11 8C10.2044 8 9.44129 8.31607 8.87868 8.87868C8.31607 9.44129 8 10.2044 8 11C8 12.3261 8.52678 13.5979 9.46447 14.5355C10.4021 15.4732 11.6739 16 13 16C14.3261 16 15.5979 15.4732 16.5355 14.5355C17.4732 13.5979 18 12.3261 18 11C18 7.13401 14.866 4 11 4ZM16.6177 18.0319C15.078 19.2635 13.125 20 11 20C6.02944 20 2 15.9706 2 11C2 6.02944 6.02944 2 11 2C15.9706 2 20 6.02944 20 11C20 13.125 19.2635 15.078 18.0319 16.6177L21.7071 20.2928C22.0976 20.6834 22.0976 21.3165 21.7071 21.7071C21.3165 22.0976 20.6834 22.0976 20.2928 21.7071L16.6177 18.0319Z" fill="currentColor" style="fill="currentColor";fill-opacity:1;"/>
</svg>
