<svg width="24" height="24" viewBox="0 0 24 24" fill="none" xmlns="http://www.w3.org/2000/svg">
<path fill-rule="evenodd" clip-rule="evenodd" d="M9.43748 4.9568L6.40874 7.99452L9.00873 10.5945L11.6846 7.93125C11.7153 7.9007 11.7479 7.87217 11.7823 7.84586C12.3867 7.38334 13.1385 7.15609 13.8979 7.20637C14.6574 7.25665 15.3727 7.58104 15.9108 8.1192C16.449 8.65736 16.7734 9.37266 16.8236 10.1321C16.8739 10.8915 16.6467 11.6433 16.1842 12.2477C16.1569 12.2834 16.1272 12.3171 16.0954 12.3488L13.4229 15.0087L15.9945 17.5803L19.0223 14.5436C20.1693 13.2528 20.7816 11.5731 20.734 9.84635C20.6862 8.11093 19.9754 6.45975 18.7479 5.23216C17.5203 4.00456 15.8691 3.29382 14.1337 3.24599C12.4074 3.19841 10.7281 3.8104 9.43748 4.9568ZM16.7832 19.6219L20.4582 15.9361C20.4708 15.9234 20.4831 15.9104 20.495 15.8971C21.9942 14.2228 22.7952 12.0378 22.7333 9.79125C22.6713 7.54466 21.7512 5.40712 20.1621 3.81794C18.5729 2.22876 16.4354 1.30867 14.1888 1.24675C11.9422 1.18483 9.75721 1.9858 8.08291 3.48503C8.06886 3.49762 8.05517 3.5106 8.04185 3.52395L1.29185 10.294C0.90231 10.6846 0.902777 11.317 1.29289 11.7071L5.29289 15.7071C5.68277 16.097 6.31465 16.0977 6.70544 15.7088L13.0421 9.40186C13.2534 9.25574 13.5084 9.18496 13.7658 9.202C14.0415 9.22026 14.3012 9.33803 14.4966 9.53341C14.692 9.7288 14.8098 9.98849 14.828 10.2642C14.845 10.5209 14.7746 10.7753 14.6293 10.9862L11.4022 14.1982C11.3641 14.2267 11.3275 14.2583 11.2929 14.2929C11.2594 14.3264 11.2288 14.3617 11.201 14.3984L8.29456 17.2912C8.10629 17.4786 8.00031 17.7332 8 17.9988C7.99969 18.2645 8.10507 18.5193 8.29289 18.7071L12.2929 22.7071C12.4806 22.8948 12.7353 23.0002 13.0007 23C13.2662 22.9998 13.5207 22.8941 13.7082 22.7061L16.6242 19.7813C16.6529 19.7584 16.6806 19.7337 16.7071 19.7071C16.7344 19.6798 16.7597 19.6514 16.7832 19.6219ZM14.5824 18.9966L12.0054 16.4196L10.4159 18.0017L12.999 20.5848L14.5824 18.9966ZM7.59119 12.0054L4.99662 9.41083L3.41317 10.999L6.00166 13.5875L7.59119 12.0054Z" fill="currentColor" style="fill="currentColor";fill-opacity:1;"/>
</svg>
