<svg width="24" height="24" viewBox="0 0 24 24" fill="none" xmlns="http://www.w3.org/2000/svg">
<path fill-rule="evenodd" clip-rule="evenodd" d="M1.87868 3.87868C2.44129 3.31607 3.20436 3 4 3H20C20.7957 3 21.5587 3.31607 22.1213 3.87868C22.6839 4.44129 23 5.20435 23 6V6.98317C23.0002 6.99377 23.0002 7.00436 23 7.01495V13C23 13.5523 22.5523 14 22 14C21.4477 14 21 13.5523 21 13V8.82027L13.5609 13.5474C13.0931 13.8406 12.5521 13.996 12 13.996C11.4479 13.996 10.9069 13.8405 10.4391 13.5474L10.4337 13.544L3 8.82027V18C3 18.5477 3.45229 19 4 19H12C12.5523 19 13 19.4477 13 20C13 20.5523 12.5523 21 12 21H4C2.34772 21 1 19.6523 1 18V7.01499C0.999836 7.00437 0.999836 6.99375 1 6.98313V6C1 5.20435 1.31608 4.44129 1.87868 3.87868ZM3 6.45063L11.5032 11.854C11.6522 11.9468 11.8244 11.996 12 11.996C12.1757 11.996 12.3478 11.9468 12.4968 11.854C12.4976 11.8535 12.4983 11.853 12.4991 11.8526L21 6.45063V6C21 5.73478 20.8946 5.48043 20.7071 5.29289C20.5196 5.10536 20.2652 5 20 5H4C3.73479 5 3.48043 5.10536 3.2929 5.29289C3.10536 5.48043 3 5.73478 3 6V6.45063ZM22.7071 16.2929C23.0976 16.6834 23.0976 17.3166 22.7071 17.7071L18.7071 21.7071C18.3166 22.0976 17.6834 22.0976 17.2929 21.7071L15.2929 19.7071C14.9024 19.3166 14.9024 18.6834 15.2929 18.2929C15.6834 17.9024 16.3166 17.9024 16.7071 18.2929L18 19.5858L21.2929 16.2929C21.6834 15.9024 22.3166 15.9024 22.7071 16.2929Z" fill="currentColor" style="fill="currentColor";fill-opacity:1;"/>
</svg>
