<svg width="24" height="24" viewBox="0 0 24 24" fill="none" xmlns="http://www.w3.org/2000/svg">
<g clip-path="url(#clip0_168_1508)">
<path d="M22 22C21.74 22 21.49 21.9 21.29 21.71L20.03 20.45C19.43 20.8 18.73 20.99 17.99 21C16.93 21 15.93 20.58 15.18 19.83C14.43 19.08 14.01 18.08 14.01 17.02V17C14.01 16.22 14.23 15.49 14.62 14.88C14.78 14.62 14.97 14.38 15.19 14.17C15.94 13.42 16.94 13 18 13H18.02C18.85 13 19.61 13.25 20.25 13.68C20.46 13.82 20.66 13.99 20.85 14.17C21.03 14.35 21.18 14.54 21.32 14.74C21.76 15.38 22.02 16.16 22.02 17V17.02C22.02 17.75 21.82 18.43 21.47 19.03L22.73 20.29C23.12 20.68 23.12 21.31 22.73 21.7C22.53 21.9 22.28 21.99 22.02 21.99L22 22ZM18 19C18.36 19 18.72 18.9 19.03 18.71C19.61 18.36 20 17.73 20 17.01C20 16.59 19.87 16.19 19.64 15.86C19.5 15.66 19.32 15.48 19.11 15.34C18.78 15.12 18.39 15 18 15C17.64 15 17.29 15.1 16.99 15.28C16.69 15.45 16.45 15.7 16.27 16C16.1 16.3 16 16.65 16 17C16 17.78 16.44 18.44 17.07 18.78C17.35 18.93 17.67 19.01 17.99 19.01L18 19ZM11.5 20H4C2.35 20 1 18.65 1 17V5C1 4.2 1.31 3.44 1.88 2.88C2.45 2.31 3.2 2 4 2H20C20.8 2 21.55 2.31 22.12 2.88C22.69 3.45 23 4.2 23 5V11.5C23 12.05 22.55 12.5 22 12.5C21.45 12.5 21 12.05 21 11.5V7.82L13.57 12.54C12.62 13.13 11.38 13.13 10.44 12.54L3 7.82V17C3 17.55 3.45 18 4 18H11.5C12.05 18 12.5 18.45 12.5 19C12.5 19.55 12.05 20 11.5 20ZM3 5.45L11.51 10.85C11.8 11.03 12.2 11.03 12.5 10.85L21 5.45V5C21 4.73 20.9 4.48 20.71 4.29C20.52 4.1 20.27 4 20 4H4C3.73 4 3.48 4.1 3.29 4.29C3.1 4.48 3 4.73 3 5V5.45Z" fill="currentColor" style="fill="currentColor";fill-opacity:1;"/>
</g>
<defs>
<clipPath id="clip0_168_1508">
<rect width="22" height="20" fill="white" style="fill:white;fill-opacity:1;" transform="translate(1 2)"/>
</clipPath>
</defs>
</svg>
