<svg width="24" height="24" viewBox="0 0 24 24" fill="none" xmlns="http://www.w3.org/2000/svg">
<path fill-rule="evenodd" clip-rule="evenodd" d="M12 3C10.6739 3 9.40214 3.52678 8.46446 4.46447C7.52678 5.40215 6.99999 6.67392 6.99999 8C6.99999 9.85497 8.27047 11.8616 9.7474 13.5231C10.4624 14.3275 11.1805 15.0011 11.721 15.474C11.8207 15.5612 11.9141 15.6414 12 15.7141C12.0859 15.6414 12.1793 15.5612 12.279 15.474C12.8195 15.0011 13.5376 14.3275 14.2526 13.5231C15.7295 11.8616 17 9.85497 17 8C17 6.67392 16.4732 5.40215 15.5355 4.46447C14.5978 3.52678 13.3261 3 12 3ZM12 17C11.4 17.8 11.3998 17.7998 11.3996 17.7997L11.3926 17.7944L11.3766 17.7823C11.3632 17.7721 11.3442 17.7575 11.32 17.7388C11.2717 17.7013 11.2026 17.6472 11.1158 17.5774C10.9422 17.4378 10.697 17.2355 10.404 16.9791C9.85246 16.4965 9.12524 15.817 8.38549 15H5.05392L5.04868 15.0162L3.05409 21H20.9459L18.9513 15.0162L18.9461 15H15.6145C14.8748 15.817 14.1475 16.4965 13.596 16.9791C13.303 17.2355 13.0578 17.4378 12.8842 17.5774C12.7973 17.6472 12.7283 17.7013 12.6799 17.7388C12.6558 17.7575 12.6368 17.7721 12.6233 17.7823L12.6074 17.7944L12.601 17.7992C12.6008 17.7994 12.6 17.8 12 17ZM17.2013 13C18.1959 11.5366 19 9.80357 19 8C19 6.14349 18.2625 4.36301 16.9497 3.05025C15.637 1.7375 13.8565 1 12 1C10.1435 1 8.363 1.7375 7.05025 3.05025C5.73749 4.36301 4.99999 6.14348 4.99999 8C4.99999 9.80357 5.80414 11.5366 6.79864 13H4.99999C4.98185 13 4.96371 13.0005 4.94559 13.0015C4.53866 13.0237 4.14821 13.1696 3.82652 13.4198C3.5077 13.6678 3.27149 14.0064 3.14887 14.3911L1.20191 20.232C0.997763 20.5583 0.999389 20.8771 0.999945 20.9861C0.999971 20.9912 0.999995 20.9958 0.999995 21C0.999995 21.5272 1.18011 22.0443 1.56789 22.4321C1.95567 22.8199 2.47275 23 2.99999 23H21C21.5272 23 22.0443 22.8199 22.4321 22.4321C22.8199 22.0443 23 21.5272 23 21C23 20.9958 23 20.9912 23 20.9861C23.0006 20.8771 23.0022 20.5583 22.7981 20.232L20.8511 14.3911C20.7285 14.0064 20.4923 13.6678 20.1735 13.4198C19.8518 13.1696 19.4613 13.0237 19.0544 13.0015C19.0363 13.0005 19.0181 13 19 13H17.2013ZM20.9996 20.9729C20.9996 20.9728 20.9997 20.9746 20.9998 20.9784L20.9996 20.9729ZM3.00042 20.9729C3.00044 20.973 3.0004 20.9749 3.00021 20.9784L3.00042 20.9729ZM12 17L12.6 17.8C12.2444 18.0667 11.7551 18.0663 11.3996 17.7997L12 17ZM12 7C11.4477 7 11 7.44772 11 8C11 8.55228 11.4477 9 12 9C12.5523 9 13 8.55228 13 8C13 7.44772 12.5523 7 12 7ZM9 8C9 6.34315 10.3431 5 12 5C13.6568 5 15 6.34315 15 8C15 9.65685 13.6568 11 12 11C10.3431 11 9 9.65685 9 8Z" fill="currentColor" style="fill="currentColor";fill-opacity:1;"/>
</svg>
