<svg width="24" height="24" viewBox="0 0 24 24" fill="none" xmlns="http://www.w3.org/2000/svg">
<path fill-rule="evenodd" clip-rule="evenodd" d="M4.08938 2.58678C4.25152 2.22947 4.60764 2 5.00002 2H19C19.3924 2 19.7485 2.22947 19.9106 2.58678C20.0728 2.9441 20.011 3.36321 19.7526 3.6585L13 11.3757V21H16C16.5523 21 17 21.4477 17 22C17 22.5523 16.5523 23 16 23H8.00002C7.44773 23 7.00002 22.5523 7.00002 22C7.00002 21.4477 7.44773 21 8.00002 21H11V11.3757L4.24744 3.6585C3.98906 3.36321 3.92725 2.9441 4.08938 2.58678ZM12 9.48141L16.7962 4H7.20378L12 9.48141Z" fill="currentColor" style="fill="currentColor";fill-opacity:1;"/>
</svg>
