<svg width="24" height="24" viewBox="0 0 24 24" fill="none" xmlns="http://www.w3.org/2000/svg">
<path fill-rule="evenodd" clip-rule="evenodd" d="M4.77856 1.25989C4.71947 1.28144 4.66156 1.30889 4.60562 1.34246C4.60054 1.34551 4.5955 1.34859 4.59049 1.35171C4.20264 1.55814 3.86457 1.8474 3.60048 2.19931C3.6003 2.19954 3.60065 2.19907 3.60048 2.19931L1.99085 4.33881L1.98938 4.34077C1.63722 4.81126 1.43101 5.37483 1.39634 5.96149C1.36167 6.54816 1.50008 7.13208 1.79438 7.64077L6.23883 15.3184C6.08336 15.852 6 16.4163 6 17C6 20.3137 8.68629 23 12 23C15.3137 23 18 20.3137 18 17C18 16.4162 17.9166 15.8519 17.7611 15.3183L22.2054 7.64099L22.2077 7.63701C22.4999 7.12688 22.6357 6.54215 22.5984 5.95546C22.5611 5.36975 22.3529 4.80785 21.9995 4.33934C21.9989 4.33856 21.9983 4.33778 21.9977 4.33701L20.4009 2.2012L20.4 2.2C20.1361 1.8482 19.7983 1.55896 19.4108 1.35245C19.4054 1.34908 19.4 1.34575 19.3945 1.34246C19.3382 1.30868 19.2799 1.28109 19.2204 1.25949C18.8368 1.08861 18.421 1 18 1H5.99996C5.57861 1 5.1625 1.08875 4.77856 1.25989ZM17.2338 3H6.76634L8.56634 6H15.4338L17.2338 3ZM16.8483 7.52979C16.8549 7.51918 16.8614 7.50843 16.8676 7.49756L19.0919 3.79046L20.3991 5.5388L20.4022 5.54299C20.5204 5.69932 20.59 5.88691 20.6024 6.08248C20.6148 6.27738 20.5699 6.47164 20.4732 6.64127C20.4729 6.64185 20.4725 6.64242 20.4722 6.64299L16.6628 13.2237C16.0733 12.4967 15.3172 11.9103 14.4526 11.5226L16.8483 7.52979ZM14.2338 8H9.76634L11.5752 11.0148C11.7155 11.005 11.8572 11 12 11C12.1429 11 12.2845 11.005 12.4249 11.0148L14.2338 8ZM9.54746 11.5225L7.15423 7.53379C7.14586 7.52055 7.13779 7.5071 7.13003 7.49345L4.90733 3.78896L3.59054 5.53923C3.59033 5.53951 3.59012 5.53978 3.58991 5.54006C3.47291 5.69672 3.40439 5.88426 3.39286 6.07947C3.3813 6.27495 3.4274 6.46952 3.52543 6.63904C3.52539 6.63898 3.52546 6.6391 3.52543 6.63904L7.33717 13.2237C7.9267 12.4967 8.68283 11.9102 9.54746 11.5225ZM12 13C9.79086 13 8 14.7909 8 17C8 19.2091 9.79086 21 12 21C14.2091 21 16 19.2091 16 17C16 14.7909 14.2091 13 12 13ZM10.5 16C10.5 15.4477 10.9477 15 11.5 15H12C12.5523 15 13 15.4477 13 16V18C13 18.5523 12.5523 19 12 19C11.4477 19 11 18.5523 11 18V16.8662C10.7011 16.6933 10.5 16.3701 10.5 16Z" fill="black" style="fill:black;fill-opacity:1;"/>
</svg>
