<svg width="24" height="24" viewBox="0 0 24 24" fill="none" xmlns="http://www.w3.org/2000/svg">
<path fill-rule="evenodd" clip-rule="evenodd" d="M1.29289 1.29289C1.68342 0.902369 2.31658 0.902369 2.70711 1.29289L9.95478 8.54057C9.96358 8.54905 9.97224 8.55771 9.98074 8.56653L17.8356 16.4213C17.8429 16.4285 17.8502 16.4358 17.8573 16.4431L22.7071 21.2929C23.0976 21.6834 23.0976 22.3166 22.7071 22.7071C22.3166 23.0976 21.6834 23.0976 21.2929 22.7071L16.6389 18.0531L12.5418 17.1433C12.3994 17.6216 12.1689 18.0694 11.8619 18.4634C11.5384 18.8787 11.1363 19.2261 10.6785 19.4859C10.2207 19.7458 9.71624 19.9129 9.19387 19.9777C8.6715 20.0426 8.14147 20.0039 7.63404 19.8639C7.12662 19.724 6.65173 19.4854 6.2365 19.1619C5.82126 18.8384 5.47382 18.4363 5.21399 17.9785C4.95417 17.5207 4.78705 17.0162 4.7222 16.4938C4.67737 16.1328 4.68199 15.7681 4.73534 15.4097L2.78322 14.9762C2.32561 14.8746 2 14.4688 2 14V11C2 10.5509 2.29946 10.1568 2.7322 10.0365L7.34122 8.75543L1.29289 2.70711C0.902369 2.31658 0.902369 1.68342 1.29289 1.29289ZM8.96555 10.3798L4 11.76V13.1977L14.0053 15.4195L8.96555 10.3798ZM6.6976 15.8455C6.68729 15.9791 6.69036 16.1138 6.70695 16.2474C6.73945 16.5091 6.82318 16.7619 6.95336 16.9913C7.08354 17.2206 7.25763 17.4221 7.46568 17.5842C7.67373 17.7463 7.91166 17.8658 8.1659 17.936C8.42014 18.0061 8.6857 18.0255 8.94743 17.993C9.20916 17.9605 9.46192 17.8767 9.69129 17.7466C9.92066 17.6164 10.1221 17.4423 10.2842 17.2342C10.4089 17.0743 10.5083 16.8966 10.5795 16.7075L6.6976 15.8455ZM21.6051 5.20389C21.8539 5.39299 21.9999 5.68751 21.9999 6V15.34C21.9999 15.8923 21.5522 16.34 20.9999 16.34C20.4477 16.34 19.9999 15.8923 19.9999 15.34V7.31554L13.9575 8.99354C13.4254 9.14131 12.8742 8.82972 12.7264 8.29758C12.5786 7.76543 12.8902 7.21424 13.4224 7.06646L20.7324 5.03646C21.0335 4.95285 21.3563 5.01479 21.6051 5.20389Z" fill="currentColor" style="fill="currentColor";fill-opacity:1;"/>
</svg>
