<svg width="24" height="24" viewBox="0 0 24 24" fill="none" xmlns="http://www.w3.org/2000/svg">
<path fill-rule="evenodd" clip-rule="evenodd" d="M5 4C4.73478 4 4.48043 4.10536 4.29289 4.29289C4.10536 4.48043 4 4.73478 4 5V18.5858L6.29289 16.2929C6.48043 16.1054 6.73478 16 7 16H19C19.2652 16 19.5196 15.8946 19.7071 15.7071C19.8946 15.5196 20 15.2652 20 15V5C20 4.73478 19.8946 4.48043 19.7071 4.29289C19.5196 4.10536 19.2652 4 19 4H5ZM2.87868 2.87868C3.44129 2.31607 4.20435 2 5 2H19C19.7957 2 20.5587 2.31607 21.1213 2.87868C21.6839 3.44129 22 4.20435 22 5V15C22 15.7957 21.6839 16.5587 21.1213 17.1213C20.5587 17.6839 19.7957 18 19 18H7.41421L3.70711 21.7071C3.42111 21.9931 2.99099 22.0787 2.61732 21.9239C2.24364 21.7691 2 21.4045 2 21V5C2 4.20435 2.31607 3.44129 2.87868 2.87868ZM10.7071 7.29289C11.0976 7.68342 11.0976 8.31658 10.7071 8.70711L9.41421 10L10.7071 11.2929C11.0976 11.6834 11.0976 12.3166 10.7071 12.7071C10.3166 13.0976 9.68342 13.0976 9.29289 12.7071L7.29289 10.7071C6.90237 10.3166 6.90237 9.68342 7.29289 9.29289L9.29289 7.29289C9.68342 6.90237 10.3166 6.90237 10.7071 7.29289ZM13.2929 7.29289C13.6834 6.90237 14.3166 6.90237 14.7071 7.29289L16.7071 9.29289C17.0976 9.68342 17.0976 10.3166 16.7071 10.7071L14.7071 12.7071C14.3166 13.0976 13.6834 13.0976 13.2929 12.7071C12.9024 12.3166 12.9024 11.6834 13.2929 11.2929L14.5858 10L13.2929 8.70711C12.9024 8.31658 12.9024 7.68342 13.2929 7.29289Z" fill="currentColor" style="fill="currentColor";fill-opacity:1;"/>
</svg>
