<svg width="24" height="24" viewBox="0 0 24 24" fill="none" xmlns="http://www.w3.org/2000/svg">
<path fill-rule="evenodd" clip-rule="evenodd" d="M5 4C4.73478 4 4.48043 4.10536 4.29289 4.29289C4.10536 4.48043 4 4.73478 4 5V18.5858L6.29289 16.2929C6.48043 16.1054 6.73478 16 7 16H19C19.2652 16 19.5196 15.8946 19.7071 15.7071C19.8946 15.5196 20 15.2652 20 15V5C20 4.73478 19.8946 4.48043 19.7071 4.29289C19.5196 4.10536 19.2652 4 19 4H5ZM2.87868 2.87868C3.44129 2.31607 4.20435 2 5 2H19C19.7957 2 20.5587 2.31607 21.1213 2.87868C21.6839 3.44129 22 4.20435 22 5V15C22 15.7957 21.6839 16.5587 21.1213 17.1213C20.5587 17.6839 19.7957 18 19 18H7.41421L3.70711 21.7071C3.42111 21.9931 2.99099 22.0787 2.61732 21.9239C2.24364 21.7691 2 21.4045 2 21V5C2 4.20435 2.31607 3.44129 2.87868 2.87868ZM7 8C7 7.44772 7.44772 7 8 7H10C10.5523 7 11 7.44772 11 8V10C11 10.7957 10.6839 11.5587 10.1213 12.1213C9.55871 12.6839 8.79565 13 8 13C7.44772 13 7 12.5523 7 12C7 11.4477 7.44772 11 8 11C8.26522 11 8.51957 10.8946 8.70711 10.7071C8.89464 10.5196 9 10.2652 9 10V9H8C7.44772 9 7 8.55228 7 8ZM13 8C13 7.44772 13.4477 7 14 7H16C16.5523 7 17 7.44772 17 8V10C17 10.7957 16.6839 11.5587 16.1213 12.1213C15.5587 12.6839 14.7957 13 14 13C13.4477 13 13 12.5523 13 12C13 11.4477 13.4477 11 14 11C14.2652 11 14.5196 10.8946 14.7071 10.7071C14.8946 10.5196 15 10.2652 15 10V9H14C13.4477 9 13 8.55228 13 8Z" fill="currentColor" style="fill="currentColor";fill-opacity:1;"/>
</svg>
