<svg width="24" height="24" viewBox="0 0 24 24" fill="none" xmlns="http://www.w3.org/2000/svg">
<path fill-rule="evenodd" clip-rule="evenodd" d="M5 4C4.45228 4 4 4.45228 4 5V6C4 6.55228 3.55228 7 3 7C2.44772 7 2 6.55228 2 6V5C2 3.34772 3.34772 2 5 2H7C7.55228 2 8 2.44772 8 3C8 3.55228 7.55228 4 7 4H5ZM10 3C10 2.44772 10.4477 2 11 2H14C14.5523 2 15 2.44772 15 3C15 3.55228 14.5523 4 14 4H11C10.4477 4 10 3.55228 10 3ZM17 3C17 2.44772 17.4477 2 18 2H19C20.6523 2 22 3.34772 22 5C22 5.55228 21.5523 6 21 6C20.4477 6 20 5.55228 20 5C20 4.45228 19.5477 4 19 4H18C17.4477 4 17 3.55228 17 3ZM21 8C21.5523 8 22 8.44772 22 9V11C22 11.5523 21.5523 12 21 12C20.4477 12 20 11.5523 20 11V9C20 8.44772 20.4477 8 21 8ZM3 9C3.55228 9 4 9.44772 4 10V12C4 12.5523 3.55228 13 3 13C2.44772 13 2 12.5523 2 12V10C2 9.44772 2.44772 9 3 9ZM21 14C21.5523 14 22 14.4477 22 15C22 16.6523 20.6523 18 19 18H18C17.4477 18 17 17.5523 17 17C17 16.4477 17.4477 16 18 16H19C19.5477 16 20 15.5477 20 15C20 14.4477 20.4477 14 21 14ZM3 15C3.55228 15 4 15.4477 4 16V18.5858L6.29289 16.2929C6.68342 15.9024 7.31658 15.9024 7.70711 16.2929C8.09763 16.6834 8.09763 17.3166 7.70711 17.7071L3.70711 21.7071C3.42111 21.9931 2.99099 22.0787 2.61732 21.9239C2.24364 21.7691 2 21.4045 2 21V16C2 15.4477 2.44772 15 3 15ZM10 17C10 16.4477 10.4477 16 11 16H14C14.5523 16 15 16.4477 15 17C15 17.5523 14.5523 18 14 18H11C10.4477 18 10 17.5523 10 17Z" fill="black" style="fill:black;fill-opacity:1;"/>
</svg>
