<svg width="24" height="24" viewBox="0 0 24 24" fill="none" xmlns="http://www.w3.org/2000/svg">
<path fill-rule="evenodd" clip-rule="evenodd" d="M5 4C4.73478 4 4.48043 4.10536 4.29289 4.29289C4.10536 4.48043 4 4.73478 4 5V18.5858L6.29289 16.2929C6.48043 16.1054 6.73478 16 7 16H19C19.2652 16 19.5196 15.8946 19.7071 15.7071C19.8946 15.5196 20 15.2652 20 15V5C20 4.73478 19.8946 4.48043 19.7071 4.29289C19.5196 4.10536 19.2652 4 19 4H5ZM2.87868 2.87868C3.44129 2.31607 4.20435 2 5 2H19C19.7957 2 20.5587 2.31607 21.1213 2.87868C21.6839 3.44129 22 4.20435 22 5V15C22 15.7957 21.6839 16.5587 21.1213 17.1213C20.5587 17.6839 19.7957 18 19 18H7.41421L3.70711 21.7071C3.42111 21.9931 2.99099 22.0787 2.61732 21.9239C2.24364 21.7691 2 21.4045 2 21V5C2 4.20435 2.31607 3.44129 2.87868 2.87868ZM7 10C7 9.44772 7.44772 9 8 9H8.01C8.56228 9 9.01 9.44772 9.01 10C9.01 10.5523 8.56228 11 8.01 11H8C7.44772 11 7 10.5523 7 10ZM11 10C11 9.44772 11.4477 9 12 9H12.01C12.5623 9 13.01 9.44772 13.01 10C13.01 10.5523 12.5623 11 12.01 11H12C11.4477 11 11 10.5523 11 10ZM15 10C15 9.44772 15.4477 9 16 9H16.01C16.5623 9 17.01 9.44772 17.01 10C17.01 10.5523 16.5623 11 16.01 11H16C15.4477 11 15 10.5523 15 10Z" fill="black" style="fill:black;fill-opacity:1;"/>
</svg>
