<svg width="24" height="24" viewBox="0 0 24 24" fill="none" xmlns="http://www.w3.org/2000/svg">
<path fill-rule="evenodd" clip-rule="evenodd" d="M5 4C4.73478 4 4.48043 4.10536 4.29289 4.29289C4.10536 4.48043 4 4.73478 4 5V18.5858L6.29289 16.2929C6.48043 16.1054 6.73478 16 7 16H19C19.2652 16 19.5196 15.8946 19.7071 15.7071C19.8946 15.5196 20 15.2652 20 15V5C20 4.73478 19.8946 4.48043 19.7071 4.29289C19.5196 4.10536 19.2652 4 19 4H5ZM2.87868 2.87868C3.44129 2.31607 4.20435 2 5 2H19C19.7957 2 20.5587 2.31607 21.1213 2.87868C21.6839 3.44129 22 4.20435 22 5V15C22 15.7957 21.6839 16.5587 21.1213 17.1213C20.5587 17.6839 19.7957 18 19 18H7.41421L3.70711 21.7071C3.42111 21.9931 2.99099 22.0787 2.61732 21.9239C2.24364 21.7691 2 21.4045 2 21V5C2 4.20435 2.31607 3.44129 2.87868 2.87868ZM11.9251 6.43888C12.3881 6.1303 12.9354 5.96216 13.5 5.96216C14.2524 5.96216 14.9741 6.26073 15.5066 6.79231L15.5071 6.7929C16.5977 7.88342 16.6977 9.71659 15.4071 11.0071L12.7071 13.7071C12.3166 14.0976 11.6835 14.0976 11.2929 13.7071L8.61715 11.0313C8.34809 10.7936 8.12636 10.507 7.96382 10.1866C7.79486 9.85357 7.69315 9.49049 7.6645 9.11812C7.63586 8.74575 7.68084 8.37139 7.79688 8.01641C7.91291 7.66143 8.09773 7.33277 8.34078 7.04921C8.58383 6.76566 8.88035 6.53275 9.21341 6.36379C9.54647 6.19482 9.90955 6.09312 10.2819 6.06447C10.6543 6.03583 11.0286 6.08081 11.3836 6.19685C11.5725 6.25858 11.7539 6.33979 11.9251 6.43888ZM11.0253 8.23952C10.9468 8.17708 10.8577 8.12908 10.7622 8.09786C10.6569 8.06343 10.5458 8.05008 10.4353 8.05858C10.3248 8.06708 10.2171 8.09726 10.1182 8.1474C10.0194 8.19754 9.93142 8.26665 9.85929 8.3508C9.78717 8.43494 9.73233 8.53247 9.69789 8.63781C9.66346 8.74315 9.65011 8.85424 9.65861 8.96473C9.66711 9.07523 9.69729 9.18297 9.74743 9.2818C9.79757 9.38064 9.86669 9.46863 9.95083 9.54075C9.97026 9.55741 9.98905 9.5748 10.0071 9.5929L12 11.5858L13.9929 9.5929C14.5022 9.08366 14.4025 8.51712 14.0934 8.20755C13.9359 8.05041 13.7225 7.96216 13.5 7.96216C13.3044 7.96216 13.1158 8.03039 12.9661 8.15369L12.8321 8.35471C12.6659 8.60398 12.3967 8.76562 12.0986 8.79514C11.8004 8.82466 11.5048 8.71896 11.2929 8.50711L11.0253 8.23952Z" fill="currentColor" style="fill="currentColor";fill-opacity:1;"/>
</svg>
