<svg width="24" height="24" viewBox="0 0 24 24" fill="none" xmlns="http://www.w3.org/2000/svg">
<path fill-rule="evenodd" clip-rule="evenodd" d="M1.29292 1.29289C1.68344 0.902369 2.31661 0.902369 2.70713 1.29289L22.7071 21.2929C23.0977 21.6834 23.0977 22.3166 22.7071 22.7071C22.3166 23.0976 21.6834 23.0976 21.2929 22.7071L18.276 19.6902C15.3915 22.1222 11.3456 22.6961 7.9234 21.0797L2.31625 22.9488C1.95692 23.0686 1.56075 22.975 1.29292 22.7072C1.02509 22.4394 0.931566 22.0432 1.05134 21.6839L2.9224 16.0707C1.30782 12.5618 1.96224 8.52172 4.23317 5.64735L1.29292 2.70711C0.902396 2.31658 0.902396 1.68342 1.29292 1.29289ZM5.65928 7.07346C3.87811 9.4647 3.4604 12.7643 4.88931 15.5427C5.01241 15.7821 5.03382 16.061 4.94871 16.3163L3.58117 20.419L7.6838 19.0514C7.94306 18.965 8.22639 18.9884 8.46792 19.1163C11.178 20.551 14.4761 20.1891 16.8554 18.2696L5.65928 7.07346ZM8.78126 2.55228C10.5459 1.9586 12.4413 1.86935 14.2539 2.2946C16.0665 2.71984 17.7245 3.64268 19.041 4.95921C20.3575 6.27573 21.2804 7.93366 21.7056 9.74629C22.1309 11.5589 22.0416 13.4543 21.4479 15.2189C21.2718 15.7424 20.7047 16.024 20.1813 15.8479C19.6578 15.6718 19.3762 15.1047 19.5523 14.5812C20.0273 13.1695 20.0987 11.6532 19.7585 10.2031C19.4183 8.75298 18.68 7.42664 17.6268 6.37342C16.5736 5.3202 15.2472 4.58193 13.7971 4.24173C12.347 3.90154 10.8307 3.97293 9.41899 4.44788C8.89554 4.62398 8.32843 4.3424 8.15233 3.81895C7.97622 3.29549 8.2578 2.72839 8.78126 2.55228Z" fill="currentColor" style="fill="currentColor";fill-opacity:1;"/>
</svg>
