<svg width="24" height="24" viewBox="0 0 24 24" fill="none" xmlns="http://www.w3.org/2000/svg">
<path fill-rule="evenodd" clip-rule="evenodd" d="M6.11896 3.91008C8.04524 2.50653 10.4095 1.83712 12.7856 2.02249C15.1618 2.20787 17.3936 3.23583 19.0789 4.92113C20.7642 6.60644 21.7922 8.83827 21.9776 11.2144C22.163 13.5906 21.4935 15.9548 20.09 17.8811C18.6864 19.8074 16.641 21.169 14.3224 21.7207C12.1442 22.2389 9.85945 22.0103 7.83253 21.0788L2.32107 22.9471C1.96061 23.0693 1.56205 22.9763 1.29292 22.7072C1.02379 22.438 0.930774 22.0395 1.05296 21.679L2.92125 16.1675C1.98982 14.1406 1.7612 11.8559 2.2794 9.67771C2.83103 7.35904 4.19268 5.31364 6.11896 3.91008ZM12.6301 4.01644C10.7292 3.86814 8.83776 4.40366 7.29674 5.52651C5.75571 6.64935 4.6664 8.28567 4.2251 10.1406C3.78379 11.9955 4.01951 13.9471 4.88979 15.6436C5.01328 15.8844 5.03395 16.1649 4.94709 16.4211L3.5974 20.4027L7.57899 19.053C7.83522 18.9661 8.11572 18.9868 8.35645 19.1103C10.053 19.9806 12.0045 20.2163 13.8595 19.775C15.7144 19.3337 17.3507 18.2444 18.4736 16.7033C19.5964 15.1623 20.1319 13.2709 19.9836 11.37C19.8353 9.46905 19.013 7.68359 17.6647 6.33535C16.3165 4.9871 14.531 4.16473 12.6301 4.01644ZM8.29292 8.29289C8.68344 7.90237 9.31661 7.90237 9.70713 8.29289L12 10.5858L14.2929 8.29289C14.6834 7.90237 15.3166 7.90237 15.7071 8.29289C16.0977 8.68342 16.0977 9.31658 15.7071 9.70711L13.4142 12L15.7071 14.2929C16.0977 14.6834 16.0977 15.3166 15.7071 15.7071C15.3166 16.0976 14.6834 16.0976 14.2929 15.7071L12 13.4142L9.70713 15.7071C9.31661 16.0976 8.68344 16.0976 8.29292 15.7071C7.9024 15.3166 7.9024 14.6834 8.29292 14.2929L10.5858 12L8.29292 9.70711C7.9024 9.31658 7.9024 8.68342 8.29292 8.29289Z" fill="currentColor" style="fill="currentColor";fill-opacity:1;"/>
</svg>
