<svg width="24" height="24" viewBox="0 0 24 24" fill="none" xmlns="http://www.w3.org/2000/svg">
<path fill-rule="evenodd" clip-rule="evenodd" d="M17 3C14.7909 3 13 4.79086 13 7C13 9.20914 14.7909 11 17 11C19.2091 11 21 9.20914 21 7C21 4.79086 19.2091 3 17 3ZM11 7C11 3.68629 13.6863 1 17 1C20.3137 1 23 3.68629 23 7C23 10.3137 20.3137 13 17 13C16.811 13 16.624 12.9913 16.4395 12.9742L7.66758 21.7267C7.32698 22.1067 6.91362 22.4146 6.45184 22.6323C5.97955 22.8549 5.46663 22.9783 4.94477 22.9949C4.42291 23.0116 3.90319 22.921 3.41769 22.7289C2.93219 22.5368 2.49122 22.2472 2.12203 21.878C1.75283 21.5088 1.46324 21.0679 1.27113 20.5824C1.07903 20.0969 0.988489 19.5771 1.00511 19.0553C1.02173 18.5334 1.14516 18.0205 1.36776 17.5482C1.58542 17.0864 1.89337 16.6731 2.27333 16.3325L11.0258 7.56059C11.0087 7.37603 11 7.18903 11 7ZM11.6661 9.75044L3.66795 17.7663C3.65269 17.7816 3.63695 17.7964 3.62074 17.8107C3.434 17.975 3.28294 18.1759 3.17688 18.4009C3.07082 18.6259 3.01201 18.8703 3.0041 19.1189C2.99618 19.3676 3.03931 19.6152 3.13084 19.8465C3.22237 20.0778 3.36034 20.2879 3.53624 20.4638C3.71214 20.6397 3.92223 20.7777 4.15354 20.8692C4.38486 20.9607 4.63247 21.0039 4.88111 20.996C5.12974 20.988 5.37411 20.9292 5.59913 20.8232C5.82415 20.7171 6.02504 20.5661 6.18939 20.3793C6.20366 20.3631 6.21845 20.3474 6.23373 20.3321L14.2496 12.3339C13.1434 11.7623 12.2377 10.8567 11.6661 9.75044Z" fill="currentColor" style="fill="currentColor";fill-opacity:1;"/>
</svg>
