<svg width="24" height="24" viewBox="0 0 24 24" fill="none" xmlns="http://www.w3.org/2000/svg">
<path fill-rule="evenodd" clip-rule="evenodd" d="M1.29289 1.29289C1.68342 0.902369 2.31658 0.902369 2.70711 1.29289L17.7048 16.2906C17.7065 16.2922 17.7081 16.2939 17.7097 16.2955L22.7071 21.2929C23.0976 21.6834 23.0976 22.3166 22.7071 22.7071C22.3166 23.0976 21.6834 23.0976 21.2929 22.7071L16.9621 18.3763C15.981 19.1524 14.8275 19.6906 13.5924 19.9415C13.3957 19.9815 13.1981 20.014 13 20.0389V22C13 22.5523 12.5523 23 12 23C11.4477 23 11 22.5523 11 22V20.0391C10.2896 19.9497 9.59056 19.7648 8.92234 19.4864C7.44614 18.8713 6.18817 17.8279 5.31078 16.4909C4.43476 15.1559 3.97829 13.5894 4.00001 11.993V10C4.00001 9.44772 4.44772 9 5.00001 9C5.55229 9 6.00001 9.44772 6.00001 10V12L5.9999 12.0145C5.98246 13.2138 6.32486 14.3908 6.9829 15.3936C7.64094 16.3964 8.58443 17.1789 9.69158 17.6402C10.299 17.8933 10.9404 18.0434 11.5897 18.0878C11.7149 18.0314 11.8538 18 12 18C12.1461 18 12.285 18.0314 12.4101 18.0877C12.6725 18.0697 12.9344 18.0344 13.1941 17.9816C14.0434 17.809 14.8411 17.4554 15.5351 16.9493L14.0298 15.4441C13.6448 15.6708 13.2224 15.8327 12.7794 15.9207C12.0039 16.0747 11.2002 15.9955 10.4697 15.6931C9.73927 15.3906 9.11481 14.8785 8.67524 14.2213C8.23567 13.5642 8.0007 12.7915 8 12.0009L8 9.41421L1.29289 2.70711C0.902369 2.31658 0.902369 1.68342 1.29289 1.29289ZM10 11.4142V11.9991C10 11.999 10 11.9993 10 11.9991C10.0004 12.3943 10.1179 12.7809 10.3376 13.1093C10.5574 13.4379 10.8696 13.694 11.2349 13.8452C11.6001 13.9964 12.002 14.0361 12.3897 13.959C12.432 13.9506 12.474 13.9409 12.5156 13.9298L10 11.4142ZM10.3059 1.39459C11.1195 1.01416 12.0375 0.918637 12.9121 1.12341C13.7866 1.32819 14.5668 1.82135 15.1269 2.52346C15.6871 3.22558 15.9946 4.09579 16.0001 4.99397L16.0001 4.99999L16.0001 9.33999C16.0001 9.89228 15.5524 10.34 15.0001 10.34C14.4478 10.34 14.0001 9.89228 14.0001 9.33999V5.00331C13.9968 4.55519 13.843 4.12112 13.5635 3.77077C13.2834 3.41971 12.8934 3.17313 12.4561 3.07074C12.0188 2.96835 11.5598 3.01611 11.153 3.20633C10.7462 3.39655 10.4152 3.71815 10.2134 4.11935C9.96525 4.61274 9.36409 4.81152 8.87071 4.56334C8.37733 4.31517 8.17854 3.71402 8.42672 3.22063C8.83033 2.41824 9.49225 1.77503 10.3059 1.39459ZM18.9999 9C19.5522 9 19.9999 9.44772 19.9999 10L19.9999 12.0024C19.9988 12.4727 19.9568 12.942 19.8744 13.4051C19.7777 13.9489 19.2585 14.3113 18.7148 14.2145C18.171 14.1178 17.8086 13.5986 17.9053 13.0549C17.9674 12.7063 17.999 12.3529 17.9999 11.9988V10C17.9999 9.44772 18.4476 9 18.9999 9Z" fill="black" style="fill:black;fill-opacity:1;"/>
</svg>
