<svg width="24" height="24" viewBox="0 0 24 24" fill="none" xmlns="http://www.w3.org/2000/svg">
<path fill-rule="evenodd" clip-rule="evenodd" d="M4 5C3.44772 5 3 5.44772 3 6V17C3 17.5523 3.44772 18 4 18H20C20.5523 18 21 17.5523 21 17V6C21 5.44771 20.5523 5 20 5H4ZM19 20H20C21.6569 20 23 18.6569 23 17V6C23 4.34315 21.6569 3 20 3H4C2.34315 3 1 4.34315 1 6V17C1 18.6569 2.34315 20 4 20H5V21C5 21.5523 5.44772 22 6 22C6.55228 22 7 21.5523 7 21V20H17V21C17 21.5523 17.4477 22 18 22C18.5523 22 19 21.5523 19 21V20ZM5 9C5 7.89543 5.89543 7 7 7H13C14.1046 7 15 7.89543 15 9V14C15 15.1046 14.1046 16 13 16H7C5.89543 16 5 15.1046 5 14V9ZM13 9H7V14H13V9ZM18 7C18.5523 7 19 7.44772 19 8V15C19 15.5523 18.5523 16 18 16C17.4477 16 17 15.5523 17 15V8C17 7.44772 17.4477 7 18 7Z" fill="currentColor" style="fill="currentColor";fill-opacity:1;"/>
</svg>
