<svg width="24" height="24" viewBox="0 0 24 24" fill="none" xmlns="http://www.w3.org/2000/svg">
<path fill-rule="evenodd" clip-rule="evenodd" d="M12 2C12.5523 2 13 2.44772 13 3V5H18C18.2422 5 18.4762 5.08792 18.6585 5.24742L22.6585 8.74742C22.8755 8.93731 23 9.21164 23 9.5C23 9.78836 22.8755 10.0627 22.6585 10.2526L18.6585 13.7526C18.4762 13.9121 18.2422 14 18 14H13V21C13 21.5523 12.5523 22 12 22C11.4477 22 11 21.5523 11 21V14H5C4.20435 14 3.44129 13.6839 2.87868 13.1213C2.31607 12.5587 2 11.7956 2 11V8C2 7.20435 2.31607 6.44129 2.87868 5.87868C3.44129 5.31607 4.20435 5 5 5H11V3C11 2.44772 11.4477 2 12 2ZM5 7C4.73478 7 4.48043 7.10536 4.29289 7.29289C4.10536 7.48043 4 7.73478 4 8V11C4 11.2652 4.10536 11.5196 4.29289 11.7071C4.48043 11.8946 4.73478 12 5 12H17.6243L20.4814 9.5L17.6243 7H5Z" fill="currentColor" style="fill="currentColor";fill-opacity:1;"/>
</svg>
