<svg width="24" height="24" viewBox="0 0 24 24" fill="none" xmlns="http://www.w3.org/2000/svg">
<path fill-rule="evenodd" clip-rule="evenodd" d="M1.29289 1.29289C1.68342 0.902369 2.31658 0.902369 2.70711 1.29289L8.49401 7.0798C8.50345 7.08887 8.51268 7.09811 8.5217 7.10749L16.1395 14.7253C16.1417 14.7274 16.1438 14.7295 16.1458 14.7316L22.7071 21.2929C23.0976 21.6834 23.0976 22.3166 22.7071 22.7071C22.3166 23.0976 21.6834 23.0976 21.2929 22.7071L18 19.4142V20C18 20.7957 17.6839 21.5587 17.1213 22.1213C16.5587 22.6839 15.7957 23 15 23H9C8.20435 23 7.44129 22.6839 6.87868 22.1213C6.31607 21.5587 6 20.7957 6 20V15.0232C5.99965 15.008 5.99965 14.9929 6 14.9778V10.2122C6 10.2121 6 10.2123 6 10.2122C5.99986 9.42464 6.18572 8.65086 6.53889 7.95311L1.29289 2.70711C0.902369 2.31658 0.902369 1.68342 1.29289 1.29289ZM8.08555 9.49977C8.02896 9.73163 7.99995 9.97061 8 10.2118V13.6497C8.49238 13.5488 8.9949 13.4976 9.5 13.4976C10.4911 13.4976 11.4723 13.6948 12.3864 14.0777C12.5309 14.1383 12.6775 14.1924 12.8259 14.2401L8.08555 9.49977ZM11.6136 15.9224C12.7066 16.3803 13.8904 16.5708 15.0671 16.4813L11.6136 15.9224ZM15.0671 16.4813L16 17.4142V20C16 20.2652 15.8946 20.5196 15.7071 20.7071C15.5196 20.8946 15.2652 21 15 21H9C8.73478 21 8.48043 20.8946 8.29289 20.7071C8.10536 20.5196 8 20.2652 8 20V15.7072C8.48685 15.5684 8.99164 15.4976 9.5 15.4976C10.2257 15.4976 10.9442 15.642 11.6136 15.9224M7 2C7 1.44772 7.44772 1 8 1H16C16.5523 1 17 1.44772 17 2C17 2.55228 16.5523 3 16 3V4.78897C16 4.78897 16 4.78898 16 4.78897C16 5.38131 16.1754 5.9604 16.504 6.45322L17.16 7.43722C17.7079 8.2589 18.0002 9.22442 18 10.212C18 10.2119 18 10.2121 18 10.212V11.343C18 11.8953 17.5523 12.343 17 12.343C16.4477 12.343 16 11.8953 16 11.343V10.212C16.0001 9.6194 15.8248 9.03982 15.496 8.54678L14.84 7.56278C14.2923 6.7414 14 5.77626 14 4.78903V3H10V3.343C10 3.89528 9.55228 4.343 9 4.343C8.44772 4.343 8 3.89528 8 3.343V3C7.44772 3 7 2.55228 7 2Z" fill="black" style="fill:black;fill-opacity:1;"/>
</svg>
