<svg width="24" height="24" viewBox="0 0 24 24" fill="none" xmlns="http://www.w3.org/2000/svg">
<path fill-rule="evenodd" clip-rule="evenodd" d="M4 4C3.44772 4 3 4.44772 3 5V15C3 15.5523 3.44772 16 4 16H20C20.5523 16 21 15.5523 21 15V5C21 4.44771 20.5523 4 20 4H4ZM13 18H20C21.6569 18 23 16.6569 23 15V5C23 3.34315 21.6569 2 20 2H4C2.34315 2 1 3.34315 1 5V15C1 16.6569 2.34315 18 4 18H11V20H8C7.44772 20 7 20.4477 7 21C7 21.5523 7.44772 22 8 22H16C16.5523 22 17 21.5523 17 21C17 20.4477 16.5523 20 16 20H13V18ZM12 6C12.5523 6 13 6.44772 13 7V10.5858L14.2929 9.29289C14.6834 8.90237 15.3166 8.90237 15.7071 9.29289C16.0976 9.68342 16.0976 10.3166 15.7071 10.7071L12.7071 13.7071C12.3166 14.0976 11.6834 14.0976 11.2929 13.7071L8.29289 10.7071C7.90237 10.3166 7.90237 9.68342 8.29289 9.29289C8.68342 8.90237 9.31658 8.90237 9.70711 9.29289L11 10.5858V7C11 6.44772 11.4477 6 12 6Z" fill="currentColor" style="fill="currentColor";fill-opacity:1;"/>
</svg>
