<svg width="24" height="24" viewBox="0 0 24 24" fill="none" xmlns="http://www.w3.org/2000/svg">
<path fill-rule="evenodd" clip-rule="evenodd" d="M1.29289 1.29289C1.68342 0.902369 2.31658 0.902369 2.70711 1.29289L3.6906 2.27639C3.70177 2.28704 3.71271 2.29798 3.72341 2.3092L22.7071 21.2929C23.0976 21.6834 23.0976 22.3166 22.7071 22.7071C22.3166 23.0976 21.6834 23.0976 21.2929 22.7071L16.5858 18H13V20H16C16.5523 20 17 20.4477 17 21C17 21.5523 16.5523 22 16 22H8C7.44772 22 7 21.5523 7 21C7 20.4477 7.44772 20 8 20H11V18H4C3.20435 18 2.44129 17.6839 1.87868 17.1213C1.31607 16.5587 1 15.7956 1 15V5C1 4.12748 1.26062 3.46783 1.58278 2.99699L1.29289 2.70711C0.902369 2.31658 0.902369 1.68342 1.29289 1.29289ZM3.06801 4.48222C3.02745 4.62106 3 4.79158 3 5V15C3 15.2652 3.10536 15.5196 3.29289 15.7071C3.48043 15.8946 3.73478 16 4 16H14.5858L3.06801 4.48222ZM8 3C8 2.44772 8.44772 2 9 2H20C20.7957 2 21.5587 2.31607 22.1213 2.87868C22.6839 3.44129 23 4.20435 23 5V15C23 15.5523 22.5523 16 22 16C21.4477 16 21 15.5523 21 15V5C21 4.73478 20.8946 4.48043 20.7071 4.29289C20.5196 4.10536 20.2652 4 20 4H9C8.44772 4 8 3.55228 8 3Z" fill="currentColor" style="fill="currentColor";fill-opacity:1;"/>
</svg>
