<svg width="24" height="24" viewBox="0 0 24 24" fill="none" xmlns="http://www.w3.org/2000/svg">
<path fill-rule="evenodd" clip-rule="evenodd" d="M14 5C13.4477 5 13 5.44772 13 6V18C13 18.5523 13.4477 19 14 19H20C20.5523 19 21 18.5523 21 18V6C21 5.44772 20.5523 5 20 5H14ZM11 6C11 4.34315 12.3431 3 14 3H20C21.6569 3 23 4.34315 23 6V18C23 19.6569 21.6569 21 20 21H14C12.3431 21 11 19.6569 11 18V6ZM1.87868 5.87868C2.44129 5.31607 3.20435 5 4 5H8C8.55228 5 9 5.44772 9 6C9 6.55228 8.55228 7 8 7H4C3.73478 7 3.48043 7.10536 3.29289 7.29289C3.10536 7.48043 3 7.73478 3 8V14C3 14.2652 3.10536 14.5196 3.29289 14.7071C3.48043 14.8946 3.73478 15 4 15H8C8.55228 15 9 15.4477 9 16C9 16.5523 8.55228 17 8 17H4C3.20435 17 2.44129 16.6839 1.87868 16.1213C1.31607 15.5587 1 14.7956 1 14V8C1 7.20435 1.31607 6.44129 1.87868 5.87868ZM16 9C16 8.44772 16.4477 8 17 8H17.01C17.5623 8 18.01 8.44772 18.01 9C18.01 9.55228 17.5623 10 17.01 10H17C16.4477 10 16 9.55228 16 9ZM15 15C15 13.8954 15.8954 13 17 13C18.1046 13 19 13.8954 19 15C19 16.1046 18.1046 17 17 17C15.8954 17 15 16.1046 15 15ZM4.5 20C4.5 19.4477 4.94772 19 5.5 19H8C8.55228 19 9 19.4477 9 20C9 20.5523 8.55228 21 8 21H5.5C4.94772 21 4.5 20.5523 4.5 20Z" fill="currentColor" style="fill="currentColor";fill-opacity:1;"/>
</svg>
