<svg width="24" height="24" viewBox="0 0 24 24" fill="none" xmlns="http://www.w3.org/2000/svg">
<path fill-rule="evenodd" clip-rule="evenodd" d="M7.92912 2.00253C8.33256 1.97386 8.71355 2.19104 8.89443 2.5528L12.274 9.31185L16.2929 5.29291C16.538 5.04784 16.8925 4.94714 17.2298 5.02676C17.5671 5.10639 17.8391 5.35499 17.9487 5.68378L21.1723 15.3545C21.177 15.3678 21.1814 15.3811 21.1856 15.3945L22.9487 20.6838C23.0503 20.9887 22.9992 21.324 22.8113 21.5847C22.6233 21.8455 22.3215 22 22 22H2.00001C1.67856 22 1.37672 21.8455 1.18877 21.5847C1.00081 21.324 0.949675 20.9887 1.05132 20.6838L7.05132 2.68378C7.17923 2.30008 7.52567 2.0312 7.92912 2.00253ZM19.0281 15.2464L16.563 7.85124L12.7071 11.7071C12.4798 11.9344 12.1571 12.0386 11.8398 11.9871C11.5225 11.9356 11.2493 11.7347 11.1056 11.4472L8.18525 5.60656L5.61246 13.3249C6.43684 13.0725 7.27485 12.9637 8.12338 13.0091C9.65946 13.0911 11.1473 13.6738 12.5768 14.6833L12.5779 14.684C13.8214 15.5645 15.0046 15.9758 16.1378 16.0016C17.0687 16.0228 18.0294 15.7853 19.0281 15.2464ZM4.76283 15.8738L3.38743 20H20.6126L19.668 17.1664C18.5069 17.7393 17.3122 18.0289 16.0923 18.0011C14.4807 17.9644 12.9191 17.376 11.4229 16.3168C10.2326 15.4764 9.10048 15.0641 8.01666 15.0062C6.97021 14.9503 5.89122 15.2204 4.76283 15.8738Z" fill="currentColor" style="fill="currentColor";fill-opacity:1;"/>
</svg>
