<svg width="24" height="24" viewBox="0 0 24 24" fill="none" xmlns="http://www.w3.org/2000/svg">
<path fill-rule="evenodd" clip-rule="evenodd" d="M6.93403 1.23597C7.46643 1.0891 8.01708 1.40163 8.16395 1.93403L8.96395 4.83403C9.11082 5.36643 8.79829 5.91708 8.26589 6.06395C7.73349 6.21082 7.18284 5.89829 7.03597 5.36589L6.23597 2.46589C6.0891 1.93349 6.40163 1.38284 6.93403 1.23597ZM14.725 3.41136C15.1054 3.81176 15.0892 4.44472 14.6888 4.82511L12.6888 6.72511C12.2884 7.10549 11.6554 7.08926 11.275 6.68886C10.8946 6.28845 10.9109 5.65549 11.3113 5.27511L13.3113 3.37511C13.7117 2.99472 14.3446 3.01095 14.725 3.41136ZM1.23597 6.93403C1.38284 6.40163 1.93349 6.0891 2.46589 6.23597L5.36589 7.03597C5.89829 7.18284 6.21082 7.73349 6.06395 8.26589C5.91708 8.79829 5.36643 9.11082 4.83403 8.96395L1.93403 8.16395C1.40163 8.01708 1.0891 7.46643 1.23597 6.93403ZM8.2929 8.2929C8.57944 8.00637 9.01057 7.92108 9.38462 8.07693L21.3846 13.0769C21.7676 13.2365 22.0123 13.616 21.9995 14.0308C21.9868 14.4455 21.7192 14.8093 21.3271 14.945L16.5861 16.5861L14.945 21.3271C14.8093 21.7192 14.4455 21.9868 14.0308 21.9995C13.616 22.0123 13.2365 21.7676 13.0769 21.3846L8.07693 9.38462C7.92108 9.01057 8.00637 8.57944 8.2929 8.2929ZM10.8572 10.8572L13.9136 18.1926L14.855 15.4729C14.9553 15.1831 15.1831 14.9553 15.4729 14.855L18.1926 13.9136L10.8572 10.8572ZM6.68873 11.275C7.08914 11.6554 7.10537 12.2884 6.72498 12.6888L4.82498 14.6888C4.4446 15.0892 3.81164 15.1054 3.41123 14.725C3.01083 14.3446 2.9946 13.7117 3.37498 13.3113L5.27498 11.3113C5.65537 10.9109 6.28833 10.8946 6.68873 11.275Z" fill="currentColor" style="fill="currentColor";fill-opacity:1;"/>
</svg>
