<svg width="24" height="24" viewBox="0 0 24 24" fill="none" xmlns="http://www.w3.org/2000/svg">
<path fill-rule="evenodd" clip-rule="evenodd" d="M3.29292 3.29292C3.57929 3.00656 4.0101 2.92118 4.38403 3.0767L21.384 10.1467C21.7678 10.3063 22.0129 10.6867 21.9995 11.1022C21.9861 11.5176 21.7172 11.8815 21.3239 12.0161L14.3689 14.397L12.0169 21.3216C11.8831 21.7156 11.5193 21.9856 11.1034 21.9995C10.6875 22.0133 10.3065 21.7682 10.1467 21.384L3.0767 4.38403C2.92118 4.0101 3.00656 3.57929 3.29292 3.29292ZM5.85416 5.85416L10.9756 18.1687L12.6332 13.2884C12.7328 12.995 12.9629 12.7643 13.2562 12.6639L18.1776 10.9792L5.85416 5.85416Z" fill="currentColor" style="fill="currentColor";fill-opacity:1;"/>
</svg>
