<svg width="24" height="24" viewBox="0 0 24 24" fill="none" xmlns="http://www.w3.org/2000/svg">
<path fill-rule="evenodd" clip-rule="evenodd" d="M2.29289 2.29292C2.57942 2.0064 3.01053 1.9211 3.38458 2.07694L20.3546 9.14694C20.7386 9.30692 20.9834 9.68792 20.9694 10.1037C20.9554 10.5194 20.6855 10.8831 20.2916 11.0169L14.424 13.0098L19.7071 18.2929C20.0976 18.6834 20.0976 19.3166 19.7071 19.7071C19.3166 20.0977 18.6834 20.0977 18.2929 19.7071L13.0098 14.424L11.0169 20.2916C10.8831 20.6855 10.5194 20.9555 10.1037 20.9695C9.68789 20.9835 9.30689 20.7386 9.14691 20.3546L2.07691 3.38461C1.92107 3.01056 2.00637 2.57945 2.29289 2.29292ZM4.85695 4.85698L9.97473 17.1411L11.6331 12.2584C11.7331 11.9642 11.9641 11.7331 12.2584 11.6332L17.1411 9.97476L4.85695 4.85698Z" fill="currentColor" style="fill="currentColor";fill-opacity:1;"/>
</svg>
