<svg width="24" height="24" viewBox="0 0 24 24" fill="none" xmlns="http://www.w3.org/2000/svg">
<path fill-rule="evenodd" clip-rule="evenodd" d="M4 5C4 4.44772 4.44772 4 5 4H11C11.5523 4 12 4.44772 12 5C12 5.55228 11.5523 6 11 6H7.41421L18 16.5858V13C18 12.4477 18.4477 12 19 12C19.5523 12 20 12.4477 20 13V19C20 19.5523 19.5523 20 19 20H13C12.4477 20 12 19.5523 12 19C12 18.4477 12.4477 18 13 18H16.5858L6 7.41421V11C6 11.5523 5.55228 12 5 12C4.44772 12 4 11.5523 4 11V5Z" fill="currentColor" style="fill="currentColor";fill-opacity:1;"/>
</svg>
