<svg width="24" height="24" viewBox="0 0 24 24" fill="none" xmlns="http://www.w3.org/2000/svg">
<path fill-rule="evenodd" clip-rule="evenodd" d="M16 1C16.5523 1 17 1.44772 17 2V18C17 20.7614 14.7614 23 12 23C9.23858 23 7 20.7614 7 18C7 15.2386 9.23858 13 12 13C13.1256 13 14.1643 13.3719 15 13.9996V2C15 1.44772 15.4477 1 16 1ZM15 18C15 16.3431 13.6569 15 12 15C10.3431 15 9 16.3431 9 18C9 19.6569 10.3431 21 12 21C13.6569 21 15 19.6569 15 18Z" fill="currentColor" style="fill="currentColor";fill-opacity:1;"/>
</svg>
