<svg width="24" height="24" viewBox="0 0 24 24" fill="none" xmlns="http://www.w3.org/2000/svg">
<path fill-rule="evenodd" clip-rule="evenodd" d="M22.7071 1.29292C23.006 1.59178 23.0847 2.04625 22.9037 2.42819L18.2937 12.1582C18.0572 12.6573 17.461 12.8702 16.9619 12.6337C16.4628 12.3973 16.2498 11.801 16.4863 11.3019L19.8971 4.10293L12.6982 7.51373C12.1991 7.7502 11.6028 7.53729 11.3663 7.0382C11.1298 6.5391 11.3428 5.9428 11.8419 5.70633L21.5719 1.09633C21.9538 0.915366 22.4083 0.994066 22.7071 1.29292ZM1.29289 1.29292C1.68342 0.902397 2.31658 0.902397 2.70711 1.29292L9.11925 7.70507C9.13142 7.71663 9.14332 7.72852 9.15494 7.74075L16.2592 14.845C16.2714 14.8566 16.2833 14.8685 16.2949 14.8807L22.7071 21.2929C23.0976 21.6834 23.0976 22.3166 22.7071 22.7071C22.3166 23.0977 21.6834 23.0977 21.2929 22.7071L15.8666 17.2808L13.9039 21.4278C13.7232 21.8096 13.322 22.0367 12.9016 21.9951C12.4812 21.9536 12.1323 21.6523 12.0299 21.2425L10.1754 13.8246L2.75746 11.9701C2.34764 11.8676 2.04641 11.5187 2.00485 11.0983C1.96329 10.678 2.19037 10.2768 2.5722 10.0961L6.71912 8.13336L1.29289 2.70714C0.902369 2.31661 0.902369 1.68345 1.29289 1.29292ZM8.22099 9.63523L5.9547 10.7079L10.4066 11.8208L8.22099 9.63523ZM12.1791 13.5934L13.2921 18.0453L14.3647 15.779L12.1791 13.5934Z" fill="currentColor" style="fill="currentColor";fill-opacity:1;"/>
</svg>
