<svg width="24" height="24" viewBox="0 0 24 24" fill="none" xmlns="http://www.w3.org/2000/svg">
<path fill-rule="evenodd" clip-rule="evenodd" d="M1.29289 1.29289C1.68342 0.902369 2.31658 0.902369 2.70711 1.29289L10.0026 8.58838C10.0122 8.5976 10.0216 8.607 10.0308 8.61657L18.5235 17.1093C18.5331 17.1185 18.5425 17.1279 18.5517 17.1375L22.7071 21.2929C23.0976 21.6834 23.0976 22.3166 22.7071 22.7071C22.3166 23.0976 21.6834 23.0976 21.2929 22.7071L19.9365 21.3507C19.8779 21.5074 19.7797 21.6502 19.6462 21.7632C19.3254 22.0349 18.8689 22.0769 18.5039 21.8683L12 18.1518L5.49614 21.8683C5.13118 22.0769 4.67475 22.0349 4.35392 21.7633C4.03308 21.4917 3.91633 21.0485 4.06174 20.6541L8.15036 9.56458L1.29289 2.70711C0.902369 2.31658 0.902369 1.68342 1.29289 1.29289ZM9.70776 11.122L6.88826 18.7693L11.5039 16.1318C11.8113 15.9561 12.1887 15.9561 12.4961 16.1318L17.1105 18.7686L16.9678 18.382L9.70776 11.122ZM12.0007 1C12.4196 1.00025 12.794 1.26164 12.9386 1.65486L15.4686 8.53486C15.6592 9.05321 15.3936 9.62794 14.8752 9.81855C14.3569 10.0092 13.7821 9.74348 13.5915 9.22514L11.9984 4.89272L11.7682 5.51625C11.577 6.03437 11.0019 6.29937 10.4838 6.10814C9.9657 5.91691 9.70071 5.34187 9.89194 4.82375L11.0619 1.65375C11.207 1.2607 11.5817 0.999751 12.0007 1Z" fill="currentColor" style="fill="currentColor";fill-opacity:1;"/>
</svg>
