<svg width="24" height="24" viewBox="0 0 24 24" fill="none" xmlns="http://www.w3.org/2000/svg">
<path fill-rule="evenodd" clip-rule="evenodd" d="M3.87868 1.87868C4.44129 1.31607 5.20435 1 6 1H13.4C13.9523 1 14.4 1.44772 14.4 2C14.4 2.55228 13.9523 3 13.4 3H6C5.73478 3 5.48043 3.10536 5.29289 3.29289C5.10536 3.48043 5 3.73478 5 4V5H6C6.55228 5 7 5.44772 7 6C7 6.55228 6.55228 7 6 7H5V9H6C6.55228 9 7 9.44772 7 10C7 10.5523 6.55228 11 6 11H5V13H6C6.55228 13 7 13.4477 7 14C7 14.5523 6.55228 15 6 15H5V17H6C6.55228 17 7 17.4477 7 18C7 18.5523 6.55228 19 6 19H5V20C5 20.2652 5.10536 20.5196 5.29289 20.7071C5.48043 20.8946 5.73478 21 6 21H18C18.2652 21 18.5196 20.8946 18.7071 20.7071C18.8946 20.5196 19 20.2652 19 20V12.6C19 12.0477 19.4477 11.6 20 11.6C20.5523 11.6 21 12.0477 21 12.6V20C21 20.7957 20.6839 21.5587 20.1213 22.1213C19.5587 22.6839 18.7957 23 18 23H6C5.20435 23 4.44129 22.6839 3.87868 22.1213C3.31607 21.5587 3 20.7957 3 20V19H2C1.44772 19 1 18.5523 1 18C1 17.4477 1.44772 17 2 17H3V15H2C1.44772 15 1 14.5523 1 14C1 13.4477 1.44772 13 2 13H3V11H2C1.44772 11 1 10.5523 1 10C1 9.44772 1.44772 9 2 9H3V7H2C1.44772 7 1 6.55228 1 6C1 5.44772 1.44772 5 2 5H3V4C3 3.20435 3.31607 2.44129 3.87868 1.87868ZM19.0201 3.39412L13.903 8.51124L13.3744 10.6256L15.4888 10.097L20.6059 4.97991C20.7181 4.77246 20.7654 4.5352 20.7402 4.29926C20.7119 4.03327 20.5933 3.78501 20.4041 3.59586C20.215 3.40671 19.9667 3.28809 19.7007 3.25976C19.4648 3.23463 19.2275 3.28188 19.0201 3.39412ZM17.8577 1.75981C18.4666 1.36676 19.1919 1.19425 19.9125 1.27101C20.6332 1.34776 21.3059 1.66916 21.8183 2.18165C22.3308 2.69414 22.6522 3.36676 22.729 4.08745C22.8057 4.80814 22.6332 5.53337 22.2402 6.1423C22.2018 6.20179 22.1572 6.25703 22.1071 6.3071L16.7071 11.7071C16.5789 11.8353 16.4184 11.9262 16.2425 11.9701L12.2425 12.9701C11.9018 13.0553 11.5413 12.9555 11.2929 12.7071C11.0445 12.4587 10.9447 12.0982 11.0299 11.7575L12.0299 7.75745C12.0738 7.58162 12.1647 7.42104 12.2929 7.29288L17.6929 1.89288C17.743 1.84282 17.7982 1.79821 17.8577 1.75981Z" fill="currentColor" style="fill="currentColor";fill-opacity:1;"/>
</svg>
