<svg width="24" height="24" viewBox="0 0 24 24" fill="none" xmlns="http://www.w3.org/2000/svg">
<path fill-rule="evenodd" clip-rule="evenodd" d="M8 1C8.55228 1 9 1.44772 9 2V6C9 6.55228 8.55228 7 8 7C7.44772 7 7 6.55228 7 6V5H6C5.73478 5 5.48043 5.10536 5.29289 5.29289C5.10536 5.48043 5 5.73478 5 6V8C5 8.55228 4.55228 9 4 9C3.44772 9 3 8.55228 3 8V6C3 5.20435 3.31607 4.44129 3.87868 3.87868C4.44129 3.31607 5.20435 3 6 3H7V2C7 1.44772 7.44772 1 8 1ZM12 1C12.5523 1 13 1.44772 13 2V6C13 6.55228 12.5523 7 12 7C11.4477 7 11 6.55228 11 6V2C11 1.44772 11.4477 1 12 1ZM16 1C16.5523 1 17 1.44772 17 2V3H18C18.7956 3 19.5587 3.31607 20.1213 3.87868C20.6839 4.44129 21 5.20435 21 6V8C21 8.55228 20.5523 9 20 9C19.4477 9 19 8.55228 19 8V6C19 5.73478 18.8946 5.48043 18.7071 5.29289C18.5196 5.10536 18.2652 5 18 5H17V6C17 6.55228 16.5523 7 16 7C15.4477 7 15 6.55228 15 6V2C15 1.44772 15.4477 1 16 1ZM7 10C7 9.44772 7.44772 9 8 9H14C14.5523 9 15 9.44772 15 10C15 10.5523 14.5523 11 14 11H8C7.44772 11 7 10.5523 7 10ZM4 11C4.55228 11 5 11.4477 5 12V14C5 14.5523 4.55228 15 4 15C3.44772 15 3 14.5523 3 14V12C3 11.4477 3.44772 11 4 11ZM20 11C20.5523 11 21 11.4477 21 12V14C21 14.5523 20.5523 15 20 15C19.4477 15 19 14.5523 19 14V12C19 11.4477 19.4477 11 20 11ZM7 14C7 13.4477 7.44772 13 8 13H16C16.5523 13 17 13.4477 17 14C17 14.5523 16.5523 15 16 15H8C7.44772 15 7 14.5523 7 14ZM4 17C4.55228 17 5 17.4477 5 18V20C5 20.2652 5.10536 20.5196 5.29289 20.7071C5.48043 20.8946 5.73478 21 6 21H7C7.55228 21 8 21.4477 8 22C8 22.5523 7.55228 23 7 23H6C5.20435 23 4.44129 22.6839 3.87868 22.1213C3.31607 21.5587 3 20.7957 3 20V18C3 17.4477 3.44772 17 4 17ZM7 18C7 17.4477 7.44772 17 8 17H13C13.5523 17 14 17.4477 14 18C14 18.5523 13.5523 19 13 19H8C7.44772 19 7 18.5523 7 18ZM20 17C20.5523 17 21 17.4477 21 18V20C21 20.7957 20.6839 21.5587 20.1213 22.1213C19.5587 22.6839 18.7957 23 18 23H17C16.4477 23 16 22.5523 16 22C16 21.4477 16.4477 21 17 21H18C18.2652 21 18.5196 20.8946 18.7071 20.7071C18.8946 20.5196 19 20.2652 19 20V18C19 17.4477 19.4477 17 20 17ZM10 22C10 21.4477 10.4477 21 11 21H13C13.5523 21 14 21.4477 14 22C14 22.5523 13.5523 23 13 23H11C10.4477 23 10 22.5523 10 22Z" fill="currentColor" style="fill="currentColor";fill-opacity:1;"/>
</svg>
