<svg width="24" height="24" viewBox="0 0 24 24" fill="none" xmlns="http://www.w3.org/2000/svg">
<path fill-rule="evenodd" clip-rule="evenodd" d="M6 3C5.44772 3 5 3.44772 5 4V5H6C6.55228 5 7 5.44772 7 6C7 6.55228 6.55228 7 6 7H5V9H6C6.55228 9 7 9.44772 7 10C7 10.5523 6.55228 11 6 11H5V13H6C6.55228 13 7 13.4477 7 14C7 14.5523 6.55228 15 6 15H5V17H6C6.55228 17 7 17.4477 7 18C7 18.5523 6.55228 19 6 19H5V20C5 20.5523 5.44771 21 6 21H14V3H6ZM6 1C4.34315 1 3 2.34315 3 4V5H2C1.44772 5 1 5.44772 1 6C1 6.55228 1.44772 7 2 7H3V9H2C1.44772 9 1 9.44772 1 10C1 10.5523 1.44772 11 2 11H3V13H2C1.44772 13 1 13.4477 1 14C1 14.5523 1.44772 15 2 15H3V17H2C1.44772 17 1 17.4477 1 18C1 18.5523 1.44772 19 2 19H3V20C3 21.6569 4.34315 23 6 23H18C19.6569 23 21 21.6569 21 20V4C21 2.34315 19.6569 1 18 1H6ZM16 3V6H19V4C19 3.44772 18.5523 3 18 3H16ZM19 8H16V11H19V8ZM19 13H16V16H19V13ZM19 18H16V21H18C18.5523 21 19 20.5523 19 20V18Z" fill="currentColor" style="fill="currentColor";fill-opacity:1;"/>
</svg>
