<svg width="24" height="24" viewBox="0 0 24 24" fill="none" xmlns="http://www.w3.org/2000/svg">
<path fill-rule="evenodd" clip-rule="evenodd" d="M12 1C12.5523 1 13 1.44772 13 2V3.03832C14.7825 3.17482 16.4396 3.66667 17.7751 4.36342C19.3071 5.16272 20.6168 6.34395 20.9701 7.75746C21.1041 8.29326 20.7783 8.83619 20.2425 8.97014C19.7067 9.10409 19.1638 8.77833 19.0299 8.24254C18.8832 7.65605 18.1929 6.83728 16.8499 6.13658C15.5572 5.46211 13.8411 5 12 5C11.3211 5 10.6594 5.0624 10.0271 5.17619C9.48357 5.27401 8.96364 4.91268 8.86581 4.36913C8.76799 3.82557 9.12932 3.30564 9.67288 3.20781C10.1046 3.13012 10.5478 3.07274 11 3.03819V2C11 1.44772 11.4477 1 12 1ZM4.73772 9.03501C5.17319 8.91665 5.63398 9.10461 5.86242 9.4938C6.10557 9.90806 6.30148 10.1706 6.52699 10.3955C6.6754 10.5436 6.85067 10.6894 7.08509 10.8557C7.48872 10.6546 7.75568 10.4856 7.95731 10.321C8.21551 10.1102 8.40793 9.87302 8.64452 9.48216C8.8262 9.18203 9.15186 8.99906 9.50269 9C9.85352 9.00095 10.1782 9.18567 10.3583 9.48677C10.6142 9.91479 10.8285 10.1677 11.0899 10.3758C11.3664 10.5958 11.7449 10.8052 12.391 11.0796C12.8993 11.2955 13.1363 11.8826 12.9204 12.391C12.7045 12.8993 12.1174 13.1363 11.609 12.9204C10.9061 12.6218 10.3321 12.3287 9.84456 11.9407C9.7194 11.8411 9.60302 11.7378 9.49356 11.6299C9.40855 11.7116 9.31844 11.7916 9.22219 11.8702C8.74587 12.2591 8.16386 12.5762 7.40701 12.9134C7.10146 13.0496 6.74808 13.0239 6.46538 12.8451C6.30115 12.7412 6.14648 12.6396 6 12.5377V13.9999C6 13.9999 6 13.9999 6 13.9999C6.00017 15.3344 6.44496 16.631 7.26413 17.6846C8.08331 18.7382 9.23019 19.4888 10.5236 19.8179L10.277 20.787L10.5218 19.8174C11.0263 19.9448 11.557 20.1811 12 20.5892C12.4425 20.1816 12.9724 19.9454 13.4763 19.8179C13.4769 19.8177 13.4776 19.8176 13.4782 19.8174L13.723 20.787L13.4763 19.8179C13.4762 19.8179 13.4763 19.8179 13.4763 19.8179C14.9279 19.4481 16.1891 18.5495 17.0127 17.2982C17.3163 16.8369 17.9365 16.7091 18.3978 17.0127C18.8591 17.3163 18.9869 17.9365 18.6833 18.3978C17.5856 20.0655 15.9046 21.2632 13.9699 21.7561L13.9677 21.7566C13.6814 21.8289 13.4688 21.9454 13.3281 22.0861L12.7071 22.7071C12.3166 23.0976 11.6834 23.0976 11.2929 22.7071L10.6719 22.0861C10.5312 21.9454 10.3186 21.8289 10.0323 21.7566L10.0304 21.7561C8.3062 21.3174 6.77729 20.3168 5.68522 18.9122C4.59316 17.5076 4.00019 15.7793 4 14.0001V10C4 9.54873 4.30224 9.15337 4.73772 9.03501ZM19.1489 9.01114C19.6381 9.08479 20 9.5052 20 10V13.343C20 13.8953 19.5523 14.343 19 14.343C18.4477 14.343 18 13.8953 18 13.343V12.6246C17.9676 12.6419 17.9349 12.659 17.902 12.6759C17.4111 12.9289 16.808 12.736 16.5551 12.245C16.3021 11.7541 16.495 11.151 16.986 10.8981C17.373 10.6987 17.5713 10.5447 17.6995 10.3985C17.822 10.259 17.9331 10.0667 18.0443 9.70561C18.19 9.23274 18.6596 8.93749 19.1489 9.01114Z" fill="currentColor" style="fill="currentColor";fill-opacity:1;"/>
<path fill-rule="evenodd" clip-rule="evenodd" d="M1.29289 1.29289C1.68342 0.902369 2.31658 0.902369 2.70711 1.29289L22.7071 21.2929C23.0976 21.6834 23.0976 22.3166 22.7071 22.7071C22.3166 23.0976 21.6834 23.0976 21.2929 22.7071L1.29289 2.70711C0.902369 2.31658 0.902369 1.68342 1.29289 1.29289ZM18.59 9.08791C18.9491 8.92651 19.3694 8.99079 19.6638 9.25211C20.1431 9.67747 20.4453 9.86393 20.7149 9.95558C20.9743 10.0437 21.2994 10.0764 21.8816 10.007C22.43 9.94166 22.9276 10.3332 22.993 10.8816C23.0583 11.43 22.6668 11.9276 22.1184 11.993C21.3836 12.0806 20.7247 12.0713 20.0713 11.8492C20.0474 11.841 20.0236 11.8327 20 11.8241V13.343C20 13.8953 19.5523 14.343 19 14.343C18.4477 14.343 18 13.8953 18 13.343V10C18 9.60634 18.231 9.2493 18.59 9.08791Z" fill="currentColor" style="fill="currentColor";fill-opacity:1;"/>
<path fill-rule="evenodd" clip-rule="evenodd" d="M6.6117 5.43012C6.92648 5.88391 6.8138 6.50696 6.36001 6.82175C6.03701 7.04581 5.6725 7.47595 5.35829 7.92528C5.21002 8.13731 5.0879 8.33174 5.0032 8.47264C4.9755 8.51873 4.95201 8.55873 4.93315 8.59133C4.86926 8.81675 4.78808 9.03913 4.69089 9.2588C5.10051 9.1255 5.56553 9.26921 5.82286 9.6418C6.13672 10.0962 6.02276 10.7191 5.56833 11.0329C5.00819 11.4198 4.49845 11.7041 3.91905 11.8953C3.34496 12.0846 2.75563 12.1647 2.06251 12.2081C1.64462 12.2343 1.25468 11.9973 1.0854 11.6144C0.916125 11.2314 1.00335 10.7836 1.30397 10.4921C2.32753 9.4998 2.85259 8.67531 3.03001 7.96708C3.05036 7.88585 3.08083 7.8075 3.12071 7.73386L4.00003 8.21009C3.12071 7.73386 3.12064 7.734 3.12071 7.73386L3.12244 7.73068L3.12541 7.72524L3.13502 7.7078C3.14304 7.69334 3.15425 7.67327 3.16849 7.64821C3.19695 7.59812 3.23761 7.52783 3.28905 7.44226C3.39154 7.27175 3.53879 7.03724 3.71927 6.77915C4.06256 6.28823 4.59306 5.61337 5.22006 5.17843C5.67385 4.86364 6.29691 4.97632 6.6117 5.43012ZM19.758 7.23983C20.2938 7.10614 20.8366 7.43217 20.9703 7.96802C21.1656 8.75101 21.5183 9.54541 22.6241 10.4288C23.0557 10.7734 23.1261 11.4027 22.7814 11.8342C22.4367 12.2657 21.8074 12.3361 21.3759 11.9914C19.8878 10.8028 19.3184 9.60917 19.0298 8.45215C18.8961 7.91629 19.2221 7.37352 19.758 7.23983Z" fill="currentColor" style="fill="currentColor";fill-opacity:1;"/>
</svg>
