<svg width="24" height="24" viewBox="0 0 24 24" fill="none" xmlns="http://www.w3.org/2000/svg">
<path fill-rule="evenodd" clip-rule="evenodd" d="M12 1C12.5523 1 13 1.44772 13 2V3.03832C14.7825 3.17482 16.4397 3.66667 17.7751 4.36342C19.3071 5.16272 20.6168 6.34395 20.9702 7.75746C21.1655 8.54045 21.5183 9.33532 22.6241 10.2187C22.9391 10.4703 23.0722 10.8864 22.9617 11.2741C22.8512 11.6618 22.5187 11.9452 22.1184 11.993C21.3837 12.0806 20.7247 12.0713 20.0713 11.8492C19.8215 11.7643 19.5873 11.6532 19.362 11.5203C19.2645 11.6512 19.1556 11.7764 19.033 11.8965C18.5948 12.3254 18.0429 12.6252 17.4129 12.9108C16.9098 13.1388 16.3172 12.9159 16.0892 12.4128C15.8612 11.9098 16.0842 11.3172 16.5872 11.0892C17.1661 10.8268 17.4542 10.6431 17.6339 10.4673C17.7895 10.315 17.9173 10.1158 18.0448 9.7041C18.1454 9.37951 18.4039 9.1282 18.7311 9.03683C18.9133 8.98598 19.1028 8.98855 19.2789 9.03969C19.1762 8.77224 19.0957 8.5062 19.0298 8.24206C19.0297 8.24191 19.0298 8.24222 19.0298 8.24206C18.8829 7.65561 18.1926 6.83709 16.85 6.13658C15.5572 5.46211 13.8412 5 12 5C10.1589 5 8.44284 5.46211 7.1501 6.13658C5.8071 6.83728 5.1168 7.65605 4.97018 8.24254C4.6616 9.47431 3.83454 10.6143 2.6961 11.718C2.29957 12.1024 1.66648 12.0926 1.28205 11.6961C0.897628 11.2995 0.907441 10.6664 1.30397 10.282C2.3273 9.28993 2.85235 8.46559 3.02989 7.75746C3.38344 6.34416 4.69314 5.16263 6.22497 4.36342C7.56039 3.66667 9.21757 3.17482 11 3.03832V2C11 1.44772 11.4477 1 12 1Z" fill="currentColor" style="fill="currentColor";fill-opacity:1;"/>
<path fill-rule="evenodd" clip-rule="evenodd" d="M5.21611 9.02362C5.48755 9.08369 5.72172 9.25405 5.86245 9.4938C6.1056 9.90806 6.30151 10.1706 6.52702 10.3955C6.67543 10.5436 6.8507 10.6894 7.08513 10.8557C7.48875 10.6546 7.75572 10.4856 7.95735 10.321C8.21554 10.1102 8.40796 9.87302 8.64456 9.48216C8.82623 9.18203 9.1519 8.99906 9.50273 9C9.85356 9.00095 10.1782 9.18567 10.3583 9.48677C10.6142 9.91479 10.8285 10.1677 11.09 10.3758C11.3016 10.5442 11.573 10.7064 11.9784 10.8962C12.3771 10.6913 12.6545 10.5174 12.8781 10.3389C13.1592 10.1144 13.3916 9.8533 13.6721 9.43923C13.8604 9.16112 14.1758 8.99615 14.5117 9.00007C14.8476 9.00398 15.159 9.17626 15.3408 9.45868C15.6211 9.89396 15.8443 10.1558 16.1119 10.3716C16.389 10.5951 16.7625 10.8085 17.396 11.0817C17.7668 11.2416 17.9915 11.5991 18 11.978V10C18 9.44771 18.4478 9 19 9C19.5523 9 20 9.44771 20 10V14C20 15.7792 19.4071 17.5077 18.315 18.9124C17.2229 20.317 15.6939 21.3176 13.9695 21.7562L13.9678 21.7566C13.6814 21.8289 13.4688 21.9454 13.3281 22.0861L12.7071 22.7071C12.3166 23.0976 11.6835 23.0976 11.2929 22.7071L10.6719 22.0861C10.5313 21.9454 10.3186 21.8289 10.0323 21.7566L10.0305 21.7561C8.30624 21.3174 6.77732 20.3168 5.68526 18.9122C4.59319 17.5076 4.00022 15.7793 4.00003 14.0001V11.6577C3.97319 11.6671 3.9462 11.6762 3.91905 11.6852C3.34496 11.8745 2.75564 11.9547 2.06251 11.998C1.5113 12.0325 1.03649 11.6137 1.00199 11.0625C0.967484 10.5113 1.38635 10.0365 1.93756 10.002C2.55443 9.96334 2.95111 9.89846 3.29251 9.78584C3.62862 9.67496 3.96387 9.50031 4.43174 9.17717C4.66049 9.01919 4.94468 8.96355 5.21611 9.02362ZM6.00003 12.5377V13.9999C6.00003 13.9999 6.00003 13.9999 6.00003 13.9999C6.0002 15.3344 6.445 16.631 7.26416 17.6846C8.08335 18.7382 9.23022 19.4888 10.5236 19.8179L10.277 20.787L10.5218 19.8174C11.0263 19.9448 11.557 20.1811 12 20.5892C12.4428 20.1813 12.9732 19.945 13.4774 19.8176C14.7705 19.4886 15.9171 18.7381 16.7361 17.6847C17.5553 16.6311 18 15.3346 18 14V12.023C17.9972 12.1479 17.9708 12.2743 17.9183 12.396C17.6996 12.9031 17.1112 13.137 16.604 12.9183C15.8996 12.6145 15.3376 12.3164 14.8564 11.9284C14.7221 11.8201 14.5978 11.7078 14.4809 11.5907C14.3694 11.698 14.2518 11.8014 14.126 11.9018C13.6557 12.2774 13.1097 12.5807 12.4284 12.9036C12.1702 13.026 11.872 13.0321 11.6091 12.9204C10.9061 12.6218 10.3322 12.3287 9.84459 11.9407C9.71944 11.8411 9.60305 11.7378 9.49359 11.6299C9.40859 11.7116 9.31848 11.7916 9.22222 11.8702C8.7459 12.2591 8.1639 12.5762 7.40705 12.9134C7.1015 13.0496 6.74811 13.0239 6.46542 12.8451C6.30119 12.7412 6.14651 12.6396 6.00003 12.5377Z" fill="currentColor" style="fill="currentColor";fill-opacity:1;"/>
</svg>
