<svg width="24" height="24" viewBox="0 0 24 24" fill="none" xmlns="http://www.w3.org/2000/svg">
<g clip-path="url(#clip0_168_1270)">
<path fill-rule="evenodd" clip-rule="evenodd" d="M7.4494 1.96645C9.39016 1.08679 11.5446 0.789754 13.651 1.11142C14.197 1.19479 14.572 1.70496 14.4886 2.25092C14.4052 2.79687 13.8951 3.17187 13.3491 3.0885C11.6257 2.82532 9.86295 3.06835 8.27505 3.78807C6.68716 4.50778 5.34247 5.67319 4.4044 7.14269C3.46633 8.61219 2.97525 10.3225 2.99084 12.0658C3.00365 13.4985 3.3582 14.9028 4.01932 16.164C4.32662 16.0577 4.65657 16 5 16C6.65685 16 8 17.3431 8 19C8 20.6569 6.65685 22 5 22C3.34315 22 2 20.6569 2 19C2 18.4282 2.15997 17.8938 2.43759 17.439C1.50782 15.8104 1.00776 13.9671 0.990918 12.0837C0.971867 9.95298 1.57207 7.86259 2.71861 6.06654C3.86514 4.27049 5.50864 2.8461 7.4494 1.96645ZM4.32672 18.2606C4.12598 18.4435 4 18.707 4 19C4 19.5523 4.44772 20 5 20C5.55228 20 6 19.5523 6 19C6 18.4477 5.55228 18 5 18C4.744 18 4.51047 18.0962 4.33358 18.2544C4.33131 18.2565 4.32902 18.2585 4.32672 18.2606ZM19 4C18.4477 4 18 4.44772 18 5C18 5.55229 18.4477 6 19 6C19.2532 6 19.4844 5.90592 19.6605 5.75082C19.6666 5.74515 19.6728 5.73956 19.6791 5.73402C19.8765 5.55136 20 5.29011 20 5C20 4.44772 19.5523 4 19 4ZM21.5633 6.55954C21.8404 6.10509 22 5.57119 22 5C22 3.34315 20.6569 2 19 2C17.3431 2 16 3.34315 16 5C16 6.65685 17.3431 8 19 8C19.3442 8 19.6749 7.94203 19.9828 7.83531C20.6518 9.10438 21.0099 10.5193 21.021 11.9628C21.0345 13.7165 20.5354 15.4359 19.585 16.9097C18.6346 18.3835 17.2743 19.5476 15.6714 20.2588C14.0684 20.97 12.2925 21.1975 10.562 20.9131C10.0171 20.8236 9.50268 21.1928 9.41313 21.7377C9.32359 22.2827 9.69279 22.7971 10.2378 22.8867C12.3528 23.2342 14.5233 22.9562 16.4825 22.0869C18.4417 21.2176 20.1043 19.7949 21.2659 17.9936C22.4275 16.1922 23.0375 14.0908 23.021 11.9474C23.0063 10.0519 22.5023 8.19666 21.5633 6.55954ZM12 10C10.8954 10 10 10.8954 10 12C10 13.1046 10.8954 14 12 14C13.1046 14 14 13.1046 14 12C14 10.8954 13.1046 10 12 10ZM8 12C8 9.79086 9.79086 8 12 8C14.2091 8 16 9.79086 16 12C16 14.2091 14.2091 16 12 16C9.79086 16 8 14.2091 8 12Z" fill="currentColor" style="fill="currentColor";fill-opacity:1;"/>
</g>
<defs>
<clipPath id="clip0_168_1270">
<rect width="24" height="24" fill="white" style="fill:white;fill-opacity:1;"/>
</clipPath>
</defs>
</svg>
