<svg width="24" height="24" viewBox="0 0 24 24" fill="none" xmlns="http://www.w3.org/2000/svg">
<path d="M11.98 23.01C11.98 23.01 11.92 23.01 11.88 23.01C11.44 23 11.01 22.88 10.62 22.68L4.63 19.6C4.13 19.34 3.71 18.95 3.42 18.47C3.13 17.99 2.98 17.44 2.98 16.88V13.59L2.49 13.31C2.04 13.06 1.66 12.68 1.4 12.23C1.14 11.78 1 11.27 1 10.76C1 10.25 1.14 9.73 1.4 9.28C1.57 8.99 1.79 8.72 2.05 8.51C1.79 8.29 1.57 8.03 1.4 7.74C1.14 7.29 1 6.78 1 6.26C1 5.74 1.14 5.23 1.4 4.78C1.66 4.33 2.04 3.96 2.49 3.71L6.69 1.34C7.48 0.890002 8.51 0.890002 9.31 1.34L11.99 2.85L14.66 1.34C15.45 0.900002 16.47 0.900002 17.27 1.34L21.47 3.7C21.92 3.95 22.3 4.33 22.56 4.77C22.82 5.22 22.96 5.73 22.96 6.25C22.96 6.77 22.82 7.28 22.56 7.73C22.39 8.03 22.16 8.29 21.9 8.5C22.16 8.72 22.38 8.98 22.55 9.27C22.81 9.72 22.95 10.23 22.95 10.75C22.95 11.27 22.81 11.78 22.55 12.23C22.29 12.68 21.91 13.05 21.46 13.31L20.97 13.59V16.88C20.97 17.44 20.82 17.99 20.53 18.47C20.24 18.95 19.82 19.34 19.32 19.6L13.32 22.68C12.94 22.88 12.51 22.99 12.07 23.01C12.04 23.01 12.01 23.01 11.97 23.01H11.98ZM12.98 14.72V20.61L18.41 17.82C18.58 17.73 18.72 17.6 18.82 17.43C18.92 17.26 18.97 17.07 18.97 16.88V14.71L17.27 15.67C16.48 16.12 15.45 16.12 14.65 15.67L12.97 14.72H12.98ZM4.98 14.72V16.88C4.98 17.08 5.03 17.27 5.13 17.43C5.23 17.6 5.37 17.73 5.55 17.82L10.98 20.61V14.72L9.29 15.67C8.49 16.12 7.47 16.12 6.67 15.67L4.98 14.72ZM14.02 13.01L15.65 13.93C15.86 14.05 16.1 14.04 16.29 13.93L20.48 11.57C20.62 11.49 20.74 11.37 20.83 11.23C20.91 11.09 20.96 10.93 20.96 10.76C20.96 10.59 20.92 10.43 20.83 10.29C20.75 10.15 20.63 10.03 20.49 9.95L19.97 9.66L14.02 13.01ZM3.99 9.66L3.47 9.95C3.33 10.03 3.21 10.15 3.13 10.29C3.05 10.43 3 10.59 3 10.76C3 10.93 3.04 11.09 3.13 11.23C3.21 11.37 3.33 11.49 3.48 11.57L7.66 13.93C7.86 14.05 8.12 14.04 8.32 13.93L9.95 13.01L4 9.66H3.99ZM6.03 8.51L11.98 11.86L17.93 8.51L11.98 5.15L6.02 8.51H6.03ZM8 2.99C7.89 2.99 7.78 3.02 7.68 3.07L3.47 5.44C3.33 5.52 3.21 5.64 3.13 5.78C3.05 5.92 3 6.08 3 6.25C3 6.42 3.04 6.58 3.13 6.72C3.21 6.86 3.33 6.98 3.48 7.06L4 7.35L9.96 3.99L8.33 3.07C8.23 3.01 8.12 2.98 8.01 2.98L8 2.99ZM14.02 4L19.97 7.36L20.49 7.07C20.63 6.99 20.75 6.87 20.84 6.73C20.92 6.59 20.96 6.43 20.96 6.26C20.96 6.09 20.92 5.93 20.83 5.79C20.75 5.65 20.63 5.53 20.49 5.45L16.29 3.09C16.09 2.98 15.84 2.98 15.64 3.09L14.02 4Z" fill="currentColor" style="fill="currentColor";fill-opacity:1;"/>
</svg>
