<svg width="24" height="24" viewBox="0 0 24 24" fill="none" xmlns="http://www.w3.org/2000/svg">
<path fill-rule="evenodd" clip-rule="evenodd" d="M10.5021 1.40264C10.9577 1.14014 11.4742 1.00195 12 1.00195C12.5258 1.00195 13.0424 1.14015 13.4979 1.40267C13.4986 1.40307 13.4993 1.40348 13.5 1.40388L20.5 5.40387C20.9556 5.66692 21.334 6.04515 21.5973 6.50062C21.8606 6.95609 21.9995 7.47279 22 7.99888V16.0009C21.9995 16.527 21.8606 17.0437 21.5973 17.4992C21.334 17.9547 20.9556 18.3329 20.5 18.5959L20.4961 18.5981L13.5 22.5959C13.4994 22.5963 13.4988 22.5966 13.4982 22.597C13.066 22.8461 12.579 22.9833 12.0812 22.9968C12.0544 22.9989 12.0273 23 12 23C11.9727 23 11.9456 22.9989 11.9188 22.9968C11.4211 22.9833 10.934 22.8461 10.5019 22.597C10.5012 22.5966 10.5006 22.5963 10.5 22.5959L3.50386 18.5981L3.5 18.5959C3.04439 18.3329 2.66597 17.9547 2.40269 17.4992C2.13941 17.0437 2.00054 16.527 2 16.0009V7.99888C2.00054 7.47279 2.13941 6.95609 2.40269 6.50062C2.66597 6.04515 3.04439 5.66692 3.5 5.40388L3.50386 5.40165L6.99371 3.40746C6.99986 3.40386 7.00605 3.40032 7.01228 3.39685L10.5021 1.40264ZM7.49955 5.42191L5.02323 6.83695L12 10.8466L14.4844 9.41881L7.49955 5.42191ZM16.4935 8.26416L9.51441 4.27056L11.4961 3.13815L11.5 3.13593C11.652 3.04816 11.8245 3.00195 12 3.00195C12.1755 3.00195 12.348 3.04816 12.5 3.13593L18.9768 6.83698L16.4935 8.26416ZM16.9053 10.3343C16.9691 10.306 17.0302 10.271 17.0874 10.2296L20 8.55571V15.9989C19.9998 16.1742 19.9535 16.3465 19.8658 16.4983C19.7783 16.6496 19.6527 16.7753 19.5016 16.863C19.5011 16.8633 19.5005 16.8636 19.5 16.8639L13 20.5781L13 12.5787L16.9053 10.3343ZM11 12.5787L4 8.55566V15.9993C4.00025 16.1745 4.04654 16.3466 4.13423 16.4983C4.22169 16.6496 4.34726 16.7753 4.49842 16.863C4.49895 16.8633 4.49947 16.8636 4.5 16.8639L11 20.5782L11 12.5787Z" fill="currentColor" style="fill="currentColor";fill-opacity:1;"/>
</svg>
