<svg width="24" height="24" viewBox="0 0 24 24" fill="none" xmlns="http://www.w3.org/2000/svg">
<path fill-rule="evenodd" clip-rule="evenodd" d="M4.29289 1.29289C4.68342 0.902369 5.31658 0.902369 5.70711 1.29289L8.49998 4.08577L10.2929 2.29289C10.6834 1.90237 11.3165 1.90237 11.7071 2.29289L19.7071 10.2929C20.0976 10.6834 20.0976 11.3166 19.7071 11.7071L17.7123 13.7019C17.7088 13.7054 17.7054 13.7088 17.7019 13.7123L11.1071 20.3071C9.91654 21.4976 8.08338 21.4976 6.89285 20.3071L1.68578 15.1C1.1361 14.5392 0.828247 13.7853 0.828247 13C0.828247 12.2147 1.13614 11.4608 1.68582 10.9L1.69282 10.8929L7.08577 5.49998L4.29289 2.70711C3.90237 2.31658 3.90237 1.68342 4.29289 1.29289ZM8.49998 6.91419L3.41418 12H16.5857L17.5857 11L11 4.41421L9.91419 5.49998L10.7071 6.29289C11.0976 6.68342 11.0976 7.31658 10.7071 7.70711C10.3166 8.09763 9.68342 8.09763 9.29289 7.70711L8.49998 6.91419ZM14.5857 14H3.41418L8.30707 18.8929C8.71654 19.3024 9.28338 19.3024 9.69285 18.8929L14.5857 14ZM20 15C20.4812 15 20.8942 15.3427 20.9829 15.8157C21.0767 16.3161 21.3774 16.706 21.8615 17.3337C21.8757 17.3521 21.89 17.3707 21.9045 17.3895C22.3582 17.9781 23 18.8237 23 20C23 20.7957 22.6839 21.5587 22.1213 22.1213C21.5587 22.6839 20.7957 23 20 23C19.2043 23 18.4413 22.6839 17.8787 22.1213C17.3161 21.5587 17 20.7957 17 20C17 18.8237 17.6418 17.9781 18.0955 17.3895C18.11 17.3707 18.1243 17.3521 18.1385 17.3337C18.6226 16.706 18.9233 16.3161 19.0171 15.8157C19.1058 15.3427 19.5188 15 20 15ZM19.6795 18.6105C19.2082 19.2219 19 19.5763 19 20C19 20.2652 19.1054 20.5196 19.2929 20.7071C19.4804 20.8946 19.7348 21 20 21C20.2652 21 20.5196 20.8946 20.7071 20.7071C20.8946 20.5196 21 20.2652 21 20C21 19.5763 20.7918 19.2219 20.3205 18.6105C20.286 18.5658 20.2497 18.5192 20.2119 18.4709C20.145 18.3851 20.0735 18.2936 20 18.1963C19.9265 18.2936 19.855 18.3851 19.7881 18.4709C19.7503 18.5192 19.714 18.5658 19.6795 18.6105Z" fill="black" style="fill:black;fill-opacity:1;"/>
</svg>
