<svg width="24" height="24" viewBox="0 0 24 24" fill="none" xmlns="http://www.w3.org/2000/svg">
<path fill-rule="evenodd" clip-rule="evenodd" d="M5 2C5 1.44772 5.44772 1 6 1H18C18.5523 1 19 1.44772 19 2V11C19.5523 11 20 11.4477 20 12V14C20 14.7957 19.6839 15.5587 19.1213 16.1213C18.5587 16.6839 17.7957 17 17 17H15V19.9C15 20.6957 14.6839 21.4587 14.1213 22.0213C13.5587 22.5839 12.7957 22.9 12 22.9C11.2043 22.9 10.4413 22.5839 9.87868 22.0213C9.31607 21.4587 9 20.6957 9 19.9V17H7C5.34772 17 4 15.6523 4 14V12C4 11.4477 4.44772 11 5 11V2ZM6 13V14C6 14.5477 6.45228 15 7 15H10C10.5523 15 11 15.4477 11 16V19.9C11 20.1652 11.1054 20.4196 11.2929 20.6071C11.4804 20.7946 11.7348 20.9 12 20.9C12.2652 20.9 12.5196 20.7946 12.7071 20.6071C12.8946 20.4196 13 20.1652 13 19.9V16C13 15.4477 13.4477 15 14 15H17C17.2652 15 17.5196 14.8946 17.7071 14.7071C17.8946 14.5196 18 14.2652 18 14V13H6ZM17 11H7V3H9V4C9 4.55228 9.44772 5 10 5C10.5523 5 11 4.55228 11 4V3H13V6C13 6.55228 13.4477 7 14 7C14.5523 7 15 6.55228 15 6V3H17V11Z" fill="currentColor" style="fill="currentColor";fill-opacity:1;"/>
</svg>
