<svg width="24" height="24" viewBox="0 0 24 24" fill="none" xmlns="http://www.w3.org/2000/svg">
<path fill-rule="evenodd" clip-rule="evenodd" d="M17.6629 1.923C18.2483 1.33764 19.0422 1.00879 19.87 1.00879C20.6978 1.00879 21.4918 1.33764 22.0771 1.923C22.6625 2.50837 22.9913 3.30229 22.9913 4.13011C22.9913 4.95793 22.6625 5.75185 22.0771 6.33722L18.4142 10.0001L19.2992 10.8851C19.858 11.4472 20.1716 12.2076 20.1716 13.0001C20.1716 13.7927 19.858 14.553 19.2992 15.1151L19.2971 15.1172L17.7071 16.7072C17.3696 17.0447 16.8508 17.0905 16.4641 16.8446C16.3806 17.0053 16.2914 17.1623 16.1995 17.3143C15.7496 18.0583 15.1429 18.8294 14.49 19.5477C13.2045 20.9617 11.607 22.3146 10.4472 22.8944C10.0255 23.1053 9.51371 22.9929 9.21914 22.6247L1.21914 12.6247C0.997523 12.3477 0.939266 11.974 1.06605 11.6426C1.19283 11.3113 1.48567 11.0719 1.83561 11.0136C3.33986 10.7629 4.45245 10.5307 5.4278 10.0431C6.20715 9.6534 6.94116 9.07711 7.69311 8.10742L7.2929 7.70722C6.90238 7.31669 6.90238 6.68353 7.2929 6.293L8.88501 4.7009C9.4471 4.14215 10.2075 3.82852 11 3.82852C11.7926 3.82852 12.5529 4.14215 13.115 4.7009L13.1171 4.703L14 5.5859L17.6629 1.923ZM9.72422 7.31011C9.71358 7.29895 9.70264 7.28801 9.6914 7.27729L9.41422 7.00011L10.295 6.11932C10.2953 6.11903 10.2956 6.11874 10.2959 6.11846C10.4832 5.93274 10.7362 5.82852 11 5.82852C11.2638 5.82852 11.5169 5.93274 11.7041 6.11846C11.7044 6.11874 11.7047 6.11903 11.705 6.11932L13.2929 7.70722C13.6834 8.09774 14.3166 8.09774 14.7071 7.70722L19.0771 3.33722C19.2874 3.12693 19.5726 3.00879 19.87 3.00879C20.1674 3.00879 20.4526 3.12693 20.6629 3.33722C20.8732 3.5475 20.9913 3.83272 20.9913 4.13011C20.9913 4.4275 20.8732 4.71272 20.6629 4.923L16.2929 9.293C16.1054 9.48054 16 9.73489 16 10.0001C16 10.2653 16.1054 10.5197 16.2929 10.7072L17.8808 12.2951C17.8811 12.2954 17.8813 12.2957 17.8816 12.2959C18.0674 12.4832 18.1716 12.7363 18.1716 13.0001C18.1716 13.2639 18.0674 13.517 17.8816 13.7043C17.8813 13.7046 17.8811 13.7048 17.8808 13.7051L17 14.5859L16.7159 14.3018C16.7101 14.2958 16.7042 14.2899 16.6982 14.2841L9.72422 7.31011ZM9.11659 9.5309C8.25336 10.5953 7.34386 11.3211 6.32223 11.8319C5.53147 12.2273 4.69732 12.4805 3.82084 12.6753L4.94502 14.0805L14.3876 16.4411C14.4222 16.3867 14.4558 16.3328 14.488 16.2795C14.7222 15.8922 14.8614 15.5813 14.9342 15.3486L9.11659 9.5309ZM13.0426 18.1664L7.00657 16.6574L10.2343 20.692C11.0467 20.1316 12.0831 19.222 13.0101 18.2023C13.0209 18.1904 13.0318 18.1784 13.0426 18.1664Z" fill="currentColor" style="fill="currentColor";fill-opacity:1;"/>
</svg>
