<svg width="24" height="24" viewBox="0 0 24 24" fill="none" xmlns="http://www.w3.org/2000/svg">
<path fill-rule="evenodd" clip-rule="evenodd" d="M4 3C3.44772 3 3 3.44772 3 4V6C3 6.55228 3.44772 7 4 7H16C16.5523 7 17 6.55228 17 6V4C17 3.44772 16.5523 3 16 3H4ZM19 6C19 7.65685 17.6569 9 16 9H4C2.34315 9 1 7.65685 1 6V4C1 2.34315 2.34315 1 4 1H16C17.6569 1 19 2.34315 19 4H20C20.7957 4 21.5587 4.31607 22.1213 4.87868C22.6839 5.44129 23 6.20435 23 7V10C23 10.7957 22.6839 11.5587 22.1213 12.1213C21.5587 12.6839 20.7957 13 20 13H12C11.7348 13 11.4804 13.1054 11.2929 13.2929C11.1054 13.4804 11 13.7348 11 14V15C12.1046 15 13 15.8954 13 17V21C13 22.1046 12.1046 23 11 23H9C7.89543 23 7 22.1046 7 21V17C7 15.8954 7.89543 15 9 15V14C9 13.2043 9.31607 12.4413 9.87868 11.8787C10.4413 11.3161 11.2043 11 12 11H20C20.2652 11 20.5196 10.8946 20.7071 10.7071C20.8946 10.5196 21 10.2652 21 10V7C21 6.73478 20.8946 6.48043 20.7071 6.29289C20.5196 6.10536 20.2652 6 20 6H19ZM9 17V21H11V17H9Z" fill="black" style="fill:black;fill-opacity:1;"/>
</svg>
