<svg width="24" height="24" viewBox="0 0 24 24" fill="none" xmlns="http://www.w3.org/2000/svg">
<path fill-rule="evenodd" clip-rule="evenodd" d="M1 12C1 5.94772 5.94772 1 12 1C17.9004 1 22.9613 5.35183 22.992 10.8344L22.992 10.84C22.992 14.4435 20.0401 17.394 16.437 17.394H14.441L14.4238 17.3939C14.3379 17.3924 14.2526 17.4082 14.1729 17.4404C14.0933 17.4726 14.0209 17.5205 13.9602 17.5812C13.8995 17.6419 13.8516 17.7143 13.8194 17.7939C13.7872 17.8736 13.7714 17.9589 13.7729 18.0448L13.773 18.062C13.773 18.2963 13.8336 18.3956 13.9169 18.4787C13.9315 18.4933 13.9457 18.5083 13.9594 18.5238C14.3567 18.9721 14.648 19.5997 14.648 20.312C14.648 21.781 13.5032 23 12 23C5.94772 23 1 18.0523 1 12ZM12 3C7.05228 3 3 7.05228 3 12C3 16.9477 7.05228 21 12 21C12.3488 21 12.648 20.727 12.648 20.312C12.648 20.1568 12.5847 19.9954 12.4764 19.8663C12.0013 19.378 11.7749 18.7649 11.773 18.0706C11.7681 17.7192 11.8334 17.3704 11.9651 17.0445C12.0979 16.716 12.2954 16.4176 12.546 16.167C12.7966 15.9164 13.095 15.7189 13.4235 15.5861C13.749 15.4545 14.0975 15.3892 14.4486 15.394H16.437C18.935 15.394 20.9905 13.34 20.992 10.8428C20.9669 6.67054 17.0205 3 12 3ZM13.5 7C13.7761 7 14 6.77614 14 6.5C14 6.22386 13.7761 6 13.5 6C13.2239 6 13 6.22386 13 6.5C13 6.77614 13.2239 7 13.5 7ZM12 6.5C12 5.67157 12.6716 5 13.5 5C14.3284 5 15 5.67157 15 6.5C15 7.32843 14.3284 8 13.5 8C12.6716 8 12 7.32843 12 6.5ZM8.5 8C8.77614 8 9 7.77614 9 7.5C9 7.22386 8.77614 7 8.5 7C8.22386 7 8 7.22386 8 7.5C8 7.77614 8.22386 8 8.5 8ZM7 7.5C7 6.67157 7.67157 6 8.5 6C9.32843 6 10 6.67157 10 7.5C10 8.32843 9.32843 9 8.5 9C7.67157 9 7 8.32843 7 7.5ZM17.5 11C17.7761 11 18 10.7761 18 10.5C18 10.2239 17.7761 10 17.5 10C17.2239 10 17 10.2239 17 10.5C17 10.7761 17.2239 11 17.5 11ZM16 10.5C16 9.67157 16.6716 9 17.5 9C18.3284 9 19 9.67157 19 10.5C19 11.3284 18.3284 12 17.5 12C16.6716 12 16 11.3284 16 10.5ZM6.5 13C6.77614 13 7 12.7761 7 12.5C7 12.2239 6.77614 12 6.5 12C6.22386 12 6 12.2239 6 12.5C6 12.7761 6.22386 13 6.5 13ZM5 12.5C5 11.6716 5.67157 11 6.5 11C7.32843 11 8 11.6716 8 12.5C8 13.3284 7.32843 14 6.5 14C5.67157 14 5 13.3284 5 12.5Z" fill="currentColor" style="fill="currentColor";fill-opacity:1;"/>
</svg>
