<svg width="24" height="24" viewBox="0 0 24 24" fill="none" xmlns="http://www.w3.org/2000/svg">
<path fill-rule="evenodd" clip-rule="evenodd" d="M1 8C1 4.60061 3.99905 2 7.5 2C10.145 2 12.5035 3.4844 13.4987 5.6762C14.4306 5.22701 15.4578 4.99323 16.5034 4.99989C20.0029 5.00159 23 7.60161 23 10.9999C23 11.5522 22.5523 11.9999 22 11.9999H19C18.7348 11.9999 18.4804 11.8945 18.2929 11.707L18 11.4141L17.7071 11.707C17.5196 11.8945 17.2652 11.9999 17 11.9999H15.1213C15.231 12.4881 15.3342 12.9976 15.4232 13.5192C15.8738 16.1584 16.025 19.3575 14.9398 22.3417C14.7961 22.7369 14.4205 23 14 23H10C9.6659 23 9.35387 22.8331 9.16834 22.5553C8.98282 22.2774 8.94832 21.9253 9.07638 21.6167C9.88964 19.657 10.4585 17.8913 10.0194 15.6961C9.91111 15.1546 10.2623 14.6277 10.8039 14.5194C11.3454 14.4111 11.8723 14.7623 11.9806 15.3039C12.4177 17.4897 12.0459 19.329 11.4597 21H13.2751C13.9555 18.6608 13.8395 16.1268 13.4518 13.8558C13.286 12.8852 13.0796 11.9993 12.8722 11.212L6.24791 17.8462C6.06013 18.0345 5.80514 18.1402 5.53928 18.14C5.27341 18.1398 5.01857 18.0337 4.83105 17.8453C2.43358 15.4355 2.70457 11.4812 5.18286 9.00287C5.25303 8.9327 5.32439 8.86429 5.39687 8.79765C5.36037 8.77005 5.32562 8.73983 5.29289 8.70711L5 8.41421L4.70711 8.70711C4.51957 8.89464 4.26522 9 4 9H2C1.44772 9 1 8.55228 1 8ZM9.59642 9H10C10.0388 9 10.0771 8.99779 10.1147 8.99349C10.7122 9.02278 11.2873 9.18012 11.7958 9.45989L5.64268 15.6211C4.8023 14.0809 5.06906 11.9451 6.59707 10.4171C7.47451 9.53964 8.54991 9.07691 9.59642 9ZM11.9354 7.32853C11.1701 7.05419 10.3539 6.94756 9.53718 7H6.41421L5.70711 6.29289C5.31658 5.90237 4.68342 5.90237 4.29289 6.29289L3.58579 7H3.1445C3.63651 5.32224 5.33676 4 7.5 4C9.80265 4 11.5807 5.49815 11.9354 7.32853ZM14.6147 9.99989H16.5858L17.2929 9.29279C17.6834 8.90226 18.3166 8.90226 18.7071 9.29279L19.4142 9.99989H20.8555C20.3635 8.32213 18.6632 6.99989 16.5 6.99989H16.4931C15.6097 6.99381 14.7447 7.2306 13.9911 7.68005C13.9946 7.74201 13.997 7.80426 13.9985 7.86678C14.0556 8.08086 14.1386 8.36164 14.2379 8.6972C14.348 9.06945 14.478 9.5091 14.6147 9.99989Z" fill="currentColor" style="fill="currentColor";fill-opacity:1;"/>
</svg>
