<svg width="24" height="24" viewBox="0 0 24 24" fill="none" xmlns="http://www.w3.org/2000/svg">
<path fill-rule="evenodd" clip-rule="evenodd" d="M5 4C4.44772 4 4 4.44772 4 5V8H5C5.55228 8 6 8.44772 6 9C6 9.55228 5.55228 10 5 10H4V19C4 19.5523 4.44771 20 5 20H19C19.5523 20 20 19.5523 20 19V10H19C18.4477 10 18 9.55228 18 9C18 8.44772 18.4477 8 19 8H20V5C20 4.44771 19.5523 4 19 4H5ZM22 5C22 3.34315 20.6569 2 19 2H5C3.34315 2 2 3.34315 2 5V19C2 20.6569 3.34315 22 5 22H19C20.6569 22 22 20.6569 22 19V5ZM8 9C8 8.44772 8.44772 8 9 8H10C10.5523 8 11 8.44772 11 9C11 9.55228 10.5523 10 10 10H9C8.44772 10 8 9.55228 8 9ZM13 9C13 8.44772 13.4477 8 14 8H15C15.5523 8 16 8.44772 16 9C16 9.55228 15.5523 10 15 10H14C13.4477 10 13 9.55228 13 9Z" fill="currentColor" style="fill="currentColor";fill-opacity:1;"/>
</svg>
