<svg width="24" height="24" viewBox="0 0 24 24" fill="none" xmlns="http://www.w3.org/2000/svg">
<path fill-rule="evenodd" clip-rule="evenodd" d="M5 4C4.44772 4 4 4.44772 4 5V14H5C5.55228 14 6 14.4477 6 15C6 15.5523 5.55228 16 5 16H4V19C4 19.5523 4.44771 20 5 20H19C19.5523 20 20 19.5523 20 19V16H19C18.4477 16 18 15.5523 18 15C18 14.4477 18.4477 14 19 14H20V5C20 4.44771 19.5523 4 19 4H5ZM22 5C22 3.34315 20.6569 2 19 2H5C3.34315 2 2 3.34315 2 5V19C2 20.6569 3.34315 22 5 22H19C20.6569 22 22 20.6569 22 19V5ZM8 15C8 14.4477 8.44772 14 9 14H10C10.5523 14 11 14.4477 11 15C11 15.5523 10.5523 16 10 16H9C8.44772 16 8 15.5523 8 15ZM13 15C13 14.4477 13.4477 14 14 14H15C15.5523 14 16 14.4477 16 15C16 15.5523 15.5523 16 15 16H14C13.4477 16 13 15.5523 13 15Z" fill="currentColor" style="fill="currentColor";fill-opacity:1;"/>
</svg>
