<svg width="24" height="24" viewBox="0 0 24 24" fill="none" xmlns="http://www.w3.org/2000/svg">
<path fill-rule="evenodd" clip-rule="evenodd" d="M5 4C4.44772 4 4 4.44772 4 5V19C4 19.5523 4.44771 20 5 20H14V19C14 18.4477 14.4477 18 15 18C15.5523 18 16 18.4477 16 19V20H19C19.5523 20 20 19.5523 20 19V5C20 4.44771 19.5523 4 19 4H16V5C16 5.55228 15.5523 6 15 6C14.4477 6 14 5.55228 14 5V4H5ZM5 2C3.34315 2 2 3.34315 2 5V19C2 20.6569 3.34315 22 5 22H19C20.6569 22 22 20.6569 22 19V5C22 3.34315 20.6569 2 19 2H5ZM15 8C15.5523 8 16 8.44772 16 9V10C16 10.5523 15.5523 11 15 11C14.4477 11 14 10.5523 14 10V9C14 8.44772 14.4477 8 15 8ZM15 13C15.5523 13 16 13.4477 16 14V15C16 15.5523 15.5523 16 15 16C14.4477 16 14 15.5523 14 15V14C14 13.4477 14.4477 13 15 13Z" fill="black" style="fill:black;fill-opacity:1;"/>
</svg>
