<svg width="24" height="24" viewBox="0 0 24 24" fill="none" xmlns="http://www.w3.org/2000/svg">
<path fill-rule="evenodd" clip-rule="evenodd" d="M5 4C4.44772 4 4 4.44772 4 5V19C4 19.5523 4.44771 20 5 20H8V19C8 18.4477 8.44772 18 9 18C9.55228 18 10 18.4477 10 19V20H19C19.5523 20 20 19.5523 20 19V5C20 4.44771 19.5523 4 19 4H10V5C10 5.55228 9.55228 6 9 6C8.44772 6 8 5.55228 8 5V4H5ZM5 2C3.34315 2 2 3.34315 2 5V19C2 20.6569 3.34315 22 5 22H19C20.6569 22 22 20.6569 22 19V5C22 3.34315 20.6569 2 19 2H5ZM9 8C9.55228 8 10 8.44772 10 9V10C10 10.5523 9.55228 11 9 11C8.44772 11 8 10.5523 8 10V9C8 8.44772 8.44772 8 9 8ZM9 13C9.55228 13 10 13.4477 10 14V15C10 15.5523 9.55228 16 9 16C8.44772 16 8 15.5523 8 15V14C8 13.4477 8.44772 13 9 13Z" fill="black" style="fill:black;fill-opacity:1;"/>
</svg>
