<svg width="24" height="24" viewBox="0 0 24 24" fill="none" xmlns="http://www.w3.org/2000/svg">
<path fill-rule="evenodd" clip-rule="evenodd" d="M5 4C4.44772 4 4 4.44772 4 5V8H20V5C20 4.44771 19.5523 4 19 4H5ZM22 5C22 3.34315 20.6569 2 19 2H5C3.34315 2 2 3.34315 2 5V19C2 20.6569 3.34315 22 5 22H19C20.6569 22 22 20.6569 22 19V5ZM20 10H4V19C4 19.5523 4.44771 20 5 20H19C19.5523 20 20 19.5523 20 19V10ZM8.29289 13.2929C8.68342 12.9024 9.31658 12.9024 9.70711 13.2929L12 15.5858L14.2929 13.2929C14.6834 12.9024 15.3166 12.9024 15.7071 13.2929C16.0976 13.6834 16.0976 14.3166 15.7071 14.7071L12.7071 17.7071C12.3166 18.0976 11.6834 18.0976 11.2929 17.7071L8.29289 14.7071C7.90237 14.3166 7.90237 13.6834 8.29289 13.2929Z" fill="currentColor" style="fill="currentColor";fill-opacity:1;"/>
</svg>
