<svg width="24" height="24" viewBox="0 0 24 24" fill="none" xmlns="http://www.w3.org/2000/svg">
<path fill-rule="evenodd" clip-rule="evenodd" d="M17.2885 3.8827C16.7243 3.31951 15.9595 3.00351 15.1623 3.00421C14.3652 3.00492 13.6009 3.32227 13.0377 3.88646L4.46709 12.4571C3.52878 13.3954 3.00165 14.668 3.00165 15.995C3.00165 17.3219 3.52878 18.5946 4.46709 19.5329C5.4054 20.4712 6.67802 20.9983 8.00498 20.9983C9.33195 20.9983 10.6046 20.4712 11.5429 19.5329L20.7329 10.3429C21.1234 9.95234 21.7566 9.95234 22.1471 10.3429C22.5376 10.7334 22.5376 11.3666 22.1471 11.7571L12.9571 20.9471C11.6437 22.2605 9.86238 22.9983 8.00498 22.9983C6.14758 22.9983 4.36626 22.2605 3.05288 20.9471C1.7395 19.6337 1.00165 17.8524 1.00165 15.995C1.00165 14.1376 1.7395 12.3562 3.05288 11.0429L11.6223 2.47349C12.5601 1.53429 13.8333 1.00538 15.1606 1.00421C16.4882 1.00304 17.7619 1.52931 18.7015 2.46724C19.6411 3.40518 20.1696 4.67795 20.1707 6.00555C20.1719 7.33316 19.6456 8.60686 18.7077 9.54646L10.1171 18.1171C9.55427 18.6799 8.79093 18.9961 7.99498 18.9961C7.19904 18.9961 6.43569 18.6799 5.87288 18.1171C5.31006 17.5543 4.99387 16.7909 4.99387 15.995C4.99387 15.199 5.31006 14.4357 5.87288 13.8729L14.3633 5.39245C14.754 5.00216 15.3872 5.00253 15.7775 5.39328C16.1678 5.78404 16.1674 6.4172 15.7767 6.8075L7.28709 15.2871C7.09961 15.4748 6.99387 15.7297 6.99387 15.995C6.99387 16.2605 7.09935 16.5151 7.28709 16.7029C7.47484 16.8906 7.72947 16.9961 7.99498 16.9961C8.2605 16.9961 8.51513 16.8906 8.70288 16.7029L17.2923 8.13349C17.2925 8.1332 17.2928 8.13292 17.2931 8.13263C17.8558 7.56853 18.1714 6.80409 18.1707 6.00732C18.17 5.21014 17.8527 4.44589 17.2885 3.8827Z" fill="currentColor" style="fill="currentColor";fill-opacity:1;"/>
</svg>
