<svg width="24" height="24" viewBox="0 0 24 24" fill="none" xmlns="http://www.w3.org/2000/svg">
<path fill-rule="evenodd" clip-rule="evenodd" d="M1.29289 1.29289C1.68342 0.902369 2.31658 0.902369 2.70711 1.29289L3.71627 2.30205C4.10853 2.11124 4.54144 2.00643 4.98586 2.0001L5.0001 2H19.0001C19.7957 2 20.5588 2.31607 21.1214 2.87868C21.684 3.44129 22.0001 4.20435 22.0001 5V19L22.0001 19.0042C21.9982 19.4538 21.8954 19.8925 21.7045 20.2902L22.7071 21.2929C23.0976 21.6834 23.0976 22.3166 22.7071 22.7071C22.3166 23.0976 21.6834 23.0976 21.2929 22.7071L1.29289 2.70711C0.902369 2.31658 0.902369 1.68342 1.29289 1.29289ZM20.0001 18.5859V5C20.0001 4.73478 19.8947 4.48043 19.7072 4.29289C19.5197 4.10536 19.2653 4 19.0001 4H5.41421L8.0633 6.64909C8.20542 6.2699 8.57119 6 9 6H13C14.0609 6 15.0783 6.42143 15.8284 7.17157C16.5786 7.92172 17 8.93913 17 10C17 11.0609 16.5786 12.0783 15.8284 12.8284C15.5576 13.0992 15.252 13.3272 14.9221 13.5079L20.0001 18.5859ZM13.3781 11.9639C13.7679 11.8889 14.1295 11.6989 14.4142 11.4142C14.7893 11.0391 15 10.5304 15 10C15 9.46957 14.7893 8.96086 14.4142 8.58579C14.0391 8.21071 13.5304 8 13 8H10V8.58579L13.3781 11.9639ZM3 7.69995C3.55228 7.69995 4 8.14767 4 8.69995V19C4 19.2652 4.10536 19.5195 4.29289 19.7071C4.48043 19.8946 4.73478 20 5 20H15.3C15.8523 20 16.3 20.4477 16.3 21C16.3 21.5522 15.8523 22 15.3 22H5C4.20435 22 3.44129 21.6839 2.87868 21.1213C2.31607 20.5587 2 19.7956 2 19V8.69995C2 8.14767 2.44772 7.69995 3 7.69995ZM9 13.7C9.55228 13.7 10 14.1477 10 14.7V17C10 17.5522 9.55228 18 9 18C8.44772 18 8 17.5522 8 17V14.7C8 14.1477 8.44772 13.7 9 13.7Z" fill="currentColor" style="fill="currentColor";fill-opacity:1;"/>
</svg>
