<svg width="24" height="24" viewBox="0 0 24 24" fill="none" xmlns="http://www.w3.org/2000/svg">
<path fill-rule="evenodd" clip-rule="evenodd" d="M11 3C10.4477 3 10 3.44772 10 4C10 4.55228 10.4477 5 11 5C11.5523 5 12 4.55228 12 4C12 3.44772 11.5523 3 11 3ZM8 4C8 2.34315 9.34315 1 11 1C12.6569 1 14 2.34315 14 4C14 5.65685 12.6569 7 11 7C9.34315 7 8 5.65685 8 4ZM18 7C17.4477 7 17 7.44772 17 8C17 8.55228 17.4477 9 18 9C18.5523 9 19 8.55228 19 8C19 7.44772 18.5523 7 18 7ZM15 8C15 6.34315 16.3431 5 18 5C19.6569 5 21 6.34315 21 8C21 9.65685 19.6569 11 18 11C16.3431 11 15 9.65685 15 8ZM5.49825 9L5.5 9L9 9C9.78793 9 10.5681 9.15519 11.2961 9.45672C12.024 9.75825 12.6855 10.2002 13.2426 10.7574C13.7998 11.3145 14.2417 11.9759 14.5433 12.7039C14.8448 13.4319 15 14.2121 15 15V18.5C14.9996 19.5755 14.6142 20.6155 13.9133 21.4313C13.2125 22.247 12.2427 22.7848 11.1796 22.9472C10.1165 23.1097 9.03036 22.886 8.11794 22.3167C7.20553 21.7474 6.52716 20.8702 6.20571 19.8439L6.20482 19.841C5.87543 18.7782 5.22116 18.1236 4.1633 17.795L4.1611 17.7943C3.13534 17.473 2.25846 16.7952 1.68914 15.8834C1.11982 14.9717 0.895667 13.8862 1.05724 12.8236C1.21882 11.7609 1.75546 10.7911 2.57004 10.0898C3.38463 9.38846 4.42335 9.00188 5.49825 9ZM9 11H5.50076C4.90395 11.0013 4.32726 11.216 3.87496 11.6054C3.42242 11.9951 3.12429 12.5338 3.03452 13.1242C2.94475 13.7146 3.06928 14.3176 3.38557 14.8241C3.70166 15.3303 4.18839 15.7067 4.75779 15.8854C6.4455 16.4101 7.59066 17.5581 8.11471 19.2475C8.29346 19.817 8.67014 20.3039 9.17663 20.6199C9.68353 20.9361 10.2869 21.0604 10.8776 20.9702C11.4682 20.88 12.007 20.5812 12.3963 20.128C12.7856 19.6749 12.9997 19.0974 13 18.5C13 18.4999 13 18.5001 13 18.5V15C13 14.4747 12.8965 13.9546 12.6955 13.4693C12.4945 12.984 12.1999 12.543 11.8284 12.1716C11.457 11.8001 11.016 11.5055 10.5307 11.3045C10.0454 11.1035 9.52528 11 9 11ZM20 15C19.4477 15 19 15.4477 19 16C19 16.5523 19.4477 17 20 17C20.5523 17 21 16.5523 21 16C21 15.4477 20.5523 15 20 15ZM17 16C17 14.3431 18.3431 13 20 13C21.6569 13 23 14.3431 23 16C23 17.6569 21.6569 19 20 19C18.3431 19 17 17.6569 17 16Z" fill="currentColor" style="fill="currentColor";fill-opacity:1;"/>
</svg>
