<svg width="24" height="24" viewBox="0 0 24 24" fill="none" xmlns="http://www.w3.org/2000/svg">
<path fill-rule="evenodd" clip-rule="evenodd" d="M19.8596 3.11777C19.6197 3.02438 19.3627 2.98155 19.1049 2.99219C18.8471 3.00283 18.5946 3.06668 18.3636 3.17942C18.1325 3.29215 17.9282 3.45119 17.7634 3.64599C17.7455 3.66714 17.7267 3.68754 17.7071 3.70713L4.39491 17.0194L3.42524 20.5748L6.9807 19.6051L20.2929 6.29292C20.3158 6.27003 20.3398 6.24827 20.3648 6.22771C20.5625 6.06507 20.7235 5.8637 20.8378 5.63672C20.9522 5.40977 21.0174 5.16198 21.0298 4.90911C21.0422 4.65624 21.0014 4.40346 20.9099 4.16676C20.8183 3.93006 20.6779 3.71437 20.4972 3.53365C20.3165 3.35292 20.0994 3.21115 19.8596 3.11777ZM19.0224 0.993891C19.5557 0.971886 20.088 1.06043 20.5852 1.25406C21.0825 1.44769 21.5343 1.74228 21.9114 2.11944C22.2886 2.49662 22.5829 2.94812 22.7752 3.44537C22.9676 3.94264 23.0535 4.47448 23.0274 5.0069C23.0014 5.53932 22.8639 6.06026 22.624 6.53646C22.392 6.9971 22.0692 7.40592 21.6754 7.73889L8.20713 21.2071C8.08407 21.3302 7.93104 21.419 7.76314 21.4648L2.26314 22.9648C1.91693 23.0592 1.54667 22.9609 1.29292 22.7071C1.03917 22.4534 0.940838 22.0831 1.03526 21.7369L2.53526 16.2369C2.58105 16.069 2.66986 15.916 2.79292 15.7929L16.2657 2.3201C16.605 1.92851 17.0203 1.60947 17.4865 1.382C17.9661 1.14799 18.4891 1.0159 19.0224 0.993891Z" fill="currentColor" style="fill="currentColor";fill-opacity:1;"/>
</svg>
