<svg width="24" height="24" viewBox="0 0 24 24" fill="none" xmlns="http://www.w3.org/2000/svg">
<path fill-rule="evenodd" clip-rule="evenodd" d="M19.8596 3.11765C19.6197 3.02426 19.3627 2.98143 19.1049 2.99207C18.8471 3.00271 18.5946 3.06656 18.3636 3.1793C18.1325 3.29203 17.9282 3.45107 17.7634 3.64587C17.7455 3.66702 17.7267 3.68742 17.7071 3.70701L16.4142 4.99995L19 7.58574L20.2929 6.2928C20.3158 6.26991 20.3398 6.24815 20.3648 6.22759C20.5625 6.06494 20.7235 5.86358 20.8378 5.6366C20.9522 5.40964 21.0174 5.16186 21.0298 4.90899C21.0422 4.65612 21.0014 4.40333 20.9099 4.16664C20.8183 3.92993 20.6779 3.71425 20.4972 3.53353C20.3165 3.3528 20.0994 3.21103 19.8596 3.11765ZM19.6987 9.71539C19.7016 9.71265 19.7043 9.70989 19.7071 9.70711C19.7099 9.70432 19.7127 9.70153 19.7154 9.69873L21.6754 7.73877C22.0692 7.4058 22.392 6.99698 22.624 6.53634C22.8639 6.06014 23.0014 5.5392 23.0274 5.00678C23.0535 4.47436 22.9676 3.94252 22.7752 3.44525C22.5829 2.948 22.2886 2.4965 21.9114 2.11932C21.5343 1.74216 21.0825 1.44757 20.5852 1.25394C20.088 1.06031 19.5557 0.971764 19.0224 0.993769C18.4891 1.01577 17.9661 1.14787 17.4865 1.38187C17.0203 1.60935 16.605 1.92839 16.2657 2.31998L2.79292 15.7928C2.66986 15.9159 2.58105 16.0689 2.53526 16.2368L1.03526 21.7368C0.940838 22.083 1.03917 22.4533 1.29292 22.707C1.54667 22.9608 1.91693 23.0591 2.26314 22.9647L7.76314 21.4647C7.93104 21.4189 8.08407 21.3301 8.20713 21.207L19.6987 9.71539ZM17.5858 8.99995L15 6.41417L4.39491 17.0192L3.42524 20.5747L6.9807 19.605L17.5858 8.99995Z" fill="currentColor" style="fill="currentColor";fill-opacity:1;"/>
</svg>
