<svg width="24" height="24" viewBox="0 0 24 24" fill="none" xmlns="http://www.w3.org/2000/svg">
<g clip-path="url(#clip0_168_1164)">
<path fill-rule="evenodd" clip-rule="evenodd" d="M4.59465 1.99123C5.23367 1.3553 6.09852 0.998291 7.00005 0.998291C7.90158 0.998291 8.76642 1.3553 9.40544 1.99123L9.40716 1.99294L10.7065 3.29234C10.7064 3.29215 10.7067 3.29252 10.7065 3.29234C10.7067 3.29252 10.7075 3.29326 10.7077 3.29345L12.9999 5.58573L16.4629 2.12279C17.1809 1.40482 18.1546 1.00146 19.17 1.00146C20.1854 1.00146 21.1591 1.40482 21.8771 2.12279C22.5951 2.84075 22.9984 3.81453 22.9984 4.82989C22.9984 5.84525 22.5951 6.81903 21.8771 7.537L19.7159 9.69823C19.713 9.7012 19.7101 9.70416 19.7071 9.70711C19.7042 9.71005 19.7012 9.71298 19.6982 9.71588L18.4142 10.9999L20.7063 13.2921C20.7066 13.2923 20.7068 13.2926 20.7071 13.2929C20.7074 13.2932 20.7077 13.2934 20.7079 13.2937L22.0071 14.5929C23.3376 15.9234 23.3376 18.0766 22.0071 19.4071L19.4071 22.0071C18.0766 23.3376 15.9234 23.3376 14.5929 22.0071L10.9999 18.4142L8.20711 21.207C8.08405 21.3301 7.93101 21.4189 7.76312 21.4647L2.26312 22.9647C1.91691 23.0591 1.54664 22.9607 1.29289 22.707C1.03914 22.4532 0.940815 22.083 1.03524 21.7368L2.53524 16.2368C2.58103 16.0689 2.66984 15.9158 2.79289 15.7928L5.58573 12.9999L1.99294 9.40715L1.99123 9.40544C1.3553 8.76642 0.998291 7.90158 0.998291 7.00005C0.998291 6.09852 1.3553 5.23367 1.99123 4.59465L1.99294 4.59294L4.59465 1.99123ZM7.69505 13.7191C7.69911 13.7151 7.70314 13.7112 7.70715 13.7072C7.71116 13.7031 7.71513 13.6991 7.71906 13.6951L13.695 7.71906C13.6991 7.71513 13.7031 7.71116 13.7072 7.70715C13.7112 7.70314 13.7151 7.69911 13.7191 7.69505L14.9999 6.41416L17.5857 8.99995L6.98067 19.605L3.42522 20.5747L4.39489 17.0192L7.69505 13.7191ZM18.9999 7.58573L20.4629 6.12279C20.8058 5.77989 20.9984 5.31482 20.9984 4.82989C20.9984 4.34496 20.8058 3.87989 20.4629 3.537C20.12 3.1941 19.6549 3.00146 19.17 3.00146C18.6851 3.00146 18.22 3.1941 17.8771 3.537L16.4142 4.99995L18.9999 7.58573ZM11.5857 6.99995L6.99995 11.5857L3.40886 7.99465C3.40863 7.99442 3.40909 7.99488 3.40886 7.99465C3.14634 7.73049 2.99829 7.37249 2.99829 7.00005C2.99829 6.62761 3.14564 6.27031 3.40815 6.00615C3.40839 6.00591 3.40863 6.00568 3.40886 6.00544L6.00544 3.40886C6.00568 3.40863 6.00591 3.40839 6.00615 3.40815C6.27031 3.14564 6.62761 2.99829 7.00005 2.99829C7.37249 2.99829 7.7298 3.14565 7.99396 3.40817C7.99373 3.40794 7.99419 3.4084 7.99396 3.40817L8.58579 4L7.29289 5.29289C6.90237 5.68342 6.90237 6.31658 7.29289 6.70711C7.68342 7.09763 8.31658 7.09763 8.70711 6.70711L10 5.41421L11.5857 6.99995ZM12.4142 16.9999L16.0071 20.5929C16.5566 21.1424 17.4434 21.1424 17.9929 20.5929L20.5929 17.9929C21.1424 17.4434 21.1424 16.5566 20.5929 16.0071L20 15.4142L18.7071 16.7071C18.3166 17.0976 17.6834 17.0976 17.2929 16.7071C16.9024 16.3166 16.9024 15.6834 17.2929 15.2929L18.5858 14L16.9999 12.4142L12.4142 16.9999Z" fill="currentColor" style="fill="currentColor";fill-opacity:1;"/>
</g>
<defs>
<clipPath id="clip0_168_1164">
<rect width="24" height="24" fill="white" style="fill:white;fill-opacity:1;"/>
</clipPath>
</defs>
</svg>
