<svg width="24" height="24" viewBox="0 0 24 24" fill="none" xmlns="http://www.w3.org/2000/svg">
<path fill-rule="evenodd" clip-rule="evenodd" d="M10 5C10 3.89543 10.8955 3 12 3C13.1046 3 14 3.89543 14 5C14 6.10457 13.1046 7 12 7C10.8955 7 10 6.10457 10 5ZM5.05134 7.68377C5.22599 7.15983 5.79231 6.87667 6.31625 7.05132L12 8.94591L17.6838 7.05132C18.2077 6.87667 18.7741 7.15983 18.9487 7.68377C19.1234 8.20772 18.8402 8.77404 18.3163 8.94868L13 10.7208V13.7639L15.8945 19.5528C16.1414 20.0468 15.9412 20.6474 15.4472 20.8944C14.9533 21.1414 14.3526 20.9412 14.1056 20.4472L12 16.2361L9.89445 20.4472C9.64747 20.9412 9.04679 21.1414 8.55281 20.8944C8.05884 20.6474 7.85861 20.0468 8.1056 19.5528L11 13.7639V10.7208L5.6838 8.94868C5.15986 8.77404 4.8767 8.20772 5.05134 7.68377Z" fill="currentColor" style="fill="currentColor";fill-opacity:1;"/>
</svg>
