<svg width="24" height="24" viewBox="0 0 24 24" fill="none" xmlns="http://www.w3.org/2000/svg">
<g clip-path="url(#clip0_168_1150)">
<path d="M19.89 22.93C19.8 22.93 19.71 22.93 19.62 22.92C16.39 22.57 13.25 21.45 10.54 19.69C8.02 18.09 5.84 15.91 4.24 13.39C2.47 10.66 1.36 7.51997 1.01 4.28997C0.970002 3.85997 1.01 3.44997 1.15 3.04997C1.28 2.64997 1.5 2.28997 1.78 1.97997C2.06 1.66997 2.4 1.42997 2.78 1.25997C3.17 1.08997 3.58 0.999973 4 0.999973H7C7.7 0.989973 8.42 1.24997 8.98 1.72997C9.53 2.20997 9.89 2.85997 9.99 3.58997C10.11 4.47997 10.33 5.35997 10.64 6.18997C10.84 6.72997 10.89 7.30997 10.76 7.86997C10.64 8.42997 10.36 8.94997 9.96 9.34997L9.24 10.07C10.41 11.91 11.98 13.48 13.83 14.66L14.55 13.94C14.96 13.53 15.48 13.25 16.04 13.13C16.6 13.01 17.18 13.05 17.72 13.26C18.56 13.57 19.43 13.79 20.31 13.91C21.05 14.01 21.71 14.38 22.19 14.94C22.66 15.49 22.92 16.2 22.9 16.94V19.93C22.9 20.35 22.82 20.75 22.65 21.14C22.48 21.52 22.23 21.87 21.93 22.15C21.62 22.43 21.26 22.65 20.86 22.78C20.55 22.88 20.23 22.94 19.9 22.94L19.89 22.93ZM7.02 2.99997H4C3.86 2.99997 3.73 3.02997 3.6 3.08997C3.48 3.14997 3.36 3.22997 3.27 3.32997C3.17 3.42997 3.1 3.54997 3.06 3.68997C3.02 3.81997 3 3.95997 3.01 4.09997C3.32 6.99997 4.33 9.84997 5.92 12.32C7.37 14.6 9.34 16.57 11.62 18.02C14.08 19.62 16.91 20.62 19.82 20.94C19.94 20.94 20.08 20.94 20.21 20.89C20.34 20.85 20.46 20.77 20.57 20.68C20.68 20.59 20.76 20.47 20.81 20.34C20.87 20.21 20.89 20.07 20.89 19.93V16.9C20.89 16.65 20.81 16.42 20.65 16.23C20.49 16.04 20.27 15.92 20.03 15.88C19.01 15.75 17.99 15.49 17.01 15.13C16.83 15.06 16.64 15.05 16.45 15.09C16.26 15.13 16.09 15.22 15.95 15.36L14.69 16.63C14.37 16.95 13.88 17.01 13.49 16.79C10.83 15.28 8.63 13.07 7.11 10.41C6.89 10.02 6.95 9.52997 7.27 9.20997L8.54 7.93997C8.67 7.80997 8.76 7.63997 8.8 7.44997C8.84 7.25997 8.82 7.06997 8.76 6.88997C8.4 5.90997 8.14 4.89997 8.01 3.85997C7.98 3.62997 7.86 3.40997 7.67 3.24997C7.49 3.08997 7.26 3.00997 7.02 3.00997V2.99997Z" fill="currentColor" style="fill="currentColor";fill-opacity:1;"/>
</g>
<defs>
<clipPath id="clip0_168_1150">
<rect width="21.89" height="21.93" fill="white" style="fill:white;fill-opacity:1;" transform="translate(1 1)"/>
</clipPath>
</defs>
</svg>
