<svg width="24" height="24" viewBox="0 0 24 24" fill="none" xmlns="http://www.w3.org/2000/svg">
<path d="M19.89 22.93C19.8 22.93 19.71 22.93 19.61 22.92C16.38 22.57 13.24 21.45 10.53 19.69C8.01 18.09 5.83 15.91 4.23 13.39C2.47 10.67 1.36 7.52 1.01 4.29C0.970002 3.86 1.01 3.45 1.15 3.05C1.28 2.65 1.5 2.29 1.78 1.98C2.06 1.67 2.4 1.43 2.79 1.26C3.17 1.09 3.58 0.999998 4 0.999998H7C7.69 0.969998 8.42 1.25 8.98 1.73C9.53 2.2 9.89 2.86 9.99 3.58C10.11 4.48 10.33 5.35 10.64 6.18C10.84 6.72 10.89 7.3 10.76 7.86C10.64 8.42 10.36 8.94 9.96 9.34L9.24 10.06C10.42 11.9 11.98 13.47 13.83 14.65L14.55 13.93C14.96 13.52 15.48 13.24 16.04 13.13C16.6 13.01 17.18 13.05 17.72 13.26C18.55 13.57 19.42 13.79 20.31 13.91C21.05 14.01 21.71 14.38 22.19 14.94C22.66 15.5 22.92 16.21 22.9 16.94V19.93C22.9 20.35 22.82 20.76 22.65 21.14C22.48 21.52 22.24 21.86 21.93 22.15C21.62 22.43 21.26 22.65 20.86 22.78C20.55 22.88 20.23 22.94 19.9 22.94L19.89 22.93ZM7.02 3H4C3.86 3 3.73 3.03 3.6 3.09C3.47 3.15 3.36 3.23 3.27 3.33C3.18 3.43 3.1 3.55 3.06 3.69C3.02 3.82 3 3.96 3.01 4.1C3.32 7 4.33 9.85 5.92 12.32C7.37 14.6 9.34 16.57 11.62 18.02C14.08 19.62 16.91 20.62 19.82 20.94C19.94 20.95 20.08 20.94 20.21 20.89C20.34 20.85 20.46 20.77 20.56 20.68C20.66 20.59 20.75 20.47 20.8 20.35C20.86 20.22 20.89 20.08 20.89 19.94V16.94V16.92C20.89 16.67 20.81 16.44 20.65 16.25C20.49 16.06 20.27 15.94 20.03 15.91C19 15.77 17.98 15.52 17.01 15.16C16.83 15.09 16.64 15.08 16.45 15.12C16.26 15.16 16.09 15.25 15.95 15.39L14.68 16.66C14.36 16.98 13.87 17.04 13.48 16.82C10.82 15.31 8.62 13.1 7.1 10.44C6.88 10.05 6.94 9.56 7.26 9.24L8.53 7.97C8.66 7.84 8.75 7.67 8.79 7.48C8.83 7.29 8.82 7.1 8.75 6.92C8.39 5.95 8.13 4.93 8 3.89C7.97 3.66 7.85 3.44 7.66 3.28C7.48 3.12 7.25 3.04 7.01 3.04L7.02 3ZM21.89 9H15.89C15.75 9 15.62 8.97 15.5 8.92C15.39 8.87 15.29 8.81 15.2 8.72L15.17 8.69C15.08 8.6 15.01 8.49 14.97 8.38C14.92 8.26 14.89 8.13 14.89 8V2C14.89 1.45 15.34 0.999998 15.89 0.999998C16.44 0.999998 16.89 1.45 16.89 2V5.59L21.18 1.29C21.57 0.899998 22.2 0.899998 22.59 1.29C22.98 1.68 22.98 2.31 22.59 2.7L18.3 6.99H21.89C22.44 6.99 22.89 7.44 22.89 7.99C22.89 8.54 22.44 8.99 21.89 8.99V9Z" fill="currentColor" style="fill="currentColor";fill-opacity:1;"/>
</svg>
