<svg width="24" height="24" viewBox="0 0 24 24" fill="none" xmlns="http://www.w3.org/2000/svg">
<path d="M19.89 22.93C19.8 22.93 19.71 22.93 19.61 22.92C16.38 22.57 13.24 21.45 10.53 19.69C8.01 18.09 5.83 15.91 4.23 13.39C2.47 10.67 1.36 7.51999 1.01 4.28999C0.970002 3.85999 1.01 3.43999 1.15 3.04999C1.28 2.64999 1.49 2.29999 1.78 1.98999C2.06 1.67999 2.4 1.43999 2.78 1.26999C3.17 1.08999 3.58 0.999993 4 0.999993H7C7.7 0.969993 8.42 1.24999 8.98 1.72999C9.53 2.19999 9.89 2.85999 9.99 3.57999C10.11 4.47999 10.33 5.34999 10.64 6.17999C10.84 6.71999 10.89 7.29999 10.76 7.85999C10.64 8.41999 10.36 8.93999 9.96 9.33999L9.24 10.06C10.42 11.9 11.98 13.47 13.83 14.65L14.55 13.93C14.96 13.52 15.48 13.24 16.04 13.13C16.6 13.01 17.18 13.05 17.72 13.26C18.55 13.57 19.42 13.79 20.31 13.91C21.05 14.01 21.71 14.38 22.19 14.94C22.66 15.5 22.92 16.21 22.9 16.94V19.93C22.9 20.35 22.82 20.76 22.65 21.14C22.48 21.52 22.24 21.86 21.93 22.15C21.62 22.43 21.26 22.65 20.86 22.78C20.55 22.88 20.23 22.94 19.9 22.94L19.89 22.93ZM7.02 2.99999H4C3.86 2.99999 3.73 3.02999 3.6 3.08999C3.47 3.14999 3.36 3.22999 3.27 3.32999C3.18 3.42999 3.11 3.54999 3.06 3.67999C3.02 3.80999 3 3.94999 3.01 4.08999C3.32 6.98999 4.33 9.83999 5.92 12.31C7.37 14.59 9.34 16.56 11.62 18.01C14.08 19.61 16.91 20.61 19.82 20.93C19.94 20.94 20.08 20.93 20.21 20.88C20.34 20.84 20.46 20.76 20.56 20.67C20.66 20.58 20.75 20.46 20.8 20.34C20.86 20.21 20.89 20.07 20.89 19.93V16.93V16.91C20.89 16.66 20.81 16.43 20.65 16.24C20.49 16.05 20.27 15.93 20.03 15.9C19 15.76 17.98 15.51 17.01 15.15C16.83 15.08 16.63 15.07 16.45 15.11C16.26 15.15 16.09 15.24 15.95 15.38L14.68 16.65C14.36 16.97 13.87 17.03 13.48 16.81C10.82 15.3 8.62 13.09 7.1 10.43C6.88 10.04 6.94 9.54999 7.26 9.22999L8.53 7.95999C8.66 7.82999 8.75 7.65999 8.79 7.46999C8.83 7.27999 8.82 7.08999 8.75 6.90999C8.39 5.93999 8.13 4.91999 8 3.87999C7.97 3.64999 7.85 3.42999 7.66 3.26999C7.48 3.10999 7.25 3.02999 7.01 3.02999L7.02 2.99999ZM17.89 11C17.63 11 17.38 10.9 17.18 10.71C16.79 10.32 16.79 9.68999 17.18 9.29999L19.47 7.00999H13.88C13.33 7.00999 12.88 6.55999 12.88 6.00999C12.88 5.45999 13.33 5.00999 13.88 5.00999H19.47L17.18 2.71999C16.79 2.32999 16.79 1.69999 17.18 1.30999C17.57 0.919993 18.2 0.919993 18.59 1.30999L22.59 5.30999C22.69 5.40999 22.76 5.51999 22.81 5.63999C22.86 5.75999 22.88 5.87999 22.89 6.01999C22.89 6.15999 22.86 6.28999 22.81 6.40999C22.76 6.51999 22.69 6.62999 22.6 6.71999L18.6 10.72C18.4 10.92 18.15 11.01 17.89 11.01V11Z" fill="currentColor" style="fill="currentColor";fill-opacity:1;"/>
</svg>
