<svg width="24" height="24" viewBox="0 0 24 24" fill="none" xmlns="http://www.w3.org/2000/svg">
<path d="M19.89 22.93C19.8 22.93 19.71 22.93 19.61 22.92C16.38 22.57 13.24 21.45 10.53 19.69C8.01 18.09 5.83 15.91 4.23 13.39C2.47 10.67 1.36 7.51998 1.01 4.28998C0.970002 3.85998 1.01 3.43998 1.15 3.04998C1.28 2.64998 1.49 2.29998 1.78 1.98998C2.06 1.67998 2.4 1.43998 2.78 1.26998C3.17 1.08998 3.58 0.999981 4 0.999981H7C7.73 0.999981 8.42 1.24998 8.98 1.72998C9.53 2.20998 9.89 2.85998 9.99 3.57998C10.11 4.46998 10.33 5.34998 10.64 6.17998C10.84 6.70998 10.88 7.29998 10.76 7.85998C10.64 8.41998 10.36 8.93998 9.96 9.33998L9.24 10.06C10.42 11.9 11.98 13.47 13.83 14.65L14.55 13.93C14.96 13.52 15.48 13.24 16.04 13.13C16.6 13.01 17.18 13.05 17.72 13.26C18.55 13.57 19.43 13.79 20.31 13.91C21.05 14.01 21.71 14.38 22.19 14.94C22.66 15.5 22.92 16.21 22.9 16.94V19.93C22.9 20.35 22.82 20.75 22.65 21.14C22.48 21.53 22.24 21.87 21.93 22.15C21.62 22.43 21.26 22.65 20.86 22.78C20.55 22.88 20.23 22.94 19.9 22.94L19.89 22.93ZM7.02 2.99998H4C3.86 2.99998 3.73 3.02998 3.6 3.08998C3.47 3.14998 3.36 3.22998 3.27 3.32998C3.18 3.42998 3.11 3.54998 3.06 3.67998C3.02 3.80998 3 3.94998 3.01 4.08998C3.32 6.98998 4.33 9.83998 5.92 12.31C7.37 14.59 9.34 16.56 11.62 18.01C14.08 19.61 16.92 20.61 19.82 20.93C19.94 20.94 20.08 20.93 20.21 20.88C20.34 20.84 20.46 20.76 20.56 20.67C20.66 20.57 20.75 20.46 20.8 20.33C20.86 20.2 20.88 20.06 20.88 19.93V16.92V16.9C20.88 16.65 20.8 16.42 20.64 16.23C20.48 16.04 20.26 15.92 20.02 15.89C18.99 15.76 17.98 15.5 17 15.14C16.82 15.07 16.63 15.06 16.44 15.1C16.25 15.14 16.08 15.23 15.94 15.37L14.67 16.64C14.35 16.96 13.86 17.02 13.47 16.8C10.81 15.29 8.61 13.08 7.09 10.42C6.87 10.03 6.93 9.53998 7.25 9.21998L8.52 7.94998C8.65 7.81998 8.74 7.64998 8.78 7.45998C8.82 7.26998 8.81 7.07998 8.74 6.89998C8.38 5.91998 8.12 4.89998 7.98 3.86998C7.95 3.63998 7.83 3.41998 7.64 3.25998C7.46 3.09998 7.23 3.01998 6.99 3.01998L7.02 2.99998ZM17.89 11C17.42 11 17 10.66 16.91 10.18C16.76 9.38998 16.39 8.66998 15.82 8.08998C15.25 7.51998 14.54 7.12998 13.75 6.97998C13.21 6.86998 12.86 6.34998 12.96 5.80998C13.07 5.26998 13.59 4.90998 14.13 5.01998C15.31 5.24998 16.39 5.82998 17.24 6.68998C18.09 7.54998 18.65 8.62998 18.87 9.81998C18.97 10.36 18.61 10.88 18.07 10.98C18.01 10.99 17.95 11 17.89 11ZM21.94 10.94C21.44 10.94 21.01 10.56 20.95 10.05C20.75 8.24998 19.92 6.54998 18.64 5.26998C17.35 3.98998 15.65 3.17998 13.84 2.98998C13.29 2.92998 12.89 2.43998 12.95 1.88998C13.01 1.33998 13.5 0.949981 14.05 0.999981C16.31 1.23998 18.44 2.24998 20.05 3.84998C21.66 5.44998 22.69 7.56998 22.94 9.82998C23 10.38 22.61 10.87 22.06 10.94C22.02 10.94 21.98 10.94 21.95 10.94H21.94Z" fill="currentColor" style="fill="currentColor";fill-opacity:1;"/>
</svg>
