<svg width="24" height="24" viewBox="0 0 24 24" fill="none" xmlns="http://www.w3.org/2000/svg">
<path fill-rule="evenodd" clip-rule="evenodd" d="M5 4C4.44772 4 4 4.44772 4 5V19C4 19.5523 4.44771 20 5 20H19C19.5523 20 20 19.5523 20 19V5C20 4.44771 19.5523 4 19 4H5ZM2 5C2 3.34315 3.34315 2 5 2H19C20.6569 2 22 3.34315 22 5V19C22 20.6569 20.6569 22 19 22H5C3.34315 22 2 20.6569 2 19V5ZM6 7C6 6.44772 6.44772 6 7 6H17C17.5523 6 18 6.44772 18 7C18 7.55228 17.5523 8 17 8H15V15C15 15.2652 15.1054 15.5196 15.2929 15.7071C15.4804 15.8946 15.7348 16 16 16C16.5523 16 17 16.4477 17 17C17 17.5523 16.5523 18 16 18C15.2043 18 14.4413 17.6839 13.8787 17.1213C13.3161 16.5587 13 15.7957 13 15V8H11V17C11 17.5523 10.5523 18 10 18C9.44772 18 9 17.5523 9 17V8H7C6.44772 8 6 7.55228 6 7Z" fill="currentColor" style="fill="currentColor";fill-opacity:1;"/>
</svg>
