<svg width="24" height="24" viewBox="0 0 24 24" fill="none" xmlns="http://www.w3.org/2000/svg">
<path fill-rule="evenodd" clip-rule="evenodd" d="M5.17177 2.00064C7.01069 1.44499 8.94701 1.28821 10.8514 1.54075C12.4909 1.75818 14.0742 2.27471 15.5234 3.06236L15.6 2.98574C15.9739 2.61929 16.4765 2.41406 17 2.41406C17.5235 2.41406 18.0262 2.61932 18.4 2.98578L18.4072 2.99278L21.0142 5.59988C21.3807 5.97374 21.5859 6.47641 21.5859 6.99992C21.5859 7.52343 21.3806 8.02606 21.0142 8.39992L21.0072 8.40706L20.9375 8.47667C21.7251 9.92582 22.2416 11.5091 22.459 13.1486C22.7115 15.053 22.5548 16.9893 21.9992 18.8282C21.9727 18.9159 21.9342 18.9996 21.8849 19.0769C21.6918 19.3796 21.4207 19.6247 21.1002 19.7864C20.7797 19.9482 20.4216 20.0208 20.0634 19.9964C19.7051 19.9721 19.3601 19.8518 19.0644 19.6481C18.7687 19.4444 18.5333 19.1649 18.3829 18.8389C18.3685 18.8076 18.3557 18.7757 18.3446 18.7431C17.704 16.867 16.8015 15.0925 15.6651 13.472C15.4534 13.5466 15.2287 13.5858 15 13.5858C14.9448 13.5858 14.8898 13.5835 14.8352 13.579L7.32611 21.0871C6.74075 21.6725 5.94683 22.0013 5.119 22.0013C4.29117 22.0013 3.49725 21.6725 2.91189 21.0871C2.32653 20.5018 1.99768 19.7078 1.99768 18.88C1.99768 18.0522 2.32653 17.2583 2.91189 16.6729L10.4209 9.16389C10.4164 9.10955 10.4142 9.05485 10.4142 8.99992C10.4142 8.77169 10.4532 8.54742 10.5276 8.33606C8.90713 7.19958 7.13282 6.29696 5.25681 5.65623C5.22458 5.64522 5.19293 5.63257 5.16199 5.61833C4.83551 5.4681 4.55555 5.23267 4.35153 4.9368C4.14752 4.64093 4.027 4.29556 4.00264 3.937C3.97829 3.57843 4.051 3.21994 4.21313 2.8992C4.37527 2.57846 4.62083 2.30733 4.92399 2.11433C5.00101 2.0653 5.08438 2.02705 5.17177 2.00064ZM12.5757 8.83846C12.595 8.82063 12.6138 8.80192 12.6318 8.78233L16.3787 5.0355C16.3881 5.02647 16.3973 5.01723 16.4064 5.00779L17 4.41413L19.5858 6.99992L18.9941 7.59161C18.9833 7.60199 18.9727 7.61259 18.9624 7.62338L15.2197 11.3661C15.1993 11.3848 15.1798 11.4043 15.1613 11.4244L15.0002 11.5856C15 11.5855 15.0003 11.5857 15.0002 11.5856L12.4158 9.00146C12.4154 9.00079 12.4151 9.00012 12.4147 8.99945L12.5757 8.83846ZM11.4996 10.9137L4.32611 18.0871C4.11582 18.2974 3.99768 18.5826 3.99768 18.88C3.99768 19.1774 4.11582 19.4626 4.32611 19.6729C4.5364 19.8832 4.82161 20.0013 5.119 20.0013C5.41639 20.0013 5.70161 19.8832 5.91189 19.6729L13.0858 12.4999L11.4996 10.9137ZM17.2148 12.1993C18.4657 13.9582 19.4634 15.8855 20.1777 17.9246C20.5747 16.4559 20.6767 14.9219 20.4764 13.4116C20.3174 12.2127 19.9707 11.0491 19.4513 9.96285L17.2148 12.1993ZM14.0372 4.54852L11.7997 6.78603C10.0406 5.53493 8.11316 4.53701 6.07374 3.82255C7.54289 3.42514 9.07748 3.32302 10.5884 3.5234C11.7873 3.68239 12.9509 4.02912 14.0372 4.54852Z" fill="currentColor" style="fill="currentColor";fill-opacity:1;"/>
</svg>
