<svg width="24" height="24" viewBox="0 0 24 24" fill="none" xmlns="http://www.w3.org/2000/svg">
<path fill-rule="evenodd" clip-rule="evenodd" d="M1.29289 2.79289C1.68342 2.40237 2.31658 2.40237 2.70711 2.79289L7 7.08579V4.5C7 3.94772 7.44772 3.5 8 3.5C8.55228 3.5 9 3.94772 9 4.5V9.5C9 10.0523 8.55228 10.5 8 10.5H3C2.44772 10.5 2 10.0523 2 9.5C2 8.94772 2.44772 8.5 3 8.5H5.58579L1.29289 4.20711C0.902369 3.81658 0.902369 3.18342 1.29289 2.79289ZM11 4.5C11 3.94772 11.4477 3.5 12 3.5H19C20.7123 3.5 22 4.78772 22 6.5V9.5C22 10.0523 21.5523 10.5 21 10.5C20.4477 10.5 20 10.0523 20 9.5V6.5C20 5.89228 19.6077 5.5 19 5.5H12C11.4477 5.5 11 5.05228 11 4.5ZM3 12.5C3.55228 12.5 4 12.9477 4 13.5V15.5C4 15.9977 4.50228 16.5 5 16.5H8C8.55228 16.5 9 16.9477 9 17.5C9 18.0523 8.55228 18.5 8 18.5H5C3.39772 18.5 2 17.1023 2 15.5V13.5C2 12.9477 2.44772 12.5 3 12.5ZM14 14.5C13.4477 14.5 13 14.9477 13 15.5V18.5C13 19.0523 13.4477 19.5 14 19.5H20C20.5523 19.5 21 19.0523 21 18.5V15.5C21 14.9477 20.5523 14.5 20 14.5H14ZM11 15.5C11 13.8431 12.3431 12.5 14 12.5H20C21.6569 12.5 23 13.8431 23 15.5V18.5C23 20.1569 21.6569 21.5 20 21.5H14C12.3431 21.5 11 20.1569 11 18.5V15.5Z" fill="black" style="fill:black;fill-opacity:1;"/>
</svg>
