<svg width="24" height="24" viewBox="0 0 24 24" fill="none" xmlns="http://www.w3.org/2000/svg">
<path fill-rule="evenodd" clip-rule="evenodd" d="M11.2929 1.29289C11.4804 1.10536 11.7348 1 12 1C13.4445 1 14.8749 1.28452 16.2095 1.83733C17.5441 2.39013 18.7567 3.20038 19.7782 4.22183C20.7996 5.24327 21.6099 6.4559 22.1627 7.79048C22.7155 9.12506 23 10.5555 23 12C23 12.5523 22.5523 13 22 13H12C11.4477 13 11 12.5523 11 12V2C11 1.73478 11.1054 1.48043 11.2929 1.29289ZM13 3.05573V11H20.9443C20.8505 10.1614 20.6391 9.33849 20.3149 8.55585C19.8626 7.46392 19.1997 6.47177 18.364 5.63604C17.5282 4.80031 16.5361 4.13738 15.4442 3.68508C14.6615 3.3609 13.8386 3.14949 13 3.05573ZM8.91645 2.43012C9.13734 2.93631 8.90606 3.52572 8.39988 3.74661C7.05247 4.3346 5.86961 5.2437 4.95472 6.39444C4.03982 7.54518 3.42075 8.90251 3.15161 10.3478C2.88248 11.793 2.97149 13.2822 3.41085 14.6852C3.85021 16.0881 4.62655 17.362 5.67199 18.3956C6.71744 19.4292 8.00016 20.1909 9.40801 20.6142C10.8159 21.0375 12.306 21.1095 13.7481 20.8239C15.1902 20.5383 16.5403 19.9038 17.6806 18.9758C18.8208 18.0478 19.7163 16.8546 20.2889 15.5006C20.504 14.9919 21.0907 14.7539 21.5994 14.969C22.1081 15.1841 22.3461 15.7709 22.131 16.2795C21.4312 17.9345 20.3366 19.3928 18.943 20.527C17.5494 21.6612 15.8992 22.4367 14.1366 22.7858C12.3741 23.1349 10.5528 23.0469 8.83212 22.5295C7.11141 22.0121 5.54364 21.0811 4.26588 19.8179C2.98811 18.5546 2.03925 16.9976 1.50225 15.2829C0.965257 13.5682 0.856473 11.7481 1.18541 9.98164C1.51435 8.2152 2.271 6.55624 3.38921 5.14978C4.50741 3.74332 5.95313 2.63219 7.59996 1.91355C8.10614 1.69265 8.69556 1.92393 8.91645 2.43012Z" fill="currentColor" style="fill="currentColor";fill-opacity:1;"/>
</svg>
