<svg width="24" height="24" viewBox="0 0 24 24" fill="none" xmlns="http://www.w3.org/2000/svg">
<path fill-rule="evenodd" clip-rule="evenodd" d="M16.3923 4.99058C17.0317 4.48496 17.9453 4 19 4C19.5523 4 20 4.44772 20 5V7.5918C20.3211 7.93428 20.6684 8.37821 20.8575 9H22C22.5523 9 23 9.44772 23 10V14C23 14.5523 22.5523 15 22 15H20.6635C20.2627 15.7383 19.6591 16.218 19 16.5992V20C19 20.5523 18.5523 21 18 21H14C13.4477 21 13 20.5523 13 20V19H12V20C12 20.5523 11.5523 21 11 21H7C6.44772 21 6 20.5523 6 20V16.9837C5.13175 16.2578 4.5978 15.5241 4.3064 14.6936C4.10931 14.1319 4.03886 13.5598 4.01376 13H4C2.34772 13 1 11.6523 1 10V9C1 8.44772 1.44772 8 2 8C2.55228 8 3 8.44772 3 9V10C3 10.5477 3.45228 11 4 11H4.07813C4.50425 8.35331 6.61158 6.75862 8.86974 6.00183C11.0558 5.26921 13.6227 5.21917 15.5772 5.79004C15.7955 5.52133 16.072 5.24383 16.3923 4.99058ZM10 19V18C10 17.4477 10.4477 17 11 17H14C14.5523 17 15 17.4477 15 18V19H17V16C17 15.6212 17.214 15.275 17.5528 15.1056C18.4908 14.6366 18.8658 14.3007 19.0422 13.7127C19.1691 13.2897 19.5584 13 20 13H21V11H20C19.4477 11 19 10.5523 19 10C19 9.43968 18.7824 9.1966 18.2929 8.70711C18.1054 8.51957 18 8.26522 18 8V6.30741C17.875 6.38055 17.752 6.46513 17.6327 6.55942C17.4225 6.72564 17.2477 6.90405 17.1214 7.06113C17.0044 7.20656 16.9595 7.29538 16.9503 7.31358C16.9486 7.31703 16.9481 7.31794 16.9487 7.31623C16.8602 7.58153 16.6648 7.79768 16.4097 7.91224C16.1545 8.0268 15.8631 8.02931 15.6061 7.91915C14.1167 7.28084 11.6238 7.18816 9.50526 7.89817C7.40975 8.60045 6 9.95137 6 12C6 12.938 6.01024 13.5088 6.1936 14.0314C6.35985 14.5052 6.70793 15.0309 7.6 15.7C7.85181 15.8889 8 16.1852 8 16.5V19H10Z" fill="currentColor" style="fill="currentColor";fill-opacity:1;"/>
</svg>
