<svg width="24" height="24" viewBox="0 0 24 24" fill="none" xmlns="http://www.w3.org/2000/svg">
<path fill-rule="evenodd" clip-rule="evenodd" d="M1.29289 1.29289C1.68342 0.902369 2.31658 0.902369 2.70711 1.29289L22.7071 21.2929C23.0976 21.6834 23.0976 22.3166 22.7071 22.7071C22.3166 23.0976 21.6834 23.0976 21.2929 22.7071L16.5858 18H13V22C13 22.5523 12.5523 23 12 23C11.4477 23 11 22.5523 11 22V18H5C4.44772 18 4 17.5523 4 17V15.24C4.0003 14.6819 4.15628 14.1344 4.45042 13.66C4.74388 13.1868 5.16324 12.8046 5.66154 12.5562L7.44499 11.6544C7.61159 11.5717 7.75181 11.4441 7.84986 11.2859C7.94791 11.1278 7.9999 10.9455 8 10.7595V9.41421L1.29289 2.70711C0.902369 2.31658 0.902369 1.68342 1.29289 1.29289ZM9.94029 11.3545C9.86989 11.702 9.73812 12.0359 9.54958 12.34C9.25613 12.8132 8.83678 13.1954 8.33849 13.4438L6.55501 14.3456C6.38841 14.4283 6.24819 14.5559 6.15014 14.7141C6.05219 14.872 6.0002 15.0541 6 15.24V16H14.5858L9.94029 11.3545ZM6.88989 2C6.88989 1.44772 7.33761 1 7.88989 1H15.9999C16.7955 1 17.5586 1.31607 18.1212 1.87868C18.6838 2.44129 18.9999 3.20435 18.9999 4C18.9999 4.79565 18.6838 5.55871 18.1212 6.12132C17.5586 6.68393 16.7955 7 15.9999 7V9.34C15.9999 9.89228 15.5522 10.34 14.9999 10.34C14.4476 10.34 13.9999 9.89228 13.9999 9.34V6C13.9999 5.44772 14.4476 5 14.9999 5H15.9999C16.2651 5 16.5195 4.89464 16.707 4.70711C16.8945 4.51957 16.9999 4.26522 16.9999 4C16.9999 3.73478 16.8945 3.48043 16.707 3.29289C16.5195 3.10536 16.2651 3 15.9999 3H7.88989C7.33761 3 6.88989 2.55228 6.88989 2Z" fill="currentColor" style="fill="currentColor";fill-opacity:1;"/>
</svg>
