<svg width="24" height="24" viewBox="0 0 24 24" fill="none" xmlns="http://www.w3.org/2000/svg">
<path fill-rule="evenodd" clip-rule="evenodd" d="M19.9001 2.97876C19.6027 2.97876 19.3175 3.0969 19.1072 3.30719L15.7072 6.70719C15.5197 6.89472 15.2653 7.00008 15.0001 7.00008C14.7349 7.00008 14.4805 6.89472 14.293 6.70719L13.893 6.30719C13.7888 6.20306 13.6652 6.12047 13.5292 6.06412C13.3931 6.00776 13.2473 5.97876 13.1001 5.97876C12.9528 5.97876 12.807 6.00776 12.671 6.06412C12.5349 6.12047 12.4113 6.20306 12.3072 6.30719C12.2031 6.41131 12.1205 6.53492 12.0641 6.67097C12.0078 6.80701 11.9788 6.95283 11.9788 7.10008C11.9788 7.24733 12.0078 7.39315 12.0641 7.52919C12.1205 7.66524 12.2031 7.78885 12.3072 7.89297L16.1072 11.693C16.2113 11.7971 16.3349 11.8797 16.471 11.936C16.607 11.9924 16.7528 12.0214 16.9001 12.0214C17.0473 12.0214 17.1931 11.9924 17.3292 11.936C17.4652 11.8797 17.5888 11.7971 17.693 11.693C17.7971 11.5888 17.8797 11.4652 17.936 11.3292C17.9924 11.1931 18.0214 11.0473 18.0214 10.9001C18.0214 10.7528 17.9924 10.607 17.936 10.471C17.8797 10.3349 17.7971 10.2113 17.693 10.1072L17.293 9.70719C16.9024 9.31666 16.9024 8.6835 17.293 8.29297L20.693 4.89297C20.9033 4.68268 21.0214 4.39747 21.0214 4.10008C21.0214 3.80269 20.9033 3.51748 20.693 3.30719C20.4827 3.0969 20.1975 2.97876 19.9001 2.97876ZM13.5858 12L12 10.4142L4 18.4142V20H5.58579L13.5858 12ZM2 20.5858V18C2 17.7348 2.10536 17.4804 2.29289 17.2929L10.6073 8.97852C10.449 8.76842 10.3175 8.53868 10.2164 8.29456C10.0595 7.91586 9.97876 7.50998 9.97876 7.10008C9.97876 6.69018 10.0595 6.2843 10.2164 5.9056C10.3732 5.52691 10.6031 5.18281 10.893 4.89297C11.1828 4.60313 11.5269 4.37322 11.9056 4.21636C12.2843 4.05949 12.6902 3.97876 13.1001 3.97876C13.51 3.97876 13.9159 4.05949 14.2946 4.21636C14.5387 4.31749 14.7685 4.44899 14.9786 4.60734L17.693 1.89297C18.2783 1.30761 19.0723 0.97876 19.9001 0.97876C20.7279 0.97876 21.5218 1.30761 22.1072 1.89297C22.6925 2.47833 23.0214 3.27225 23.0214 4.10008C23.0214 4.92791 22.6925 5.72183 22.1072 6.30719L19.3928 9.02155C19.5512 9.23167 19.6827 9.46145 19.7838 9.7056C19.9407 10.0843 20.0214 10.4902 20.0214 10.9001C20.0214 11.31 19.9407 11.7159 19.7838 12.0946C19.6269 12.4733 19.397 12.8173 19.1072 13.1072C18.8173 13.397 18.4733 13.6269 18.0946 13.7838C17.7159 13.9407 17.31 14.0214 16.9001 14.0214C16.4902 14.0214 16.0843 13.9407 15.7056 13.7838C15.4614 13.6827 15.2316 13.5511 15.0215 13.3928L6.70711 21.7071C6.51957 21.8946 6.26522 22 6 22H3.41421L2.70711 22.7071C2.31658 23.0976 1.68342 23.0976 1.29289 22.7071C0.902369 22.3166 0.902369 21.6834 1.29289 21.2929L2 20.5858Z" fill="currentColor" style="fill="currentColor";fill-opacity:1;"/>
</svg>
