<svg width="24" height="24" viewBox="0 0 24 24" fill="none" xmlns="http://www.w3.org/2000/svg">
<path fill-rule="evenodd" clip-rule="evenodd" d="M15.7356 1.03558C16.2592 0.892006 16.8018 1.19255 16.9578 1.71264L22.9578 21.7126C23.0635 22.065 22.9672 22.447 22.7071 22.7071C22.447 22.9672 22.065 23.0635 21.7126 22.9578L1.71264 16.9578C1.19255 16.8018 0.892006 16.2592 1.03558 15.7356C1.99936 12.2203 3.86153 9.01637 6.43895 6.43895C9.01637 3.86153 12.2203 1.99936 15.7356 1.03558ZM15.3299 3.24659C12.5165 4.17573 9.95465 5.75168 7.85316 7.85316C5.75168 9.95465 4.17573 12.5165 3.24659 15.3299L5.06611 15.8758C5.96521 13.3963 7.39864 11.14 9.26933 9.26933C11.14 7.39864 13.3963 5.96521 15.8758 5.06611L15.3299 3.24659ZM16.4515 6.9852C14.2886 7.78677 12.3201 9.04696 10.6835 10.6835C9.04696 12.3201 7.78677 14.2886 6.9852 16.4515L20.5085 20.5085L16.4515 6.9852ZM14 11C14 10.4477 14.4477 9.99999 15 9.99999H15.01C15.5623 9.99999 16.01 10.4477 16.01 11C16.01 11.5523 15.5623 12 15.01 12H15C14.4477 12 14 11.5523 14 11ZM9.99999 15C9.99999 14.4477 10.4477 14 11 14H11.01C11.5623 14 12.01 14.4477 12.01 15C12.01 15.5523 11.5623 16 11.01 16H11C10.4477 16 9.99999 15.5523 9.99999 15ZM15 16C15 15.4477 15.4477 15 16 15H16.01C16.5623 15 17.01 15.4477 17.01 16C17.01 16.5523 16.5623 17 16.01 17H16C15.4477 17 15 16.5523 15 16Z" fill="currentColor" style="fill="currentColor";fill-opacity:1;"/>
</svg>
