<svg width="24" height="24" viewBox="0 0 24 24" fill="none" xmlns="http://www.w3.org/2000/svg">
<path fill-rule="evenodd" clip-rule="evenodd" d="M6.34379 6.44601L6.34162 6.4471L8.8944 11.5527C9.01384 11.7915 9.03276 12.0683 8.94696 12.3212C8.86115 12.5741 8.67775 12.7822 8.43761 12.899L7.3132 13.4463C6.89625 13.6551 6.43634 13.7638 5.96997 13.7638C5.50108 13.7638 5.03871 13.6539 4.61998 13.4429C4.60064 13.4332 4.58162 13.4228 4.56295 13.4118L4.42577 13.3311C4.29268 13.2685 4.14729 13.2359 3.99997 13.2359C3.84368 13.2359 3.68955 13.2726 3.54997 13.3429L3.54719 13.3443L3.34162 13.4471L4.66744 16.0988L6.32892 16.3804C6.39439 16.3783 6.46043 16.3827 6.52612 16.3938C6.73386 16.4288 6.94735 16.3973 7.13612 16.3038L19.9697 9.93699C20.2441 9.79564 20.4601 9.57362 20.5955 9.30267L20.9809 8.53196C21.0081 8.47913 21.0233 8.42093 21.0252 8.36153C21.0271 8.30213 21.0157 8.24306 20.9919 8.1886C20.9681 8.13415 20.9324 8.08568 20.8875 8.04673C20.8427 8.00778 20.7897 7.97932 20.7324 7.96342L20.7226 7.9607L19.7581 7.68223C19.4213 7.58976 19.0621 7.62558 18.7501 7.78284L18.7412 7.78733L14.5544 9.84569C14.5538 9.84597 14.5533 9.84626 14.5527 9.84654C14.0523 10.0944 13.4926 10.1977 12.9367 10.1448C12.3818 10.0919 11.8526 9.88554 11.4085 9.54882L7.38638 6.5472C7.23858 6.43531 7.0626 6.36669 6.87807 6.34903C6.69442 6.33146 6.50951 6.36503 6.34379 6.44601ZM6.43771 18.3969C6.35672 18.4032 6.27452 18.3997 6.19287 18.3858L3.83287 17.9858C3.51838 17.9325 3.24819 17.7324 3.10555 17.4471L1.10555 13.4471C0.858559 12.9531 1.05878 12.3524 1.55276 12.1055L2.64997 11.5569C2.65049 11.5566 2.651 11.5563 2.65151 11.5561C3.06985 11.3456 3.53165 11.2359 3.99997 11.2359C4.46887 11.2359 4.93124 11.3458 5.34998 11.5569C5.36931 11.5666 5.38833 11.577 5.407 11.5879L5.54418 11.6686C5.67727 11.7313 5.82266 11.7638 5.96997 11.7638C6.12627 11.7638 6.2804 11.7272 6.41997 11.6569L6.43229 11.6506L6.65353 11.5431L4.10555 6.4471C3.98694 6.20988 3.96742 5.93526 4.05129 5.68365C4.13516 5.43205 4.31554 5.22406 4.55276 5.10546L5.45855 4.65256C5.95756 4.40708 6.51499 4.30515 7.06859 4.35813C7.62092 4.41098 8.14775 4.61598 8.59053 4.95029L12.6156 7.95404C12.7639 8.0669 12.9407 8.1361 13.1263 8.15377C13.3118 8.17144 13.4986 8.13691 13.6655 8.05408L13.6688 8.05248L17.8547 5.99447C18.6112 5.61465 19.482 5.52974 20.2977 5.75638L20.3073 5.75906L21.2731 6.03789C21.6145 6.1336 21.9306 6.30378 22.1984 6.53624C22.4677 6.76995 22.6816 7.06073 22.8244 7.38745C22.9672 7.71416 23.0355 8.0686 23.0242 8.42499C23.0129 8.77913 22.9234 9.12636 22.7621 9.44176L22.3844 10.1971C22.0606 10.8447 21.5382 11.3817 20.8748 11.7205L20.8644 11.7258L8.0244 18.0957C7.53173 18.3397 6.98241 18.4433 6.43771 18.3969ZM0.999975 22C0.999975 21.4477 1.44769 21 1.99997 21H22C22.5523 21 23 21.4477 23 22C23 22.5523 22.5523 23 22 23H1.99997C1.44769 23 0.999975 22.5523 0.999975 22Z" fill="black" style="fill:black;fill-opacity:1;"/>
</svg>
