<svg width="24" height="24" viewBox="0 0 24 24" fill="none" xmlns="http://www.w3.org/2000/svg">
<path fill-rule="evenodd" clip-rule="evenodd" d="M5 4C4.44772 4 4 4.44772 4 5V19C4 19.5523 4.44771 20 5 20H19C19.5523 20 20 19.5523 20 19V5C20 4.44771 19.5523 4 19 4H5ZM2 5C2 3.34315 3.34315 2 5 2H19C20.6569 2 22 3.34315 22 5V19C22 20.6569 20.6569 22 19 22H5C3.34315 22 2 20.6569 2 19V5ZM8.52814 7.11833C8.8533 6.94431 9.24784 6.96338 9.5547 7.16795L15.5547 11.1679C15.8329 11.3534 16 11.6656 16 12C16 12.3344 15.8329 12.6466 15.5547 12.8321L9.5547 16.8321C9.24784 17.0366 8.8533 17.0557 8.52814 16.8817C8.20298 16.7077 8 16.3688 8 16V8C8 7.6312 8.20298 7.29234 8.52814 7.11833ZM10 9.86852V14.1315L13.1972 12L10 9.86852Z" fill="black" style="fill:black;fill-opacity:1;"/>
</svg>
