<svg width="24" height="24" viewBox="0 0 24 24" fill="none" xmlns="http://www.w3.org/2000/svg">
<path fill-rule="evenodd" clip-rule="evenodd" d="M18.7071 2.29289C19.0976 2.68342 19.0976 3.31658 18.7071 3.70711L16.4142 6H20C20.4045 6 20.7691 6.24364 20.9239 6.61732C21.0787 6.99099 20.9931 7.42111 20.7071 7.70711L16.7071 11.7071C16.3166 12.0976 15.6834 12.0976 15.2929 11.7071C14.9024 11.3166 14.9024 10.6834 15.2929 10.2929L17.5858 8H14C13.5955 8 13.2309 7.75636 13.0761 7.38268C12.9213 7.00901 13.0069 6.57889 13.2929 6.29289L17.2929 2.29289C17.6834 1.90237 18.3166 1.90237 18.7071 2.29289ZM10.7071 10.2929C11.0976 10.6834 11.0976 11.3166 10.7071 11.7071L8.91423 13.5L10.5 15.0858L12.2929 13.2929C12.6834 12.9024 13.3166 12.9024 13.7071 13.2929C14.0976 13.6834 14.0976 14.3166 13.7071 14.7071L11.9142 16.5L12.7071 17.2929C12.8947 17.4804 13 17.7348 13 18C13 18.2652 12.8947 18.5196 12.7071 18.7071L10.4084 21.0059C10.408 21.0063 10.4075 21.0067 10.4071 21.0071M9.79782 17.212L10.5858 18L8.99293 19.5929L8.9917 19.5941C8.86163 19.7246 8.70708 19.8282 8.53691 19.8989C8.36674 19.9695 8.18429 20.0059 8.00003 20.0059C7.81577 20.0059 7.63333 19.9695 7.46315 19.8989C7.29298 19.8282 7.13843 19.7246 7.00837 19.5941L4.40714 16.9929L4.40591 16.9917C4.27539 16.8616 4.17184 16.7071 4.10117 16.5369C4.03051 16.3667 3.99414 16.1843 3.99414 16C3.99414 15.8157 4.03051 15.6333 4.10117 15.4631C4.17184 15.2929 4.27539 15.1384 4.40591 15.0083L6.00003 13.4142L6.78801 14.2022C6.78963 14.2038 6.79126 14.2055 6.79289 14.2071C6.79453 14.2087 6.79617 14.2104 6.79781 14.212L9.788 17.2022C9.78963 17.2038 9.79126 17.2055 9.79289 17.2071C9.79453 17.2087 9.79617 17.2104 9.79782 17.212ZM7.50002 12.0858L9.29289 10.2929C9.68342 9.90237 10.3166 9.90237 10.7071 10.2929M7.50002 12.0858L6.70714 11.2929C6.31662 10.9024 5.68345 10.9024 5.29293 11.2929L2.99416 13.5917C2.99392 13.5919 2.99439 13.5914 2.99416 13.5917C2.67751 13.9074 2.42556 14.2832 2.25408 14.6962C2.08248 15.1094 1.99414 15.5525 1.99414 16C1.99414 16.4475 2.08248 16.8906 2.25408 17.3038C2.42557 17.7169 2.67686 18.092 2.99354 18.4077C2.99334 18.4075 2.99375 18.4079 2.99354 18.4077L3.5858 19L1.29289 21.2929C0.902369 21.6834 0.902369 22.3166 1.29289 22.7071C1.68342 23.0976 2.31658 23.0976 2.70711 22.7071L5.00002 20.4142L5.5917 21.0059C5.5921 21.0063 5.5925 21.0067 5.5929 21.0071C5.59289 21.0071 5.59291 21.0071 5.5929 21.0071" fill="currentColor" style="fill="currentColor";fill-opacity:1;"/>
</svg>
