<svg width="24" height="24" viewBox="0 0 24 24" fill="none" xmlns="http://www.w3.org/2000/svg">
<path fill-rule="evenodd" clip-rule="evenodd" d="M9 1C9.55228 1 10 1.44772 10 2V7H14V2C14 1.44772 14.4477 1 15 1C15.5523 1 16 1.44772 16 2V7H19C19.5523 7 20 7.44772 20 8C20 8.55228 19.5523 9 19 9V11C19 12.8565 18.2625 14.637 16.9497 15.9497C15.875 17.0245 14.4868 17.7137 13 17.9282V22C13 22.5523 12.5523 23 12 23C11.4477 23 11 22.5523 11 22V17.9282C9.51321 17.7137 8.12499 17.0245 7.05025 15.9497C5.7375 14.637 5 12.8565 5 11V9C4.44772 9 4 8.55228 4 8C4 7.44772 4.44772 7 5 7H8V2C8 1.44772 8.44772 1 9 1ZM7 9V11C7 12.3261 7.52678 13.5979 8.46447 14.5355C9.40215 15.4732 10.6739 16 12 16C13.3261 16 14.5979 15.4732 15.5355 14.5355C16.4732 13.5979 17 12.3261 17 11V9H7Z" fill="currentColor" style="fill="currentColor";fill-opacity:1;"/>
</svg>
