<svg width="24" height="24" viewBox="0 0 24 24" fill="none" xmlns="http://www.w3.org/2000/svg">
<path fill-rule="evenodd" clip-rule="evenodd" d="M13.6247 1.21911C14.056 1.56412 14.1259 2.19341 13.7809 2.62467L13.0806 3.49998H14C14.3844 3.49998 14.7348 3.72032 14.9013 4.06679C15.0678 4.41325 15.021 4.8245 14.7809 5.12467L12.7809 7.62467C12.4359 8.05593 11.8066 8.12585 11.3753 7.78084C10.944 7.43583 10.8741 6.80654 11.2191 6.37528L11.9194 5.49998H11C10.6156 5.49998 10.2652 5.27963 10.0987 4.93316C9.93218 4.5867 9.979 4.17545 10.2191 3.87528L12.2191 1.37528C12.5641 0.944019 13.1934 0.874097 13.6247 1.21911ZM10 9.99998C10.5523 9.99998 11 10.4477 11 11V13H13V11C13 10.4477 13.4477 9.99998 14 9.99998C14.5523 9.99998 15 10.4477 15 11V13H16C16.5523 13 17 13.4477 17 14V16C17 18.2523 15.2523 20 13 20V22C13 22.5523 12.5523 23 12 23C11.4477 23 11 22.5523 11 22V20C8.74772 20 7 18.2523 7 16V14C7 13.4477 7.44772 13 8 13H9V11C9 10.4477 9.44772 9.99998 10 9.99998ZM9 15V16C9 17.1477 9.85228 18 11 18H13C14.1477 18 15 17.1477 15 16V15H9Z" fill="currentColor" style="fill="currentColor";fill-opacity:1;"/>
</svg>
