<svg width="24" height="24" viewBox="0 0 24 24" fill="none" xmlns="http://www.w3.org/2000/svg">
<path fill-rule="evenodd" clip-rule="evenodd" d="M5.87864 1.87868C6.44125 1.31607 7.20431 1 7.99996 1C8.73979 1 9.45144 1.27328 9.99996 1.76393C10.5485 1.27328 11.2601 1 12 1C12.7398 1 13.4514 1.27328 14 1.76393C14.5485 1.27328 15.2601 1 16 1C16.7956 1 17.5587 1.31607 18.1213 1.87868C18.4733 2.23073 18.7289 2.66127 18.8708 3.12917C19.3387 3.27112 19.7692 3.52663 20.1213 3.87868C20.6839 4.44129 21 5.20435 21 6C21 6.40308 20.9188 6.79779 20.7656 7.16232C20.9978 7.26661 21.2099 7.42086 21.3842 7.62421C21.7463 8.04659 21.8799 8.60321 21.7864 9.1644C21.7837 9.18025 21.7807 9.19604 21.7773 9.21175L19.1786 21.2056C19.0686 21.7411 18.7289 22.1734 18.3901 22.4557C18.0512 22.7382 17.5572 23 17 23H14.0104C14.0041 23.0001 13.9979 23.0001 13.9916 23H10.0083C10.002 23.0001 9.9958 23.0001 9.98956 23H6.99996C5.94431 23 5.01324 22.2822 4.81824 21.1915L2.22264 9.21175C2.21923 9.19604 2.21621 9.18025 2.21356 9.1644C2.12003 8.60321 2.25366 8.04659 2.6157 7.62421C2.79 7.42086 3.00208 7.2666 3.23427 7.16231C3.08108 6.79779 2.99996 6.40308 2.99996 6C2.99996 5.20435 3.31603 4.44129 3.87864 3.87868C4.23069 3.52663 4.66123 3.27111 5.12913 3.12917C5.27108 2.66127 5.52659 2.23073 5.87864 1.87868ZM4.22316 9L6.77728 20.7882C6.78069 20.804 6.78371 20.8197 6.78635 20.8356C6.79671 20.8977 6.82234 20.9318 6.84817 20.9531C6.87601 20.976 6.92452 21 6.99996 21H8.92599L8.06884 9H4.22316ZM8.99168 7H5.99996C5.73475 7 5.48039 6.89464 5.29286 6.70711C5.10532 6.51957 4.99996 6.26522 4.99996 6C4.99996 5.73478 5.10532 5.48043 5.29286 5.29289C5.48039 5.10536 5.73475 5 5.99996 5C6.55225 5 6.99996 4.55228 6.99996 4C6.99996 3.73478 7.10532 3.48043 7.29285 3.29289C7.48039 3.10536 7.73475 3 7.99996 3C8.26518 3 8.51953 3.10536 8.70707 3.29289C8.89461 3.48043 8.99996 3.73478 8.99996 4C8.99996 4.55228 9.44768 5 9.99996 5C10.5522 5 11 4.55228 11 4C11 3.73478 11.1053 3.48043 11.2929 3.29289C11.4804 3.10536 11.7347 3 12 3C12.2652 3 12.5195 3.10536 12.7071 3.29289C12.8946 3.48043 13 3.73478 13 4C13 4.55228 13.4477 5 14 5C14.5522 5 15 4.55228 15 4C15 3.73478 15.1053 3.48043 15.2929 3.29289C15.4804 3.10536 15.7347 3 16 3C16.2652 3 16.5195 3.10536 16.7071 3.29289C16.8946 3.48043 17 3.73478 17 4C17 4.55228 17.4477 5 18 5C18.2652 5 18.5195 5.10536 18.7071 5.29289C18.8946 5.48043 19 5.73478 19 6C19 6.26522 18.8946 6.51957 18.7071 6.70711C18.5195 6.89464 18.2652 7 18 7H15.0082C15.002 6.99994 14.9958 6.99994 14.9896 7H9.01031C9.00411 6.99994 8.9979 6.99994 8.99168 7ZM10.0739 9L10.9311 21H13.0688L13.926 9H10.0739ZM15.9311 9L15.0739 21H16.9773C16.9809 20.9987 16.9857 20.9969 16.9918 20.9943C17.0224 20.9813 17.065 20.9566 17.1098 20.9193C17.1545 20.882 17.188 20.8433 17.2085 20.8125C17.216 20.8013 17.2203 20.7934 17.2225 20.789L19.7768 9H15.9311Z" fill="currentColor" style="fill="currentColor";fill-opacity:1;"/>
</svg>
