<svg width="24" height="24" viewBox="0 0 24 24" fill="none" xmlns="http://www.w3.org/2000/svg">
<path fill-rule="evenodd" clip-rule="evenodd" d="M17.4143 3.25275C18.3883 4.11842 19 5.39536 19 6.99999C19 7.55228 18.5523 7.99999 18 7.99999C17.4477 7.99999 17 7.55228 17 6.99999C17 5.93812 16.6117 5.21519 16.0857 4.74761C15.5412 4.26367 14.7869 4.00024 14 4.00024C13.2131 4.00024 12.4588 4.26367 11.9143 4.74761C11.3883 5.21519 11 5.93812 11 6.99999V12H16C16.5523 12 17 12.4477 17 13C17 13.5523 16.5523 14 16 14H11V20H18C18.5523 20 19 20.4477 19 21C19 21.5523 18.5523 22 18 22H6C5.44772 22 5 21.5523 5 21C5 20.4477 5.44772 20 6 20H9V14H6C5.44772 14 5 13.5523 5 13C5 12.4477 5.44772 12 6 12H9V6.99999C9 5.39536 9.61172 4.11842 10.5857 3.25275C11.5412 2.40344 12.7869 2.00024 14 2.00024C15.2131 2.00024 16.4588 2.40344 17.4143 3.25275Z" fill="currentColor" style="fill="currentColor";fill-opacity:1;"/>
</svg>
