<svg width="24" height="24" viewBox="0 0 24 24" fill="none" xmlns="http://www.w3.org/2000/svg">
<path fill-rule="evenodd" clip-rule="evenodd" d="M5 4C4.44772 4 4 4.44772 4 5V19C4 19.5523 4.44771 20 5 20H19C19.5523 20 20 19.5523 20 19V5C20 4.44771 19.5523 4 19 4H5ZM2 5C2 3.34315 3.34315 2 5 2H19C20.6569 2 22 3.34315 22 5V19C22 20.6569 20.6569 22 19 22H5C3.34315 22 2 20.6569 2 19V5ZM12 6C12.5523 6 13 6.44772 13 7V12C13 12.5523 12.5523 13 12 13C11.4477 13 11 12.5523 11 12V7C11 6.44772 11.4477 6 12 6ZM8.55778 8.17C9.01618 8.47804 9.13806 9.09937 8.83002 9.55776C8.42149 10.1657 8.18156 10.8711 8.1347 11.602C8.08784 12.333 8.23574 13.0633 8.56329 13.7184C8.89085 14.3735 9.38634 14.93 9.9992 15.331C10.6077 15.7293 11.3103 15.9601 12.0362 16.0005C12.7781 16.0129 13.5086 15.816 14.144 15.4324C14.7838 15.046 15.3009 14.4861 15.6351 13.8175C15.9694 13.149 16.1071 12.3994 16.0323 11.6558C15.9575 10.9121 15.6733 10.2049 15.2126 9.61637C14.8722 9.18148 14.9487 8.55296 15.3836 8.21255C15.8185 7.87213 16.4471 7.94873 16.7875 8.38363C17.4814 9.27018 17.9096 10.3354 18.0223 11.4556C18.1349 12.5758 17.9275 13.705 17.424 14.712C16.9205 15.719 16.1416 16.5624 15.1779 17.1444C14.2141 17.7264 13.105 18.023 11.9794 17.9998C11.969 17.9996 11.9586 17.9992 11.9482 17.9987C10.8634 17.9424 9.81295 17.5994 8.90402 17.0045C7.99509 16.4097 7.26023 15.5844 6.77444 14.6128C6.28865 13.6412 6.0693 12.5581 6.1388 11.4741C6.2083 10.39 6.56414 9.34384 7.17002 8.44224C7.47806 7.98384 8.09938 7.86196 8.55778 8.17Z" fill="currentColor" style="fill="currentColor";fill-opacity:1;"/>
</svg>
