<svg width="24" height="24" viewBox="0 0 24 24" fill="none" xmlns="http://www.w3.org/2000/svg">
<path fill-rule="evenodd" clip-rule="evenodd" d="M1.29289 1.29289C1.68342 0.902369 2.31658 0.902369 2.70711 1.29289L6.85629 5.44207C6.863 5.4486 6.86964 5.45524 6.8762 5.46199L19.538 18.1238C19.5447 18.1303 19.5513 18.1369 19.5577 18.1435L22.7071 21.2929C23.0976 21.6834 23.0976 22.3166 22.7071 22.7071C22.3166 23.0976 21.6834 23.0976 21.2929 22.7071L18.8622 20.2764C18.1263 20.9806 17.2855 21.5698 16.368 22.0219C15.1245 22.6346 13.7671 22.9821 12.3821 23.0422C10.9971 23.1024 9.61477 22.8739 8.32278 22.3713C7.0308 21.8687 5.85743 21.103 4.87717 20.1227C3.89691 19.1424 3.13118 17.9691 2.62858 16.6771C2.12599 15.3851 1.89751 14.0027 1.95766 12.6178C2.01781 11.2328 2.36527 9.8754 2.97798 8.63186C3.43005 7.71435 4.01923 6.87359 4.72347 6.13769L1.29289 2.70711C0.902369 2.31658 0.902369 1.68342 1.29289 1.29289ZM6.13811 7.55233C5.58811 8.13342 5.12718 8.79501 4.77203 9.51582C4.28186 10.5107 4.0039 11.5965 3.95578 12.7045C3.90766 13.8125 4.09044 14.9184 4.49252 15.952C4.89459 16.9856 5.50718 17.9243 6.29139 18.7085C7.0756 19.4927 8.01429 20.1053 9.04788 20.5074C10.0815 20.9094 11.1874 21.0922 12.2954 21.0441C13.4033 20.996 14.4892 20.718 15.4841 20.2278C16.2049 19.8727 16.8665 19.4118 17.4476 18.8618L6.13811 7.55233ZM11 6V2C11 1.44772 11.4477 1 12 1C12.5523 1 13 1.44772 13 2V6C13 6.55228 12.5523 7 12 7C11.4477 7 11 6.55228 11 6ZM17.6532 5.93261C18.0438 5.54218 18.677 5.54234 19.0674 5.93296C20.2625 7.12868 21.135 8.60788 21.6033 10.2323C22.0716 11.8568 22.1204 13.5734 21.7452 15.2218C21.6226 15.7604 21.0867 16.0975 20.5482 15.9749C20.0096 15.8524 19.6725 15.3164 19.795 14.7779C20.0952 13.4592 20.0562 12.0859 19.6816 10.7863C19.3069 9.48677 18.6089 8.3034 17.6528 7.34683C17.2624 6.95621 17.2626 6.32304 17.6532 5.93261Z" fill="currentColor" style="fill="currentColor";fill-opacity:1;"/>
</svg>
