<svg width="24" height="24" viewBox="0 0 24 24" fill="none" xmlns="http://www.w3.org/2000/svg">
<path fill-rule="evenodd" clip-rule="evenodd" d="M12 1C12.5523 1 13 1.44772 13 2V12C13 12.5523 12.5523 13 12 13C11.4477 13 11 12.5523 11 12V2C11 1.44772 11.4477 1 12 1ZM17.6931 5.89286C18.0837 5.50241 18.7168 5.50252 19.1073 5.89312C20.5036 7.28991 21.455 9.06887 21.8415 11.0057C22.2281 12.9425 22.0324 14.9503 21.2793 16.7761C20.5262 18.6019 19.2494 20.1637 17.6098 21.2648C15.9701 22.3658 14.0412 22.9567 12.0662 22.9628C10.0913 22.969 8.15867 22.3903 6.5122 21.2995C4.86572 20.2088 3.57909 18.6549 2.81456 16.8339C2.05003 15.0129 1.84185 13.0063 2.21626 11.0671C2.59067 9.12796 3.5309 7.34307 4.9184 5.93757C5.3064 5.54453 5.93955 5.54045 6.33258 5.92845C6.72562 6.31644 6.7297 6.9496 6.3417 7.34263C5.23171 8.46703 4.47952 9.89494 4.17999 11.4463C3.88046 12.9976 4.04701 14.6029 4.65863 16.0597C5.27025 17.5165 6.29956 18.7596 7.61674 19.6322C8.93392 20.5048 10.48 20.9678 12.06 20.9628C13.64 20.9579 15.1831 20.4852 16.4948 19.6044C17.8065 18.7236 18.828 17.4741 19.4305 16.0135C20.0329 14.5528 20.1894 12.9465 19.8802 11.3971C19.571 9.84767 18.8098 8.4245 17.6928 7.30707C17.3024 6.91648 17.3025 6.28331 17.6931 5.89286Z" fill="currentColor" style="fill="currentColor";fill-opacity:1;"/>
</svg>
