<svg width="24" height="24" viewBox="0 0 24 24" fill="none" xmlns="http://www.w3.org/2000/svg">
<path fill-rule="evenodd" clip-rule="evenodd" d="M12 3C7.02944 3 3 7.02944 3 12C3 16.9706 7.02944 21 12 21C16.9706 21 21 16.9706 21 12C21 7.02944 16.9706 3 12 3ZM1 12C1 5.92487 5.92487 1 12 1C18.0751 1 23 5.92487 23 12C23 18.0751 18.0751 23 12 23C5.92487 23 1 18.0751 1 12ZM12 5C12.5523 5 13 5.44772 13 6V12C13 12.5523 12.5523 13 12 13C11.4477 13 11 12.5523 11 12V6C11 5.44772 11.4477 5 12 5ZM15.2501 6.83858C15.6154 6.42436 16.2473 6.38469 16.6615 6.74999C17.7303 7.69251 18.4859 8.93876 18.8275 10.3222C19.1691 11.7057 19.0803 13.1604 18.573 14.492C18.0657 15.8237 17.1641 16.9688 15.9886 17.7743C14.8131 18.5799 13.4198 19.0075 11.9948 19C11.9845 18.9999 11.9742 18.9997 11.9639 18.9993C10.5696 18.9489 9.2211 18.4887 8.08679 17.6763C6.95249 16.8639 6.08267 15.7354 5.58599 14.4316C5.0893 13.1278 4.98776 11.7065 5.29405 10.3453C5.60033 8.98418 6.30087 7.74341 7.30816 6.77803C7.70689 6.39589 8.33992 6.40934 8.72206 6.80807C9.1042 7.2068 9.09075 7.83983 8.69202 8.22197C7.96847 8.91541 7.46527 9.80666 7.24526 10.7844C7.02525 11.7621 7.09819 12.783 7.45496 13.7196C7.81174 14.6561 8.43653 15.4668 9.25132 16.0503C10.0619 16.6308 11.0248 16.961 12.0208 17.0001C13.0332 17.0023 14.0226 16.697 14.858 16.1245C15.6976 15.5492 16.3416 14.7312 16.704 13.7801C17.0663 12.8289 17.1298 11.7898 16.8858 10.8016C16.6418 9.81343 16.1021 8.92324 15.3387 8.25001C14.9244 7.88472 14.8848 7.2528 15.2501 6.83858Z" fill="currentColor" style="fill="currentColor";fill-opacity:1;"/>
</svg>
