<svg width="24" height="24" viewBox="0 0 24 24" fill="none" xmlns="http://www.w3.org/2000/svg">
<path fill-rule="evenodd" clip-rule="evenodd" d="M9 2C9.55228 2 10 2.44772 10 3V6C10 6.55228 9.55228 7 9 7C8.44772 7 8 6.55228 8 6V3C8 2.44772 8.44772 2 9 2ZM2.29289 4.29289C2.68342 3.90237 3.31658 3.90237 3.70711 4.29289L5.70711 6.29289C6.09763 6.68342 6.09763 7.31658 5.70711 7.70711C5.31658 8.09763 4.68342 8.09763 4.29289 7.70711L2.29289 5.70711C1.90237 5.31658 1.90237 4.68342 2.29289 4.29289ZM15.7071 4.29289C16.0976 4.68342 16.0976 5.31658 15.7071 5.70711L13.7071 7.70711C13.3166 8.09763 12.6834 8.09763 12.2929 7.70711C11.9024 7.31658 11.9024 6.68342 12.2929 6.29289L14.2929 4.29289C14.6834 3.90237 15.3166 3.90237 15.7071 4.29289ZM9 11C7.89543 11 7 11.8954 7 13C7 14.1046 7.89543 15 9 15C10.1046 15 11 14.1046 11 13C11 11.8954 10.1046 11 9 11ZM5.53513 11C6.22675 9.8044 7.51944 9 9 9C10.4806 9 11.7733 9.8044 12.4649 11H20C20.7957 11 21.5587 11.3161 22.1213 11.8787C22.6839 12.4413 23 13.2043 23 14V18C23 18.7957 22.6839 19.5587 22.1213 20.1213C21.5587 20.6839 20.7957 21 20 21H4C3.20435 21 2.44129 20.6839 1.87868 20.1213C1.31607 19.5587 1 18.7957 1 18V14C1 13.2044 1.31607 12.4413 1.87868 11.8787C2.44129 11.3161 3.20435 11 4 11H5.53513ZM5 13H4C3.73478 13 3.48043 13.1054 3.29289 13.2929C3.10536 13.4804 3 13.7348 3 14V18C3 18.2652 3.10536 18.5196 3.29289 18.7071C3.48043 18.8946 3.73478 19 4 19H20C20.2652 19 20.5196 18.8946 20.7071 18.7071C20.8946 18.5196 21 18.2652 21 18V14C21 13.7348 20.8946 13.4804 20.7071 13.2929C20.5196 13.1054 20.2652 13 20 13H13C13 15.2091 11.2091 17 9 17C6.79086 17 5 15.2091 5 13ZM15 16C15 15.4477 15.4477 15 16 15H18C18.5523 15 19 15.4477 19 16C19 16.5523 18.5523 17 18 17H16C15.4477 17 15 16.5523 15 16Z" fill="currentColor" style="fill="currentColor";fill-opacity:1;"/>
</svg>
