<svg width="24" height="24" viewBox="0 0 24 24" fill="none" xmlns="http://www.w3.org/2000/svg">
<g clip-path="url(#clip0_168_1050)">
<path d="M12 23C11.55 23 11.11 22.91 10.7 22.74C10.28 22.57 9.91003 22.32 9.59003 22L8.02003 20.43C7.97003 20.43 7.85003 20.54 7.76003 20.76C7.55003 21.3 7.20003 21.79 6.76003 22.16C6.32003 22.54 5.78003 22.8 5.22003 22.92C4.65003 23.04 4.06003 23.01 3.50003 22.85C2.94003 22.68 2.43003 22.38 2.02003 21.97C1.61003 21.56 1.31003 21.05 1.14003 20.49C0.970026 19.93 0.950026 19.34 1.07003 18.77C1.19003 18.2 1.45003 17.67 1.82003 17.23C2.19003 16.79 2.68003 16.44 3.22003 16.23C3.45003 16.14 3.55003 16.02 3.56003 15.99L1.98003 14.4C1.66003 14.08 1.41003 13.71 1.24003 13.3C1.09003 12.89 1.00003 12.45 1.00003 12C1.00003 11.09 1.35003 10.23 2.00003 9.58999L3.53003 8.05999C3.99003 7.59999 4.66003 7.37999 5.30003 7.46999C6.11003 7.58999 6.78003 8.17999 7.15003 9.08999C7.24003 9.31999 7.39003 9.51999 7.58003 9.67999C7.77003 9.83999 8.00003 9.94999 8.24003 9.98999C8.48003 10.04 8.73003 10.03 8.97003 9.95999C9.21003 9.88999 9.42003 9.75999 9.60003 9.57999C9.78003 9.39999 9.90003 9.18999 9.98003 8.94999C10.05 8.70999 10.06 8.45999 10.01 8.21999C9.96003 7.97999 9.85003 7.74999 9.69003 7.55999C9.53003 7.36999 9.33003 7.21999 9.10003 7.12999C8.19003 6.75999 7.60003 6.08999 7.48003 5.27999C7.38003 4.62999 7.60003 3.96999 8.06003 3.50999L9.58003 1.98999C9.90003 1.66999 10.27 1.41999 10.69 1.24999C11.1 1.07999 11.54 0.98999 11.99 0.98999C12.9 0.98999 13.76 1.33999 14.4 1.98999L15.97 3.55999C16.02 3.55999 16.14 3.45999 16.23 3.22999C16.44 2.68999 16.79 2.20999 17.23 1.82999C17.67 1.44999 18.21 1.18999 18.77 1.06999C19.34 0.94999 19.93 0.97999 20.49 1.13999C21.05 1.30999 21.56 1.60999 21.97 2.01999C22.38 2.42999 22.68 2.93999 22.85 3.49999C23.02 4.05999 23.04 4.64999 22.92 5.21999C22.8 5.78999 22.54 6.31999 22.16 6.75999C21.79 7.19999 21.3 7.54999 20.76 7.75999C20.53 7.84999 20.43 7.95999 20.42 7.98999C20.42 7.98999 20.42 7.99999 20.42 8.00999L21.99 9.57999C22.63 10.22 22.99 11.08 22.99 11.99C22.99 12.9 22.64 13.76 21.99 14.4L20.38 16.01C20.16 16.23 19.89 16.39 19.6 16.49C19.31 16.59 18.99 16.61 18.69 16.57C17.91 16.45 17.25 15.87 16.93 15.01C16.84 14.77 16.7 14.56 16.51 14.4C16.32 14.24 16.09 14.12 15.85 14.07C15.6 14.02 15.35 14.02 15.11 14.1C14.87 14.17 14.65 14.3 14.47 14.48C14.29 14.66 14.16 14.88 14.09 15.12C14.02 15.36 14.01 15.62 14.06 15.87C14.11 16.11 14.23 16.34 14.39 16.53C14.56 16.72 14.77 16.87 15 16.95C15.87 17.27 16.45 17.93 16.57 18.71C16.62 19.01 16.59 19.33 16.49 19.63C16.39 19.92 16.23 20.19 16.01 20.41L14.4 22.02C14.08 22.34 13.71 22.59 13.29 22.76C12.88 22.93 12.44 23.02 11.99 23.02L12 23ZM8.00003 18.43C8.21003 18.43 8.43003 18.46 8.63003 18.53C8.93003 18.63 9.21003 18.8 9.43003 19.02L11 20.59C11.13 20.72 11.29 20.83 11.46 20.9C11.8 21.04 12.2 21.04 12.54 20.9C12.71 20.83 12.87 20.73 13 20.59L14.61 18.98C14.61 18.98 14.5 18.89 14.32 18.82C13.77 18.62 13.28 18.28 12.9 17.83C12.52 17.39 12.25 16.85 12.12 16.28C12 15.71 12.02 15.11 12.18 14.55C12.34 13.99 12.65 13.47 13.06 13.06C13.47 12.65 13.99 12.34 14.55 12.18C15.11 12.01 15.71 11.99 16.28 12.12C16.85 12.24 17.39 12.51 17.83 12.9C18.27 13.29 18.61 13.78 18.82 14.33C18.89 14.51 18.98 14.6 19.01 14.62L20.59 13.01C20.86 12.74 21 12.39 21 12.01C21 11.63 20.85 11.28 20.59 11.01L19.02 9.43999C18.57 8.98999 18.35 8.33999 18.45 7.70999C18.57 6.91999 19.16 6.24999 20.04 5.90999C20.27 5.81999 20.48 5.66999 20.64 5.47999C20.8 5.28999 20.91 5.05999 20.96 4.81999C21.01 4.57999 21 4.31999 20.93 4.07999C20.86 3.83999 20.73 3.61999 20.55 3.44999C20.37 3.27999 20.16 3.13999 19.92 3.06999C19.68 2.99999 19.43 2.98999 19.18 3.03999C18.94 3.08999 18.71 3.19999 18.52 3.35999C18.33 3.51999 18.18 3.72999 18.09 3.95999C17.75 4.83999 17.07 5.43999 16.29 5.54999C15.66 5.63999 15.01 5.42999 14.56 4.97999L12.99 3.40999C12.72 3.13999 12.37 2.99999 11.99 2.99999C11.8 2.99999 11.62 3.03999 11.45 3.10999C11.28 3.17999 11.13 3.27999 10.99 3.41999L9.46003 4.94999C9.45003 5.05999 9.57003 5.19999 9.84003 5.30999C10.37 5.52999 10.85 5.87999 11.22 6.31999C11.59 6.75999 11.84 7.29999 11.96 7.85999C12.07 8.41999 12.05 9.00999 11.88 9.55999C11.71 10.11 11.41 10.62 11 11.02C10.59 11.43 10.09 11.73 9.54003 11.9C8.99003 12.07 8.40003 12.09 7.84003 11.98C7.28003 11.87 6.74003 11.61 6.30003 11.25C5.86003 10.88 5.51003 10.41 5.29003 9.86999C5.18003 9.60999 5.04003 9.47999 5.00003 9.46999L3.41003 11.02C3.14003 11.29 3.00003 11.64 3.00003 12.02C3.00003 12.21 3.04003 12.39 3.11003 12.56C3.18003 12.73 3.28003 12.88 3.42003 13.02L4.99003 14.59C5.21003 14.81 5.38003 15.09 5.48003 15.39C5.58003 15.68 5.60003 16.01 5.56003 16.32C5.44003 17.11 4.85003 17.79 3.96003 18.13C3.73003 18.22 3.52003 18.37 3.36003 18.56C3.20003 18.75 3.09003 18.98 3.04003 19.22C2.99003 19.46 3.00003 19.72 3.07003 19.96C3.14003 20.2 3.27003 20.42 3.45003 20.59C3.63003 20.76 3.84003 20.9 4.08003 20.97C4.32003 21.04 4.58003 21.05 4.82003 21C5.06003 20.95 5.29003 20.84 5.48003 20.67C5.67003 20.51 5.82003 20.3 5.91003 20.07C6.25003 19.19 6.93003 18.59 7.71003 18.48C7.81003 18.47 7.91003 18.46 8.01003 18.46L8.00003 18.43Z" fill="currentColor" style="fill="currentColor";fill-opacity:1;"/>
</g>
<defs>
<clipPath id="clip0_168_1050">
<rect width="22" height="22" fill="white" style="fill:white;fill-opacity:1;" transform="translate(1 1)"/>
</clipPath>
</defs>
</svg>
