<svg width="24" height="24" viewBox="0 0 24 24" fill="none" xmlns="http://www.w3.org/2000/svg">
<path fill-rule="evenodd" clip-rule="evenodd" d="M13 4.448L20.9976 16.009L21.0008 16.0136L13 20.5828V4.448ZM11 20.5828L3.00418 16.0164L11 4.44914V20.5828ZM12 1C12.0338 1 12.0672 1.00168 12.1001 1.00495C12.3875 1.01935 12.6689 1.09565 12.9248 1.2291C13.2103 1.37801 13.4557 1.59366 13.64 1.85771L13.6424 1.86116L22.6392 14.8666C22.6399 14.8675 22.6405 14.8685 22.6412 14.8694C22.7993 15.096 22.9087 15.353 22.9625 15.624C23.0165 15.8961 23.0134 16.1766 22.9532 16.4475C22.893 16.7183 22.7771 16.9737 22.6129 17.1974C22.4486 17.421 22.2396 17.6081 21.9992 17.7466L21.9959 17.7484L13.485 22.609C13.0325 22.8667 12.5208 23.0023 12 23.0023C11.4793 23.0023 10.9675 22.8667 10.515 22.609L1.99584 17.7437C1.7583 17.6051 1.55194 17.4189 1.3896 17.1968C1.22727 16.9748 1.11249 16.7216 1.05242 16.4532C0.992355 16.1848 0.988302 15.9069 1.04051 15.6368C1.09272 15.3668 1.20008 15.1104 1.35586 14.8837L1.35741 14.8815L10.3574 1.86146L10.36 1.85771C10.5443 1.59366 10.7897 1.37801 11.0752 1.2291C11.3311 1.09566 11.6124 1.01935 11.8999 1.00495C11.9328 1.00168 11.9662 1 12 1Z" fill="currentColor" style="fill="currentColor";fill-opacity:1;"/>
</svg>
