<svg width="24" height="24" viewBox="0 0 24 24" fill="none" xmlns="http://www.w3.org/2000/svg">
<path fill-rule="evenodd" clip-rule="evenodd" d="M15.8787 1.87868C16.4413 1.31607 17.2043 1 18 1C18.7957 1 19.5587 1.31607 20.1213 1.87868C20.6839 2.44129 21 3.20435 21 4V8.11132C22.2359 9.37505 23 11.102 23 12.9999V13.9999C23 14.7956 22.6839 15.5586 22.1213 16.1212C21.5587 16.6838 20.7957 16.9999 20 16.9999H19C18.4696 16.9999 17.9609 17.2106 17.5858 17.5857C17.2349 17.9366 17.0279 18.4044 17.0026 18.8975C17.0087 19.1364 16.9935 19.3764 16.9564 19.6146C16.9362 19.7447 16.9096 19.8732 16.8769 19.9999H18C18.5523 19.9999 19 20.4476 19 20.9999C19 21.5522 18.5523 21.9999 18 21.9999H15.2534C15.2442 22 15.2351 22 15.2259 21.9999H10C8.67392 21.9999 7.40215 21.4731 6.46447 20.5355C5.76574 19.8367 5.29517 18.9525 5.10071 17.9985C4.77019 18.0068 4.43829 17.9742 4.11269 17.9001C3.36954 17.731 2.69016 17.3531 2.15453 16.8109C1.6189 16.2687 1.24932 15.5848 1.08929 14.8396C0.929264 14.0945 0.98545 13.3191 1.25124 12.6048C1.51702 11.8905 1.98134 11.267 2.58954 10.8077C3.19774 10.3484 3.9245 10.0724 4.68427 10.0122C5.44403 9.95207 6.20518 10.1102 6.87811 10.468C7.16774 10.622 7.43584 10.8103 7.67718 11.0277C8.64144 10.1682 9.79382 9.56007 11.0317 9.24582L8.89289 7.10703C8.61619 6.83032 8.39669 6.50182 8.24693 6.14028C8.09718 5.77874 8.0201 5.39124 8.0201 4.99992C8.0201 4.2096 8.33405 3.45165 8.89289 2.89281C9.45173 2.33397 10.2097 2.02002 11 2.02002C11.3913 2.02002 11.7788 2.0971 12.1404 2.24685C12.5019 2.3966 12.8304 2.6161 13.1071 2.89281L15 4.7857V4C15 3.20435 15.3161 2.44129 15.8787 1.87868ZM17 6.07153C17.7056 6.17341 18.3778 6.3814 19 6.67868V4C19 3.73478 18.8946 3.48043 18.7071 3.29289C18.5196 3.10536 18.2652 3 18 3C17.7348 3 17.4804 3.10536 17.2929 3.29289C17.1054 3.48043 17 3.73478 17 4V6.07153ZM19.2904 9.24461C18.4091 8.4708 17.2564 7.99992 16 7.99992H15.8C15.5348 7.99992 15.2804 7.89456 15.0929 7.70703L11.6929 4.30703C11.6019 4.21603 11.4939 4.14385 11.375 4.09461C11.2561 4.04537 11.1287 4.02002 11 4.02002C10.7401 4.02002 10.4909 4.12326 10.3071 4.30703C10.1233 4.49079 10.0201 4.74003 10.0201 4.99992C10.0201 5.1286 10.0454 5.25602 10.0947 5.37491C10.1439 5.4938 10.2161 5.60182 10.3071 5.69281L13.9071 9.29281C14.1931 9.57881 14.2787 10.0089 14.1239 10.3826C13.9691 10.7563 13.6045 10.9999 13.2 10.9999H13C11.4087 10.9999 9.88258 11.6321 8.75736 12.7573C7.69877 13.8159 7.07659 15.2293 7.00662 16.718C7.01609 16.8062 7.01357 16.8941 7.00003 16.9795C7.00001 16.9863 7 16.9931 7 16.9999C7 17.7956 7.31607 18.5586 7.87868 19.1212C8.44129 19.6838 9.20435 19.9999 10 19.9999H14.736C14.8589 19.7871 14.9421 19.5524 14.9802 19.3073C14.9923 19.2294 14.9998 19.1511 15.0026 19.0728C15.0009 19.0487 15 19.0244 15 18.9999C15 18.9657 15.0004 18.9316 15.0013 18.8975C14.9887 18.6517 14.9307 18.4091 14.8291 18.1823C14.6712 17.8298 14.4145 17.5305 14.0902 17.3207C13.7658 17.1109 13.3876 16.9995 13.0013 17C12.449 17.0007 12.0007 16.5536 12 16.0013C11.9993 15.449 12.4464 15.0007 12.9987 15C13.7713 14.999 14.5277 15.2218 15.1764 15.6414C15.4843 15.8405 15.7617 16.08 16.0019 16.352C16.0564 16.2903 16.113 16.2301 16.1716 16.1715C16.9217 15.4213 17.9391 14.9999 19 14.9999H20C20.2652 14.9999 20.5196 14.8946 20.7071 14.707C20.8946 14.5195 21 14.2651 21 13.9999V12.9999C21 11.5495 20.3724 10.2372 19.3757 9.32125C19.3458 9.29733 19.3173 9.27174 19.2904 9.24461ZM5.06286 15.9988C5.21955 14.7563 5.66568 13.57 6.36188 12.535C6.23526 12.4173 6.09329 12.3159 5.93911 12.2339C5.60265 12.055 5.22208 11.9759 4.8422 12.006C4.46231 12.0361 4.09893 12.1741 3.79483 12.4037C3.49073 12.6334 3.25857 12.9451 3.12568 13.3023C2.99279 13.6594 2.96469 14.0471 3.04471 14.4197C3.12472 14.7923 3.30951 15.1342 3.57733 15.4053C3.84514 15.6764 4.18483 15.8654 4.55641 15.9499C4.72329 15.9879 4.89349 16.0041 5.06286 15.9988ZM18.01 13H18C17.4477 13 17 12.5523 17 12C17 11.4477 17.4477 11 18 11H18.01C18.5623 11 19.01 11.4477 19.01 12C19.01 12.5523 18.5623 13 18.01 13Z" fill="currentColor" style="fill="currentColor";fill-opacity:1;"/>
</svg>
