<svg width="24" height="24" viewBox="0 0 24 24" fill="none" xmlns="http://www.w3.org/2000/svg">
<path fill-rule="evenodd" clip-rule="evenodd" d="M6.48948 2.47432C8.58766 1.26127 11.0277 0.775121 13.4306 1.09139C15.8335 1.40767 18.0646 2.50866 19.7775 4.22332C20.1676 4.61391 20.1675 5.24679 19.7771 5.63716L14.7076 10.7066C14.895 11.0982 15 11.5368 15 12C15 13.6569 13.6569 15 12 15C10.3431 15 9 13.6569 9 12C9 10.3431 10.3431 9 12 9C12.4631 9 12.9018 9.10495 13.2934 9.29236L14.7569 7.82886C14.4716 7.63884 14.1668 7.47817 13.8471 7.34987C13.2158 7.09656 12.5395 6.97473 11.8595 6.99181C11.1795 7.0089 10.5102 7.16454 9.89244 7.44923C9.27469 7.73391 8.72151 8.14165 8.26677 8.64749C7.81203 9.15333 7.46527 9.74663 7.24773 10.3911C7.03018 11.0356 6.94642 11.7176 7.00157 12.3956C7.05671 13.0736 7.24961 13.7331 7.56845 14.334C7.88729 14.9348 8.32537 15.4643 8.85588 15.89C9.28664 16.2356 9.35563 16.865 9.00999 17.2958C8.66434 17.7265 8.03495 17.7955 7.60419 17.4499C6.86147 16.8539 6.24816 16.1126 5.80178 15.2715C5.35541 14.4303 5.08536 13.5069 5.00815 12.5578C4.93095 11.6086 5.04821 10.6537 5.35278 9.75145C5.65734 8.84919 6.14279 8.01856 6.77943 7.31039C7.41608 6.60221 8.19052 6.03138 9.05538 5.63283C9.92023 5.23427 10.8573 5.01636 11.8093 4.99244C12.7613 4.96853 13.7081 5.1391 14.5919 5.49372C15.1635 5.7231 15.701 6.02636 16.1911 6.39472L17.6168 4.96902C16.3399 3.94766 14.8033 3.28932 13.1696 3.07429C11.2036 2.81552 9.2072 3.21328 7.4905 4.20578C7.01238 4.4822 6.40069 4.31869 6.12426 3.84056C5.84784 3.36244 6.01135 2.75075 6.48948 2.47432ZM12.6505 11.2405C12.4756 11.0906 12.2484 11 12 11C11.4477 11 11 11.4477 11 12C11 12.5523 11.4477 13 12 13C12.5523 13 13 12.5523 13 12C13 11.7516 12.9094 11.5244 12.7595 11.3495C12.7402 11.3329 12.7213 11.3154 12.7029 11.297C12.6846 11.2787 12.6671 11.2598 12.6505 11.2405ZM3 6C3 5.44772 3.44772 5 4 5H4.01C4.56228 5 5.01 5.44772 5.01 6C5.01 6.55229 4.56228 7 4.01 7H4C3.44772 7 3 6.55229 3 6ZM20.9446 7.41926C21.4586 7.21744 22.039 7.47058 22.2408 7.98467C22.8729 9.5947 23.1164 11.3311 22.9515 13.0529C22.7866 14.7746 22.2181 16.4333 21.292 17.8941C20.3659 19.3549 19.1083 20.5768 17.6214 21.4604C16.1346 22.3441 14.4603 22.8647 12.7344 22.9799C11.0086 23.0952 9.27998 22.8018 7.68881 22.1237C6.09765 21.4455 4.68882 20.4017 3.57672 19.077C2.46462 17.7522 1.68059 16.1839 1.28827 14.4994C0.895961 12.8148 0.906428 11.0614 1.31882 9.38167C1.4505 8.84531 1.99205 8.51726 2.52841 8.64894C3.06477 8.78062 3.39282 9.32217 3.26114 9.85853C2.92373 11.2329 2.91517 12.6674 3.23615 14.0457C3.55713 15.424 4.19861 16.7072 5.10852 17.791C6.01842 18.8749 7.17109 19.7289 8.47295 20.2838C9.77482 20.8386 11.1892 21.0787 12.6012 20.9844C14.0132 20.8901 15.3831 20.4642 16.5997 19.7412C17.8162 19.0182 18.8451 18.0185 19.6028 16.8232C20.3605 15.628 20.8257 14.271 20.9606 12.8622C21.0955 11.4535 20.8963 10.0328 20.3791 8.71553C20.1773 8.20144 20.4305 7.62108 20.9446 7.41926ZM17.9329 10.6615C18.4843 10.63 18.9569 11.0514 18.9884 11.6028C19.0519 12.7128 18.85 13.8218 18.3996 14.8383C17.9492 15.8547 17.2632 16.7492 16.3984 17.4478C15.9688 17.7949 15.3391 17.7279 14.9921 17.2983C14.6451 16.8687 14.712 16.239 15.1417 15.892C15.7594 15.393 16.2494 14.7541 16.5711 14.028C16.8928 13.302 17.037 12.5098 16.9916 11.717C16.9601 11.1656 17.3815 10.6931 17.9329 10.6615ZM11 18C11 17.4477 11.4477 17 12 17H12.01C12.5623 17 13.01 17.4477 13.01 18C13.01 18.5523 12.5623 19 12.01 19H12C11.4477 19 11 18.5523 11 18Z" fill="currentColor" style="fill="currentColor";fill-opacity:1;"/>
</svg>
