<svg width="24" height="24" viewBox="0 0 24 24" fill="none" xmlns="http://www.w3.org/2000/svg">
<path fill-rule="evenodd" clip-rule="evenodd" d="M13.0266 3.77096C13.1329 3.31924 13.5359 3 14 3H21C21.5523 3 22 3.44772 22 4C22 4.55228 21.5523 5 21 5H14.792L10.9734 21.229C10.871 21.6643 10.492 21.9787 10.0453 21.999C9.5986 22.0192 9.19273 21.7405 9.05132 21.3162L6.27924 13H3C2.44772 13 2 12.5523 2 12C2 11.4477 2.44772 11 3 11H7C7.43043 11 7.81257 11.2754 7.94868 11.6838L9.83396 17.3396L13.0266 3.77096Z" fill="currentColor" style="fill="currentColor";fill-opacity:1;"/>
</svg>
