<svg width="24" height="24" viewBox="0 0 24 24" fill="none" xmlns="http://www.w3.org/2000/svg">
<path fill-rule="evenodd" clip-rule="evenodd" d="M11.4492 1.01484C14.1723 0.878056 16.8491 1.75748 18.9606 3.48254C21.072 5.2076 22.4676 7.65535 22.8765 10.3511C23.2483 12.8013 22.7808 15.2976 21.5626 17.4393C21.8401 17.894 22 18.4283 22 19C22 20.6569 20.6569 22 19 22C18.4283 22 17.894 21.8401 17.4393 21.5626C15.2976 22.7808 12.8013 23.2483 10.3511 22.8765C7.65535 22.4676 5.2076 21.072 3.48254 18.9606C1.75748 16.8491 0.878055 14.1723 1.01484 11.4492C1.15162 8.72604 2.29485 6.15077 4.22281 4.22281C6.15077 2.29485 8.72604 1.15162 11.4492 1.01484ZM18.3001 19.7143C18.2747 19.6824 18.2476 19.6525 18.219 19.6246C18.082 19.4535 18 19.2363 18 19C18 18.7517 18.0905 18.5245 18.2403 18.3496C18.2598 18.333 18.2787 18.3154 18.2971 18.297C18.3155 18.2786 18.3331 18.2597 18.3497 18.2403C18.5246 18.0905 18.7517 18 19 18C19.2363 18 19.4535 18.082 19.6246 18.219C19.6525 18.2476 19.6824 18.2747 19.7143 18.3001C19.891 18.4805 20 18.7275 20 19C20 19.5523 19.5523 20 19 20C18.7275 20 18.4805 19.891 18.3001 19.7143ZM19.9804 16.1639C20.8602 14.4775 21.1869 12.5474 20.8992 10.651C20.5646 8.44547 19.4228 6.44276 17.6952 5.03135C15.9677 3.61993 13.7775 2.90041 11.5495 3.01232C9.32149 3.12423 7.21445 4.0596 5.63702 5.63703C4.0596 7.21445 3.12423 9.32149 3.01232 11.5495C2.90041 13.7775 3.61993 15.9677 5.03135 17.6952C6.44276 19.4228 8.44547 20.5646 10.651 20.8992C12.5474 21.1869 14.4775 20.8602 16.1639 19.9804C16.0577 19.6732 16 19.3433 16 19C16 18.5368 16.105 18.0982 16.2924 17.7065L13.2935 14.7076C12.9018 14.895 12.4632 15 12 15C10.3431 15 9 13.6569 9 12C9 10.3431 10.3431 9 12 9C13.6569 9 15 10.3431 15 12C15 12.4631 14.8951 12.9017 14.7077 13.2933L17.7067 16.2923C18.0983 16.1049 18.5369 16 19 16C19.3433 16 19.6732 16.0577 19.9804 16.1639ZM12.76 12.6499C12.9096 12.4751 13 12.2481 13 12C13 11.4477 12.5523 11 12 11C11.4477 11 11 11.4477 11 12C11 12.5523 11.4477 13 12 13C12.2481 13 12.4752 12.9096 12.65 12.76C12.6668 12.7404 12.6844 12.7213 12.7029 12.7028C12.7214 12.6843 12.7405 12.6667 12.76 12.6499Z" fill="currentColor" style="fill="currentColor";fill-opacity:1;"/>
</svg>
