<svg width="24" height="24" viewBox="0 0 24 24" fill="none" xmlns="http://www.w3.org/2000/svg">
<path fill-rule="evenodd" clip-rule="evenodd" d="M9.29289 3.29289C9.68342 2.90237 10.3166 2.90237 10.7071 3.29289L15.4142 8H19C19.5523 8 20 8.44772 20 9C20 9.55228 19.5523 10 19 10H15.4142L11.4142 14H19C19.5523 14 20 14.4477 20 15C20 15.5523 19.5523 16 19 16H11.4142L14.7071 19.2929C15.0976 19.6834 15.0976 20.3166 14.7071 20.7071C14.3166 21.0976 13.6834 21.0976 13.2929 20.7071L8.58579 16H5C4.44772 16 4 15.5523 4 15C4 14.4477 4.44772 14 5 14H8.58579L12.5858 10H5C4.44772 10 4 9.55228 4 9C4 8.44772 4.44772 8 5 8H12.5858L9.29289 4.70711C8.90237 4.31658 8.90237 3.68342 9.29289 3.29289Z" fill="currentColor" style="fill="currentColor";fill-opacity:1;"/>
</svg>
