<svg width="24" height="24" viewBox="0 0 24 24" fill="none" xmlns="http://www.w3.org/2000/svg">
<path fill-rule="evenodd" clip-rule="evenodd" d="M4.22183 9.22183C6.28473 7.15893 9.08262 6 12 6C14.9174 6 17.7153 7.15893 19.7782 9.22183C21.8411 11.2847 23 14.0826 23 17C23 17.5523 22.5523 18 22 18C21.4477 18 21 17.5523 21 17C21 14.6131 20.0518 12.3239 18.364 10.636C16.6761 8.94821 14.3869 8 12 8C9.61305 8 7.32387 8.94821 5.63604 10.636C3.94821 12.3239 3 14.6131 3 17C3 17.5523 2.55228 18 2 18C1.44772 18 1 17.5523 1 17C1 14.0826 2.15893 11.2847 4.22183 9.22183ZM12 12C10.6739 12 9.40215 12.5268 8.46447 13.4645C7.52678 14.4021 7 15.6739 7 17C7 17.5523 6.55228 18 6 18C5.44772 18 5 17.5523 5 17C5 15.1435 5.7375 13.363 7.05025 12.0503C8.36301 10.7375 10.1435 10 12 10C13.8565 10 15.637 10.7375 16.9497 12.0503C18.2625 13.363 19 15.1435 19 17C19 17.5523 18.5523 18 18 18C17.4477 18 17 17.5523 17 17C17 15.6739 16.4732 14.4021 15.5355 13.4645C14.5979 12.5268 13.3261 12 12 12ZM12 16C11.7348 16 11.4804 16.1054 11.2929 16.2929C11.1054 16.4804 11 16.7348 11 17C11 17.5523 10.5523 18 10 18C9.44772 18 9 17.5523 9 17C9 16.2043 9.31607 15.4413 9.87868 14.8787C10.4413 14.3161 11.2043 14 12 14C12.7957 14 13.5587 14.3161 14.1213 14.8787C14.6839 15.4413 15 16.2043 15 17C15 17.5523 14.5523 18 14 18C13.4477 18 13 17.5523 13 17C13 16.7348 12.8946 16.4804 12.7071 16.2929C12.5196 16.1054 12.2652 16 12 16Z" fill="currentColor" style="fill="currentColor";fill-opacity:1;"/>
</svg>
