<svg width="24" height="24" viewBox="0 0 24 24" fill="none" xmlns="http://www.w3.org/2000/svg">
<path fill-rule="evenodd" clip-rule="evenodd" d="M10 5C10 2.74772 11.7477 1 14 1C15.2671 1 16.3744 1.55312 17.1008 2.43804C17.1825 2.39263 17.2664 2.34867 17.3528 2.30546C17.3776 2.29306 17.4029 2.2817 17.4286 2.27141C19.4036 1.48141 21.8086 2.37871 22.6285 4.42849C23.278 6.05218 22.787 7.96648 21.4528 9.05172L22.5545 10.9798C22.9061 11.5341 22.9019 12.189 22.9002 12.4548C22.9001 12.4714 22.9 12.4864 22.9 12.4999C22.9 12.5816 22.89 12.6631 22.8701 12.7424C22.5297 14.1041 21.3016 14.7454 20.076 14.5922C20.0558 14.5896 20.0357 14.5865 20.0157 14.5828L20.2 13.5999C20.0157 14.5828 20.0158 14.5828 20.0157 14.5828L19.9957 14.579L19.941 14.5686C19.8938 14.5595 19.8255 14.5463 19.7402 14.5296C19.5699 14.4962 19.3313 14.4485 19.0576 14.3912C18.5553 14.286 17.9196 14.1455 17.3682 13.9999H17C15.8523 13.9999 15 14.8522 15 15.9999C15 16.1065 14.9833 16.2092 14.9524 16.3055C14.9442 16.4132 14.9315 16.5207 14.9145 16.6278C14.8945 16.7534 14.8687 16.8776 14.8371 17H16C16.5523 17 17 17.4477 17 18C17 18.5523 16.5523 19 16 19H13.2041C13.2011 19 13.1982 19 13.1952 19H4C3.73478 19 3.48043 19.1054 3.29289 19.2929C3.10536 19.4804 3 19.7348 3 20C3 20.2652 3.10536 20.5196 3.29289 20.7071C3.48043 20.8946 3.73478 21 4 21H13C13.5523 21 14 21.4477 14 22C14 22.5523 13.5523 23 13 23H4C3.20435 23 2.44129 22.6839 1.87868 22.1213C1.31607 21.5587 1 20.7957 1 20C1 19.2043 1.31607 18.4413 1.87868 17.8787C2.44129 17.3161 3.20435 17 4 17H4.00528C3.37463 16.1632 3 15.1236 3 14C3 9.83966 6.09771 6.46915 10.1366 6.04502C10.0469 5.71281 10 5.36227 10 5ZM8 17H12.6961C12.8179 16.7891 12.9007 16.5566 12.9393 16.3138C12.9996 15.9345 12.9494 15.5459 12.7948 15.1943C12.6401 14.8428 12.3874 14.5432 12.0671 14.3314C11.7467 14.1196 11.3721 14.0045 10.988 13.9999C10.4358 13.9933 9.99347 13.5403 10.0001 12.988C10.0067 12.4358 10.4597 11.9935 11.012 12.0001C11.78 12.0093 12.5292 12.2394 13.17 12.663C13.4668 12.8592 13.7345 13.093 13.9671 13.3574C14.6936 12.5196 15.7718 11.9999 17 11.9999H17.5C17.5889 11.9999 17.6774 12.0117 17.7631 12.0351C18.2836 12.1771 18.9351 12.3222 19.4674 12.4336C19.7312 12.4888 19.9614 12.5349 20.1254 12.567C20.2074 12.5831 20.2726 12.5957 20.3172 12.6043L20.3501 12.6105C20.5387 12.6292 20.6683 12.5873 20.745 12.5394C20.8008 12.5045 20.8577 12.4493 20.899 12.3513C20.8975 12.2687 20.8938 12.2025 20.885 12.1413C20.8764 12.0809 20.8662 12.0542 20.864 12.0486C20.8527 12.0314 20.842 12.0139 20.8318 11.996L19.2318 9.19602C19.0882 8.94482 19.0605 8.64376 19.1558 8.37057C19.2511 8.09739 19.46 7.87886 19.7286 7.77141C20.6788 7.39132 21.1815 6.19629 20.7715 5.17127C20.3959 4.23231 19.2246 3.73032 18.2079 4.11418C18.1068 4.16574 18.0176 4.2154 17.9363 4.26597C17.9782 4.5032 18 4.74845 18 5C18 5.55228 17.5523 6 17 6C16.4477 6 16 5.55228 16 5C16 4.75785 15.9621 4.52884 15.8914 4.31822C15.8714 4.27467 15.8546 4.22997 15.8412 4.1845C15.5433 3.47112 14.8533 3 14 3C12.8523 3 12 3.85228 12 5C12 5.54325 12.2005 5.98633 12.5071 6.29289C12.7931 6.57889 12.8787 7.00901 12.7239 7.38268C12.5691 7.75636 12.2045 8 11.8 8H11C7.65228 8 5 10.6523 5 14C5 15.6477 6.35228 17 8 17ZM15 9C15 8.44772 15.4477 8 16 8H16.01C16.5623 8 17.01 8.44772 17.01 9C17.01 9.55228 16.5623 10 16.01 10H16C15.4477 10 15 9.55228 15 9Z" fill="currentColor" style="fill="currentColor";fill-opacity:1;"/>
</svg>
