<svg width="24" height="24" viewBox="0 0 24 24" fill="none" xmlns="http://www.w3.org/2000/svg">
<path fill-rule="evenodd" clip-rule="evenodd" d="M3.47427 1.14935C3.76909 0.967144 4.13723 0.95058 4.44721 1.10557L6 1.88197L7.55279 1.10557C7.83431 0.96481 8.16569 0.96481 8.44721 1.10557L10 1.88197L11.5528 1.10557C11.8343 0.96481 12.1657 0.96481 12.4472 1.10557L14 1.88197L15.5528 1.10557C15.8343 0.96481 16.1657 0.96481 16.4472 1.10557L18 1.88197L19.5528 1.10557C19.8628 0.95058 20.2309 0.967144 20.5257 1.14935C20.8205 1.33156 21 1.65342 21 2V22C21 22.3466 20.8205 22.6684 20.5257 22.8507C20.2309 23.0329 19.8628 23.0494 19.5528 22.8944L18 22.118L16.4472 22.8944C16.1657 23.0352 15.8343 23.0352 15.5528 22.8944L14 22.118L12.4472 22.8944C12.1657 23.0352 11.8343 23.0352 11.5528 22.8944L10 22.118L8.44721 22.8944C8.16569 23.0352 7.83431 23.0352 7.55279 22.8944L6 22.118L4.44721 22.8944C4.13723 23.0494 3.76909 23.0329 3.47427 22.8507C3.17945 22.6684 3 22.3466 3 22V2C3 1.65342 3.17945 1.33156 3.47427 1.14935ZM5 3.61804V20.382L5.55279 20.1056C5.83431 19.9648 6.16569 19.9648 6.44721 20.1056L8 20.882L9.55279 20.1056C9.83431 19.9648 10.1657 19.9648 10.4472 20.1056L12 20.882L13.5528 20.1056C13.8343 19.9648 14.1657 19.9648 14.4472 20.1056L16 20.882L17.5528 20.1056C17.8343 19.9648 18.1657 19.9648 18.4472 20.1056L19 20.382V3.61803L18.4472 3.89443C18.1657 4.03519 17.8343 4.03519 17.5528 3.89443L16 3.11803L14.4472 3.89443C14.1657 4.03519 13.8343 4.03519 13.5528 3.89443L12 3.11803L10.4472 3.89443C10.1657 4.03519 9.83431 4.03519 9.55279 3.89443L8 3.11804L6.44721 3.89443C6.16569 4.03519 5.83431 4.03519 5.55279 3.89443L5 3.61804ZM11.2279 7.40977C12.1867 7.05567 13.2309 7.00389 14.22 7.26142C15.2091 7.51894 16.0955 8.0734 16.7599 8.8501C17.1189 9.2698 17.0696 9.90105 16.6499 10.26C16.2302 10.619 15.599 10.5698 15.24 10.1501C14.8414 9.68408 14.3096 9.35141 13.7161 9.19689C13.1226 9.04238 12.4961 9.07344 11.9208 9.2859C11.3456 9.49836 10.8492 9.88202 10.4987 10.3852C10.3646 10.5777 10.2543 10.7841 10.1692 11H13C13.5523 11 14 11.4477 14 12C14 12.5523 13.5523 13 13 13H10.0984C10.1892 13.2888 10.3236 13.5638 10.4987 13.815C10.8492 14.3182 11.3456 14.7018 11.9208 14.9143C12.4961 15.1268 13.1226 15.1578 13.7161 15.0033C14.3096 14.8488 14.8414 14.5161 15.24 14.0501C15.599 13.6304 16.2302 13.5812 16.6499 13.9402C17.0696 14.2991 17.1189 14.9304 16.7599 15.3501C16.0955 16.1268 15.2091 16.6813 14.22 16.9388C13.2309 17.1963 12.1867 17.1445 11.2279 16.7904C10.2692 16.4363 9.44193 15.7969 8.85768 14.9583C8.4468 14.3685 8.16997 13.7002 8.04185 13H8C7.44772 13 7 12.5523 7 12C7 11.4477 7.44772 11 8 11H8.08273C8.22421 10.3727 8.48614 9.77519 8.85768 9.2419C9.44193 8.40329 10.2692 7.76387 11.2279 7.40977Z" fill="currentColor" style="fill="currentColor";fill-opacity:1;"/>
</svg>
