<svg width="24" height="24" viewBox="0 0 24 24" fill="none" xmlns="http://www.w3.org/2000/svg">
<path fill-rule="evenodd" clip-rule="evenodd" d="M3.47427 1.14935C3.76909 0.967144 4.13723 0.95058 4.44721 1.10557L6 1.88197L7.55279 1.10557C7.83431 0.96481 8.16569 0.96481 8.44721 1.10557L10 1.88197L11.5528 1.10557C11.8343 0.96481 12.1657 0.96481 12.4472 1.10557L14 1.88197L15.5528 1.10557C15.8343 0.96481 16.1657 0.96481 16.4472 1.10557L18 1.88197L19.5528 1.10557C19.8628 0.95058 20.2309 0.967144 20.5257 1.14935C20.8205 1.33156 21 1.65342 21 2V22C21 22.3466 20.8205 22.6684 20.5257 22.8507C20.2309 23.0329 19.8628 23.0494 19.5528 22.8944L18 22.118L16.4472 22.8944C16.1657 23.0352 15.8343 23.0352 15.5528 22.8944L14 22.118L12.4472 22.8944C12.1657 23.0352 11.8343 23.0352 11.5528 22.8944L10 22.118L8.44721 22.8944C8.16569 23.0352 7.83431 23.0352 7.55279 22.8944L6 22.118L4.44721 22.8944C4.13723 23.0494 3.76909 23.0329 3.47427 22.8507C3.17945 22.6684 3 22.3466 3 22V2C3 1.65342 3.17945 1.33156 3.47427 1.14935ZM5 3.61804V20.382L5.55279 20.1056C5.83431 19.9648 6.16569 19.9648 6.44721 20.1056L8 20.882L9.55279 20.1056C9.83431 19.9648 10.1657 19.9648 10.4472 20.1056L12 20.882L13.5528 20.1056C13.8343 19.9648 14.1657 19.9648 14.4472 20.1056L16 20.882L17.5528 20.1056C17.8343 19.9648 18.1657 19.9648 18.4472 20.1056L19 20.382V3.61803L18.4472 3.89443C18.1657 4.03519 17.8343 4.03519 17.5528 3.89443L16 3.11803L14.4472 3.89443C14.1657 4.03519 13.8343 4.03519 13.5528 3.89443L12 3.11803L10.4472 3.89443C10.1657 4.03519 9.83431 4.03519 9.55279 3.89443L8 3.11804L6.44721 3.89443C6.16569 4.03519 5.83431 4.03519 5.55279 3.89443L5 3.61804ZM9 7C9 6.44772 9.44772 6 10 6H13C13.7956 6 14.5587 6.31607 15.1213 6.87868C15.6839 7.44129 16 8.20435 16 9C16 9.79565 15.6839 10.5587 15.1213 11.1213C14.5587 11.6839 13.7957 12 13 12H11V14H13C13.5523 14 14 14.4477 14 15C14 15.5523 13.5523 16 13 16H11V17C11 17.5523 10.5523 18 10 18C9.44772 18 9 17.5523 9 17V16H8C7.44772 16 7 15.5523 7 15C7 14.4477 7.44772 14 8 14H9V12H8C7.44772 12 7 11.5523 7 11C7 10.4477 7.44772 10 8 10H9V7ZM11 10H13C13.2652 10 13.5196 9.89464 13.7071 9.70711C13.8946 9.51957 14 9.26522 14 9C14 8.73479 13.8946 8.48043 13.7071 8.29289C13.5196 8.10536 13.2652 8 13 8H11V10Z" fill="black" style="fill:black;fill-opacity:1;"/>
</svg>
