<svg width="24" height="24" viewBox="0 0 24 24" fill="none" xmlns="http://www.w3.org/2000/svg">
<path fill-rule="evenodd" clip-rule="evenodd" d="M11.9966 4.00004C11.857 4.00471 11.7208 4.04453 11.6007 4.11587C11.4777 4.18891 11.3756 4.29249 11.3044 4.41659L11.3029 4.41923L10.2099 6.31123C9.93363 6.78945 9.322 6.95317 8.84377 6.6769C8.36555 6.40063 8.20184 5.789 8.4781 5.31078L9.56958 3.42142C9.56987 3.42093 9.57015 3.42043 9.57043 3.41994C9.81311 2.99748 10.1607 2.64482 10.5797 2.3961C10.9991 2.1471 11.4758 2.01073 11.9635 2.00023L11.9831 2C12.4715 1.99909 12.9515 2.12666 13.375 2.36989C13.7984 2.61313 14.1505 2.96347 14.3957 3.38576L14.3975 3.38874L17.1334 8.13701L17.605 6.37632C17.7478 5.84283 18.2961 5.52618 18.8296 5.66905C19.3631 5.81192 19.6798 6.36022 19.5369 6.8937L18.44 10.9897C18.3713 11.2459 18.2037 11.4644 17.974 11.597C17.7443 11.7297 17.4713 11.7656 17.2151 11.6969L13.119 10.5989C12.5856 10.4559 12.269 9.90754 12.412 9.37409C12.555 8.84064 13.1034 8.52411 13.6369 8.66711L15.4035 9.14068L12.6663 4.39024C12.666 4.38984 12.6658 4.38944 12.6656 4.38905C12.5965 4.27066 12.4977 4.17243 12.3788 4.10417C12.2624 4.03729 12.1308 4.00146 11.9966 4.00004ZM7.69601 8.63397C7.92573 8.7666 8.09334 8.98505 8.16197 9.24128L9.25905 13.3373C9.40194 13.8708 9.08531 14.4191 8.55183 14.562C8.01835 14.7048 7.47004 14.3882 7.32715 13.8547L6.85391 12.0879L4.10832 16.8328C4.10809 16.8332 4.10787 16.8336 4.10764 16.834C4.03953 16.9531 4.00385 17.088 4.00416 17.2253C4.00446 17.3598 4.03929 17.4918 4.10524 17.6089C4.17908 17.7274 4.28167 17.8254 4.40355 17.8938C4.52832 17.9638 4.66906 18.0004 4.81212 18L4.81502 18L7.00002 18C7.5523 18 8.00002 18.4477 8.00002 19C8.00002 19.5523 7.5523 20 7.00002 20H4.81646M5.1195 11.092L3.35903 11.5639C2.82558 11.7069 2.27721 11.3904 2.13421 10.8569C1.9912 10.3235 2.30772 9.77511 2.84117 9.6321L6.93709 8.5341C7.19329 8.46542 7.46629 8.50135 7.69601 8.63397M19.0324 13.3494C19.5105 13.0729 20.1222 13.2364 20.3987 13.7145L21.6265 15.8376C21.8682 16.2592 21.9954 16.7366 21.9954 17.2226C21.9954 17.7085 21.8682 18.186 21.6265 18.6076L21.617 18.6237C21.3677 19.0403 21.0153 19.3857 20.5939 19.6267C20.1725 19.8677 19.6962 19.9963 19.2107 20.0001L19.203 20.0001L13.4143 20.0001L14.7071 21.2929C15.0976 21.6834 15.0976 22.3166 14.7071 22.7071C14.3166 23.0976 13.6834 23.0976 13.2929 22.7071L10.2929 19.7072C10.1054 19.5197 10 19.2653 10 19.0001C10 18.7349 10.1054 18.4805 10.2929 18.293L13.2929 15.2929C13.6834 14.9024 14.3166 14.9024 14.7071 15.2929C15.0976 15.6834 15.0976 16.3166 14.7071 16.7071L13.4142 18.0001H19.1983C19.3397 17.9985 19.4782 17.9608 19.6009 17.8906C19.7218 17.8215 19.8233 17.7231 19.8961 17.6045C19.9612 17.4878 19.9954 17.3563 19.9954 17.2226C19.9954 17.0862 19.9599 16.9523 19.8923 16.8339C19.892 16.8334 19.8918 16.833 19.8915 16.8326L18.6673 14.7157C18.3909 14.2376 18.5543 13.6259 19.0324 13.3494Z" fill="currentColor" style="fill="currentColor";fill-opacity:1;"/>
</svg>
