<svg width="24" height="24" viewBox="0 0 24 24" fill="none" xmlns="http://www.w3.org/2000/svg">
<path fill-rule="evenodd" clip-rule="evenodd" d="M11.9962 2.00001L12 2C14.6522 2.00001 17.1957 3.05358 19.0711 4.92894C20.9464 6.8043 22 9.34784 22 12C22 12.5523 21.5523 13 21 13C20.4477 13 20 12.5523 20 12C20 9.87827 19.1571 7.84344 17.6569 6.34315C16.157 4.8433 14.1229 4.0005 12.0019 4.00001C9.7473 4.00897 7.58329 4.88786 5.96097 6.45325L5.41421 7.00001H8C8.55228 7.00001 9 7.44772 9 8.00001C9 8.55229 8.55228 9.00001 8 9.00001H3C2.44772 9.00001 2 8.55229 2 8.00001V3.00001C2 2.44772 2.44772 2.00001 3 2.00001C3.55228 2.00001 4 2.44772 4 3.00001V5.58579L4.55289 5.0329L4.56496 5.02104C6.55946 3.0929 9.22213 2.01045 11.9962 2.00001ZM4.92893 19.0711C3.05357 17.1957 2 14.6522 2 12C2 11.4477 2.44772 11 3 11C3.55228 11 4 11.4477 4 12C4 14.1217 4.84285 16.1566 6.34315 17.6569C7.84303 19.1567 9.87715 19.9995 11.9983 20C14.2528 19.991 16.4167 19.1121 18.039 17.5468L18.5858 17H16C15.4477 17 15 16.5523 15 16C15 15.4477 15.4477 15 16 15H21C21.5523 15 22 15.4477 22 16V21C22 21.5523 21.5523 22 21 22C20.4477 22 20 21.5523 20 21V18.4142L19.4471 18.9671L19.435 18.979C17.4405 20.9071 14.7779 21.9896 12.0038 22L12 22C9.34784 22 6.8043 20.9464 4.92893 19.0711Z" fill="black" style="fill:black;fill-opacity:1;"/>
</svg>
