<svg width="24" height="24" viewBox="0 0 24 24" fill="none" xmlns="http://www.w3.org/2000/svg">
<path fill-rule="evenodd" clip-rule="evenodd" d="M17 2C17.5523 2 18 2.44772 18 3V6.26788L20.8299 4.63398C21.3082 4.35783 21.9198 4.5217 22.1959 4.99999C22.4721 5.47828 22.3082 6.08987 21.8299 6.36602L18.9999 8L21.8299 9.63398C22.3082 9.91013 22.4721 10.5217 22.1959 11C21.9198 11.4783 21.3082 11.6422 20.8299 11.366L18 9.73212V13C18 13.5523 17.5523 14 17 14C16.4477 14 16 13.5523 16 13V9.73203L13.1699 11.366C12.6916 11.6422 12.0801 11.4783 11.8039 11C11.5278 10.5217 11.6916 9.91013 12.1699 9.63398L15 8L12.1699 6.36602C11.6916 6.08987 11.5278 5.47828 11.8039 4.99999C12.0801 4.5217 12.6916 4.35783 13.1699 4.63398L16 6.26797V3C16 2.44772 16.4477 2 17 2ZM2.87868 14.8787C3.44129 14.3161 4.20435 14 5 14H7C7.79565 14 8.55871 14.3161 9.12132 14.8787C9.68393 15.4413 10 16.2043 10 17V19C10 19.7957 9.68393 20.5587 9.12132 21.1213C8.55871 21.6839 7.79565 22 7 22H5C4.20435 22 3.44129 21.6839 2.87868 21.1213C2.31607 20.5587 2 19.7957 2 19V17C2 16.2044 2.31607 15.4413 2.87868 14.8787ZM5 16C4.73478 16 4.48043 16.1054 4.29289 16.2929C4.10536 16.4804 4 16.7348 4 17V19C4 19.2652 4.10536 19.5196 4.29289 19.7071C4.48043 19.8946 4.73478 20 5 20H7C7.26522 20 7.51957 19.8946 7.70711 19.7071C7.89464 19.5196 8 19.2652 8 19V17C8 16.7348 7.89464 16.4804 7.70711 16.2929C7.51957 16.1054 7.26522 16 7 16H5Z" fill="currentColor" style="fill="currentColor";fill-opacity:1;"/>
</svg>
