<svg width="24" height="24" viewBox="0 0 24 24" fill="none" xmlns="http://www.w3.org/2000/svg">
<path fill-rule="evenodd" clip-rule="evenodd" d="M12.9767 3.00002H4C3.44772 3.00002 3 3.44774 3 4.00002V7.00002C3 7.55231 3.44772 8.00002 4 8.00002C4.55228 8.00002 5 7.55231 5 7.00002V5.00002H11.6398L7.26481 19H5C4.44772 19 4 19.4477 4 20C4 20.5523 4.44772 21 5 21H7.97728C7.99266 21.0004 8.00801 21.0004 8.02331 21H11C11.5523 21 12 20.5523 12 20C12 19.4477 11.5523 19 11 19H9.36019L13.7352 5.00002H19V7.00002C19 7.55231 19.4477 8.00002 20 8.00002C20.5523 8.00002 21 7.55231 21 7.00002V4.00002C21 3.44774 20.5523 3.00002 20 3.00002H13.0227C13.0073 2.99967 12.992 2.99967 12.9767 3.00002ZM14.2929 14.2929C14.6834 13.9024 15.3166 13.9024 15.7071 14.2929L17.5 16.0858L19.2929 14.2929C19.6834 13.9024 20.3166 13.9024 20.7071 14.2929C21.0976 14.6834 21.0976 15.3166 20.7071 15.7071L18.9142 17.5L20.7071 19.2929C21.0976 19.6834 21.0976 20.3166 20.7071 20.7071C20.3166 21.0977 19.6834 21.0977 19.2929 20.7071L17.5 18.9142L15.7071 20.7071C15.3166 21.0977 14.6834 21.0977 14.2929 20.7071C13.9024 20.3166 13.9024 19.6834 14.2929 19.2929L16.0858 17.5L14.2929 15.7071C13.9024 15.3166 13.9024 14.6834 14.2929 14.2929Z" fill="black" style="fill:black;fill-opacity:1;"/>
</svg>
