<svg width="24" height="24" viewBox="0 0 24 24" fill="none" xmlns="http://www.w3.org/2000/svg">
<path fill-rule="evenodd" clip-rule="evenodd" d="M9 3C7.85228 3 7 3.85228 7 5V7.58579L8.29289 6.29289C8.68342 5.90237 9.31658 5.90237 9.70711 6.29289C10.0976 6.68342 10.0976 7.31658 9.70711 7.70711L6.70711 10.7071C6.31658 11.0976 5.68342 11.0976 5.29289 10.7071L2.29289 7.70711C1.90237 7.31658 1.90237 6.68342 2.29289 6.29289C2.68342 5.90237 3.31658 5.90237 3.70711 6.29289L5 7.58579V5C5 2.74772 6.74771 1 9 1H10C10.5523 1 11 1.44772 11 2C11 2.55228 10.5523 3 10 3H9ZM16 3C15.4523 3 15 3.45228 15 4C15 4.55228 14.5523 5 14 5C13.4477 5 13 4.55228 13 4C13 2.34772 14.3477 1 16 1C16.5523 1 17 1.44772 17 2C17 2.55228 16.5523 3 16 3ZM19 2C19 1.44772 19.4477 1 20 1C21.6523 1 23 2.34772 23 4C23 4.55228 22.5523 5 22 5C21.4477 5 21 4.55228 21 4C21 3.45228 20.5477 3 20 3C19.4477 3 19 2.55228 19 2ZM14 7C14.5523 7 15 7.44772 15 8C15 8.54772 15.4523 9 16 9C16.5523 9 17 9.44772 17 10C17 10.5523 16.5523 11 16 11C14.3477 11 13 9.65228 13 8C13 7.44772 13.4477 7 14 7ZM22 7C22.5523 7 23 7.44772 23 8C23 9.65228 21.6523 11 20 11C19.4477 11 19 10.5523 19 10C19 9.44772 19.4477 9 20 9C20.5477 9 21 8.54772 21 8C21 7.44772 21.4477 7 22 7ZM4 15C3.44772 15 3 15.4477 3 16V20C3 20.5523 3.44772 21 4 21H8C8.55228 21 9 20.5523 9 20V16C9 15.4477 8.55228 15 8 15H4ZM1 16C1 14.3431 2.34315 13 4 13H8C9.65685 13 11 14.3431 11 16V20C11 21.6569 9.65685 23 8 23H4C2.34315 23 1 21.6569 1 20V16ZM13 14C13 13.4477 13.4477 13 14 13C15.6523 13 17 14.3477 17 16V20C17 21.6523 15.6523 23 14 23C13.4477 23 13 22.5523 13 22C13 21.4477 13.4477 21 14 21C14.5477 21 15 20.5477 15 20V16C15 15.4523 14.5477 15 14 15C13.4477 15 13 14.5523 13 14ZM19 14C19 13.4477 19.4477 13 20 13C21.6523 13 23 14.3477 23 16V20C23 21.6523 21.6523 23 20 23C19.4477 23 19 22.5523 19 22C19 21.4477 19.4477 21 20 21C20.5477 21 21 20.5477 21 20V16C21 15.4523 20.5477 15 20 15C19.4477 15 19 14.5523 19 14Z" fill="currentColor" style="fill="currentColor";fill-opacity:1;"/>
</svg>
