<svg width="24" height="24" viewBox="0 0 24 24" fill="none" xmlns="http://www.w3.org/2000/svg">
<path fill-rule="evenodd" clip-rule="evenodd" d="M7.00509 6.76614C7.38358 6.46304 7.79013 6.19394 8.22026 5.9629C9.28769 5.38954 10.4704 5.06669 11.6787 5.01724C11.7849 5.00581 11.8922 5 12 5C12.1055 5 12.2104 5.00555 12.3143 5.0165C13.4867 5.06174 14.6363 5.36438 15.6811 5.90476C16.1474 6.14594 16.5871 6.43156 16.9947 6.75663C16.9359 5.44268 16.3992 4.5699 15.6175 3.99122C14.7469 3.34672 13.4757 3 11.98 3C10.5452 3 9.28079 3.34415 8.40245 3.99219C7.61042 4.57655 7.06301 5.45465 7.00509 6.76614ZM16.6521 9.21426C16.19 8.64868 15.6281 8.17175 14.9938 7.80749C14.9979 7.87139 15 7.93559 15 8C15 8.82431 14.5932 9.53998 14.1879 10.1082C13.8988 10.5135 13.5287 10.9493 13.1719 11.3692C13.0327 11.533 12.8956 11.6945 12.7661 11.8507L10.1362 15.148L6.92244 19.2967L8.7868 20.6497L11.164 17.4481L11.1671 17.4439L13.7622 13.9105C13.7625 13.9102 13.7628 13.9098 13.7631 13.9094C13.9452 13.6598 14.1229 13.4196 14.2953 13.1867C15.3483 11.7637 16.2024 10.6096 16.6521 9.21426ZM14.597 16.1526L13.2146 18.0348L15.1738 20.6558L17.0682 19.2966L14.597 16.1526ZM11.9727 19.7139L9.80289 22.6362C9.47618 23.0762 8.8562 23.1712 8.41266 22.8493L4.91266 20.3093C4.69361 20.1504 4.54836 19.9094 4.51006 19.6415C4.47177 19.3736 4.54371 19.1016 4.70945 18.8876L8.10319 14.5066C8.04357 14.4237 7.9848 14.342 7.92689 14.2616C6.4895 12.2642 5.57834 10.998 5.21246 9.30074C5.20406 9.26177 5.19806 9.22285 5.19435 9.18412C5.05464 8.52365 5 7.80655 5 7C5 4.94195 5.85077 3.38938 7.21506 2.38281C8.53922 1.40585 10.2648 1 11.98 1C13.7443 1 15.4831 1.40328 16.8075 2.38378C18.1736 3.39509 19 4.95063 19 7C19 7.81064 18.9002 8.56418 18.7187 9.25813C18.2133 11.2742 17.0315 12.8625 15.8847 14.4038C15.8655 14.4296 15.8463 14.4554 15.8271 14.4812L19.2862 18.882C19.4548 19.0965 19.5284 19.3706 19.49 19.6407C19.4517 19.9108 19.3046 20.1535 19.0829 20.3125L15.5429 22.8525C15.1004 23.17 14.4851 23.075 14.159 22.6387L11.9727 19.7139ZM7.28006 9.31364C7.58662 10.3179 8.19198 11.1928 9.39346 12.8718L10.701 11.2325C10.3847 10.8542 10.0629 10.4656 9.80788 10.1056C9.40643 9.5391 9 8.82363 9 8C9 7.93792 9.00193 7.87605 9.00574 7.81445C8.33912 8.19933 7.75343 8.70854 7.28006 9.31364ZM11.8403 7.01284C11.6342 7.04617 11.4424 7.14344 11.2929 7.29289C11.1054 7.48043 11 7.73478 11 8C11 8.17637 11.0936 8.46088 11.4397 8.94933C11.6053 9.18305 11.79 9.41344 11.9961 9.66206C12.2061 9.41159 12.3936 9.17967 12.5597 8.94681C12.9069 8.46001 13 8.17569 13 8C13 7.73478 12.8946 7.48043 12.7071 7.29289C12.5571 7.14288 12.3643 7.04545 12.1575 7.01247C12.0914 7.0108 12.0253 7.01022 11.9591 7.01074C11.9194 7.01104 11.8798 7.01174 11.8403 7.01284Z" fill="currentColor" style="fill="currentColor";fill-opacity:1;"/>
</svg>
