<svg width="24" height="24" viewBox="0 0 24 24" fill="none" xmlns="http://www.w3.org/2000/svg">
<path fill-rule="evenodd" clip-rule="evenodd" d="M3.22528 1.03849C3.75631 0.886765 4.3098 1.19426 4.46152 1.72529L7.2543 11.5H9.48102C9.49423 11.4998 9.50746 11.4997 9.52071 11.5H14.9776C14.9921 11.4997 15.0066 11.4997 15.0211 11.5H18C18.5523 11.5 19 11.9477 19 12.5C19 13.0523 18.5523 13.5 18 13.5H16.5702L18.967 18.636C19.527 18.2367 20.0529 17.7891 20.5385 17.2974C20.9265 16.9044 21.5597 16.9004 21.9526 17.2885C22.3456 17.6765 22.3496 18.3097 21.9615 18.7027C20.6593 20.0214 19.1082 21.0684 17.3982 21.783C15.6882 22.4976 13.8533 22.8656 12 22.8656C10.1467 22.8656 8.3118 22.4976 6.6018 21.783C4.89179 21.0684 3.34069 20.0214 2.03846 18.7027C1.6504 18.3097 1.65438 17.6765 2.04735 17.2885C2.44032 16.9004 3.07348 16.9044 3.46154 17.2974C3.95991 17.802 4.5008 18.2603 5.07735 18.6675L7.83333 13.5H6.5C6.05352 13.5 5.66113 13.204 5.53848 12.7747L2.53848 2.27473C2.38675 1.7437 2.69424 1.19021 3.22528 1.03849ZM10.1 13.5L6.80302 19.6819C6.99054 19.772 7.18058 19.8573 7.37297 19.9377C8.83869 20.5502 10.4114 20.8656 12 20.8656C13.5886 20.8656 15.1613 20.5502 16.627 19.9377C16.8337 19.8513 17.0376 19.7593 17.2386 19.6618L14.3631 13.5H10.1Z" fill="currentColor" style="fill="currentColor";fill-opacity:1;"/>
</svg>
