<svg width="24" height="24" viewBox="0 0 24 24" fill="none" xmlns="http://www.w3.org/2000/svg">
<g clip-path="url(#clip0_168_952)">
<path d="M22 20C21.45 20 21 19.55 21 19V13C20.81 13.15 20.6 13.28 20.39 13.39C19.95 13.63 19.48 13.8 19 13.9V19C19 19.55 18.55 20 18 20C17.45 20 17 19.55 17 19V13.91C16.33 13.79 15.66 13.54 15 13.17V19C15 19.55 14.55 20 14 20C13.45 20 13 19.55 13 19V11.66C12.39 11.08 11.79 10.4 11.2 9.59999C11.13 9.50999 11.07 9.41999 11 9.33999V19C11 19.55 10.55 20 10 20C9.45 20 9 19.55 9 19V7.23999C8.32 6.69999 7.66 6.32999 7 6.13999V19C7 19.55 6.55 20 6 20C5.45 20 5 19.55 5 19V6.16999C4.58 6.31999 4.2 6.55999 3.88 6.87999C3.31 7.44999 3 8.19999 3 8.99999V19C3 19.55 2.55 20 2 20C1.45 20 1 19.55 1 19V8.99999C1 7.65999 1.52 6.40999 2.46 5.45999C3.4 4.51999 4.66 3.99999 6 3.99999C8.33 3.99999 10.61 5.47999 12.8 8.39999C13.38 9.16999 13.95 9.81999 14.52 10.35C14.62 10.41 14.71 10.49 14.79 10.59C16.41 11.98 18.08 12.38 19.44 11.64C19.88 11.4 20.25 11.05 20.52 10.63C20.79 10.21 20.95 9.71999 20.99 9.22999C21.03 8.72999 20.94 8.22999 20.73 7.76999C20.52 7.30999 20.21 6.90999 19.81 6.60999C19.56 6.41999 19.29 6.27999 19 6.16999V8.99999C19 9.54999 18.55 9.99999 18 9.99999C17.45 9.99999 17 9.54999 17 8.99999V6.16999C17 6.16999 16.98 6.16999 16.97 6.16999C16.5 6.33999 16.08 6.62999 15.75 6.99999C15.38 7.40999 14.75 7.44999 14.34 7.08999C13.93 6.71999 13.89 6.08999 14.25 5.67999C14.8 5.05999 15.51 4.57999 16.29 4.28999C16.83 4.08999 17.4 3.98999 17.97 3.98999H18.03C18.27 3.98999 18.51 4.00999 18.75 4.04999C19.57 4.17999 20.36 4.50999 21.02 5.00999C21.68 5.50999 22.21 6.17999 22.56 6.93999C22.84 7.55999 22.99 8.21999 23 8.89999C23 8.92999 23 8.95999 23 8.99999V19C23 19.55 22.55 20 22 20Z" fill="currentColor" style="fill="currentColor";fill-opacity:1;"/>
</g>
<defs>
<clipPath id="clip0_168_952">
<rect width="22" height="16" fill="white" style="fill:white;fill-opacity:1;" transform="translate(1 4)"/>
</clipPath>
</defs>
</svg>
