<svg width="24" height="24" viewBox="0 0 24 24" fill="none" xmlns="http://www.w3.org/2000/svg">
<path fill-rule="evenodd" clip-rule="evenodd" d="M7.57021 4.48164C8.52822 2.56575 10.0367 1 12 1C13.3889 1 14.559 1.79808 15.4388 2.90369C16.228 3.89534 16.8538 5.21243 17.2883 6.7114C17.8012 6.86015 18.2895 7.03032 18.7486 7.22007C20.5784 7.97634 22.1149 9.11813 22.7265 10.6236C22.9343 11.1353 22.688 11.7186 22.1764 11.9265C21.6647 12.1343 21.0814 11.888 20.8735 11.3764C20.5581 10.5999 19.6136 9.74166 17.9847 9.06843C16.3941 8.41107 14.3086 8 12 8C10.6985 8 9.46977 8.13058 8.36146 8.36146C8.13058 9.46978 8 10.6985 8 12C8 13.3015 8.13058 14.5302 8.36146 15.6385C9.46978 15.8694 10.6985 16 12 16C13.6361 16 15.1569 15.7938 16.4684 15.4411L14.7556 14.6058C14.2592 14.3638 14.0531 13.7651 14.2952 13.2687C14.5372 12.7723 15.1359 12.5661 15.6323 12.8082L19.4463 14.6682C19.9427 14.9103 20.1489 15.509 19.9068 16.0054L18.0468 19.8194C17.8047 20.3158 17.206 20.5219 16.7096 20.2798C16.2132 20.0378 16.0071 19.4391 16.2492 18.9427L17.019 17.3641C15.5075 17.7738 13.7976 18 12 18C10.9591 18 9.94742 17.9241 8.9865 17.7806C9.10266 18.0786 9.22719 18.3602 9.35904 18.6239C10.2108 20.3272 11.2023 21 12 21C12.2049 21 12.4126 20.9591 12.6242 20.8733C13.136 20.6657 13.7191 20.9124 13.9267 21.4242C14.1343 21.936 13.8876 22.5191 13.3758 22.7267C12.9414 22.9029 12.4791 23 12 23C10.0367 23 8.52822 21.4343 7.57021 19.5184C7.23493 18.8479 6.94638 18.0986 6.71144 17.2886C5.90141 17.0536 5.15215 16.7651 4.48164 16.4298C2.56575 15.4718 1 13.9633 1 12C1 10.0367 2.56575 8.52822 4.48164 7.57021C5.15215 7.23493 5.90141 6.94638 6.71144 6.71144C6.94637 5.90141 7.23493 5.15215 7.57021 4.48164ZM8.9865 6.21936C9.94742 6.07589 10.9591 6 12 6C13.0419 6 14.0534 6.076 15.0135 6.21935C14.6857 5.3784 14.2959 4.67931 13.8739 4.14906C13.2145 3.32042 12.5631 3 12 3C11.2023 3 10.2108 3.67275 9.35904 5.37611C9.22719 5.6398 9.10266 5.92143 8.9865 6.21936ZM6.21936 8.9865C5.92143 9.10266 5.6398 9.22719 5.37611 9.35904C3.67275 10.2108 3 11.2023 3 12C3 12.7977 3.67275 13.7892 5.37611 14.641C5.6398 14.7728 5.92143 14.8973 6.21936 15.0135C6.07589 14.0526 6 13.0409 6 12C6 10.9591 6.07589 9.94742 6.21936 8.9865Z" fill="currentColor" style="fill="currentColor";fill-opacity:1;"/>
</svg>
