<svg width="24" height="24" viewBox="0 0 24 24" fill="none" xmlns="http://www.w3.org/2000/svg">
<path fill-rule="evenodd" clip-rule="evenodd" d="M8.6431 3.63273C10.3308 1.94618 12.619 0.998779 15.005 0.998779C17.3909 0.998779 19.6792 1.94618 21.3668 3.63273C21.7575 4.02313 21.7577 4.65629 21.3673 5.04695C20.9769 5.4376 20.3438 5.43781 19.9531 5.04741C18.6405 3.73565 16.8607 2.99878 15.005 2.99878C13.1493 2.99878 11.3695 3.73565 10.0569 5.04741C9.6662 5.43781 9.03303 5.4376 8.64264 5.04695C8.25224 4.65629 8.25245 4.02313 8.6431 3.63273ZM13.0954 5.37796C13.7023 5.12634 14.353 4.99683 15.0101 4.99683C15.6671 4.99683 16.3178 5.12634 16.9248 5.37796C17.5317 5.62958 18.0832 5.99838 18.5476 6.46326C18.9379 6.854 18.9375 7.48717 18.5468 7.87747C18.156 8.26778 17.5229 8.26743 17.1326 7.87669C16.8539 7.59776 16.5231 7.37648 16.1589 7.22551C15.7947 7.07453 15.4043 6.99683 15.0101 6.99683C14.6158 6.99683 14.2254 7.07453 13.8612 7.22551C13.497 7.37648 13.1662 7.59776 12.8876 7.87669C12.4972 8.26743 11.8641 8.26778 11.4733 7.87747C11.0826 7.48717 11.0822 6.854 11.4726 6.46326C11.9369 5.99838 12.4884 5.62958 13.0954 5.37796ZM15 9C15.5523 9 16 9.44772 16 10V13H20C21.6569 13 23 14.3431 23 16V20C23 21.6569 21.6569 23 20 23H4C2.34315 23 1 21.6569 1 20V16C1 14.3431 2.34315 13 4 13H14V10C14 9.44772 14.4477 9 15 9ZM4 15C3.44772 15 3 15.4477 3 16V20C3 20.5523 3.44772 21 4 21H20C20.5523 21 21 20.5523 21 20V16C21 15.4477 20.5523 15 20 15H4ZM5 18C5 17.4477 5.44772 17 6 17H6.01C6.56228 17 7.01 17.4477 7.01 18C7.01 18.5523 6.56228 19 6.01 19H6C5.44772 19 5 18.5523 5 18ZM9 18C9 17.4477 9.44772 17 10 17H10.01C10.5623 17 11.01 17.4477 11.01 18C11.01 18.5523 10.5623 19 10.01 19H10C9.44772 19 9 18.5523 9 18Z" fill="currentColor" style="fill="currentColor";fill-opacity:1;"/>
</svg>
