<svg width="24" height="24" viewBox="0 0 24 24" fill="none" xmlns="http://www.w3.org/2000/svg">
<path fill-rule="evenodd" clip-rule="evenodd" d="M1.29289 1.29289C1.68342 0.902369 2.31658 0.902369 2.70711 1.29289L5.8913 4.47709C5.90222 4.48752 5.91293 4.49822 5.9234 4.50918L19.4971 18.0829C19.5043 18.0899 19.5115 18.097 19.5185 18.1043L22.7071 21.2929C23.0976 21.6834 23.0976 22.3166 22.7071 22.7071C22.3166 23.0976 21.6834 23.0976 21.2929 22.7071L18.4803 19.8945C18.1655 19.9539 17.8199 20 17.5 20L9.87398 20C9.42994 21.7252 7.86384 23 6 23C3.79086 23 2 21.2091 2 19C2 16.7909 3.79086 15 6 15C7.86384 15 9.42994 16.2748 9.87398 18L16.5858 18L11.5857 13H6.49469C5.45078 12.9945 4.44225 12.6238 3.64096 11.9531C2.83986 11.2825 2.29574 10.3537 2.09928 9.3261C1.90285 8.29858 2.06576 7.23383 2.56108 6.31298C2.82794 5.81686 3.18258 5.37877 3.604 5.01821L1.29289 2.70711C0.902369 2.31658 0.902369 1.68342 1.29289 1.29289ZM5.02594 6.44016C4.73792 6.65702 4.49697 6.93595 4.32244 7.26041C4.04512 7.77596 3.95338 8.37346 4.06371 8.95055C4.17402 9.52756 4.47908 10.0464 4.92475 10.4195C5.36964 10.7919 5.92736 10.9964 6.50288 11H9.58574L5.02594 6.44016ZM18 3C16.8954 3 16 3.89545 16 5C16 6.10455 16.8954 7 18 7C19.1046 7 20 6.10457 20 5C20 3.89543 19.1046 3 18 3ZM14.126 4C14.57 2.27476 16.1362 1 18 1C20.2091 1 22 2.79086 22 5C22 7.20914 20.2091 9 18 9C16.1362 9 14.57 7.72524 14.126 6H10.7C10.1477 6 9.69995 5.55228 9.69995 5C9.69995 4.44772 10.1477 4 10.7 4H14.126ZM16.7015 11.9444C16.7322 11.393 17.2041 10.9708 17.7555 11.0015C18.8608 11.0631 19.9046 11.5299 20.6873 12.3126C21.4701 13.0954 21.9369 14.1391 21.9984 15.2444C22.0291 15.7958 21.607 16.2677 21.0555 16.2985C20.5041 16.3292 20.0322 15.907 20.0015 15.3556C19.9673 14.7416 19.708 14.1617 19.2731 13.7268C18.8383 13.292 18.2584 13.0326 17.6444 12.9985C17.0929 12.9677 16.6708 12.4958 16.7015 11.9444ZM6 17C4.89543 17 4 17.8954 4 19C4 20.1046 4.89543 21 6 21C7.10457 21 8 20.1046 8 19C8 17.8954 7.10457 17 6 17Z" fill="currentColor" style="fill="currentColor";fill-opacity:1;"/>
</svg>
