<svg width="24" height="24" viewBox="0 0 24 24" fill="none" xmlns="http://www.w3.org/2000/svg">
<path fill-rule="evenodd" clip-rule="evenodd" d="M18 3C16.8954 3 16 3.89543 16 5C16 6.10457 16.8954 7 18 7C19.1046 7 20 6.10457 20 5C20 3.89543 19.1046 3 18 3ZM14.126 4C14.5701 2.27477 16.1362 1 18 1C20.2091 1 22 2.79086 22 5C22 7.20914 20.2091 9 18 9C16.1362 9 14.5701 7.72523 14.126 6H6.5C5.83696 6 5.20107 6.26339 4.73223 6.73223C4.26339 7.20107 4 7.83696 4 8.5C4 9.16304 4.26339 9.79893 4.73223 10.2678C5.20107 10.7366 5.83696 11 6.5 11H17.5C18.6935 11 19.8381 11.4741 20.682 12.318C21.5259 13.1619 22 14.3065 22 15.5C22 16.6935 21.5259 17.8381 20.682 18.682C19.8381 19.5259 18.6935 20 17.5 20H9.87398C9.42994 21.7252 7.86384 23 6 23C3.79086 23 2 21.2091 2 19C2 16.7909 3.79086 15 6 15C7.86384 15 9.42994 16.2748 9.87398 18H17.5C18.163 18 18.7989 17.7366 19.2678 17.2678C19.7366 16.7989 20 16.163 20 15.5C20 14.837 19.7366 14.2011 19.2678 13.7322C18.7989 13.2634 18.163 13 17.5 13H6.5C5.30653 13 4.16193 12.5259 3.31802 11.682C2.47411 10.8381 2 9.69347 2 8.5C2 7.30653 2.47411 6.16193 3.31802 5.31802C4.16193 4.47411 5.30653 4 6.5 4H14.126ZM6 17C4.89543 17 4 17.8954 4 19C4 20.1046 4.89543 21 6 21C7.10457 21 8 20.1046 8 19C8 17.8954 7.10457 17 6 17Z" fill="black" style="fill:black;fill-opacity:1;"/>
</svg>
