<svg width="24" height="24" viewBox="0 0 24 24" fill="none" xmlns="http://www.w3.org/2000/svg">
<path fill-rule="evenodd" clip-rule="evenodd" d="M6.00615 3.40815C6.00591 3.40839 6.00568 3.40863 6.00544 3.40886L3.40886 6.00544C3.40863 6.00568 3.40839 6.00591 3.40815 6.00615C3.14564 6.27031 2.99829 6.62761 2.99829 7.00005C2.99829 7.37249 3.14565 7.7298 3.40817 7.99396C3.40794 7.99373 3.4084 7.99419 3.40817 7.99396L16.0084 20.5942C16.1384 20.7247 16.293 20.8282 16.4632 20.8989C16.6333 20.9696 16.8158 21.0059 17 21.0059C17.1843 21.0059 17.3668 20.9696 17.5369 20.8989C17.7071 20.8282 17.8616 20.7247 17.9917 20.5942L17.9929 20.5929L20.5929 17.9929L20.5942 17.9917C20.7247 17.8616 20.8282 17.7071 20.8989 17.5369C20.9696 17.3668 21.0059 17.1843 21.0059 17C21.0059 16.8158 20.9696 16.6333 20.8989 16.4632C20.8282 16.293 20.7247 16.1384 20.5942 16.0084L20.5929 16.0072L19.5 14.9142L18.2071 16.2071C17.8166 16.5976 17.1834 16.5976 16.7929 16.2071C16.4024 15.8166 16.4024 15.1834 16.7929 14.7929L18.0858 13.5L16.5 11.9142L15.2071 13.2071C14.8166 13.5976 14.1834 13.5976 13.7929 13.2071C13.4024 12.8166 13.4024 12.1834 13.7929 11.7929L15.0858 10.5L13.5 8.91421L12.2071 10.2071C11.8166 10.5976 11.1834 10.5976 10.7929 10.2071C10.4024 9.81658 10.4024 9.18342 10.7929 8.79289L12.0858 7.5L10.5 5.91421L9.20711 7.20711C8.81658 7.59763 8.18342 7.59763 7.79289 7.20711C7.40237 6.81658 7.40237 6.18342 7.79289 5.79289L9.08579 4.5L7.99465 3.40886C7.99442 3.40863 7.99488 3.40909 7.99465 3.40886C7.73049 3.14634 7.37249 2.99829 7.00005 2.99829C6.62761 2.99829 6.27031 3.14564 6.00615 3.40815ZM11.2065 3.79232L9.40715 1.99294L9.40544 1.99123C8.76642 1.3553 7.90158 0.998291 7.00005 0.998291C6.09852 0.998291 5.23367 1.3553 4.59465 1.99123L1.99294 4.59294L1.99123 4.59465C1.3553 5.23367 0.998291 6.09852 0.998291 7.00005C0.998291 7.90158 1.3553 8.76642 1.99123 9.40544L1.99294 9.40715L14.5917 22.0059C14.5921 22.0063 14.5925 22.0067 14.5929 22.0072M11.2065 3.79232C11.2063 3.79213 11.2067 3.79251 11.2065 3.79232C11.2067 3.79251 11.2075 3.79328 11.2077 3.79347L14.2066 6.79234C14.2064 6.79216 14.2067 6.79253 14.2066 6.79234C14.2067 6.79253 14.2075 6.79326 14.2077 6.79345L17.2064 9.79222C17.2062 9.792 17.2067 9.79245 17.2064 9.79222C17.2067 9.79245 17.2076 9.79334 17.2078 9.79357L20.206 12.7918C20.2064 12.7921 20.2067 12.7925 20.2071 12.7929C20.2075 12.7933 20.2079 12.7937 20.2082 12.794L22.0059 14.5917C22.0063 14.5921 22.0067 14.5925 22.0072 14.5929M22.0059 19.4084L22.0072 19.4072L22.0059 19.4084ZM22.0059 19.4084L19.4084 22.0059C19.408 22.0063 19.4076 22.0067 19.4072 22.0072" fill="currentColor" style="fill="currentColor";fill-opacity:1;"/>
</svg>
