<svg width="24" height="24" viewBox="0 0 24 24" fill="none" xmlns="http://www.w3.org/2000/svg">
<path fill-rule="evenodd" clip-rule="evenodd" d="M9.89327 1.00572C10.2092 0.971806 10.5224 1.09005 10.7372 1.32428L21.7372 13.3243C22.0051 13.6166 22.075 14.0397 21.9153 14.4027C21.7557 14.7657 21.3966 15 21 15H11V17H22C22.5523 17 23 17.4477 23 18C23 19.3261 22.4732 20.5979 21.5355 21.5355C20.5979 22.4732 19.3261 23 18 23H6C4.67392 23 3.40215 22.4732 2.46447 21.5355C1.52678 20.5979 1 19.3261 1 18C1 17.7348 1.10536 17.4804 1.29289 17.2929C1.48043 17.1054 1.73478 17 2 17H9V15H3C2.64193 15 2.3112 14.8086 2.13286 14.4981C1.95452 14.1876 1.9558 13.8054 2.13622 13.4961L9.13622 1.49614C9.29632 1.22167 9.57734 1.03963 9.89327 1.00572ZM11 13H18.7268L11 4.57081V13ZM9 5.69893V13H4.74104L9 5.69893ZM3.17157 19C3.31933 19.4179 3.55928 19.8019 3.87868 20.1213C4.44129 20.6839 5.20435 21 6 21H18C18.7956 21 19.5587 20.6839 20.1213 20.1213C20.4407 19.8019 20.6807 19.4179 20.8284 19H3.17157Z" fill="currentColor" style="fill="currentColor";fill-opacity:1;"/>
</svg>
