<svg width="24" height="24" viewBox="0 0 24 24" fill="none" xmlns="http://www.w3.org/2000/svg">
<path fill-rule="evenodd" clip-rule="evenodd" d="M12 5.53711C11.7772 5.53711 11.5607 5.61154 11.385 5.74858L5.91583 10H18.0842L12.615 5.74858C12.4393 5.61154 12.2228 5.53711 12 5.53711ZM20 12H4V14H20V12ZM19.9684 16H20V18H18.3017L19.9684 16ZM17.365 16H9.85358L13.5958 18.99C13.7993 19.1533 14.0586 19.2306 14.3183 19.2054C14.5771 19.1802 14.816 19.0552 14.9842 18.8569L17.365 16ZM16.635 20H20C20.5304 20 21.0391 19.7893 21.4142 19.4142C21.7893 19.0391 22 18.5304 22 18V16C22 15.6459 21.9061 15.3015 21.7321 15C21.9061 14.6985 22 14.3541 22 14V11C22 10.6913 21.8574 10.3999 21.6137 10.2105L13.845 4.17153C13.8448 4.17136 13.8452 4.17169 13.845 4.17153C13.318 3.76071 12.6682 3.53711 12 3.53711C11.3318 3.53711 10.6828 3.76017 10.1558 4.17089C10.1555 4.1711 10.1553 4.17132 10.155 4.17153L2.38627 10.2105C2.14256 10.3999 2 10.6913 2 11V14C2 14.3541 2.09391 14.6985 2.26794 15C2.09391 15.3015 2 15.6459 2 16V18C2 18.5304 2.21071 19.0391 2.58579 19.4142C2.96086 19.7893 3.46957 20 4 20H11.6559L12.3442 20.55C12.3445 20.5503 12.3449 20.5505 12.3453 20.5508C12.9556 21.0401 13.733 21.2716 14.5116 21.196C15.2907 21.1203 16.0093 20.7432 16.5142 20.145L16.5182 20.1402L16.635 20ZM9.15271 18L6.64956 16H4V18H9.15271Z" fill="currentColor" style="fill="currentColor";fill-opacity:1;"/>
</svg>
