<svg width="24" height="24" viewBox="0 0 24 24" fill="none" xmlns="http://www.w3.org/2000/svg">
<path fill-rule="evenodd" clip-rule="evenodd" d="M8 3C7.73478 3 7.48043 3.10536 7.29289 3.29289C7.10536 3.48043 7 3.73478 7 4V16C7 16.2652 7.10536 16.5196 7.29289 16.7071C7.48043 16.8946 7.73478 17 8 17H9V11C9 10.4477 9.44772 10 10 10H18C18.5523 10 19 10.4477 19 11V17H20L20.005 17C20.2538 17.0013 20.4941 16.9097 20.679 16.7433C20.8536 16.5862 20.967 16.3729 21 16.1413V6.41421L17.5858 3H11V5H16C16.5523 5 17 5.44772 17 6C17 6.55228 16.5523 7 16 7H10C9.44772 7 9 6.55228 9 6V3H8ZM10 1H8C7.20435 1 6.44129 1.31607 5.87868 1.87868C5.31607 2.44129 5 3.20435 5 4V16C5 16.7956 5.31607 17.5587 5.87868 18.1213C6.44129 18.6839 7.20435 19 8 19H19.9979M17 17V12H11V17H17ZM2 5C2.55228 5 3 5.44772 3 6V20C3 20.2652 3.10536 20.5196 3.29289 20.7071C3.48043 20.8946 3.73478 21 4 21H18C18.5523 21 19 21.4477 19 22C19 22.5523 18.5523 23 18 23H4C3.20435 23 2.44129 22.6839 1.87868 22.1213C1.31607 21.5587 1 20.7957 1 20V6C1 5.44772 1.44772 5 2 5Z" fill="currentColor" style="fill="currentColor";fill-opacity:1;"/>
</svg>
