<svg width="24" height="24" viewBox="0 0 24 24" fill="none" xmlns="http://www.w3.org/2000/svg">
<path fill-rule="evenodd" clip-rule="evenodd" d="M12 2C12.5523 2 13 2.44772 13 3V4.36968C14.8993 5.23798 17.3884 6 19 6H21C21.5523 6 22 6.44772 22 7C22 7.55228 21.5523 8 21 8H20.068L22.9363 15.6489C23.0925 16.0653 22.9549 16.5349 22.5985 16.8011C21.5567 17.5795 20.297 18 19 18C17.703 18 16.4433 17.5795 15.4015 16.8011C15.0452 16.5349 14.9075 16.0653 15.0637 15.6489L17.9572 7.93295C16.3862 7.74512 14.5561 7.18565 13 6.54814V20H17C17.5523 20 18 20.4477 18 21C18 21.5523 17.5523 22 17 22H7.00001C6.44773 22 6.00001 21.5523 6.00001 21C6.00001 20.4477 6.44773 20 7.00001 20H11V6.54814C9.44388 7.18565 7.6138 7.74512 6.04287 7.93295L8.93634 15.6489C9.09251 16.0653 8.95485 16.5349 8.59854 16.8011C7.55674 17.5795 6.29704 18 5.00001 18C3.70298 18 2.44328 17.5795 1.40148 16.8011C1.04517 16.5349 0.907509 16.0653 1.06368 15.6489L3.93201 8H3.00001C2.44773 8 2.00001 7.55228 2.00001 7C2.00001 6.44772 2.44773 6 3.00001 6H5.00001C6.61162 6 9.10071 5.23798 11 4.36968V3C11 2.44772 11.4477 2 12 2ZM5.00001 10.848L3.22421 15.5835C3.77524 15.8566 4.38181 16 5.00001 16C5.61821 16 6.22478 15.8566 6.77581 15.5835L5.00001 10.848ZM19 10.848L17.2242 15.5835C17.7752 15.8566 18.3818 16 19 16C19.6182 16 20.2248 15.8566 20.7758 15.5835L19 10.848Z" fill="currentColor" style="fill="currentColor";fill-opacity:1;"/>
</svg>
