<svg width="24" height="24" viewBox="0 0 24 24" fill="none" xmlns="http://www.w3.org/2000/svg">
<path fill-rule="evenodd" clip-rule="evenodd" d="M5 4C4.73478 4 4.48043 4.10536 4.29289 4.29289C4.10536 4.48043 4 4.73478 4 5V7C4 7.55228 3.55228 8 3 8C2.44772 8 2 7.55228 2 7V5C2 4.20435 2.31607 3.44129 2.87868 2.87868C3.44129 2.31607 4.20435 2 5 2H7C7.55228 2 8 2.44772 8 3C8 3.55228 7.55228 4 7 4H5ZM16 3C16 2.44772 16.4477 2 17 2H19C19.7957 2 20.5587 2.31607 21.1213 2.87868C21.6839 3.44129 22 4.20435 22 5V7C22 7.55228 21.5523 8 21 8C20.4477 8 20 7.55228 20 7V5C20 4.73478 19.8946 4.48043 19.7071 4.29289C19.5196 4.10536 19.2652 4 19 4H17C16.4477 4 16 3.55228 16 3ZM6.15017 12C6.19435 12.0721 6.24411 12.1512 6.29938 12.2363C6.57997 12.6679 6.99614 13.2414 7.5375 13.8113C8.63549 14.967 10.1409 16 12 16C13.8591 16 15.3645 14.967 16.4625 13.8113C17.0039 13.2414 17.42 12.6679 17.7006 12.2363C17.7559 12.1512 17.8057 12.0721 17.8498 12C17.8057 11.9279 17.7559 11.8488 17.7006 11.7637C17.42 11.3321 17.0039 10.7586 16.4625 10.1887C15.3645 9.03297 13.8591 8 12 8C10.1409 8 8.63549 9.03297 7.5375 10.1887C6.99614 10.7586 6.57997 11.3321 6.29938 11.7637C6.24411 11.8488 6.19435 11.9279 6.15017 12ZM19 12C19.8944 11.5528 19.8943 11.5525 19.8941 11.5521L19.8927 11.5493L19.89 11.5441L19.8819 11.5281C19.8752 11.5152 19.8661 11.4975 19.8544 11.4756C19.8311 11.4316 19.7978 11.3701 19.7547 11.2937C19.6685 11.141 19.5425 10.9276 19.3775 10.6738C19.0487 10.1679 18.5586 9.4914 17.9125 8.81125C16.6355 7.46703 14.6409 6 12 6C9.35911 6 7.36451 7.46703 6.0875 8.81125C5.44136 9.4914 4.95128 10.1679 4.62249 10.6738C4.45749 10.9276 4.33148 11.141 4.2453 11.2937C4.20217 11.3701 4.1689 11.4316 4.1456 11.4756C4.13395 11.4975 4.12478 11.5152 4.1181 11.5281L4.10996 11.5441L4.1073 11.5493L4.10632 11.5513C4.10614 11.5517 4.10557 11.5528 5 12L4.10557 11.5528C3.96481 11.8343 3.96481 12.1657 4.10557 12.4472L5 12C4.10557 12.4472 4.1054 12.4469 4.10557 12.4472L4.1073 12.4507L4.10996 12.4559L4.1181 12.4719C4.12478 12.4848 4.13395 12.5025 4.1456 12.5244C4.1689 12.5684 4.20217 12.6299 4.2453 12.7063C4.33148 12.859 4.45749 13.0724 4.62249 13.3262C4.95128 13.8321 5.44136 14.5086 6.0875 15.1887C7.36451 16.533 9.35911 18 12 18C14.6409 18 16.6355 16.533 17.9125 15.1887C18.5586 14.5086 19.0487 13.8321 19.3775 13.3262C19.5425 13.0724 19.6685 12.859 19.7547 12.7063C19.7978 12.6299 19.8311 12.5684 19.8544 12.5244C19.8661 12.5025 19.8752 12.4848 19.8819 12.4719L19.89 12.4559L19.8927 12.4507L19.8937 12.4487C19.8939 12.4483 19.8944 12.4472 19 12ZM19 12L19.8944 12.4472C20.0352 12.1657 20.0348 11.8336 19.8941 11.5521L19 12ZM10 12C10 10.8954 10.8954 10 12 10C13.1046 10 14 10.8954 14 12C14 13.1046 13.1046 14 12 14C10.8954 14 10 13.1046 10 12ZM5.89369 11.5513C5.89352 11.551 5.89357 11.5511 5.89369 11.5513V11.5513ZM3 16C3.55228 16 4 16.4477 4 17V19C4 19.2652 4.10536 19.5196 4.29289 19.7071C4.48043 19.8946 4.73478 20 5 20H7C7.55228 20 8 20.4477 8 21C8 21.5523 7.55228 22 7 22H5C4.20435 22 3.44129 21.6839 2.87868 21.1213C2.31607 20.5587 2 19.7957 2 19V17C2 16.4477 2.44772 16 3 16ZM21 16C21.5523 16 22 16.4477 22 17V19C22 19.7957 21.6839 20.5587 21.1213 21.1213C20.5587 21.6839 19.7957 22 19 22H17C16.4477 22 16 21.5523 16 21C16 20.4477 16.4477 20 17 20H19C19.2652 20 19.5196 19.8946 19.7071 19.7071C19.8946 19.5196 20 19.2652 20 19V17C20 16.4477 20.4477 16 21 16Z" fill="currentColor" style="fill="currentColor";fill-opacity:1;"/>
</svg>
