<svg width="24" height="24" viewBox="0 0 24 24" fill="none" xmlns="http://www.w3.org/2000/svg">
<path fill-rule="evenodd" clip-rule="evenodd" d="M11.5528 1.10557C11.8343 0.964809 12.1657 0.964809 12.4472 1.10557L18.4278 4.09589C18.4404 4.10186 18.4529 4.10809 18.4652 4.11456L20.4472 5.10557C20.9412 5.35256 21.1414 5.95324 20.8944 6.44721C20.6474 6.94119 20.0468 7.14142 19.5528 6.89443L19 6.61803V9.38197L22.4472 11.1056C22.786 11.275 23 11.6212 23 12V20C23 20.7957 22.6839 21.5587 22.1213 22.1213C21.5587 22.6839 20.7957 23 20 23H4C3.20435 23 2.44129 22.6839 1.87868 22.1213C1.31607 21.5587 1 20.7957 1 20V12C1 11.6212 1.214 11.275 1.55279 11.1056L5 9.38197V6.61803L4.44721 6.89443C3.95324 7.14142 3.35256 6.94119 3.10557 6.44721C2.85858 5.95324 3.05881 5.35256 3.55279 5.10557L5.53479 4.11457C5.5471 4.10809 5.55956 4.10186 5.57216 4.09589L11.5528 1.10557ZM7 5.61803V9.97833C7.00029 9.99228 7.00029 10.0062 7 10.0201V21H9V18C9 17.2043 9.31607 16.4413 9.87868 15.8787C10.4413 15.3161 11.2043 15 12 15C12.7957 15 13.5587 15.3161 14.1213 15.8787C14.6839 16.4413 15 17.2043 15 18V21H17V10.0201C16.9997 10.0062 16.9997 9.99228 17 9.97834V5.61803L12 3.11803L7 5.61803ZM19 11.618V21H20C20.2652 21 20.5196 20.8946 20.7071 20.7071C20.8946 20.5196 21 20.2652 21 20V12.618L19 11.618ZM13 21V18C13 17.7348 12.8946 17.4804 12.7071 17.2929C12.5196 17.1054 12.2652 17 12 17C11.7348 17 11.4804 17.1054 11.2929 17.2929C11.1054 17.4804 11 17.7348 11 18V21H13ZM5 21V11.618L3 12.618V20C3 20.2652 3.10536 20.5196 3.29289 20.7071C3.48043 20.8946 3.73478 21 4 21H5ZM12 8C11.4477 8 11 8.44772 11 9C11 9.55228 11.4477 10 12 10C12.5523 10 13 9.55228 13 9C13 8.44772 12.5523 8 12 8ZM9 9C9 7.34315 10.3431 6 12 6C13.6569 6 15 7.34315 15 9C15 10.6569 13.6569 12 12 12C10.3431 12 9 10.6569 9 9Z" fill="currentColor" style="fill="currentColor";fill-opacity:1;"/>
</svg>
