<svg width="24" height="24" viewBox="0 0 24 24" fill="none" xmlns="http://www.w3.org/2000/svg">
<path fill-rule="evenodd" clip-rule="evenodd" d="M6 4C4.89543 4 4 4.89543 4 6C4 7.10457 4.89543 8 6 8C6.53503 8 7.021 7.78991 7.3799 7.44772C7.3906 7.43595 7.40164 7.42438 7.41301 7.41301C7.42438 7.40164 7.43595 7.3906 7.44772 7.3799C7.78991 7.021 8 6.53503 8 6C8 4.89543 7.10457 4 6 4ZM9.44618 8.03197C9.79807 7.43645 10 6.74181 10 6C10 3.79086 8.20914 2 6 2C3.79086 2 2 3.79086 2 6C2 8.20914 3.79086 10 6 10C6.74181 10 7.43645 9.79807 8.03197 9.44618L10.5858 12.0001L8.03204 14.5539C7.43651 14.2019 6.74184 14 6 14C3.79086 14 2 15.7909 2 18C2 20.2091 3.79086 22 6 22C8.20914 22 10 20.2091 10 18C10 17.2582 9.79809 16.5636 9.44622 15.9681L12.698 12.7163C12.7011 12.7133 12.7042 12.7103 12.7072 12.7072C12.7103 12.7042 12.7133 12.7011 12.7163 12.698L20.7072 4.70711C21.0977 4.31658 21.0977 3.68342 20.7072 3.29289C20.3167 2.90237 19.6835 2.90237 19.293 3.29289L12.0001 10.5858L9.44618 8.03197ZM7.3791 16.5515C7.39006 16.5636 7.40136 16.5755 7.41301 16.5871C7.42465 16.5987 7.4365 16.61 7.44855 16.621C7.79025 16.9798 8 17.4654 8 18C8 19.1046 7.10457 20 6 20C4.89543 20 4 19.1046 4 18C4 16.8954 4.89543 16 6 16C6.53464 16 7.02028 16.2098 7.3791 16.5515ZM14.0929 14.0929C14.4835 13.7024 15.1166 13.7024 15.5072 14.0929L20.7072 19.2929C21.0977 19.6835 21.0977 20.3166 20.7072 20.7072C20.3166 21.0977 19.6835 21.0977 19.2929 20.7072L14.0929 15.5072C13.7024 15.1166 13.7024 14.4835 14.0929 14.0929Z" fill="currentColor" style="fill="currentColor";fill-opacity:1;"/>
</svg>
