<svg width="24" height="24" viewBox="0 0 24 24" fill="none" xmlns="http://www.w3.org/2000/svg">
<path fill-rule="evenodd" clip-rule="evenodd" d="M1.87868 2.87868C2.44129 2.31607 3.20435 2 4 2H13C13.5523 2 14 2.44772 14 3C14 3.55228 13.5523 4 13 4H4C3.73478 4 3.48043 4.10536 3.29289 4.29289C3.10536 4.48043 3 4.73478 3 5V15C3 15.2652 3.10536 15.5196 3.29289 15.7071C3.48043 15.8946 3.73478 16 4 16H20C20.2652 16 20.5196 15.8946 20.7071 15.7071C20.8946 15.5196 21 15.2652 21 15V12C21 11.4477 21.4477 11 22 11C22.5523 11 23 11.4477 23 12V15C23 15.7957 22.6839 16.5587 22.1213 17.1213C21.5587 17.6839 20.7957 18 20 18H13V20H16C16.5523 20 17 20.4477 17 21C17 21.5523 16.5523 22 16 22H8C7.44772 22 7 21.5523 7 21C7 20.4477 7.44772 20 8 20H11V18H4C3.20435 18 2.44129 17.6839 1.87868 17.1213C1.31607 16.5587 1 15.7956 1 15V5C1 4.20435 1.31607 3.44129 1.87868 2.87868ZM16.2929 2.29289C16.6834 1.90237 17.3166 1.90237 17.7071 2.29289L19.5 4.08579L21.2929 2.29289C21.6834 1.90237 22.3166 1.90237 22.7071 2.29289C23.0976 2.68342 23.0976 3.31658 22.7071 3.70711L20.9142 5.5L22.7071 7.29289C23.0976 7.68342 23.0976 8.31658 22.7071 8.70711C22.3166 9.09763 21.6834 9.09763 21.2929 8.70711L19.5 6.91421L17.7071 8.70711C17.3166 9.09763 16.6834 9.09763 16.2929 8.70711C15.9024 8.31658 15.9024 7.68342 16.2929 7.29289L18.0858 5.5L16.2929 3.70711C15.9024 3.31658 15.9024 2.68342 16.2929 2.29289Z" fill="black" style="fill:black;fill-opacity:1;"/>
</svg>
