<svg width="24" height="24" viewBox="0 0 24 24" fill="none" xmlns="http://www.w3.org/2000/svg">
<path fill-rule="evenodd" clip-rule="evenodd" d="M1.87868 2.87868C2.44129 2.31607 3.20435 2 4 2H17C17.7957 2 18.5587 2.31607 19.1213 2.87868C19.6839 3.44129 20 4.20435 20 5V16H22C22.5523 16 23 16.4477 23 17V19C23 19.7957 22.6839 20.5587 22.1213 21.1213C21.5587 21.6839 20.7957 22 20 22H8C7.20435 22 6.44129 21.6839 5.87868 21.1213C5.31607 20.5587 5 19.7957 5 19V9H2C1.44772 9 1 8.55228 1 8V5C1 4.20435 1.31607 3.44129 1.87868 2.87868ZM7 19C7 19.2652 7.10536 19.5196 7.29289 19.7071C7.48043 19.8946 7.73478 20 8 20C8.26522 20 8.51957 19.8946 8.70711 19.7071C8.89464 19.5196 9 19.2652 9 19V17C9 16.4477 9.44772 16 10 16H18V5C18 4.73478 17.8946 4.48043 17.7071 4.29289C17.5196 4.10536 17.2652 4 17 4H6.82843C6.94094 4.3182 7 4.65606 7 5V19ZM4 4C4.26522 4 4.51957 4.10536 4.70711 4.29289C4.89464 4.48043 5 4.73478 5 5V7H3V5C3 4.73478 3.10536 4.48043 3.29289 4.29289C3.48043 4.10536 3.73478 4 4 4ZM11 18V19C11 19.3439 10.9409 19.6818 10.8284 20H20C20.2652 20 20.5196 19.8946 20.7071 19.7071C20.8946 19.5196 21 19.2652 21 19V18H11Z" fill="currentColor" style="fill="currentColor";fill-opacity:1;"/>
</svg>
