<svg width="24" height="24" viewBox="0 0 24 24" fill="none" xmlns="http://www.w3.org/2000/svg">
<path fill-rule="evenodd" clip-rule="evenodd" d="M11 4C7.13401 4 4 7.13401 4 11C4 14.866 7.13401 18 11 18C14.866 18 18 14.866 18 11C18 7.13401 14.866 4 11 4ZM2 11C2 6.02944 6.02944 2 11 2C15.9706 2 20 6.02944 20 11C20 13.125 19.2635 15.078 18.0319 16.6177L21.7071 20.2928C22.0976 20.6834 22.0976 21.3165 21.7071 21.7071C21.3165 22.0976 20.6834 22.0976 20.2928 21.7071L16.6177 18.0319C15.078 19.2635 13.125 20 11 20C6.02944 20 2 15.9706 2 11ZM14.7071 8.29289C15.0976 8.68342 15.0976 9.31658 14.7071 9.70711L10.7071 13.7071C10.3166 14.0976 9.68342 14.0976 9.29289 13.7071L7.29289 11.7071C6.90237 11.3166 6.90237 10.6834 7.29289 10.2929C7.68342 9.90237 8.31658 9.90237 8.70711 10.2929L10 11.5858L13.2929 8.29289C13.6834 7.90237 14.3166 7.90237 14.7071 8.29289Z" fill="currentColor" style="fill="currentColor";fill-opacity:1;"/>
</svg>
