<svg width="24" height="24" viewBox="0 0 24 24" fill="none" xmlns="http://www.w3.org/2000/svg">
<path fill-rule="evenodd" clip-rule="evenodd" d="M2.33684 2.25157C2.63666 1.9859 3.0661 1.92479 3.42813 2.09628L22.4281 11.0963C22.7774 11.2617 23 11.6136 23 12C23 12.3865 22.7774 12.7383 22.4281 12.9038L3.42813 21.9038C3.0661 22.0752 2.63666 22.0141 2.33684 21.7485C2.03702 21.4828 1.92468 21.0638 2.05136 20.6838L4.94595 12L2.05136 3.31624C1.92468 2.93621 2.03702 2.51725 2.33684 2.25157ZM6.7208 13L4.68977 19.0931L17.553 13H6.7208ZM17.553 11H6.7208L4.68977 4.90693L17.553 11Z" fill="currentColor" style="fill="currentColor";fill-opacity:1;"/>
</svg>
