<svg width="24" height="24" viewBox="0 0 24 24" fill="none" xmlns="http://www.w3.org/2000/svg">
<path fill-rule="evenodd" clip-rule="evenodd" d="M4 3C3.44772 3 3 3.44772 3 4V8C3 8.55228 3.44772 9 4 9H8C8.55228 9 9 8.55228 9 8V4C9 3.44772 8.55228 3 8 3H4ZM1 4C1 2.34315 2.34315 1 4 1H8C9.65685 1 11 2.34315 11 4V8C11 9.65685 9.65685 11 8 11H4C2.34315 11 1 9.65685 1 8V4ZM13 7C13 6.44772 13.4477 6 14 6H15C15.7956 6 16.5587 6.31607 17.1213 6.87868C17.6839 7.44129 18 8.20435 18 9V10C18 10.5523 17.5523 11 17 11C16.4477 11 16 10.5523 16 10V9C16 8.73478 15.8946 8.48043 15.7071 8.29289C15.5196 8.10536 15.2652 8 15 8H14C13.4477 8 13 7.55228 13 7ZM7 13C7.55228 13 8 13.4477 8 14V15C8 15.2652 8.10536 15.5196 8.29289 15.7071C8.48043 15.8946 8.73478 16 9 16H10C10.5523 16 11 16.4477 11 17C11 17.5523 10.5523 18 10 18H9C8.20435 18 7.44129 17.6839 6.87868 17.1213C6.31607 16.5587 6 15.7956 6 15V14C6 13.4477 6.44772 13 7 13ZM16 15C15.4477 15 15 15.4477 15 16V20C15 20.5523 15.4477 21 16 21H20C20.5523 21 21 20.5523 21 20V16C21 15.4477 20.5523 15 20 15H16ZM13 16C13 14.3431 14.3431 13 16 13H20C21.6569 13 23 14.3431 23 16V20C23 21.6569 21.6569 23 20 23H16C14.3431 23 13 21.6569 13 20V16Z" fill="currentColor" style="fill="currentColor";fill-opacity:1;"/>
</svg>
