<svg width="24" height="24" viewBox="0 0 24 24" fill="none" xmlns="http://www.w3.org/2000/svg">
<path fill-rule="evenodd" clip-rule="evenodd" d="M12 2C12.5523 2 13 2.44772 13 3V21C13 21.5523 12.5523 22 12 22C11.4477 22 11 21.5523 11 21V3C11 2.44772 11.4477 2 12 2ZM8.70711 7.29289C9.09763 7.68342 9.09763 8.31658 8.70711 8.70711L5.41421 12L8.70711 15.2929C9.09763 15.6834 9.09763 16.3166 8.70711 16.7071C8.31658 17.0976 7.68342 17.0976 7.29289 16.7071L3.29289 12.7071C2.90237 12.3166 2.90237 11.6834 3.29289 11.2929L7.29289 7.29289C7.68342 6.90237 8.31658 6.90237 8.70711 7.29289ZM15.2929 7.29289C15.6834 6.90237 16.3166 6.90237 16.7071 7.29289L20.7071 11.2929C21.0976 11.6834 21.0976 12.3166 20.7071 12.7071L16.7071 16.7071C16.3166 17.0976 15.6834 17.0976 15.2929 16.7071C14.9024 16.3166 14.9024 15.6834 15.2929 15.2929L18.5858 12L15.2929 8.70711C14.9024 8.31658 14.9024 7.68342 15.2929 7.29289Z" fill="currentColor" style="fill="currentColor";fill-opacity:1;"/>
</svg>
