<svg width="24" height="24" viewBox="0 0 24 24" fill="none" xmlns="http://www.w3.org/2000/svg">
<path fill-rule="evenodd" clip-rule="evenodd" d="M4 3C3.73478 3 3.48043 3.10536 3.29289 3.29289C3.10536 3.48043 3 3.73478 3 4V8C3 8.26522 3.10536 8.51957 3.29289 8.70711C3.48043 8.89464 3.73478 9 4 9H4.5C5.05228 9 5.5 9.44772 5.5 10C5.5 10.5523 5.05228 11 4.5 11H4C3.20435 11 2.44129 10.6839 1.87868 10.1213C1.31607 9.55871 1 8.79565 1 8V4C1 3.20435 1.31607 2.44129 1.87868 1.87868C2.44129 1.31607 3.20435 1 4 1H20C20.7957 1 21.5587 1.31607 22.1213 1.87868C22.6839 2.44129 23 3.20435 23 4V8C23 8.79565 22.6839 9.55871 22.1213 10.1213C21.5587 10.6839 20.7957 11 20 11H19.5C18.9477 11 18.5 10.5523 18.5 10C18.5 9.44772 18.9477 9 19.5 9H20C20.2652 9 20.5196 8.89464 20.7071 8.70711C20.8946 8.51957 21 8.26522 21 8V4C21 3.73478 20.8946 3.48043 20.7071 3.29289C20.5196 3.10536 20.2652 3 20 3H4ZM5 6C5 5.44772 5.44772 5 6 5H6.01C6.56228 5 7.01 5.44772 7.01 6C7.01 6.55228 6.56228 7 6.01 7H6C5.44772 7 5 6.55228 5 6ZM13.7162 7.35137C14.2401 7.52601 14.5233 8.09233 14.3487 8.61628L14.3095 8.7337C14.6292 8.96017 14.9142 9.2324 15.155 9.54085L15.3286 9.47143C15.8413 9.26631 16.4233 9.51573 16.6284 10.0285C16.8335 10.5413 16.5841 11.1233 16.0713 11.3284L15.9517 11.3763C15.9835 11.5795 16 11.7878 16 12C16 12.148 15.992 12.2942 15.9763 12.4381L16.0163 12.4514C16.5402 12.6261 16.8234 13.1924 16.6487 13.7163C16.4741 14.2403 15.9078 14.5234 15.3838 14.3488L15.2663 14.3096C15.0398 14.6293 14.7675 14.9143 14.459 15.1551L14.5284 15.3286C14.7335 15.8413 14.4841 16.4233 13.9713 16.6284C13.4586 16.8335 12.8766 16.5841 12.6715 16.0713L12.6236 15.9517C12.4204 15.9835 12.2121 16 12 16C11.852 16 11.7058 15.992 11.562 15.9763L11.5487 16.0163C11.374 16.5402 10.8077 16.8234 10.2837 16.6487C9.75981 16.4741 9.47664 15.9078 9.65129 15.3838L9.69047 15.2663C9.37072 15.0398 9.08569 14.7675 8.84491 14.459L8.67144 14.5284C8.15866 14.7335 7.57669 14.4841 7.37157 13.9713C7.16646 13.4586 7.41587 12.8766 7.92866 12.6715L8.04832 12.6236C8.01651 12.4204 8 12.2121 8 12C8 11.852 8.00804 11.7059 8.0237 11.5621L7.98382 11.5488C7.45988 11.3741 7.17672 10.8078 7.35137 10.2839C7.52601 9.75993 8.09233 9.47677 8.61628 9.65141L8.73366 9.69054C8.96016 9.37077 9.23244 9.08572 9.54094 8.84493L9.47155 8.67144C9.26643 8.15866 9.51585 7.57669 10.0286 7.37157C10.5414 7.16646 11.1234 7.41587 11.3285 7.92866L11.3764 8.04833C11.5796 8.01651 11.7879 8 12 8C12.148 8 12.2942 8.00804 12.438 8.02371L12.4513 7.98382C12.6259 7.45988 13.1923 7.17672 13.7162 7.35137ZM10.969 10.2859C11.037 10.2742 11.1048 10.2552 11.1714 10.2285C11.2627 10.192 11.3457 10.1435 11.4192 10.0856C11.603 10.0299 11.798 10 12 10C12.7274 10 13.3642 10.3884 13.7142 10.969C13.7259 11.037 13.7448 11.1047 13.7715 11.1713C13.808 11.2626 13.8564 11.3455 13.9143 11.419C13.97 11.6029 14 11.7979 14 12C14 12.7274 13.6117 13.3641 13.031 13.7141C12.963 13.7258 12.8952 13.7448 12.8286 13.7715C12.7373 13.808 12.6543 13.8565 12.5808 13.9144C12.397 13.9701 12.202 14 12 14C11.2726 14 10.6359 13.6117 10.2859 13.031C10.2742 12.963 10.2552 12.8952 10.2285 12.8286C10.192 12.7373 10.1435 12.6543 10.0856 12.5808C10.0299 12.397 10 12.202 10 12C10 11.2726 10.3883 10.6359 10.969 10.2859ZM1.87868 13.8787C2.44129 13.3161 3.20435 13 4 13H4.5C5.05228 13 5.5 13.4477 5.5 14C5.5 14.5523 5.05228 15 4.5 15H4C3.73478 15 3.48043 15.1054 3.29289 15.2929C3.10536 15.4804 3 15.7348 3 16V20C3 20.2652 3.10536 20.5196 3.29289 20.7071C3.48043 20.8946 3.73478 21 4 21H20C20.2652 21 20.5196 20.8946 20.7071 20.7071C20.8946 20.5196 21 20.2652 21 20V16C21 15.7348 20.8946 15.4804 20.7071 15.2929C20.5196 15.1054 20.2652 15 20 15H19.5C18.9477 15 18.5 14.5523 18.5 14C18.5 13.4477 18.9477 13 19.5 13H20C20.7957 13 21.5587 13.3161 22.1213 13.8787C22.6839 14.4413 23 15.2043 23 16V20C23 20.7957 22.6839 21.5587 22.1213 22.1213C21.5587 22.6839 20.7957 23 20 23H4C3.20435 23 2.44129 22.6839 1.87868 22.1213C1.31607 21.5587 1 20.7957 1 20V16C1 15.2044 1.31607 14.4413 1.87868 13.8787ZM5 18C5 17.4477 5.44772 17 6 17H6.01C6.56228 17 7.01 17.4477 7.01 18C7.01 18.5523 6.56228 19 6.01 19H6C5.44772 19 5 18.5523 5 18Z" fill="currentColor" style="fill="currentColor";fill-opacity:1;"/>
</svg>
