<svg width="24" height="24" viewBox="0 0 24 24" fill="none" xmlns="http://www.w3.org/2000/svg">
<path fill-rule="evenodd" clip-rule="evenodd" d="M6.32218 3.93341C6.18989 3.89971 6.0521 3.89346 5.9173 3.91503C5.78251 3.93661 5.65355 3.98556 5.53839 4.05886C5.42322 4.13216 5.32429 4.22827 5.24767 4.34126C5.23787 4.35571 5.22769 4.36991 5.21715 4.38383C3.77536 6.28737 2.99662 8.6107 3 10.9986L3 11C3 13.387 3.94821 15.6762 5.63604 17.364C7.32387 19.0518 9.61305 20 12 20C14.3869 20 16.6761 19.0518 18.364 17.364C20.0518 15.6762 21 13.387 21 11C21 9.14353 20.2625 7.36306 18.9497 6.0503C17.637 4.73755 15.8565 4.00005 14 4.00005C12.1435 4.00005 10.363 4.73755 9.05025 6.0503C8.85063 6.24993 8.6643 6.46037 8.49185 6.68024C8.46631 6.71497 8.44 6.74916 8.41294 6.7828C7.50129 7.99054 7 9.46945 7 11C7 12.3261 7.52678 13.5979 8.46447 14.5356C9.40215 15.4733 10.6739 16 12 16C13.3261 16 14.5979 15.4733 15.5355 14.5356C16.4732 13.5979 17 12.3261 17 11C17 10.2044 16.6839 9.44134 16.1213 8.87873C15.5587 8.31612 14.7956 8.00005 14 8.00005C13.2044 8.00005 12.4413 8.31612 11.8787 8.87873C11.3161 9.44134 11 10.2044 11 11C11 11.2653 11.1054 11.5196 11.2929 11.7072C11.4804 11.8947 11.7348 12 12 12C12.2652 12 12.5196 11.8947 12.7071 11.7072C12.8946 11.5196 13 11.2653 13 11C13 10.4478 13.4477 10 14 10C14.5523 10 15 10.4478 15 11C15 11.7957 14.6839 12.5588 14.1213 13.1214C13.5587 13.684 12.7957 14 12 14C11.2043 14 10.4413 13.684 9.87868 13.1214C9.31607 12.5588 9 11.7957 9 11C9 9.67397 9.52678 8.4022 10.4645 7.46452C11.4021 6.52683 12.6739 6.00005 14 6.00005C15.3261 6.00005 16.5979 6.52683 17.5355 7.46452C18.4732 8.4022 19 9.67397 19 11C19 12.8566 18.2625 14.637 16.9497 15.9498C15.637 17.2626 13.8565 18 12 18C10.1435 18 8.36301 17.2626 7.05025 15.9498C5.7375 14.637 5 12.8566 5 11C5 9.08479 5.61049 7.23247 6.7237 5.70325C6.75362 5.65379 6.78827 5.60626 6.82767 5.56126C6.83225 5.55603 6.83678 5.55075 6.84124 5.54543C6.85841 5.5229 6.87569 5.50044 6.89309 5.47805C6.95107 5.39568 6.99639 5.30485 7.02735 5.20856C7.06914 5.0786 7.08387 4.94146 7.07064 4.80559C7.05742 4.66972 7.01652 4.53799 6.95045 4.41853C6.88439 4.29907 6.79456 4.19439 6.68651 4.11096C6.57846 4.02753 6.45447 3.9671 6.32218 3.93341ZM8.80253 3.65247C8.77117 3.58405 8.7372 3.51673 8.70066 3.45065C8.50246 3.09226 8.23299 2.77825 7.90884 2.52795C7.58468 2.27765 7.21271 2.09638 6.81584 1.99529C6.41897 1.8942 6.00561 1.87544 5.60121 1.94017C5.19682 2.0049 4.80996 2.15174 4.46446 2.37165C4.12694 2.58648 3.83588 2.86661 3.60833 3.19547C1.91229 5.44336 0.996324 8.18369 1 11" fill="currentColor" style="fill="currentColor";fill-opacity:1;"/>
</svg>
