<svg width="24" height="24" viewBox="0 0 24 24" fill="none" xmlns="http://www.w3.org/2000/svg">
<path fill-rule="evenodd" clip-rule="evenodd" d="M13 3.74736C14.7743 5.03414 17.0283 5.99996 19 5.99996V13C19 15.2358 18.2292 16.8613 17.0139 18.1082C15.98 19.1689 14.5935 19.9858 13 20.6335V3.74736ZM11 20.6227C9.40589 19.9788 8.01997 19.1645 6.98675 18.1063C5.77079 16.861 5 15.2359 5 13V5.99996C6.97104 5.99996 9.23074 5.02768 11 3.74646V20.6227ZM11.3341 22.8819C9.18016 22.1371 7.10279 21.088 5.55575 19.5036C3.97921 17.8889 3 15.764 3 13V5.99996C3 5.46953 3.21071 4.96082 3.58579 4.58575C3.96086 4.21068 4.46957 3.99996 5 3.99996C6.67639 3.99996 8.95161 2.95119 10.5821 1.52685L10.5904 1.51962L10.5904 1.51966C10.9834 1.18396 11.4832 0.999512 12 0.999512C12.5168 0.999512 13.0166 1.18396 13.4096 1.51966L13.4182 1.52707L13.4182 1.52712C15.0577 2.96053 17.3229 3.99996 19 3.99996C19.5304 3.99996 20.0391 4.21068 20.4142 4.58575C20.7893 4.96082 21 5.46953 21 5.99996V13C21 15.7641 20.0208 17.8886 18.4461 19.5042C16.8987 21.0919 14.8206 22.1443 12.6691 22.8942L12.661 22.8971L12.6609 22.8971C12.2297 23.0432 11.7616 23.0378 11.3341 22.8819Z" fill="currentColor" style="fill="currentColor";fill-opacity:1;"/>
</svg>
