<svg width="24" height="24" viewBox="0 0 24 24" fill="none" xmlns="http://www.w3.org/2000/svg">
<path fill-rule="evenodd" clip-rule="evenodd" d="M11.8918 3.03837C10.0424 4.65169 7.32107 5.99996 5 5.99996V13C5 15.2359 5.77079 16.861 6.98675 18.1063C8.22994 19.3796 9.98374 20.2997 11.9964 20.9947L12.019 21.0028C14.0241 20.3031 15.773 19.3813 17.0139 18.1082C18.2292 16.8613 19 15.2358 19 13V5.99996C16.6797 5.99996 13.9684 4.66241 12.1081 3.03829C12.0777 3.01324 12.0395 2.99951 12 2.99951C11.9605 2.99951 11.9223 3.01327 11.8918 3.03837ZM10.5904 1.51966C10.9834 1.18396 11.4832 0.999512 12 0.999512C12.5168 0.999512 13.0166 1.18396 13.4096 1.51966L13.4182 1.52707C15.0578 2.96048 17.3229 3.99996 19 3.99996C19.5304 3.99996 20.0391 4.21068 20.4142 4.58575C20.7893 4.96082 21 5.46953 21 5.99996V13C21 15.7641 20.0208 17.8886 18.4461 19.5042C16.8987 21.0919 14.8206 22.1443 12.6691 22.8942L12.661 22.8971C12.2297 23.0432 11.7616 23.0378 11.3341 22.8819C9.18016 22.1371 7.10279 21.088 5.55575 19.5036C3.97921 17.8889 3 15.764 3 13V5.99996C3 5.46953 3.21071 4.96082 3.58579 4.58575C3.96086 4.21068 4.46957 3.99996 5 3.99996C6.67639 3.99996 8.95161 2.95119 10.5821 1.52685L10.5904 1.51966ZM12.2589 8.05208C11.7966 7.97266 11.3211 8.05823 10.9155 8.29384C10.51 8.52944 10.2001 8.9001 10.0401 9.34102C9.85175 9.86018 9.27817 10.1283 8.75901 9.93995C8.23984 9.75158 7.97169 9.178 8.16007 8.65883C8.48004 7.77701 9.09977 7.03569 9.91091 6.56447C10.7221 6.09325 11.673 5.92211 12.5975 6.08097C13.5221 6.23982 14.3614 6.71857 14.9687 7.43351C15.576 8.14845 15.9128 9.05411 15.9201 9.99217L15.9201 9.99992C15.9201 11.5308 14.7852 12.5417 13.9748 13.082C13.5392 13.3724 13.1107 13.5859 12.795 13.7262C12.6357 13.797 12.5016 13.8507 12.405 13.8875C12.3566 13.906 12.3174 13.9203 12.2888 13.9304L12.2541 13.9426L12.243 13.9464L12.2391 13.9477L12.2376 13.9482C12.2373 13.9483 12.2363 13.9486 11.9201 12.9999M13.9201 10.0034C13.9155 9.53593 13.7472 9.08475 13.4445 8.72835C13.1408 8.37088 12.7211 8.13151 12.2589 8.05208M11 17C11 16.4477 11.4477 16 12 16H12.01C12.5623 16 13.01 16.4477 13.01 17C13.01 17.5523 12.5623 18 12.01 18H12C11.4477 18 11 17.5523 11 17Z" fill="currentColor" style="fill="currentColor";fill-opacity:1;"/>
</svg>
