<svg width="24" height="24" viewBox="0 0 24 24" fill="none" xmlns="http://www.w3.org/2000/svg">
<path fill-rule="evenodd" clip-rule="evenodd" d="M11.8918 3.03837C10.4275 4.31581 8.4164 5.42708 6.49024 5.83442L18.3731 16.1335C18.7737 15.2436 19 14.2113 19 13V5.99996C16.6797 5.99996 13.9684 4.66241 12.1081 3.03829C12.0777 3.01324 12.0395 2.99951 12 2.99951C11.9605 2.99951 11.9223 3.01327 11.8918 3.03837ZM17.2741 17.8276L5 7.18946V13C5 15.2359 5.77079 16.861 6.98675 18.1063C8.22994 19.3796 9.98374 20.2997 11.9964 20.9947L12.019 21.0028C14.0241 20.3031 15.773 19.3813 17.0139 18.1082C17.1031 18.0167 17.1898 17.9232 17.2741 17.8276ZM4.08233 4.22291C3.85915 4.2591 3.64691 4.37079 3.48725 4.55501C3.37094 4.68921 3.29669 4.84555 3.26335 5.00795C3.09226 5.3075 3 5.64897 3 5.99996V13C3 15.764 3.97921 17.8889 5.55575 19.5036C7.10279 21.088 9.18016 22.1371 11.3341 22.8819C11.7616 23.0378 12.2297 23.0432 12.6609 22.8971L12.661 22.8971L12.6691 22.8942C14.8206 22.1443 16.8987 21.0919 18.4461 19.5042C20.0208 17.8886 21 15.7641 21 13V5.99996C21 5.46953 20.7893 4.96082 20.4142 4.58575C20.0391 4.21068 19.5304 3.99996 19 3.99996C17.3229 3.99996 15.0577 2.96053 13.4182 1.52712L13.4182 1.52707L13.4096 1.51966C13.0166 1.18396 12.5168 0.999512 12 0.999512C11.4832 0.999512 10.9834 1.18396 10.5904 1.51966L10.5904 1.51962L10.5821 1.52685C8.95161 2.95119 6.67639 3.99996 5 3.99996C4.67772 3.99996 4.36347 4.07774 4.08233 4.22291Z" fill="currentColor" style="fill="currentColor";fill-opacity:1;"/>
</svg>
