<svg width="24" height="24" viewBox="0 0 24 24" fill="none" xmlns="http://www.w3.org/2000/svg">
<path fill-rule="evenodd" clip-rule="evenodd" d="M11.8912 3.03895C11.2457 3.59843 10.5477 4.09419 9.80677 4.51932C9.32774 4.79418 8.71659 4.62867 8.44172 4.14964C8.16686 3.67062 8.33237 3.05947 8.8114 2.7846C9.44184 2.42286 10.0357 2.00088 10.5848 1.52458L10.5905 1.51964L10.5905 1.51966C10.9834 1.18396 11.4833 0.999512 12.0001 0.999512C12.5169 0.999512 13.0167 1.18396 13.4097 1.51966L13.4183 1.52707L13.4183 1.52712C15.0578 2.96053 17.323 3.99996 19.0001 3.99996C19.5305 3.99996 20.0392 4.21068 20.4143 4.58575C20.7894 4.96082 21.0001 5.46953 21.0001 5.99996L21.0001 12.9984C21.0001 12.9988 21.0001 12.9992 21.0001 12.9997M1.29289 1.29289C1.68342 0.902369 2.31658 0.902369 2.70711 1.29289L18.9393 17.525C18.9451 17.5308 18.9509 17.5366 18.9567 17.5424L22.7071 21.2929C23.0976 21.6834 23.0976 22.3166 22.7071 22.7071C22.3166 23.0976 21.6834 23.0976 21.2929 22.7071L18.2696 19.6838C16.7404 21.171 14.7401 22.1716 12.6695 22.8942L12.661 22.8971L12.6609 22.8971C12.2297 23.0432 11.7616 23.0378 11.3341 22.8819C9.18015 22.1372 7.10279 21.088 5.55575 19.5036C3.97921 17.889 3 15.7641 3 13V6C3 5.56819 3.13964 5.15077 3.39392 4.80813L1.29289 2.70711C0.902369 2.31658 0.902369 1.68342 1.29289 1.29289ZM5 6.41421V13C5 15.2359 5.77079 16.861 6.98675 18.1064C8.22994 19.3796 9.98374 20.2997 11.9964 20.9948L12.019 21.0029C13.9466 20.3294 15.6267 19.4559 16.8552 18.2694L5 6.41421Z" fill="currentColor" style="fill="currentColor";fill-opacity:1;"/>
</svg>
