<svg width="24" height="24" viewBox="0 0 24 24" fill="none" xmlns="http://www.w3.org/2000/svg">
<path fill-rule="evenodd" clip-rule="evenodd" d="M12 1C12.5523 1 13 1.44772 13 2V4H17C17.7957 4 18.5587 4.31607 19.1213 4.87868C19.684 5.44129 20 6.20435 20 7V12.4612L21.4062 13.0862C21.7648 13.2456 21.9971 13.6001 22 13.9925C22.0135 15.7918 21.6414 17.5672 20.9156 19.2013C21.1037 19.2603 21.2804 19.3312 21.4481 19.4123C21.947 19.6538 22.3275 19.971 22.6152 20.211L22.6402 20.2318C23.0645 20.5853 23.1218 21.2159 22.7682 21.6402C22.4147 22.0645 21.7841 22.1218 21.3598 21.7682C21.0505 21.5104 20.8385 21.3392 20.577 21.2127C20.3357 21.0959 20.0112 21 19.5 21C19.0201 21 18.6998 21.0933 18.4484 21.214C18.1757 21.3449 17.9472 21.5229 17.6247 21.7809L17.5994 21.8011C17.3002 22.0406 16.9116 22.3517 16.4171 22.589C15.8873 22.8433 15.2701 23 14.5 23C13.7112 23 13.0857 22.8459 12.552 22.5877C12.053 22.3462 11.6726 22.029 11.3848 21.789L11.3598 21.7682C11.0505 21.5104 10.8385 21.3392 10.577 21.2127C10.3357 21.0959 10.0112 21 9.50002 21C9.02014 21 8.6998 21.0933 8.44838 21.214C8.17566 21.3449 7.94724 21.5229 7.62472 21.7809L7.59938 21.8011C7.3002 22.0406 6.91158 22.3517 6.41713 22.589C5.8873 22.8433 5.27014 23 4.50003 23C3.71124 23 3.08572 22.8459 2.55196 22.5877C2.05303 22.3462 1.67256 22.029 1.3848 21.789C1.3764 21.782 1.36808 21.7751 1.35984 21.7682C0.935564 21.4147 0.87824 20.7841 1.2318 20.3598C1.58537 19.9355 2.21593 19.8782 2.64021 20.2318C2.94959 20.4896 3.16158 20.6608 3.42309 20.7873C3.58183 20.8641 3.7766 20.9319 4.03691 20.9693C2.69438 18.8295 2.00003 16.5836 2.00003 14C2.00003 13.6048 2.23276 13.2467 2.59389 13.0862L4.00003 12.4612V7C4.00003 6.20435 4.3161 5.44129 4.8787 4.87868C5.44131 4.31607 6.20438 4 7.00003 4H11V2C11 1.44772 11.4477 1 12 1ZM7.00003 6C6.73481 6 6.48045 6.10536 6.29292 6.29289C6.10538 6.48043 6.00003 6.73478 6.00003 7V11.5723L11.5939 9.08619C11.8525 8.97127 12.1476 8.97127 12.4062 9.08619L18 11.5723V7C18 6.73478 17.8947 6.48043 17.7071 6.29289C17.5196 6.10536 17.2652 6 17 6H7.00003ZM6.08669 20.4459C6.17616 20.378 6.27081 20.3028 6.37533 20.2191L6.40067 20.1989C6.69985 19.9594 7.08847 19.6483 7.58292 19.411C8.11275 19.1567 8.72991 19 9.50002 19C10.2888 19 10.9143 19.1541 11.4481 19.4123C11.947 19.6538 12.3275 19.971 12.6153 20.211L12.6402 20.2318C12.9496 20.4896 13.1616 20.6608 13.4231 20.7873C13.6643 20.9041 13.9888 21 14.5 21C14.9799 21 15.3002 20.9067 15.5517 20.786C15.8244 20.6551 16.0528 20.4771 16.3753 20.2191L16.4007 20.1989C16.6999 19.9594 17.0885 19.6483 17.5829 19.411C17.9328 19.243 18.3207 19.1177 18.7656 19.0519C19.4885 17.6883 19.9047 16.1837 19.9857 14.6435L13 11.5388V14C13 14.5523 12.5523 15 12 15C11.4477 15 11 14.5523 11 14V11.5388L4.01708 14.6423C4.13034 16.746 4.80868 18.5977 6.08669 20.4459Z" fill="currentColor" style="fill="currentColor";fill-opacity:1;"/>
</svg>
