<svg width="24" height="24" viewBox="0 0 24 24" fill="none" xmlns="http://www.w3.org/2000/svg">
<path fill-rule="evenodd" clip-rule="evenodd" d="M12 1C12.5523 1 13 1.44772 13 2V3.05493C14.7359 3.24682 16.3229 3.93238 17.6177 4.96811L18.2929 4.29289C18.6834 3.90237 19.3166 3.90237 19.7071 4.29289C20.0977 4.68342 20.0977 5.31658 19.7071 5.70711L19.0319 6.38233C20.0676 7.67709 20.7532 9.26415 20.9451 11H22C22.5523 11 23 11.4477 23 12C23 12.5523 22.5523 13 22 13H20.9451C20.7532 14.7359 20.0676 16.3229 19.0319 17.6177L19.7071 18.2929C20.0977 18.6834 20.0977 19.3166 19.7071 19.7071C19.3166 20.0977 18.6834 20.0977 18.2929 19.7071L17.6177 19.0319C16.3229 20.0676 14.7359 20.7532 13 20.9451V22C13 22.5523 12.5523 23 12 23C11.4477 23 11 22.5523 11 22V20.9451C9.26415 20.7532 7.67709 20.0676 6.38233 19.0319L5.70711 19.7071C5.31658 20.0977 4.68342 20.0977 4.29289 19.7071C3.90237 19.3166 3.90237 18.6834 4.29289 18.2929L4.96811 17.6177C3.93238 16.3229 3.24682 14.7359 3.05493 13H2C1.44772 13 1 12.5523 1 12C1 11.4477 1.44772 11 2 11H3.05493C3.24682 9.26415 3.93238 7.67708 4.9681 6.38231L4.29289 5.70711C3.90237 5.31658 3.90237 4.68342 4.29289 4.29289C4.68342 3.90237 5.31658 3.90237 5.70711 4.29289L6.38231 4.9681C7.67708 3.93238 9.26415 3.24682 11 3.05493V2C11 1.44772 11.4477 1 12 1ZM11 5.07089C9.81409 5.24052 8.72407 5.70739 7.80783 6.39362L10.3349 8.92069C10.5446 8.80705 10.7672 8.71421 11 8.64494V5.07089ZM13 8.64494C13.2328 8.71422 13.4554 8.80706 13.6651 8.9207L16.1922 6.39362C15.2759 5.7074 14.1859 5.24052 13 5.07089V8.64494ZM17.6064 7.80784L15.0793 10.3349C15.1929 10.5446 15.2858 10.7672 15.3551 11H18.9291C18.7595 9.8141 18.2926 8.72408 17.6064 7.80784ZM18.9291 13H15.3551C15.2858 13.2328 15.1929 13.4554 15.0793 13.6651L17.6064 16.1922C18.2926 15.2759 18.7595 14.1859 18.9291 13ZM16.1922 17.6064L13.6651 15.0793C13.4554 15.1929 13.2328 15.2858 13 15.3551V18.9291C14.1859 18.7595 15.2759 18.2926 16.1922 17.6064ZM11 18.9291V15.3551C10.7672 15.2858 10.5446 15.1929 10.3349 15.0793L7.80784 17.6064C8.72408 18.2926 9.8141 18.7595 11 18.9291ZM6.39362 16.1922L8.9207 13.6651C8.80706 13.4554 8.71422 13.2328 8.64494 13H5.07089C5.24052 14.1859 5.7074 15.2759 6.39362 16.1922ZM5.07089 11H8.64494C8.71421 10.7672 8.80705 10.5446 8.92069 10.3349L6.39362 7.80783C5.70739 8.72407 5.24052 9.81409 5.07089 11ZM12 10.5C11.1716 10.5 10.5 11.1716 10.5 12C10.5 12.8284 11.1716 13.5 12 13.5C12.8284 13.5 13.5 12.8284 13.5 12C13.5 11.1716 12.8284 10.5 12 10.5Z" fill="black" style="fill:black;fill-opacity:1;"/>
</svg>
