<svg width="24" height="24" viewBox="0 0 24 24" fill="none" xmlns="http://www.w3.org/2000/svg">
<path d="M16 23H7.99996C6.34996 23 4.99996 21.65 4.99996 20V11H3.84996C3.37996 11 2.91996 10.83 2.55996 10.53C2.19996 10.22 1.95996 9.79001 1.87996 9.32001L1.28996 5.86001C1.16996 5.16001 1.30996 4.43001 1.67996 3.82001C2.04996 3.21001 2.61996 2.74001 3.29996 2.52001L7.67996 1.05001C7.97996 0.95001 8.31996 1.00001 8.57996 1.19001C8.83996 1.38001 8.99996 1.68001 8.99996 2.00001C8.99996 2.80001 9.30996 3.55001 9.87996 4.12001C11 5.24001 13 5.24001 14.12 4.12001C14.69 3.55001 15 2.80001 15 2.00001C15 1.68001 15.15 1.38001 15.42 1.19001C15.68 1.00001 16.02 0.95001 16.32 1.05001L20.7 2.51001C21.38 2.74001 21.96 3.20001 22.32 3.81001C22.69 4.42001 22.83 5.15001 22.71 5.85001L22.13 9.32001C22.05 9.78001 21.81 10.21 21.45 10.52C21.09 10.83 20.63 11 20.16 11H19.01V20C19.01 20.8 18.7 21.55 18.13 22.12C17.56 22.69 16.81 23 16.01 23H16ZM7.17996 3.33001L3.93996 4.41001C3.70996 4.49001 3.51996 4.64001 3.39996 4.84001C3.27996 5.04001 3.22996 5.29001 3.26996 5.52001L3.84996 8.99001H5.99996C6.54996 8.99001 6.99996 9.44001 6.99996 9.99001V19.99C6.99996 20.54 7.44996 20.99 7.99996 20.99H16C16.27 20.99 16.52 20.89 16.71 20.7C16.9 20.51 17 20.26 17 19.99V9.99001C17 9.44001 17.45 8.99001 18 8.99001H20.15L20.73 5.52001C20.77 5.28001 20.73 5.04001 20.6 4.84001C20.48 4.63001 20.29 4.48001 20.06 4.41001L16.82 3.33001C16.59 4.16001 16.16 4.91001 15.53 5.54001C14.59 6.48001 13.33 7.00001 11.99 7.00001C10.65 7.00001 9.39996 6.48001 8.44996 5.54001C7.82996 4.92001 7.38996 4.16001 7.15996 3.33001H7.17996Z" fill="currentColor" style="fill="currentColor";fill-opacity:1;"/>
</svg>
