<svg width="24" height="24" viewBox="0 0 24 24" fill="none" xmlns="http://www.w3.org/2000/svg">
<path fill-rule="evenodd" clip-rule="evenodd" d="M3.29289 3.29289C3.68342 2.90237 4.31658 2.90237 4.70711 3.29289L6.5951 5.18089C7.58581 4.47879 8.77514 4.09174 10.0054 4.08553C11.2388 4.0793 12.4349 4.45622 13.4341 5.15164L14.2929 4.29289C14.6834 3.90237 15.3166 3.90237 15.7071 4.29289C16.0976 4.68342 16.0976 5.31658 15.7071 5.70711L14.2186 7.19557C14.2172 7.19706 14.2158 7.19854 14.2143 7.20002C14.208 7.20642 14.2017 7.21273 14.1953 7.21892L7.21892 14.1953C7.21273 14.2017 7.20642 14.208 7.20002 14.2143C7.19854 14.2158 7.19706 14.2172 7.19557 14.2186L5.70711 15.7071C5.31658 16.0976 4.68342 16.0976 4.29289 15.7071C3.90237 15.3166 3.90237 14.6834 4.29289 14.2929L5.15164 13.4341C4.45622 12.4349 4.0793 11.2388 4.08553 10.0054C4.09174 8.77514 4.47879 7.58581 5.18089 6.5951L3.29289 4.70711C2.90237 4.31658 2.90237 3.68342 3.29289 3.29289ZM6.60033 11.9855L11.9855 6.60033C11.3901 6.26239 10.7118 6.08198 10.0155 6.0855C8.97482 6.09076 7.97826 6.5065 7.24238 7.24238C6.5065 7.97826 6.09076 8.97482 6.0855 10.0155C6.08198 10.7118 6.26239 11.3901 6.60033 11.9855ZM16 9C16.5523 9 17 9.44772 17 10V10.01C17 10.5623 16.5523 11.01 16 11.01C15.4477 11.01 15 10.5623 15 10.01V10C15 9.44772 15.4477 9 16 9ZM20 10C20.5523 10 21 10.4477 21 11V11.01C21 11.5623 20.5523 12.01 20 12.01C19.4477 12.01 19 11.5623 19 11.01V11C19 10.4477 19.4477 10 20 10ZM13 12C13.5523 12 14 12.4477 14 13V13.01C14 13.5623 13.5523 14.01 13 14.01C12.4477 14.01 12 13.5623 12 13.01V13C12 12.4477 12.4477 12 13 12ZM17 13C17.5523 13 18 13.4477 18 14V14.01C18 14.5623 17.5523 15.01 17 15.01C16.4477 15.01 16 14.5623 16 14.01V14C16 13.4477 16.4477 13 17 13ZM10 15C10.5523 15 11 15.4477 11 16V16.01C11 16.5623 10.5523 17.01 10 17.01C9.44772 17.01 9 16.5623 9 16.01V16C9 15.4477 9.44772 15 10 15ZM14 16C14.5523 16 15 16.4477 15 17V17.01C15 17.5623 14.5523 18.01 14 18.01C13.4477 18.01 13 17.5623 13 17.01V17C13 16.4477 13.4477 16 14 16ZM11 19C11.5523 19 12 19.4477 12 20V20.01C12 20.5623 11.5523 21.01 11 21.01C10.4477 21.01 10 20.5623 10 20.01V20C10 19.4477 10.4477 19 11 19Z" fill="currentColor" style="fill="currentColor";fill-opacity:1;"/>
</svg>
