<svg width="24" height="24" viewBox="0 0 24 24" fill="none" xmlns="http://www.w3.org/2000/svg">
<path fill-rule="evenodd" clip-rule="evenodd" d="M2.29289 2.29289C2.68342 1.90237 3.31658 1.90237 3.70711 2.29289L8 6.58579V4.2C8 3.64772 8.44772 3.2 9 3.2C9.55228 3.2 10 3.64772 10 4.2V9C10 9.55228 9.55228 10 9 10H4.2C3.64772 10 3.2 9.55228 3.2 9C3.2 8.44772 3.64772 8 4.2 8H6.58579L2.29289 3.70711C1.90237 3.31658 1.90237 2.68342 2.29289 2.29289ZM21.7071 2.29289C22.0976 2.68342 22.0976 3.31658 21.7071 3.70711L17.4142 8H19.8C20.3523 8 20.8 8.44772 20.8 9C20.8 9.55228 20.3523 10 19.8 10H15C14.4477 10 14 9.55228 14 9V4.2C14 3.64772 14.4477 3.2 15 3.2C15.5523 3.2 16 3.64772 16 4.2V6.58579L20.2929 2.29289C20.6834 1.90237 21.3166 1.90237 21.7071 2.29289ZM3.2 15C3.2 14.4477 3.64772 14 4.2 14H9C9.55228 14 10 14.4477 10 15V19.8C10 20.3523 9.55228 20.8 9 20.8C8.44772 20.8 8 20.3523 8 19.8V17.4142L3.70711 21.7071C3.31658 22.0976 2.68342 22.0976 2.29289 21.7071C1.90237 21.3166 1.90237 20.6834 2.29289 20.2929L6.58579 16H4.2C3.64772 16 3.2 15.5523 3.2 15ZM14 15C14 14.4477 14.4477 14 15 14H19.8C20.3523 14 20.8 14.4477 20.8 15C20.8 15.5523 20.3523 16 19.8 16H17.4142L21.7071 20.2929C22.0976 20.6834 22.0976 21.3166 21.7071 21.7071C21.3166 22.0976 20.6834 22.0976 20.2929 21.7071L16 17.4142V19.8C16 20.3523 15.5523 20.8 15 20.8C14.4477 20.8 14 20.3523 14 19.8V15Z" fill="currentColor" style="fill="currentColor";fill-opacity:1;"/>
</svg>
