<svg width="24" height="24" viewBox="0 0 24 24" fill="none" xmlns="http://www.w3.org/2000/svg">
<path fill-rule="evenodd" clip-rule="evenodd" d="M11.9999 4C10.939 4 9.92162 4.42143 9.17148 5.17157C8.42133 5.92172 7.9999 6.93913 7.9999 8C7.9999 8.34509 7.82197 8.6658 7.52918 8.84845C6.5426 9.46389 5.77647 10.3762 5.34081 11.4543C4.90515 12.5324 4.82239 13.7208 5.1044 14.8489C5.38642 15.977 6.01871 16.9866 6.91046 17.7329C7.79389 18.4722 8.88694 18.9152 10.0352 19H11V15.4142L9.29289 13.7071C8.90237 13.3166 8.90237 12.6834 9.29289 12.2929C9.68342 11.9024 10.3166 11.9024 10.7071 12.2929L12.5 14.0858L13.2929 13.2929C13.6834 12.9024 14.3166 12.9024 14.7071 13.2929C15.0976 13.6834 15.0976 14.3166 14.7071 14.7071L13 16.4142V19H13.7999C13.8118 19 13.8236 19.0002 13.8354 19.0006C14.9517 19.0403 16.0492 18.7051 16.9527 18.0484C17.8563 17.3917 18.5139 16.4514 18.8208 15.3774C19.1277 14.3034 19.066 13.1576 18.6458 12.1226C18.2256 11.0877 17.4709 10.2233 16.5021 9.6673C16.1915 9.489 15.9999 9.15818 15.9999 8.8V8C15.9999 6.93913 15.5785 5.92172 14.8283 5.17157C14.0782 4.42143 13.0608 4 11.9999 4ZM11 21V22C11 22.5523 11.4477 23 12 23C12.5523 23 13 22.5523 13 22V21H13.7828C15.3392 21.0513 16.8685 20.582 18.1285 19.6663C19.3935 18.7469 20.3142 17.4305 20.7438 15.9268C21.1734 14.4232 21.0872 12.8191 20.4989 11.3702C19.9853 10.1054 19.1149 9.02257 17.9999 8.25V8C17.9999 6.4087 17.3678 4.88258 16.2425 3.75736C15.1173 2.63214 13.5912 2 11.9999 2C10.4086 2 8.88248 2.63214 7.75726 3.75736C6.76188 4.75274 6.15235 6.06186 6.02494 7.45229C4.89424 8.27572 4.01323 9.40145 3.48649 10.7049C2.89241 12.1751 2.77955 13.7957 3.16412 15.3339C3.54869 16.8722 4.4109 18.2491 5.62692 19.2667C6.84294 20.2843 8.35018 20.8903 9.93217 20.9977C9.95471 20.9992 9.9773 21 9.9999 21H11Z" fill="currentColor" style="fill="currentColor";fill-opacity:1;"/>
</svg>
