<svg width="24" height="24" viewBox="0 0 24 24" fill="none" xmlns="http://www.w3.org/2000/svg">
<path fill-rule="evenodd" clip-rule="evenodd" d="M17.2929 1.29289C17.6834 0.902369 18.3166 0.902369 18.7071 1.29289L22.7071 5.29289C23.0976 5.68342 23.0976 6.31658 22.7071 6.70711L18.7071 10.7071C18.3166 11.0976 17.6834 11.0976 17.2929 10.7071C16.9024 10.3166 16.9024 9.68342 17.2929 9.29289L19.5858 7H16.1C15.0815 7 14.1299 7.47285 13.6437 8.23688C13.6347 8.251 13.6253 8.26489 13.6157 8.27854L7.50879 16.8882C6.52193 18.2451 5.02217 19 3.4 19H2C1.44772 19 1 18.5523 1 18C1 17.4477 1.44772 17 2 17H3.4C4.37609 17 5.27493 16.5565 5.888 15.7163L11.9708 7.14059C12.8874 5.71954 14.5268 5 16.1 5H19.5858L17.2929 2.70711C16.9024 2.31658 16.9024 1.68342 17.2929 1.29289ZM1 6C1 5.44772 1.44772 5 2 5H3.9C5.79326 5 7.51843 6.12496 8.38047 7.7259C8.64231 8.21217 8.46037 8.81863 7.9741 9.08047C7.48783 9.34231 6.88137 9.16037 6.61953 8.6741C6.08157 7.67504 5.00674 7 3.9 7H2C1.44772 7 1 6.55228 1 6ZM17.2929 13.2929C17.6834 12.9024 18.3166 12.9024 18.7071 13.2929L22.7071 17.2928C22.8947 17.4803 23 17.7347 23 17.9999C23.0001 18.2651 22.8947 18.5195 22.7072 18.707L18.7071 22.7071C18.3166 23.0976 17.6834 23.0976 17.2929 22.7071C16.9024 22.3166 16.9024 21.6834 17.2929 21.2929L19.5859 18.9999H16.1C14.4646 18.9999 12.8434 18.1306 11.9564 16.7368L11.952 16.7299L11.4521 15.9299C11.1593 15.4616 11.3017 14.8446 11.7701 14.5519C12.2384 14.2592 12.8553 14.4016 13.148 14.8699L13.6457 15.6662C14.1593 16.4706 15.1368 16.9999 16.1 16.9999H19.5858L17.2929 14.7071C16.9024 14.3166 16.9024 13.6834 17.2929 13.2929Z" fill="currentColor" style="fill="currentColor";fill-opacity:1;"/>
</svg>
