<svg width="24" height="24" viewBox="0 0 24 24" fill="none" xmlns="http://www.w3.org/2000/svg">
<path fill-rule="evenodd" clip-rule="evenodd" d="M12 1C12.5523 1 13 1.44772 13 2V3C13 3.55228 12.5523 4 12 4C11.4477 4 11 3.55228 11 3V2C11 1.44772 11.4477 1 12 1ZM19.2071 3.79289C19.5976 4.18342 19.5976 4.81658 19.2071 5.20711L18.7071 5.70711C18.3166 6.09763 17.6834 6.09763 17.2929 5.70711C16.9024 5.31658 16.9024 4.68342 17.2929 4.29289L17.7929 3.79289C18.1834 3.40237 18.8166 3.40237 19.2071 3.79289ZM4.22185 4.22185C4.61237 3.83132 5.24554 3.83132 5.63606 4.22185L6.34306 4.92885C6.73359 5.31937 6.73359 5.95254 6.34306 6.34306C5.95254 6.73359 5.31937 6.73359 4.92885 6.34306L4.22185 5.63606C3.83132 5.24554 3.83132 4.61237 4.22185 4.22185ZM12 8C10.9391 8 9.92172 8.42143 9.17157 9.17157C8.42143 9.92172 8 10.9391 8 12V17H11V12C11 11.4477 11.4477 11 12 11C12.5523 11 13 11.4477 13 12V17H16V12C16 10.9391 15.5786 9.92172 14.8284 9.17157C14.0783 8.42143 13.0609 8 12 8ZM18 17.1716V12C18 10.4087 17.3679 8.88258 16.2426 7.75736C15.1174 6.63214 13.5913 6 12 6C10.4087 6 8.88258 6.63214 7.75736 7.75736C6.63214 8.88258 6 10.4087 6 12V17.1716C5.5821 17.3193 5.19808 17.5593 4.87868 17.8787C4.31607 18.4413 4 19.2043 4 20V21C4 21.5304 4.21071 22.0391 4.58579 22.4142C4.96086 22.7893 5.46957 23 6 23H18C18.5304 23 19.0391 22.7893 19.4142 22.4142C19.7893 22.0391 20 21.5304 20 21V20C20 19.2043 19.6839 18.4413 19.1213 17.8787C18.8019 17.5593 18.4179 17.3193 18 17.1716ZM7 19C6.73478 19 6.48043 19.1054 6.29289 19.2929C6.10536 19.4804 6 19.7348 6 20V21H18V20C18 19.7348 17.8946 19.4804 17.7071 19.2929C17.5196 19.1054 17.2652 19 17 19H7ZM1 12C1 11.4477 1.44772 11 2 11H3C3.55228 11 4 11.4477 4 12C4 12.5523 3.55228 13 3 13H2C1.44772 13 1 12.5523 1 12ZM20 12C20 11.4477 20.4477 11 21 11H22C22.5523 11 23 11.4477 23 12C23 12.5523 22.5523 13 22 13H21C20.4477 13 20 12.5523 20 12Z" fill="currentColor" style="fill="currentColor";fill-opacity:1;"/>
</svg>
