<svg width="24" height="24" viewBox="0 0 24 24" fill="none" xmlns="http://www.w3.org/2000/svg">
<path fill-rule="evenodd" clip-rule="evenodd" d="M8.01228 1.04804C8.49723 0.951575 8.99989 1.00108 9.45671 1.1903C9.91352 1.37952 10.304 1.69995 10.5787 2.11108C10.8534 2.5222 11 3.00555 11 3.5V5C11 5.55229 10.5523 6 10 6H8.5C8.00555 6 7.5222 5.85338 7.11108 5.57867C6.69995 5.30397 6.37952 4.91353 6.1903 4.45671C6.00108 3.99989 5.95158 3.49723 6.04804 3.01228C6.1445 2.52732 6.3826 2.08187 6.73223 1.73223C7.08187 1.3826 7.52732 1.1445 8.01228 1.04804ZM8.69134 3.03806C8.59998 3.00022 8.49945 2.99032 8.40246 3.00961C8.30547 3.0289 8.21637 3.07652 8.14645 3.14645C8.07652 3.21637 8.0289 3.30547 8.00961 3.40246C7.99032 3.49945 8.00022 3.59998 8.03806 3.69134C8.07591 3.78271 8.13999 3.86079 8.22222 3.91574C8.30444 3.97068 8.40111 4 8.5 4H9V3.5C9 3.40111 8.97068 3.30444 8.91574 3.22222C8.8608 3.13999 8.78271 3.07591 8.69134 3.03806ZM14.5 3C14.2239 3 14 3.22386 14 3.5V8.5C14 8.77614 14.2239 9 14.5 9C14.7761 9 15 8.77614 15 8.5V3.5C15 3.22386 14.7761 3 14.5 3ZM12 3.5C12 2.11929 13.1193 1 14.5 1C15.8807 1 17 2.11929 17 3.5V8.5C17 9.88071 15.8807 11 14.5 11C13.1193 11 12 9.88071 12 8.5V3.5ZM19.5433 6.1903C20.0001 6.00108 20.5028 5.95158 20.9877 6.04804C21.4727 6.1445 21.9181 6.3826 22.2678 6.73223C22.6174 7.08186 22.8555 7.52732 22.952 8.01228C23.0484 8.49723 22.9989 8.9999 22.8097 9.45671C22.6205 9.91352 22.3 10.304 21.8889 10.5787C21.4778 10.8534 20.9945 11 20.5 11H19C18.4477 11 18 10.5523 18 10V8.5C18 8.00555 18.1466 7.5222 18.4213 7.11108C18.696 6.69995 19.0865 6.37952 19.5433 6.1903ZM20.5975 8.00961C20.5006 7.99032 20.4 8.00022 20.3087 8.03806C20.2173 8.07591 20.1392 8.13999 20.0843 8.22222C20.0293 8.30444 20 8.40111 20 8.5V9H20.5C20.5989 9 20.6956 8.97068 20.7778 8.91574C20.86 8.8608 20.9241 8.78271 20.9619 8.69134C20.9998 8.59998 21.0097 8.49944 20.9904 8.40246C20.9711 8.30547 20.9235 8.21638 20.8536 8.14645C20.7836 8.07652 20.6945 8.0289 20.5975 8.00961ZM3.5 9C3.22386 9 3 9.22386 3 9.5C3 9.77614 3.22386 10 3.5 10H8.5C8.77614 10 9 9.77614 9 9.5C9 9.22386 8.77614 9 8.5 9H3.5ZM1 9.5C1 8.11929 2.11929 7 3.5 7H8.5C9.88071 7 11 8.11929 11 9.5C11 10.8807 9.88071 12 8.5 12H3.5C2.11929 12 1 10.8807 1 9.5ZM15.5 14C15.2239 14 15 14.2239 15 14.5C15 14.7761 15.2239 15 15.5 15H20.5C20.7761 15 21 14.7761 21 14.5C21 14.2239 20.7761 14 20.5 14H15.5ZM13 14.5C13 13.1193 14.1193 12 15.5 12H20.5C21.8807 12 23 13.1193 23 14.5C23 15.8807 21.8807 17 20.5 17H15.5C14.1193 17 13 15.8807 13 14.5ZM2.11108 13.4213C2.5222 13.1466 3.00555 13 3.5 13H5C5.55229 13 6 13.4477 6 14V15.5C6 15.9945 5.85338 16.4778 5.57867 16.8889C5.30397 17.3 4.91352 17.6205 4.45671 17.8097C3.9999 17.9989 3.49723 18.0484 3.01228 17.952C2.52732 17.8555 2.08186 17.6174 1.73223 17.2678C1.3826 16.9181 1.1445 16.4727 1.04804 15.9877C0.951575 15.5028 1.00108 15.0001 1.1903 14.5433C1.37952 14.0865 1.69995 13.696 2.11108 13.4213ZM3.5 15C3.40111 15 3.30444 15.0293 3.22222 15.0843C3.13999 15.1392 3.07591 15.2173 3.03806 15.3087C3.00022 15.4 2.99032 15.5006 3.00961 15.5975C3.0289 15.6945 3.07652 15.7836 3.14645 15.8536C3.21638 15.9235 3.30547 15.9711 3.40246 15.9904C3.49944 16.0097 3.59998 15.9998 3.69134 15.9619C3.78271 15.9241 3.8608 15.86 3.91574 15.7778C3.97068 15.6956 4 15.5989 4 15.5V15H3.5ZM9.5 15C9.22386 15 9 15.2239 9 15.5V20.5C9 20.7761 9.22386 21 9.5 21C9.77614 21 10 20.7761 10 20.5V15.5C10 15.2239 9.77614 15 9.5 15ZM7 15.5C7 14.1193 8.11929 13 9.5 13C10.8807 13 12 14.1193 12 15.5V20.5C12 21.8807 10.8807 23 9.5 23C8.11929 23 7 21.8807 7 20.5V15.5ZM13 19C13 18.4477 13.4477 18 14 18H15.5C15.9945 18 16.4778 18.1466 16.8889 18.4213C17.3 18.696 17.6205 19.0865 17.8097 19.5433C17.9989 20.0001 18.0484 20.5028 17.952 20.9877C17.8555 21.4727 17.6174 21.9181 17.2678 22.2678C16.9181 22.6174 16.4727 22.8555 15.9877 22.952C15.5028 23.0484 15.0001 22.9989 14.5433 22.8097C14.0865 22.6205 13.696 22.3 13.4213 21.8889C13.1466 21.4778 13 20.9945 13 20.5V19ZM15 20V20.5C15 20.5989 15.0293 20.6956 15.0843 20.7778C15.1392 20.86 15.2173 20.9241 15.3087 20.9619C15.4 20.9998 15.5006 21.0097 15.5975 20.9904C15.6945 20.9711 15.7836 20.9235 15.8536 20.8536C15.9235 20.7836 15.9711 20.6945 15.9904 20.5975C16.0097 20.5006 15.9998 20.4 15.9619 20.3087C15.9241 20.2173 15.86 20.1392 15.7778 20.0843C15.6956 20.0293 15.5989 20 15.5 20H15Z" fill="currentColor" style="fill="currentColor";fill-opacity:1;"/>
</svg>
