<svg width="24" height="24" viewBox="0 0 24 24" fill="none" xmlns="http://www.w3.org/2000/svg">
<path fill-rule="evenodd" clip-rule="evenodd" d="M17.6629 2.923C18.2483 2.33764 19.0422 2.00879 19.87 2.00879C20.6979 2.00879 21.4918 2.33764 22.0771 2.923C22.6625 3.50837 22.9913 4.30229 22.9913 5.13011C22.9913 5.95793 22.6625 6.75185 22.0771 7.33722L21.37 6.63011L22.0771 7.33722L12 17.4142V20C12 20.5523 11.5523 21 11 21H2.00003C1.59557 21 1.23093 20.7564 1.07615 20.3827C0.921369 20.009 1.00692 19.5789 1.29292 19.2929L7.29292 13.2929L8.00003 14L7.29293 13.2929L17.6629 2.923C17.6629 2.923 17.6629 2.923 17.6629 2.923ZM8.00003 15.4142L4.41424 19H10V17.4142L8.00003 15.4142ZM11 15.5858L20.6629 5.923C20.8732 5.71272 20.9913 5.4275 20.9913 5.13011C20.9913 4.83272 20.8732 4.5475 20.6629 4.33722C20.4526 4.12693 20.1674 4.00879 19.87 4.00879C19.5726 4.00879 19.2874 4.12693 19.0771 4.33722L18.3732 3.63325L19.0771 4.33722L9.41425 14L11 15.5858Z" fill="currentColor" style="fill="currentColor";fill-opacity:1;"/>
</svg>
