<svg width="24" height="24" viewBox="0 0 24 24" fill="none" xmlns="http://www.w3.org/2000/svg">
<path fill-rule="evenodd" clip-rule="evenodd" d="M19.4129 3.23245C19.8922 2.95791 20.5032 3.12384 20.7777 3.60305C22.2419 6.15883 23.0131 9.05272 23.015 11.9982C23.0168 14.9436 22.2493 17.8385 20.7884 20.3961C20.5144 20.8757 19.9036 21.0424 19.424 20.7685C18.9445 20.4945 18.7778 19.8837 19.0517 19.4042C20.3399 17.149 21.0166 14.5965 21.015 11.9994C21.0133 9.40235 20.3333 6.85073 19.0423 4.59724C18.7678 4.11802 18.9337 3.50698 19.4129 3.23245ZM1 7.00005C1 5.89548 1.89543 5.00005 3 5.00005H8C9.10457 5.00005 10 5.89548 10 7.00005V17C10 18.1046 9.10457 19 8 19H3C1.89543 19 1 18.1046 1 17V7.00005ZM8 7.00005H3V17H8V7.00005ZM15.9676 5.33961C16.4483 5.06769 17.0584 5.23695 17.3304 5.71766C18.4144 7.63403 18.9841 9.79829 18.9841 12C18.9841 14.2017 18.4144 16.366 17.3304 18.2824C17.0584 18.7631 16.4483 18.9323 15.9676 18.6604C15.4869 18.3885 15.3176 17.7784 15.5896 17.2977C16.5037 15.6817 16.9841 13.8566 16.9841 12C16.9841 10.1434 16.5037 8.31836 15.5896 6.70236C15.3176 6.22165 15.4869 5.61153 15.9676 5.33961ZM12.5047 7.45139C12.9845 7.17785 13.5952 7.34504 13.8687 7.82483C14.594 9.09686 14.9754 10.5359 14.9754 12.0001C14.9754 13.4644 14.594 14.9034 13.8687 16.1754C13.5952 16.6552 12.9845 16.8224 12.5047 16.5488C12.0249 16.2753 11.8577 15.6646 12.1313 15.1848C12.6844 14.2146 12.9754 13.117 12.9754 12.0001C12.9754 10.8833 12.6844 9.78565 12.1313 8.81541C11.8577 8.33562 12.0249 7.72493 12.5047 7.45139Z" fill="currentColor" style="fill="currentColor";fill-opacity:1;"/>
</svg>
