<svg width="24" height="24" viewBox="0 0 24 24" fill="none" xmlns="http://www.w3.org/2000/svg">
<path fill-rule="evenodd" clip-rule="evenodd" d="M7 3C6.44772 3 6 3.44772 6 4V20C6 20.5523 6.44771 21 7 21H17C17.5523 21 18 20.5523 18 20V4C18 3.44772 17.5523 3 17 3H7ZM4 4C4 2.34315 5.34315 1 7 1H17C18.6569 1 20 2.34315 20 4V20C20 21.6569 18.6569 23 17 23H7C5.34315 23 4 21.6569 4 20V4ZM13.2217 7.16798C13.6813 7.47436 13.8054 8.09524 13.499 8.55475L11.8686 11H14C14.3688 11 14.7077 11.203 14.8817 11.5282C15.0557 11.8533 15.0366 12.2479 14.832 12.5547L12.165 16.5547C11.8586 17.0143 11.2378 17.1384 10.7783 16.832C10.3187 16.5256 10.1946 15.9048 10.501 15.4453L12.1314 13H10C9.63119 13 9.29233 12.797 9.11831 12.4718C8.9443 12.1467 8.96339 11.7521 9.16798 11.4453L11.835 7.44525C12.1414 6.98574 12.7622 6.8616 13.2217 7.16798Z" fill="currentColor" style="fill="currentColor";fill-opacity:1;"/>
</svg>
