<svg width="24" height="24" viewBox="0 0 24 24" fill="none" xmlns="http://www.w3.org/2000/svg">
<path d="M12 23C5.93 23 1 18.07 1 12C1 5.93 5.93 1 12 1C18.07 1 23 5.93 23 12C23 18.07 18.07 23 12 23ZM12 3C7.04 3 3 7.04 3 12C3 16.96 7.04 21 12 21C16.96 21 21 16.96 21 12C21 7.04 16.96 3 12 3Z" fill="currentColor" style="fill="currentColor";fill-opacity:1;"/>
<path d="M12 17C9.03 17 7.27 14.7 7.2 14.6C6.87 14.16 6.96 13.53 7.4 13.2C7.84 12.87 8.47 12.96 8.8 13.4C8.83 13.44 10.07 15 12 15C13.93 15 15.19 13.41 15.2 13.4C15.53 12.96 16.16 12.88 16.6 13.21C17.04 13.54 17.13 14.16 16.8 14.6C16.73 14.7 14.97 17 12 17Z" fill="currentColor" style="fill="currentColor";fill-opacity:1;"/>
<path d="M9.01 10C8.46 10 8 9.55 8 9C8 8.45 8.44 8 9 8H9.01C9.56 8 10.01 8.45 10.01 9C10.01 9.55 9.56 10 9.01 10Z" fill="currentColor" style="fill="currentColor";fill-opacity:1;"/>
<path d="M15.01 10C14.46 10 14 9.55 14 9C14 8.45 14.44 8 15 8H15.01C15.56 8 16.01 8.45 16.01 9C16.01 9.55 15.56 10 15.01 10Z" fill="currentColor" style="fill="currentColor";fill-opacity:1;"/>
</svg>
