<svg width="24" height="24" viewBox="0 0 24 24" fill="none" xmlns="http://www.w3.org/2000/svg">
<path fill-rule="evenodd" clip-rule="evenodd" d="M17.5528 2.10555C18.0468 1.85856 18.6474 2.05878 18.8944 2.55276L19.6295 4.02293C19.7518 4.00771 19.8755 3.99997 20 3.99997C20.1245 3.99997 20.2482 4.00772 20.3705 4.02293L21.1056 2.55276C21.3526 2.05878 21.9533 1.85856 22.4472 2.10555C22.9412 2.35254 23.1414 2.95321 22.8945 3.44719L22.1594 4.91738C22.6982 5.47602 23 6.22243 23 6.99997V13C23 17.9523 18.9523 22 14 22H2C1.44772 22 1 21.5523 1 21C1 20.4477 1.44772 20 2 20H4.34267C2.30367 18.35 1 15.8272 1 13C1 8.02941 5.02944 3.99997 10 3.99997C12.8273 3.99997 15.35 5.30364 17 7.34264V6.99997C17 6.22243 17.3019 5.476 17.8407 4.91737L17.1056 3.44719C16.8586 2.95321 17.0588 2.35254 17.5528 2.10555ZM17 13C17 9.13398 13.866 5.99997 10 5.99997C6.13401 5.99997 3 9.13398 3 13C3 13.6566 3.12933 14.3068 3.3806 14.9134C3.63188 15.52 4.00017 16.0712 4.46447 16.5355C4.92876 16.9998 5.47995 17.3681 6.08658 17.6194C6.69321 17.8706 7.34339 18 8 18C8.65661 18 9.30679 17.8706 9.91342 17.6194C10.52 17.3681 11.0712 16.9998 11.5355 16.5355C11.9998 16.0712 12.3681 15.52 12.6194 14.9134C12.8707 14.3068 13 13.6566 13 13C13 12.2043 12.6839 11.4413 12.1213 10.8787C11.5587 10.316 10.7956 9.99998 10 9.99998C9.20435 9.99998 8.44129 10.316 7.87868 10.8787C7.31607 11.4413 7 12.2043 7 13C7 13.2652 7.10536 13.5195 7.29289 13.7071C7.48043 13.8946 7.73478 14 8 14C8.26522 14 8.51957 13.8946 8.70711 13.7071C8.89464 13.5195 9 13.2652 9 13C9 12.4477 9.44772 12 10 12C10.5523 12 11 12.4477 11 13C11 13.7956 10.6839 14.5587 10.1213 15.1213C9.55871 15.6839 8.79565 16 8 16C7.20435 16 6.44129 15.6839 5.87868 15.1213C5.31607 14.5587 5 13.7956 5 13C5 11.6739 5.52678 10.4021 6.46447 9.46444C7.40215 8.52676 8.67392 7.99997 10 7.99997C11.3261 7.99997 12.5979 8.52676 13.5355 9.46444C14.4732 10.4021 15 11.6739 15 13C15 13.9192 14.8189 14.8295 14.4672 15.6788C14.1154 16.528 13.5998 17.2997 12.9497 17.9497C12.2997 18.5997 11.5281 19.1153 10.6788 19.4671C10.1384 19.691 9.57325 19.8457 8.99684 19.9286C9.32445 19.9756 9.65938 20 10 20C13.866 20 17 16.866 17 13ZM16.0028 19.7058C17.8424 18.0579 19 15.6641 19 13V6.99997C19 6.73476 19.1054 6.4804 19.2929 6.29287C19.4804 6.10533 19.7348 5.99997 20 5.99997C20.2652 5.99997 20.5196 6.10533 20.7071 6.29287C20.8946 6.4804 21 6.73476 21 6.99997V13C21 16.1526 18.8838 18.8383 16.0028 19.7058Z" fill="currentColor" style="fill="currentColor";fill-opacity:1;"/>
</svg>
