<svg width="24" height="24" viewBox="0 0 24 24" fill="none" xmlns="http://www.w3.org/2000/svg">
<path fill-rule="evenodd" clip-rule="evenodd" d="M3.87868 3.87868C4.44129 3.31607 5.20435 3 6 3H18C18.7957 3 19.5587 3.31607 20.1213 3.87868C20.6839 4.44129 21 5.20435 21 6V8.17157C21.4179 8.31933 21.8019 8.55928 22.1213 8.87868C22.6839 9.44129 23 10.2043 23 11V16C23 16.7957 22.6839 17.5587 22.1213 18.1213C21.8019 18.4407 21.4179 18.6807 21 18.8284V20C21 20.5523 20.5523 21 20 21C19.4477 21 19 20.5523 19 20V19H5V20C5 20.5523 4.55228 21 4 21C3.44772 21 3 20.5523 3 20V18.8284C2.5821 18.6807 2.19808 18.4407 1.87868 18.1213C1.31607 17.5587 1 16.7956 1 16V11C1 10.2044 1.31607 9.44129 1.87868 8.87868C2.19808 8.55928 2.5821 8.31933 3 8.17157V6C3 5.20435 3.31607 4.44129 3.87868 3.87868ZM5 8.17157C5.4179 8.31933 5.80192 8.55928 6.12132 8.87868C6.68393 9.44129 7 10.2044 7 11V12H11V5H6C5.73478 5 5.48043 5.10536 5.29289 5.29289C5.10536 5.48043 5 5.73478 5 6V8.17157ZM13 5V12H17V11C17 10.2043 17.3161 9.44129 17.8787 8.87868C18.1981 8.55928 18.5821 8.31933 19 8.17157V6C19 5.73478 18.8946 5.48043 18.7071 5.29289C18.5196 5.10536 18.2652 5 18 5H13ZM6 14C5.44772 14 5 13.5523 5 13V11C5 10.7348 4.89464 10.4804 4.70711 10.2929C4.51957 10.1054 4.26522 10 4 10C3.73478 10 3.48043 10.1054 3.29289 10.2929C3.10536 10.4804 3 10.7348 3 11V16C3 16.2652 3.10536 16.5196 3.29289 16.7071C3.48043 16.8946 3.73478 17 4 17H20C20.2652 17 20.5196 16.8946 20.7071 16.7071C20.8946 16.5196 21 16.2652 21 16V11C21 10.7348 20.8946 10.4804 20.7071 10.2929C20.5196 10.1054 20.2652 10 20 10C19.7348 10 19.4804 10.1054 19.2929 10.2929C19.1054 10.4804 19 10.7348 19 11V13C19 13.5523 18.5523 14 18 14H6Z" fill="black" style="fill:black;fill-opacity:1;"/>
</svg>
