<svg width="24" height="24" viewBox="0 0 24 24" fill="none" xmlns="http://www.w3.org/2000/svg">
<path fill-rule="evenodd" clip-rule="evenodd" d="M5.3122 2.65271C5.50402 2.13481 6.07936 1.87046 6.59726 2.06228C7.21176 2.28987 8.07877 3.08161 7.99814 4.42016L7.99742 4.43213C7.94484 5.15943 7.54068 5.67297 7.32091 5.95227C7.31061 5.96536 7.30071 5.97794 7.29127 5.99C7.039 6.31242 7.00465 6.39098 6.99715 6.45671C6.98714 6.64461 7.02656 6.76447 7.0799 6.86266C7.14497 6.98244 7.25053 7.10576 7.4287 7.27503C7.8291 7.65541 7.84533 8.28837 7.46495 8.68878C7.08456 9.08918 6.45161 9.10541 6.0512 8.72503C5.586 8.28309 4.92292 7.54961 5.002 6.31606L5.00357 6.29497C5.06429 5.5837 5.46453 5.0765 5.68076 4.8025C5.69319 4.78675 5.70501 4.77176 5.71612 4.75756C5.96655 4.4375 5.99623 4.36029 6.00215 4.29301C6.00688 4.20227 5.99567 4.13831 5.98284 4.09488C5.96944 4.04954 5.95076 4.01484 5.93152 3.98795C5.91141 3.95981 5.89042 3.93997 5.87541 3.92834C5.8743 3.92748 5.87327 3.9267 5.87233 3.926C5.37449 3.72332 5.12416 3.16042 5.3122 2.65271ZM10.3123 2.65271C10.5041 2.13481 11.0795 1.87046 11.5974 2.06228C12.2111 2.28958 13.0823 3.08338 12.9879 4.42641C12.9418 5.15491 12.5375 5.67092 12.3205 5.94793C12.3096 5.96187 12.2991 5.97522 12.2892 5.98795C12.0277 6.32393 12.0115 6.3862 12.0082 6.44089L12.0071 6.45672C11.9923 6.64936 12.0307 6.77017 12.0835 6.86922C12.1474 6.98882 12.2511 7.11149 12.4279 7.2838C12.8235 7.66922 12.8317 8.30233 12.4463 8.69789C12.0609 9.09345 11.4277 9.10168 11.0322 8.71626C10.5856 8.28115 9.92035 7.54501 10.0124 6.31071C10.0593 5.59005 10.4621 5.07668 10.6769 4.80307C10.6888 4.78784 10.7002 4.77335 10.7109 4.75961C10.9686 4.42844 10.9882 4.36136 10.9919 4.2999L10.9926 4.28792C10.9993 4.19434 10.9887 4.1297 10.9764 4.08703C10.964 4.04355 10.9464 4.0105 10.9282 3.98493C10.9092 3.95807 10.8891 3.93901 10.8747 3.92781C10.8738 3.92711 10.8729 3.92647 10.8721 3.92588C10.3745 3.72311 10.1243 3.16032 10.3123 2.65271ZM15.3122 2.65271C15.504 2.13481 16.0794 1.87046 16.5973 2.06228C17.2118 2.28987 18.0788 3.08161 17.9981 4.42016L17.9974 4.43213C17.9448 5.15943 17.5407 5.67297 17.3209 5.95227C17.3106 5.96536 17.3007 5.97794 17.2913 5.99C17.039 6.31242 17.0047 6.39098 16.9972 6.45671C16.9871 6.64468 17.0265 6.76585 17.0804 6.86593C17.1461 6.98787 17.2513 7.11181 17.4278 7.2838C17.8234 7.66922 17.8316 8.30233 17.4462 8.69789C17.0608 9.09345 16.4276 9.10168 16.0321 8.71626C15.5842 8.27982 14.9231 7.54708 15.002 6.31606L15.0036 6.29497C15.0643 5.5837 15.4645 5.0765 15.6808 4.8025C15.6932 4.78675 15.705 4.77176 15.7161 4.75756C15.9665 4.43752 15.9962 4.3603 16.0021 4.29302C16.0069 4.20228 15.9957 4.13832 15.9828 4.09488C15.9694 4.04954 15.9508 4.01484 15.9315 3.98795C15.9114 3.95981 15.8904 3.93997 15.8754 3.92834C15.8743 3.92748 15.8733 3.9267 15.8723 3.926C15.3745 3.72332 15.1242 3.16042 15.3122 2.65271ZM22.3846 5.07695C22.8944 5.28937 23.1355 5.87484 22.9231 6.38464L21 11C21.2652 11 21.5196 11.1054 21.7071 11.2929C21.8946 11.4805 22 11.7348 22 12C22 14.6522 20.9464 17.1957 19.0711 19.0711C18.6337 19.5085 18.16 19.9011 17.657 20.2462C17.8672 20.4295 18 20.6992 18 21C18 21.5523 17.5523 22 17 22H7C6.44772 22 6 21.5523 6 21C6 20.6992 6.1328 20.4295 6.34296 20.2462C5.84001 19.9011 5.3663 19.5085 4.92893 19.0711C3.05357 17.1957 2 14.6522 2 12C2 11.7348 2.10536 11.4805 2.29289 11.2929C2.48043 11.1054 2.73478 11 3 11H18.8333L21.0769 5.61541C21.2893 5.10561 21.8748 4.86453 22.3846 5.07695ZM19.4768 13H4.06272C4.28353 14.753 5.08052 16.3943 6.34315 17.6569C7.84344 19.1572 9.87827 20 12 20C14.1217 20 16.1566 19.1572 17.6569 17.6569C18.9195 16.3943 19.7165 14.753 19.9373 13H19.5224C19.5072 13.0004 19.492 13.0004 19.4768 13Z" fill="currentColor" style="fill="currentColor";fill-opacity:1;"/>
</svg>
