<svg width="24" height="24" viewBox="0 0 24 24" fill="none" xmlns="http://www.w3.org/2000/svg">
<path fill-rule="evenodd" clip-rule="evenodd" d="M2 16C2.55228 16 3 16.4477 3 17V17.9573C3.0001 17.9574 3.0002 17.9576 3.0003 17.9577C3.0053 17.9648 3.01181 17.9726 3.01961 17.9804C3.02741 17.9882 3.03524 17.9947 3.0423 17.9997C3.04244 17.9998 3.04258 17.9999 3.04273 18H20.9573C20.9574 17.9999 20.9576 17.9998 20.9577 17.9997C20.9648 17.9947 20.9726 17.9882 20.9804 17.9804C20.9882 17.9726 20.9947 17.9648 20.9997 17.9577C20.9998 17.9576 20.9999 17.9574 21 17.9573V17C21 16.4477 21.4477 16 22 16C22.5523 16 23 16.4477 23 17V18C23 18.5752 22.7225 19.0668 22.3946 19.3946C22.0668 19.7225 21.5752 20 21 20H3C2.42477 20 1.93324 19.7225 1.60539 19.3946C1.27755 19.0668 1 18.5752 1 18V17C1 16.4477 1.44772 16 2 16Z" fill="currentColor" style="fill="currentColor";fill-opacity:1;"/>
</svg>
