<svg width="24" height="24" viewBox="0 0 24 24" fill="none" xmlns="http://www.w3.org/2000/svg">
<path fill-rule="evenodd" clip-rule="evenodd" d="M11.9994 2C12.4315 1.99974 12.8149 2.27707 12.9499 2.68755L14.8634 8.5049C14.9121 8.65547 14.9959 8.79232 15.1079 8.90419C15.2198 9.01606 15.3567 9.09976 15.5074 9.14841L15.5113 9.14968L21.3113 11.0497C21.722 11.1842 21.9997 11.5673 22 11.9994C22.0003 12.4315 21.7229 12.8149 21.3125 12.9499L15.4951 14.8634C15.3445 14.9121 15.2077 14.9959 15.0958 15.1079C14.9839 15.2198 14.9002 15.3567 14.8516 15.5074L14.8503 15.5113L12.9503 21.3113C12.8158 21.722 12.4327 21.9997 12.0006 22C11.5685 22.0003 11.1851 21.7229 11.0501 21.3125L9.13663 15.4951C9.08787 15.3445 9.00408 15.2077 8.89212 15.0958C8.78016 14.9839 8.64325 14.9002 8.49264 14.8516L8.48869 14.8503L2.68869 12.9503C2.27805 12.8158 2.00026 12.4327 2 12.0006C1.99974 11.5685 2.27707 11.1851 2.68755 11.0501L8.5049 9.13663C8.65547 9.08787 8.79232 9.00408 8.90419 8.89212C9.01606 8.78016 9.09976 8.64325 9.14841 8.49264L9.14968 8.48869L11.0497 2.68869C11.1842 2.27805 11.5673 2.00026 11.9994 2ZM12.0019 6.20637L11.0516 9.10736C11.0514 9.10808 11.0511 9.10881 11.0509 9.10953C10.9049 9.5605 10.654 9.97045 10.319 10.3058C9.98392 10.6411 9.57422 10.8922 9.12344 11.0386C9.12266 11.0389 9.12187 11.0391 9.12109 11.0394L6.20637 11.9981L9.10736 12.9484C9.10808 12.9486 9.10881 12.9489 9.10953 12.9491C9.5605 13.0951 9.97045 13.346 10.3058 13.681C10.6411 14.0161 10.8922 14.4258 11.0386 14.8766C11.0389 14.8774 11.0391 14.8781 11.0394 14.8789L11.9981 17.7936L12.9484 14.8926C12.9486 14.8919 12.9489 14.8912 12.9491 14.8905C13.0951 14.4395 13.346 14.0295 13.681 13.6942C14.0161 13.3589 14.4258 13.1078 14.8766 12.9614C14.8774 12.9611 14.8781 12.9609 14.8789 12.9606L17.7936 12.0019L14.8926 11.0516C14.8919 11.0514 14.8912 11.0511 14.8905 11.0509C14.4395 10.9049 14.0295 10.654 13.6942 10.319C13.3589 9.98392 13.1078 9.57422 12.9614 9.12344C12.9611 9.12266 12.9609 9.12187 12.9606 9.12109L12.0019 6.20637Z" fill="currentColor" style="fill="currentColor";fill-opacity:1;"/>
</svg>
