<svg width="24" height="24" viewBox="0 0 24 24" fill="none" xmlns="http://www.w3.org/2000/svg">
<path fill-rule="evenodd" clip-rule="evenodd" d="M2.90482 3.70604C4.11661 2.50536 5.75573 1.83523 7.4616 1.84309C9.16747 1.85094 10.8003 2.53612 12.001 3.7479C13.2012 4.95913 13.8712 6.59729 13.864 8.3023V14.0001C13.864 14.0286 13.8628 14.0571 13.8603 14.0855C13.7924 14.8774 13.441 15.6183 12.8706 16.1718C12.3001 16.7254 11.5491 17.0544 10.7555 17.0985C10.7021 17.1015 10.6485 17.1002 10.5953 17.0946L9.79999 17.0109V20.0001C9.79999 20.5524 9.35228 21.0001 8.79999 21.0001C8.24771 21.0001 7.79999 20.5524 7.79999 20.0001V15.9001C7.79999 15.6166 7.92027 15.3465 8.13092 15.1569C8.34157 14.9672 8.6228 14.8759 8.90468 14.9056L10.7133 15.096C11.0004 15.0647 11.2696 14.9385 11.4777 14.7365C11.6937 14.527 11.8299 14.2494 11.864 13.9512V8.29547C11.8694 7.12003 11.4077 5.99058 10.5803 5.15559C9.75298 4.32061 8.62783 3.84847 7.45239 3.84306C6.27695 3.83765 5.1475 4.29941 4.31251 5.12675C3.47805 5.95356 3.00599 7.07782 2.99999 8.25246C3.00018 9.56182 3.15214 10.2117 3.3164 10.6882C3.37935 10.8708 3.44062 11.0207 3.51238 11.1963C3.54803 11.2835 3.58627 11.3771 3.62859 11.4841C3.74783 11.7858 3.87097 12.1292 3.97166 12.5634C4.24117 13.6191 4.2519 14.7244 4.00286 15.7852C4.00273 15.7858 4.0026 15.7863 4.00247 15.7869L2.9742 20.2257C2.84956 20.7638 2.31235 21.0989 1.77432 20.9743C1.23628 20.8496 0.901153 20.3124 1.02579 19.7744L2.05479 15.3324L2.05552 15.3293C2.23196 14.5785 2.22373 13.7962 2.03154 13.0493C2.0294 13.0409 2.02736 13.0326 2.02543 13.0242C1.95465 12.7164 1.86801 12.4707 1.76865 12.2194C1.74327 12.1552 1.71443 12.0845 1.68359 12.009C1.60236 11.8099 1.50733 11.5771 1.42559 11.34C1.17595 10.6158 0.999993 9.73912 0.999993 8.25008V8.24547C1.00784 6.5396 1.69304 4.90672 2.90482 3.70604ZM19.0964 6.48947C19.4871 6.09919 20.1203 6.09959 20.5106 6.49036C22.103 8.0847 22.9971 10.2461 22.9964 12.4994C22.9958 14.7528 22.1005 16.9136 20.5072 18.5071C20.1167 18.8976 19.4835 18.8977 19.093 18.5072C18.7024 18.1167 18.7024 17.4835 19.0929 17.093C20.3113 15.8744 20.996 14.222 20.9964 12.4989C20.9969 10.7757 20.3132 9.12289 19.0955 7.90369C18.7052 7.51292 18.7056 6.87976 19.0964 6.48947ZM16.2608 9.32501C16.6474 8.93054 17.2805 8.92411 17.675 9.31065C18.0998 9.72697 18.4379 10.2234 18.6697 10.7712C18.9015 11.319 19.0224 11.9073 19.0254 12.5022C19.0284 13.097 18.9134 13.6865 18.6872 14.2366C18.4609 14.7867 18.1278 15.2865 17.7071 15.7071C17.3166 16.0976 16.6834 16.0975 16.2929 15.7069C15.9024 15.3164 15.9025 14.6832 16.2931 14.2927C16.5268 14.0591 16.7118 13.7814 16.8375 13.4758C16.9632 13.1702 17.0271 12.8427 17.0254 12.5122C17.0238 12.1818 16.9566 11.8549 16.8278 11.5506C16.6991 11.2462 16.5112 10.9704 16.2752 10.7392C15.8807 10.3526 15.8743 9.71948 16.2608 9.32501Z" fill="currentColor" style="fill="currentColor";fill-opacity:1;"/>
</svg>
