<svg width="24" height="24" viewBox="0 0 24 24" fill="none" xmlns="http://www.w3.org/2000/svg">
<path fill-rule="evenodd" clip-rule="evenodd" d="M12 3C12.3788 3 12.725 3.214 12.8944 3.55279L16.8854 11.5348C16.8919 11.5471 16.8981 11.5596 16.9041 11.5722L18.8944 15.5528C19.1414 16.0468 18.9412 16.6474 18.4472 16.8944C17.9532 17.1414 17.3526 16.9412 17.1056 16.4472L15.382 13H8.61803L6.89443 16.4472C6.64744 16.9412 6.04676 17.1414 5.55279 16.8944C5.05881 16.6474 4.85858 16.0468 5.10557 15.5528L7.09588 11.5722C7.10186 11.5596 7.10809 11.5471 7.11457 11.5348L11.1056 3.55279C11.275 3.214 11.6212 3 12 3ZM9.61803 11H14.382L12 6.23607L9.61803 11ZM5.73512 21.2839C5.43464 21.5464 4.91547 22 4 22C3.44772 22 3 21.5523 3 21C3 20.4477 3.44772 20 4 20C4.14949 20 4.17619 19.989 4.45632 19.7454L4.46339 19.7393C4.60482 19.6162 4.83361 19.4172 5.13885 19.2633C5.46916 19.0968 5.84901 19 6.3 19C6.75151 19 7.13164 19.0971 7.46262 19.2713C7.75556 19.4255 7.97459 19.6251 8.10426 19.7433C8.11061 19.7491 8.11675 19.7547 8.12267 19.7601C8.27087 19.8948 8.31991 19.9331 8.36887 19.9588C8.39414 19.9721 8.45151 20 8.6 20C8.74949 20 8.77619 19.989 9.05632 19.7454L9.06339 19.7392C9.20482 19.6162 9.43361 19.4172 9.73885 19.2633C10.0692 19.0968 10.449 19 10.9 19C11.8155 19 12.3346 19.4536 12.6351 19.7161C12.6466 19.7262 12.6578 19.7359 12.6687 19.7454C12.8154 19.8729 12.8778 19.9198 12.9393 19.9508C12.9808 19.9718 13.051 20 13.2 20C13.3495 20 13.3762 19.989 13.6563 19.7454L13.6634 19.7392C13.8048 19.6162 14.0336 19.4172 14.3389 19.2633C14.6692 19.0968 15.049 19 15.5 19C16.4155 19 16.9346 19.4536 17.2351 19.7161C17.2466 19.7262 17.2578 19.7359 17.2687 19.7454C17.4154 19.8729 17.4778 19.9198 17.5393 19.9508C17.5808 19.9718 17.651 20 17.8 20C17.9495 20 17.9762 19.989 18.2563 19.7454L18.2634 19.7392C18.4048 19.6162 18.6336 19.4172 18.9389 19.2633C19.2692 19.0968 19.649 19 20.1 19C20.6523 19 21.1 19.4477 21.1 20C21.1 20.5523 20.6523 21 20.1 21C19.951 21 19.8808 21.0282 19.8393 21.0492C19.7778 21.0802 19.7154 21.1271 19.5687 21.2546C19.5578 21.2641 19.5466 21.2738 19.5351 21.2839C19.2346 21.5464 18.7155 22 17.8 22C17.349 22 16.9692 21.9032 16.6388 21.7367C16.3336 21.5828 16.1048 21.3838 15.9634 21.2608L15.9563 21.2546C15.6762 21.011 15.6495 21 15.5 21C15.351 21 15.2808 21.0282 15.2393 21.0492C15.1778 21.0802 15.1154 21.1271 14.9687 21.2546C14.9578 21.2641 14.9466 21.2738 14.9351 21.2839C14.6346 21.5464 14.1155 22 13.2 22C12.749 22 12.3692 21.9032 12.0388 21.7367C11.7336 21.5828 11.5048 21.3838 11.3634 21.2608L11.3563 21.2546C11.0762 21.011 11.0495 21 10.9 21C10.751 21 10.6808 21.0282 10.6393 21.0492C10.5778 21.0802 10.5154 21.1271 10.3687 21.2546C10.3578 21.2641 10.3466 21.2738 10.3351 21.2839C10.0346 21.5464 9.51547 22 8.6 22C8.14849 22 7.76836 21.9029 7.43738 21.7287C7.14444 21.5745 6.92541 21.3749 6.79574 21.2567C6.78939 21.2509 6.78325 21.2453 6.77733 21.2399C6.62913 21.1052 6.58009 21.0669 6.53113 21.0412C6.50586 21.0279 6.44849 21 6.3 21C6.15099 21 6.08084 21.0282 6.03928 21.0492C5.97778 21.0802 5.91536 21.1271 5.76868 21.2546C5.75781 21.2641 5.74663 21.2738 5.73512 21.2839Z" fill="currentColor" style="fill="currentColor";fill-opacity:1;"/>
</svg>
