<svg width="24" height="24" viewBox="0 0 24 24" fill="none" xmlns="http://www.w3.org/2000/svg">
<path fill-rule="evenodd" clip-rule="evenodd" d="M19.7094 3.29517C19.9062 3.49322 20.0112 3.76451 19.9991 4.04344C19.891 6.52901 19.2249 8.08937 18.0071 9.30711C17.981 9.3332 17.9535 9.35782 17.9247 9.38087C16.8345 10.2531 15.4063 10.7823 13.6306 10.9555C13.4028 11.4976 13.3446 12.0629 13.3753 12.68C13.3952 13.0796 13.4518 13.4897 13.5218 13.9298C13.5385 14.0349 13.5563 14.1435 13.5745 14.2544C13.6295 14.59 13.688 14.9467 13.7301 15.2911C13.8432 16.2157 13.8743 17.2832 13.3831 18.3179C13.2703 18.5554 13.1343 18.7826 12.974 19H17C17.5523 19 18 19.4477 18 20C18 20.5523 17.5523 21 17 21H10.0226C10.0079 21.0003 9.99323 21.0003 9.97856 21H7C6.44772 21 6 20.5523 6 20C6 19.4477 6.44772 19 7 19H9.77722C10.8793 18.4659 11.3547 17.9271 11.5763 17.4602C11.8195 16.948 11.8443 16.3468 11.7449 15.5339C11.7082 15.2336 11.6593 14.9356 11.6063 14.612C11.5868 14.4933 11.5668 14.371 11.5466 14.244C11.5426 14.2186 11.5385 14.1932 11.5345 14.1676C9.66495 14.4965 8.0273 14.4838 6.53917 13.6877C5.02682 12.9258 3.79351 11.3561 3.04333 8.89126C2.9601 8.61779 2.99788 8.32178 3.14713 8.07798C3.29637 7.83419 3.54281 7.66592 3.82421 7.61567C6.82467 7.07987 8.71815 7.59498 10.0882 8.59136C10.7487 9.07177 11.2727 9.70795 11.696 10.4117C11.7773 10.1885 11.8765 9.96464 11.9964 9.74089C12.0024 8.22554 12.4388 6.74082 13.2577 5.46104C13.2871 5.41508 13.3202 5.3716 13.3567 5.33104C13.8728 4.75765 14.5268 4.18916 15.4513 3.75669C16.3706 3.32671 17.507 3.05461 18.963 3.00069C19.242 2.99035 19.5126 3.09712 19.7094 3.29517ZM14.0626 8.8834C15.1937 8.69613 16.0236 8.32672 16.6323 7.85311C17.238 7.23383 17.6895 6.44843 17.894 5.1049C17.2326 5.20817 16.7149 5.37362 16.2987 5.56831C15.7031 5.84689 15.2702 6.20616 14.8987 6.60823C14.4663 7.3048 14.1831 8.07947 14.0626 8.8834ZM10.4277 12.3101C10.0164 11.3821 9.52214 10.6527 8.91183 10.2088C8.21956 9.70536 7.19576 9.28449 5.36665 9.42805C5.97474 10.8139 6.73699 11.5506 7.44722 11.9057C7.45625 11.9102 7.46521 11.9148 7.4741 11.9196C8.24391 12.3341 9.1502 12.4586 10.4277 12.3101Z" fill="currentColor" style="fill="currentColor";fill-opacity:1;"/>
</svg>
