<svg width="24" height="24" viewBox="0 0 24 24" fill="none" xmlns="http://www.w3.org/2000/svg">
<path fill-rule="evenodd" clip-rule="evenodd" d="M5 4C4.44772 4 4 4.44772 4 5V19C4 19.5523 4.44771 20 5 20H5.07177C5.28635 18.5132 5.97552 17.125 7.05025 16.0503C7.55517 15.5453 8.12928 15.1255 8.75029 14.8C7.67896 13.883 7 12.5208 7 11C7 8.23858 9.23858 6 12 6C14.7614 6 17 8.23858 17 11C17 12.5208 16.321 13.883 15.2497 14.8C15.8707 15.1255 16.4448 15.5453 16.9497 16.0503C18.0245 17.125 18.7137 18.5132 18.9282 20H19C19.5523 20 20 19.5523 20 19V5C20 4.44771 19.5523 4 19 4H5ZM19 22C20.6569 22 22 20.6569 22 19V5C22 3.34315 20.6569 2 19 2H5C3.34315 2 2 3.34315 2 5V19C2 20.6569 3.34315 22 5 22H19ZM16.899 20C16.7044 19.0466 16.2339 18.1628 15.5355 17.4645C14.5979 16.5268 13.3261 16 12 16C10.6739 16 9.40215 16.5268 8.46447 17.4645C7.76608 18.1628 7.29564 19.0466 7.101 20H16.899ZM12 14C13.6569 14 15 12.6569 15 11C15 9.34315 13.6569 8 12 8C10.3431 8 9 9.34315 9 11C9 12.6569 10.3431 14 12 14Z" fill="currentColor" style="fill="currentColor";fill-opacity:1;"/>
</svg>
