<svg width="24" height="24" viewBox="0 0 24 24" fill="none" xmlns="http://www.w3.org/2000/svg">
<path fill-rule="evenodd" clip-rule="evenodd" d="M5 4C4.44772 4 4 4.44772 4 5V19C4 19.5523 4.44771 20 5 20H19C19.5523 20 20 19.5523 20 19V5C20 4.44771 19.5523 4 19 4H5ZM2 5C2 3.34315 3.34315 2 5 2H19C20.6569 2 22 3.34315 22 5V19C22 20.6569 20.6569 22 19 22H5C3.34315 22 2 20.6569 2 19V5ZM12.0194 6.80388C12.1129 6.33646 12.5233 6 13 6H17C17.5523 6 18 6.44772 18 7C18 7.55228 17.5523 8 17 8H13.8198L11.9806 17.1961C11.8938 17.6301 11.5321 17.9554 11.0914 17.9958C10.6507 18.0363 10.2359 17.7823 10.0715 17.3714L8.32297 13H7C6.44772 13 6 12.5523 6 12C6 11.4477 6.44772 11 7 11H9C9.4089 11 9.77661 11.249 9.92848 11.6286L10.6791 13.5053L12.0194 6.80388Z" fill="currentColor" style="fill="currentColor";fill-opacity:1;"/>
</svg>
