<svg width="24" height="24" viewBox="0 0 24 24" fill="none" xmlns="http://www.w3.org/2000/svg">
<path fill-rule="evenodd" clip-rule="evenodd" d="M5 4C4.73478 4 4.48043 4.10536 4.29289 4.29289C4.10536 4.48043 4 4.73478 4 5V19C4 19.2652 4.10536 19.5196 4.29289 19.7071C4.48043 19.8946 4.73478 20 5 20C5.55228 20 6 20.4477 6 21C6 21.5523 5.55228 22 5 22C4.20435 22 3.44129 21.6839 2.87868 21.1213C2.31607 20.5587 2 19.7957 2 19V5C2 4.20435 2.31607 3.44129 2.87868 2.87868C3.44129 2.31607 4.20435 2 5 2H19C19.7957 2 20.5587 2.31607 21.1213 2.87868C21.6839 3.44129 22 4.20435 22 5V19C22 19.7957 21.6839 20.5587 21.1213 21.1213C20.5587 21.6839 19.7957 22 19 22C18.4477 22 18 21.5523 18 21C18 20.4477 18.4477 20 19 20C19.2652 20 19.5196 19.8946 19.7071 19.7071C19.8946 19.5196 20 19.2652 20 19V5C20 4.73478 19.8946 4.48043 19.7071 4.29289C19.5196 4.10536 19.2652 4 19 4H5ZM8 21C8 20.4477 8.44772 20 9 20H10C10.5523 20 11 20.4477 11 21C11 21.5523 10.5523 22 10 22H9C8.44772 22 8 21.5523 8 21ZM13 21C13 20.4477 13.4477 20 14 20H15C15.5523 20 16 20.4477 16 21C16 21.5523 15.5523 22 15 22H14C13.4477 22 13 21.5523 13 21Z" fill="currentColor" style="fill="currentColor";fill-opacity:1;"/>
</svg>
