<svg width="24" height="24" viewBox="0 0 24 24" fill="none" xmlns="http://www.w3.org/2000/svg">
<path fill-rule="evenodd" clip-rule="evenodd" d="M4.39524 1.41866C5.06253 1.14226 5.77773 1 6.5 1C7.22227 1 7.93747 1.14226 8.60476 1.41866C9.27205 1.69506 9.87836 2.10019 10.3891 2.61091C10.8998 3.12163 11.3049 3.72795 11.5813 4.39524C11.8577 5.06253 12 5.77773 12 6.5C12 7.62327 11.8466 8.55955 11.5882 9.37219C12.0755 9.2181 12.5786 9.11039 13.0907 9.05182C13.2787 8.07859 13.7534 7.17548 14.4645 6.46447C15.1628 5.76608 16.0466 5.29564 17 5.101V4C17 3.44772 17.4477 3 18 3C18.5523 3 19 3.44772 19 4V8.101C19.9534 8.29564 20.8372 8.76608 21.5355 9.46447C22.4732 10.4021 23 11.6739 23 13V15C23 15.7957 22.6839 16.5587 22.1213 17.1213C21.5587 17.6839 20.7957 18 20 18H19C18.4696 18 17.9609 18.2107 17.5858 18.5858C17.4628 18.7088 17.2958 18.9896 17.1589 19.4022C17.0845 19.6265 17.0316 19.8518 16.9996 20.0542C16.997 20.2456 16.9807 20.4373 16.9504 20.6278C16.9304 20.7534 16.9046 20.8776 16.8729 21H18C18.5523 21 19 21.4477 19 22C19 22.5523 18.5523 23 18 23H15.24C15.237 23 15.2341 23 15.2311 23H8C4.64772 23 2 20.3523 2 17C2 13.7229 3.11252 11.7746 4.17909 10.2414C4.23727 10.1578 4.29441 10.0763 4.35046 9.9968C3.47658 9.95947 2.64617 9.59592 2.02513 8.97487C1.36875 8.3185 1 7.42826 1 6.5C1 5.77773 1.14226 5.06253 1.41866 4.39524C1.69506 3.72795 2.10019 3.12164 2.61091 2.61091C3.12163 2.10019 3.72795 1.69506 4.39524 1.41866ZM6 6.5C6 5.94772 6.44772 5.5 7 5.5C7.55228 5.5 8 5.94772 8 6.5C8 8.36203 7.0397 9.69076 6.19291 10.8624C6.06509 11.0393 5.93986 11.2126 5.82091 11.3836C4.88748 12.7254 4 14.2771 4 17C4 19.2477 5.75229 21 8 21H14.7319C14.843 20.8077 14.9217 20.5975 14.964 20.3779C14.9675 20.2315 14.9793 20.0791 14.9986 19.9236C14.989 19.6732 14.9325 19.4257 14.8306 19.1943C14.676 18.8428 14.4233 18.5432 14.103 18.3314C13.7826 18.1196 13.408 18.0045 13.0239 17.9999C12.4717 17.9933 12.0294 17.5403 12.036 16.988C12.0426 16.4358 12.4956 15.9935 13.0478 16.0001C13.8159 16.0093 14.5651 16.2394 15.2059 16.663C15.5026 16.8591 15.7702 17.0929 16.0028 17.3572C16.0565 17.2925 16.1127 17.2305 16.1716 17.1716C16.9217 16.4214 17.9391 16 19 16H20C20.2652 16 20.5196 15.8946 20.7071 15.7071C20.8946 15.5196 21 15.2652 21 15V13C21 12.2044 20.6839 11.4413 20.1213 10.8787C19.5587 10.3161 18.7956 10 18 10C17.4477 10 17 9.55228 17 9V7.17157C16.5821 7.31933 16.1981 7.55927 15.8787 7.87868C15.3161 8.44129 15 9.20435 15 10C15 10.5523 14.5523 11 14 11C12.4087 11 10.8826 11.6321 9.75736 12.7574C8.63214 13.8826 8 15.4087 8 17C8 17.5523 7.55228 18 7 18C6.44772 18 6 17.5523 6 17C6 14.2204 7.12739 12.743 8.12311 11.4383C8.15037 11.4025 8.17753 11.3669 8.20457 11.3315C8.70454 10.6753 9.13752 10.0866 9.45981 9.35479C9.77555 8.6378 10 7.74475 10 6.5C10 6.04037 9.90947 5.58525 9.73358 5.16061C9.55769 4.73597 9.29988 4.35013 8.97487 4.02513C8.64987 3.70012 8.26403 3.44231 7.83939 3.26642C7.41475 3.09053 6.95963 3 6.5 3C6.04037 3 5.58525 3.09053 5.16061 3.26642C4.73597 3.44231 4.35013 3.70012 4.02513 4.02513C3.70012 4.35013 3.44231 4.73597 3.26642 5.16061C3.09053 5.58525 3 6.04037 3 6.5C3 6.89782 3.15804 7.27936 3.43934 7.56066C3.72064 7.84196 4.10218 8 4.5 8C4.89782 8 5.27936 7.84196 5.56066 7.56066C5.84196 7.27936 6 6.89782 6 6.5ZM17 13C17 12.4477 17.4477 12 18 12H18.01C18.5623 12 19.01 12.4477 19.01 13C19.01 13.5523 18.5623 14 18.01 14H18C17.4477 14 17 13.5523 17 13Z" fill="currentColor" style="fill="currentColor";fill-opacity:1;"/>
</svg>
