<svg width="24" height="24" viewBox="0 0 24 24" fill="none" xmlns="http://www.w3.org/2000/svg">
<path fill-rule="evenodd" clip-rule="evenodd" d="M9.2397 2.01468C10.0043 1.31002 11.0148 1 12.0399 1C13.1008 1 14.1182 1.42143 14.8683 2.17157C15.6185 2.92172 16.0399 3.93913 16.0399 5C16.0399 6.22378 15.7159 6.89507 15.4082 7.43364C15.391 7.46373 15.3744 7.49255 15.3585 7.52026C15.1391 7.90211 15.0399 8.07475 15.0399 8.5V12H9.03992M9.03992 12V8.5C9.03992 8.07475 8.94073 7.90211 8.72135 7.52026C8.70543 7.49255 8.68887 7.46373 8.67167 7.43364C8.36392 6.89507 8.03992 6.22378 8.03992 5C8.03992 3.76421 8.46179 2.73165 9.2397 2.01468M11.0399 12H13.0399V8.5C13.0399 7.53125 13.3723 6.95813 13.6166 6.53678C13.6356 6.5041 13.654 6.47233 13.6717 6.44136C13.8639 6.10493 14.0399 5.77622 14.0399 5C14.0399 4.46957 13.8292 3.96086 13.4541 3.58579C13.0791 3.21071 12.5703 3 12.0399 3C11.4051 3 10.9156 3.18998 10.5951 3.48532C10.288 3.76835 10.0399 4.23579 10.0399 5C10.0399 5.77622 10.2159 6.10493 10.4082 6.44136C10.4259 6.47233 10.4443 6.5041 10.4632 6.53678C10.7076 6.95813 11.0399 7.53125 11.0399 8.5V12ZM18.1163 14.1133C17.9341 14.0382 17.7388 13.9997 17.5417 14L17.5399 14H6.53992C6.14209 14 5.76056 14.158 5.47926 14.4393C5.19795 14.7206 5.03992 15.1022 5.03992 15.5V17H19.0399V15.5C19.0399 15.1012 18.8825 14.717 18.6033 14.4376C18.4638 14.2986 18.2983 14.1884 18.1163 14.1133ZM4.03992 22C4.03992 21.4477 4.48763 21 5.03992 21H19.0399C19.5922 21 20.0399 21.4477 20.0399 22C20.0399 22.5523 19.5922 23 19.0399 23H5.03992C4.48763 23 4.03992 22.5523 4.03992 22Z" fill="currentColor" style="fill="currentColor";fill-opacity:1;"/>
</svg>
