<svg width="24" height="24" viewBox="0 0 24 24" fill="none" xmlns="http://www.w3.org/2000/svg">
<path fill-rule="evenodd" clip-rule="evenodd" d="M1.29292 1.29289C1.68345 0.902369 2.31661 0.902369 2.70714 1.29289L18.1689 16.7547C18.2603 16.8196 18.3408 16.8997 18.4064 16.9922L22.7071 21.2929C23.0977 21.6834 23.0977 22.3166 22.7071 22.7071C22.3166 23.0976 21.6834 23.0976 21.2929 22.7071L19.1134 20.5276L19.1656 20.8306C19.23 21.2054 19.0763 21.5843 18.769 21.8083C18.4616 22.0322 18.0539 22.0625 17.7168 21.8863L12 18.8984L6.28323 21.8863C5.9462 22.0625 5.53841 22.0322 5.23107 21.8083C4.92373 21.5843 4.77003 21.2054 4.8345 20.8306L5.92529 14.4892L1.3023 9.98645C1.02974 9.72098 0.931448 9.32385 1.0487 8.9619C1.16596 8.59995 1.47845 8.3359 1.85489 8.28068L6.22539 7.63958L1.29292 2.70711C0.902398 2.31658 0.902398 1.68342 1.29292 1.29289ZM7.98821 9.4024L4.14751 9.96578L7.69776 13.4237C7.93376 13.6536 8.0414 13.9849 7.98556 14.3096L7.14821 19.1776L11.5368 16.8838C11.827 16.7322 12.1731 16.7322 12.4632 16.8838L16.8518 19.1776L16.6625 18.0767L7.98821 9.4024ZM12.0009 1C12.3815 1.00031 12.7288 1.21659 12.8971 1.55794L15.7543 7.35571L22.1433 8.28031C22.5201 8.33484 22.8333 8.59862 22.951 8.96068C23.0688 9.32275 22.9708 9.72028 22.6981 9.98605L19.1181 13.4761C18.7227 13.8616 18.0896 13.8535 17.704 13.458C17.3185 13.0626 17.3266 12.4295 17.722 12.044L19.8502 9.96929L14.9469 9.25969C14.6207 9.21249 14.3388 9.00765 14.1931 8.71206L11.9983 4.25843L11.4564 5.35351C11.2114 5.84851 10.6116 6.05121 10.1166 5.80627C9.62158 5.56132 9.41887 4.96148 9.66382 4.46649L11.1038 1.55649C11.2726 1.21541 11.6203 0.999691 12.0009 1Z" fill="currentColor" style="fill="currentColor";fill-opacity:1;"/>
</svg>
