<svg width="24" height="24" viewBox="0 0 24 24" fill="none" xmlns="http://www.w3.org/2000/svg">
<path fill-rule="evenodd" clip-rule="evenodd" d="M2.87868 2.87868C3.44129 2.31607 4.20435 2 5 2H15.5C15.7652 2 16.0196 2.10536 16.2071 2.29289L21.7071 7.79289C21.8946 7.98043 22 8.23478 22 8.5V19C22 19.7957 21.6839 20.5587 21.1213 21.1213C20.5587 21.6839 19.7957 22 19 22H5C3.34772 22 2 20.6523 2 19V5C2 4.20435 2.31607 3.44129 2.87868 2.87868ZM13 4H5C4.73478 4 4.48043 4.10536 4.29289 4.29289C4.10536 4.48043 4 4.73478 4 5V19C4 19.5477 4.45228 20 5 20H19C19.2652 20 19.5196 19.8946 19.7071 19.7071C19.8946 19.5196 20 19.2652 20 19V10H16C15.2043 10 14.4413 9.68393 13.8787 9.12132C13.3161 8.55871 13 7.79565 13 7V4ZM19.0858 8H16C15.7348 8 15.4804 7.89464 15.2929 7.70711C15.1054 7.51957 15 7.26522 15 7V4H15.0858L19.0858 8ZM14.5735 15.1808C15.0259 15.4975 15.1359 16.121 14.8192 16.5735L14 16C14.8192 16.5735 14.8195 16.5731 14.8192 16.5735L14.8182 16.5749L14.8171 16.5764L14.8147 16.5798L14.8091 16.5877L14.7944 16.6078C14.783 16.6231 14.7686 16.6421 14.751 16.6642C14.7159 16.7085 14.668 16.7659 14.6075 16.832C14.4871 16.9633 14.3121 17.1336 14.0827 17.3036C13.6235 17.6438 12.9196 18 12 18C11.1189 18 10.4176 17.6343 9.96876 17.3137C9.74003 17.1504 9.56075 16.9875 9.43664 16.8634C9.37415 16.8009 9.3244 16.747 9.28813 16.706C9.26996 16.6855 9.25508 16.6681 9.24357 16.6544L9.22882 16.6367L9.22334 16.6299L9.22108 16.6271L9.22006 16.6259C9.21983 16.6256 9.21913 16.6247 10 16L9.21913 16.6247C8.87412 16.1934 8.94404 15.5641 9.37531 15.2191C9.80425 14.876 10.4291 14.9433 10.7753 15.3684L10.7853 15.3799C10.7975 15.3937 10.8196 15.4179 10.8509 15.4491C10.9143 15.5125 11.01 15.5996 11.1312 15.6863C11.3824 15.8657 11.6811 16 12 16C12.3804 16 12.6765 15.8562 12.8923 15.6964C13.0004 15.6164 13.0817 15.5367 13.1332 15.4805C13.1585 15.4528 13.1755 15.4321 13.1838 15.4217C13.1859 15.419 13.1874 15.4171 13.1883 15.4159C13.5073 14.9724 14.1246 14.8665 14.5735 15.1808Z" fill="currentColor" style="fill="currentColor";fill-opacity:1;"/>
</svg>
