<svg width="24" height="24" viewBox="0 0 24 24" fill="none" xmlns="http://www.w3.org/2000/svg">
<path fill-rule="evenodd" clip-rule="evenodd" d="M4 5C3.44772 5 3 5.44772 3 6V8C3 8.55228 3.44772 9 4 9H20C20.5523 9 21 8.55229 21 8V6C21 5.44771 20.5523 5 20 5H4ZM1 6C1 4.34315 2.34315 3 4 3H20C21.6569 3 23 4.34315 23 6V8C23 9.65685 21.6569 11 20 11H4C2.34315 11 1 9.65685 1 8V6ZM4 15C3.44772 15 3 15.4477 3 16V18C3 18.5523 3.44772 19 4 19H20C20.5523 19 21 18.5523 21 18V16C21 15.4477 20.5523 15 20 15H4ZM1 16C1 14.3431 2.34315 13 4 13H20C21.6569 13 23 14.3431 23 16V18C23 19.6569 21.6569 21 20 21H4C2.34315 21 1 19.6569 1 18V16Z" fill="currentColor" style="fill="currentColor";fill-opacity:1;"/>
</svg>
