<svg width="24" height="24" viewBox="0 0 24 24" fill="none" xmlns="http://www.w3.org/2000/svg">
<path fill-rule="evenodd" clip-rule="evenodd" d="M9.00027 3C9.00018 3 9.00036 3 9.00027 3H16C16.5523 3 17 3.44772 17 4C17 4.55228 16.5523 5 16 5H8.99999C8.67994 4.99983 8.364 5.07648 8.07971 5.22349C7.79542 5.37051 7.55057 5.5836 7.36572 5.84487C7.18087 6.10614 7.06143 6.40796 7.01741 6.72497C6.9734 7.04198 7.00611 7.36492 7.1128 7.66667C7.29689 8.18737 7.02402 8.75871 6.50332 8.94281C5.98262 9.1269 5.41127 8.85403 5.22718 8.33333C5.01381 7.72984 4.94839 7.08396 5.03642 6.44994C5.12444 5.81592 5.36333 5.21229 5.73303 4.68974C6.10273 4.1672 6.59244 3.74101 7.16101 3.44698C7.72942 3.15303 8.36035 2.99975 9.00027 3ZM3 12C3 11.4477 3.44772 11 4 11H20C20.5523 11 21 11.4477 21 12C21 12.5523 20.5523 13 20 13H18C18.6453 13.8604 19 14.9119 19 16C19 17.3261 18.4732 18.5979 17.5355 19.5355C16.5979 20.4732 15.3261 21 14 21H6C5.44772 21 5 20.5523 5 20C5 19.4477 5.44772 19 6 19H14C14.7956 19 15.5587 18.6839 16.1213 18.1213C16.6839 17.5587 17 16.7956 17 16C17 15.2044 16.6839 14.4413 16.1213 13.8787C15.5587 13.3161 14.7956 13 14 13H4C3.44772 13 3 12.5523 3 12Z" fill="currentColor" style="fill="currentColor";fill-opacity:1;"/>
</svg>
