<svg width="24" height="24" viewBox="0 0 24 24" fill="none" xmlns="http://www.w3.org/2000/svg">
<path fill-rule="evenodd" clip-rule="evenodd" d="M3.29289 4.29289C3.68342 3.90237 4.31658 3.90237 4.70711 4.29289L8 7.58579L11.2929 4.29289C11.6834 3.90237 12.3166 3.90237 12.7071 4.29289C13.0976 4.68342 13.0976 5.31658 12.7071 5.70711L9.41421 9L12.7071 12.2929C13.0976 12.6834 13.0976 13.3166 12.7071 13.7071C12.3166 14.0976 11.6834 14.0976 11.2929 13.7071L8 10.4142L4.70711 13.7071C4.31658 14.0976 3.68342 14.0976 3.29289 13.7071C2.90237 13.3166 2.90237 12.6834 3.29289 12.2929L6.58579 9L3.29289 5.70711C2.90237 5.31658 2.90237 4.68342 3.29289 4.29289ZM16.4078 11.3996C17.0284 11.0487 17.7506 10.9217 18.4536 11.0398C19.1566 11.1578 19.7977 11.5138 20.2695 12.0481L20.2778 12.0575L20.2778 12.0576C20.7439 12.5988 21 13.2903 21 14.0001C21 15.0824 20.3962 15.8401 19.7744 16.3405C19.194 16.8074 18.4858 17.1411 17.9827 17.3781C17.9637 17.387 17.945 17.3958 17.9266 17.4045C17.4472 17.6306 17.2804 17.7817 17.1922 17.9181C17.1772 17.9413 17.1619 17.9682 17.1467 18.0001H20C20.5523 18.0001 21 18.4478 21 19.0001C21 19.5524 20.5523 20.0001 20 20.0001H16C15.4477 20.0001 15 19.5524 15 19.0001C15 18.1708 15.1176 17.4432 15.5128 16.8321C15.9096 16.2184 16.4928 15.8695 17.0734 15.5956C17.6279 15.3341 18.1379 15.0901 18.5206 14.7822C18.8838 14.49 19 14.2478 19 14.0001C19 13.7718 18.9176 13.5453 18.7662 13.3673C18.5982 13.1792 18.3711 13.0539 18.1223 13.0122C17.8722 12.9701 17.6152 13.0151 17.3941 13.1395C17.1793 13.2629 17.0205 13.4549 16.9422 13.6751C16.7572 14.1955 16.1854 14.4673 15.665 14.2823C15.1446 14.0973 14.8728 13.5254 15.0578 13.0051C15.2993 12.3259 15.7797 11.7585 16.4039 11.4018L16.4078 11.3996L16.4078 11.3996Z" fill="black" style="fill:black;fill-opacity:1;"/>
</svg>
