<svg width="24" height="24" viewBox="0 0 24 24" fill="none" xmlns="http://www.w3.org/2000/svg">
<path fill-rule="evenodd" clip-rule="evenodd" d="M12 1C12.5523 1 13 1.44772 13 2V4C13 4.55228 12.5523 5 12 5C11.4477 5 11 4.55228 11 4V2C11 1.44772 11.4477 1 12 1ZM4.22295 4.22282C4.61347 3.8323 5.24664 3.8323 5.63716 4.22282L7.04716 5.63282C7.43769 6.02335 7.43769 6.65651 7.04716 7.04704C6.65664 7.43756 6.02347 7.43756 5.63295 7.04704L4.22295 5.63704C3.83242 5.24651 3.83242 4.61335 4.22295 4.22282ZM19.7771 4.22282C20.1677 4.61335 20.1677 5.24651 19.7771 5.63704L18.3671 7.04704C17.9766 7.43756 17.3435 7.43756 16.9529 7.04704C16.5624 6.65651 16.5624 6.02335 16.9529 5.63283L18.3629 4.22283C18.7535 3.8323 19.3866 3.8323 19.7771 4.22282ZM12 9C10.3431 9 9 10.3431 9 12C9 13.6569 10.3431 15 12 15C13.6569 15 15 13.6569 15 12C15 10.3431 13.6569 9 12 9ZM7 12C7 9.23858 9.23858 7 12 7C14.7614 7 17 9.23858 17 12C17 14.7614 14.7614 17 12 17C9.23858 17 7 14.7614 7 12ZM1 12C1 11.4477 1.44772 11 2 11H4C4.55228 11 5 11.4477 5 12C5 12.5523 4.55228 13 4 13H2C1.44772 13 1 12.5523 1 12ZM19 12C19 11.4477 19.4477 11 20 11H22C22.5523 11 23 11.4477 23 12C23 12.5523 22.5523 13 22 13H20C19.4477 13 19 12.5523 19 12ZM7.04716 16.9528C7.43769 17.3433 7.43769 17.9765 7.04716 18.367L5.63716 19.777C5.24664 20.1675 4.61347 20.1675 4.22295 19.777C3.83242 19.3865 3.83242 18.7533 4.22295 18.3628L5.63295 16.9528C6.02347 16.5623 6.65664 16.5623 7.04716 16.9528ZM16.9529 16.9528C17.3435 16.5623 17.9766 16.5623 18.3671 16.9528L19.7771 18.3628C20.1677 18.7533 20.1677 19.3865 19.7771 19.777C19.3866 20.1675 18.7535 20.1675 18.3629 19.777L16.9529 18.367C16.5624 17.9765 16.5624 17.3433 16.9529 16.9528ZM12 19C12.5523 19 13 19.4477 13 20V22C13 22.5523 12.5523 23 12 23C11.4477 23 11 22.5523 11 22V20C11 19.4477 11.4477 19 12 19Z" fill="black" style="fill:black;fill-opacity:1;"/>
</svg>
