<svg width="24" height="24" viewBox="0 0 24 24" fill="none" xmlns="http://www.w3.org/2000/svg">
<path fill-rule="evenodd" clip-rule="evenodd" d="M11.2929 1.29289C11.6834 0.902369 12.3166 0.902369 12.7071 1.29289L16.7071 5.29289C17.0976 5.68342 17.0976 6.31658 16.7071 6.70711C16.3166 7.09763 15.6834 7.09763 15.2929 6.70711L13 4.41421V10C13 10.5523 12.5523 11 12 11C11.4477 11 11 10.5523 11 10V4.41421L8.70711 6.70711C8.31658 7.09763 7.68342 7.09763 7.29289 6.70711C6.90237 6.31658 6.90237 5.68342 7.29289 5.29289L11.2929 1.29289ZM4.22295 10.2228C4.61347 9.8323 5.24664 9.8323 5.63716 10.2228L7.04716 11.6328C7.43769 12.0233 7.43769 12.6565 7.04716 13.047C6.65664 13.4376 6.02347 13.4376 5.63295 13.047L4.22295 11.637C3.83242 11.2465 3.83242 10.6133 4.22295 10.2228ZM19.7771 10.2228C20.1677 10.6133 20.1677 11.2465 19.7771 11.637L18.3671 13.047C17.9766 13.4376 17.3435 13.4376 16.9529 13.047C16.5624 12.6565 16.5624 12.0233 16.9529 11.6328L18.3629 10.2228C18.7535 9.8323 19.3866 9.8323 19.7771 10.2228ZM8.46447 14.4645C9.40215 13.5268 10.6739 13 12 13C13.3261 13 14.5979 13.5268 15.5355 14.4645C16.4732 15.4021 17 16.6739 17 18C17 18.5523 16.5523 19 16 19C15.4477 19 15 18.5523 15 18C15 17.2043 14.6839 16.4413 14.1213 15.8787C13.5587 15.3161 12.7956 15 12 15C11.2044 15 10.4413 15.3161 9.87868 15.8787C9.31607 16.4413 9 17.2043 9 18C9 18.5523 8.55228 19 8 19C7.44772 19 7 18.5523 7 18C7 16.6739 7.52678 15.4021 8.46447 14.4645ZM1 18C1 17.4477 1.44772 17 2 17H4C4.55228 17 5 17.4477 5 18C5 18.5523 4.55228 19 4 19H2C1.44772 19 1 18.5523 1 18ZM19 18C19 17.4477 19.4477 17 20 17H22C22.5523 17 23 17.4477 23 18C23 18.5523 22.5523 19 22 19H20C19.4477 19 19 18.5523 19 18ZM1 22C1 21.4477 1.44772 21 2 21H22C22.5523 21 23 21.4477 23 22C23 22.5523 22.5523 23 22 23H2C1.44772 23 1 22.5523 1 22Z" fill="currentColor" style="fill="currentColor";fill-opacity:1;"/>
</svg>
