<svg width="24" height="24" viewBox="0 0 24 24" fill="none" xmlns="http://www.w3.org/2000/svg">
<path fill-rule="evenodd" clip-rule="evenodd" d="M16.405 4.40657C17.0245 4.05456 17.7463 3.92634 18.4492 4.04344C19.152 4.16054 19.7933 4.51583 20.2652 5.0497L20.2696 5.05469L20.2696 5.05471C20.743 5.5975 21 6.28922 21 7.00203C21 8.08579 20.3952 8.84326 19.7727 9.34289C19.1966 9.80531 18.494 10.1368 17.9941 10.3726C17.9714 10.3833 17.9491 10.3938 17.9273 10.4041C17.4487 10.6303 17.2813 10.7815 17.1927 10.9184C17.1778 10.9415 17.1624 10.9683 17.1473 11H20C20.5523 11 21 11.4477 21 12C21 12.5523 20.5523 13 20 13H16C15.4477 13 15 12.5523 15 12C15 11.1701 15.1183 10.4425 15.5138 9.83161C15.9107 9.21854 16.4933 8.86971 17.0727 8.59591C17.628 8.33347 18.1376 8.09075 18.5208 7.78316C18.8838 7.49179 19 7.25026 19 7.00203C19 6.77192 18.9177 6.54865 18.7645 6.37183C18.5968 6.18324 18.3695 6.05774 18.1205 6.01625C17.8705 5.9746 17.6138 6.02016 17.3934 6.14528C17.1762 6.26893 17.019 6.45823 16.9406 6.67557C16.7531 7.19504 16.1799 7.46414 15.6605 7.27662C15.141 7.0891 14.8719 6.51596 15.0594 5.99649C15.3029 5.3219 15.7817 4.76125 16.4044 4.40689L16.405 4.40657ZM3.29289 10.2929C3.68342 9.90237 4.31658 9.90237 4.70711 10.2929L8 13.5858L11.2929 10.2929C11.6834 9.90237 12.3166 9.90237 12.7071 10.2929C13.0976 10.6834 13.0976 11.3166 12.7071 11.7071L9.41421 15L12.7071 18.2929C13.0976 18.6834 13.0976 19.3166 12.7071 19.7071C12.3166 20.0976 11.6834 20.0976 11.2929 19.7071L8 16.4142L4.70711 19.7071C4.31658 20.0976 3.68342 20.0976 3.29289 19.7071C2.90237 19.3166 2.90237 18.6834 3.29289 18.2929L6.58579 15L3.29289 11.7071C2.90237 11.3166 2.90237 10.6834 3.29289 10.2929Z" fill="black" style="fill:black;fill-opacity:1;"/>
</svg>
