<svg width="24" height="24" viewBox="0 0 24 24" fill="none" xmlns="http://www.w3.org/2000/svg">
<path fill-rule="evenodd" clip-rule="evenodd" d="M5 4C4.73478 4 4.48043 4.10536 4.29289 4.29289C4.10536 4.48043 4 4.73478 4 5V17C4 17.7956 4.31607 18.5587 4.87868 19.1213C5.44129 19.6839 6.20435 20 7 20C7.79565 20 8.55871 19.6839 9.12132 19.1213C9.68393 18.5587 10 17.7956 10 17V5C10 4.73478 9.89464 4.48043 9.70711 4.29289C9.51957 4.10536 9.26522 4 9 4H5ZM11.112 20H19C19.2652 20 19.5196 19.8946 19.7071 19.7071C19.8946 19.5196 20 19.2652 20 19V15C20 14.7348 19.8946 14.4804 19.7071 14.2929C19.5196 14.1054 19.2652 14 19 14H17.0846L11.112 20ZM19.0745 12.0009C19.8432 12.02 20.5763 12.3337 21.1213 12.8787C21.6839 13.4413 22 14.2043 22 15V19C22 19.7957 21.6839 20.5587 21.1213 21.1213C20.5587 21.6839 19.7957 22 19 22H7C5.67392 22 4.40215 21.4732 3.46447 20.5355C2.52678 19.5979 2 18.3261 2 17V5C2 4.20435 2.31607 3.44129 2.87868 2.87868C3.44129 2.31607 4.20435 2 5 2H9C9.79565 2 10.5587 2.31607 11.1213 2.87868C11.6839 3.44129 12 4.20435 12 5V5.58586L12.5917 4.99417C12.5919 4.99392 12.5922 4.99367 12.5924 4.99342C12.9086 4.67632 13.2843 4.42481 13.698 4.25332C14.112 4.0817 14.5559 3.99362 15.004 3.99414C15.4522 3.99467 15.8958 4.08379 16.3094 4.25639C16.7224 4.42871 17.0972 4.68084 17.4125 4.99832C17.413 4.99882 17.4135 4.99933 17.414 4.99984L19.3009 6.88667C19.624 7.19942 19.8819 7.57318 20.0596 7.98634C20.2387 8.40273 20.3327 8.85073 20.3362 9.304C20.3396 9.75726 20.2523 10.2066 20.0796 10.6257C19.9073 11.0436 19.6533 11.423 19.3327 11.7416C19.3318 11.7425 19.3309 11.7433 19.3301 11.7442L19.0745 12.0009ZM12 8.41428V16.273L17.9219 10.3239C18.0545 10.1925 18.1594 10.0359 18.2306 9.86337C18.3017 9.69081 18.3376 9.50578 18.3362 9.31914C18.3348 9.1325 18.2961 8.94803 18.2223 8.77658C18.1486 8.60512 18.0413 8.45014 17.9068 8.32075L17.8929 8.30715L15.994 6.40826C15.8641 6.27724 15.7095 6.17319 15.5392 6.10213C15.3689 6.03106 15.1862 5.99436 15.0017 5.99414C14.8171 5.99392 14.6344 6.03019 14.4639 6.10086C14.2934 6.17153 14.1386 6.2752 14.0084 6.40592L12 8.41428ZM6 17C6 16.4477 6.44772 16 7 16H7.01C7.56228 16 8.01 16.4477 8.01 17C8.01 17.5523 7.56228 18 7.01 18H7C6.44772 18 6 17.5523 6 17Z" fill="currentColor" style="fill="currentColor";fill-opacity:1;"/>
</svg>
