<svg width="24" height="24" viewBox="0 0 24 24" fill="none" xmlns="http://www.w3.org/2000/svg">
<path fill-rule="evenodd" clip-rule="evenodd" d="M9 3C9 2.44772 9.44772 2 10 2H18C18.5523 2 19 2.44772 19 3C19 3.55228 18.5523 4 18 4H11V8.5H17C17.5523 8.5 18 8.94772 18 9.5C18 10.0523 17.5523 10.5 17 10.5H11V15H15C15.5523 15 16 15.4477 16 16C16 16.5523 15.5523 17 15 17H11V21C11 21.5523 10.5523 22 10 22C9.44772 22 9 21.5523 9 21V17H6C5.44772 17 5 16.5523 5 16C5 15.4477 5.44772 15 6 15H9V3Z" fill="currentColor" style="fill="currentColor";fill-opacity:1;"/>
</svg>
