<svg width="24" height="24" viewBox="0 0 24 24" fill="none" xmlns="http://www.w3.org/2000/svg">
<path fill-rule="evenodd" clip-rule="evenodd" d="M2 3C2 2.44772 2.44772 2 3 2H6C6.26522 2 6.51957 2.10536 6.70711 2.29289L17.5 13.0858L18.2929 12.2929C18.6834 11.9024 19.3166 11.9024 19.7071 12.2929C20.0976 12.6834 20.0976 13.3166 19.7071 13.7071L17.4142 16L20 18.5858L20.2929 18.2929C20.6834 17.9024 21.3166 17.9024 21.7071 18.2929C22.0976 18.6834 22.0976 19.3166 21.7071 19.7071L19.7071 21.7071C19.3166 22.0976 18.6834 22.0976 18.2929 21.7071C17.9024 21.3166 17.9024 20.6834 18.2929 20.2929L18.5858 20L16 17.4142L13.7071 19.7071C13.3166 20.0976 12.6834 20.0976 12.2929 19.7071C11.9024 19.3166 11.9024 18.6834 12.2929 18.2929L13.0858 17.5L2.29289 6.70711C2.10536 6.51957 2 6.26522 2 6V3ZM14.5 16.0858L16.0858 14.5L5.58579 4H4V5.58579L14.5 16.0858Z" fill="black" style="fill:black;fill-opacity:1;"/>
</svg>
