<svg width="24" height="24" viewBox="0 0 24 24" fill="none" xmlns="http://www.w3.org/2000/svg">
<path fill-rule="evenodd" clip-rule="evenodd" d="M3 1C3.55228 1 4 1.44772 4 2V4C4 4.26522 4.10536 4.51957 4.29289 4.70711C4.48043 4.89464 4.73478 5 5 5H8V2C8 1.44772 8.44772 1 9 1C9.55228 1 10 1.44772 10 2V5H14V2C14 1.44772 14.4477 1 15 1C15.5523 1 16 1.44772 16 2V5H19C19.2652 5 19.5196 4.89464 19.7071 4.70711C19.8946 4.51957 20 4.26522 20 4V2C20 1.44772 20.4477 1 21 1C21.5523 1 22 1.44772 22 2V4C22 4.79565 21.6839 5.55871 21.1213 6.12132C20.5587 6.68393 19.7957 7 19 7H5C4.20435 7 3.44129 6.68393 2.87868 6.12132C2.31607 5.55871 2 4.79565 2 4V2C2 1.44772 2.44772 1 3 1ZM1 10C1 9.44772 1.44772 9 2 9H4C4.55228 9 5 9.44772 5 10C5 10.5523 4.55228 11 4 11H2C1.44772 11 1 10.5523 1 10ZM7 10C7 9.44772 7.44772 9 8 9H10C10.5523 9 11 9.44772 11 10C11 10.5523 10.5523 11 10 11H8C7.44772 11 7 10.5523 7 10ZM13 10C13 9.44772 13.4477 9 14 9H16C16.5523 9 17 9.44772 17 10C17 10.5523 16.5523 11 16 11H14C13.4477 11 13 10.5523 13 10ZM19 10C19 9.44772 19.4477 9 20 9H22C22.5523 9 23 9.44772 23 10C23 10.5523 22.5523 11 22 11H20C19.4477 11 19 10.5523 19 10ZM5 15C4.86868 15 4.73864 15.0259 4.61732 15.0761C4.49599 15.1264 4.38575 15.2 4.29289 15.2929C4.20003 15.3858 4.12638 15.496 4.07612 15.6173C4.02587 15.7386 4 15.8687 4 16V18H8V15H5ZM5 13C4.60603 13 4.21593 13.0776 3.85195 13.2284C3.48797 13.3791 3.15725 13.6001 2.87868 13.8787C2.6001 14.1573 2.37913 14.488 2.22836 14.8519C2.0776 15.2159 2 15.606 2 16V22C2 22.5523 2.44772 23 3 23C3.55228 23 4 22.5523 4 22V20H8V22C8 22.5523 8.44772 23 9 23C9.55228 23 10 22.5523 10 22V20H14V22C14 22.5523 14.4477 23 15 23C15.5523 23 16 22.5523 16 22V20H20V22C20 22.5523 20.4477 23 21 23C21.5523 23 22 22.5523 22 22V16C22 15.606 21.9224 15.2159 21.7716 14.8519C21.6209 14.488 21.3999 14.1573 21.1213 13.8787C20.8427 13.6001 20.512 13.3791 20.1481 13.2284C19.7841 13.0776 19.394 13 19 13H5ZM10 15V18H14V15H10ZM16 15V18H20V16C20 15.8687 19.9741 15.7386 19.9239 15.6173C19.8736 15.496 19.8 15.3858 19.7071 15.2929C19.6142 15.2 19.504 15.1264 19.3827 15.0761C19.2614 15.0259 19.1313 15 19 15H16Z" fill="currentColor" style="fill="currentColor";fill-opacity:1;"/>
</svg>
