<svg width="24" height="24" viewBox="0 0 24 24" fill="none" xmlns="http://www.w3.org/2000/svg">
<path fill-rule="evenodd" clip-rule="evenodd" d="M7 3C4.79086 3 3 4.79086 3 7C3 7.74179 3.20192 8.43642 3.55379 9.03192L9.03192 3.55379C8.43642 3.20192 7.74179 3 7 3ZM11.1542 2.67069C10.0761 1.63595 8.61231 1 7 1C3.68629 1 1 3.68629 1 7C1 8.61231 1.63595 10.0761 2.67069 11.1542C2.69583 11.1864 2.72322 11.2174 2.75285 11.2471C2.78249 11.2767 2.81352 11.3041 2.84573 11.3292C3.92383 12.364 5.38764 13 7 13C10.3137 13 13 10.3137 13 7C13 5.38764 12.364 3.92383 11.3292 2.84573C11.3041 2.81352 11.2767 2.78249 11.2471 2.75285C11.2174 2.72322 11.1864 2.69583 11.1542 2.67069ZM10.4462 4.96798L4.96798 10.4462C5.56351 10.7981 6.25817 11 7 11C9.20914 11 11 9.20914 11 7C11 6.25817 10.7981 5.56351 10.4462 4.96798ZM13.126 16H20.874C20.4299 14.2748 18.8638 13 17 13C15.1362 13 13.5701 14.2748 13.126 16ZM20.874 18H13.126C13.5701 19.7252 15.1362 21 17 21C18.8638 21 20.4299 19.7252 20.874 18ZM11 17C11 13.6863 13.6863 11 17 11C20.3137 11 23 13.6863 23 17C23 20.3137 20.3137 23 17 23C13.6863 23 11 20.3137 11 17Z" fill="currentColor" style="fill="currentColor";fill-opacity:1;"/>
</svg>
