<svg width="24" height="24" viewBox="0 0 24 24" fill="none" xmlns="http://www.w3.org/2000/svg">
<path fill-rule="evenodd" clip-rule="evenodd" d="M14 1C14.5523 1 15 1.44772 15 2V4C15 4.55228 14.5523 5 14 5C13.4477 5 13 4.55228 13 4V2C13 1.44772 13.4477 1 14 1ZM1 3C1 2.44772 1.44772 2 2 2H8C8.79565 2 9.55871 2.31607 10.1213 2.87868C10.6839 3.44129 11 4.20435 11 5V19C11 19.7957 10.6839 20.5587 10.1213 21.1213C9.55871 21.6839 8.79565 22 8 22H2C1.44772 22 1 21.5523 1 21C1 20.4477 1.44772 20 2 20H4V16H2C1.44772 16 1 15.5523 1 15C1 14.4477 1.44772 14 2 14H4V10H2C1.44772 10 1 9.55228 1 9C1 8.44772 1.44772 8 2 8H4V4H2C1.44772 4 1 3.55228 1 3ZM6 4V8H9V5C9 4.73478 8.89464 4.48043 8.70711 4.29289C8.51957 4.10536 8.26522 4 8 4H6ZM9 10H6V14H9V10ZM9 16H6V20H8C8.26522 20 8.51957 19.8946 8.70711 19.7071C8.89464 19.5196 9 19.2652 9 19V16ZM17.8787 2.87868C18.4413 2.31607 19.2043 2 20 2H22C22.5523 2 23 2.44772 23 3C23 3.55228 22.5523 4 22 4H20C19.7348 4 19.4804 4.10536 19.2929 4.29289C19.1054 4.48043 19 4.73478 19 5V8H22C22.5523 8 23 8.44772 23 9C23 9.55228 22.5523 10 22 10H19V14H22C22.5523 14 23 14.4477 23 15C23 15.5523 22.5523 16 22 16H19V19C19 19.2652 19.1054 19.5196 19.2929 19.7071C19.4804 19.8946 19.7348 20 20 20H22C22.5523 20 23 20.4477 23 21C23 21.5523 22.5523 22 22 22H20C19.2043 22 18.4413 21.6839 17.8787 21.1213C17.3161 20.5587 17 19.7957 17 19V5C17 4.20435 17.3161 3.44129 17.8787 2.87868ZM14 7C14.5523 7 15 7.44772 15 8V10C15 10.5523 14.5523 11 14 11C13.4477 11 13 10.5523 13 10V8C13 7.44772 13.4477 7 14 7ZM14 13C14.5523 13 15 13.4477 15 14V16C15 16.5523 14.5523 17 14 17C13.4477 17 13 16.5523 13 16V14C13 13.4477 13.4477 13 14 13ZM14 19C14.5523 19 15 19.4477 15 20V22C15 22.5523 14.5523 23 14 23C13.4477 23 13 22.5523 13 22V20C13 19.4477 13.4477 19 14 19Z" fill="currentColor" style="fill="currentColor";fill-opacity:1;"/>
</svg>
