<svg width="24" height="24" viewBox="0 0 24 24" fill="none" xmlns="http://www.w3.org/2000/svg">
<path d="M7.5 8C7.77614 8 8 7.77614 8 7.5C8 7.22386 7.77614 7 7.5 7C7.22386 7 7 7.22386 7 7.5C7 7.77614 7.22386 8 7.5 8Z" fill="currentColor" style="fill="currentColor";fill-opacity:1;"/>
<path fill-rule="evenodd" clip-rule="evenodd" d="M1.87868 1.87868C2.44129 1.31607 3.20435 1 4 1H11.172C11.9675 1.00017 12.7306 1.31631 13.2931 1.87889C13.2931 1.87886 13.2931 1.87893 13.2931 1.87889L21.9993 10.5851C22.6372 11.227 22.9951 12.0951 22.9951 13C22.9951 13.9049 22.6372 14.773 21.9993 15.4149L21.9971 15.4171L15.4171 21.9971L15.4149 21.9993C14.773 22.6372 13.9049 22.9951 13 22.9951C12.0951 22.9951 11.227 22.6372 10.5851 21.9993L10.5829 21.9971L1.879 13.2932C1.87896 13.2932 1.87904 13.2932 1.879 13.2932C1.31642 12.7307 1.00017 11.9677 1 11.1722V4C1 3.20435 1.31607 2.44129 1.87868 1.87868ZM4 3C3.73478 3 3.48043 3.10536 3.29289 3.29289C3.10536 3.48043 3 3.73478 3 4V11.1718C3 11.1717 3 11.1719 3 11.1718C3.00011 11.4369 3.1055 11.6913 3.293 11.8788L11.9949 20.5807C11.9952 20.581 11.9956 20.5813 11.9959 20.5817C12.263 20.8465 12.6239 20.9951 13 20.9951C13.3761 20.9951 13.737 20.8465 14.0041 20.5817C14.0044 20.5813 14.0048 20.581 14.0051 20.5807L20.5807 14.0051C20.581 14.0048 20.5813 14.0044 20.5817 14.0041C20.8465 13.737 20.9951 13.3761 20.9951 13C20.9951 12.6239 20.8465 12.263 20.5817 11.9959C20.5813 11.9956 20.581 11.9952 20.5807 11.9949L11.8789 3.29311C11.6915 3.10561 11.4371 3.00011 11.172 3C11.1719 3 11.1721 3 11.172 3H4ZM7.5 8C7.77614 8 8 7.77614 8 7.5C8 7.22386 7.77614 7 7.5 7C7.22386 7 7 7.22386 7 7.5C7 7.77614 7.22386 8 7.5 8ZM6 7.5C6 6.67157 6.67157 6 7.5 6C8.32843 6 9 6.67157 9 7.5C9 8.32843 8.32843 9 7.5 9C6.67157 9 6 8.32843 6 7.5Z" fill="currentColor" style="fill="currentColor";fill-opacity:1;"/>
</svg>
