<svg width="24" height="24" viewBox="0 0 24 24" fill="none" xmlns="http://www.w3.org/2000/svg">
<path fill-rule="evenodd" clip-rule="evenodd" d="M4.00003 3C4.55231 3 5.00003 3.44772 5.00003 4V15.0338L8.00003 13.2338V4C8.00003 3.44772 8.44774 3 9.00003 3C9.55231 3 10 3.44772 10 4V12.0338L13 10.2338V4C13 3.44772 13.4477 3 14 3C14.5523 3 15 3.44772 15 4V9.03381L18 7.23381V4C18 3.44772 18.4477 3 19 3C19.5523 3 20 3.44772 20 4V6.03381L21.4855 5.14251C21.9591 4.85836 22.5734 5.01192 22.8575 5.4855C23.1417 5.95908 22.9881 6.57334 22.5145 6.85749L20 8.36619V20C20 20.5523 19.5523 21 19 21C18.4477 21 18 20.5523 18 20V9.56619L15 11.3662V20C15 20.5523 14.5523 21 14 21C13.4477 21 13 20.5523 13 20V12.5662L10 14.3662V20C10 20.5523 9.55231 21 9.00003 21C8.44774 21 8.00003 20.5523 8.00003 20V15.5662L5.00003 17.3662V20C5.00003 20.5523 4.55231 21 4.00003 21C3.44774 21 3.00003 20.5523 3.00003 20V18.5662L2.51452 18.8575C2.04094 19.1416 1.42668 18.9881 1.14254 18.5145C0.858388 18.0409 1.01195 17.4267 1.48553 17.1425L3.00003 16.2338V4C3.00003 3.44772 3.44774 3 4.00003 3Z" fill="currentColor" style="fill="currentColor";fill-opacity:1;"/>
</svg>
