<svg width="24" height="24" viewBox="0 0 24 24" fill="none" xmlns="http://www.w3.org/2000/svg">
<path fill-rule="evenodd" clip-rule="evenodd" d="M17 3C16.4477 3 16 3.44772 16 4C16 4.2482 16.0904 4.47528 16.2401 4.6501C16.2596 4.6668 16.2786 4.68436 16.297 4.70281C16.3155 4.72128 16.3331 4.74029 16.3498 4.75979C16.5246 4.90954 16.7518 5 17 5C17.5523 5 18 4.55228 18 4C18 3.44772 17.5523 3 17 3ZM15.7065 6.70757C16.0981 6.89503 16.5368 7 17 7C18.6569 7 20 5.65685 20 4C20 2.34315 18.6569 1 17 1C15.3431 1 14 2.34315 14 4C14 4.4631 14.1049 4.90169 14.2923 5.2933L5.2933 14.2923C4.90169 14.1049 4.4631 14 4 14C2.34315 14 1 15.3431 1 17C1 18.6569 2.34315 20 4 20C5.65685 20 7 18.6569 7 17C7 16.5368 6.89503 16.0981 6.70757 15.7065L8.69266 13.7214C8.75694 14.9376 9.02493 16.2475 9.34663 17.4466C9.70196 18.771 10.136 20.0079 10.4794 20.9103C10.6515 21.3627 10.8019 21.7336 10.9098 21.9927C10.9638 22.1223 11.0072 22.2241 11.0374 22.2942L11.0726 22.3753L11.0822 22.3972L11.0849 22.4033L11.0857 22.4051C11.0858 22.4053 11.0862 22.4061 12 22L11.0862 22.4061C11.3105 22.9108 11.9014 23.1381 12.4061 22.9138C12.9107 22.6895 13.138 22.0987 12.9139 21.594M12.9139 21.594L12.912 21.5897L12.9046 21.5729L12.8739 21.5023C12.8468 21.4394 12.8067 21.3454 12.7562 21.224C12.6551 20.9812 12.5125 20.6295 12.3487 20.199C12.0202 19.3358 11.6105 18.1665 11.2783 16.9283C10.9437 15.681 10.7006 14.4106 10.6795 13.3319C10.6574 12.208 10.8808 11.5333 11.2071 11.2071C11.5333 10.8808 12.208 10.6574 13.3319 10.6795C14.4106 10.7006 15.681 10.9437 16.9283 11.2783C18.1665 11.6105 19.3358 12.0202 20.199 12.3487C20.6295 12.5125 20.9812 12.6551 21.224 12.7562C21.3454 12.8067 21.4394 12.8468 21.5023 12.8739L21.5729 12.9046L21.5897 12.912L21.5934 12.9136C22.0981 13.1379 22.6895 12.9108 22.9138 12.4061C23.1381 11.9014 22.9108 11.3105 22.4061 11.0862L22 12C22.4061 11.0862 22.4063 11.0863 22.4061 11.0862L22.4033 11.0849L22.3972 11.0822L22.3753 11.0726L22.2942 11.0374C22.2241 11.0072 22.1223 10.9638 21.9927 10.9098C21.7336 10.8019 21.3627 10.6515 20.9103 10.4794C20.0079 10.136 18.771 9.70196 17.4466 9.34663C16.2475 9.02493 14.9376 8.75694 13.7214 8.69266L15.7065 6.70757M4.6501 16.2401C4.6668 16.2596 4.68436 16.2786 4.70281 16.297C4.72128 16.3155 4.74029 16.3331 4.75979 16.3498C4.90954 16.5246 5 16.7518 5 17C5 17.5523 4.55228 18 4 18C3.44772 18 3 17.5523 3 17C3 16.4477 3.44772 16 4 16C4.2482 16 4.47528 16.0904 4.6501 16.2401Z" fill="currentColor" style="fill="currentColor";fill-opacity:1;"/>
</svg>
