<svg width="24" height="24" viewBox="0 0 24 24" fill="none" xmlns="http://www.w3.org/2000/svg">
<path fill-rule="evenodd" clip-rule="evenodd" d="M2 6C2 5.44772 2.44772 5 3 5H21C21.5523 5 22 5.44772 22 6C22 6.55228 21.5523 7 21 7H3C2.44772 7 2 6.55228 2 6ZM2 12C2 11.4477 2.44772 11 3 11H10C10.5523 11 11 11.4477 11 12C11 12.5523 10.5523 13 10 13H3C2.44772 13 2 12.5523 2 12ZM17 13C15.8954 13 15 13.8954 15 15C15 16.1046 15.8954 17 17 17C17.4802 17 17.9209 16.8308 18.2656 16.5487C18.3021 16.4937 18.3445 16.4415 18.393 16.393C18.4415 16.3445 18.4937 16.3021 18.5487 16.2656C18.8308 15.9209 19 15.4802 19 15C19 13.8954 18.1046 13 17 13ZM20.4462 17.032C20.7981 16.4365 21 15.7418 21 15C21 12.7909 19.2091 11 17 11C14.7909 11 13 12.7909 13 15C13 17.2091 14.7909 19 17 19C17.7418 19 18.4365 18.7981 19.032 18.4462L20.293 19.7072C20.6835 20.0977 21.3167 20.0977 21.7072 19.7072C22.0977 19.3167 22.0977 18.6835 21.7072 18.293L20.4462 17.032ZM2 18C2 17.4477 2.44772 17 3 17H10C10.5523 17 11 17.4477 11 18C11 18.5523 10.5523 19 10 19H3C2.44772 19 2 18.5523 2 18Z" fill="black" style="fill:black;fill-opacity:1;"/>
</svg>
