<svg width="24" height="24" viewBox="0 0 24 24" fill="none" xmlns="http://www.w3.org/2000/svg">
<path fill-rule="evenodd" clip-rule="evenodd" d="M2 6C2 5.44772 2.44772 5 3 5H17C17.5523 5 18 5.44772 18 6C18 6.55228 17.5523 7 17 7H3C2.44772 7 2 6.55228 2 6ZM3 11C3.55228 11 4 11.4477 4 12V18C4 18.5523 3.55228 19 3 19C2.44772 19 2 18.5523 2 18V12C2 11.4477 2.44772 11 3 11ZM7 12C7 11.4477 7.44772 11 8 11H21C21.5523 11 22 11.4477 22 12C22 12.5523 21.5523 13 21 13H8C7.44772 13 7 12.5523 7 12ZM7 18C7 17.4477 7.44772 17 8 17H21C21.5523 17 22 17.4477 22 18C22 18.5523 21.5523 19 21 19H8C7.44772 19 7 18.5523 7 18Z" fill="currentColor" style="fill="currentColor";fill-opacity:1;"/>
</svg>
