<svg width="24" height="24" viewBox="0 0 24 24" fill="none" xmlns="http://www.w3.org/2000/svg">
<path fill-rule="evenodd" clip-rule="evenodd" d="M12 3C11.7348 3 11.4804 3.10536 11.2929 3.29289C11.1054 3.48043 11 3.73478 11 4V14.54C11 14.8973 10.8094 15.2274 10.5 15.406C9.92808 15.7362 9.48109 16.2459 9.22836 16.8561C8.97564 17.4662 8.9313 18.1427 9.10222 18.7806C9.27315 19.4185 9.64979 19.9821 10.1737 20.3842C10.6977 20.7862 11.3396 21.0041 12 21.0041C12.6604 21.0041 13.3024 20.7862 13.8263 20.3842C14.3502 19.9821 14.7269 19.4185 14.8978 18.7806C15.0687 18.1427 15.0244 17.4662 14.7716 16.8561C14.5189 16.2459 14.0719 15.7362 13.5 15.406C13.1906 15.2274 13 14.8973 13 14.54V4C13 3.73478 12.8946 3.48043 12.7071 3.29289C12.5196 3.10536 12.2652 3 12 3ZM9.87868 1.87868C10.4413 1.31607 11.2044 1 12 1C12.7957 1 13.5587 1.31607 14.1213 1.87868C14.6839 2.44129 15 3.20435 15 4V14.0041C15.7141 14.5397 16.275 15.2592 16.6194 16.0907C17.0406 17.1076 17.1145 18.235 16.8296 19.2982C16.5448 20.3614 15.917 21.3008 15.0438 21.9709C14.1706 22.6409 13.1007 23.0041 12 23.0041C10.8993 23.0041 9.82942 22.6409 8.9562 21.9709C8.08297 21.3008 7.45525 20.3614 7.17037 19.2982C6.8855 18.235 6.9594 17.1076 7.3806 16.0907C7.725 15.2592 8.28585 14.5397 9 14.0041V4C9 3.20435 9.31607 2.44129 9.87868 1.87868Z" fill="currentColor" style="fill="currentColor";fill-opacity:1;"/>
</svg>
