<svg width="24" height="24" viewBox="0 0 24 24" fill="none" xmlns="http://www.w3.org/2000/svg">
<path fill-rule="evenodd" clip-rule="evenodd" d="M18 3C17.7348 3 17.4804 3.10536 17.2929 3.29289C17.1054 3.48043 17 3.73478 17 4V14.54C17 14.8973 16.8094 15.2274 16.5 15.406C15.9281 15.7362 15.4811 16.2459 15.2284 16.8561C14.9756 17.4662 14.9313 18.1427 15.1022 18.7806C15.2731 19.4185 15.6498 19.9821 16.1737 20.3842C16.6976 20.7862 17.3396 21.0041 18 21.0041C18.6604 21.0041 19.3024 20.7862 19.8263 20.3842C20.3502 19.9821 20.7269 19.4185 20.8978 18.7806C21.0687 18.1427 21.0244 17.4662 20.7716 16.8561C20.5189 16.2459 20.0719 15.7362 19.5 15.406C19.1906 15.2274 19 14.8973 19 14.54V4C19 3.73478 18.8946 3.48043 18.7071 3.29289C18.5196 3.10536 18.2652 3 18 3ZM15.8787 1.87868C16.4413 1.31607 17.2044 1 18 1C18.7957 1 19.5587 1.31607 20.1213 1.87868C20.6839 2.44129 21 3.20435 21 4V14.0041C21.7141 14.5397 22.275 15.2592 22.6194 16.0907C23.0406 17.1076 23.1145 18.235 22.8296 19.2982C22.5448 20.3614 21.917 21.3008 21.0438 21.9709C20.1706 22.6409 19.1007 23.0041 18 23.0041C16.8993 23.0041 15.8294 22.6409 14.9562 21.9709C14.083 21.3008 13.4552 20.3614 13.1704 19.2982C12.8855 18.235 12.9594 17.1076 13.3806 16.0907C13.725 15.2592 14.2859 14.5397 15 14.0041V4C15 3.20435 15.3161 2.44129 15.8787 1.87868ZM12 2C12.5523 2 13 2.44772 13 3V5C13 5.55228 12.5523 6 12 6C11.4477 6 11 5.55228 11 5V3C11 2.44772 11.4477 2 12 2ZM4.22295 5.22283C4.61347 4.8323 5.24664 4.8323 5.63716 5.22283L7.04716 6.63283C7.43769 7.02335 7.43769 7.65651 7.04716 8.04704C6.65664 8.43756 6.02347 8.43756 5.63295 8.04704L4.22295 6.63704C3.83242 6.24651 3.83242 5.61335 4.22295 5.22283ZM8.92141 9.01016C9.81143 8.33771 10.9008 7.98219 12.0161 8.00016C12.5683 8.00906 13.0088 8.46393 12.9999 9.01614C12.991 9.56836 12.5361 10.0088 11.9839 9.9999C11.3147 9.98912 10.6611 10.2024 10.1271 10.6059C9.59305 11.0094 9.2093 11.5798 9.03684 12.2265C8.86439 12.8732 8.91315 13.559 9.17535 14.1748C9.43756 14.7906 9.89816 15.301 10.4839 15.6249C10.9672 15.8921 11.1424 16.5006 10.8751 16.9839C10.6079 17.4672 9.99943 17.6424 9.51611 17.3752C8.53991 16.8354 7.77224 15.9847 7.33523 14.9583C6.89821 13.932 6.81695 12.789 7.10437 11.7112C7.3918 10.6334 8.03139 9.68261 8.92141 9.01016ZM1 13C1 12.4477 1.44772 12 2 12H4C4.55228 12 5 12.4477 5 13C5 13.5523 4.55228 14 4 14H2C1.44772 14 1 13.5523 1 13ZM7.30706 17.6928C7.69758 18.0833 7.69758 18.7165 7.30706 19.107L5.90706 20.507C5.51653 20.8975 4.88337 20.8975 4.49284 20.507C4.10232 20.1165 4.10232 19.4833 4.49284 19.0928L5.89284 17.6928C6.28337 17.3023 6.91653 17.3023 7.30706 17.6928Z" fill="currentColor" style="fill="currentColor";fill-opacity:1;"/>
</svg>
