<svg width="24" height="24" viewBox="0 0 24 24" fill="none" xmlns="http://www.w3.org/2000/svg">
<path fill-rule="evenodd" clip-rule="evenodd" d="M18 3C17.7348 3 17.4804 3.10536 17.2929 3.29289C17.1054 3.48043 17 3.73478 17 4V14.54C17 14.8973 16.8094 15.2274 16.5 15.406C15.9281 15.7362 15.4811 16.2459 15.2284 16.8561C14.9756 17.4662 14.9313 18.1427 15.1022 18.7806C15.2731 19.4185 15.6498 19.9821 16.1737 20.3842C16.6976 20.7862 17.3396 21.0041 18 21.0041C18.6604 21.0041 19.3024 20.7862 19.8263 20.3842C20.3502 19.9821 20.7269 19.4185 20.8978 18.7806C21.0687 18.1427 21.0244 17.4662 20.7716 16.8561C20.5189 16.2459 20.0719 15.7362 19.5 15.406C19.1906 15.2274 19 14.8973 19 14.54V4C19 3.73478 18.8946 3.48043 18.7071 3.29289C18.5196 3.10536 18.2652 3 18 3ZM15.8787 1.87868C16.4413 1.31607 17.2044 1 18 1C18.7957 1 19.5587 1.31607 20.1213 1.87868C20.6839 2.44129 21 3.20435 21 4V14.0041C21.7141 14.5397 22.275 15.2592 22.6194 16.0907C23.0406 17.1076 23.1145 18.235 22.8296 19.2982C22.5448 20.3614 21.917 21.3008 21.0438 21.9709C20.1706 22.6409 19.1007 23.0041 18 23.0041C16.8993 23.0041 15.8294 22.6409 14.9562 21.9709C14.083 21.3008 13.4552 20.3614 13.1704 19.2982C12.8855 18.235 12.9594 17.1076 13.3806 16.0907C13.725 15.2592 14.2859 14.5397 15 14.0041V4C15 3.20435 15.3161 2.44129 15.8787 1.87868ZM9 3C9.55228 3 10 3.44772 10 4V6.58579L11.2929 5.29289C11.6834 4.90237 12.3166 4.90237 12.7071 5.29289C13.0976 5.68342 13.0976 6.31658 12.7071 6.70711L10 9.41421V11H12C12.5523 11 13 11.4477 13 12C13 12.5523 12.5523 13 12 13H10V14.5858L11.2071 15.7929C11.5976 16.1834 11.5976 16.8166 11.2071 17.2071C10.8799 17.5343 10.3824 17.5874 10 17.3663V20C10 20.5523 9.55228 21 9 21C8.44772 21 8 20.5523 8 20V17.4142L6.70711 18.7071C6.31658 19.0976 5.68342 19.0976 5.29289 18.7071C4.90237 18.3166 4.90237 17.6834 5.29289 17.2929L8 14.5858V13H6.41421L3.70711 15.7071C3.31658 16.0976 2.68342 16.0976 2.29289 15.7071C1.90237 15.3166 1.90237 14.6834 2.29289 14.2929L3.58579 13H2C1.44772 13 1 12.5523 1 12C1 11.4477 1.44772 11 2 11H3.58579L2.29289 9.70711C1.90237 9.31658 1.90237 8.68342 2.29289 8.29289C2.68342 7.90237 3.31658 7.90237 3.70711 8.29289L6.41421 11H8V9.41421L5.29289 6.70711C4.90237 6.31658 4.90237 5.68342 5.29289 5.29289C5.68342 4.90237 6.31658 4.90237 6.70711 5.29289L8 6.58579V4C8 3.44772 8.44772 3 9 3Z" fill="currentColor" style="fill="currentColor";fill-opacity:1;"/>
</svg>
