<svg width="24" height="24" viewBox="0 0 24 24" fill="none" xmlns="http://www.w3.org/2000/svg">
<path fill-rule="evenodd" clip-rule="evenodd" d="M12 5C6.87088 5 3 8.50408 3 12.5C3 16.4959 6.87088 20 12 20C17.1291 20 21 16.4959 21 12.5C21 8.50408 17.1291 5 12 5ZM1 12.5C1 7.10707 6.08342 3 12 3C17.9166 3 23 7.10707 23 12.5C23 17.8929 17.9166 22 12 22C6.08342 22 1 17.8929 1 12.5ZM10.4334 10.4178C10.0693 10.6606 10 10.8861 10 11C10 11.1139 10.0693 11.3394 10.4334 11.5822C10.7905 11.8202 11.3415 12 12 12C12.6585 12 13.2095 11.8202 13.5666 11.5822C13.9307 11.3394 14 11.1139 14 11C14 10.8861 13.9307 10.6606 13.5666 10.4178C13.2095 10.1798 12.6585 10 12 10C11.3415 10 10.7905 10.1798 10.4334 10.4178ZM9.32398 8.75374C10.0526 8.26796 11.0017 8 12 8C12.9983 8 13.9474 8.26796 14.676 8.75374C15.3977 9.23485 16 10.0093 16 11C16 11.9907 15.3977 12.7651 14.676 13.2463C13.9474 13.732 12.9983 14 12 14C11.0017 14 10.0526 13.732 9.32398 13.2463C8.6023 12.7651 8 11.9907 8 11C8 10.0093 8.6023 9.23485 9.32398 8.75374Z" fill="currentColor" style="fill="currentColor";fill-opacity:1;"/>
</svg>
