<svg width="24" height="24" viewBox="0 0 24 24" fill="none" xmlns="http://www.w3.org/2000/svg">
<path fill-rule="evenodd" clip-rule="evenodd" d="M1.29289 1.29289C1.68342 0.902369 2.31658 0.902369 2.70711 1.29289L22.7071 21.2929C23.0976 21.6834 23.0976 22.3166 22.7071 22.7071C22.3166 23.0976 21.6834 23.0976 21.2929 22.7071L19.5858 21H4C3.20435 21 2.44129 20.6839 1.87868 20.1213C1.31607 19.5587 1 18.7957 1 18V6C1 5.20435 1.31607 4.44129 1.87868 3.87868C1.97723 3.78013 2.08193 3.68914 2.19188 3.6061L1.29289 2.70711C0.902369 2.31658 0.902369 1.68342 1.29289 1.29289ZM3.6493 5.06351C3.51673 5.11316 3.39492 5.19087 3.29289 5.29289C3.10536 5.48043 3 5.73478 3 6V13H11.5858L3.6493 5.06351ZM11 15H3V18C3 18.2652 3.10536 18.5196 3.29289 18.7071C3.48043 18.8946 3.73478 19 4 19H11V15ZM13 19H17.5858L13.5858 15H13V19ZM9 4C9 3.44772 9.44772 3 10 3H20C20.7957 3 21.5587 3.31607 22.1213 3.87868C22.6839 4.44129 23 5.20435 23 6V16C23 16.5523 22.5523 17 22 17C21.4477 17 21 16.5523 21 16V15H20C19.4477 15 19 14.5523 19 14C19 13.4477 19.4477 13 20 13H21V6C21 5.73478 20.8946 5.48043 20.7071 5.29289C20.5196 5.10536 20.2652 5 20 5H10C9.44772 5 9 4.55228 9 4Z" fill="currentColor" style="fill="currentColor";fill-opacity:1;"/>
</svg>
