<svg width="24" height="24" viewBox="0 0 24 24" fill="none" xmlns="http://www.w3.org/2000/svg">
<path fill-rule="evenodd" clip-rule="evenodd" d="M10.1676 1.49189C10.7067 1.06318 11.3797 0.838119 12.0683 0.856239C12.7568 0.87436 13.417 1.1345 13.9329 1.59098C14.4289 2.02995 14.761 2.62351 14.8763 3.27425L16.9422 10.1607C17.0453 10.3212 17.0974 10.5036 17.0998 10.6861L17.3217 11.4256L21.7145 14.0426C22.3456 14.4213 23 15.0878 23 16.0001C23 16.9636 22.2873 17.619 21.4575 17.9913L13.9095 22.4606C13.9016 22.4652 13.8937 22.4698 13.8856 22.4743C12.6836 23.142 11.1164 23.142 9.91436 22.4743C9.90634 22.4698 9.89839 22.4652 9.89051 22.4606L2.29051 17.9606L2.2855 17.9576C1.65442 17.5789 1 16.9124 1 16.0001C1 15.0878 1.65442 14.4213 2.2855 14.0426L2.30188 14.033L6.60826 11.5591L6.91119 10.5493C6.92512 10.4573 6.95195 10.3667 6.99186 10.2804L9.13051 3.15161C9.27563 2.49636 9.64149 1.91022 10.1676 1.49189ZM8.34213 12.7398C8.43277 12.5981 8.48609 12.4357 8.49774 12.2688C9.50723 12.748 10.7302 13 11.9999 13C13.264 13 14.4816 12.7502 15.4885 12.2752L15.9422 13.7874C15.9575 13.8385 15.9768 13.888 15.9999 13.9357C16 13.9538 16 13.9747 16 14.0001C16 14.3718 15.7621 14.8462 15.0373 15.279C14.3224 15.706 13.2581 16.0001 12 16.0001C10.7419 16.0001 9.6776 15.706 8.96274 15.279C8.23792 14.8462 8 14.3718 8 14.0001C8 13.9475 8.00008 13.9131 8.00107 13.8813C8.00194 13.8537 8.0033 13.8369 8.00448 13.8266C8.02569 13.7816 8.04353 13.7351 8.05783 13.6874L8.34213 12.7398ZM6.00732 14.2109C6.09294 15.4371 6.91965 16.3884 7.93726 16.9961C9.0224 17.6442 10.4581 18.0001 12 18.0001C13.5419 18.0001 14.9776 17.6442 16.0627 16.9961C17.0956 16.3793 17.9319 15.4084 17.996 14.1554L20.6855 15.7576C20.6859 15.7578 20.6863 15.7581 20.6867 15.7583C20.8255 15.8418 20.9118 15.9205 20.9602 15.9776C20.9016 16.0273 20.7932 16.1008 20.6061 16.181C20.5663 16.198 20.5277 16.2176 20.4905 16.2396L12.9037 20.7318C12.3101 21.0562 11.4899 21.0562 10.8963 20.7318L3.3145 16.2426C3.31374 16.2421 3.31298 16.2417 3.31222 16.2412C3.15478 16.1464 3.06519 16.0579 3.02178 16.0001C3.06473 15.9429 3.15291 15.8556 3.30729 15.7619L6.00732 14.2109ZM2.99402 15.9556C2.99405 15.9556 2.99425 15.956 2.99457 15.957L2.99402 15.9556ZM2.99459 16.0431C2.99426 16.0441 2.99405 16.0446 2.99402 16.0446L2.99459 16.0431ZM21.006 16.0446C21.006 16.0447 21.0058 16.0442 21.0054 16.0432L21.006 16.0446ZM14.904 10.3269C14.2002 10.7257 13.1899 11 11.9999 11C10.7955 11 9.77518 10.719 9.07036 10.3123L9.86579 7.66087C10.5381 7.94093 11.2631 8.08764 12 8.08764C12.7273 8.08764 13.4428 7.9448 14.1075 7.67195L14.904 10.3269ZM13.5285 5.74177L12.9422 3.78743C12.9285 3.7417 12.918 3.69504 12.911 3.64782C12.8787 3.43159 12.7712 3.23364 12.6075 3.08876C12.4438 2.94387 12.2342 2.8613 12.0156 2.85555C11.7971 2.8498 11.5835 2.92123 11.4124 3.05731C11.2412 3.19338 11.1235 3.3854 11.0799 3.59964C11.0739 3.62922 11.0665 3.65851 11.0578 3.68743L10.4453 5.7291C10.9271 5.96381 11.4585 6.08764 12 6.08764C12.5317 6.08764 13.0536 5.96827 13.5285 5.74177Z" fill="currentColor" style="fill="currentColor";fill-opacity:1;"/>
</svg>
