<svg width="24" height="24" viewBox="0 0 24 24" fill="none" xmlns="http://www.w3.org/2000/svg">
<path fill-rule="evenodd" clip-rule="evenodd" d="M13.2929 1.29289C13.6834 0.902369 14.3166 0.902369 14.7071 1.29289L15.5 2.08579L16.2929 1.29289C16.6834 0.902369 17.3166 0.902369 17.7071 1.29289C18.0976 1.68342 18.0976 2.31658 17.7071 2.70711L16.9142 3.5L20.5 7.08579L21.2929 6.29289C21.6834 5.90237 22.3166 5.90237 22.7071 6.29289C23.0976 6.68342 23.0976 7.31658 22.7071 7.70711L21.9142 8.5L22.7071 9.29289C23.0976 9.68342 23.0976 10.3166 22.7071 10.7071C22.3166 11.0976 21.6834 11.0976 21.2929 10.7071L20.5 9.91421L18.9142 11.5L19.7071 12.2929C20.0976 12.6834 20.0976 13.3166 19.7071 13.7071C19.3166 14.0976 18.6834 14.0976 18.2929 13.7071L17.5 12.9142L15.9142 14.5L16.7071 15.2929C17.0976 15.6834 17.0976 16.3166 16.7071 16.7071C16.3166 17.0976 15.6834 17.0976 15.2929 16.7071L14.5 15.9142L12.9142 17.5L13.7071 18.2929C14.0976 18.6834 14.0976 19.3166 13.7071 19.7071C13.3166 20.0976 12.6834 20.0976 12.2929 19.7071L11.5 18.9142L9.91421 20.5L10.7071 21.2929C11.0976 21.6834 11.0976 22.3166 10.7071 22.7071C10.3166 23.0976 9.68342 23.0976 9.29289 22.7071L8.5 21.9142L7.70711 22.7071C7.31658 23.0976 6.68342 23.0976 6.29289 22.7071C5.90237 22.3166 5.90237 21.6834 6.29289 21.2929L7.08579 20.5L3.5 16.9142L2.70711 17.7071C2.31658 18.0976 1.68342 18.0976 1.29289 17.7071C0.902369 17.3166 0.902369 16.6834 1.29289 16.2929L2.08579 15.5L1.29289 14.7071C0.902369 14.3166 0.902369 13.6834 1.29289 13.2929C1.68342 12.9024 2.31658 12.9024 2.70711 13.2929L3.5 14.0858L5.08579 12.5L4.29289 11.7071C3.90237 11.3166 3.90237 10.6834 4.29289 10.2929C4.68342 9.90237 5.31658 9.90237 5.70711 10.2929L6.5 11.0858L8.08579 9.5L7.29289 8.70711C6.90237 8.31658 6.90237 7.68342 7.29289 7.29289C7.68342 6.90237 8.31658 6.90237 8.70711 7.29289L9.5 8.08579L11.0858 6.5L10.2929 5.70711C9.90237 5.31658 9.90237 4.68342 10.2929 4.29289C10.6834 3.90237 11.3166 3.90237 11.7071 4.29289L12.5 5.08579L14.0858 3.5L13.2929 2.70711C12.9024 2.31658 12.9024 1.68342 13.2929 1.29289ZM15.5 4.91421L13.9142 6.5L17.5 10.0858L19.0858 8.5L15.5 4.91421ZM16.0858 11.5L12.5 7.91421L10.9142 9.5L14.5 13.0858L16.0858 11.5ZM13.0858 14.5L9.5 10.9142L7.91421 12.5L11.5 16.0858L13.0858 14.5ZM10.0858 17.5L6.5 13.9142L4.91421 15.5L8.5 19.0858L10.0858 17.5Z" fill="black" style="fill:black;fill-opacity:1;"/>
</svg>
