<svg width="24" height="24" viewBox="0 0 24 24" fill="none" xmlns="http://www.w3.org/2000/svg">
<path fill-rule="evenodd" clip-rule="evenodd" d="M9 3.67544V7.0001C9 7.79575 9.31607 8.55881 9.87868 9.12142C10.4413 9.68403 11.2043 10.0001 12 10.0001C12.7956 10.0001 13.5587 9.68403 14.1213 9.12142C14.6839 8.55881 15 7.79575 15 7.0001V3.67544C14.0711 3.23487 13.0477 3 12 3C10.9523 3 9.92886 3.23487 9 3.67544ZM17 5.10102V7.0001C17 8.32618 16.4732 9.59795 15.5355 10.5356C14.5979 11.4733 13.3261 12.0001 12 12.0001C10.6739 12.0001 9.40215 11.4733 8.46447 10.5356C7.52678 9.59795 7 8.32618 7 7.0001V5.10102C5.71869 6.40872 5 8.16731 5 10V14C5 16.2477 6.75228 18 9 18H15C17.2477 18 19 16.2477 19 14V10C19 8.16731 18.2813 6.40871 17 5.10102ZM5.63604 3.63604C7.32387 1.94821 9.61305 1 12 1C14.3869 1 16.6761 1.94821 18.364 3.63604C20.0518 5.32387 21 7.61305 21 10V14C21 16.4517 19.5838 18.5266 17.5115 19.4644L18.8321 21.4453C19.1384 21.9048 19.0142 22.5257 18.5547 22.8321C18.0952 23.1384 17.4743 23.0142 17.1679 22.5547L15.4539 19.9837C15.3042 19.9945 15.1528 20 15 20H9C8.84716 20 8.69579 19.9945 8.54607 19.9837L6.83205 22.5547C6.5257 23.0142 5.90483 23.1384 5.4453 22.8321C4.98577 22.5257 4.8616 21.9048 5.16795 21.4453L6.48853 19.4644C4.41622 18.5266 3 16.4517 3 14V10C3 7.61305 3.94821 5.32387 5.63604 3.63604ZM8.70711 13.2929L9.70711 14.2929C10.0976 14.6834 10.0976 15.3166 9.70711 15.7071C9.31658 16.0976 8.68342 16.0976 8.29289 15.7071L7.29289 14.7071C6.90237 14.3166 6.90237 13.6834 7.29289 13.2929C7.68342 12.9024 8.31658 12.9024 8.70711 13.2929ZM15.2929 13.2929C15.6834 12.9024 16.3166 12.9024 16.7071 13.2929C17.0976 13.6834 17.0976 14.3166 16.7071 14.7071L15.7071 15.7071C15.3166 16.0976 14.6834 16.0976 14.2929 15.7071C13.9024 15.3166 13.9024 14.6834 14.2929 14.2929L15.2929 13.2929Z" fill="currentColor" style="fill="currentColor";fill-opacity:1;"/>
</svg>
