<svg width="24" height="24" viewBox="0 0 24 24" fill="none" xmlns="http://www.w3.org/2000/svg">
<path fill-rule="evenodd" clip-rule="evenodd" d="M11.9999 4C11.4695 4 10.9608 4.21071 10.5857 4.58579C10.2106 4.96086 9.99993 5.46957 9.99993 6V6.03C9.99993 6.32052 9.87359 6.59667 9.65378 6.78663C9.43396 6.97658 9.14241 7.06155 8.85496 7.01944C8.35835 6.94667 7.85133 7.02508 7.3999 7.24444C6.94846 7.4638 6.5735 7.81397 6.32382 8.24937C6.07414 8.68478 5.96129 9.18525 5.99997 9.68567C6.03865 10.1861 6.22705 10.6633 6.54067 11.0552C6.71543 11.2735 6.79076 11.5551 6.74839 11.8315C6.70602 12.1079 6.54982 12.354 6.31769 12.51C5.78358 12.8689 5.37903 13.3901 5.16378 13.9965C4.94853 14.6029 4.93398 15.2625 5.12228 15.8779C5.31058 16.4932 5.69175 17.0317 6.20951 17.4138C6.72727 17.7959 7.35419 18.0014 7.99769 18L7.99993 18L15.9985 18C15.9983 18 15.9987 18 15.9985 18C16.6397 17.9989 17.2643 17.7925 17.7795 17.4108C18.295 17.0291 18.6745 16.4922 18.8624 15.879C19.0503 15.2657 19.0368 14.6083 18.8237 14.0034C18.6106 13.3984 18.2092 12.8776 17.6785 12.5175C17.4477 12.3609 17.2928 12.1151 17.2511 11.8393C17.2095 11.5635 17.2849 11.2829 17.4592 11.0652C17.7728 10.6733 17.9612 10.1961 17.9999 9.69567C18.0386 9.19525 17.9257 8.69478 17.676 8.25937C17.4264 7.82397 17.0514 7.4738 16.6 7.25444C16.1485 7.03508 15.6415 6.95667 15.1449 7.02944C14.8574 7.07155 14.5659 6.98658 14.3461 6.79663C14.1263 6.60667 13.9999 6.33052 13.9999 6.04V6C13.9999 5.46957 13.7892 4.96086 13.4141 4.58579C13.0391 4.21071 12.5304 4 11.9999 4ZM11 20V22C11 22.5523 11.4477 23 12 23C12.5523 23 13 22.5523 13 22V20H15.9999L16.0014 20C17.0704 19.9984 18.1108 19.6543 18.9698 19.0181C19.8289 18.3818 20.4615 17.487 20.7747 16.4649C21.0879 15.4428 21.0652 14.3472 20.7101 13.3389C20.4633 12.6383 20.0651 12.0055 19.5482 11.4832C19.7975 10.9745 19.9498 10.4205 19.9939 9.84979C20.0636 8.94903 19.8604 8.04818 19.411 7.26445C18.9616 6.48073 18.2867 5.85043 17.4741 5.45557C16.9709 5.21106 16.4293 5.06384 15.8776 5.01829C15.7021 4.32522 15.3424 3.68564 14.8284 3.17157C14.0782 2.42143 13.0608 2 11.9999 2C10.9391 2 9.92165 2.42143 9.1715 3.17157C8.65996 3.68311 8.30128 4.31894 8.12486 5.00807C7.57224 5.05338 7.02977 5.20067 6.52579 5.44557C5.7132 5.84043 5.03828 6.47073 4.58885 7.25445C4.13942 8.03818 3.9363 8.93903 4.00592 9.83979C4.04993 10.4093 4.20168 10.9621 4.45001 11.4699C3.92967 11.9918 3.52821 12.6254 3.27899 13.3275C2.92023 14.3382 2.89598 15.4375 3.20982 16.4631C3.52365 17.4887 4.15893 18.3861 5.02187 19.023C5.88457 19.6597 6.92909 20.0022 8.00128 20H7.99993V19L8.00128 20" fill="currentColor" style="fill="currentColor";fill-opacity:1;"/>
</svg>
