<svg width="24" height="24" viewBox="0 0 24 24" fill="none" xmlns="http://www.w3.org/2000/svg">
<path fill-rule="evenodd" clip-rule="evenodd" d="M1.29289 6.29289C1.68342 5.90237 2.31658 5.90237 2.70711 6.29289L8.5 12.0858L12.7929 7.79289C13.1834 7.40237 13.8166 7.40237 14.2071 7.79289L21 14.5858V11C21 10.4477 21.4477 10 22 10C22.5523 10 23 10.4477 23 11V17C23 17.5523 22.5523 18 22 18H16C15.4477 18 15 17.5523 15 17C15 16.4477 15.4477 16 16 16H19.5858L13.5 9.91421L9.20711 14.2071C8.81658 14.5976 8.18342 14.5976 7.79289 14.2071L1.29289 7.70711C0.902369 7.31658 0.902369 6.68342 1.29289 6.29289Z" fill="currentColor" style="fill="currentColor";fill-opacity:1;"/>
</svg>
