<svg width="24" height="24" viewBox="0 0 24 24" fill="none" xmlns="http://www.w3.org/2000/svg">
<path fill-rule="evenodd" clip-rule="evenodd" d="M21 5.10089L3.81915 19H20C20.2652 19 20.5196 18.8947 20.7071 18.7071C20.8947 18.5196 21 18.2652 21 18V5.10089ZM21.9363 3.05796C22.7781 3.42397 23 4.31011 23 5.00003V18C23 18.7957 22.684 19.5587 22.1213 20.1213C21.5587 20.684 20.7957 21 20 21H3.00003C2.64785 21 2.28373 20.9539 1.95844 20.8168C1.62862 20.6778 1.25035 20.401 1.09644 19.9137C0.944844 19.4336 1.08894 18.994 1.26532 18.693C1.44051 18.3939 1.69735 18.1363 1.97802 17.917L19.7711 3.52258L19.7861 3.51067C20.3275 3.08954 21.1338 2.70905 21.9363 3.05796Z" fill="black" style="fill:black;fill-opacity:1;"/>
</svg>
