<svg width="24" height="24" viewBox="0 0 24 24" fill="none" xmlns="http://www.w3.org/2000/svg">
<path fill-rule="evenodd" clip-rule="evenodd" d="M10.5027 2.40393C10.9581 2.14161 11.4745 2.00354 12 2.00354C12.5256 2.00354 13.0419 2.14161 13.4974 2.40393C13.9528 2.66625 14.3313 3.04361 14.595 3.49822L14.5983 3.50385L22.5961 17.5C22.5964 17.5006 22.5967 17.5011 22.597 17.5017C22.8596 17.9571 22.9978 18.4735 22.998 18.9992C22.9981 19.5256 22.8598 20.0427 22.5968 20.4987C22.3339 20.9546 21.9556 21.3334 21.5 21.5969C21.0443 21.8604 20.5274 21.9995 20.001 22H3.999C3.47265 21.9995 2.95571 21.8604 2.50008 21.5969C2.04445 21.3334 1.66617 20.9546 1.40323 20.4987C1.14029 20.0427 1.00194 19.5256 1.00208 18.9992C1.00221 18.4737 1.14041 17.9574 1.40283 17.502C1.40322 17.5014 1.40361 17.5007 1.404 17.5L9.40501 3.49821C9.66872 3.0436 10.0473 2.66625 10.5027 2.40393ZM12 4.00354C11.8248 4.00354 11.6527 4.04956 11.5009 4.137C11.3499 4.22399 11.2242 4.34893 11.1364 4.49941L3.13606 18.5C3.04833 18.6519 3.00212 18.8243 3.00208 18.9997C3.00203 19.1752 3.04815 19.3476 3.13579 19.4996C3.22344 19.6515 3.34953 19.7778 3.50141 19.8656C3.65328 19.9535 3.8256 19.9998 4.00105 20H19.999C20.1744 19.9998 20.3468 19.9535 20.4986 19.8656C20.6505 19.7778 20.7766 19.6515 20.8643 19.4996C20.9519 19.3476 20.998 19.1752 20.998 18.9997C20.9979 18.8243 20.9517 18.6519 20.864 18.5L20.8618 18.4961L12.865 4.50177C12.8646 4.50098 12.8641 4.5002 12.8637 4.49941C12.7758 4.34893 12.6502 4.22399 12.4991 4.137C12.3473 4.04956 12.1752 4.00354 12 4.00354Z" fill="black" style="fill:black;fill-opacity:1;"/>
</svg>
