<svg width="24" height="24" viewBox="0 0 24 24" fill="none" xmlns="http://www.w3.org/2000/svg">
<path fill-rule="evenodd" clip-rule="evenodd" d="M1.87868 3.87868C2.44129 3.31607 3.20435 3 4 3H12C12.7956 3 13.5587 3.31607 14.1213 3.87868C14.6839 4.44129 15 5.20435 15 6V18C15 18.5523 14.5523 19 14 19H9.82929C9.41746 20.1652 8.30622 21 7 21C5.69378 21 4.58254 20.1652 4.17071 19H3C2.46957 19 1.96086 18.7893 1.58579 18.4142C1.21071 18.0391 1 17.5304 1 17V6C1 5.20435 1.31607 4.44129 1.87868 3.87868ZM4.17071 17C4.58254 15.8348 5.69378 15 7 15C8.30622 15 9.41746 15.8348 9.82929 17H13V6C13 5.73478 12.8946 5.48043 12.7071 5.29289C12.5196 5.10536 12.2652 5 12 5H4C3.73478 5 3.48043 5.10536 3.29289 5.29289C3.10536 5.48043 3 5.73478 3 6V17H4.17071ZM7 17C6.44772 17 6 17.4477 6 18C6 18.5523 6.44772 19 7 19C7.55228 19 8 18.5523 8 18C8 17.4477 7.55228 17 7 17Z" fill="currentColor" style="fill="currentColor";fill-opacity:1;"/>
<path fill-rule="evenodd" clip-rule="evenodd" d="M13 8C13 7.44772 13.4477 7 14 7H17.5214C17.8212 7.00043 18.117 7.06823 18.387 7.1984C18.6568 7.32843 18.8939 7.51739 19.0809 7.75131L22.56 12.1002C22.5599 12.1001 22.5601 12.1003 22.56 12.1002C22.8438 12.4542 22.9992 12.8945 23 13.3482L23 13.35L23 17C23 17.5304 22.7893 18.0391 22.4142 18.4142C22.0391 18.7893 21.5304 19 21 19H19.8293C19.4175 20.1652 18.3062 21 17 21C15.6887 21 14.5738 20.1586 14.1659 18.9863C14.1119 18.9953 14.0565 19 14 19C13.4477 19 13 18.5523 13 18V8ZM15 15.7639C15.5308 15.2889 16.2316 15 17 15C18.3062 15 19.4175 15.8348 19.8293 17H21V13.3518L17.5191 9.0007L15 9V15.7639ZM17 17C16.4477 17 16 17.4477 16 18C16 18.5523 16.4477 19 17 19C17.5523 19 18 18.5523 18 18C18 17.4477 17.5523 17 17 17Z" fill="currentColor" style="fill="currentColor";fill-opacity:1;"/>
</svg>
