<svg width="24" height="24" viewBox="0 0 24 24" fill="none" xmlns="http://www.w3.org/2000/svg">
<path fill-rule="evenodd" clip-rule="evenodd" d="M14.4995 5.36183C13.3847 5.94264 12.6281 7.15858 12.9778 8.79045C13.04 9.0807 12.97 9.38359 12.7868 9.61716C12.6036 9.85072 12.3261 9.99082 12.0294 9.99955C8.85318 10.093 5.68311 8.90754 3.33181 6.77791C2.17211 10.5584 4.34459 14.8593 8.28731 16.0422C8.63583 16.1467 8.90006 16.4323 8.97722 16.7879C9.05438 17.1435 8.93231 17.5129 8.65847 17.7526C7.72707 18.5675 6.62528 19.167 5.4446 19.5424C12.655 21.7458 20.3025 15.6202 19.0125 7.55797C18.9619 7.24134 19.0661 6.91961 19.2929 6.69287C19.474 6.51171 19.6444 6.3078 19.8028 6.09233C19.5441 6.156 19.27 6.19998 19 6.19998C18.7467 6.19998 18.5028 6.10386 18.3176 5.93103C17.1475 4.83891 15.6359 4.76975 14.4995 5.36183ZM22 3.99998C22.9486 4.31621 22.9486 4.31639 22.9485 4.31657L22.9472 4.32051L22.9447 4.32788L22.9366 4.35155C22.9298 4.3712 22.9202 4.39851 22.9078 4.43277C22.883 4.50125 22.8471 4.59771 22.8001 4.71634C22.7065 4.95306 22.5678 5.2811 22.3851 5.65315C22.0841 6.26634 21.6423 7.04363 21.0564 7.72865C22.3641 18.3194 10.6485 25.9318 1.4475 19.8335C1.07276 19.5851 0.909836 19.1172 1.04928 18.6898C1.18873 18.2624 1.59626 17.9806 2.04537 18.001C3.40586 18.0629 4.75224 17.7813 5.91174 17.2016C1.55033 14.7954 -0.367533 9.10199 2.12134 4.52247C2.27896 4.23244 2.56956 4.03888 2.89792 4.0052C3.22629 3.97152 3.55013 4.10205 3.76335 4.35404C5.53198 6.44424 8.16415 7.75898 10.891 7.97358C10.9016 5.98024 12.024 4.39644 13.5754 3.58813C15.2933 2.6931 17.5348 2.74856 19.3143 4.15277C19.4008 4.1318 19.5003 4.10309 19.6125 4.06514C19.8906 3.97114 20.1893 3.84066 20.4726 3.70192C20.7536 3.5643 21.0051 3.42559 21.1868 3.32095C21.2772 3.26888 21.3492 3.22588 21.3976 3.19651C21.4218 3.18184 21.44 3.17061 21.4517 3.16341L21.464 3.1557L21.466 3.15449C21.8233 2.92892 22.2841 2.95219 22.6167 3.21282C22.9494 3.47351 23.0822 3.91559 22.9485 4.31657L22 3.99998Z" fill="currentColor" style="fill="currentColor";fill-opacity:1;"/>
</svg>
