<svg width="24" height="24" viewBox="0 0 24 24" fill="none" xmlns="http://www.w3.org/2000/svg">
<path fill-rule="evenodd" clip-rule="evenodd" d="M3 6C3.55228 6 4 6.44772 4 7V10.7546L5.33231 9.55556C7.16437 7.9124 9.53801 7.00251 11.999 7H12C14.6522 7 17.1957 8.05357 19.0711 9.92893C20.9464 11.8043 22 14.3478 22 17C22 17.5523 21.5523 18 21 18C20.4477 18 20 17.5523 20 17C20 14.8783 19.1571 12.8434 17.6569 11.3431C16.1567 9.84298 14.1221 9.00014 12.0005 9C10.0322 9.00212 8.13375 9.72982 6.6683 11.0439C6.6681 11.0441 6.66851 11.0437 6.6683 11.0439L5.60596 12H9C9.55228 12 10 12.4477 10 13C10 13.5523 9.55228 14 9 14H3C2.44772 14 2 13.5523 2 13V7C2 6.44772 2.44772 6 3 6Z" fill="black" style="fill:black;fill-opacity:1;"/>
</svg>
