<svg width="24" height="24" viewBox="0 0 24 24" fill="none" xmlns="http://www.w3.org/2000/svg">
<path fill-rule="evenodd" clip-rule="evenodd" d="M13.5306 3.30469C12.7171 2.96775 11.8152 2.90865 10.9647 3.13655C10.1142 3.36444 9.36267 3.8666 8.82664 4.56514C8.29061 5.26366 8.00005 6.11954 8 7.00003C8 7.00001 8 7.00004 8 7.00003V9H19C20.6569 9 22 10.3431 22 12V20C22 21.6569 20.6569 23 19 23H5C3.34315 23 2 21.6569 2 20V12C2 10.3431 3.34315 9 5 9H6V7.00003C6.00006 5.67927 6.43591 4.39539 7.23995 3.34758C8.044 2.29977 9.17131 1.54654 10.4471 1.2047C11.7228 0.862855 13.0757 0.951508 14.2959 1.45691C15.5162 1.96231 16.5356 2.85621 17.196 3.99998C17.4722 4.47826 17.3083 5.08986 16.83 5.36603C16.3518 5.64219 15.7402 5.47835 15.464 5.00007C15.0237 4.23755 14.3441 3.64162 13.5306 3.30469ZM6.99261 11H5C4.44772 11 4 11.4477 4 12V20C4 20.5523 4.44772 21 5 21H19C19.5523 21 20 20.5523 20 20V12C20 11.4477 19.5523 11 19 11H7.00739C7.00493 11 7.00246 11 7 11C6.99754 11 6.99507 11 6.99261 11ZM10 16C10 14.8954 10.8954 14 12 14C13.1046 14 14 14.8954 14 16C14 17.1046 13.1046 18 12 18C10.8954 18 10 17.1046 10 16Z" fill="black" style="fill:black;fill-opacity:1;"/>
</svg>
