<svg width="24" height="24" viewBox="0 0 24 24" fill="none" xmlns="http://www.w3.org/2000/svg">
<path fill-rule="evenodd" clip-rule="evenodd" d="M14.3724 3.77435C13.5737 3.18602 12.5849 2.91544 11.598 3.01513C10.6111 3.11482 9.69637 3.57768 9.0315 4.31384C8.36663 5.04999 7.999 6.00694 8 6.9989L8 10H19C20.6569 10 22 11.3431 22 13V20C22 21.6569 20.6569 23 19 23H5C3.34315 23 2 21.6569 2 20V13C2 11.3431 3.34315 10 5 10H6V7.00042M5 12C4.44772 12 4 12.4477 4 13V20C4 20.5523 4.44772 21 5 21H19C19.5523 21 20 20.5523 20 20V13C20 12.4477 19.5523 12 19 12H5Z" fill="currentColor" style="fill="currentColor";fill-opacity:1;"/>
</svg>
