<svg width="24" height="24" viewBox="0 0 24 24" fill="none" xmlns="http://www.w3.org/2000/svg">
<path fill-rule="evenodd" clip-rule="evenodd" d="M21.7071 2.29292C21.9749 2.56075 22.0685 2.95692 21.9487 3.31625L20.9487 6.31625C20.8391 6.64505 20.5671 6.89365 20.2298 6.97328C19.8924 7.0529 19.538 6.9522 19.2929 6.70713L19 6.41422L11.7794 13.6348L14.7592 14.8267L17.1166 12.4692C16.9157 12.0912 16.9744 11.6114 17.2929 11.2929L18.2929 10.2929C18.6834 9.9024 19.3166 9.9024 19.7071 10.2929L20.7071 11.2929C21.0976 11.6834 21.0976 12.3166 20.7071 12.7071L19.7071 13.7071C19.3886 14.0256 18.9088 14.0844 18.5308 13.8834L15.7071 16.7071C15.4242 16.99 15 17.0771 14.6286 16.9285L10.2408 15.1734L7.7223 17.6919C7.7122 17.7024 7.70186 17.7128 7.69127 17.7229L5.93225 19.4819C5.97644 19.6472 6 19.8209 6 20C6 21.1046 5.10457 22 4 22C2.89543 22 2 21.1046 2 20C2 18.8955 2.89543 18 4 18C4.17915 18 4.35279 18.0236 4.518 18.0678L5.82664 16.7591L4.07152 12.3713C3.9239 12.0023 4.00887 11.5808 4.28797 11.2978L8.05693 7.47577C8.01972 7.32329 8 7.16396 8 7.00003C8 5.89546 8.89543 5.00003 10 5.00003C11.1046 5.00003 12 5.89546 12 7.00003C12 8.1046 11.1046 9.00003 10 9.00003C9.80591 9.00003 9.61827 8.97238 9.44081 8.92081L6.17151 12.2362L7.36525 15.2205L9.27769 13.3081C9.2874 13.298 9.29729 13.2881 9.30738 13.2784L17.5858 5L17.2929 4.70713C17.0478 4.46207 16.9471 4.10758 17.0268 3.77027C17.1064 3.43297 17.355 3.16094 17.6838 3.05134L20.6838 2.05134C21.0431 1.93157 21.4393 2.02509 21.7071 2.29292Z" fill="currentColor" style="fill="currentColor";fill-opacity:1;"/>
</svg>
