<svg width="24" height="24" viewBox="0 0 24 24" fill="none" xmlns="http://www.w3.org/2000/svg">
<path fill-rule="evenodd" clip-rule="evenodd" d="M10 4C8.34315 4 7 5.34315 7 7C7 8.65685 8.34315 10 10 10C11.6569 10 13 8.65685 13 7C13 5.34315 11.6569 4 10 4ZM5 7C5 4.23858 7.23858 2 10 2C12.7614 2 15 4.23858 15 7C15 9.76142 12.7614 12 10 12C7.23858 12 5 9.76142 5 7ZM17 15C15.8954 15 15 15.8954 15 17C15 18.1046 15.8954 19 17 19C17.4802 19 17.9209 18.8308 18.2656 18.5487C18.3021 18.4937 18.3445 18.4415 18.393 18.393C18.4415 18.3445 18.4937 18.3021 18.5487 18.2656C18.8308 17.9209 19 17.4802 19 17C19 15.8954 18.1046 15 17 15ZM20.4462 19.032C20.7981 18.4365 21 17.7418 21 17C21 14.7909 19.2091 13 17 13C14.7909 13 13 14.7909 13 17C13 19.2091 14.7909 21 17 21C17.7418 21 18.4365 20.7981 19.032 20.4462L20.293 21.7072C20.6835 22.0977 21.3167 22.0977 21.7072 21.7072C22.0977 21.3167 22.0977 20.6835 21.7072 20.293L20.4462 19.032ZM3.46447 15.4645C4.40215 14.5268 5.67392 14 7 14H10.3C10.8523 14 11.3 14.4477 11.3 15C11.3 15.5523 10.8523 16 10.3 16H7C6.20435 16 5.44129 16.3161 4.87868 16.8787C4.31607 17.4413 4 18.2043 4 19V21C4 21.5523 3.55228 22 3 22C2.44772 22 2 21.5523 2 21V19C2 17.6739 2.52678 16.4021 3.46447 15.4645Z" fill="currentColor" style="fill="currentColor";fill-opacity:1;"/>
</svg>
