<svg width="24" height="24" viewBox="0 0 24 24" fill="none" xmlns="http://www.w3.org/2000/svg">
<path fill-rule="evenodd" clip-rule="evenodd" d="M9 4C7.34315 4 6 5.34315 6 7C6 8.65685 7.34315 10 9 10C10.6569 10 12 8.65685 12 7C12 5.34315 10.6569 4 9 4ZM4 7C4 4.23858 6.23858 2 9 2C11.7614 2 14 4.23858 14 7C14 9.76142 11.7614 12 9 12C6.23858 12 4 9.76142 4 7ZM15.0312 2.88184C15.1682 2.34682 15.713 2.02414 16.248 2.16113C17.3236 2.43651 18.2768 3.06201 18.9576 3.93902C19.6383 4.81603 20.0078 5.89467 20.0078 7.00488C20.0078 8.1151 19.6383 9.19373 18.9576 10.0707C18.2768 10.9478 17.3236 11.5733 16.248 11.8486C15.713 11.9856 15.1682 11.6629 15.0312 11.1279C14.8943 10.5929 15.2169 10.0481 15.752 9.91113C16.3973 9.74591 16.9692 9.37061 17.3777 8.8444C17.7861 8.31819 18.0078 7.67101 18.0078 7.00488C18.0078 6.33876 17.7861 5.69157 17.3777 5.16537C16.9692 4.63916 16.3973 4.26386 15.752 4.09863C15.2169 3.96164 14.8943 3.41687 15.0312 2.88184ZM2.46447 15.4645C3.40215 14.5268 4.67392 14 6 14H12C13.3261 14 14.5979 14.5268 15.5355 15.4645C16.4732 16.4021 17 17.6739 17 19V21C17 21.5523 16.5523 22 16 22C15.4477 22 15 21.5523 15 21V19C15 18.2043 14.6839 17.4413 14.1213 16.8787C13.5587 16.3161 12.7956 16 12 16H6C5.20435 16 4.44129 16.3161 3.87868 16.8787C3.31607 17.4413 3 18.2043 3 19V21C3 21.5523 2.55228 22 2 22C1.44772 22 1 21.5523 1 21V19C1 17.6739 1.52678 16.4021 2.46447 15.4645ZM18.0318 14.8799C18.1698 14.3451 18.7153 14.0236 19.25 14.1616C20.3227 14.4386 21.273 15.064 21.9517 15.9395C22.6304 16.8151 22.9992 17.8913 23 18.9991V20.9999C23 21.5522 22.5523 21.9999 22 21.9999C21.4477 21.9999 21 21.5522 21 20.9999V19.0006C20.9995 18.3359 20.7783 17.6902 20.371 17.1649C19.9638 16.6395 19.3936 16.2643 18.75 16.0981C18.2153 15.9601 17.8937 15.4146 18.0318 14.8799Z" fill="currentColor" style="fill="currentColor";fill-opacity:1;"/>
</svg>
