<svg width="24" height="24" viewBox="0 0 24 24" fill="none" xmlns="http://www.w3.org/2000/svg">
<path fill-rule="evenodd" clip-rule="evenodd" d="M10 4C7.79086 4 6 5.79086 6 8C6 10.2091 7.79086 12 10 12C12.2091 12 14 10.2091 14 8C14 5.79086 12.2091 4 10 4ZM4 8C4 4.68629 6.68629 2 10 2C13.3137 2 16 4.68629 16 8C16 10.0731 14.9486 11.9007 13.3499 12.9785C13.4443 13.1937 13.4637 13.4428 13.3866 13.6842C13.2186 14.2103 12.6559 14.5006 12.1298 14.3326C11.0803 13.9974 9.9666 13.9147 8.87916 14.0911C7.79171 14.2674 6.76126 14.698 5.8716 15.3477C4.98193 15.9975 4.25818 16.848 3.7592 17.8302C3.26022 18.8124 3.0001 19.8984 3 21.0001C2.99995 21.5524 2.55219 22 1.99991 22C1.44762 21.9999 0.999949 21.5522 1 20.9999C1.00013 19.5835 1.33457 18.1871 1.97611 16.9243C2.61766 15.6615 3.5482 14.568 4.69205 13.7326C5.21367 13.3517 5.77293 13.0293 6.35962 12.7698C4.92527 11.6735 4 9.94479 4 8ZM18 16C16.8954 16 16 16.8954 16 18C16 19.1046 16.8954 20 18 20C18.4802 20 18.9209 19.8308 19.2656 19.5487C19.3021 19.4937 19.3445 19.4415 19.393 19.393C19.4415 19.3445 19.4937 19.3021 19.5487 19.2656C19.8308 18.9209 20 18.4802 20 18C20 16.8954 19.1046 16 18 16ZM21.4462 20.032C21.7981 19.4365 22 18.7418 22 18C22 15.7909 20.2091 14 18 14C15.7909 14 14 15.7909 14 18C14 20.2091 15.7909 22 18 22C18.7418 22 19.4365 21.7981 20.032 21.4462L21.293 22.7072C21.6835 23.0977 22.3167 23.0977 22.7072 22.7072C23.0977 22.3167 23.0977 21.6835 22.7072 21.293L21.4462 20.032Z" fill="currentColor" style="fill="currentColor";fill-opacity:1;"/>
</svg>
