<svg width="24" height="24" viewBox="0 0 24 24" fill="none" xmlns="http://www.w3.org/2000/svg">
<path fill-rule="evenodd" clip-rule="evenodd" d="M10 4C7.79086 4 6 5.79086 6 8C6 10.2091 7.79086 12 10 12C12.2091 12 14 10.2091 14 8C14 5.79086 12.2091 4 10 4ZM13.641 12.7694C15.075 11.673 16 9.94452 16 8C16 4.68629 13.3137 2 10 2C6.68629 2 4 4.68629 4 8C4 9.94452 4.92501 11.673 6.35901 12.7694C5.35354 13.2142 4.4285 13.8436 3.63604 14.636C1.94821 16.3239 1 18.6131 1 21C1 21.5523 1.44772 22 2 22C2.55228 22 3 21.5523 3 21C3 19.1435 3.7375 17.363 5.05025 16.0503C6.36301 14.7375 8.14348 14 10 14C11.8565 14 13.637 14.7375 14.9497 16.0503C16.2625 17.363 17 19.1435 17 21C17 21.5523 17.4477 22 18 22C18.5523 22 19 21.5523 19 21C19 18.6131 18.0518 16.3239 16.364 14.636C15.5715 13.8436 14.6465 13.2142 13.641 12.7694ZM16.69 3.18982C16.9717 2.7148 17.5852 2.55812 18.0602 2.83985C18.9084 3.34297 19.6196 4.04743 20.1307 4.89089C20.6419 5.73436 20.9372 6.69081 20.9906 7.67561C21.044 8.66042 20.8538 9.6432 20.4369 10.537C20.193 11.0596 19.8761 11.5425 19.4971 11.9717C21.3686 13.7947 23 16.7783 23 20C23 20.5522 22.5523 21 22 21C21.4478 21 21 20.5522 21 20C21 16.9892 19.1861 14.1395 17.4 12.8C17.1483 12.6111 17.0001 12.3148 17 12C17 11.6853 17.1482 11.3889 17.3999 11.2C17.9259 10.8055 18.3464 10.2873 18.6244 9.69146C18.9023 9.09561 19.0291 8.44042 18.9935 7.78389C18.9579 7.12735 18.7611 6.48972 18.4203 5.92741C18.0795 5.3651 17.6054 4.89546 17.0399 4.56005C16.5649 4.27831 16.4082 3.66484 16.69 3.18982Z" fill="currentColor" style="fill="currentColor";fill-opacity:1;"/>
</svg>
