<svg width="24" height="24" viewBox="0 0 24 24" fill="none" xmlns="http://www.w3.org/2000/svg">
<path fill-rule="evenodd" clip-rule="evenodd" d="M10 4C7.79086 4 6 5.79086 6 8C6 10.1916 7.76261 11.9716 9.94761 11.9997C9.98253 11.9995 10.0175 11.9995 10.0524 11.9997C12.2374 11.9716 14 10.1916 14 8C14 5.79086 12.2091 4 10 4ZM13.6414 12.7691C15.0752 11.6727 16 9.94433 16 8C16 4.68629 13.3137 2 10 2C6.68629 2 4 4.68629 4 8C4 9.94433 4.92484 11.6727 6.35861 12.7691C6.3381 12.7781 6.31762 12.7873 6.29717 12.7965C4.71843 13.5092 3.37888 14.6622 2.43926 16.1174C1.49965 17.5725 0.999905 19.2679 1 21C1.00003 21.5523 1.44777 22 2.00005 22C2.55234 21.9999 3.00003 21.5522 3 20.9999C2.99993 19.6527 3.38862 18.3341 4.11943 17.2023C4.85024 16.0705 5.89211 15.1737 7.12002 14.6194C8.01149 14.217 8.9735 14.0076 9.94354 13.9997C9.96234 13.9999 9.98116 14 10 14C10.0188 14 10.0376 13.9999 10.0564 13.9997C10.3851 14.0024 10.7144 14.0282 11.0419 14.0775C12.3741 14.278 13.6202 14.8587 14.6305 15.7499C15.0447 16.1152 15.6766 16.0756 16.0419 15.6615C16.4073 15.2473 16.3677 14.6153 15.9535 14.25C15.2595 13.6379 14.479 13.1397 13.6414 12.7691ZM19 15C19.5523 15 20 15.4477 20 16V18H22C22.5523 18 23 18.4477 23 19C23 19.5523 22.5523 20 22 20H20V22C20 22.5523 19.5523 23 19 23C18.4477 23 18 22.5523 18 22V20H16C15.4477 20 15 19.5523 15 19C15 18.4477 15.4477 18 16 18H18V16C18 15.4477 18.4477 15 19 15Z" fill="currentColor" style="fill="currentColor";fill-opacity:1;"/>
</svg>
