<svg width="24" height="24" viewBox="0 0 24 24" fill="none" xmlns="http://www.w3.org/2000/svg">
<path fill-rule="evenodd" clip-rule="evenodd" d="M12 1C12.5523 1 13 1.44772 13 2V4H16V3C16 2.44772 16.4477 2 17 2C17.5523 2 18 2.44772 18 3V4H18.9998C18.9996 4 18.9999 4 18.9998 4H20V3C20 2.44772 20.4477 2 21 2C21.5523 2 22 2.44772 22 3V4C22.5523 4 23 4.44772 23 5C23 5.55228 22.5523 6 22 6H19.4142L13 12.4142V22C13 22.5523 12.5523 23 12 23C11.4477 23 11 22.5523 11 22V12.4142L4.58579 6H2C1.44772 6 1 5.55228 1 5C1 4.44772 1.44772 4 2 4V3C2 2.44772 2.44772 2 3 2C3.55228 2 4 2.44772 4 3V4H4.99976C4.99959 4 4.99992 4 4.99976 4H6V3C6 2.44772 6.44772 2 7 2C7.55228 2 8 2.44772 8 3V4H11V2C11 1.44772 11.4477 1 12 1ZM11 6H7.41421L11 9.58579V6ZM13 9.58579L16.5858 6H13V9.58579Z" fill="currentColor" style="fill="currentColor";fill-opacity:1;"/>
</svg>
