<svg width="24" height="24" viewBox="0 0 24 24" fill="none" xmlns="http://www.w3.org/2000/svg">
<path fill-rule="evenodd" clip-rule="evenodd" d="M1.21827 1.37642C1.56268 0.944685 2.19188 0.873893 2.62362 1.21831C3.49368 1.91239 4.31887 2.65678 5.09538 3.44678C6.57269 2.2557 8.34423 1.45831 10.2438 1.15113C12.6662 0.759427 15.1421 1.18988 17.2816 2.36111C18.4961 1.41438 20.1117 1.00004 22 1.00004C22.5523 1.00004 23 1.44775 23 2.00004C23 3.88662 22.5864 5.50102 21.6415 6.71511C22.8182 8.85759 23.2512 11.3387 22.8587 13.766C22.4254 16.4454 21.0168 18.8701 18.9038 20.5736C16.7908 22.2772 14.1226 23.1394 11.4122 22.9944C8.70188 22.8494 6.14083 21.7075 4.22159 19.7883C2.30235 17.869 1.16045 15.308 1.01547 12.5976C0.870494 9.88729 1.73269 7.21904 3.43624 5.10602C3.50917 5.01555 3.58343 4.92638 3.65897 4.83852C2.94166 4.10957 2.17964 3.42255 1.37639 2.78177C0.944648 2.43736 0.873856 1.80816 1.21827 1.37642ZM5.01695 6.33202C5.00903 6.34176 5.00113 6.35152 4.99325 6.3613C3.59943 8.09014 2.894 10.2732 3.01261 12.4908C3.13123 14.7083 4.06552 16.8038 5.63581 18.374C7.06993 19.8082 8.94206 20.7118 10.9452 20.9481C10.7038 17.609 9.80949 14.346 8.30919 11.3454C7.40938 9.54581 6.30327 7.86393 5.01695 6.33202ZM13.1521 20.936C14.7889 20.7247 16.3474 20.0656 17.6485 19.0166C19.3774 17.6228 20.5299 15.639 20.8844 13.4468C21.1822 11.6046 20.899 9.72458 20.0881 8.06292C19.1104 8.62718 17.9313 8.91951 16.6004 8.98548C14.5569 12.7715 13.9289 15.2877 13.1521 20.936ZM17.0567 6.94331C18.3196 6.79885 19.1998 6.38607 19.7929 5.79293C20.386 5.1998 20.7988 4.31965 20.9433 3.05676C19.6804 3.20122 18.8002 3.61401 18.2071 4.20714C18.2032 4.21105 18.1993 4.21497 18.1954 4.2189C18.1591 4.26511 18.1193 4.30735 18.0767 4.3455C17.5536 4.93447 17.1904 5.77515 17.0567 6.94331ZM15.9349 3.91591C14.2762 3.10949 12.4008 2.82832 10.5631 3.12548C9.05026 3.37012 7.63671 3.99476 6.4478 4.92657C7.87769 6.61002 9.10451 8.46394 10.098 10.451C10.9097 12.0743 11.5568 13.7688 12.0331 15.5091C12.6471 12.684 13.469 10.5315 15.0027 7.73734C15.0334 6.26949 15.3249 4.97472 15.9349 3.91591Z" fill="currentColor" style="fill="currentColor";fill-opacity:1;"/>
</svg>
