<svg width="24" height="24" viewBox="0 0 24 24" fill="none" xmlns="http://www.w3.org/2000/svg">
<path fill-rule="evenodd" clip-rule="evenodd" d="M1 7C1 6.44772 1.44772 6 2 6H7C7.01241 6 7.02482 6.00023 7.03722 6.00069C8.83181 6.06754 10.5586 6.66928 12 7.7189C13.4414 6.66928 15.1682 6.06754 16.9628 6.00069C16.9752 6.00023 16.9876 6 17 6H22C22.5523 6 23 6.44772 23 7V12C23 13.5913 22.3679 15.1174 21.2426 16.2426C20.1222 17.3631 18.6041 17.9947 17.0201 18C15.4096 18.0639 13.8702 18.6817 12.6622 19.7493C12.284 20.0836 11.716 20.0836 11.3378 19.7493C10.1298 18.6817 8.59044 18.0639 6.9799 18C5.39585 17.9947 3.87784 17.3631 2.75736 16.2426C1.63214 15.1174 1 13.5913 1 12V7ZM3 8V12C3 13.0609 3.42143 14.0783 4.17157 14.8284C4.92172 15.5786 5.93913 16 7 16C7.01241 16 7.02482 16.0002 7.03722 16.0007C8.83181 16.0675 10.5586 16.6693 12 17.7189C13.4414 16.6693 15.1682 16.0675 16.9628 16.0007C16.9752 16.0002 16.9876 16 17 16C18.0609 16 19.0783 15.5786 19.8284 14.8284C20.5786 14.0783 21 13.0609 21 12V8H17.0192C15.409 8.06412 13.87 8.68189 12.6622 9.74931C12.284 10.0836 11.716 10.0836 11.3378 9.74931C10.13 8.68189 8.59099 8.06412 6.98076 8H3ZM5 11C5 10.4477 5.44772 10 6 10C6.83426 10 7.77683 10.1348 8.54814 10.5633C9.37955 11.0252 10 11.8345 10 13C10 13.5523 9.55228 14 9 14L8.97123 14C8.49393 14 8.02125 14 7.60445 13.9653C7.18264 13.9301 6.72125 13.8537 6.30279 13.6444C5.84826 13.4172 5.49421 13.0586 5.27369 12.5624C5.06862 12.101 5 11.5683 5 11ZM15.4519 10.5633C16.2232 10.1348 17.1657 10 18 10C18.5523 10 19 10.4477 19 11C19 11.5683 18.9314 12.101 18.7263 12.5624C18.5058 13.0586 18.1517 13.4172 17.6972 13.6444C17.2788 13.8537 16.8174 13.9301 16.3955 13.9653C15.9788 14 15.5061 14 15.0288 14L15 14C14.4477 14 14 13.5523 14 13C14 11.8345 14.6205 11.0252 15.4519 10.5633Z" fill="currentColor" style="fill="currentColor";fill-opacity:1;"/>
</svg>
