<svg width="24" height="24" viewBox="0 0 24 24" fill="none" xmlns="http://www.w3.org/2000/svg">
<path fill-rule="evenodd" clip-rule="evenodd" d="M1.29289 1.29289C1.68342 0.902369 2.31658 0.902369 2.70711 1.29289L22.7071 21.2929C23.0976 21.6834 23.0976 22.3166 22.7071 22.7071C22.3166 23.0976 21.6834 23.0976 21.2929 22.7071L16.9641 18.3783C16.7866 19.3005 15.973 20 15 20H9C7.89772 20 7 19.1023 7 18V8.41421L1.29289 2.70711C0.902369 2.31658 0.902369 1.68342 1.29289 1.29289ZM9 10.4142V18H15V16.4142L9 10.4142ZM9.65991 5C9.65991 4.44772 10.1076 4 10.6599 4H14.9999C16.1022 4 16.9999 4.89772 16.9999 6V10.34C16.9999 10.8923 16.5522 11.34 15.9999 11.34C15.4476 11.34 14.9999 10.8923 14.9999 10.34V6H10.6599C10.1076 6 9.65991 5.55228 9.65991 5ZM1.29289 7.29289C1.68342 6.90237 2.31658 6.90237 2.70711 7.29289L4.70711 9.29289C5.09763 9.68342 5.09763 10.3166 4.70711 10.7071L3.41421 12L4.70711 13.2929C5.09763 13.6834 5.09763 14.3166 4.70711 14.7071L2.70711 16.7071C2.31658 17.0976 1.68342 17.0976 1.29289 16.7071C0.902369 16.3166 0.902369 15.6834 1.29289 15.2929L2.58579 14L1.29289 12.7071C0.902369 12.3166 0.902369 11.6834 1.29289 11.2929L2.58579 10L1.29289 8.70711C0.902369 8.31658 0.902369 7.68342 1.29289 7.29289ZM21.2929 7.29289C21.6834 6.90237 22.3166 6.90237 22.7071 7.29289C23.0976 7.68342 23.0976 8.31658 22.7071 8.70711L21.4142 10L22.7071 11.2929C23.0976 11.6834 23.0976 12.3166 22.7071 12.7071L21.4142 14L22.7071 15.2929C23.0976 15.6834 23.0976 16.3166 22.7071 16.7071C22.3166 17.0976 21.6834 17.0976 21.2929 16.7071L19.2929 14.7071C18.9024 14.3166 18.9024 13.6834 19.2929 13.2929L20.5858 12L19.2929 10.7071C18.9024 10.3166 18.9024 9.68342 19.2929 9.29289L21.2929 7.29289Z" fill="currentColor" style="fill="currentColor";fill-opacity:1;"/>
</svg>
