<svg width="24" height="24" viewBox="0 0 24 24" fill="none" xmlns="http://www.w3.org/2000/svg">
<path fill-rule="evenodd" clip-rule="evenodd" d="M7 6C7 4.89543 7.89543 4 9 4H15C16.1046 4 17 4.89543 17 6V18C17 19.1046 16.1046 20 15 20H9C7.89543 20 7 19.1046 7 18V6ZM15 6H9V18H15V6ZM1.29289 7.29289C1.68342 6.90237 2.31658 6.90237 2.70711 7.29289L4.70711 9.29289C5.09763 9.68342 5.09763 10.3166 4.70711 10.7071L3.41421 12L4.70711 13.2929C5.09763 13.6834 5.09763 14.3166 4.70711 14.7071L2.70711 16.7071C2.31658 17.0976 1.68342 17.0976 1.29289 16.7071C0.902369 16.3166 0.902369 15.6834 1.29289 15.2929L2.58579 14L1.29289 12.7071C0.902369 12.3166 0.902369 11.6834 1.29289 11.2929L2.58579 10L1.29289 8.70711C0.902369 8.31658 0.902369 7.68342 1.29289 7.29289ZM22.7071 7.29289C23.0976 7.68342 23.0976 8.31658 22.7071 8.70711L21.4142 10L22.7071 11.2929C23.0976 11.6834 23.0976 12.3166 22.7071 12.7071L21.4142 14L22.7071 15.2929C23.0976 15.6834 23.0976 16.3166 22.7071 16.7071C22.3166 17.0976 21.6834 17.0976 21.2929 16.7071L19.2929 14.7071C18.9024 14.3166 18.9024 13.6834 19.2929 13.2929L20.5858 12L19.2929 10.7071C18.9024 10.3166 18.9024 9.68342 19.2929 9.29289L21.2929 7.29289C21.6834 6.90237 22.3166 6.90237 22.7071 7.29289Z" fill="currentColor" style="fill="currentColor";fill-opacity:1;"/>
</svg>
