<svg width="24" height="24" viewBox="0 0 24 24" fill="none" xmlns="http://www.w3.org/2000/svg">
<path fill-rule="evenodd" clip-rule="evenodd" d="M4 5C3.44772 5 3 5.44772 3 6V7H21V6C21 5.44771 20.5523 5 20 5H4ZM23 6C23 4.34315 21.6569 3 20 3H4C2.34315 3 1 4.34315 1 6V18C1 19.6569 2.34315 21 4 21H20C21.6569 21 23 19.6569 23 18V6ZM21 9H3V18C3 18.5523 3.44772 19 4 19H20C20.5523 19 21 18.5523 21 18V9ZM8 13C7.44772 13 7 13.4477 7 14C7 14.5523 7.44772 15 8 15C8.55228 15 9 14.5523 9 14C9 13.4477 8.55228 13 8 13ZM10.8293 13C10.9398 13.3128 11 13.6494 11 14C11 15.6569 9.65685 17 8 17C6.34315 17 5 15.6569 5 14C5 12.3431 6.34315 11 8 11H16C17.6569 11 19 12.3431 19 14C19 15.6569 17.6569 17 16 17C14.3431 17 13 15.6569 13 14C13 13.6494 13.0602 13.3128 13.1707 13H10.8293ZM16 13C15.4477 13 15 13.4477 15 14C15 14.5523 15.4477 15 16 15C16.5523 15 17 14.5523 17 14C17 13.4477 16.5523 13 16 13Z" fill="currentColor" style="fill="currentColor";fill-opacity:1;"/>
</svg>
