<svg width="24" height="24" viewBox="0 0 24 24" fill="none" xmlns="http://www.w3.org/2000/svg">
<path fill-rule="evenodd" clip-rule="evenodd" d="M1.29289 1.29289C1.68342 0.902369 2.31658 0.902369 2.70711 1.29289L22.7071 21.2929C23.0976 21.6834 23.0976 22.3166 22.7071 22.7071C22.3166 23.0976 21.6834 23.0976 21.2929 22.7071L16.3939 17.8081C16.3109 17.9181 16.2199 18.0228 16.1213 18.1213C15.5587 18.6839 14.7957 19 14 19H4C3.20435 19 2.44129 18.6839 1.87868 18.1213C1.31607 17.5587 1 16.7956 1 16V8C1 7.20435 1.31607 6.44129 1.87868 5.87868C2.34882 5.40854 2.95895 5.11055 3.61109 5.0253L1.29289 2.70711C0.902369 2.31658 0.902369 1.68342 1.29289 1.29289ZM5.58579 7H4C3.73478 7 3.48043 7.10536 3.29289 7.29289C3.10536 7.48043 3 7.73478 3 8V16C3 16.2652 3.10536 16.5196 3.29289 16.7071C3.48043 16.8946 3.73478 17 4 17H14C14.2652 17 14.5196 16.8946 14.7071 16.7071C14.8091 16.6051 14.8868 16.4833 14.9365 16.3507L5.58579 7ZM13.9999 7H10.6599C10.1076 7 9.65991 6.55228 9.65991 6C9.65991 5.44772 10.1076 5 10.6599 5H13.9999C14.7956 5 15.5586 5.31607 16.1212 5.87868C16.6838 6.44129 16.9999 7.20435 16.9999 8V9.92579L17.1268 10.0527L21.4444 7.16846C21.7512 6.96352 22.146 6.94416 22.4714 7.11811C22.7967 7.29205 22.9999 7.63104 22.9999 8V16C22.9999 16.5523 22.5522 17 21.9999 17C21.4476 17 20.9999 16.5523 20.9999 16V9.87059L17.5554 12.1715C17.1587 12.4365 16.6301 12.3844 16.2928 12.0471L15.2928 11.0471C15.1053 10.8596 14.9999 10.6052 14.9999 10.34V8C14.9999 7.73478 14.8946 7.48043 14.707 7.29289C14.5195 7.10536 14.2651 7 13.9999 7Z" fill="currentColor" style="fill="currentColor";fill-opacity:1;"/>
</svg>
