<svg width="24" height="24" viewBox="0 0 24 24" fill="none" xmlns="http://www.w3.org/2000/svg">
<path fill-rule="evenodd" clip-rule="evenodd" d="M2.87868 2.87868C3.44129 2.31607 4.20435 2 5 2H19C19.7957 2 20.5587 2.31607 21.1213 2.87868C21.6839 3.44129 22 4.20435 22 5V7C22 7.55228 21.5523 8 21 8C20.4477 8 20 7.55228 20 7V5C20 4.73478 19.8946 4.48043 19.7071 4.29289C19.5196 4.10536 19.2652 4 19 4H5C4.73478 4 4.48043 4.10536 4.29289 4.29289C4.10536 4.48043 4 4.73478 4 5V7C4 7.55228 3.55228 8 3 8C2.44772 8 2 7.55228 2 7V5C2 4.20435 2.31607 3.44129 2.87868 2.87868ZM6.15453 12C6.19861 12.0709 6.24807 12.1486 6.30283 12.2319C6.58717 12.6643 7.00791 13.2387 7.55275 13.8095C8.65935 14.9689 10.165 16 12 16C13.8345 16 15.3401 14.9689 16.4469 13.8095C16.9918 13.2387 17.4127 12.6642 17.6971 12.2318C17.7518 12.1485 17.8013 12.0709 17.8454 12C17.8013 11.9291 17.7518 11.8515 17.6971 11.7682C17.4127 11.3358 16.9918 10.7613 16.4469 10.1905C15.3401 9.03106 13.8345 8 12 8C10.165 8 8.65935 9.0311 7.55275 10.1905C7.00791 10.7613 6.58717 11.3357 6.30283 11.7681C6.24807 11.8514 6.19861 11.9291 6.15453 12ZM19 12C19.8911 11.5462 19.891 11.5459 19.8908 11.5456L19.8894 11.5429L19.8867 11.5376L19.8785 11.5218C19.8717 11.5089 19.8624 11.4914 19.8506 11.4695C19.827 11.4256 19.7933 11.3644 19.7496 11.2881C19.6623 11.1357 19.5348 10.9227 19.3681 10.6693C19.036 10.1642 18.5419 9.48868 17.8936 8.8095C16.6139 7.46894 14.6195 6 12 6C9.38004 6 7.38565 7.4689 6.106 8.80954C5.45771 9.48874 4.96377 10.1643 4.6317 10.6694C4.46505 10.9228 4.33754 11.1358 4.25027 11.2882C4.20659 11.3645 4.17289 11.4258 4.14929 11.4696C4.13748 11.4915 4.1282 11.5091 4.12145 11.522L4.11322 11.5378L4.11054 11.543L4.10955 11.5449C4.10937 11.5453 4.1088 11.5464 5 12L4.1088 11.5464C3.96373 11.8314 3.96373 12.1686 4.1088 12.4536L5 12C4.1088 12.4536 4.10863 12.4533 4.1088 12.4536L4.11054 12.457L4.11322 12.4622L4.12145 12.478C4.1282 12.4909 4.13748 12.5085 4.14929 12.5304C4.17289 12.5742 4.20659 12.6355 4.25027 12.7118C4.33754 12.8642 4.46505 13.0772 4.6317 13.3306C4.96377 13.8357 5.45771 14.5113 6.106 15.1905C7.38565 16.5311 9.38004 18 12 18C14.6195 18 16.6139 16.5311 17.8936 15.1905C18.5419 14.5113 19.036 13.8358 19.3681 13.3307C19.5348 13.0773 19.6623 12.8643 19.7496 12.7119C19.7933 12.6356 19.827 12.5744 19.8506 12.5305C19.8624 12.5086 19.8717 12.4911 19.8785 12.4782L19.8867 12.4624L19.8894 12.4571L19.8904 12.4552C19.8906 12.4549 19.8911 12.4538 19 12ZM19 12L19.8911 12.4538C20.0363 12.1687 20.0359 11.8307 19.8908 11.5456L19 12ZM10.5858 10.5858C10.9609 10.2107 11.4696 10 12 10C12.5304 10 13.0391 10.2107 13.4142 10.5858C13.7893 10.9609 14 11.4696 14 12C14 12.5304 13.7893 13.0391 13.4142 13.4142C13.0391 13.7893 12.5304 14 12 14C11.4696 14 10.9609 13.7893 10.5858 13.4142C10.2107 13.0391 10 12.5304 10 12C10 11.4696 10.2107 10.9609 10.5858 10.5858ZM3 16C3.55228 16 4 16.4477 4 17V19C4 19.2652 4.10536 19.5196 4.29289 19.7071C4.48043 19.8946 4.73478 20 5 20H19C19.2652 20 19.5196 19.8946 19.7071 19.7071C19.8946 19.5196 20 19.2652 20 19V17C20 16.4477 20.4477 16 21 16C21.5523 16 22 16.4477 22 17V19C22 19.7957 21.6839 20.5587 21.1213 21.1213C20.5587 21.6839 19.7957 22 19 22H5C4.20435 22 3.44129 21.6839 2.87868 21.1213C2.31607 20.5587 2 19.7957 2 19V17C2 16.4477 2.44772 16 3 16Z" fill="currentColor" style="fill="currentColor";fill-opacity:1;"/>
</svg>
