<svg width="24" height="24" viewBox="0 0 24 24" fill="none" xmlns="http://www.w3.org/2000/svg">
<path fill-rule="evenodd" clip-rule="evenodd" d="M7 6C6.45228 6 6 6.45228 6 7V18H18V7C18 6.73478 17.8946 6.48043 17.7071 6.29289C17.5196 6.10536 17.2652 6 17 6H7ZM20 18V7C20 6.20435 19.6839 5.44129 19.1213 4.87868C18.5587 4.31607 17.7957 4 17 4H7C5.34772 4 4 5.34772 4 7V18H2C1.44772 18 1 18.4477 1 19C1 19.5523 1.44772 20 2 20H22C22.5523 20 23 19.5523 23 19C23 18.4477 22.5523 18 22 18H20ZM15.7071 9.29289C16.0976 9.68342 16.0976 10.3166 15.7071 10.7071L11.7071 14.7071C11.3166 15.0976 10.6834 15.0976 10.2929 14.7071L8.29289 12.7071C7.90237 12.3166 7.90237 11.6834 8.29289 11.2929C8.68342 10.9024 9.31658 10.9024 9.70711 11.2929L11 12.5858L14.2929 9.29289C14.6834 8.90237 15.3166 8.90237 15.7071 9.29289Z" fill="currentColor" style="fill="currentColor";fill-opacity:1;"/>
</svg>
