<svg width="24" height="24" viewBox="0 0 24 24" fill="none" xmlns="http://www.w3.org/2000/svg">
<path fill-rule="evenodd" clip-rule="evenodd" d="M5 4C4.73478 4 4.48043 4.10536 4.29289 4.29289C4.10536 4.48043 4 4.73478 4 5C4 5.26522 4.10536 5.51957 4.29289 5.70711C4.48043 5.89464 4.73478 6 5 6H18V4H5ZM20 6V3C20 2.44772 19.5523 2 19 2H5C4.20435 2 3.44129 2.31607 2.87868 2.87868C2.31607 3.44129 2 4.20435 2 5V19C2 19.7957 2.31607 20.5587 2.87868 21.1213C3.44129 21.6839 4.20435 22 5 22H21C21.5523 22 22 21.5523 22 21V17C22.5523 17 23 16.5523 23 16V12C23 11.4477 22.5523 11 22 11V7C22 6.44772 21.5523 6 21 6H20ZM5 8C4.65606 8 4.3182 7.94094 4 7.82843V19C4 19.2652 4.10536 19.5196 4.29289 19.7071C4.48043 19.8946 4.73478 20 5 20H20V17H18C17.2043 17 16.4413 16.6839 15.8787 16.1213C15.3161 15.5587 15 14.7957 15 14C15 13.2043 15.3161 12.4413 15.8787 11.8787C16.4413 11.3161 17.2043 11 18 11H20V8H5ZM21 13H18C17.7348 13 17.4804 13.1054 17.2929 13.2929C17.1054 13.4804 17 13.7348 17 14C17 14.2652 17.1054 14.5196 17.2929 14.7071C17.4804 14.8946 17.7348 15 18 15H21V13Z" fill="currentColor" style="fill="currentColor";fill-opacity:1;"/>
</svg>
