<svg width="24" height="24" viewBox="0 0 24 24" fill="none" xmlns="http://www.w3.org/2000/svg">
<path fill-rule="evenodd" clip-rule="evenodd" d="M15 1C15.5523 1 16 1.44772 16 2V4C16 4.55228 15.5523 5 15 5C14.4477 5 14 4.55228 14 4V2C14 1.44772 14.4477 1 15 1ZM10.2929 4.29289C10.6834 3.90237 11.3166 3.90237 11.7071 4.29289L12.9071 5.49289C13.2976 5.88342 13.2976 6.51658 12.9071 6.90711C12.5166 7.29763 11.8834 7.29763 11.4929 6.90711L10.2929 5.70711C9.90237 5.31658 9.90237 4.68342 10.2929 4.29289ZM19.7072 4.29289C20.0977 4.68342 20.0977 5.31658 19.7072 5.70711L18.5072 6.90711C18.1166 7.29763 17.4835 7.29763 17.0929 6.90711C16.7024 6.51658 16.7024 5.88342 17.0929 5.49289L18.2929 4.29289C18.6835 3.90237 19.3166 3.90237 19.7072 4.29289ZM7 9C7 8.44772 7.44772 8 8 8H10C10.5523 8 11 8.44772 11 9C11 9.55228 10.5523 10 10 10H8C7.44772 10 7 9.55228 7 9ZM19 9C19 8.44772 19.4477 8 20 8H22C22.5523 8 23 8.44772 23 9C23 9.55228 22.5523 10 22 10H20C19.4477 10 19 9.55228 19 9ZM17.0929 11.0929C17.4835 10.7024 18.1166 10.7024 18.5072 11.0929L19.7072 12.2929C20.0977 12.6835 20.0977 13.3166 19.7072 13.7072C19.3166 14.0977 18.6835 14.0977 18.2929 13.7072L17.0929 12.5072C16.7024 12.1166 16.7024 11.4835 17.0929 11.0929ZM12.7071 11.2929C13.0976 11.6834 13.0976 12.3166 12.7071 12.7071L3.70711 21.7071C3.31658 22.0976 2.68342 22.0976 2.29289 21.7071C1.90237 21.3166 1.90237 20.6834 2.29289 20.2929L11.2929 11.2929C11.6834 10.9024 12.3166 10.9024 12.7071 11.2929ZM15 13C15.5523 13 16 13.4477 16 14V16C16 16.5523 15.5523 17 15 17C14.4477 17 14 16.5523 14 16V14C14 13.4477 14.4477 13 15 13Z" fill="currentColor" style="fill="currentColor";fill-opacity:1;"/>
</svg>
