<svg width="24" height="24" viewBox="0 0 24 24" fill="none" xmlns="http://www.w3.org/2000/svg">
<path fill-rule="evenodd" clip-rule="evenodd" d="M10.6486 0.999879H13.3114C14.0116 0.98892 14.6938 1.22331 15.2395 1.66262C15.7879 2.10404 16.1635 2.72424 16.3007 3.41468C16.3007 3.41455 16.3008 3.41481 16.3007 3.41468L17.0479 7.15036C18.2568 8.40842 19 10.1174 19 12C19 13.8333 18.2952 15.502 17.1418 16.75L16.3808 20.5549C16.3808 20.555 16.3809 20.5548 16.3808 20.5549C16.2436 21.2454 15.8679 21.8659 15.3195 22.3073C14.7738 22.7466 14.0916 22.981 13.3914 22.9701H10.6886C9.98838 22.981 9.30621 22.7466 8.76048 22.3073C8.21218 21.8659 7.83654 21.2458 7.69928 20.5555C7.69924 20.5553 7.69932 20.5556 7.69928 20.5555L6.95969 16.8575C5.74626 15.5987 5 13.8865 5 12C5 10.1255 5.73681 8.42305 6.93662 7.16654L7.65913 3.41506C7.7963 2.72447 8.17201 2.10412 8.72046 1.66262C9.26618 1.22331 9.94834 0.98892 10.6486 0.999879ZM8.50725 8.42219C8.53703 8.39694 8.56537 8.36992 8.5921 8.34125C9.4851 7.50911 10.6831 7 12 7C13.2918 7 14.4692 7.4899 15.3565 8.29406C15.4087 8.35758 15.4684 8.41417 15.5338 8.46275C16.4396 9.3677 17 10.6184 17 12C17 14.7614 14.7614 17 12 17C10.6878 17 9.49367 16.4945 8.60169 15.6677C8.5794 15.6445 8.55604 15.6224 8.5317 15.6015C7.58745 14.692 7 13.4146 7 12C7 10.5977 7.57732 9.33015 8.50725 8.42219ZM9.32166 18.4693L9.66085 20.1652C9.70657 20.3954 9.8318 20.6022 10.0146 20.7494C10.1974 20.8966 10.4262 20.9747 10.6608 20.9702L10.68 20.9701H13.4L13.4192 20.9702C13.6538 20.9747 13.8826 20.8966 14.0654 20.7494C14.2482 20.6022 14.3734 20.3954 14.4192 20.1652L14.7657 18.4324C13.9173 18.7977 12.9823 19 12 19C11.0513 19 10.1467 18.8113 9.32166 18.4693ZM14.6849 5.53339C13.8581 5.18972 12.9512 5 12 5C11.0374 5 10.1203 5.19428 9.28552 5.54577L9.6213 3.80233C9.66741 3.57308 9.79241 3.36721 9.9746 3.22055C10.1574 3.07338 10.3862 2.9952 10.6208 2.9997L10.64 2.99988H13.32L13.3391 2.9997C13.5738 2.9952 13.8026 3.07338 13.9854 3.22055C14.1682 3.36772 14.2934 3.5745 14.3391 3.8047L14.6849 5.53339ZM12 9C12.5523 9 13 9.44772 13 10V11.5858L13.7071 12.2929C14.0976 12.6834 14.0976 13.3166 13.7071 13.7071C13.3166 14.0976 12.6834 14.0976 12.2929 13.7071L11.2929 12.7071C11.1054 12.5196 11 12.2652 11 12V10C11 9.44772 11.4477 9 12 9Z" fill="black" style="fill:black;fill-opacity:1;"/>
</svg>
