<svg width="24" height="24" viewBox="0 0 24 24" fill="none" xmlns="http://www.w3.org/2000/svg">
<path fill-rule="evenodd" clip-rule="evenodd" d="M12.8104 3.10483C12.4239 2.9995 12.0202 2.97264 11.6231 3.02584C11.2261 3.07905 10.8437 3.21124 10.4985 3.41462C10.1534 3.618 9.85249 3.88845 9.61356 4.21001C9.37462 4.53156 9.20252 4.89772 9.10739 5.28687C9.01225 5.67602 8.99603 6.08028 9.05966 6.4758C9.12285 6.86852 9.26349 7.24473 9.47339 7.58255C9.81503 8.10813 10.1325 8.75096 10.2813 9.44026C10.432 10.1389 10.4195 10.9442 10.0086 11.6975C10.0082 11.6981 10.0079 11.6988 10.0075 11.6994L6.87934 17.4761C6.61636 17.9618 6.00946 18.1423 5.52381 17.8793C5.03817 17.6163 4.85767 17.0094 5.12066 16.5238L8.25066 10.7438L8.25245 10.7404C8.37052 10.5244 8.40787 10.2404 8.32625 9.86211C8.24332 9.4778 8.04856 9.05899 7.79239 8.6662L7.78211 8.6501C7.42812 8.08398 7.19111 7.45269 7.08506 6.79349C6.979 6.13429 7.00604 5.46052 7.16459 4.81193C7.32315 4.16335 7.60999 3.55309 8.00821 3.01717C8.40643 2.48124 8.90796 2.03049 9.48319 1.69153C10.0584 1.35256 10.6957 1.13224 11.3575 1.04356C12.0193 0.954886 12.6921 0.999648 13.3363 1.17521C13.9805 1.35077 14.583 1.65357 15.1082 2.06575C15.6335 2.47793 16.0709 2.99114 16.3946 3.5751C16.6624 4.05813 16.4879 4.66678 16.0048 4.93454C15.5218 5.20231 14.9132 5.0278 14.6454 4.54477C14.4512 4.19439 14.1887 3.88647 13.8736 3.63916C13.5584 3.39185 13.1969 3.21017 12.8104 3.10483ZM11.5206 5.1224C12.0053 4.85764 12.6128 5.03592 12.8776 5.52061L16.0075 11.2505C16.0076 11.2505 16.0076 11.2506 16.0076 11.2506C16.2544 11.7021 16.9649 12 18 12C19.3261 12 20.5979 12.5268 21.5355 13.4645C22.4732 14.4021 23 15.6739 23 17C23 18.3261 22.4732 19.5979 21.5355 20.5355C20.5979 21.4732 19.3261 22 18 22C17.4477 22 17 21.5523 17 21C17 20.4477 17.4477 20 18 20C18.7956 20 19.5587 19.6839 20.1213 19.1213C20.6839 18.5587 21 17.7956 21 17C21 16.2044 20.6839 15.4413 20.1213 14.8787C19.5587 14.3161 18.7956 14 18 14C16.8352 14 15.0657 13.6979 14.2525 12.2095L14.2524 12.2094L11.1224 6.47939C10.8576 5.9947 11.0359 5.38716 11.5206 5.1224ZM3.09489 14.1488C3.56498 14.4387 3.71106 15.0548 3.42117 15.5249C3.15362 15.9588 3.00883 16.4773 3.00001 17.007C3.00184 17.6734 3.22555 18.3204 3.63596 18.8457C4.04786 19.3729 4.62418 19.7473 5.2733 19.9094C5.92242 20.0715 6.60709 20.0119 7.21847 19.7402C7.82984 19.4684 8.33284 19.0001 8.6475 18.4097L8.65455 18.3967C9.21283 17.3855 10.3186 15.98 12.01 15.98H18C18.5523 15.98 19 16.4277 19 16.98C19 17.5323 18.5523 17.98 18 17.98H12.01C11.5025 17.98 10.9097 18.4525 10.4087 19.3575C9.88399 20.3382 9.04726 21.116 8.03078 21.5678C7.01182 22.0207 5.8707 22.1199 4.78884 21.8498C3.70697 21.5797 2.74644 20.9557 2.05993 20.077C1.37343 19.1983 1.00035 18.1154 1 17.0003L1.0001 16.9857C1.0125 16.1179 1.24761 15.2393 1.71883 14.4751C2.00872 14.005 2.6248 13.8589 3.09489 14.1488Z" fill="currentColor" style="fill="currentColor";fill-opacity:1;"/>
</svg>
