<svg width="24" height="24" viewBox="0 0 24 24" fill="none" xmlns="http://www.w3.org/2000/svg">
<path fill-rule="evenodd" clip-rule="evenodd" d="M12 3C10.8954 3 10 3.89543 10 5C10 6.10457 10.8954 7 12 7C13.1046 7 14 6.10457 14 5C14 3.89543 13.1046 3 12 3ZM15.4649 7C15.8052 6.41165 16 5.72857 16 5C16 2.79086 14.2091 1 12 1C9.79086 1 8 2.79086 8 5C8 5.72857 8.19479 6.41165 8.53513 7H6.49997L6.4896 7.00005C5.84048 7.00679 5.21106 7.22389 4.69582 7.61877C4.18058 8.01365 3.80733 8.565 3.6321 9.19005L1.13601 18.234L1.13177 18.2498C1.01837 18.6887 1.0059 19.1476 1.09529 19.592C1.18468 20.0363 1.37361 20.4547 1.64789 20.8156C1.92217 21.1765 2.27466 21.4705 2.67888 21.6756C3.08311 21.8807 3.52855 21.9916 3.98177 21.9998L3.99997 22H20C20.463 21.9998 20.92 21.8925 21.3346 21.6864C21.7492 21.4803 22.1105 21.181 22.3902 20.812C22.6698 20.443 22.8603 20.0143 22.9466 19.5594C23.033 19.1045 23.0128 18.6358 22.8878 18.19L20.3652 9.23826C20.1985 8.60319 19.828 8.04022 19.3104 7.63586C18.7896 7.229 18.1491 7.00549 17.4882 7.00003L15.4649 7ZM6.50604 9C6.29119 9.00315 6.08303 9.07543 5.91242 9.20619C5.74112 9.33747 5.61691 9.52064 5.5583 9.72832C5.55815 9.72886 5.558 9.7294 5.55785 9.72995L3.06649 18.7568C3.03026 18.9011 3.02667 19.0516 3.05602 19.1975C3.08581 19.3457 3.14879 19.4851 3.24022 19.6054C3.33164 19.7257 3.44913 19.8237 3.58388 19.8921C3.71638 19.9593 3.86216 19.9962 4.01063 20H19.9996C19.9995 20 19.9997 20 19.9996 20C20.1538 19.9999 20.3063 19.9641 20.4444 19.8955C20.5826 19.8268 20.703 19.727 20.7962 19.604C20.8895 19.481 20.9529 19.3381 20.9817 19.1865C21.0104 19.0351 21.0038 18.8791 20.9623 18.7308C20.9623 18.7305 20.9624 18.731 20.9623 18.7308L18.4375 9.77124L18.4317 9.74997C18.3767 9.53667 18.2527 9.34753 18.0791 9.21191C17.9064 9.07699 17.6942 9.00255 17.4751 9H6.50604Z" fill="currentColor" style="fill="currentColor";fill-opacity:1;"/>
</svg>
