<svg width="24" height="24" viewBox="0 0 24 24" fill="none" xmlns="http://www.w3.org/2000/svg">
<g clip-path="url(#clip0_168_324)">
<path d="M22 23.0001C21.74 23.0001 21.49 22.9001 21.29 22.7101L15.99 17.4101C15.38 17.9601 14.64 18.3201 13.84 18.4701C13.94 18.6301 13.99 18.8101 13.99 19.0001C13.99 19.2601 13.88 19.5201 13.7 19.7101L12.17 21.2401C11.32 22.0901 10.19 22.5501 8.99 22.5501C7.79 22.5501 6.66 22.0801 5.81 21.2401L4.99 20.4201L2.7 22.7101C2.31 23.1001 1.68 23.1001 1.29 22.7101C0.900001 22.3201 0.900001 21.6901 1.29 21.3001L3.58 19.0101L2.76 18.1901C1.91 17.3401 1.45 16.2101 1.45 15.0101C1.45 13.8101 1.92 12.6801 2.76 11.8301L4.29 10.3001C4.62 9.96006 5.14 9.92006 5.53 10.1601C5.68 9.36006 6.04 8.63006 6.59 8.01006L1.29 2.71006C0.900001 2.32006 0.900001 1.68006 1.29 1.29006C1.68 0.900059 2.32 0.900059 2.71 1.29006L12.13 10.7101C12.19 10.7601 12.25 10.8201 12.3 10.8801L13.12 11.7001C13.18 11.7501 13.24 11.8101 13.29 11.8701L16.7 15.2801C16.7 15.2801 16.7 15.2801 16.71 15.2801L22.7 21.2701C23.09 21.6601 23.09 22.2901 22.7 22.6801C22.5 22.8801 22.25 22.9701 21.99 22.9701L22 23.0001ZM6.41 19.0001L7.23 19.8201C8.17 20.7601 9.81 20.7601 10.76 19.8201L11.58 19.0001L10.76 18.1801C9.82 17.2401 8.18 17.2401 7.23 18.1801L6.41 19.0001ZM5 12.4101L4.18 13.2301C3.71 13.7001 3.45 14.3301 3.45 14.9901C3.45 15.6501 3.71 16.2801 4.18 16.7501L5 17.5701L5.85 16.7201C6.3 16.2501 6.55 15.6401 6.55 14.9901C6.55 14.3401 6.29 13.7001 5.82 13.2301L5 12.4101ZM10.41 15.0001L11.23 15.8201C12.11 16.7001 13.61 16.7701 14.57 15.9901L12.17 13.5901C11.82 13.7101 11.49 13.9101 11.23 14.1801L10.41 15.0001ZM8.01 9.42006C7.65 9.86006 7.45 10.4101 7.45 11.0001C7.45 11.6701 7.71 12.2901 8.18 12.7601L9 13.5801L9.83 12.7501C10.09 12.4901 10.28 12.1701 10.4 11.8201L8 9.42006H8.01ZM18.74 14.0901C18.39 14.0901 18.06 13.9101 17.87 13.5901C17.59 13.1101 17.76 12.5001 18.24 12.2201C18.43 12.1101 18.61 11.9701 18.76 11.8201L19.58 11.0001L18.76 10.1801C18.33 9.75006 17.76 9.50006 17.15 9.46006C16.54 9.42006 15.94 9.61006 15.46 9.98006C15.05 10.3001 14.48 10.2501 14.13 9.89006C13.77 9.54006 13.72 8.96006 14.04 8.56006C14.41 8.08006 14.6 7.48006 14.56 6.87006C14.52 6.26006 14.27 5.69006 13.84 5.26006L13.02 4.44006L12.2 5.26006C12.05 5.41006 11.91 5.59006 11.8 5.78006C11.52 6.26006 10.91 6.42006 10.43 6.15006C9.95 5.87006 9.79 5.26006 10.06 4.78006C10.26 4.44006 10.5 4.12006 10.78 3.84006L12.31 2.31006C12.7 1.92006 13.33 1.92006 13.72 2.31006L15.25 3.84006C15.31 3.90006 15.37 3.96006 15.42 4.03006C15.67 3.46006 16.02 2.94006 16.47 2.49006C17.41 1.55006 18.67 1.03006 20.01 1.03006H22.01C22.56 1.03006 23.01 1.48006 23.01 2.03006V4.03006C23.01 5.37006 22.49 6.62006 21.55 7.57006C21.1 8.02006 20.58 8.38006 20.01 8.62006C20.07 8.68006 20.13 8.73006 20.19 8.79006L21.72 10.3201C22.11 10.7101 22.11 11.3401 21.72 11.7301L20.19 13.2601C19.91 13.5401 19.6 13.7801 19.25 13.9801C19.09 14.0701 18.92 14.1101 18.75 14.1101L18.74 14.0901ZM17 7.00006H18C18.8 7.00006 19.56 6.69006 20.12 6.12006C20.68 5.56006 21 4.79006 21 4.00006V3.00006H20C19.2 3.00006 18.45 3.31006 17.88 3.88006C17.31 4.45006 17 5.20006 17 6.00006V7.00006Z" fill="currentColor" style="fill="currentColor";fill-opacity:1;"/>
</g>
<defs>
<clipPath id="clip0_168_324">
<rect width="22" height="22" fill="white" style="fill:white;fill-opacity:1;" transform="translate(1 1)"/>
</clipPath>
</defs>
</svg>
