<svg width="24" height="24" viewBox="0 0 24 24" fill="none" xmlns="http://www.w3.org/2000/svg">
<path fill-rule="evenodd" clip-rule="evenodd" d="M11.2194 5.01871C11.057 4.98706 10.8892 4.9962 10.7312 5.04532C10.5732 5.09444 10.4299 5.182 10.314 5.30015C9.92739 5.6945 9.29426 5.70075 8.8999 5.31409C8.50555 4.92744 8.4993 4.29431 8.88595 3.89995C9.23347 3.54551 9.66351 3.28283 10.1375 3.13548C10.6115 2.98812 11.1147 2.96069 11.6019 3.05564C12.0891 3.15058 12.5452 3.36495 12.9292 3.67951C13.3132 3.99407 13.6131 4.399 13.8021 4.85799C13.9911 5.31699 14.0633 5.81572 14.0121 6.30946C13.9609 6.8032 13.7881 7.27654 13.509 7.68703C13.2299 8.09752 12.8533 8.43234 12.4129 8.66148C11.9749 8.88944 11.4874 9.00572 10.9936 9.00005H2C1.44772 9.00005 1 8.55233 1 8.00005C1 7.44776 1.44772 7.00005 2 7.00005H11.014C11.1795 7.00237 11.3429 6.9637 11.4897 6.88732C11.6365 6.81094 11.762 6.69934 11.8551 6.56251C11.9481 6.42568 12.0057 6.2679 12.0228 6.10332C12.0398 5.93874 12.0158 5.77249 11.9528 5.61949C11.8898 5.46649 11.7898 5.33152 11.6618 5.22667C11.5338 5.12181 11.3818 5.05036 11.2194 5.01871ZM19.7378 8.03206C19.4991 7.98268 19.2519 7.99225 19.0177 8.05993C18.7834 8.1276 18.5692 8.25135 18.3936 8.42045C17.9958 8.80353 17.3627 8.79156 16.9797 8.39372C16.5966 7.99588 16.6086 7.36283 17.0064 6.97976C17.4162 6.58518 17.916 6.29643 18.4625 6.13852C19.009 5.98061 19.5858 5.9583 20.1429 6.0735C20.6999 6.18871 21.2205 6.43798 21.6596 6.79971C22.0986 7.16144 22.4429 7.62474 22.6626 8.14949C22.8822 8.67424 22.9707 9.24463 22.9203 9.81127C22.8698 10.3779 22.682 10.9237 22.3731 11.4014C22.0643 11.8791 21.6436 12.2743 21.1475 12.5528C20.6515 12.8313 20.0951 12.9847 19.5264 12.9998C19.5217 12.9999 19.517 13 19.5122 13C19.5082 13.0001 19.5041 13.0001 19.5 13.0001H2C1.44772 13.0001 1 12.5524 1 12.0001C1 11.4478 1.44772 11.0001 2 11.0001H19.4851C19.7248 10.9919 19.9592 10.9264 20.1684 10.8089C20.381 10.6896 20.5613 10.5202 20.6937 10.3154C20.826 10.1107 20.9065 9.8768 20.9281 9.63396C20.9497 9.39112 20.9118 9.14667 20.8177 8.92177C20.7236 8.69688 20.576 8.49832 20.3878 8.34329C20.1997 8.18826 19.9766 8.08143 19.7378 8.03206ZM13.9936 15C14.4874 14.9943 14.9749 15.1106 15.4129 15.3385C15.8533 15.5677 16.2299 15.9025 16.509 16.313C16.7881 16.7235 16.961 17.1968 17.0121 17.6905C17.0633 18.1843 16.9911 18.683 16.8021 19.142C16.6131 19.601 16.3132 20.0059 15.9292 20.3205C15.5452 20.6351 15.0891 20.8494 14.6019 20.9444C14.1147 21.0393 13.6115 21.0119 13.1375 20.8645C12.6635 20.7172 12.2335 20.4545 11.886 20.1001C11.4993 19.7057 11.5055 19.0726 11.8999 18.6859C12.2943 18.2993 12.9274 18.3055 13.314 18.6999C13.4299 18.818 13.5732 18.9056 13.7312 18.9547C13.8892 19.0038 14.057 19.0129 14.2194 18.9813C14.3818 18.9496 14.5338 18.8782 14.6618 18.7733C14.7898 18.6685 14.8898 18.5335 14.9528 18.3805C15.0158 18.2275 15.0398 18.0613 15.0228 17.8967C15.0057 17.7321 14.9481 17.5743 14.8551 17.4375C14.762 17.3007 14.6365 17.1891 14.4897 17.1127C14.3429 17.0363 14.1795 16.9975 14.014 16.9999L14 17.0001L2 17C1.44772 17 1 16.5522 1 16C1 15.4477 1.44772 15 2 15H13.9936Z" fill="currentColor" style="fill="currentColor";fill-opacity:1;"/>
</svg>
