<svg width="24" height="24" viewBox="0 0 24 24" fill="none" xmlns="http://www.w3.org/2000/svg">
<path fill-rule="evenodd" clip-rule="evenodd" d="M8.06367 1.64888C8.21003 1.25857 8.58316 1 9 1H15C15.4168 1 15.79 1.25857 15.9363 1.64888C17.4416 5.66294 18 7.80734 18 10C18 11.5913 17.3679 13.1174 16.2426 14.2426C15.3559 15.1293 14.2203 15.7098 13 15.9161V21H16C16.5523 21 17 21.4477 17 22C17 22.5523 16.5523 23 16 23H8C7.44772 23 7 22.5523 7 22C7 21.4477 7.44772 21 8 21H11V15.9161C9.77969 15.7098 8.64405 15.1293 7.75736 14.2426C6.63214 13.1174 6 11.5913 6 10C6 7.80734 6.5584 5.66294 8.06367 1.64888ZM9.69541 3C8.64356 5.86385 8.18463 7.55578 8.04717 9H15.9528C15.8154 7.55578 15.3564 5.86385 14.3046 3H9.69541ZM15.873 11H8.12701C8.30416 11.686 8.66203 12.3189 9.17157 12.8284C9.92172 13.5786 10.9391 14 12 14C13.0609 14 14.0783 13.5786 14.8284 12.8284C15.338 12.3189 15.6958 11.686 15.873 11Z" fill="currentColor" style="fill="currentColor";fill-opacity:1;"/>
</svg>
