<svg width="24" height="24" viewBox="0 0 24 24" fill="none" xmlns="http://www.w3.org/2000/svg">
<path fill-rule="evenodd" clip-rule="evenodd" d="M5 4C4.44772 4 4 4.44772 4 5V9C4 9.55228 4.44772 10 5 10H9C9.55228 10 10 9.55228 10 9V5C10 4.44772 9.55228 4 9 4H5ZM8 12H9C10.6569 12 12 10.6569 12 9V5C12 3.34315 10.6569 2 9 2H5C3.34315 2 2 3.34315 2 5V9C2 10.6569 3.34315 12 5 12H6V15C6 15.7956 6.31607 16.5587 6.87868 17.1213C7.44129 17.6839 8.20435 18 9 18H12V19C12 20.6569 13.3431 22 15 22H19C20.6569 22 22 20.6569 22 19V15C22 13.3431 20.6569 12 19 12H15C13.3431 12 12 13.3431 12 15V16H9C8.73478 16 8.48043 15.8946 8.29289 15.7071C8.10536 15.5196 8 15.2652 8 15V12ZM14 19C14 19.5523 14.4477 20 15 20H19C19.5523 20 20 19.5523 20 19V15C20 14.4477 19.5523 14 19 14H15C14.4477 14 14 14.4477 14 15V19Z" fill="currentColor" style="fill="currentColor";fill-opacity:1;"/>
</svg>
