<svg width="24" height="24" viewBox="0 0 24 24" fill="none" xmlns="http://www.w3.org/2000/svg">
<path fill-rule="evenodd" clip-rule="evenodd" d="M13.3976 1.08247C13.8049 1.25893 14.0472 1.6828 13.9924 2.12332L13.4024 6.87332C13.3344 7.42139 12.8349 7.81051 12.2868 7.74243C11.7387 7.67435 11.3496 7.17487 11.4177 6.62679L11.5873 5.26097L11.3387 5.55972C10.9854 5.98424 10.3549 6.04199 9.9304 5.68871C9.50589 5.33543 9.44814 4.7049 9.80142 4.28039L12.2314 1.36039C12.5154 1.01918 12.9903 0.906 13.3976 1.08247ZM1.29289 1.29295C1.68342 0.902425 2.31658 0.902425 2.70711 1.29295L8.69991 7.28576C8.70533 7.29105 8.71067 7.29639 8.71594 7.30178L16.7 15.2858C16.7053 15.2911 16.7107 15.2964 16.7159 15.3017L22.7071 21.2929C23.0976 21.6835 23.0976 22.3166 22.7071 22.7072C22.3166 23.0977 21.6834 23.0977 21.2929 22.7072L16.0672 17.4815L11.7682 22.6402C11.484 22.9813 11.009 23.0941 10.6018 22.9174C10.1946 22.7406 9.95266 22.3165 10.0077 21.876L10.8672 15.0001H3C2.61198 15.0001 2.25899 14.7756 2.09441 14.4242C1.92983 14.0728 1.98338 13.658 2.23178 13.3599L6.64715 8.06142L1.29289 2.70716C0.902369 2.31664 0.902369 1.68347 1.29289 1.29295ZM8.0672 9.48147L5.13504 13.0001H11.5858L8.0672 9.48147ZM12.9609 14.3752L12.4153 18.7396L14.6472 16.0614L12.9609 14.3752ZM14.6599 10.0001C14.6599 9.44777 15.1076 9.00006 15.6599 9.00006H20.9999C21.3881 9.00006 21.7412 9.22473 21.9057 9.57636C22.0702 9.92799 22.0163 10.343 21.7675 10.641L19.3375 13.551C18.9835 13.9749 18.3529 14.0316 17.9289 13.6776C17.505 13.3236 17.4483 12.693 17.8023 12.2691L18.8621 11.0001H15.6599C15.1076 11.0001 14.6599 10.5523 14.6599 10.0001Z" fill="currentColor" style="fill="currentColor";fill-opacity:1;"/>
</svg>
